<?xml version="1.0" encoding="utf-8"?>
<!-- Generator: Adobe Illustrator 24.3.0, SVG Export Plug-In . SVG Version: 6.00 Build 0)  -->
<svg version="1.1" id="Layer_1" xmlns="http://www.w3.org/2000/svg" xmlns:xlink="http://www.w3.org/1999/xlink" x="0px" y="0px"
	 viewBox="0 0 900 200" style="enable-background:new 0 0 900 200;" xml:space="preserve">
<style type="text/css">
	.st0{fill:#FFFFFF;}
</style>
<g>
	<path class="st0" d="M583.5,129.5c18.5-11.3,35.9-21.7,53.1-32.3c17.1-10.5,34-21.2,51.7-32.2c-2.1-2.9-3.6-5.8-5.8-8.1
		c-6.5-6.8-14.4-10.8-24-11.8c-8.2-0.8-16,0-23.2,4c-11.3,6.4-18.7,16-21.8,28.8c-1.8,7.5-1.1,14.9,1.1,22.1c1,3.2,0.3,5.2-2.3,7
		c-9,6.3-17.9,12.6-26.8,18.9c-0.8,0.6-1.9,0.9-3.6,1.6c-0.5-2.5-1.3-4.5-1.3-6.5c-0.1-22.8-0.1-45.7,0-68.5c0-5,2.2-8.4,6.8-10.9
		c19.4-10.5,38.7-21.3,58-32c4.4-2.4,8.6-2.5,13,0c16.3,9,32.6,18,48.9,27c3.4,1.9,6.7,3.7,10,5.6c4.1,2.4,6.2,5.7,6.1,10.7
		c-0.2,22.6-0.2,45.3,0,67.9c0,5.6-2.4,9.2-7.2,11.8c-18.3,9.9-36.6,19.9-54.7,30.1c-6,3.4-11.3,3.9-17.4,0.4
		c-16.5-9.4-33.2-18.5-49.8-27.6C590.9,133.6,587.6,131.8,583.5,129.5z M621.2,113.8c3.4,3,5.9,5.9,9,8c15.7,11,35.5,10,49.9-2.7
		c2.7-2.4,4.9-5.4,7.1-8.3c1.5-2,0.8-4.4-1.2-5.7c-2-1.3-3.3-0.2-4.5,1.4c-1.7,2.1-3.5,4.2-5.5,6.1c-11.3,11.2-29.1,12.4-41.9,2.8
		c-2.1-1.6-4.2-3.4-6.3-5.1C625.7,111.5,624,112.4,621.2,113.8z"/>
	<path class="st0" d="M282.1,89c2.2-3.6,4.1-6.4,5.9-9.3c7.2-11.6,14.3-23.3,21.5-34.9c3.8-6.1,4.8-6.4,13-4.3
		c0.1,1.6,0.3,3.4,0.3,5.2c0,22.5,0,44.9,0,67.4c0,0.9,0,1.8,0,2.7c0,2.4-1.1,3.8-3.6,3.9c-2.9,0.1-5.8,0-9.3,0
		c-0.9-5.9-0.4-11.3-0.4-16.7c-0.1-5.5,0-11,0-16.4c0-5.4,0-10.8,0-16.2c-0.3-0.1-0.6-0.1-0.9-0.2c-2.2,3.5-4.5,6.9-6.6,10.4
		c-4.4,7.1-8.7,14.4-13.1,21.5c-3.2,5.2-10.1,5.1-13.4-0.2c-5.3-8.5-10.5-17.1-15.7-25.6c-1.2-2-2.6-3.9-4.8-5.7
		c0,16.1,0,32.1,0,48.2c-4.5,1.5-8.4,1-12.2,0.5c-1.3-3.9-1.7-71.9-0.5-78.7c6.8-2.4,9.1-1.7,12.7,4C263.8,59.1,272.6,73.6,282.1,89
		z"/>
	<path class="st0" d="M439,124.1c4.2,0,7.6-0.3,11,0.2c1.1,0.2,2.4,2,3,3.3c4.5,10.1,21.4,10.3,26.9,2.2c3.3-4.9,3.5-10.2,2.7-16.2
		c-1.4,0.6-2.4,1-3.5,1.4c-11.3,4.2-22.2,4.5-31.9-3.9c-5.6-4.8-8.9-10.9-9.2-18.5c-0.3-6.9,0.7-13.4,5.1-19.1
		c7.4-9.6,17.3-12.3,28.7-10.4c3.7,0.6,7.2,2.4,10.8,3.7c2-3.6,4.6-4.2,12.5-2.2c0.1,1.6,0.3,3.4,0.3,5.2c0,17.4,0.1,34.7,0,52.1
		c0,14.4-10.3,24.8-24.7,25.4c-6.9,0.3-13.5-0.2-19.5-4C444.3,139.1,440,133.4,439,124.1z M482.9,90c0-8.6-0.2-9.5-4.9-12.9
		c-1.9-1.3-4.1-2.4-6.4-2.9c-11.1-2.9-22.5,6.4-21.2,17.1c1.6,12.6,14.9,19.3,25.9,13c4-2.3,7.4-5.5,6.6-10.9
		C482.7,92.2,482.9,91.1,482.9,90z"/>
	<path class="st0" d="M230.3,95.7c-14.2,0-28,0-41.7,0c-0.1,6.4,4,11.8,9.7,12.7c5.4,0.9,10.9,1.4,15.5-2.9c0.7-0.7,1.9-1.1,2.9-1.2
		c3.7-0.1,7.5,0,11.7,0c-1.7,5.8-4.8,9.4-9.1,12.1c-13.9,8.5-33.1,4.5-41-8.9c-9-15.3-4.2-35.9,13.6-43c16-6.4,35.6,2.1,37.9,20.4
		c0.2,2,0.7,3.9,0.9,5.9C230.8,92.1,230.5,93.3,230.3,95.7z M217,86.2c-2-9.2-6.8-12.9-15.5-12.5c-7.1,0.3-12,4.9-13,12.5
		C197.9,86.2,207.3,86.2,217,86.2z"/>
	<path class="st0" d="M389.1,104.2c-2.9,8.5-8.2,12.7-15,14.9c-8.3,2.7-16.5,2.4-24.4-1.8c-7.6-4-12.5-9.9-14.2-18.4
		c-2.3-11.5-0.1-21.9,8.9-29.9c11.2-9.9,33.4-9.6,43,6.5c2.7,4.6,4,13.2,2.8,19.7c-1.8,0.1-3.7,0.4-5.6,0.4c-10.2,0-20.5,0-30.7,0
		c-1.8,0-3.5,0.2-5.3,0.3c1.4,10.6,8.5,13.4,16.2,13c3.1-0.1,6.1-0.8,8.6-3c1.3-1.1,3.2-1.6,4.9-1.7
		C381.6,104,384.8,104.2,389.1,104.2z M377.1,85.7c0.5-7.3-7-12.5-14.4-12c-7.8,0.5-13.2,5.2-13.6,12.4
		C355.9,87.1,373.3,86.9,377.1,85.7z"/>
	<path class="st0" d="M560.9,95.8c-13.8,0-27.4,0-41,0c-0.3,6.1,3.8,11.6,9.5,12.6c5.4,0.9,10.9,1.5,15.5-2.9
		c0.7-0.7,1.9-1.2,2.9-1.2c3.8-0.1,7.5,0,11.6,0c-1.1,6.8-5.4,10.3-10.2,12.9c-12.7,6.7-28.3,4.2-37-6.3c-5.2-6.2-7.2-13.6-6.6-21.9
		c0.6-7.9,3.6-14.4,9.5-19.6c13.9-12.5,40.4-8.4,45.7,13.1C562.2,88.6,562.4,90.1,560.9,95.8z M547.9,86.3
		c-0.9-8.4-5.6-12.6-13.6-12.6c-8.4,0.1-13.8,4.6-14.5,12.6C529.2,86.3,538.5,86.3,547.9,86.3z"/>
	<path class="st0" d="M622.7,99.7c-7.3-14.4-0.3-34.6,14.5-43.4c14.3-8.4,33.2-3.7,40.6,7.6C659.5,75.8,641.1,87.7,622.7,99.7z"/>
	<path class="st0" d="M401.5,64.1c4,0,7.8,0,11.7,0c0.4,1.9,0.7,3.4,1,5.2c3-1.6,5.8-3.5,8.9-4.7c3-1.1,6.2-1.5,10.2-2.4
		c0.1,4,0.2,7,0.2,10c0,2.8-2.5,2.7-4.3,3.4c-3.2,1.2-6.6,2-9.7,3.5c-4,2-6.1,5.2-5.9,10.1c0.4,8,0.1,16,0.1,24.1
		c0,6.1-0.4,6.4-6.6,6.4c-2,0-3.9-0.2-5.7-0.3C400.3,114.4,400.3,69.3,401.5,64.1z"/>
	<path class="st0" d="M425.7,190.4c-6.1,0.7-6.3,0.6-6.4-4.3c-0.1-5.1,0-10.2,0-15.3c0-3.6-1-6.5-4.7-7.8c-3.4-1.2-9.3-0.1-11.2,2.5
		c-1,1.4-1.4,3.3-1.5,5.1c-0.2,4.7,0,9.5-0.1,14.2c0,1.8-0.2,3.6-0.3,5.2c-5.8,1.5-6.3,1.2-6.4-3.9c-0.1-5.3,0.1-10.6,0-15.9
		c-0.1-5.6-2.2-7.7-7.6-7.7c-5.9,0-9.6,2.9-9.8,7.9c-0.1,5.3,0,10.6-0.1,15.9c-0.1,4.7-0.4,4.9-6,4c-0.2-1.1-0.6-2.3-0.6-3.5
		c-0.1-8.2,0-16.4,0-24.7c0-2-0.2-4.2,2.3-5c2.1-0.6,4-0.3,4.8,2.1c7.5-3.7,14.6-4.2,21.3,1.8c3.7-3.2,7.9-4.5,12.9-4.5
		c6.4,0,12,2.5,13.1,11.2C426.5,175.1,425.7,182.7,425.7,190.4z"/>
	<path class="st0" d="M368.8,190.2c-6.1,1.1-6.5,1-8.5-3.2c-0.3-0.7-0.6-1.3-0.9-2c-3.4-9.1-3.4-7-10.5-7.2
		c-4.2-0.1-8.4,0.1-12.6-0.1c-2.9-0.1-4.9,0.7-5.9,3.6c-0.7,1.9-1.7,3.6-2.6,5.4c-2,4.5-2,4.5-8,3.5c0.8-2.2,1.4-4.4,2.3-6.5
		c5.6-12.5,11.2-24.9,16.9-37.3c0.5-1,0.9-2,1.5-2.9c2.1-2.9,6-2.7,7.5,0.5c5.3,11.4,10.4,22.9,15.5,34.3
		C365.2,182.2,366.9,186,368.8,190.2z M344.1,150.3c-3.3,7.4-6.1,13.6-9.2,20.6c6.4,0.4,12.1,0.3,18.4,0.2
		C350.1,164,347.3,157.7,344.1,150.3z"/>
	<path class="st0" d="M570.4,157.3c0,11.6,0,22.2,0,33.2c-1.6,0.2-3.2,0.9-3.9,0.4c-3-2-5.7-0.7-8.6,0.1
		c-10.1,2.9-18.4-3.7-20.7-10.7c-3.5-10.6,0.9-19.1,10.4-22.5c3.5-1.3,7.9-0.6,11.8-0.3c2,0.2,3.8,1.8,6-0.1
		C566.3,156.6,568.4,157.3,570.4,157.3z M564.7,174c-0.2-0.1-0.4-0.1-0.6-0.2c0-0.9,0-1.8,0-2.7c-0.1-4.2-2.1-6.9-5.9-8.1
		c-5.1-1.6-10.2,0.1-13.7,4.5c-2.9,3.8-3,8.9-0.2,13.3c3.7,5.8,13.9,6.8,18,1.3C563.9,179.9,563.9,176.7,564.7,174z"/>
	<path class="st0" d="M436.1,176c2.1,9.1,9.9,12.4,16.9,8c3.5-2.2,3.5-2.2,8.3-1.4c-0.3,3.1-2.4,4.7-4.7,6.1
		c-8.2,5.3-18.8,2.7-22.9-2.8c-6.2-8.2-6.2-15.9,0-24.1c4.2-5.6,12.7-6.4,19.6-4.1c5.4,1.8,9.7,8.4,9.9,14.6
		c0.1,2.8-1.5,3.4-3.8,3.3c-5.8,0-11.7,0-17.5,0C440.1,175.8,438.3,175.9,436.1,176z M436.3,170.4c6.4,1.3,16.4,1,19.9-0.5
		c-1.3-5.3-3.3-7.1-8.3-7.5C441.4,162.1,438.9,163.7,436.3,170.4z"/>
	<path class="st0" d="M573.6,180.4c3-1.1,4.9-0.5,6.8,1.9c3.7,4.5,9.9,5.5,14.2,2.5c1-0.7,1.9-2.2,2.1-3.4c0.4-1.8-0.8-3.2-2.6-3.6
		c-3.5-0.8-7.1-1.5-10.7-2.3c-5.6-1.2-8.2-3.9-8.5-8.5c-0.3-4.7,3.7-9.5,8.8-10.1c3.2-0.4,6.6-0.3,9.8,0c3.9,0.4,6.6,2.8,8.3,6.4
		c0.7,1.5,1.3,3.3-0.8,4.2c-1.6,0.7-3,0.3-4.2-1.4c-3.5-4.7-7.8-5.9-12.7-3.6c-1.3,0.6-2.9,2.2-2.9,3.3c0,1.2,1.6,2.9,2.8,3.5
		c1.9,0.9,4.2,1.1,6.3,1.7c2.6,0.7,5.4,1.2,7.8,2.3c3.1,1.5,5.4,4.2,5.2,7.7c-0.2,3.5-1.9,6.5-5.4,8.3c-6.4,3.2-12.6,3.1-18.8-0.3
		C575.6,187.4,573.9,184.5,573.6,180.4z"/>
	<path class="st0" d="M533.8,179.5c-1.3,7.5-8.6,13-16.1,12.3c-10.7-1.1-16.8-9-16.8-18.1c0-8.5,7.1-16.1,15-16.8
		c10.4-0.9,16.5,3.1,17.9,11.8c-2.8,0.9-5,0.8-7.1-2c-3.2-4.3-8.8-5.4-13.1-3.2c-4.9,2.5-7.6,8.6-5.8,13.9c1.2,3.8,3.2,7.1,7.5,7.9
		c4.5,0.7,8.9,0.7,11.7-3.8C528.6,178.6,530.9,178.1,533.8,179.5z"/>
	<path class="st0" d="M475.5,160c3.3-1.2,5.9-2.3,8.6-3c1.5-0.4,2.9,0.1,3.2,2.1c0.2,1.6-0.1,2.9-1.9,3.4c-0.7,0.2-1.4,0.3-2.1,0.5
		c-6.6,2.4-8,4.6-8,11.7c0,3.8,0.1,7.6,0,11.5c-0.1,4.8-0.3,4.9-6.1,4.3c-0.2-1.2-0.6-2.6-0.6-4c-0.1-8.2-0.1-16.4,0-24.5
		c0-1.9-0.7-4.3,2.2-4.8C473.4,156.6,475,157.9,475.5,160z"/>
	<path class="st0" d="M497.3,190.4c-6.3,0.7-6.6,0.6-6.6-4.2c-0.1-8,0-16,0-24c0-1.1-0.1-2.5,0.4-3.1c0.8-1,2.2-1.7,3.5-1.9
		c1.7-0.3,2.7,0.9,2.7,2.7C497.3,169.9,497.3,180,497.3,190.4z"/>
	<path class="st0" d="M494.1,149.3c-2,0.1-3.8-1.6-3.9-3.7c-0.1-2,1.6-3.9,3.6-4c2.1-0.1,4.4,2,4.3,3.9
		C498.1,147.3,496,149.2,494.1,149.3z"/>
</g>
</svg>
