<?xml version="1.0" encoding="utf-8"?>
<!-- Generator: Adobe Illustrator 25.4.1, SVG Export Plug-In . SVG Version: 6.00 Build 0)  -->
<svg version="1.1" id="Layer_1" xmlns="http://www.w3.org/2000/svg" xmlns:xlink="http://www.w3.org/1999/xlink" x="0px" y="0px"
	 viewBox="0 0 1163.4 487" style="enable-background:new 0 0 1163.4 487;" xml:space="preserve">
<style type="text/css">
	.st0{fill:none;}
	.st1{fill:#FFFFFF;}
</style>
<rect x="219.7" y="143.5" class="st0" width="724" height="200"/>
<path class="st1" d="M342.8,343.5V192c2.2,0,4.1-0.1,6.1,0c0.6,0,1.3,0.7,1.7,1.2c3.3,3.9,6.7,7.8,10.1,11.9
	c1.1-0.9,2.1-1.8,3.1-2.6c8.4-7,17.6-12.3,28.5-13.9c15.8-2.2,30,1.8,42.4,11.7c12.2,9.9,18.6,23,20.1,38.5
	c1.3,12.6-0.2,24.7-6.2,36c-9.2,17.7-24.2,26.7-43.8,29c-11.7,1.4-21.8-2.7-31.5-8.1c-0.7-0.4-1.3-0.7-2-1.1
	c-0.1,0.2-0.2,0.4-0.2,0.6c0,16.1,0,32.2,0,48.3H342.8z M427.2,246c-0.1-1.6-0.2-3-0.3-4.4c-0.1-0.9-0.2-1.8-0.4-2.6
	c-2.5-11.3-8.8-19.3-20.3-22c-11.5-2.7-21.5,0.2-29,9.6c-5.6,7.1-6.7,15.5-5.7,24.2c2.3,20.6,25.1,31.7,42.6,20.5
	C423.3,265.5,426.8,256.4,427.2,246z"/>
<path class="st1" d="M750.3,196.7c18.8-14,51.1-6,64.4,19c4,7.5,6,15.9,5.9,24.4c-0.1,19.7,0,39.3,0,59v2.5h-28.1
	c0-0.7-0.1-1.3-0.1-1.9c0-19.7-0.2-39.3,0.1-59c0.1-7.5-2.1-13.6-7.9-18.2c-6.8-5.3-14.4-6.1-22.2-2.4c-7.9,3.7-11.9,10.3-12,19
	c-0.2,20,0,39.9,0,59.8v2.6h-27.8V148.5h27.8L750.3,196.7L750.3,196.7z"/>
<path class="st1" d="M596.7,273.8v27.6c-0.2,0.1-0.3,0.2-0.5,0.2c-9-0.1-18.1,0.3-27-0.5c-20.9-1.8-39.4-20.1-42.2-40.9
	c-0.4-2.9-0.6-5.8-0.6-8.8c-0.1-9.6,0-19.3,0-28.9v-2.5H513v-27.9h13.5v-43.7h27.9v43.6h42.4v27.9h-42.2c0,0.9-0.1,1.6-0.1,2.3
	c0,9.9,0,19.8,0,29.7c0,12.6,9.2,21.7,21.8,21.7C582.9,273.8,589.7,273.8,596.7,273.8z"/>
<path class="st1" d="M688.1,234c-3-7.2-7.7-12.7-14.9-15.8c-11.8-5-24.9-1.3-32,9.4c-6.7,10-8.5,20.9-3.4,32.1
	c4.7,10.3,13.2,15.7,24.5,15.9c11,0.2,19.4-4.8,24.9-14.4c0.3-0.5,0.5-0.9,0.7-1.3l20.5,20.5c-13,16.7-30.1,25-51.5,23
	c-24.5-2.4-44.1-19.8-49.1-43.8c-5.9-28.2,9-58.5,37.2-68.8c22.5-8.3,49.6,0.9,62.5,21.2c0.4,0.6,0.7,1.1,0.9,1.7L688.1,234z"/>
<path class="st1" d="M470.9,301.6V192.1h28v109.5H470.9z"/>
<path class="st1" d="M466.3,162.2c0-10.3,8.3-18.7,18.6-18.7c0,0,0.1,0,0.1,0c10.2,0,18.8,8.4,18.9,18.5
	c0.1,10.1-8.4,18.8-18.6,18.8C474.6,180.8,466.3,172.7,466.3,162.2z"/>
</svg>
