<?xml version="1.0" encoding="utf-8"?>
<!-- Generator: Adobe Illustrator 24.3.0, SVG Export Plug-In . SVG Version: 6.00 Build 0)  -->
<svg version="1.1" id="Layer_1" xmlns="http://www.w3.org/2000/svg" xmlns:xlink="http://www.w3.org/1999/xlink" x="0px" y="0px"
	 viewBox="0 0 989.5 154.9" style="enable-background:new 0 0 989.5 154.9;" xml:space="preserve">
<style type="text/css">
	.st0{fill:#FFFFFF;}
</style>
<path class="st0" d="M278.7,117.2h2.7v10.1h5.2v2.1h-7.9V117.2z"/>
<path class="st0" d="M290,125.7c0,0.6,0,2.3,1.7,2.3c0.7,0,1.4-0.5,1.5-1.2h2.3c0,0.7-0.3,1.4-0.8,1.9c-0.8,0.7-1.9,1.1-3,1
	c-1.1,0-2.2-0.3-3-1.1c-0.8-0.9-1.2-2.1-1.1-3.3c-0.1-1.6,0.5-3.1,1.8-4c0.7-0.5,1.5-0.7,2.4-0.7c1.5-0.1,2.8,0.7,3.4,2.1
	c0.4,1,0.6,2.1,0.5,3.1L290,125.7z M293.2,124.2c0-0.4,0-1.9-1.5-1.9c-1.1,0-1.5,0.9-1.6,1.9H293.2z"/>
<path class="st0" d="M302.5,129.4c-0.1-0.4-0.1-0.8-0.1-1.2c-0.5,0.9-1.5,1.4-2.5,1.4c-0.8,0.1-1.6-0.2-2.1-0.7
	c-0.5-0.5-0.7-1.2-0.7-1.9c0-1.2,0.7-2.2,1.8-2.6c1.1-0.4,2.2-0.5,3.4-0.5c0-0.4,0-0.8-0.1-1.1c-0.2-0.4-0.6-0.7-1.1-0.7
	c-0.4,0-0.7,0.2-0.9,0.5c-0.1,0.2-0.2,0.5-0.2,0.8h-2.4c0-0.8,0.3-1.5,1-2c0.8-0.5,1.7-0.7,2.6-0.7c0.7,0,2.2,0.1,3,1.1
	c0.4,0.6,0.6,1.3,0.6,2.1v3.4c0,0.7,0.1,1.4,0.2,2.1L302.5,129.4z M299.4,126.7c0,0.6,0.5,1.2,1.1,1.2c0,0,0.1,0,0.1,0
	c0.4,0,0.8-0.2,1.1-0.5c0.4-0.6,0.6-1.4,0.5-2.1C300.5,125.2,299.4,125.7,299.4,126.7L299.4,126.7z"/>
<path class="st0" d="M312.3,117.2h2.5V128c0,0.5,0,1.1,0.1,1.4h-2.5l-0.1-1.2c-0.2,0.4-0.5,0.7-0.9,1c-0.5,0.3-1.1,0.5-1.6,0.4
	c-2.3,0-3.6-1.6-3.6-4.2c0-2.8,1.5-4.6,3.8-4.6c0.9,0,1.8,0.4,2.4,1.2V117.2z M310.4,127.9c0.7,0,1.3-0.4,1.6-1
	c0.3-0.6,0.4-1.3,0.4-2c0-1.7-0.7-2.6-1.9-2.6c-1.7,0-1.9,2-1.9,2.9C308.7,126.7,309.2,127.9,310.4,127.9L310.4,127.9z"/>
<path class="st0" d="M316.9,117.2h2.7v2.1h-2.7V117.2z M317,120.8h2.5v8.5H317V120.8z"/>
<path class="st0" d="M321.7,122.4c0,0,0-1,0-1.5h2.4l0.1,1.3c0.6-1,1.6-1.6,2.8-1.5c1.1-0.1,2.2,0.6,2.6,1.6
	c0.2,0.8,0.3,1.7,0.2,2.5v4.6h-2.5v-5.3c0-0.3,0-0.6-0.1-0.9c-0.2-0.5-0.7-0.7-1.2-0.7c-0.5,0-1,0.2-1.3,0.7
	c-0.2,0.4-0.3,0.8-0.3,1.3v5h-2.5L321.7,122.4z"/>
<path class="st0" d="M340,120.9c-0.1,0.7-0.1,1.4-0.1,2.1v6.3c0,3.1-2.6,3.4-4.3,3.4c-1.2,0-3.6-0.1-3.7-2.7h2.4
	c0,0.2,0.1,1.2,1.5,1.2c0.7,0.1,1.4-0.4,1.5-1.1c0.1-0.7,0.2-1.3,0.1-2c-0.5,0.8-1.4,1.2-2.3,1.2c-2.4,0-3.6-2.1-3.6-4.2
	c0-2,1.2-4.2,3.6-4.2c1-0.1,1.9,0.4,2.4,1.2l0.1-1.1L340,120.9z M335.8,127.5c1.7,0,1.7-2.1,1.7-2.4c0-1-0.2-2.6-1.7-2.6
	c-0.9,0-1.7,0.7-1.7,2.5C334.1,125.4,334.1,127.5,335.8,127.5z"/>
<path class="st0" d="M347,117.2h2.6v4.9h4.6v-4.9h2.6v12.2h-2.6V124h-4.6v5.3H347L347,117.2z"/>
<path class="st0" d="M359,117.2h2.7v2.1H359V117.2z M359.1,120.8h2.5v8.5h-2.5V120.8z"/>
<path class="st0" d="M365.5,126.9c0,0.7,0.6,1.2,1.3,1.2c0.1,0,0.1,0,0.2,0c0.9,0,1.3-0.5,1.3-1c0-0.4-0.2-0.7-1.2-1l-1.5-0.4
	c-0.7-0.2-2.1-0.6-2.1-2.4c0-1.7,1.5-2.7,3.7-2.7c1.8,0,3.2,0.8,3.2,2.5h-2.3c0-0.6-0.5-1-1.1-1c0,0-0.1,0-0.1,0
	c-0.7,0-1.2,0.3-1.2,0.8c0,0.5,0.4,0.7,1.2,0.9l1.5,0.4c1.6,0.4,2.3,1.2,2.3,2.4c0,1.5-1.3,2.9-3.9,2.9c-1.1,0.1-2.1-0.3-2.9-1
	c-0.4-0.5-0.6-1-0.6-1.7L365.5,126.9z"/>
<path class="st0" d="M374.6,120.9l0.1,1.2c0.5-0.9,1.5-1.4,2.6-1.4c2.2,0,3.6,1.7,3.6,4.3c0,2.4-1.2,4.5-3.7,4.5
	c-0.9,0.1-1.8-0.4-2.4-1.1v4.3h-2.5v-11.8H374.6z M378.2,125c0-1-0.2-2.7-1.7-2.7c-0.8,0-1.9,0.6-1.9,2.9c0,0.5,0,2.7,1.8,2.7
	C377.6,127.8,378.2,126.7,378.2,125z"/>
<path class="st0" d="M387.6,129.4c-0.1-0.4-0.1-0.8-0.1-1.2c-0.5,0.9-1.5,1.4-2.5,1.4c-0.8,0.1-1.6-0.2-2.1-0.7
	c-0.5-0.5-0.7-1.2-0.7-1.9c0-1.2,0.7-2.2,1.8-2.6c1.1-0.4,2.2-0.5,3.4-0.5c0-0.4,0-0.8-0.1-1.1c-0.3-0.6-1-0.9-1.6-0.6
	c-0.2,0.1-0.3,0.2-0.5,0.4c-0.1,0.2-0.2,0.5-0.2,0.8h-2.4c0-0.8,0.3-1.5,1-2c0.8-0.5,1.7-0.7,2.6-0.7c0.7,0,2.2,0.1,3,1.1
	c0.4,0.6,0.6,1.3,0.6,2.1v3.4c0,0.7,0.1,1.4,0.2,2.1L387.6,129.4z M384.5,126.7c0,0.6,0.5,1.2,1.1,1.2c0,0,0.1,0,0.1,0
	c0.4,0,0.8-0.2,1.1-0.5c0.4-0.6,0.6-1.4,0.5-2.1C385.7,125.2,384.5,125.7,384.5,126.7z"/>
<path class="st0" d="M391.9,122.4c0,0,0-1,0-1.5h2.4l0.1,1.3c0.6-1,1.6-1.6,2.8-1.5c1.1-0.1,2.2,0.6,2.6,1.6
	c0.2,0.8,0.3,1.7,0.2,2.5v4.6h-2.5v-5.3c0-0.3,0-0.6-0.1-0.9c-0.2-0.5-0.7-0.7-1.2-0.7c-0.5,0-1,0.2-1.3,0.7
	c-0.2,0.4-0.3,0.8-0.3,1.3v5h-2.5L391.9,122.4z"/>
<path class="st0" d="M402.1,117.2h2.7v2.1h-2.7V117.2z M402.1,120.8h2.5v8.5h-2.5V120.8z"/>
<path class="st0" d="M411.3,123.9c0-0.3-0.1-1.6-1.1-1.6c-1.2,0-1.3,1.8-1.3,2.7c0,0.5,0,2,0.6,2.6c0.2,0.2,0.4,0.3,0.7,0.3
	c0.3,0,1-0.1,1.1-1.6h2.5c0,1-0.4,1.9-1.1,2.5c-0.7,0.6-1.5,0.8-2.4,0.8c-1.1,0.1-2.2-0.3-2.9-1.1c-0.8-0.9-1.1-2.1-1.1-3.4
	c0-3.9,2.9-4.4,4-4.4c1.6,0,3.5,0.9,3.5,3.2L411.3,123.9z"/>
<path class="st0" d="M417,126.9c0,0.7,0.6,1.2,1.3,1.2c0,0,0.1,0,0.1,0c0.9,0,1.3-0.5,1.3-1c0-0.4-0.2-0.7-1.2-1l-1.5-0.4
	c-0.7-0.2-2.1-0.6-2.1-2.4c0-1.7,1.5-2.7,3.7-2.7c1.8,0,3.2,0.8,3.2,2.5h-2.3c0-0.6-0.5-1-1.1-1c0,0-0.1,0-0.1,0
	c-0.7,0-1.2,0.3-1.2,0.8c0,0.5,0.4,0.7,1.2,0.9l1.5,0.4c1.5,0.4,2.3,1.2,2.3,2.4c0,1.5-1.3,2.9-3.9,2.9c-1.1,0.1-2.1-0.3-2.9-1
	c-0.4-0.5-0.6-1-0.6-1.7L417,126.9z"/>
<path class="st0" d="M428.3,117.2h2.7v2.1h-2.7V117.2z M428.4,120.8h2.5v8.5h-2.5L428.4,120.8z"/>
<path class="st0" d="M433.1,122.4c0,0,0-1,0-1.5h2.4l0.1,1.3c0.6-1,1.6-1.6,2.8-1.5c1.1-0.1,2.2,0.6,2.6,1.6
	c0.2,0.8,0.3,1.7,0.2,2.5v4.6h-2.5v-5.3c0-0.3,0-0.6-0.1-0.9c-0.2-0.5-0.7-0.7-1.2-0.7c-0.5,0-1,0.2-1.3,0.7
	c-0.2,0.4-0.3,0.8-0.3,1.3v5h-2.5V122.4z"/>
<path class="st0" d="M450.2,125.5c0,0.6,0,2.3,2.2,2.3c1.4,0,2.3-0.7,2.3-1.7s-0.8-1.3-2.3-1.6c-2.9-0.7-4.5-1.6-4.5-3.7
	c0-2.1,1.4-3.8,4.8-3.8c1.4-0.1,2.7,0.4,3.7,1.4c0.5,0.7,0.7,1.4,0.7,2.3h-2.5c0-1-0.8-1.8-1.8-1.8c-0.1,0-0.1,0-0.2,0
	c-1.2,0-2,0.7-2,1.7c0,1.1,0.9,1.3,2.6,1.8c2.1,0.5,4.2,1.1,4.2,3.5c0,2.2-1.8,4-5.2,4c-4.7,0-4.7-3-4.7-4.2L450.2,125.5z"/>
<path class="st0" d="M461.7,119.2H458v-2h9.9v2h-3.6v10.2h-2.6V119.2z"/>
<path class="st0" d="M469.3,117.2h8.2v2H472v2.9h5.2v2H472v3.3h5.7v2h-8.3V117.2z"/>
<path class="st0" d="M479.4,117.2h4.3l2.6,8.9l2.7-8.9h4.1v12.2h-2.6v-10.4l-3.3,10.4h-2.1l-3.2-10.4v10.4h-2.4L479.4,117.2z"/>
<path class="st0" d="M556.1,70.8V43.5h13.5v3h-10.1v8.8h9.5v3h-9.5v12.5H556.1z"/>
<path class="st0" d="M575.5,70.8h-3.1V43.5h3.1L575.5,70.8z"/>
<path class="st0" d="M580,61.5c0-5.6,0.6-10.2,7.3-10.2s7.3,4.6,7.3,10.2c0,8.4-3.2,9.6-7.3,9.6C583.2,71.2,580,70,580,61.5z
	 M591.2,60.2c0-5.2-1.6-6.3-4-6.3s-4,1.1-4,6.3c0,6.2,0.8,8.4,4,8.4C590.4,68.6,591.2,66.4,591.2,60.2z"/>
<path class="st0" d="M602.2,54.6L602.2,54.6c1.4-2.9,2.9-3.3,6-3.3v3.2l-0.8-0.1c-0.3,0-0.6-0.1-0.8-0.1c-3.4,0-4.3,2.6-4.3,5.2
	v11.3h-3.1V51.7h3.1L602.2,54.6z"/>
<path class="st0" d="M610.9,43.5h3.5v3.3h-3.5V43.5z M614.2,70.8h-3.1V51.7h3.1V70.8z"/>
<path class="st0" d="M629.3,43.5h3.1v27.3h-3.1v-2.3h-0.1c-1.1,1.8-2.4,2.6-4.4,2.6c-3.1,0-6.2-1.2-6.2-9.6c0-4.8,0.1-10.2,6.3-10.2
	c1.7,0,3.3,0.8,4.2,2.3h0.1L629.3,43.5z M625.7,53.9c-3.3,0-3.8,2.6-3.8,7.7c0,2.9,0,7,3.9,7c3.5,0,3.5-4.3,3.5-8.2
	C629.3,58,629.2,53.9,625.7,53.9L625.7,53.9z"/>
<path class="st0" d="M647.6,68L647.6,68c-0.8,2-2.7,3.3-4.9,3.1c-4,0-5.2-2.6-5.2-6.3c0-5.8,5.7-6,10-5.9c0.1-2.5,0.1-5.3-3.2-5.3
	c-2.1,0-3.2,1.4-3,3.4h-3.4c0.1-4.3,2.4-5.7,6.5-5.7c4.9,0,6.2,2.5,6.2,5.7v9.2c0,1.5,0.1,3,0.4,4.5h-3.4L647.6,68z M640.6,65.1
	c0,1.9,0.9,3.5,3,3.5c1.9,0,4.2-1.2,3.9-7.3C644.5,61.4,640.6,61.1,640.6,65.1z"/>
<path class="st0" d="M668.5,70.8h-3.5V43.5h3.5V70.8z"/>
<path class="st0" d="M684.8,70.8V57.6c0-2-0.7-3.7-3.4-3.7c-3.4,0-3.9,3-3.9,5.6v11.3h-3.1V55.7c0-1.3-0.1-2.6-0.2-4h3.3v2.5h0.1
	c1.2-2.1,2.6-2.9,5.1-2.9c4.1,0,5.1,2.5,5.1,6.2v13.2H684.8z"/>
<path class="st0" d="M693.3,51.7v-3.7l3.1-1.4v5.1h4.2V54h-4.2v11.7c0,1.2,0,2.8,2.9,2.8c0.2,0,0.7-0.1,1.4-0.1v2.4
	c-1,0.1-2,0.3-3.1,0.3c-3,0-4.3-1.2-4.3-3.4V54.1h-3.1v-2.4H693.3z"/>
<path class="st0" d="M706.1,62.3c0,5.3,1.4,6.4,3.9,6.4c2.1,0,3.2-1.7,3.3-3.6h3.4c0,4.2-2.6,6.2-6.6,6.2s-7.3-1.2-7.3-9.6
	c0-5.6,0.6-10.2,7.3-10.2c5.4,0,6.8,3,6.8,9.3v1.6H706.1z M713.5,59.9c0-5.6-1.6-6.2-3.8-6.2c-2,0-3.6,0.9-3.6,6.2H713.5z"/>
<path class="st0" d="M724.8,54.6L724.8,54.6c1.4-2.9,2.9-3.3,6-3.3v3.2l-0.8-0.1c-0.3,0-0.6-0.1-0.8-0.1c-3.4,0-4.3,2.6-4.3,5.2
	v11.3h-3.1V51.7h3.1L724.8,54.6z"/>
<path class="st0" d="M744.1,70.8V57.6c0-2-0.7-3.7-3.4-3.7c-3.4,0-3.9,3-3.9,5.6v11.3h-3.1V55.7c0-1.3-0.1-2.6-0.2-4h3.3v2.5h0.1
	c1.2-2.1,2.6-2.9,5.1-2.9c4.1,0,5.1,2.5,5.1,6.2v13.2H744.1z"/>
<path class="st0" d="M762.1,68L762.1,68c-0.8,2-2.7,3.3-4.9,3.1c-4,0-5.2-2.6-5.2-6.3c0-5.8,5.7-6,10-5.9c0.1-2.5,0.1-5.3-3.2-5.3
	c-2.1,0-3.2,1.4-3,3.4h-3.4c0.1-4.3,2.4-5.7,6.5-5.7c4.9,0,6.2,2.5,6.2,5.7v9.2c0,1.5,0.1,3,0.4,4.5h-3.4V68z M755.1,65.1
	c0,1.9,0.9,3.5,3,3.5c1.9,0,4.2-1.2,3.9-7.3C759.1,61.4,755.1,61.1,755.1,65.1L755.1,65.1z"/>
<path class="st0" d="M771.2,51.7v-3.7l3.1-1.4v5.1h4.2V54h-4.2v11.7c0,1.2,0,2.8,2.9,2.8c0.2,0,0.7-0.1,1.4-0.1v2.4
	c-1,0.1-2,0.3-3.1,0.3c-2.9,0-4.3-1.2-4.3-3.4V54.1H768v-2.4H771.2z"/>
<path class="st0" d="M780.7,43.5h3.5v3.3h-3.5V43.5z M784,70.8h-3.1V51.7h3.1V70.8z"/>
<path class="st0" d="M788.4,61.5c0-5.6,0.6-10.2,7.3-10.2s7.3,4.6,7.3,10.2c0,8.4-3.2,9.6-7.3,9.6C791.6,71.2,788.4,70,788.4,61.5z
	 M799.7,60.2c0-5.2-1.6-6.3-4-6.3s-4,1.1-4,6.3c0,6.2,0.8,8.4,4,8.4C798.9,68.6,799.7,66.4,799.7,60.2L799.7,60.2z"/>
<path class="st0" d="M817.8,70.8V57.6c0-2-0.7-3.7-3.4-3.7c-3.4,0-3.9,3-3.9,5.6v11.3h-3.1V55.7c0-1.3-0.1-2.6-0.2-4h3.3v2.5h0.1
	c1.2-2.1,2.6-2.9,5.1-2.9c4.1,0,5.1,2.5,5.1,6.2v13.2H817.8z"/>
<path class="st0" d="M835.8,68L835.8,68c-0.8,2-2.7,3.3-4.9,3.1c-4,0-5.2-2.6-5.2-6.3c0-5.8,5.7-6,10-5.9c0.1-2.5,0.1-5.3-3.2-5.3
	c-2.1,0-3.2,1.4-3,3.4h-3.4c0.1-4.3,2.4-5.7,6.5-5.7c4.9,0,6.2,2.5,6.2,5.7v9.2c0,1.5,0.1,3,0.4,4.5h-3.4L835.8,68z M828.8,65.1
	c0,1.9,0.9,3.5,3,3.5c1.9,0,4.2-1.2,3.9-7.3C832.8,61.4,828.8,61.1,828.8,65.1z"/>
<path class="st0" d="M847.5,70.8h-3.1V43.5h3.1V70.8z"/>
<path class="st0" d="M556.3,86.7h3.5v17.5c0,6,1.8,7.5,5.1,7.5c3.3,0,5.1-1.5,5.1-7.5V86.7h3.5V104c0,7.6-2.8,10.5-8.6,10.5
	c-5.8,0-8.6-3-8.6-10.5L556.3,86.7z"/>
<path class="st0" d="M589.1,114v-13.2c0-2-0.7-3.7-3.4-3.7c-3.4,0-3.9,3-3.9,5.6V114h-3.1V98.9c0-1.3-0.1-2.6-0.2-4h3.3v2.5h0.1
	c1.2-2.1,2.6-2.9,5.1-2.9c4.1,0,5.1,2.5,5.1,6.2V114L589.1,114z"/>
<path class="st0" d="M597,86.7h3.5v3.3H597V86.7z M600.3,114h-3.1V94.9h3.1V114z"/>
<path class="st0" d="M603.1,94.9h3.5l4.3,16.2h0l4.6-16.2h3.3l-6,19.1h-4L603.1,94.9z"/>
<path class="st0" d="M624.7,105.5c0,5.3,1.4,6.4,3.9,6.4c2.1,0,3.2-1.7,3.3-3.6h3.4c0,4.2-2.6,6.2-6.7,6.2c-4,0-7.3-1.2-7.3-9.6
	c0-5.6,0.6-10.2,7.3-10.2c5.4,0,6.8,3,6.8,9.3v1.6L624.7,105.5z M632.2,103.1c0-5.6-1.5-6.2-3.8-6.2c-2,0-3.6,0.9-3.6,6.2H632.2z"/>
<path class="st0" d="M643.5,97.8L643.5,97.8c1.4-2.9,2.9-3.3,6-3.3v3.2l-0.8-0.1c-0.3,0-0.6-0.1-0.8-0.1c-3.4,0-4.3,2.6-4.3,5.2V114
	h-3.1V94.9h3.1L643.5,97.8z"/>
<path class="st0" d="M658.1,114.4c-4.1,0-6.7-1.8-6.6-6.2h3.5c0,1.1,0,3.7,3.2,3.7c1.8,0,3.3-0.9,3.3-2.9c0-3.4-9.5-3.5-9.5-9.2
	c0-2,1.2-5.2,6.6-5.2c3.4,0,6.3,1.6,6,5.4h-3.4c0-2-1-3.1-3-3.1c-1.7,0-2.9,0.9-2.9,2.6c0,3.4,9.5,3.3,9.5,9.1
	C664.7,112.8,661.9,114.4,658.1,114.4z"/>
<path class="st0" d="M668.6,86.7h3.5v3.3h-3.5V86.7z M671.9,114h-3.1V94.9h3.1V114z"/>
<path class="st0" d="M677.2,94.9v-3.7l3.1-1.4v5.1h4.2v2.3h-4.2v11.7c0,1.2,0,2.8,2.9,2.8c0.2,0,0.7-0.1,1.4-0.1v2.4
	c-1,0.1-2,0.3-3.1,0.3c-2.9,0-4.3-1.2-4.3-3.4V97.3h-3.1v-2.3L677.2,94.9z"/>
<path class="st0" d="M694,110.5L694,110.5l4.6-15.5h3.4l-8.7,26.3h-3.2l2.1-7.2l-6.5-19.1h3.6L694,110.5z"/>
<path class="st0" d="M299.9,105.7c-19.7,0-23.4-11.6-22.6-24.8h15.9c0,7.3,0.3,13.4,9.1,13.4c5.4,0,8-3.5,8-8.6
	c0-13.7-32-14.5-32-37.2c0-11.9,5.7-21.4,25.1-21.4c15.5,0,23.2,7,22.1,22.9H310c0-5.7-0.9-11.5-7.4-11.5c-5.2,0-8.2,2.9-8.2,8.1
	c0,14.4,32,13.2,32,37.1C326.5,103.4,312,105.7,299.9,105.7z"/>
<path class="st0" d="M369.3,58.8V28.3h15.9v76.1h-15.9V70.5H351v33.9h-15.9V28.3H351v30.5H369.3z"/>
<path class="st0" d="M396,28.3h28.7c14.5,0,20.2,8.9,20.2,22.8c0,8.6-2.5,22.3-21.2,22.3h-11.8v31H396V28.3z M411.9,61.8h8.8
	c4.7,0,8-5.2,8-10.2c0-6.2-1.7-11.5-8.9-11.5h-8V61.8z"/>
<path class="st0" d="M451.3,104.5V28.3h41.5v11.7h-25.6v18.8h23.6v11.7h-23.6v22.2h26.5v11.7H451.3z"/>
<path class="st0" d="M198.9,71.3c0.7-0.5,1.1-1.3,1-2.1c-1.1-13.9-2.4-34.2,4.8-37.1c5-2,8.9,7.4,11.1,15.1c0.3,1,1.5,0.9,1.4-0.5
	c-1.4-11.1-4.2-21.4-12.8-23.9c-15.9-4.5-26.7,23.1-23.6,56.6c0.1,1.3,1.3,2.3,2.6,2.2c0.4,0,0.8-0.2,1.1-0.4L198.9,71.3z"/>
<path class="st0" d="M200.5,83.6c-0.7,0.5-1.1,1.3-1,2.1c1.1,13.9,2.4,34.2-4.8,37.1c-5,2-8.9-7.4-11.1-15.1c-0.3-1-1.5-0.9-1.4,0.5
	c1.4,11.1,4.2,21.4,12.8,23.9c15.9,4.5,26.8-23.1,23.6-56.6c-0.1-1.3-1.3-2.3-2.6-2.2c-0.4,0-0.8,0.2-1.1,0.4L200.5,83.6z"/>
<path class="st0" d="M191.2,97.1c-16.1-0.4-31.4-4.8-30.6-12.7c0.4-4.1,6.3-7,9.6-8.6c0.8-0.4,1.6-1,1.6-1.9V74c0-0.4,0-0.9,0-1.3
	c-0.3-5.3-0.3-10.5,0.1-15.8c-0.1-1-0.9-1.4-2.6-0.9c-10.1,3.2-18.3,9.1-22.5,13.6c-6.4,6.9-5.6,13.7-2.6,18.1
	c7.5,11.2,33.9,11.6,46.9,11C192.2,98.8,192.3,97.2,191.2,97.1z"/>
<path class="st0" d="M208.1,57.7c16.1,0.4,31.4,4.8,30.6,12.7c-0.4,4.1-6.3,7-9.6,8.6c-0.8,0.4-1.6,1-1.6,1.9v0.1c0,0.4,0,0.9,0,1.3
	c0.3,5.3,0.3,10.5-0.1,15.8c0.1,1,0.9,1.4,2.6,0.9c10.1-3.2,18.3-9.1,22.5-13.6c6.4-6.9,5.6-13.6,2.6-18.1
	c-7.5-11.2-33.9-11.6-46.9-11C207.2,56.1,207.1,57.7,208.1,57.7z"/>
<rect x="526.7" y="33.6" class="st0" width="0.7" height="91.4"/>
</svg>
