<svg id="SvgjsSvg1006" width="288" height="288" xmlns="http://www.w3.org/2000/svg" version="1.1" xmlns:xlink="http://www.w3.org/1999/xlink" xmlns:svgjs="http://svgjs.com/svgjs"><defs id="SvgjsDefs1007"></defs><g id="SvgjsG1008" transform="matrix(1,0,0,1,0,0)"><svg xmlns="http://www.w3.org/2000/svg" viewBox="0 0 301.58 301.58" width="288" height="288"><defs><clipPath id="F" transform="translate(-301.59 323)"><rect width="57.97" height="128.45" x="394.35" y="-264.73" fill="none"></rect></clipPath><clipPath id="a" transform="translate(-301.59 323)"><rect width="245.33" height="245.33" x="329.72" y="-294.87" fill="none"></rect></clipPath><clipPath id="c" transform="translate(-301.59 323)"><rect width="25.67" height="14.82" x="491.96" y="-103.49" fill="none"></rect></clipPath><clipPath id="d" transform="translate(-301.59 323)"><rect width="25.67" height="14.82" x="385.06" y="-106.94" fill="none"></rect></clipPath><clipPath id="e" transform="translate(-301.59 323)"><rect width="63.68" height="83.56" x="344" y="-263.8" fill="none"></rect></clipPath><clipPath id="f" transform="translate(-301.59 323)"><rect width="49.14" height="48.99" x="351.27" y="-238.76" fill="none"></rect></clipPath><clipPath id="g" transform="translate(-301.59 323)"><rect width="63.68" height="83.56" x="496.95" y="-263.8" fill="none"></rect></clipPath><clipPath id="h" transform="translate(-301.59 323)"><rect width="55.81" height="43.15" x="501.12" y="-229.63" fill="none"></rect></clipPath><clipPath id="i" transform="translate(-301.59 323)"><rect width="5.81" height="4.49" x="504.46" y="-233.3" fill="none"></rect></clipPath><clipPath id="j" transform="translate(-301.59 323)"><rect width="5.81" height="4.49" x="513.25" y="-226.78" fill="none"></rect></clipPath><clipPath id="k" transform="translate(-301.59 323)"><rect width="5.81" height="4.49" x="527.43" y="-234.77" fill="none"></rect></clipPath><clipPath id="l" transform="translate(-301.59 323)"><rect width="5.81" height="4.49" x="538.99" y="-235" fill="none"></rect></clipPath><clipPath id="m" transform="translate(-301.59 323)"><rect width="144.23" height="83.2" x="380.26" y="-194.34" fill="none"></rect></clipPath><clipPath id="n" transform="translate(-301.59 323)"><rect width="72.11" height="54.35" x="380.26" y="-171.08" fill="none"></rect></clipPath><clipPath id="o" transform="translate(-301.59 323)"><rect width="72.13" height="54.35" x="452.37" y="-171.08" fill="none"></rect></clipPath><clipPath id="p" transform="translate(-301.59 323)"><rect width="144.23" height="83.19" x="380.26" y="-211.3" fill="none"></rect></clipPath><clipPath id="q" transform="translate(-301.59 323)"><rect width="57.97" height="128.45" x="452.31" y="-264.73" fill="none"></rect></clipPath><clipPath id="r" transform="translate(-301.59 323)"><rect width="57.97" height="39.76" x="452.31" y="-176.04" fill="none"></rect></clipPath><clipPath id="s" transform="translate(-301.59 323)"><rect width="57.97" height="39.76" x="452.31" y="-182.86" fill="none"></rect></clipPath><clipPath id="t" transform="translate(-301.59 323)"><rect width="57.97" height="39.76" x="452.31" y="-189.68" fill="none"></rect></clipPath><clipPath id="u" transform="translate(-301.59 323)"><rect width="57.97" height="39.76" x="452.31" y="-196.5" fill="none"></rect></clipPath><clipPath id="v" transform="translate(-301.59 323)"><rect width="57.97" height="39.76" x="452.31" y="-203.33" fill="none"></rect></clipPath><clipPath id="w" transform="translate(-301.59 323)"><rect width="57.97" height="39.76" x="452.31" y="-210.15" fill="none"></rect></clipPath><clipPath id="x" transform="translate(-301.59 323)"><rect width="57.97" height="39.76" x="452.31" y="-216.97" fill="none"></rect></clipPath><clipPath id="y" transform="translate(-301.59 323)"><rect width="57.97" height="39.76" x="452.31" y="-223.79" fill="none"></rect></clipPath><clipPath id="z" transform="translate(-301.59 323)"><rect width="57.97" height="39.76" x="452.31" y="-230.61" fill="none"></rect></clipPath><clipPath id="A" transform="translate(-301.59 323)"><rect width="57.97" height="39.76" x="452.31" y="-237.44" fill="none"></rect></clipPath><clipPath id="B" transform="translate(-301.59 323)"><rect width="57.97" height="39.76" x="452.31" y="-244.26" fill="none"></rect></clipPath><clipPath id="C" transform="translate(-301.59 323)"><rect width="57.97" height="39.76" x="452.31" y="-251.08" fill="none"></rect></clipPath><clipPath id="D" transform="translate(-301.59 323)"><rect width="57.97" height="39.76" x="452.31" y="-257.9" fill="none"></rect></clipPath><clipPath id="E" transform="translate(-301.59 323)"><rect width="57.97" height="39.76" x="452.31" y="-264.73" fill="none"></rect></clipPath><clipPath id="b" transform="translate(-301.59 323)"><rect width="228.23" height="132.35" x="336.83" y="-201.92" fill="none"></rect></clipPath><clipPath id="G" transform="translate(-301.59 323)"><rect width="57.97" height="39.76" x="394.35" y="-176.04" fill="none"></rect></clipPath><clipPath id="H" transform="translate(-301.59 323)"><rect width="57.97" height="39.76" x="394.35" y="-182.86" fill="none"></rect></clipPath><clipPath id="I" transform="translate(-301.59 323)"><rect width="57.97" height="39.76" x="394.35" y="-189.68" fill="none"></rect></clipPath><clipPath id="J" transform="translate(-301.59 323)"><rect width="57.97" height="39.76" x="394.35" y="-196.5" fill="none"></rect></clipPath><clipPath id="K" transform="translate(-301.59 323)"><rect width="57.97" height="39.76" x="394.35" y="-203.33" fill="none"></rect></clipPath><clipPath id="L" transform="translate(-301.59 323)"><rect width="57.97" height="39.76" x="394.35" y="-210.15" fill="none"></rect></clipPath><clipPath id="M" transform="translate(-301.59 323)"><rect width="57.97" height="39.76" x="394.35" y="-216.97" fill="none"></rect></clipPath><clipPath id="N" transform="translate(-301.59 323)"><rect width="57.97" height="39.76" x="394.35" y="-223.79" fill="none"></rect></clipPath><clipPath id="O" transform="translate(-301.59 323)"><rect width="57.97" height="39.76" x="394.35" y="-230.61" fill="none"></rect></clipPath><clipPath id="P" transform="translate(-301.59 323)"><rect width="57.97" height="39.76" x="394.35" y="-237.44" fill="none"></rect></clipPath><clipPath id="Q" transform="translate(-301.59 323)"><rect width="57.97" height="39.76" x="394.35" y="-244.26" fill="none"></rect></clipPath><clipPath id="R" transform="translate(-301.59 323)"><rect width="57.97" height="39.76" x="394.35" y="-251.08" fill="none"></rect></clipPath><clipPath id="S" transform="translate(-301.59 323)"><rect width="57.97" height="39.76" x="394.35" y="-257.9" fill="none"></rect></clipPath><clipPath id="T" transform="translate(-301.59 323)"><rect width="57.97" height="39.76" x="394.35" y="-264.73" fill="none"></rect></clipPath><clipPath id="U" transform="translate(-301.59 323)"><rect width="62.31" height="67.15" x="432.7" y="-252.25" fill="none"></rect></clipPath><clipPath id="V" transform="translate(-301.59 323)"><rect width="52.52" height="62.21" x="432.07" y="-247.31" fill="none"></rect></clipPath><clipPath id="W" transform="translate(-301.59 323)"><rect width="74.51" height="67.66" x="409.16" y="-246.63" fill="none"></rect></clipPath><clipPath id="X" transform="translate(-301.59 323)"><rect width="70.15" height="58.15" x="410.97" y="-240.42" fill="none"></rect></clipPath><clipPath id="Y" transform="translate(-301.59 323)"><rect width="43.69" height="58.81" x="447.06" y="-250.15" fill="none"></rect></clipPath><clipPath id="Z" transform="translate(-301.59 323)"><rect width="64.64" height="62.2" x="413.85" y="-244.65" fill="none"></rect></clipPath><clipPath id="aa" transform="translate(-301.59 323)"><rect width="10.3" height="10.27" x="493.1" y="-135.82" fill="none"></rect></clipPath><clipPath id="ab" transform="translate(-301.59 323)"><rect width="2.75" height=".97" x="495.43" y="-135.49" fill="none"></rect></clipPath><clipPath id="ac" transform="translate(-301.59 323)"><rect width="8.16" height="4.23" x="496.72" y="-95.29" fill="none"></rect></clipPath><clipPath id="ad" transform="translate(-301.59 323)"><rect width="4.84" height="5.53" x="505.84" y="-101.69" fill="none"></rect></clipPath><clipPath id="ae" transform="translate(-301.59 323)"><rect width="3.51" height="9.39" x="506.1" y="-124.04" fill="none"></rect></clipPath><clipPath id="af" transform="translate(-301.59 323)"><rect width="4.79" height="5.41" x="391.12" y="-105.96" fill="none"></rect></clipPath><clipPath id="ag" transform="translate(-301.59 323)"><rect width="8.83" height="4.45" x="397.09" y="-98.85" fill="none"></rect></clipPath><clipPath id="ah" transform="translate(-301.59 323)"><rect width="4.1" height="8.47" x="392.05" y="-128.07" fill="none"></rect></clipPath><clipPath id="ai" transform="translate(-301.59 323)"><rect width="9.76" height="12.83" x="405.48" y="-151.04" fill="none"></rect></clipPath><clipPath id="aj" transform="translate(-301.59 323)"><rect width="3.03" height="1.86" x="409.93" y="-149.63" fill="none"></rect></clipPath></defs><g data-name="Layer 1" fill="#000000" class="color000 svgShape"><g data-name="Layer 2" fill="#000000" class="color000 svgShape"><circle cx="150.79" cy="150.79" r="150.79" fill="#ffffff" data-name="Layer 1-2" class="colorfff svgShape"></circle></g></g><g clip-path="url(#a)" data-name="Layer 2" fill="#000000" class="color000 svgShape"><g clip-path="url(#a)" fill="#000000" class="color000 svgShape"><path fill="#f0f0f0" d="M533.72-182.42c45,26,45,68.18,0,94.2s-118.09,26-163.14,0-45.05-68.19,0-94.2,118.09-26,163.14,0" transform="translate(-301.59 323)" class="color455a64 svgShape"></path><path fill="#24b2c0" d="M357.3-123.69l16.83-9.72-.25-.42-16.71 9.64h-7.4l-9.37 5.42c.06.15.13.3.2.45l9.3-5.37zM362.3-114.11l-.24-.42L350.78-108H346.9c.12.17.25.33.38.49h3.63zM374.1-127.16l-.24-.42-29 16.75.27.41zM457.59-183.65l27-15.6-.76-.12-26.49 15.29zM476-200.49l-.82-.1-6 3.46.25.43zM421.7-193.09l-8.26 4.77a2.52 2.52 0 00-1.54.06l-11.46-6.61-.65.19L411.43-188a.56.56 0 000 .81l-6.66 3.85 10.65 6.15.25-.42-9.92-5.73 6.13-3.54a2.43 2.43 0 001.64.07l9.29 5.36.24-.42-9-5.2a.6.6 0 000-1l8.71-5-8.8-5.08-.71.15z" transform="translate(-301.59 323)" class="color27debf svgShape"></path><path fill="#24b2c0" d="M434-193.81v-7.29l-.49 0v7l-11.85 6.84a2.4 2.4 0 00-1.88.13.66.66 0 000 1.24 2.35 2.35 0 002.16 0c.51-.29.58-.74.21-1.08l11.73-6.77zM550.67-100.65L551-101l-6-3.5V-112L492.4-142.42l-.22-.37-.21.12-.22-.12-.05 0h-12L492-149.9l67.54 39 .27-.41-67-38.66c2.08-.08 7.46 0 11 .09h.07l.83-.48L563-116.74l.21-.44-58-33.47 4.24-2.44.8.46h0l0 0h0l40.21 23.12c-.36.34-.29.79.22 1.08a2.33 2.33 0 002.15 0 .65.65 0 000-1.24 2.38 2.38 0 00-1.89-.12l-39.7-22.84h11.45l0 0 0 0h6.56l33.34 19.25v10.89l2.2 1.27c.06-.16.11-.32.16-.47l-1.87-1.09v-10.88l-12.27-7.09 2-1.16v-5.48l10.32-5.95c-.08-.15-.15-.3-.22-.44l-10.46 6-.13.07v5.48l-2 1.16-9-5.22v-4.15l8.61-5 .12-.07v-8l4.45-2.57-.33-.37-23.88 13.78-.82-.47 0 0h-5.84l27.87-16.09-.37-.35-28.48 16.44H510.42l-.49-.28 15-8.69-.24-.42-15.29 8.82L501.85-158h.64L523.14-170h9.67a.92.92 0 00.38.38 2.41 2.41 0 002.16 0c.51-.3.58-.75.21-1.09l8.5-4.91-.42-.32-8.57 5a2.44 2.44 0 00-1.88.12.92.92 0 00-.38.38H523l-20.65 11.92H501l-8.54-4.93 23.75-13.71h14.08l6.2-3.58L536-181l-5.86 3.39H516.07L492-163.74l-7.19-4.16 29.92-17.27a2.46 2.46 0 001.65 0l7.88 4.55 6.22-3.59-.51-.27-5.71 3.3-7.41-4.28a.58.58 0 000-.9l4.17-2.41-.56-.24-4.1 2.37a2.52 2.52 0 00-1.56 0l-8.36-4.83 2.92-1.68-.63-.21-2.78 1.61-3.6-2.08c.34-.33.26-.77-.24-1.06a2.39 2.39 0 00-2.15 0c-.51.3-.58.75-.22 1.09l-29.92 17.27-1.84-1.06-.06 0H458L474.27-187h7.41l16.3-9.41-.69-.17-15.74 9.09h-7.41l-16.82 9.71.1.17h-3.64l-8.85-5.11 16.4-9.47.12-.07v-9.39l-.49 0v9.13l-16.52 9.54-1.53-.88-.24.43 1.28.74-7.78 4.49-1.53-.88-.24.42 1.28.74-8.39 4.84-.12.07v.32l-1.8-1-.24.42 2 1.18v4.38l-4.2-2.43-.25.42 4.45 2.57v.61l-6.92 4L414-166.27l-.24.42 6 3.47-6.89 4L406.61-162l-.24.42 6 3.47-29.54 17.05H371.78l-20 11.54v-7.34l99-57.17.12-.07v-7.81h-.49v7.52l-77.39 44.68H357.7l-20.83 12c0 .19 0 .39 0 .59l21-12.13h14.38l-20.78 12-.13.07v7.91l-12.25 7.07.17.47 32.69-18.88H383l29.9-17.25 3.42 2L408-151.08a2.37 2.37 0 00-2 .08.66.66 0 000 1.25 2.44 2.44 0 001.88.12l2.06 1.19-6.07 3.51-.13.07v6.43L370.11-119l-.12.07v9.47l-7.58 4.38a2.44 2.44 0 00-1.88.12.92.92 0 00-.38.38H349.79l.44.49h9.92a.82.82 0 00.17.22l-6.27 3.61.38.35 6.38-3.68a2.4 2.4 0 001.88-.13c.51-.29.58-.74.21-1.08l7.46-4.31.12-.07v-9.47l33.67-19.44.12-.07v-6.43l6.2-3.58 11.89 6.87L380.63-117.2l-.12.07v10.4L360.27-95l.42.32 20.19-11.66.12-.07v-10.39L422.85-141l5.34 3.08-7.32 4.23-.12.07v10.88l-50.22 29 8.71 5a.6.6 0 000 1l-3.71 2.15.52.26 3.71-2.14a2.49 2.49 0 001.64-.07L387.49-84l-3.86 2.23.56.24L388.47-84l-6.66-3.85a.56.56 0 000-.81l13.42-7.75.12-.07v-5.48l47.62-27.49 6.28 3.62-42.73 24.67-.12.07v7.34l-8.61 5-.12.07v8l-4.48 2.58c.21.07.41.15.62.21l45.53-26.28.12-.07v-7.56l17-9.83.45.26v10.89l6.77 3.91-8.3 4.79h-5.85L403.2-75l.67.18 45.8-26.45h5.85l8.66-5 6.27 3.62-14.66 8.46c-.47.07-5 .11-7.43.11h-.07L411.62-72.95l.72.15 36.08-20.78c1 0 7.31 0 7.59-.16l14.93-8.62 6.28 3.63L455.24-86h-9.11L431.3-77.41h-4l-9.76 5.64.75.13 9.14-5.28h4l14.83-8.63h9.11l22.34-12.9 12.07 7H474.12L453.18-79.4a2.4 2.4 0 00-1.88.13.66.66 0 000 1.24 2.35 2.35 0 002.16 0c.51-.29.58-.74.21-1.08L474.25-91H504l-14.61 8.43H474L452.25-70l.25.42 21.65-12.5h14.37l-20.78 12 .24.43L505-91h4.73l2.64 1.52-7.88 4.56a2.47 2.47 0 00-1.89.12.66.66 0 000 1.25 2.41 2.41 0 002.16 0c.51-.3.58-.75.22-1.09l7.88-4.55L523.54-83l.54-.25-14.2-8.2h0l-.05 0h0l-34.88-20.06c.36-.34.29-.79-.22-1.09a2.41 2.41 0 00-2.16 0 .66.66 0 000 1.25 2.47 2.47 0 001.89.12l34.39 19.78H490.76l-33.35-19.25v-10.89l-.45-.27 4.34-2.5 67.21 38.8.06 0h.24l1-.5H528.7l-66.91-38.62 6.28-3.63 59.86 34.56c.49.29 8.5.12 12 0l1.26.72.44-.3-1.58-.92H540c-4.3.11-11.31.21-11.82 0l-59.61-34.42 5.48-3.17a1 1 0 00.25.2 2.35 2.35 0 001.88.12l52.19 30.14.06 0h12.65l6.24 3.6.4-.33-6.45-3.73-.06 0H528.55l-46.8-27h14l27.5 15.88c-.36.34-.29.79.22 1.08a2.35 2.35 0 002.16 0 .66.66 0 000-1.24 2.43 2.43 0 00-1.89-.13l-27.8-16-.05 0h-15l-4.24-2.45c.36-.34.29-.79-.22-1.08a1.75 1.75 0 00-.34-.15L492-142.1l52.53 30.33v7.56zM540.9-146.5l-3.11-1.79 3.11-1.8zm8.73-16.65v7.45l-12.33 7.12-6.45-3.72zm-70.75 20.24l-6.27-3.63 6.62-3.82.76.44.06 0h.07c3.55-.08 9-.17 11-.1zm-38.56-8.75l-8.82 5.09v-1.07l-11-6.33 13.27-7.66v6.22zm-4.95-10.87l11.89 6.86-6.45 3.73-6.51-3.76v-6.21zm-1.07.05v-.67l.58.34zm9.49 18.64a1.89 1.89 0 00-.75-.24v-1.85l3.59-2.08 13.77 7.95-5.86 3.38L444-142.76c.37-.34.3-.79-.21-1.08m16.49-9.25h-5.83l-.87.5-5.34-3.08 3.79-2.18zm-7.76-5l5.87-3.39h1.5L474-153.37l-.5.28H461.26zm.57 5.84l-6.46 3.72-5.33-3.08 6.45-3.72zm-6.95 4L443-146.5v-3.59zm1 0l6.46-3.73 13.77 8-6.46 3.73zm6.95-4l.51-.3h6.55l10.49 6.06-3.78 2.19zm8-.3h11.53l.86-.49 4.23 2.44-6.61 3.83zm12.88-.77l8.07-4.67h8.36l.06 0-12.25 7.07zm-.49-.29l-13.63-7.87h12.87l.83-.47 6.82 3.93.05 0h.64zm.07-8.91l-7.18-4.15 9.22-5.33 7.19 4.15zm-.49.28l-.47.27H460l-.39-.22 7.27-4.2zM452-158.42l-11.89-6.86 8.08-4.67a.93.93 0 00.37.37 2.39 2.39 0 002.15 0 .92.92 0 00.38-.38h9.67l5.62 3.24zm-.49.28l-3.79 2.19-11.88-6.86 3.78-2.19zM431.5-146l9.31-5.37 1.74 1v4.15l-9 5.22-2-1.16zm11.05.35v1.56a2.09 2.09 0 00-.92.25.66.66 0 000 1.24 2.4 2.4 0 001.88.12l10.54 6.09-6.28 3.62L434-140.72zm12 9.54l6.28 3.63-6.28 3.62-6.28-3.62zm.49-.28l5.86-3.39 2.8 1.62.24-.43-2.55-1.47 6.46-3.73 6.28 3.63-12.81 7.39L455-136.39m13.3-7.68l3.79-2.19 6.27 3.63-3.78 2.18zm35.43-6.31c-3.26-.08-10.4-.23-11.79 0-1.39-.21-8.54-.06-11.79 0l-.46-.26L492-157.72l12.25 7.08zm5.19-3l-4.24 2.44L492.46-158l.06 0h8.35zm-17-9.81l8 4.65h-7.63l-.42.24-.37-.2-.05 0h-7.64zm-.49-.28l-8.55 4.93h-1.36l-6.51-3.76 9.23-5.32zm-11.34-10.62V-182l20-11.57a2.46 2.46 0 001.65 0l12.41 7.16a.59.59 0 000 1l-29.92 17.27-7.19-4.15L480-174zm-.49-7.63v7.34l-3 1.76-6.36-3.67zM469.76-176l6.36 3.67L466.9-167 461-170.42l-.06 0h-.77zm-25.32-6.49l9.21 5.32h14.08l1.54.89-9.74 5.62H451a1.37 1.37 0 00-.23-.17 2.44 2.44 0 00-1.88-.12L436.66-178zm-16.78 9.69l8.51-4.92 12.2 7.05a.53.53 0 00-.12.14l-8.6 5-12-6.92zm0 .88l11.5 6.64-3.79 2.18-7.71-4.45zm-.12 5.61l.12-.07V-167l6.15 3.56v1.23l-13.76 7.95-2.78-1.61 7.38-4.26-3.91-2.26zm-14.18 8.19l6.89-4 3.42 2-6.89 4zm-4.95 8.21a.59.59 0 00.06-.87l8.31-4.8 2.78 1.61-9.09 5.25zm2.55 1.47l9.09-5.25 11 6.33v1.07l-8.16 4.72zm12.38 7.15l7.67-4.43v3.84l2 1.16-4.34 2.51zm-28.38 39l-.13.07v5.49l-13.51 7.8a2.56 2.56 0 00-1.55-.06l-8.26-4.77 49.61-28.64.12-.07v-10.89l7.44-4.29 13.77 7.95zm34.21-35.65l4.34-2.5 13.77 8-4.34 2.5zm14.26 8.24l4.34-2.51 6.28 3.62-4.34 2.51zm-4.36 17.57l-.13.07v7.55L398.13-80.93v-7.46l29.63-17.1-.25-.43L406.86-94v-6.77l42.85-24.74 6.26 3.62zm17.4-10l-6.27-3.62 4.34-2.5 6.27 3.62zM461.3-125L455-128.58l6.28-3.62 6.27 3.62zM475.12-133a2 2 0 00-.83.25.73.73 0 00-.44.59l-5.78 3.33-6.27-3.61 12.81-7.4.51.3zm.49-.18v-6.65l-.51-.29 3.78-2.19 0 0h12.48z" transform="translate(-301.59 323)" class="color27debf svgShape"></path><path fill="#24b2c0" d="M361.1-166l-19.23,11.1c-.15.27-.29.54-.43.82l20.22-11.68h13.95l6.79,3.93-4.67,2.69a2.4,2.4,0,0,0-1.88.13.9.9,0,0,0-.38.37H357.8l-19,11c-.08.23-.15.46-.22.69l19.37-11.19h17.54a.92.92,0,0,0,.38.38,2.41,2.41,0,0,0,2.16,0c.51-.29.58-.75.21-1.08l4.67-2.7,3.58,2.07.25-.43-3.34-1.92,7.78-4.5,3.58,2.07.25-.42-3.34-1.93,8.78-5.07,3.58,2.07.25-.43L400.92-172l3.79-2.19,1.71,1,.25-.42-1.47-.85,5.38-3.1-.25-.43-5.62,3.25-6.51-3.76c.39-.35.33-.81-.19-1.12a2.4,2.4,0,0,0-1.93-.1l-.5-.3v-8l-5.81-3.35-.6.22,5.91,3.42v7.45L381.63-188l-.55.25,14.53,8.39c-.33.34-.25.77.24,1.06a2.45,2.45,0,0,0,1.83.14l6.54,3.77-3.79,2.19-23.51-13.58-.52.27L399.94-172l-8.78,5.07-11.31-6.54-.06,0H370a.9.9,0,0,0-.36-.33,2.4,2.4,0,0,0-1.83-.14l-5.47-3.17-.44.32,5.4,3.12c-.4.34-.34.81.19,1.11a2.39,2.39,0,0,0,2.15,0,.84.84,0,0,0,.4-.42h9.66l11,6.36-7.78,4.49-7.15-4.13H361.66l-7.45-4.3-.37.36Z" transform="translate(-301.59 323)" class="color27debf svgShape"></path><path fill="#24b2c0" d="M369-180.57a2.41,2.41,0,0,0,2.16,0,.66.66,0,0,0,0-1.25,2.3,2.3,0,0,0-1.18-.24l-1.42.84a.75.75,0,0,0,.44.65" transform="translate(-301.59 323)" class="color27debf svgShape"></path><g clip-path="url(#b)" opacity=".5" fill="#000000" class="color000 svgShape"><path d="M357.3-123.69l16.83-9.72-.25-.42-16.71 9.64h-7.4l-9.37 5.42c.06.15.13.3.2.45l9.3-5.37zM362.3-114.11l-.24-.42L350.78-108H346.9c.12.17.25.33.38.49h3.63zM374.1-127.16l-.24-.42-29 16.75.27.41zM457.59-183.65l27-15.6-.76-.12-26.49 15.29zM476-200.49l-.82-.1-6 3.46.25.43zM421.7-193.09l-8.26 4.77a2.52 2.52 0 00-1.54.06l-11.46-6.61-.65.19L411.43-188a.56.56 0 000 .81l-6.66 3.85 10.65 6.15.25-.42-9.92-5.73 6.13-3.54a2.43 2.43 0 001.64.07l9.29 5.36.24-.42-9-5.2a.6.6 0 000-1l8.71-5-8.8-5.08-.71.15z" transform="translate(-301.59 323)" fill="#000000" class="color000 svgShape"></path><path d="M434-193.81v-7.29l-.49 0v7l-11.85 6.84a2.4 2.4 0 00-1.88.13.66.66 0 000 1.24 2.35 2.35 0 002.16 0c.51-.29.58-.74.21-1.08l11.73-6.77zM550.67-100.65L551-101l-6-3.5V-112L492.4-142.42l-.22-.37-.21.12-.22-.12-.05 0h-12L492-149.9l67.54 39 .27-.41-67-38.66c2.08-.08 7.46 0 11 .09h.07l.83-.48L563-116.74l.21-.44-58-33.47 4.24-2.44.8.46h0l0 0h0l40.21 23.12c-.36.34-.29.79.22 1.08a2.33 2.33 0 002.15 0 .65.65 0 000-1.24 2.38 2.38 0 00-1.89-.12l-39.7-22.84h11.45l0 0 0 0h6.56l33.34 19.25v10.89l2.2 1.27c.06-.16.11-.32.16-.47l-1.87-1.09v-10.88l-12.27-7.09 2-1.16v-5.48l10.32-5.95c-.08-.15-.15-.3-.22-.44l-10.46 6-.13.07v5.48l-2 1.16-9-5.22v-4.15l8.61-5 .12-.07v-8l4.45-2.57-.33-.37-23.88 13.78-.82-.47 0 0h-5.84l27.87-16.09-.37-.35-28.48 16.44H510.42l-.49-.28 15-8.69-.24-.42-15.29 8.82L501.85-158h.64L523.14-170h9.67a.92.92 0 00.38.38 2.41 2.41 0 002.16 0c.51-.3.58-.75.21-1.09l8.5-4.91-.42-.32-8.57 5a2.44 2.44 0 00-1.88.12.92.92 0 00-.38.38H523l-20.65 11.92H501l-8.54-4.93 23.75-13.71h14.08l6.2-3.58L536-181l-5.86 3.39H516.07L492-163.74l-7.19-4.16 29.92-17.27a2.46 2.46 0 001.65 0l7.88 4.55 6.22-3.59-.51-.27-5.71 3.3-7.41-4.28a.58.58 0 000-.9l4.17-2.41-.56-.24-4.1 2.37a2.52 2.52 0 00-1.56 0l-8.36-4.83 2.92-1.68-.63-.21-2.78 1.61-3.6-2.08c.34-.33.26-.77-.24-1.06a2.39 2.39 0 00-2.15 0c-.51.3-.58.75-.22 1.09l-29.92 17.27-1.84-1.06-.06 0H458L474.27-187h7.41l16.3-9.41-.69-.17-15.74 9.09h-7.41l-16.82 9.71.1.17h-3.64l-8.85-5.11 16.4-9.47.12-.07v-9.39l-.49 0v9.13l-16.52 9.54-1.53-.88-.24.43 1.28.74-7.78 4.49-1.53-.88-.24.42 1.28.74-8.39 4.84-.12.07v.32l-1.8-1-.24.42 2 1.18v4.38l-4.2-2.43-.25.42 4.45 2.57v.61l-6.92 4L414-166.27l-.24.42 6 3.47-6.89 4L406.61-162l-.24.42 6 3.47-29.54 17.05H371.78l-20 11.54v-7.34l99-57.17.12-.07v-7.81h-.49v7.52l-77.39 44.68H357.7l-20.83 12c0 .19 0 .39 0 .59l21-12.13h14.38l-20.78 12-.13.07v7.91l-12.25 7.07.17.47 32.69-18.88H383l29.9-17.25 3.42 2L408-151.08a2.37 2.37 0 00-2 .08.66.66 0 000 1.25 2.44 2.44 0 001.88.12l2.06 1.19-6.07 3.51-.13.07v6.43L370.11-119l-.12.07v9.47l-7.58 4.38a2.44 2.44 0 00-1.88.12.92.92 0 00-.38.38H349.79l.44.49h9.92a.82.82 0 00.17.22l-6.27 3.61.38.35 6.38-3.68a2.4 2.4 0 001.88-.13c.51-.29.58-.74.21-1.08l7.46-4.31.12-.07v-9.47l33.67-19.44.12-.07v-6.43l6.2-3.58 11.89 6.87L380.63-117.2l-.12.07v10.4L360.27-95l.42.32 20.19-11.66.12-.07v-10.39L422.85-141l5.34 3.08-7.32 4.23-.12.07v10.88l-50.22 29 8.71 5a.6.6 0 000 1l-3.71 2.15.52.26 3.71-2.14a2.49 2.49 0 001.64-.07L387.49-84l-3.86 2.23.56.24L388.47-84l-6.66-3.85a.56.56 0 000-.81l13.42-7.75.12-.07v-5.48l47.62-27.49 6.28 3.62-42.73 24.67-.12.07v7.34l-8.61 5-.12.07v8l-4.48 2.58c.21.07.41.15.62.21l45.53-26.28.12-.07v-7.56l17-9.83.45.26v10.89l6.77 3.91-8.3 4.79h-5.85L403.2-75l.67.18 45.8-26.45h5.85l8.66-5 6.27 3.62-14.66 8.46c-.47.07-5 .11-7.43.11h-.07L411.62-72.95l.72.15 36.08-20.78c1 0 7.31 0 7.59-.16l14.93-8.62 6.28 3.63L455.24-86h-9.11L431.3-77.41h-4l-9.76 5.64.75.13 9.14-5.28h4l14.83-8.63h9.11l22.34-12.9 12.07 7H474.12L453.18-79.4a2.4 2.4 0 00-1.88.13.66.66 0 000 1.24 2.35 2.35 0 002.16 0c.51-.29.58-.74.21-1.08L474.25-91H504l-14.61 8.43H474L452.25-70l.25.42 21.65-12.5h14.37l-20.78 12 .24.43L505-91h4.73l2.64 1.52-7.88 4.56a2.47 2.47 0 00-1.89.12.66.66 0 000 1.25 2.41 2.41 0 002.16 0c.51-.3.58-.75.22-1.09l7.88-4.55L523.54-83l.54-.25-14.2-8.2h0l-.05 0h0l-34.88-20.06c.36-.34.29-.79-.22-1.09a2.41 2.41 0 00-2.16 0 .66.66 0 000 1.25 2.47 2.47 0 001.89.12l34.39 19.78H490.76l-33.35-19.25v-10.89l-.45-.27 4.34-2.5 67.21 38.8.06 0h.24l1-.5H528.7l-66.91-38.62 6.28-3.63 59.86 34.56c.49.29 8.5.12 12 0l1.26.72.44-.3-1.58-.92H540c-4.3.11-11.31.21-11.82 0l-59.61-34.42 5.48-3.17a1 1 0 00.25.2 2.35 2.35 0 001.88.12l52.19 30.14.06 0h12.65l6.24 3.6.4-.33-6.45-3.73-.06 0H528.55l-46.8-27h14l27.5 15.88c-.36.34-.29.79.22 1.08a2.35 2.35 0 002.16 0 .66.66 0 000-1.24 2.43 2.43 0 00-1.89-.13l-27.8-16-.05 0h-15l-4.24-2.45c.36-.34.29-.79-.22-1.08a1.75 1.75 0 00-.34-.15L492-142.1l52.53 30.33v7.56zM540.9-146.5l-3.11-1.79 3.11-1.8zm8.73-16.65v7.45l-12.33 7.12-6.45-3.72zm-70.75 20.24l-6.27-3.63 6.62-3.82.76.44.06 0h.07c3.55-.08 9-.17 11-.1zm-38.56-8.75l-8.82 5.09v-1.07l-11-6.33 13.27-7.66v6.22zm-4.95-10.87l11.89 6.86-6.45 3.73-6.51-3.76v-6.21zm-1.07.05v-.67l.58.34zm9.49 18.64a1.89 1.89 0 00-.75-.24v-1.85l3.59-2.08 13.77 7.95-5.86 3.38L444-142.76c.37-.34.3-.79-.21-1.08m16.49-9.25h-5.83l-.87.5-5.34-3.08 3.79-2.18zm-7.76-5l5.87-3.39h1.5L474-153.37l-.5.28H461.26zm.57 5.84l-6.46 3.72-5.33-3.08 6.45-3.72zm-6.95 4L443-146.5v-3.59zm1 0l6.46-3.73 13.77 8-6.46 3.73zm6.95-4l.51-.3h6.55l10.49 6.06-3.78 2.19zm8-.3h11.53l.86-.49 4.23 2.44-6.61 3.83zm12.88-.77l8.07-4.67h8.36l.06 0-12.25 7.07zm-.49-.29l-13.63-7.87h12.87l.83-.47 6.82 3.93.05 0h.64zm.07-8.91l-7.18-4.15 9.22-5.33 7.19 4.15zm-.49.28l-.47.27H460l-.39-.22 7.27-4.2zM452-158.42l-11.89-6.86 8.08-4.67a.93.93 0 00.37.37 2.39 2.39 0 002.15 0 .92.92 0 00.38-.38h9.67l5.62 3.24zm-.49.28l-3.79 2.19-11.88-6.86 3.78-2.19zM431.5-146l9.31-5.37 1.74 1v4.15l-9 5.22-2-1.16zm11.05.35v1.56a2.09 2.09 0 00-.92.25.66.66 0 000 1.24 2.4 2.4 0 001.88.12l10.54 6.09-6.28 3.62L434-140.72zm12 9.54l6.28 3.63-6.28 3.62-6.28-3.62zm.49-.28l5.86-3.39 2.8 1.62.24-.43-2.55-1.47 6.46-3.73 6.28 3.63-12.81 7.39L455-136.39m13.3-7.68l3.79-2.19 6.27 3.63-3.78 2.18zm35.43-6.31c-3.26-.08-10.4-.23-11.79 0-1.39-.21-8.54-.06-11.79 0l-.46-.26L492-157.72l12.25 7.08zm5.19-3l-4.24 2.44L492.46-158l.06 0h8.35zm-17-9.81l8 4.65h-7.63l-.42.24-.37-.2-.05 0h-7.64zm-.49-.28l-8.55 4.93h-1.36l-6.51-3.76 9.23-5.32zm-11.34-10.62V-182l20-11.57a2.46 2.46 0 001.65 0l12.41 7.16a.59.59 0 000 1l-29.92 17.27-7.19-4.15L480-174zm-.49-7.63v7.34l-3 1.76-6.36-3.67zM469.76-176l6.36 3.67L466.9-167 461-170.42l-.06 0h-.77zm-25.32-6.49l9.21 5.32h14.08l1.54.89-9.74 5.62H451a1.37 1.37 0 00-.23-.17 2.44 2.44 0 00-1.88-.12L436.66-178zm-16.78 9.69l8.51-4.92 12.2 7.05a.53.53 0 00-.12.14l-8.6 5-12-6.92zm0 .88l11.5 6.64-3.79 2.18-7.71-4.45zm-.12 5.61l.12-.07V-167l6.15 3.56v1.23l-13.76 7.95-2.78-1.61 7.38-4.26-3.91-2.26zm-14.18 8.19l6.89-4 3.42 2-6.89 4zm-4.95 8.21a.59.59 0 00.06-.87l8.31-4.8 2.78 1.61-9.09 5.25zm2.55 1.47l9.09-5.25 11 6.33v1.07l-8.16 4.72zm12.38 7.15l7.67-4.43v3.84l2 1.16-4.34 2.51zm-28.38 39l-.13.07v5.49l-13.51 7.8a2.56 2.56 0 00-1.55-.06l-8.26-4.77 49.61-28.64.12-.07v-10.89l7.44-4.29 13.77 7.95zm34.21-35.65l4.34-2.5 13.77 8-4.34 2.5zm14.26 8.24l4.34-2.51 6.28 3.62-4.34 2.51zm-4.36 17.57l-.13.07v7.55L398.13-80.93v-7.46l29.63-17.1-.25-.43L406.86-94v-6.77l42.85-24.74 6.26 3.62zm17.4-10l-6.27-3.62 4.34-2.5 6.27 3.62zM461.3-125L455-128.58l6.28-3.62 6.27 3.62zM475.12-133a2 2 0 00-.83.25.73.73 0 00-.44.59l-5.78 3.33-6.27-3.61 12.81-7.4.51.3zm.49-.18v-6.65l-.51-.29 3.78-2.19 0 0h12.48z" transform="translate(-301.59 323)" fill="#000000" class="color000 svgShape"></path><path d="M361.1-166l-19.23,11.1c-.15.27-.29.54-.43.82l20.22-11.68h13.95l6.79,3.93-4.67,2.69a2.4,2.4,0,0,0-1.88.13.9.9,0,0,0-.38.37H357.8l-19,11c-.08.23-.15.46-.22.69l19.37-11.19h17.54a.92.92,0,0,0,.38.38,2.41,2.41,0,0,0,2.16,0c.51-.29.58-.75.21-1.08l4.67-2.7,3.58,2.07.25-.43-3.34-1.92,7.78-4.5,3.58,2.07.25-.42-3.34-1.93,8.78-5.07,3.58,2.07.25-.43L400.92-172l3.79-2.19,1.71,1,.25-.42-1.47-.85,5.38-3.1-.25-.43-5.62,3.25-6.51-3.76c.39-.35.33-.81-.19-1.12a2.4,2.4,0,0,0-1.93-.1l-.5-.3v-8l-5.81-3.35-.6.22,5.91,3.42v7.45L381.63-188l-.55.25,14.53,8.39c-.33.34-.25.77.24,1.06a2.45,2.45,0,0,0,1.83.14l6.54,3.77-3.79,2.19-23.51-13.58-.52.27L399.94-172l-8.78,5.07-11.31-6.54-.06,0H370a.9.9,0,0,0-.36-.33,2.4,2.4,0,0,0-1.83-.14l-5.47-3.17-.44.32,5.4,3.12c-.4.34-.34.81.19,1.11a2.39,2.39,0,0,0,2.15,0,.84.84,0,0,0,.4-.42h9.66l11,6.36-7.78,4.49-7.15-4.13H361.66l-7.45-4.3-.37.36Z" transform="translate(-301.59 323)" fill="#000000" class="color000 svgShape"></path><path d="M369-180.57a2.41,2.41,0,0,0,2.16,0,.66.66,0,0,0,0-1.25,2.3,2.3,0,0,0-1.18-.24l-1.42.84a.75.75,0,0,0,.44.65" transform="translate(-301.59 323)" fill="#000000" class="color000 svgShape"></path></g></g><g clip-path="url(#a)" fill="#000000" class="color000 svgShape"><g clip-path="url(#c)" opacity=".2" fill="#000000" class="color000 svgShape"><path d="M517.19-98c1.84,4-2.22,8-9.07,9.08s-13.88-1.29-15.71-5.24,2.22-8,9.07-9.07,13.88,1.28,15.71,5.23" transform="translate(-301.59 323)" fill="#000000" class="color000 svgShape"></path></g><g clip-path="url(#d)" opacity=".2" fill="#000000" class="color000 svgShape"><path d="M410.29-101.45c1.84,4-2.22,8-9.07,9.07s-13.88-1.28-15.71-5.23,2.22-8,9.07-9.08,13.88,1.29,15.71,5.24" transform="translate(-301.59 323)" fill="#000000" class="color000 svgShape"></path></g></g><g clip-path="url(#a)" fill="#000000" class="color000 svgShape"><path fill="#24b2c0" d="M345.54-228.83l60.6-34.76c.85-.5,1.54-.1,1.54.89v44.81a3.4,3.4,0,0,1-1.54,2.67l-60.6,34.77c-.85.49-1.54.09-1.54-.89v-44.82a3.41,3.41,0,0,1,1.54-2.67" transform="translate(-301.59 323)" class="color27debf svgShape"></path><g clip-path="url(#e)" opacity=".9" fill="#000000" class="color000 svgShape"><path fill="#ffffff" d="M345.54-228.83l60.6-34.76c.85-.5,1.54-.1,1.54.89v44.81a3.4,3.4,0,0,1-1.54,2.67l-60.6,34.77c-.85.49-1.54.09-1.54-.89v-44.82a3.41,3.41,0,0,1,1.54-2.67" transform="translate(-301.59 323)" class="colorfff svgShape"></path></g><g clip-path="url(#e)" opacity=".3" fill="#000000" class="color000 svgShape"><path fill="#24b2c0" d="M406.83-263.31h0c.31,0,.36.38.36.61v44.81a2.92,2.92,0,0,1-1.29,2.25l-60.6,34.76a1,1,0,0,1-.45.15c-.31,0-.36-.38-.36-.61v-44.82a2.88,2.88,0,0,1,1.3-2.24l60.59-34.77a.9.9,0,0,1,.45-.14m0-.49a1.33,1.33,0,0,0-.69.21l-60.6,34.76a3.41,3.41,0,0,0-1.54,2.67v44.82c0,.7.35,1.1.85,1.1a1.43,1.43,0,0,0,.69-.21l60.6-34.77a3.4,3.4,0,0,0,1.54-2.67V-262.7c0-.7-.35-1.1-.85-1.1" transform="translate(-301.59 323)" class="color27debf svgShape"></path></g><g clip-path="url(#f)" opacity=".3" fill="#000000" class="color000 svgShape"><path fill="#24b2c0" d="M351.27-189.77a99.66 99.66 0 01.74-10.58c.46-3.82 1.38-10.25 5.06-12.38s5.06 1.72 5.59 3.61c.69 2.45 4.29.9 4.79-3.14s.83-16.92 5.14-19.41 5.7 3.51 6.19 5.18c1 3.28 3.8 2.38 4.72.2s3.44-2.71 4.39.35 1.55 6.58 4.63 4.77c2.7-1.58 1.46-4.47 4.1-5.83 2.09-1.09 3.06 4.07 3.06 9.28zM351.71-215.34c0 .56.5.73 1.12.37l6.11-3.52a2.24 2.24 0 001.12-1.66c0-.56-.5-.73-1.12-.37L352.83-217a2.24 2.24 0 00-1.12 1.66M368.8-233.39c0 .56.51.72 1.13.36l6.1-3.51a2.25 2.25 0 001.13-1.67c0-.56-.5-.72-1.13-.36l-6.1 3.51a2.27 2.27 0 00-1.13 1.67" transform="translate(-301.59 323)" class="color27debf svgShape"></path><path fill="#24b2c0" d="M380.82-231c0 .56.5.73 1.13.37l6.1-3.52a2.26 2.26 0 001.13-1.66c0-.57-.51-.73-1.13-.37L382-232.7a2.21 2.21 0 00-1.13 1.66M392.05-228.46c0 .56.51.73 1.13.37l6.1-3.52a2.25 2.25 0 001.13-1.67c0-.56-.5-.72-1.13-.36l-6.1 3.51a2.27 2.27 0 00-1.13 1.67" transform="translate(-301.59 323)" class="color27debf svgShape"></path></g><line x1="55.48" x2="55.48" y1="110.27" y2="110.77" fill="none" stroke="#ffffff" stroke-linecap="round" stroke-linejoin="round" stroke-width=".49" class="colorStrokefff svgStroke"></line><line x1="55.48" x2="55.48" y1="112.64" y2="128.55" fill="none" stroke="#ffffff" stroke-dasharray=".94 1.87" stroke-linecap="round" stroke-linejoin="round" stroke-width=".49" class="colorStrokefff svgStroke"></line><line x1="55.48" x2="55.48" y1="129.48" y2="129.97" fill="none" stroke="#ffffff" stroke-linecap="round" stroke-linejoin="round" stroke-width=".49" class="colorStrokefff svgStroke"></line><line x1="83.93" x2="83.93" y1="95.1" y2="95.59" fill="none" stroke="#ffffff" stroke-linecap="round" stroke-linejoin="round" stroke-width=".49" class="colorStrokefff svgStroke"></line><line x1="83.93" x2="83.93" y1="97.64" y2="111.99" fill="none" stroke="#ffffff" stroke-dasharray="1.03 2.05" stroke-linecap="round" stroke-linejoin="round" stroke-width=".49" class="colorStrokefff svgStroke"></line><line x1="83.93" x2="83.93" y1="113.02" y2="113.51" fill="none" stroke="#ffffff" stroke-linecap="round" stroke-linejoin="round" stroke-width=".49" class="colorStrokefff svgStroke"></line><line x1="95.04" x2="95.04" y1="96" y2="96.49" fill="none" stroke="#ffffff" stroke-linecap="round" stroke-linejoin="round" stroke-width=".49" class="colorStrokefff svgStroke"></line><line x1="95.05" x2="95.06" y1="98.32" y2="105.67" fill="none" stroke="#ffffff" stroke-dasharray=".92 1.84" stroke-linecap="round" stroke-linejoin="round" stroke-width=".49" class="colorStrokefff svgStroke"></line><line x1="95.06" x2="95.06" y1="106.59" y2="107.08" fill="none" stroke="#ffffff" stroke-linecap="round" stroke-linejoin="round" stroke-width=".49" class="colorStrokefff svgStroke"></line><line x1="71.97" x2="71.97" y1="90.9" y2="91.39" fill="none" stroke="#ffffff" stroke-linecap="round" stroke-linejoin="round" stroke-width=".49" class="colorStrokefff svgStroke"></line><line x1="71.97" x2="71.97" y1="93.36" y2="118.94" fill="none" stroke="#ffffff" stroke-dasharray=".98 1.97" stroke-linecap="round" stroke-linejoin="round" stroke-width=".49" class="colorStrokefff svgStroke"></line><line x1="71.97" x2="71.97" y1="119.92" y2="120.41" fill="none" stroke="#ffffff" stroke-linecap="round" stroke-linejoin="round" stroke-width=".49" class="colorStrokefff svgStroke"></line><path fill="#24b2c0" d="M559.09-228.83l-60.6-34.76c-.85-.5-1.54-.1-1.54.89v44.81a3.4,3.4,0,0,0,1.54,2.67l60.6,34.77c.85.49,1.54.09,1.54-.89v-44.82a3.41,3.41,0,0,0-1.54-2.67" transform="translate(-301.59 323)" class="color27debf svgShape"></path><g clip-path="url(#g)" opacity=".9" fill="#000000" class="color000 svgShape"><path fill="#ffffff" d="M559.09-228.83l-60.6-34.76c-.85-.5-1.54-.1-1.54.89v44.81a3.4,3.4,0,0,0,1.54,2.67l60.6,34.77c.85.49,1.54.09,1.54-.89v-44.82a3.41,3.41,0,0,0-1.54-2.67" transform="translate(-301.59 323)" class="colorfff svgShape"></path></g><g clip-path="url(#g)" opacity=".3" fill="#000000" class="color000 svgShape"><path fill="#24b2c0" d="M497.8-263.31a.85.85,0,0,1,.44.14l60.6,34.76a2.94,2.94,0,0,1,1.3,2.25v44.82c0,.23,0,.61-.36.61a1,1,0,0,1-.45-.15l-60.6-34.76a2.92,2.92,0,0,1-1.29-2.25V-262.7c0-.23,0-.61.36-.61m0-.49c-.51,0-.85.4-.85,1.1v44.81a3.4,3.4,0,0,0,1.54,2.67l60.6,34.77a1.4,1.4,0,0,0,.69.21c.5,0,.85-.4.85-1.1v-44.82a3.41,3.41,0,0,0-1.54-2.67l-60.6-34.76a1.33,1.33,0,0,0-.69-.21" transform="translate(-301.59 323)" class="color27debf svgShape"></path></g><g clip-path="url(#h)" opacity=".3" fill="#000000" class="color000 svgShape"><polygon fill="#24b2c0" points="199.53 104.3 199.53 102.31 205.51 96.55 209.99 106.05 214.49 100.87 218.13 107.47 228.71 93.81 233.04 103.59 239.74 93.37 248.75 119.37 255.34 127.62 255.34 136.52 199.53 104.3" class="color27debf svgShape"></polygon></g><line x1="239.74" x2="239.74" y1="94.11" y2="127.71" fill="none" stroke="#ffffff" stroke-dasharray=".98 1.96" stroke-linecap="round" stroke-linejoin="round" stroke-width=".49" class="colorStrokefff svgStroke"></line><line x1="228.75" x2="228.75" y1="94.64" y2="120.89" fill="none" stroke="#ffffff" stroke-dasharray=".98 1.96" stroke-linecap="round" stroke-linejoin="round" stroke-width=".49" class="colorStrokefff svgStroke"></line><line x1="205.51" x2="205.51" y1="97.53" y2="107.75" fill="none" stroke="#ffffff" stroke-dasharray=".98 1.96" stroke-linecap="round" stroke-linejoin="round" stroke-width=".49" class="colorStrokefff svgStroke"></line><line x1="214.37" x2="214.37" y1="101.66" y2="112.91" fill="none" stroke="#ffffff" stroke-dasharray=".98 1.96" stroke-linecap="round" stroke-linejoin="round" stroke-width=".49" class="colorStrokefff svgStroke"></line><g clip-path="url(#i)" opacity=".3" fill="#000000" class="color000 svgShape"><path fill="#24b2c0" d="M510.27-229.37c0,.57-.5.73-1.12.37l-3.56-2.07a2.27,2.27,0,0,1-1.13-1.67c0-.56.51-.72,1.13-.37l3.56,2.08a2.24,2.24,0,0,1,1.12,1.66" transform="translate(-301.59 323)" class="color27debf svgShape"></path></g><g clip-path="url(#j)" opacity=".3" fill="#000000" class="color000 svgShape"><path fill="#24b2c0" d="M519.06-222.85c0,.56-.51.73-1.13.37l-3.56-2.08a2.23,2.23,0,0,1-1.12-1.66c0-.56.5-.73,1.12-.37l3.56,2.08a2.24,2.24,0,0,1,1.13,1.66" transform="translate(-301.59 323)" class="color27debf svgShape"></path></g><g clip-path="url(#k)" opacity=".3" fill="#000000" class="color000 svgShape"><path fill="#24b2c0" d="M533.24-230.84c0,.56-.5.72-1.12.36l-3.56-2.07a2.27,2.27,0,0,1-1.13-1.67c0-.56.51-.72,1.13-.36l3.56,2.07a2.24,2.24,0,0,1,1.12,1.67" transform="translate(-301.59 323)" class="color27debf svgShape"></path></g><g clip-path="url(#l)" opacity=".3" fill="#000000" class="color000 svgShape"><path fill="#24b2c0" d="M544.8-231.07c0,.56-.51.72-1.13.36l-3.56-2.07a2.26,2.26,0,0,1-1.12-1.67c0-.56.5-.72,1.12-.36l3.56,2.07a2.26,2.26,0,0,1,1.13,1.67" transform="translate(-301.59 323)" class="color27debf svgShape"></path></g></g><g clip-path="url(#a)" fill="#000000" class="color000 svgShape"><g clip-path="url(#m)" opacity=".2" fill="#000000" class="color000 svgShape"><path d="M523.19-150.93l-67.66,39a6.42,6.42,0,0,1-3.16.75,6.35,6.35,0,0,1-3.15-.75l-67.65-39a2.2,2.2,0,0,1-1.31-1.82,1.86,1.86,0,0,1,.69-1.37,3.42,3.42,0,0,1,.62-.45l67.66-39a7,7,0,0,1,6.31,0l67.65,39c1.73,1,1.73,2.64,0,3.64" transform="translate(-301.59 323)" fill="#000000" class="color000 svgShape"></path></g><path fill="#24b2c0" d="M452.37-129.88v13.15a6.42,6.42,0,0,1-3.14-.74l-67.66-39a2.24,2.24,0,0,1-1.31-1.82V-169.7a1.88,1.88,0,0,1,.69-1.38l9.79,5.66Z" transform="translate(-301.59 323)" class="color27debf svgShape"></path><g clip-path="url(#n)" opacity=".5" fill="#000000" class="color000 svgShape"><path fill="#ffffff" d="M452.37-129.88v13.15a6.42,6.42,0,0,1-3.14-.74l-67.66-39a2.24,2.24,0,0,1-1.31-1.82V-169.7a1.88,1.88,0,0,1,.69-1.38l9.79,5.66Z" transform="translate(-301.59 323)" class="colorfff svgShape"></path></g><path fill="#24b2c0" d="M452.37-129.88v13.15a6.42,6.42,0,0,0,3.14-.74l67.68-39a2.23,2.23,0,0,0,1.31-1.82v-11.39a1.86,1.86,0,0,0-.69-1.37L514-165.43Z" transform="translate(-301.59 323)" class="color27debf svgShape"></path><g clip-path="url(#o)" opacity=".65" fill="#000000" class="color000 svgShape"><path fill="#ffffff" d="M452.37-129.88v13.15a6.42,6.42,0,0,0,3.14-.74l67.68-39a2.23,2.23,0,0,0,1.31-1.82v-11.39a1.86,1.86,0,0,0-.69-1.37L514-165.43Z" transform="translate(-301.59 323)" class="colorfff svgShape"></path></g><path fill="#24b2c0" d="M523.19-167.89l-67.66,39a6.42,6.42,0,0,1-3.16.75,6.35,6.35,0,0,1-3.15-.75l-67.65-39a2.19,2.19,0,0,1-1.31-1.81,1.88,1.88,0,0,1,.69-1.38,3.39,3.39,0,0,1,.62-.44l67.66-39a7,7,0,0,1,6.31,0l67.65,39c1.73,1,1.73,2.65,0,3.64" transform="translate(-301.59 323)" class="color27debf svgShape"></path><g clip-path="url(#p)" opacity=".8" fill="#000000" class="color000 svgShape"><path fill="#ffffff" d="M523.19-167.89l-67.66,39a6.42,6.42,0,0,1-3.16.75,6.35,6.35,0,0,1-3.15-.75l-67.65-39a2.19,2.19,0,0,1-1.31-1.81,1.88,1.88,0,0,1,.69-1.38,3.39,3.39,0,0,1,.62-.44l67.66-39a7,7,0,0,1,6.31,0l67.65,39c1.73,1,1.73,2.65,0,3.64" transform="translate(-301.59 323)" class="colorfff svgShape"></path></g><path fill="#ffffff" d="M452.38-210.52a5.76,5.76,0,0,1,2.77.65l67.65,39c.58.33.91.75.91,1.15s-.33.8-.91,1.13l-67.67,39a5.63,5.63,0,0,1-2.76.64,5.69,5.69,0,0,1-2.76-.64l-67.65-39c-.58-.33-.92-.75-.92-1.14a1.14,1.14,0,0,1,.45-.8,2.3,2.3,0,0,1,.47-.35l67.67-39a5.67,5.67,0,0,1,2.75-.65m0-.78a6.46,6.46,0,0,0-3.15.75l-67.66,39a3.39,3.39,0,0,0-.62.44,1.88,1.88,0,0,0-.69,1.38,2.19,2.19,0,0,0,1.31,1.81l67.65,39a6.35,6.35,0,0,0,3.15.75,6.42,6.42,0,0,0,3.16-.75l67.66-39c1.73-1,1.73-2.63,0-3.64l-67.65-39a6.47,6.47,0,0,0-3.16-.75" transform="translate(-301.59 323)" class="colorfff svgShape"></path><path fill="#f0f0f0" d="M450.28-202.62l-55,31.71a1.28,1.28,0,0,0,0,2.42l55,31.71a4.64,4.64,0,0,0,4.2,0l55-31.71a1.28,1.28,0,0,0,0-2.43l-55-31.7a4.66,4.66,0,0,0-4.21,0" transform="translate(-301.59 323)" class="color455a64 svgShape"></path><path fill="#37474f" d="M509.45-170.92l-55-31.7a4.25,4.25,0,0,0-2.11-.5V-201l56.71,32.71.36-.21a1.28,1.28,0,0,0,0-2.43" transform="translate(-301.59 323)" class="color37474f svgShape"></path><path fill="#263238" d="M452.39-203.12a4.27,4.27,0,0,0-2.11.5l-55,31.71a1.28,1.28,0,0,0,0,2.42l.37.21L452.39-201Z" transform="translate(-301.59 323)" class="color263238 svgShape"></path><g clip-path="url(#q)" opacity=".5" fill="#000000" class="color000 svgShape"><g clip-path="url(#r)" opacity=".3" fill="#000000" class="color000 svgShape"><path fill="#24b2c0" d="M456.18-144.81a6.7,6.7,0,0,1-3.87.9h0v7.63a4.79,4.79,0,0,0,2.59-.76l53.89-31.11c1-.56,1.48-1,1.48-1.72V-176Z" transform="translate(-301.59 323)" class="color27debf svgShape"></path></g><g clip-path="url(#s)" opacity=".28" fill="#000000" class="color000 svgShape"><path fill="#24b2c0" d="M456.18-151.63a6.78,6.78,0,0,1-3.87.9h0v7.63a4.72,4.72,0,0,0,2.59-.77L508.79-175c1-.55,1.48-1,1.48-1.71v-6.17Z" transform="translate(-301.59 323)" class="color27debf svgShape"></path></g><g clip-path="url(#t)" opacity=".25" fill="#000000" class="color000 svgShape"><path fill="#24b2c0" d="M456.18-158.46a6.7,6.7,0,0,1-3.87.91h0v7.63a4.8,4.8,0,0,0,2.59-.77l53.89-31.11c1-.55,1.48-1,1.48-1.71v-6.17Z" transform="translate(-301.59 323)" class="color27debf svgShape"></path></g><g clip-path="url(#u)" opacity=".23" fill="#000000" class="color000 svgShape"><path fill="#24b2c0" d="M456.18-165.28a6.78,6.78,0,0,1-3.87.91s0,0,0,0,0,0,0,0v7.63a4.8,4.8,0,0,0,2.59-.77l53.89-31.11c1-.55,1.48-1,1.48-1.72v-6.16Z" transform="translate(-301.59 323)" class="color27debf svgShape"></path></g><g clip-path="url(#v)" opacity=".21" fill="#000000" class="color000 svgShape"><path fill="#24b2c0" d="M456.18-172.1a6.7,6.7,0,0,1-3.87.9h0v7.63a4.79,4.79,0,0,0,2.59-.76l53.89-31.11c1-.56,1.48-1,1.48-1.72v-6.17Z" transform="translate(-301.59 323)" class="color27debf svgShape"></path></g><g clip-path="url(#w)" opacity=".18" fill="#000000" class="color000 svgShape"><path fill="#24b2c0" d="M456.18-178.92a6.78,6.78,0,0,1-3.87.9h0v7.63a4.72,4.72,0,0,0,2.59-.77l53.89-31.11c1-.55,1.48-1,1.48-1.71v-6.17Z" transform="translate(-301.59 323)" class="color27debf svgShape"></path></g><g clip-path="url(#x)" opacity=".16" fill="#000000" class="color000 svgShape"><path fill="#24b2c0" d="M456.18-185.75a6.7,6.7,0,0,1-3.87.91h0v7.63a4.8,4.8,0,0,0,2.59-.77l53.89-31.11c1-.55,1.48-1,1.48-1.71V-217Z" transform="translate(-301.59 323)" class="color27debf svgShape"></path></g><g clip-path="url(#y)" opacity=".14" fill="#000000" class="color000 svgShape"><path fill="#24b2c0" d="M456.18-192.57a6.78,6.78,0,0,1-3.87.91s0,0,0,0,0,0,0,0V-184a4.8,4.8,0,0,0,2.59-.77l53.89-31.11c1-.55,1.48-1,1.48-1.71v-6.17Z" transform="translate(-301.59 323)" class="color27debf svgShape"></path></g><g clip-path="url(#z)" opacity=".12" fill="#000000" class="color000 svgShape"><path fill="#24b2c0" d="M456.18-199.39a6.7,6.7,0,0,1-3.87.9s0,0,0,0,0,0,0,0v7.63a4.79,4.79,0,0,0,2.59-.76l53.89-31.11c1-.56,1.48-1,1.48-1.72v-6.17Z" transform="translate(-301.59 323)" class="color27debf svgShape"></path></g><g clip-path="url(#A)" opacity=".09" fill="#000000" class="color000 svgShape"><path fill="#24b2c0" d="M456.18-206.21a6.7,6.7,0,0,1-3.87.9h0v7.63a4.72,4.72,0,0,0,2.59-.77l53.89-31.11c1-.55,1.48-1,1.48-1.71v-6.17Z" transform="translate(-301.59 323)" class="color27debf svgShape"></path></g><g clip-path="url(#B)" opacity=".07" fill="#000000" class="color000 svgShape"><path fill="#24b2c0" d="M456.18-213a6.7,6.7,0,0,1-3.87.91h0v7.63a4.8,4.8,0,0,0,2.59-.77l53.89-31.11c1-.55,1.48-1,1.48-1.71v-6.17Z" transform="translate(-301.59 323)" class="color27debf svgShape"></path></g><g clip-path="url(#C)" opacity=".05" fill="#000000" class="color000 svgShape"><path fill="#24b2c0" d="M456.18-219.86a6.78,6.78,0,0,1-3.87.91h0s0,0,0,0v7.63a4.8,4.8,0,0,0,2.59-.77l53.89-31.11c1-.55,1.48-1,1.48-1.71v-6.17Z" transform="translate(-301.59 323)" class="color27debf svgShape"></path></g><g clip-path="url(#D)" opacity=".02" fill="#000000" class="color000 svgShape"><path fill="#24b2c0" d="M456.18-226.68a6.78,6.78,0,0,1-3.87.91s0,0,0,0,0,0,0,0v7.62a4.79,4.79,0,0,0,2.59-.76L508.79-250c1-.56,1.48-1,1.48-1.72v-6.16Z" transform="translate(-301.59 323)" class="color27debf svgShape"></path></g><g clip-path="url(#E)" opacity="0" fill="#000000" class="color000 svgShape"><path fill="#24b2c0" d="M456.18-233.5a6.7,6.7,0,0,1-3.87.9h0V-225a4.72,4.72,0,0,0,2.59-.77l53.89-31.11c1-.55,1.48-1,1.48-1.71v-6.17Z" transform="translate(-301.59 323)" class="color27debf svgShape"></path></g></g><g clip-path="url(#F)" opacity=".7" fill="#000000" class="color000 svgShape"><g clip-path="url(#G)" opacity=".5" fill="#000000" class="color000 svgShape"><path fill="#24b2c0" d="M448.45-144.81a6.69,6.69,0,0,0,3.86.9h0v7.63a4.84,4.84,0,0,1-2.59-.76l-53.88-31.11c-1-.56-1.49-1-1.49-1.72V-176Z" transform="translate(-301.59 323)" class="color27debf svgShape"></path></g><g clip-path="url(#H)" opacity=".46" fill="#000000" class="color000 svgShape"><path fill="#24b2c0" d="M448.45-151.63a6.76,6.76,0,0,0,3.86.9h0v7.63a4.77,4.77,0,0,1-2.59-.77L395.84-175c-1-.55-1.49-1-1.49-1.71v-6.17Z" transform="translate(-301.59 323)" class="color27debf svgShape"></path></g><g clip-path="url(#I)" opacity=".42" fill="#000000" class="color000 svgShape"><path fill="#24b2c0" d="M448.45-158.46a6.69,6.69,0,0,0,3.86.91h0v7.63a4.85,4.85,0,0,1-2.59-.77L395.84-181.8c-1-.55-1.49-1-1.49-1.71v-6.17Z" transform="translate(-301.59 323)" class="color27debf svgShape"></path></g><g clip-path="url(#J)" opacity=".38" fill="#000000" class="color000 svgShape"><path fill="#24b2c0" d="M448.45-165.28a6.77,6.77,0,0,0,3.86.91s0,0,0,0,0,0,0,0v7.63a4.85,4.85,0,0,1-2.59-.77l-53.88-31.11c-1-.55-1.49-1-1.49-1.72v-6.16Z" transform="translate(-301.59 323)" class="color27debf svgShape"></path></g><g clip-path="url(#K)" opacity=".35" fill="#000000" class="color000 svgShape"><path fill="#24b2c0" d="M448.45-172.1a6.69,6.69,0,0,0,3.86.9h0v7.63a4.84,4.84,0,0,1-2.59-.76l-53.88-31.11c-1-.56-1.49-1-1.49-1.72v-6.17Z" transform="translate(-301.59 323)" class="color27debf svgShape"></path></g><g clip-path="url(#L)" opacity=".31" fill="#000000" class="color000 svgShape"><path fill="#24b2c0" d="M448.45-178.92a6.76,6.76,0,0,0,3.86.9h0v7.63a4.77,4.77,0,0,1-2.59-.77l-53.88-31.11c-1-.55-1.49-1-1.49-1.71v-6.17Z" transform="translate(-301.59 323)" class="color27debf svgShape"></path></g><g clip-path="url(#M)" opacity=".27" fill="#000000" class="color000 svgShape"><path fill="#24b2c0" d="M448.45-185.75a6.69,6.69,0,0,0,3.86.91h0v7.63a4.85,4.85,0,0,1-2.59-.77l-53.88-31.11c-1-.55-1.49-1-1.49-1.71V-217Z" transform="translate(-301.59 323)" class="color27debf svgShape"></path></g><g clip-path="url(#N)" opacity=".23" fill="#000000" class="color000 svgShape"><path fill="#24b2c0" d="M448.45-192.57a6.77,6.77,0,0,0,3.86.91s0,0,0,0,0,0,0,0V-184a4.85,4.85,0,0,1-2.59-.77l-53.88-31.11c-1-.55-1.49-1-1.49-1.71v-6.17Z" transform="translate(-301.59 323)" class="color27debf svgShape"></path></g><g clip-path="url(#O)" opacity=".19" fill="#000000" class="color000 svgShape"><path fill="#24b2c0" d="M448.45-199.39a6.69,6.69,0,0,0,3.86.9s0,0,0,0h0v7.63a4.84,4.84,0,0,1-2.59-.76l-53.88-31.11c-1-.56-1.49-1-1.49-1.72v-6.17Z" transform="translate(-301.59 323)" class="color27debf svgShape"></path></g><g clip-path="url(#P)" opacity=".15" fill="#000000" class="color000 svgShape"><path fill="#24b2c0" d="M448.45-206.21a6.69,6.69,0,0,0,3.86.9h0v7.63a4.77,4.77,0,0,1-2.59-.77l-53.88-31.11c-1-.55-1.49-1-1.49-1.71v-6.17Z" transform="translate(-301.59 323)" class="color27debf svgShape"></path></g><g clip-path="url(#Q)" opacity=".12" fill="#000000" class="color000 svgShape"><path fill="#24b2c0" d="M448.45-213a6.69,6.69,0,0,0,3.86.91h0v7.63a4.85,4.85,0,0,1-2.59-.77l-53.88-31.11c-1-.55-1.49-1-1.49-1.71v-6.17Z" transform="translate(-301.59 323)" class="color27debf svgShape"></path></g><g clip-path="url(#R)" opacity=".08" fill="#000000" class="color000 svgShape"><path fill="#24b2c0" d="M448.45-219.86a6.77,6.77,0,0,0,3.86.91s0,0,0,0,0,0,0,0v7.63a4.85,4.85,0,0,1-2.59-.77L395.84-243.2c-1-.55-1.49-1-1.49-1.71v-6.17Z" transform="translate(-301.59 323)" class="color27debf svgShape"></path></g><g clip-path="url(#S)" opacity=".04" fill="#000000" class="color000 svgShape"><path fill="#24b2c0" d="M448.45-226.68a6.77,6.77,0,0,0,3.86.91s0,0,0,0,0,0,0,0v7.62a4.84,4.84,0,0,1-2.59-.76L395.84-250c-1-.56-1.49-1-1.49-1.72v-6.16Z" transform="translate(-301.59 323)" class="color27debf svgShape"></path></g><g clip-path="url(#T)" opacity="0" fill="#000000" class="color000 svgShape"><path fill="#24b2c0" d="M448.45-233.5a6.69,6.69,0,0,0,3.86.9h0V-225a4.77,4.77,0,0,1-2.59-.77l-53.88-31.11c-1-.55-1.49-1-1.49-1.71v-6.17Z" transform="translate(-301.59 323)" class="color27debf svgShape"></path></g></g></g><g clip-path="url(#a)" fill="#000000" class="color000 svgShape"><path fill="#24b2c0" d="M491.54-198.59s1.64,1.63.5,4.65-4.67,3.43-4.67,3.43.47,4.82-7.33,5.41a4.43,4.43,0,0,0,0-1s3.59-.14,3.65-5.71-4.13-6.43-4.13-6.43a5.12,5.12,0,0,0,.65-4.48c-1-3.05-3.18-2.72-3.18-2.72s1.57-1.15.88-4a3.65,3.65,0,0,0-2.62-3s1.47-2.64-1.22-6.19-5.44-3-5.44-3a8,8,0,0,0-1.9-4.76,6.16,6.16,0,0,0-4.92-1.91,7.75,7.75,0,0,0-2.53-6,8.49,8.49,0,0,0-5.72-2.57,4.57,4.57,0,0,0-1.93-4,5.24,5.24,0,0,0-5.17-.74s-.49-3.5-3.51-4.17c-3.95-.86-5.91,1.47-5.91,1.47a6.93,6.93,0,0,0-4.32-2.23,15.5,15.5,0,0,1,4-3.64c3.56-2.18,8.94-.79,8.94-.79a7,7,0,0,1,4.7-1.3,5.33,5.33,0,0,1,4,2.35s1.65-1.22,5.65-1a5.34,5.34,0,0,1,4.95,3.39,9.72,9.72,0,0,1,5.56,1.56c3,1.83,3,5.74,3,5.74a7.21,7.21,0,0,1,6.69,2.27c3.14,3.21,1.75,6.25,1.75,6.25a7,7,0,0,1,5.56,3.65,7,7,0,0,1,0,6.78,3.15,3.15,0,0,1,2,1.91,2.91,2.91,0,0,1,0,2.53,7.13,7.13,0,0,1,3.83,4.51,6.07,6.07,0,0,1-.79,5.13,5,5,0,0,1,2.52,4.52c0,3.3-3.47,4-3.47,4" transform="translate(-301.59 323)" class="color27debf svgShape"></path><g clip-path="url(#U)" opacity=".05" fill="#000000" class="color000 svgShape"><path d="M491.54-198.59s1.64,1.63.5,4.65-4.67,3.43-4.67,3.43.47,4.82-7.33,5.41a4.43,4.43,0,0,0,0-1s3.59-.14,3.65-5.71-4.13-6.43-4.13-6.43a5.12,5.12,0,0,0,.65-4.48c-1-3.05-3.18-2.72-3.18-2.72s1.57-1.15.88-4a3.65,3.65,0,0,0-2.62-3s1.47-2.64-1.22-6.19-5.44-3-5.44-3a8,8,0,0,0-1.9-4.76,6.16,6.16,0,0,0-4.92-1.91,7.75,7.75,0,0,0-2.53-6,8.49,8.49,0,0,0-5.72-2.57,4.57,4.57,0,0,0-1.93-4,5.24,5.24,0,0,0-5.17-.74s-.49-3.5-3.51-4.17c-3.95-.86-5.91,1.47-5.91,1.47a5.31,5.31,0,0,0-1.31-1.11,1,1,0,0,0-.25-.15,7.83,7.83,0,0,0-2.76-1,15.5,15.5,0,0,1,4-3.64c3.56-2.18,8.94-.79,8.94-.79a7,7,0,0,1,4.7-1.3,5.33,5.33,0,0,1,4,2.35s1.65-1.22,5.65-1a5.34,5.34,0,0,1,4.95,3.39,9.72,9.72,0,0,1,5.56,1.56c3,1.83,3,5.74,3,5.74a7.21,7.21,0,0,1,6.69,2.27c3.14,3.21,1.75,6.25,1.75,6.25a7,7,0,0,1,5.56,3.65,7,7,0,0,1,0,6.78,3.15,3.15,0,0,1,2,1.91,2.91,2.91,0,0,1,0,2.53,7.13,7.13,0,0,1,3.83,4.51,6.07,6.07,0,0,1-.79,5.13,5,5,0,0,1,2.52,4.52c0,3.3-3.47,4-3.47,4" transform="translate(-301.59 323)" fill="#000000" class="color000 svgShape"></path></g><g clip-path="url(#V)" opacity=".2" fill="#000000" class="color000 svgShape"><path d="M480.87-198.75a6,6,0,0,0,.2-4.27,4.83,4.83,0,0,0-2.48-3.06,5.45,5.45,0,0,0,.2-3.59,4.8,4.8,0,0,0-2.36-3.29,7.29,7.29,0,0,0-1.64-6.22c-2-2.66-4.13-3.27-5.35-3.38a9,9,0,0,0-2-4.42,6.7,6.7,0,0,0-4.71-2.23,8.87,8.87,0,0,0-2.8-5.73,10.22,10.22,0,0,0-5.45-2.77,5.56,5.56,0,0,0-2.29-3.86,6.21,6.21,0,0,0-5.06-1.16,5.53,5.53,0,0,0-4-3.9,7.23,7.23,0,0,0-6.06,1.1,8.46,8.46,0,0,0-3.68-1.78,17.39,17.39,0,0,0-1.31,1.67,6.29,6.29,0,0,1,4.21,1.94.94.94,0,0,0,.71.36.91.91,0,0,0,.73-.32,5.13,5.13,0,0,1,5-1.16c2.35.52,2.79,3.27,2.81,3.38a.93.93,0,0,0,.47.68.92.92,0,0,0,.84,0,4.32,4.32,0,0,1,4.22.65,3.68,3.68,0,0,1,1.57,3.13.87.87,0,0,0,.24.73.83.83,0,0,0,.71.3,7.71,7.71,0,0,1,5.05,2.32,6.85,6.85,0,0,1,2.24,5.22.92.92,0,0,0,.27.75.9.9,0,0,0,.74.27,5.2,5.2,0,0,1,4.12,1.58,7.19,7.19,0,0,1,1.68,4.15.93.93,0,0,0,.34.71.92.92,0,0,0,.75.21c.09,0,2.27-.34,4.54,2.65s1.19,5.1,1.15,5.18a.92.92,0,0,0,0,.84,1,1,0,0,0,.67.52,2.77,2.77,0,0,1,1.89,2.29c.52,2.15-.5,3-.53,3a.92.92,0,0,0-.3,1.08,1,1,0,0,0,1,.59c.14,0,1.45-.08,2.18,2.09a4.19,4.19,0,0,1-.5,3.63.93.93,0,0,0-.14.88.94.94,0,0,0,.68.59c.14,0,3.44.82,3.39,5.51S480.08-187,480-187a.94.94,0,0,0-.68.34.92.92,0,0,0-.2.73,4.79,4.79,0,0,1,0,.72,2.47,2.47,0,0,0,.91.15c.33,0,.63-.07.93-.11a1.09,1.09,0,0,0,0-.18c1.32-.45,3.57-1.89,3.62-6.42,0-4-2-6.1-3.73-6.94" transform="translate(-301.59 323)" fill="#000000" class="color000 svgShape"></path></g><path fill="#24b2c0" d="M480-186.11s3.59-.14,3.65-5.71-4.13-6.42-4.13-6.42a5.14,5.14,0,0,0,.65-4.49c-1-3.05-3.18-2.72-3.18-2.72s1.57-1.15.88-4a3.65,3.65,0,0,0-2.62-3s1.47-2.64-1.22-6.19-5.44-3-5.44-3a8,8,0,0,0-1.91-4.75,6.11,6.11,0,0,0-4.91-1.9,7.78,7.78,0,0,0-2.53-6,8.58,8.58,0,0,0-5.71-2.58,4.58,4.58,0,0,0-1.94-4,5.24,5.24,0,0,0-5.16-.75s-.5-3.49-3.53-4.15c-3.94-.87-5.9,1.46-5.9,1.46s-2.67-3.53-9.1-2c-5.39,1.32-5.78,5.35-5.78,5.35s-5.53-1-8.07,2.77-1.75,8.72-1.75,8.72-3.17,2.22-3,5.54a10.1,10.1,0,0,0,1.59,5.24s-3.17,5.39-.95,9.83a10.28,10.28,0,0,0,6.18,5.39s0,4.75,2.22,7.13,6.18,2.22,6.18,2.22a8.56,8.56,0,0,0,4.28,4.92,9.72,9.72,0,0,0,6.82.31,8.55,8.55,0,0,0,4,2.7,12.41,12.41,0,0,0,5.71,0,4.1,4.1,0,0,0,3.33,3.33,4.77,4.77,0,0,0,4.6-1.27,4,4,0,0,0,3.17,2.22,4.44,4.44,0,0,0,3.49-1.27s1.27,4,6.5,4.12,6.51-2.1,6.51-2.1a4.41,4.41,0,0,0,5.06-.11,5.43,5.43,0,0,0,2.06-4.92" transform="translate(-301.59 323)" class="color27debf svgShape"></path><g clip-path="url(#W)" opacity=".2" fill="#000000" class="color000 svgShape"><path fill="#ffffff" d="M480-186.11s3.59-.14,3.65-5.71-4.13-6.42-4.13-6.42a5.14,5.14,0,0,0,.65-4.49c-1-3.05-3.18-2.72-3.18-2.72s1.57-1.15.88-4a3.65,3.65,0,0,0-2.62-3s1.47-2.64-1.22-6.19-5.44-3-5.44-3a8,8,0,0,0-1.91-4.75,6.11,6.11,0,0,0-4.91-1.9,7.78,7.78,0,0,0-2.53-6,8.58,8.58,0,0,0-5.71-2.58,4.58,4.58,0,0,0-1.94-4,5.24,5.24,0,0,0-5.16-.75s-.5-3.49-3.53-4.15c-3.94-.87-5.9,1.46-5.9,1.46s-2.67-3.53-9.1-2c-5.39,1.32-5.78,5.35-5.78,5.35s-5.53-1-8.07,2.77-1.75,8.72-1.75,8.72-3.17,2.22-3,5.54a10.1,10.1,0,0,0,1.59,5.24s-3.17,5.39-.95,9.83a10.28,10.28,0,0,0,6.18,5.39s0,4.75,2.22,7.13,6.18,2.22,6.18,2.22a8.56,8.56,0,0,0,4.28,4.92,9.72,9.72,0,0,0,6.82.31,8.55,8.55,0,0,0,4,2.7,12.41,12.41,0,0,0,5.71,0,4.1,4.1,0,0,0,3.33,3.33,4.77,4.77,0,0,0,4.6-1.27,4,4,0,0,0,3.17,2.22,4.44,4.44,0,0,0,3.49-1.27s1.27,4,6.5,4.12,6.51-2.1,6.51-2.1a4.41,4.41,0,0,0,5.06-.11,5.43,5.43,0,0,0,2.06-4.92" transform="translate(-301.59 323)" class="colorfff svgShape"></path></g><g clip-path="url(#X)" opacity=".05" fill="#000000" class="color000 svgShape"><path d="M438.23-231.37a15.81,15.81,0,0,0-2-2.92c-.57-.64-1.45-1.59-2.4-1.49-.28,0-.1.47.09.51a3.29,3.29,0,0,1,1.94,1.56,20.78,20.78,0,0,1,1.36,2.28,15.75,15.75,0,0,1,1.84,6.68c.07,2-.41,4-2.28,4.93-2.21,1.14-5.05.42-7.13-.63a5.83,5.83,0,0,1-3.3-4.44c0-.25-.42-.46-.41-.1a5.94,5.94,0,0,0,.77,3,6.33,6.33,0,0,0,2.25,2.05,9.72,9.72,0,0,0,7.16,1.33c5.76-1.45,4.12-9,2.06-12.79" transform="translate(-301.59 323)" fill="#000000" class="color000 svgShape"></path><path d="M432-228.32a5.19,5.19,0,0,0-.79-2.25,7.35,7.35,0,0,0-1.56-1.82,5.73,5.73,0,0,0-2.12-1.23c-.34-.09-.31.39-.11.52a12.15,12.15,0,0,1,1.81,1.21,6.66,6.66,0,0,1,1.33,1.66,4.91,4.91,0,0,1,.58,1.93,5,5,0,0,1,0,1.09c0,.34-.13.67-.19,1,0,.15.18.49.35.31a3.09,3.09,0,0,0,.74-2.43" transform="translate(-301.59 323)" fill="#000000" class="color000 svgShape"></path><path d="M434.81-239.87a15.6 15.6 0 00-5.36-.5 9.66 9.66 0 00-4.74 1.66 10.57 10.57 0 00-4.84 7.11c-.26 1.65-.41 3.72 1.06 4.88.18.14.5.06.4-.21a6.86 6.86 0 01-.57-3 13 13 0 01.39-2.55 9.32 9.32 0 012.77-4.38 9.9 9.9 0 015-2.59 13.58 13.58 0 013-.08 16.65 16.65 0 003 .15c.27 0 .09-.48-.08-.53M423.66-221.38a8.88 8.88 0 00-7.24-4.28c-2.26 0-5.75 1.31-5.43 4.14A5.07 5.07 0 00413.2-218a1.82 1.82 0 001.82.1c.67-.38.74-1.24.92-1.91 0-.11-.09-.34-.21-.21-.56.59-1.11 2.06-2.14 1.34a4.47 4.47 0 01-1.62-2.58c-.41-2.18 2.12-3.23 3.85-3.48a7.19 7.19 0 016.22 2.68c1 1.14 2.36 3.5.71 4.68a2.59 2.59 0 01-1.89.44c-.77-.15-.84-.74-1-1.41-.07-.32-.67-.46-.78-.1a1.74 1.74 0 00.93 2.07 3.16 3.16 0 002.47.12 2.86 2.86 0 001.86-1.6 4.21 4.21 0 00-.69-3.49" transform="translate(-301.59 323)" fill="#000000" class="color000 svgShape"></path><path d="M446-193.95a12.54,12.54,0,0,0-6.06-5.25c-.4-.18-.81-.36-1.23-.52a7.13,7.13,0,0,0,1.25-1.48,12.87,12.87,0,0,0,1.61-3.49,4.28,4.28,0,0,0-.46-3.59,3.8,3.8,0,0,0-1.38-1.26,2.72,2.72,0,0,0-2.11-.34c-.24.11,0,.47.19.51a4.4,4.4,0,0,1,1.74.56,2.79,2.79,0,0,1,1,1.38,4.33,4.33,0,0,1-.12,2.84,12.37,12.37,0,0,1-1.38,2.86,6.37,6.37,0,0,1-1,1.17,2.52,2.52,0,0,1-.59.39c-2.09-.73-4.24-1.27-6.36-1.94a17.51,17.51,0,0,1-8-4.91,10.62,10.62,0,0,1-2.69-5,10.84,10.84,0,0,1-.14-2.41,3.19,3.19,0,0,1,.56-2c.24-.24-.2-.73-.47-.55-1,.66-1,2.29-1,3.37a10,10,0,0,0,1.22,4.86,16.17,16.17,0,0,0,7.17,6.57c5.1,2.44,11.58,2.49,15.7,6.77a7.89,7.89,0,0,1,2.19,4,6.19,6.19,0,0,1,0,2.5,18.27,18.27,0,0,1-.91,2.07c-.07.19.2.53.41.43,1.2-.58,1.62-2.2,1.71-3.44a7.55,7.55,0,0,0-.86-4" transform="translate(-301.59 323)" fill="#000000" class="color000 svgShape"></path><path d="M439.55-193.66a12.4 12.4 0 00-4.73-1.63c-1.63-.38-3.28-.71-4.88-1.19a22 22 0 01-2.35-.86c-1.1-.48-2-1.19-3.13-1.68-.21-.09-.44.09-.33.31a4.49 4.49 0 001.78 1.59 12.35 12.35 0 002 1 30.41 30.41 0 004.49 1.32 45.75 45.75 0 015.59 1.28 6.27 6.27 0 011.52.84c.56.41 1.38 1 1.44 1.8 0 .23.43.46.47.12.16-1.24-.94-2.21-1.87-2.88M417.28-207.23a9.25 9.25 0 00-1.89-2.43 5.37 5.37 0 01-1.7-3.73 13.73 13.73 0 01.32-2.39 4.64 4.64 0 00.09-2.53c-.06-.13-.25-.25-.34-.08a3.41 3.41 0 00-.29 1.19c-.06.37-.13.74-.2 1.1a16.27 16.27 0 00-.36 2.2 5.39 5.39 0 001.12 3.71c.62.82 1.39 1.5 2 2.32a3.33 3.33 0 01.62 1.25 4.78 4.78 0 01-.25 2.21c0 .12.09.45.26.31a2.67 2.67 0 00.62-3.13M474.3-211.8a9.75 9.75 0 00-2.12 1 6.77 6.77 0 01-2.46.67c-1.51.12-3-.38-4.51-.37a4.68 4.68 0 00-3.52 1.56 6.11 6.11 0 00-.87 1.2 12.67 12.67 0 00-1-1 12.65 12.65 0 00-4.33-2.65 27.11 27.11 0 00-5.55-1.15 15.15 15.15 0 01-4.89-1.22c-1.28-.65-2.78-1.56-3.17-3.05-.07-.25-.47-.33-.44 0a4.6 4.6 0 002 3 9.83 9.83 0 003.61 1.74c3.43.81 7.1.71 10.15 2.71a11.24 11.24 0 015.07 7.47c.46 2.58.66 5.82-1.38 7.8a21.61 21.61 0 01-4.82 3.39c-.41.23-.86.48-1.29.77a11.39 11.39 0 00.46-2.37 12.19 12.19 0 00-.41-4.88 11 11 0 00-2.32-4 25.79 25.79 0 00-4.26-3.39 10.32 10.32 0 01-2.32-2.25c-.74-1-1.35-2.11-2-3.17-.13-.2-.28.07-.21.22a16.51 16.51 0 002.73 4.68c1.23 1.33 2.85 2.23 4.19 3.45a11 11 0 013.65 8.15 10.77 10.77 0 01-.34 2.93c-.18.65-.45 1.28-.65 1.92a3.08 3.08 0 00-.67 1.41c0 .24.39.62.59.37a10.66 10.66 0 011.73-1.82 12.12 12.12 0 011.94-1.21 22.59 22.59 0 004.42-3 6.75 6.75 0 002.22-3.52 12.58 12.58 0 00.17-4.24 13.63 13.63 0 00-1-4.15 11.18 11.18 0 00-1.09-1.86 4.25 4.25 0 01.3-.8 5.13 5.13 0 011.11-1.26 4.5 4.5 0 013.63-.61 10.82 10.82 0 004.28 0 8.17 8.17 0 002-.82 5.21 5.21 0 001.61-1.17c.14-.19-.1-.54-.32-.49" transform="translate(-301.59 323)" fill="#000000" class="color000 svgShape"></path><path d="M469.8-217.17c-.83-2-3-2.82-4.91-3.5a27.3,27.3,0,0,1-6.07-2.78,10.28,10.28,0,0,1-2.36-2.1,8.86,8.86,0,0,1-1.72-4.52c0-.27-.64-.54-.71-.17-.76,4.08,2.61,7,5.88,8.7a54.49,54.49,0,0,0,5.47,2.16c1.5.57,3.83,1.73,3.5,3.72-.16,1-1.05,1.27-1.89,1.45a13.27,13.27,0,0,1-3.44.29,32.32,32.32,0,0,1-7-1.14,16.72,16.72,0,0,1-10.22-7.6,15.91,15.91,0,0,1-2.17-7.18,17,17,0,0,1,.19-3.77,10.65,10.65,0,0,1,1.35-4.33c.06-.08,0-.33-.13-.22a5.67,5.67,0,0,0-1.42,2.85,25.38,25.38,0,0,0-.64,3.35,15.78,15.78,0,0,0,.88,7.46,17.54,17.54,0,0,0,9.2,9.48,28.8,28.8,0,0,0,6.77,1.74,17.7,17.7,0,0,0,7.46-.1,3,3,0,0,0,2.05-1.49,2.8,2.8,0,0,0,0-2.3" transform="translate(-301.59 323)" fill="#000000" class="color000 svgShape"></path><path d="M461.72-217.47c-.87-.3-1.82-.4-2.71-.68a19.12 19.12 0 01-2.63-1 11.91 11.91 0 01-4-3.22 11.85 11.85 0 01-2.51-5c-.36-2 .19-3.85.29-5.79 0-.17-.27-.57-.39-.28a11.91 11.91 0 00-.82 6.69 12.14 12.14 0 002.64 5.17 11.57 11.57 0 004.4 3.35 17.89 17.89 0 003 .89 6.67 6.67 0 002.79.29c.17-.05.09-.33 0-.37M476.46-201.36c-1.87-1.74-5.24-2.26-5.84-5.15 0-.18-.38-.37-.4-.09-.22 2.41 2.64 3.95 4.38 5a5.35 5.35 0 012.36 2.67 5.49 5.49 0 01-.11 4.08c-.05.17.14.44.31.32 2.34-1.62.95-5.27-.7-6.81M480.74-190.87a5.3 5.3 0 01-3.38 1.64A6.66 6.66 0 01474-190a3.61 3.61 0 01-2.11-2.79A6 6 0 01472-195a11.39 11.39 0 00.45-2.13l.1.07a5.86 5.86 0 011.37 1.93c.06.11.3.26.39.09.43-.79-.19-1.64-.75-2.19a10.28 10.28 0 00-2-1.45 20.41 20.41 0 01-2.36-1.55 10.68 10.68 0 01-1.06-1c-.48-.52-.85-1.11-1.3-1.64-.08-.1-.19 0-.19.11a4.47 4.47 0 001.5 2.49 13 13 0 002.42 1.83l1.15.73a.33.33 0 00-.16.24c-.14.72-.42 1.42-.6 2.13a6.3 6.3 0 00-.22 2.07 4.34 4.34 0 001.23 3 7.64 7.64 0 006.26 1.87 4.78 4.78 0 001.67-.6 2.42 2.42 0 001.24-1.6c0-.19-.2-.47-.38-.31M473.32-183.09a3.23 3.23 0 00-.29-1 9.39 9.39 0 00-1.11-1.88 5.19 5.19 0 00-1.73-1.39 6.86 6.86 0 00-1.05-.44l-.21-.07a3.24 3.24 0 00.22-1 9.78 9.78 0 00-.39-3.14 3.58 3.58 0 00-1.74-2.51c-.4-.19-.42.39-.14.57.43.27.65 1.1.8 1.55a9.17 9.17 0 01.39 1.8 4.74 4.74 0 01-.21 2.67.12.12 0 00-.07.12 2.33 2.33 0 01-.17.26 8.6 8.6 0 01-3.28 2c-1.11.54-2.38 1.23-2.56 2.57 0 .21.31.51.48.29a7.65 7.65 0 012.83-2.18 11.9 11.9 0 002.88-1.65 4.17 4.17 0 00.59-.68l.08 0 .41.13a4.79 4.79 0 01.81.34 4 4 0 011.32 1 12.14 12.14 0 01.78 1.1q.24.4.45.84a6.91 6.91 0 01.33.79 1.83 1.83 0 00.18.46c0 .06.12.15.2.11.28-.13.23-.55.2-.81M465.12-192.95c0-.16-.24-.34-.29-.09a4.45 4.45 0 01-1.11 2.33 11.84 11.84 0 01-2 1.57 10.64 10.64 0 00-1.91 1.57 3.68 3.68 0 00-.72 1.06 2 2 0 00-.08 1.29c0 .08.15.33.27.2a9.48 9.48 0 00.88-1.38 5.47 5.47 0 01.79-.94 17.72 17.72 0 011.83-1.4 6.35 6.35 0 001.8-1.7 3.68 3.68 0 00.5-2.51M439.94-213.06a7.21 7.21 0 00-2.14-.62 18.18 18.18 0 00-6.45.35 22.24 22.24 0 00-5 1.59 12.08 12.08 0 00-2.34 1.4c-.49.38-1.48 1.08-1.19 1.79 0 .12.17.27.31.23.71-.2 1.26-1 1.85-1.4a11.12 11.12 0 012-1.15 22.07 22.07 0 014.34-1.43 20.72 20.72 0 015.6-.59 12.66 12.66 0 011.94.22 4.46 4.46 0 011.72.81c.05 0 .16.05.19 0 .23-.54-.46-1-.86-1.17M429.65-217.52a2.29 2.29 0 00-.75.6c-.28.26-.56.51-.85.75a8.89 8.89 0 01-1.93 1.23 7.89 7.89 0 01-2.07.64 8.43 8.43 0 01-1 .11 3.74 3.74 0 00-1 .08c-.25.09-.11.42.05.52a3.73 3.73 0 002.36.12 8.51 8.51 0 002.25-.75 10.12 10.12 0 001.94-1.3 8.23 8.23 0 00.83-.84 1.38 1.38 0 00.44-.88c0-.14-.15-.35-.31-.28" transform="translate(-301.59 323)" fill="#000000" class="color000 svgShape"></path></g><g clip-path="url(#Y)" opacity=".05" fill="#000000" class="color000 svgShape"><path d="M465.77-246.06c-.08-.09-.18 0-.2.09-.09.46 0 1-.06 1.45a5.69 5.69 0 01-.58 1.89 5.16 5.16 0 01-2.83 2.7c-3.11 1-5.78-1.07-7.94-3a9.88 9.88 0 00-.44-1.17 10.41 10.41 0 00-1.77-2.7 19 19 0 00-2.17-2.13 7.18 7.18 0 00-1.31-.85 2.18 2.18 0 00-1.27-.3c-.24.06-.12.44.07.49a5.17 5.17 0 012.09 1.32 22.46 22.46 0 011.83 1.95 9.18 9.18 0 011.59 2.49 8.43 8.43 0 01.51 1.69c0 .26.09.52.14.78a5.34 5.34 0 00.38.93c.05.12.24.25.33.09a2.52 2.52 0 00.26-1.18 8.28 8.28 0 002.68 2 7.59 7.59 0 005.19.59 5.58 5.58 0 003.25-2.61c.78-1.28 1.35-3.22.25-4.5M472.57-235.6a6.59 6.59 0 00-3.92-1.55c-.28 0-.08.51.14.53a6.27 6.27 0 012.87 1.31c.66.49 1.69 1.31 1.67 2.24 0 1.29-2.24 1.5-3.14 1.48a8.87 8.87 0 01-4.81-1.8 9.74 9.74 0 01-2-1.76 13.81 13.81 0 01-1.41-2.66c-.07-.14-.34-.27-.37 0a5.06 5.06 0 001 3.12 8.56 8.56 0 002.06 2.1 9.81 9.81 0 005.53 2c1.37 0 3.84-.46 4.16-2.1.23-1.21-.92-2.28-1.78-2.93M486.43-221.95a4.87 4.87 0 00-1.89.15c-.7.11-1.4.23-2.11.3a13 13 0 01-4.17-.18 10.29 10.29 0 01-3.2-1.31 13.38 13.38 0 01-2.93-2.74c-.15-.18-.37-.1-.36.13a3.65 3.65 0 00.77 1.71 6.5 6.5 0 001.32 1.35 10.39 10.39 0 003.59 1.69 12.6 12.6 0 004.49.37 23.35 23.35 0 002.51-.37l1.26-.27c.29-.07.76-.09.93-.36a.33.33 0 00-.21-.47" transform="translate(-301.59 323)" fill="#000000" class="color000 svgShape"></path><path d="M482.08-229.08c-.3 0-.06.48.11.52.78.22 1 1.88.68 2.54-.52 1-2.11 1-3.06 1a8.76 8.76 0 01-4.37-1.13c-1.27-.73-2.28-1.77-3.49-2.55-.2-.13-.26.18-.15.3a12.29 12.29 0 003.94 3.49 9.53 9.53 0 005.42.77c1.22-.18 2.68-.72 2.81-2.14.09-1.12-.55-2.87-1.89-2.83M488-217.28l-.19-.08-.28-.08a5.54 5.54 0 00-.57-.07 6.26 6.26 0 00-1.22.08 11 11 0 00-2.64.79 5 5 0 00-1.87 1.35 4.87 4.87 0 00-.82 2.65 3.33 3.33 0 00.38 1.84 2.93 2.93 0 002.47 1.46.39.39 0 00.24-.06.3.3 0 00.05-.36.9.9 0 00-.27-.28 5.2 5.2 0 01-1.19-1.15 3.07 3.07 0 011-4.28 10 10 0 012.47-.95 6.49 6.49 0 011.52-.22 6.43 6.43 0 011.3.22.17.17 0 00.19-.19c0-.16-.42-.6-.56-.67" transform="translate(-301.59 323)" fill="#000000" class="color000 svgShape"></path><path d="M490.28-206a7.47 7.47 0 00-5.57-3.78c-1.22-.2-3.33-.29-4.12.86a.33.33 0 00-.09.21.29.29 0 00.23.24.78.78 0 00.34 0 10.78 10.78 0 012.88-.42 6.91 6.91 0 014.9 2.7 4.15 4.15 0 01.11 4.48 3.13 3.13 0 01-3.42.74 3.57 3.57 0 01-1.79-.94c-.42-.49-.13-1 .23-1.45.19-.22-.16-.72-.43-.55-.8.53-1.47 1.38-.92 2.34a3.54 3.54 0 001.83 1.34 5 5 0 005-.38c1.51-1.23 1.61-3.72.84-5.38M488.06-195.75a5.61 5.61 0 00-1.52-2 2.86 2.86 0 00-2.23-.74c-.27 0-.11.46.11.48 1.39.1 2.32 1.44 2.79 2.62a6.15 6.15 0 01.42 1.84 5.54 5.54 0 010 .91c0 .11 0 .21-.05.32a2 2 0 00-.06.64c0 .17.18.35.37.28s.57-.64.67-.95a3.7 3.7 0 00.14-1.19 5.89 5.89 0 00-.61-2.25" transform="translate(-301.59 323)" fill="#000000" class="color000 svgShape"></path></g><g clip-path="url(#Z)" opacity=".2" fill="#000000" class="color000 svgShape"><path fill="#ffffff" d="M441.21-233.39c-.34-.06-.68.15-.87.77-.44 1.41 0 3.74.14 5.17a39.45 39.45 0 001 6.1 11.11 11.11 0 002 4.55 9.84 9.84 0 003.9 2.58c4 1.59 8.46 1.83 12.25 3.83.47.25 1.07.51 1.47.17a.87.87 0 00.11-1.09 2.17 2.17 0 00-.93-.73 25.64 25.64 0 00-4.83-1.45 19.61 19.61 0 01-7.54-3.76 13.85 13.85 0 01-4.6-7 47.29 47.29 0 01-.75-5.32 11.17 11.17 0 00-.45-2.88 1.47 1.47 0 00-1-.95M432.88-226.4a3.54 3.54 0 01-3.1 3.07 1.19 1.19 0 00-.83.24c-.38.41.12 1 .58 1.35 1.53 1 3.37 2 5.16 1.53s3-2.52 3.09-4.46c.07-1.63-1-10.16-4.3-7.56-1.55 1.22-.41 4.2-.6 5.83M429.38-226.52c1.25-4.35-6.85-9.22-7.16-3.58a4 4 0 00.35 2.17c1.24 2.19 3.34-1.22 5.06.91a5.13 5.13 0 00.65.81.71.71 0 00.94 0 .82.82 0 00.16-.34M448.69-207.29a3.63 3.63 0 001 .89c3.41 2.45 6.29 6 6.64 10.21.07.9.16 2 1 2.36a1.79 1.79 0 001.5-.22 5.47 5.47 0 002.59-4.52 10.85 10.85 0 00-1.24-5.24 8.54 8.54 0 00-5.33-4.88c-1-.27-7.8-1.09-6.13 1.4M427.5-208.11c1 .15 2 .83 3.1 1a5.89 5.89 0 004-.79 12 12 0 011.11-.89 2.21 2.21 0 012.58.53 3.67 3.67 0 01.85 2.62 3.77 3.77 0 01-1.45 3c-1.28.87-3 .55-4.48.11a17.6 17.6 0 01-6.52-3.24 2.6 2.6 0 01-.76-.93 1 1 0 01.18-1.13 1.33 1.33 0 01.87-.29 2 2 0 01.54 0" transform="translate(-301.59 323)" class="colorfff svgShape"></path><path fill="#ffffff" d="M448.71-220.79a19.55 19.55 0 007.66 4.79c2.7 1 6.94 2.54 9.81 1.32a2.27 2.27 0 001.49-2.22 3 3 0 00-1.74-2c-2.86-1.53-6.14-2.14-9-3.6-.56-.28-1.31-.53-1.74-.07s-.14 1.14.28 1.53a10.27 10.27 0 002.31 1.55c1.08.51 3.24.67 4.08 1.48s.12 1.39-.9 1.23a19.94 19.94 0 01-8.13-2.82 11.06 11.06 0 01-4.41-5.41 15.82 15.82 0 01-.72-2.5c-.08-.5.1-1.87-.35-2.22-1.4-1.1-1.25 3.24-1.16 3.79a10.32 10.32 0 002.55 5.12M443.76-242.56a4.14 4.14 0 00-3.6-1.62 6.93 6.93 0 00-3.76 1.55 8.9 8.9 0 00-7-1.93 7.27 7.27 0 00-4.89 2.66c-.21.29-.37.75-.09 1a.66.66 0 00.43.12c1.92.09 3.84-.78 5.84-.74a11.64 11.64 0 015.93 1.59 20.83 20.83 0 003.42 2.15 3.16 3.16 0 003.71-4.75M415.87-237.34a9.15 9.15 0 00-2 5.56c0 2.2.9 4 3.35 4a1.45 1.45 0 00.68-.13c.67-.35.62-1.3.55-2.05a10.79 10.79 0 011.48-6.43 2.35 2.35 0 00.54-1.77 1.4 1.4 0 00-1.18-.89 3.78 3.78 0 00-3.4 1.68M452.3-190.45a14.35 14.35 0 00-.32-5.11 10.49 10.49 0 00-4.05-6.14c-1.05-.75-3.12-2-4.38-1.08s-.9 2.59-.14 3.62 1.9 1.74 2.74 2.72a8.24 8.24 0 011.76 4.48c.15 1.45-.34 2.67-.29 4a1.5 1.5 0 00.6 1.22 1.44 1.44 0 00.86.22 3.07 3.07 0 002.47-1.63 6.5 6.5 0 00.75-2.34M428.64-198.18l6.91 2.3a17.11 17.11 0 013.79 1.6 5.89 5.89 0 012.61 3.07c.21.64.36 1.43 1 1.65a1.17 1.17 0 001.38-.85 2.59 2.59 0 00-.23-1.76c-1.2-2.88-4-4.82-6.86-6s-6-1.85-8.86-3.06a24.28 24.28 0 01-7.73-5.17c-1-1-2.17-1.21-2.06.57.28 4.69 6.4 6.47 10.06 7.68M469.15-205.55c-.74-.95-1.71-.22-1.76 1.1a4.25 4.25 0 002.08 3.35c1.11.79 2.41 1.33 3.44 2.23a8.35 8.35 0 011.41 1.44c.5.73.77 3.06 2.11 1.75.95-.92.45-3.08-.19-4a9.42 9.42 0 00-3.23-2.51c-1.27-.72-2.95-1.65-3.63-3a2.73 2.73 0 00-.23-.38M473.49-188.5a5.39 5.39 0 01-.76-.35 5.51 5.51 0 01-2.5-2.7c-.08-.22-.25-.51-.48-.44s-.21.35-.17.56a7 7 0 00.55 2.41 7.93 7.93 0 001.75 2 4.78 4.78 0 011.35 1.62 12.43 12.43 0 00.68 2.06 2.25 2.25 0 00.92.72 2.7 2.7 0 003.44-1.51c1.16-3.17-2.52-3.51-4.78-4.36M416.59-223.95a3.74 3.74 0 00-1.45.23 1.56 1.56 0 00-1 1.06 1.72 1.72 0 001 1.75 8.7 8.7 0 002.07.63 7.91 7.91 0 013.06 1.61c.39.33.88.73 1.34.53a1.11 1.11 0 00.53-1 4 4 0 00-.52-2.14 5.57 5.57 0 00-5.06-2.64" transform="translate(-301.59 323)" class="colorfff svgShape"></path></g><path fill="#24b2c0" d="M453-246.72a25.61 25.61 0 003.38 4.27c1.38 1.2 3.4 1.89 5 1.11a3.77 3.77 0 002-2.75 5.09 5.09 0 00-1.82-4.65 5.14 5.14 0 00-5.81.2.91.91 0 01-.4.21.77.77 0 01-.51-.17c-.87-.54-2.83-2.35-3.93-2-1.48.51 1.63 3.2 2 3.75M466.53-239.63a.52.52 0 000 .42.48.48 0 00.35.2c1 .23 1.91.35 2.84.61a10.45 10.45 0 014.7 2.76 5.1 5.1 0 011.61 3.11 2.54 2.54 0 01-1.87 2.69c-.18.6.39 1.15.91 1.49A16.87 16.87 0 00477.7-227c1 .41 2.42.62 3.06-.29a1.85 1.85 0 00-.32-2.25 5.43 5.43 0 00-2.13-1.21 4.71 4.71 0 00.14-5.81 6.45 6.45 0 00-5.55-2.39 1.94 1.94 0 01-1.22-.15c-.77-.5-.4-1.67-.45-2.42-.08-1.34-1.09-3.38-2.7-2.33-1.27.84-1.46 2.9-2 4.19" transform="translate(-301.59 323)" class="color27debf svgShape"></path><path fill="#24b2c0" d="M465.64-236.32a1.09 1.09 0 00-1 .39c-.24.42.11.92.47 1.24a7.27 7.27 0 001.63 1.12 7.55 7.55 0 003.85.79 1.06 1.06 0 00.49-.11c1.2-.65-.21-2.63-1-3a13.69 13.69 0 00-4.38-.48M476.55-219.9a.94.94 0 00-.74.12.64.64 0 00-.06.77c.31.54.82 1 1.14 1.54a4.38 4.38 0 01.64 2.25 3.63 3.63 0 00.19 1.86c.17.29.45.51.61.81s.13.39.23.57a.57.57 0 00.46.35c.32 0 .5-.37.58-.69a20.52 20.52 0 01.78-3.51c.58-1.2 1.66-1.54 2.79-2a32.73 32.73 0 014.06-.93 1.34 1.34 0 00.53-.21.54.54 0 00.24-.49c-.07-.65-1.38-.5-1.79-.44a33.27 33.27 0 01-9.66 0M483.19-211.66c0-1.85 2.56-3.16 4.16-3.16a6.25 6.25 0 013.42 1.12c1.29.84 1.76 3 1.43 4.38a2.26 2.26 0 01-.62 1.17 1.17 1.17 0 01-1.25.23 2.15 2.15 0 01-.62-.62 6.65 6.65 0 00-4.92-2.46c-.62 0-1.41-.07-1.6-.66M486.22-207.29a6 6 0 00-3-.42 1.9 1.9 0 00-1.08.39.84.84 0 00-.19 1.06 1.45 1.45 0 00.45.33 17.34 17.34 0 012.37 1.52 1.86 1.86 0 01.68.74 5.16 5.16 0 00.27.95 1.53 1.53 0 001.15.53 1.6 1.6 0 00.87 0 1.3 1.3 0 00.63-1 3.61 3.61 0 00-.68-3 3.64 3.64 0 00-2.79-1.33M464.45-230.81a.53.53 0 00-.48.07.36.36 0 000 .46 1.07 1.07 0 00.41.28 17.15 17.15 0 013.27 1.76 4.77 4.77 0 011.94 3.06c0 .31 0 .67.31.84a.63.63 0 00.81-.24 1.79 1.79 0 00.24-.89c.13-1.43.48-3.63-1.19-4.29a11.27 11.27 0 00-1.93-.32c-1.13-.23-2.25-.52-3.39-.73M437.45-248.84c-.39.25-.84.59-.82 1.06a1 1 0 00.82.82 3 3 0 001.23-.11c2.76-.58 5.95-.32 7.89 1.71a6.24 6.24 0 001.13 1.11c1.22.79 2.82.65 4.16 1a1.25 1.25 0 00-.2-.79c-2.49-4.81-9.39-7.88-14.21-4.8M487.73-198.81c-.3.05-.65.18-.72.48s.16.53.36.73l.91.92a3.86 3.86 0 01.58.69 6.66 6.66 0 01.55 2.19c0 .23.17.5.4.51a.5.5 0 00.34-.15 3.52 3.52 0 00.8-2.72c0-2.12-1.16-3-3.22-2.65" transform="translate(-301.59 323)" class="color27debf svgShape"></path><path fill="#fafafa" d="M442.34-216.4a1 1 0 01-1 1 1 1 0 01-1-1 1 1 0 011-1 1 1 0 011 1M435.32-235.79a1 1 0 01-1 1 1 1 0 01-1-1 1 1 0 011-1 1 1 0 011 1M427-225a1 1 0 01-1 1 1 1 0 01-1-1 1 1 0 011-1 1 1 0 011 1M417.17-219.49a1 1 0 01-1 1 1 1 0 01-1-1 1 1 0 011-1 1 1 0 011 1M438.35-209.94a1 1 0 01-1 1 1 1 0 01-1-1 1 1 0 011-1 1 1 0 011 1M423-207.74a1 1 0 01-1 1 1 1 0 01-1-1 1 1 0 011-1 1 1 0 011 1M461.61-207a1 1 0 01-1 1 1 1 0 01-1-1 1 1 0 011-1 1 1 0 011 1M454.3-187.23a1 1 0 01-1 1 1 1 0 01-1-1 1 1 0 011-1 1 1 0 011 1M463.08-217.35a1 1 0 01-1 1 1 1 0 01-1-1 1 1 0 011-1 1 1 0 011 1" transform="translate(-301.59 323)" class="colorfafafa svgShape"></path><path fill="#f0f0f0" d="M463-237.81a1 1 0 01-1 1 1 1 0 01-1-1 1 1 0 011-1 1 1 0 011 1M481.52-224.26a1 1 0 01-1 1 1 1 0 01-1-1 1 1 0 011-1 1 1 0 011 1M484.26-209.34a1 1 0 01-1 1 1 1 0 01-1-1 1 1 0 011-1 1 1 0 011 1M450.82-248.62a1 1 0 01-1 1 1 1 0 01-1-1 1 1 0 011-1 1 1 0 011 1" transform="translate(-301.59 323)" class="colorf0f0f0 svgShape"></path><path fill="#fafafa" d="M451.55-233.3a1 1 0 01-1 1 1 1 0 01-1-1 1 1 0 011-1 1 1 0 011 1M452.88-201.44a1 1 0 01-1 1 1 1 0 01-1-1 1 1 0 011-1 1 1 0 011 1M473.56-197.09a1 1 0 01-1 1 1 1 0 01-1-1 1 1 0 011-1 1 1 0 011 1M425.53-198.17a1 1 0 01-1 1 1 1 0 01-1-1 1 1 0 011-1 1 1 0 011 1M442.34-190.86a1 1 0 01-1 1 1 1 0 01-1-1 1 1 0 011-1 1 1 0 011 1M469.71-187.5a1 1 0 01-1 1 1 1 0 01-1-1 1 1 0 011-1 1 1 0 011 1" transform="translate(-301.59 323)" class="colorfafafa svgShape"></path></g><polygon fill="#24b2c0" points="197.4 187.19 191.7 187.58 191.51 187.84 196.39 197.45 201.81 196.55 197.4 187.19" class="color27debf svgShape"></polygon><g clip-path="url(#a)" fill="#000000" class="color000 svgShape"><g clip-path="url(#aa)" opacity=".3" fill="#000000" class="color000 svgShape"><polygon points="197.4 187.19 191.7 187.58 191.51 187.84 196.39 197.45 201.81 196.55 197.4 187.19" fill="#000000" class="color000 svgShape"></polygon></g></g><polygon fill="#24b2c0" points="197.59 186.93 191.7 187.58 196.58 197.19 202 196.29 197.59 186.93" class="color27debf svgShape"></polygon><polygon fill="#f0f0f0" points="197.55 187.84 192.61 188.39 196.69 196.25 201.23 195.5 197.55 187.84" class="colorf0f0f0 svgShape"></polygon><g clip-path="url(#a)" fill="#000000" class="color000 svgShape"><g clip-path="url(#ab)" opacity=".15" fill="#000000" class="color000 svgShape"><path d="M498.17-134.77l-.2-.4c-.11-.22-.57-.35-1-.31l-.87.09c-.45,0-.73.27-.62.48l.2.4Z" transform="translate(-301.59 323)" fill="#000000" class="color000 svgShape"></path></g><path fill="#37474f" d="M497.7-136.18a.48.48,0,0,0-.46-.2l-.34,0a1.54,1.54,0,0,0-1.24-.83c-.8,0-.36,1-.36,1l-.36.06c-.2,0-.31.16-.25.29l.11.24,3-.33-.13-.26" transform="translate(-301.59 323)" class="color37474f svgShape"></path><path fill="#263238" d="M497.44-135.89c-.28,0-.39,0-.22.38s.37.67.37.67l-1.35.16-.34-.68a.46.46,0,0,0-.45-.3l-.13-.16,2.13-.2Z" transform="translate(-301.59 323)" class="color263238 svgShape"></path><path fill="#37474f" d="M498.25-134.72s-.09-.18-.21-.39-.57-.36-1-.31l-.87.09c-.46,0-.74.26-.63.48l.21.39Z" transform="translate(-301.59 323)" class="color37474f svgShape"></path><path fill="#f28f8f" d="M501.13-131.45s.15-.88-.11-1.18-1.34-.26-1.87-.49-.48.4-.2.6c.6.45,1.81.66,2.18,1.07" transform="translate(-301.59 323)" class="colorf28f8f svgShape"></path><path fill="#e0e0e0" d="M510.12-142.92c.87,0,1.68.69,2.56,2.89s2.71,7,2.42,7.85c-.2.57-6.73,2.28-6.73,2.28l-.94-2,4.33-1.94-2.46-5.67Z" transform="translate(-301.59 323)" class="colore0e0e0 svgShape"></path><path fill="#24b2c0" d="M504.45-95.29s.19.6.3,1.13a2.94,2.94,0,0,1,.06,1.43c-.15.32-.72.52-1.6.51a5.26,5.26,0,0,0-2.08.73,5.52,5.52,0,0,1-2.62.41,2.5,2.5,0,0,1-1.73-.87c-.13-.33-.24-.78,1.9-1.46a10.52,10.52,0,0,0,3.48-1.83Z" transform="translate(-301.59 323)" class="color27debf svgShape"></path><g clip-path="url(#ac)" opacity=".4" fill="#000000" class="color000 svgShape"><path d="M504.45-95.29s.19.6.3,1.13a2.94,2.94,0,0,1,.06,1.43c-.15.32-.72.52-1.6.51a5.26,5.26,0,0,0-2.08.73,5.52,5.52,0,0,1-2.62.41,2.5,2.5,0,0,1-1.73-.87c-.13-.33-.24-.78,1.9-1.46a10.52,10.52,0,0,0,3.48-1.83Z" transform="translate(-301.59 323)" fill="#000000" class="color000 svgShape"></path></g><path fill="#ffa8a7" d="M504.45-95.23l-.41,0-1.88,0a10.52,10.52,0,0,1-3.48,1.83l-.34.11c-.37.3-.06.81.82.89a14.7,14.7,0,0,0,4.23-1.14,1.8,1.8,0,0,0,1.06-1.68" transform="translate(-301.59 323)" class="colorffa8a7 svgShape"></path><path fill="#ffa8a7" d="M504.45-96s0,.52,0,.81-.35.73-1.25.7c-.63,0-1.07-.19-1-.71V-96Z" transform="translate(-301.59 323)" class="colorffa8a7 svgShape"></path><path fill="#24b2c0" d="M510.47-98.66c.16.06.19.38.2,1s.09,1.29-.47,1.44a1.71,1.71,0,0,1-1.69-.41,21.38,21.38,0,0,0-1.31-1.74,4.67,4.67,0,0,1-1.29-2c-.18-.74,0-1.06.5-1.26s1,0,1.67.55a3.68,3.68,0,0,0,.63.34c.46.14,1.6,2,1.76,2.07" transform="translate(-301.59 323)" class="color27debf svgShape"></path><g clip-path="url(#ad)" opacity=".4" fill="#000000" class="color000 svgShape"><path d="M510.47-98.66c.16.06.19.38.2,1s.09,1.29-.47,1.44a1.71,1.71,0,0,1-1.69-.41,21.38,21.38,0,0,0-1.31-1.74,4.67,4.67,0,0,1-1.29-2c-.18-.74,0-1.06.5-1.26s1,0,1.67.55a3.68,3.68,0,0,0,.63.34c.46.14,1.6,2,1.76,2.07" transform="translate(-301.59 323)" fill="#000000" class="color000 svgShape"></path></g><path fill="#ffa8a7" d="M510.49-99.23l0,.75s-.5,1-1.91,0c0-.07-.16-1.54-.16-1.54Z" transform="translate(-301.59 323)" class="colorffa8a7 svgShape"></path><path fill="#ffa8a7" d="M508.71-100.73a3.68,3.68,0,0,1-.63-.34c-.57-.18-1.76,0-1.22.86a6.18,6.18,0,0,0,1.69,1.73c.63.32.86-.07.86-.07l-.23-1.78a1.26,1.26,0,0,0-.47-.4" transform="translate(-301.59 323)" class="colorffa8a7 svgShape"></path><path fill="#24b2c0" d="M511.52-109.73a17.38,17.38,0,0,0-.83-3.92s.48-3.35.86-6.57c.88-7.54.29-7.66-.77-10.28,0,0-9.67-1.24-10.08,2.78a163.5,163.5,0,0,0-.19,16.49,62.42,62.42,0,0,0,.76,6.3c.4,2.83.78,9,.78,9a2.44,2.44,0,0,0,2.49-.13s1.21-7.61,1.18-9.66a17.33,17.33,0,0,0-.65-4.48s.82-8.16,1-9.46c0,0,.23,2.6.32,4.38s.56,3.48,1,6.79c.36,2.87,1,8.85,1,8.85a2.69,2.69,0,0,0,2.15.4s1.26-8,1-10.51" transform="translate(-301.59 323)" class="color27debf svgShape"></path><g clip-path="url(#ae)" opacity=".1" fill="#000000" class="color000 svgShape"><path d="M506.1-119.64l.52-3.36a7.41,7.41,0,0,0,3-1,4,4,0,0,1-2.4,1.4l-.53,3.9-.22,4.08Z" transform="translate(-301.59 323)" fill="#000000" class="color000 svgShape"></path></g><polygon fill="#ffa8a7" points="203.04 178.19 203.39 181.95 206.69 181.74 206.43 177.57 203.04 178.19" class="colorffa8a7 svgShape"></polygon><path fill="#f0f0f0" d="M511.25-141.59a2.31,2.31,0,0,0-2.53-1.59l-.56,0c-.1.55-1.73,1-3.34.43-.22.06-.84.17-1.19.22l-.77.11c-1.17.39-1.69,2.42-1.8,5.64s-.6,10.11-.6,10.11a11.47,11.47,0,0,0,6.49.82,7.76,7.76,0,0,0,4.81-2.3,24.62,24.62,0,0,0-1.83-5.16c1.87-4.59,1.82-6.82,1.32-8.3" transform="translate(-301.59 323)" class="color455a64 svgShape"></path><path fill="#37474f" d="M505-125.71a12.45,12.45,0,0,0,2-.12,7.75,7.75,0,0,0,4.81-2.31,25,25,0,0,0-1.83-5.15,21.12,21.12,0,0,0,1.55-5.36c-.15,1-1.58,4.7-3.44,5.82a3.3,3.3,0,0,1,1.95,1.4c.9,1.23.16,5.46-5,5.72" transform="translate(-301.59 323)" class="color37474f svgShape"></path><path fill="#263238" d="M502.9-149.48a2.55,2.55,0,0,1-.27-2.93c1.15-1.71,3.18-2.29,5.69-1.54a5.07,5.07,0,0,1,3.16,4.49c.07,1.86-5.13,3.08-5.05,4.35Z" transform="translate(-301.59 323)" class="color263238 svgShape"></path><path fill="#f28f8f" d="M502.18-148.94s-.73,1.11-.64,1.23a2,2,0,0,0,.56.24Z" transform="translate(-301.59 323)" class="colorf28f8f svgShape"></path><path fill="#ffa8a7" d="M504.41-152.44c-.71.37-1.94,1.05-2.25,3.67s.27,3.62.64,4a3.49,3.49,0,0,0,2.19.12,6.94,6.94,0,0,0,3.48-2.54c1-1.63,1.2-3.81,0-4.66a4.3,4.3,0,0,0-4.11-.56" transform="translate(-301.59 323)" class="colorffa8a7 svgShape"></path><path fill="#263238" d="M504.2-152.32a7.19,7.19,0,0,0,.12,4s.44-1,1.26-.69.75,1.38.1,1.95a1.23,1.23,0,0,1-1.28.27,2.22,2.22,0,0,0,1.18,1.89,4.05,4.05,0,0,0,4.62-1.18c2-2.12,1.73-5.93-1.2-6.9a5,5,0,0,0-4.8.66" transform="translate(-301.59 323)" class="color263238 svgShape"></path><path fill="#263238" d="M513.11-152.21a2.57 2.57 0 01-2.58 2.58 2.57 2.57 0 01-2.58-2.58 2.58 2.58 0 012.58-2.58 2.58 2.58 0 012.58 2.58M502.32-153.43a3.19 3.19 0 002 5.11l2.06-5.68a3.49 3.49 0 00-4.07.57" transform="translate(-301.59 323)" class="color263238 svgShape"></path><path fill="#263238" d="M504-147.45a.62.62,0,0,1-.38-.8.63.63,0,0,1,.8-.37Z" transform="translate(-301.59 323)" class="color263238 svgShape"></path><path fill="#ffa8a7" d="M503.1-142.43a8.37,8.37,0,0,0-2.46.44c-1.93.52-6.5,1.57-6.5,1.57s-5.36-2.58-5.6-2.87-.1-.85,0-1.16.17-1,.24-1.2c.13-.34-.38-.25-.68.07s-.43.94-.57,1.05-1.28-1.2-1.83-1.82-.8-1.07-1.17-.81-.1.56.3,1.1a4.75,4.75,0,0,1,.5.71c0,.09-.09.17-.15.22s-.3.25-.31.4a1.85,1.85,0,0,1,0,.24c-.06.18-.28.27-.34.44s0,.27,0,.4-.06.16-.08.25a.59.59,0,0,0,.18.46A4.38,4.38,0,0,0,486-142c.42.23.85.34,1.34.55s6.07,4.2,7.08,4.11,8.08-1.34,8.08-1.34c1.82-1.24.63-3.72.63-3.72" transform="translate(-301.59 323)" class="colorffa8a7 svgShape"></path><path fill="#f5f5f5" d="M508.72-143.18a3.68,3.68,0,0,1,1.64.29c.76.36,1.24,1.22,1.28,3.13s-1.46,6.58-1.46,6.58a40,40,0,0,1,1.91,5.47,43.39,43.39,0,0,1-.11,6.64s-3.16,2.58-9.46,1.46c-.12,0-.23-5.91-.35-5.94s-.25,5.82-.36,5.8c-.6-.13-1.21-.29-1.86-.49,0,0,.14-4.89.16-7s.17-10.19.87-12.26a8.32,8.32,0,0,1,1.69-3H504Z" transform="translate(-301.59 323)" class="colorf5f5f5 svgShape"></path><path fill="#e0e0e0" d="M503.59-142.55c-2.76-.21-6.25 1.31-9.45 2.13l-4.43-2.2s-1.38 1.49-.58 2.55c0 0 4.1 2.94 5.07 3.14s8.2-1.27 8.2-1.27a2.67 2.67 0 001.61-2.23c.21-1.74-.42-2.12-.42-2.12M504.73-143.71a.37.37 0 00-.3.22c-.11.21-.42.92-.42.92a2.75 2.75 0 002.54.76 2.43 2.43 0 002.17-1.37s-.19-1-.62-1v.2s-.18.39-1.23.53a3.13 3.13 0 01-2.14-.28" transform="translate(-301.59 323)" class="colore0e0e0 svgShape"></path><path fill="#f0f0f0" d="M504.63-132.88s3.1.78,5-.35c.28.26.26.56,0,1a6.91,6.91,0,0,1-5,.3.76.76,0,0,1,0-1" transform="translate(-301.59 323)" class="colorf0f0f0 svgShape"></path><path fill="#e0e0e0" d="M505.2-132.32a.28.28 0 01-.28.28.28.28 0 01-.28-.28.29.29 0 01.28-.28.29.29 0 01.28.28M509.65-132.6a.27.27 0 01-.28.28.27.27 0 01-.27-.28.27.27 0 01.27-.27.27.27 0 01.28.27" transform="translate(-301.59 323)" class="colore0e0e0 svgShape"></path></g><g clip-path="url(#a)" fill="#000000" class="color000 svgShape"><path fill="#24b2c0" d="M391.35-103c-.16.07-.19.37-.2,1s-.09,1.27.45,1.42a1.69,1.69,0,0,0,1.67-.39c.42-.55.71-1,1.31-1.71a4.77,4.77,0,0,0,1.29-2c.17-.73,0-1-.5-1.25-.69-.27-1.74.7-2.27.87s-1.59,2-1.75,2" transform="translate(-301.59 323)" class="color27debf svgShape"></path><g clip-path="url(#af)" opacity=".4" fill="#000000" class="color000 svgShape"><path d="M391.34-103c-.16.07-.2.37-.21,1s-.08,1.27.46,1.42a1.7,1.7,0,0,0,1.67-.39c.42-.55.7-1,1.3-1.72a4.57,4.57,0,0,0,1.29-1.94c.18-.73,0-1-.49-1.25-.69-.27-1.74.7-2.28.86s-1.58,2-1.74,2" transform="translate(-301.59 323)" fill="#000000" class="color000 svgShape"></path></g><path fill="#ffa8a7" d="M391.34-103.58l0,.75a1.83,1.83,0,0,0,1.89,0c0-.08.17-1.08.17-1.08Z" transform="translate(-301.59 323)" class="colorffa8a7 svgShape"></path><path fill="#24b2c0" d="M397.51-98.84a12.45,12.45,0,0,0-.3,1.23,3.27,3.27,0,0,0,0,1.55c.17.34.79.54,1.75.51a5.55,5.55,0,0,1,2.27.74,5.78,5.78,0,0,0,2.84.38,2.68,2.68,0,0,0,1.85-1c.13-.35-.06-.72-2.09-1.53,0,0-2.82-.84-3.81-1.89Z" transform="translate(-301.59 323)" class="color27debf svgShape"></path><g clip-path="url(#ag)" opacity=".4" fill="#000000" class="color000 svgShape"><path d="M397.51-98.84a12.45,12.45,0,0,0-.3,1.23,3.27,3.27,0,0,0,0,1.55c.17.34.79.54,1.75.51a5.55,5.55,0,0,1,2.27.74,5.78,5.78,0,0,0,2.84.38,2.68,2.68,0,0,0,1.85-1c.13-.35-.06-.72-2.09-1.53,0,0-2.82-.84-3.81-1.89Z" transform="translate(-301.59 323)" fill="#000000" class="color000 svgShape"></path></g><path fill="#ffa8a7" d="M397.49-99.65s0,.56,0,.87.39.79,1.36.73c.69,0,1.16-.23,1.12-.79l0-.81Z" transform="translate(-301.59 323)" class="colorffa8a7 svgShape"></path><path fill="#24b2c0" d="M390.63-113.51c.29-2.45.44-4,.44-4s-.35-3-.55-6.14a49,49,0,0,1,.11-9s11.07-2.5,11.35,1.48-.12,14.13-.21,15.88-.36,3.3-.66,6.15S400-99.65,400-99.65a2.64,2.64,0,0,1-2.48,0s-1-7.94-.92-10a17,17,0,0,1,.67-4.43s-.29-3.28-.54-6.13-.48-4.22-.55-5.46l-.24-.11s-.13,4.93-.23,6.68-.33,3.44-.76,6.7c-.38,2.83-1.55,8.82-1.55,8.82a1.67,1.67,0,0,1-2,0s-1-7.47-.71-9.93" transform="translate(-301.59 323)" class="color27debf svgShape"></path><g clip-path="url(#ah)" opacity=".1" fill="#000000" class="color000 svgShape"><path d="M396.15-125.63a23,23,0,0,1-4.1-2.44,8.94,8.94,0,0,0,2.95,2.49s.73,6.1.72,6l.2-6Z" transform="translate(-301.59 323)" fill="#000000" class="color000 svgShape"></path></g><polygon fill="#ffa8a7" points="96.45 174.67 95.88 178.3 92.6 178.14 92.98 173.88 96.45 174.67" class="colorffa8a7 svgShape"></polygon><path fill="#e0e0e0" d="M393.51-146.94s-2.27-.58-3.25,1.05-.06,5.15-.06,5.15Z" transform="translate(-301.59 323)" class="colore0e0e0 svgShape"></path><path fill="#f5f5f5" d="M390.33-144.7c.3-1,1.93-2.44,3.18-2.24l.85.15c.15.61,1.72,1.08,3.33.7.48.13.92.26,1.32.4,1.16.38,2.22,1.34,2.4,5.11,0,0,1,11.13,1,16.75a10.65,10.65,0,0,1-2,.62c-.08,0-.37-6.83-.44-6.81s0,6.89-.11,6.91a18.35,18.35,0,0,1-5.4,0,10.65,10.65,0,0,1-4.46-1.69,105.47,105.47,0,0,1,.51-10.71c-.23-2.43-.28-4-.39-4.9a9.47,9.47,0,0,1,.22-4.27" transform="translate(-301.59 323)" class="colorf5f5f5 svgShape"></path><path fill="#f0f0f0" d="M396-134.48s-3.18.29-4.88-1.12c-.33.21-.35.51-.15,1a7,7,0,0,0,4.88,1.07.76.76,0,0,0,.15-1" transform="translate(-301.59 323)" class="colorf0f0f0 svgShape"></path><path fill="#e0e0e0" d="M395.38-134a.27.27 0 00.23.31.27.27 0 00.32-.23.29.29 0 00-.23-.32.28.28 0 00-.32.24M391-135a.27.27 0 00.23.32.27.27 0 00.31-.23.27.27 0 00-.23-.32.27.27 0 00-.31.23M397.87-147.23s.15-.05.27.17a9.3 9.3 0 01.3 1.19 2.81 2.81 0 01-2.47.57 2.44 2.44 0 01-2.17-1.51s.22-1.05.65-1l0 .37s.17.39 1.23.53a3.37 3.37 0 002.22-.31" transform="translate(-301.59 323)" class="colore0e0e0 svgShape"></path><polygon fill="#24b2c0" points="106.82 171.96 113.64 175.52 110.25 184.79 103.89 181.22 106.82 171.96" class="color27debf svgShape"></polygon><g clip-path="url(#ai)" opacity=".3" fill="#000000" class="color000 svgShape"><polygon points="106.82 171.96 113.64 175.52 110.25 184.79 103.89 181.22 106.82 171.96" fill="#000000" class="color000 svgShape"></polygon></g><polygon fill="#24b2c0" points="106.53 171.81 113.35 175.37 109.96 184.64 103.59 181.08 106.53 171.81" class="color27debf svgShape"></polygon><polygon fill="#f5f5f5" points="106.92 172.75 112.64 175.74 109.64 183.71 104.3 180.71 106.92 172.75" class="colorf5f5f5 svgShape"></polygon><g clip-path="url(#aj)" opacity=".15" fill="#000000" class="color000 svgShape"><path d="M409.93-149.27l.11-.29c.06-.15.54-.06,1.07.21l1,.52c.53.28.91.62.85.78l-.11.28Z" transform="translate(-301.59 323)" fill="#000000" class="color000 svgShape"></path></g><path fill="#37474f" d="M410-150.41c0-.09.25-.08.46,0l.4.21s.24-.61,1.15-.19.7,1.14.7,1.14l.42.23c.23.13.4.31.37.41l-.05.18L410-150.22l.07-.19" transform="translate(-301.59 323)" class="color37474f svgShape"></path><path fill="#263238" d="M410.42-150c.33.16.46.23.36.48a3.87,3.87,0,0,1-.21.47l1.56.81s.13-.35.19-.48.17-.2.41-.07l.1-.1-2.46-1.25Z" transform="translate(-301.59 323)" class="color263238 svgShape"></path><path fill="#37474f" d="M409.86-149.26l.12-.28c.06-.16.53-.06,1.06.21l1,.52c.52.27.9.62.84.77l-.11.29Z" transform="translate(-301.59 323)" class="color37474f svgShape"></path><path fill="#ffa8a7" d="M399.21-145.62c1.3.4,2.1.47,3.54,2.69s4.71,6.37,5,6.9a2.81,2.81,0,0,1,.14,2.53c-.35.63-1.19.26-2.63-1S401-139,401-139a23.53,23.53,0,0,1-1.77-6.57" transform="translate(-301.59 323)" class="colorffa8a7 svgShape"></path><path fill="#ffa8a7" d="M407.47-133.19c1.21-.14,3.81-3.8,4.62-5.05a8.81,8.81,0,0,1,2.44-2.57c1.28-.95,1.09-2.4.53-3.73-.19-.46-.84-.16-.84-.16l-.23.63-.4,1.09c-.27.26-.43.34-.45.26s.2-.73.2-1.34-.53-.25-.68,0a10.36,10.36,0,0,0-.54,1.21c-.26.66-.16,1.33-.47,1.78s-4.52,4.48-4.52,4.48Z" transform="translate(-301.59 323)" class="colorffa8a7 svgShape"></path><path fill="#e0e0e0" d="M399-145.69a6.52,6.52,0,0,1,2,.64c1,.52,1.38,1.4,2.88,3.35s3.44,4.6,3.44,4.6l3.5-3.07a2,2,0,0,0,1.6,1.46,21.41,21.41,0,0,1-3,4.49c-1.74,1.86-1.75,1.77-3.33.84s-5.21-5.38-5.21-5.38-3.63-2.85-1.84-6.93" transform="translate(-301.59 323)" class="colore0e0e0 svgShape"></path><path fill="#f28f8f" d="M400.47-152.79s.85,1.3.76,1.43-.73.24-.73.24Z" transform="translate(-301.59 323)" class="colorf28f8f svgShape"></path><path fill="#263238" d="M399-153a1,1,0,0,1,1-1,1,1,0,0,1,1,1,1,1,0,0,1-1,1,1,1,0,0,1-1-1m.23,0a.79.79,0,0,0,.79.8.8.8,0,0,0,.8-.8.8.8,0,0,0-.8-.8.79.79,0,0,0-.79.8" transform="translate(-301.59 323)" class="color263238 svgShape"></path><path fill="#ffa8a7" d="M398.08-156.4c1.74.37,2.24,1.13,2.4,3.89s-.12,3.79-.5,4.18a3.91,3.91,0,0,1-2.39.11,7,7,0,0,1-3.88-2.41c-1.12-1.71-1.41-4-.22-5a5.62,5.62,0,0,1,4.59-.8" transform="translate(-301.59 323)" class="colorffa8a7 svgShape"></path><polygon fill="#263238" points="99.4 169.81 96.31 170.21 96.44 170.42 99.4 170.04 99.4 169.81" class="color263238 svgShape"></polygon><path fill="#263238" d="M400.68-155.5l-.06.05c-.33.32-.76.52-1.11.82a2.61,2.61,0,0,0-.79,1.26c-.11.4-.16.87-.59,1.06,0,0-.28-1.07-1.18-.93s-1,1.28-.45,2,1.1.43,1.1.43a4.73,4.73,0,0,1-.71,2.39,4.69,4.69,0,0,1-2.18-.06,4.57,4.57,0,0,1-2.61-2.42c-1.1-2.43-1.17-4.62.38-5.28a2.32,2.32,0,0,1,2.06-1.85c1.5-.35,2.91.54,4.4.21.31-.07.61-.18.93-.22,0,0,.08,0,.11,0s.07.15,0,.23a1.91,1.91,0,0,1-.44.8,4.62,4.62,0,0,0,1.69-.21,2.19,2.19,0,0,1-.6,1.72" transform="translate(-301.59 323)" class="color263238 svgShape"></path><path fill="#263238" d="M392.45-155.81l-1-.62a.61.61 0 01.83-.21.6.6 0 01.21.83M398.15-151.7l0-1.21a.6.6 0 01.62.59.6.6 0 01-.58.62" transform="translate(-301.59 323)" class="color263238 svgShape"></path></g></g></svg></g></svg>