<svg id="SvgjsSvg1006" width="288" height="288" xmlns="http://www.w3.org/2000/svg" version="1.1" xmlns:xlink="http://www.w3.org/1999/xlink" xmlns:svgjs="http://svgjs.com/svgjs"><defs id="SvgjsDefs1007"></defs><g id="SvgjsG1008" transform="matrix(1,0,0,1,0,0)"><svg xmlns="http://www.w3.org/2000/svg" data-name="Layer 1" viewBox="0 0 301.58 301.58" width="288" height="288"><g data-name="Layer 2" fill="#000000" class="color000 svgShape"><circle cx="150.79" cy="150.79" r="150.79" fill="#ffffff" data-name="Layer 1-2" class="colorfff svgShape"></circle></g><g data-name="Layer 2-2" fill="#000000" class="color000 svgShape"><g data-name="layer 1-2-2" fill="#000000" class="color000 svgShape"><path fill="#24b2c0" d="M78.19,202H67.81a2,2,0,1,1-.27-3.9H78.19a2,2,0,0,1,0,3.9Z" class="color2b5185 svgShape"></path><path fill="#24b2c0" d="M73 207.18a2 2 0 01-1.89-2V194.85a1.95 1.95 0 013.89-.27h0a1.22 1.22 0 010 .27v10.38A2 2 0 0173 207.18zM114.48 230.51H104.1a1.94 1.94 0 110-3.88h10.38a1.94 1.94 0 01.26 3.88h-.26z" class="color2b5185 svgShape"></path><path fill="#24b2c0" d="M109.3 235.69a2 2 0 01-2-1.94V223.37a2 2 0 013.9-.26v10.63a2 2 0 01-1.94 2zM104.12 181.25H93.74a1.95 1.95 0 11-.27-3.89h10.64a1.95 1.95 0 11.25 3.89h-.24z" class="color2b5185 svgShape"></path><path fill="#24b2c0" d="M98.93 186.43a2 2 0 01-2-1.94V174.11a2 2 0 013.9 0v10.38A2 2 0 0198.93 186.43zM143 212.32H132.62a1.95 1.95 0 01-.26-3.89H143a1.95 1.95 0 01.27 3.89A1.13 1.13 0 01143 212.32z" class="color2b5185 svgShape"></path><path fill="#24b2c0" d="M137.82 217.55a2 2 0 01-1.94-2V205.22a1.94 1.94 0 113.88 0V215.6A2 2 0 01137.82 217.55zM213 225.32H202.65a1.94 1.94 0 11-.27-3.88H213a1.94 1.94 0 01.26 3.88z" class="color2b5185 svgShape"></path><path fill="#24b2c0" d="M207.84 230.51a1.92 1.92 0 01-1.88-1.93V218.2a1.94 1.94 0 013.88 0v10.38A2 2 0 01207.84 230.51zM231.19 196.8H220.81a1.95 1.95 0 010-3.89h10.38a1.95 1.95 0 010 3.89z" class="color2b5185 svgShape"></path><path fill="#24b2c0" d="M226.05,202a2,2,0,0,1-2-1.95h0V189.68a1.95,1.95,0,1,1,3.89-.27h0a1.22,1.22,0,0,1,0,.27v10.37A2,2,0,0,1,226.05,202Z" class="color2b5185 svgShape"></path><path fill="#ffffff" d="M152.75,67.85H130.69a62.87,62.87,0,0,0-62.85,62.84h0a19.24,19.24,0,0,0,19.23,19.24h5.41A12.42,12.42,0,0,1,103.89,157a36.66,36.66,0,0,0,33.5,21.7h0a11.61,11.61,0,0,1,10.83,7.36l15,37.92a15.2,15.2,0,0,0,14.37,9.65,9.7,9.7,0,0,0,9.49-9.65V195.51a11.94,11.94,0,0,1,12-11.87h0A34.77,34.77,0,0,0,233.72,149a81,81,0,0,0-80.84-81.15Z" class="colorfff svgShape"></path><path fill="#0bd1d2" d="M173.5,70.53a80.93,80.93,0,0,1,36.93,68.13,34.77,34.77,0,0,1-34.61,34.61,12,12,0,0,0-12.06,11.84v28.55a9.55,9.55,0,0,1-2.23,6.13l1.72,4.23a15.18,15.18,0,0,0,14.36,9.65A9.69,9.69,0,0,0,187.1,224V195.51a11.93,11.93,0,0,1,12-11.87h0A34.77,34.77,0,0,0,233.72,149,81,81,0,0,0,173.5,70.53Z" class="colora3d4ff svgShape"></path><path fill="#24b2c0" d="M177.4,235.69a17.3,17.3,0,0,1-16-10.89l-14.93-38a9.71,9.71,0,0,0-9.05-6.14,38.69,38.69,0,0,1-35.21-22.86,10.36,10.36,0,0,0-9.62-6h-5.5a21.22,21.22,0,0,1-21.18-21.19,64.81,64.81,0,0,1,64.81-64.8h22.07a83,83,0,0,1,83,82.93V149a36.8,36.8,0,0,1-36.54,36.56,10.09,10.09,0,0,0-10.13,9.93V224a11.63,11.63,0,0,1-11.41,11.63ZM130.69,69.76a61,61,0,0,0-60.93,60.93A17.31,17.31,0,0,0,87,148h5.44a14.3,14.3,0,0,1,13.21,8.24,34.85,34.85,0,0,0,31.73,20.56A13.5,13.5,0,0,1,150,185.42l15,37.94a13.41,13.41,0,0,0,12.51,8.43,7.78,7.78,0,0,0,7.55-7.78v-28.5a14,14,0,0,1,14.06-13.82A32.89,32.89,0,0,0,231.77,149a79.1,79.1,0,0,0-78.93-79.27H130.69Z" class="color2b5185 svgShape"></path><rect width="57.04" height="57.04" x="122.26" y="98.93" fill="#0bd1d2" rx="2.59" class="colora3d4ff svgShape"></rect><rect width="46.66" height="46.66" x="122.26" y="98.91" fill="#ffffff" rx="2.59" class="colorfff svgShape"></rect><path fill="#24b2c0" d="M176.71,157.91H124.87a4.53,4.53,0,0,1-4.54-4.53V101.54A4.53,4.53,0,0,1,124.87,97h51.84a4.53,4.53,0,0,1,4.53,4.53h0v51.84a4.52,4.52,0,0,1-4.52,4.53h0Zm-51.85-57a.66.66,0,0,0-.65.65V153.4a.66.66,0,0,0,.65.65H176.7a.66.66,0,0,0,.65-.65V101.56a.65.65,0,0,0-.65-.65H124.86Z" class="color2b5185 svgShape"></path><rect width="20.74" height="20.74" x="140.42" y="117.09" fill="#0bd1d2" class="colora3d4ff svgShape"></rect><path fill="#ffffff" d="M140.41,117.09h13V128.7a1.3,1.3,0,0,1-1.3,1.3H140.41Z" class="colorfff svgShape"></path><path fill="#24b2c0" d="M161.16 139.77H140.4a2 2 0 01-1.89-1.94V117.07a1.89 1.89 0 011.83-1.95h20.82a1.89 1.89 0 011.93 1.84V117h0v20.76a1.94 1.94 0 01-1.89 2zm-18.77-3.88h16.84V119H142.36zM214.3 129.39h-35a1.95 1.95 0 010-3.89h35a1.95 1.95 0 01.26 3.89h-.26z" class="color2b5185 svgShape"></path><path fill="#24b2c0" d="M214.09 131.52a4.1 4.1 0 10-4.09-4.09h0a4.06 4.06 0 004.06 4.06h0zM205.23 156.65a2 2 0 01-1.94-1.94V145h-24a1.95 1.95 0 010-3.89h25.92a1.89 1.89 0 011.94 1.83.13.13 0 010 .06h0v11.73A2 2 0 01205.23 156.65z" class="color2b5185 svgShape"></path><circle cx="205.23" cy="154.47" r="4.1" fill="#24b2c0" class="color2b5185 svgShape"></circle><path fill="#24b2c0" d="M197.45,113.81H179.29a1.95,1.95,0,0,1,0-3.89h16.2V100.2a1.95,1.95,0,0,1,3.89,0v11.62a1.88,1.88,0,0,1-1.82,2h-.07Z" class="color2b5185 svgShape"></path><circle cx="197.45" cy="100.41" r="4.1" fill="#24b2c0" class="color2b5185 svgShape"></circle><path fill="#24b2c0" d="M122.26,126.83H84.67a1.95,1.95,0,0,1-.27-3.89h37.86a1.95,1.95,0,1,1,0,3.89Z" class="color2b5185 svgShape"></path><path fill="#24b2c0" d="M84.88 120.79A4.11 4.11 0 1089 124.91h0a4.08 4.08 0 00-4-4.12h-.05zM122.26 111.23H96.35a1.89 1.89 0 01-1.95-1.82v-.07h0V97.61a1.94 1.94 0 113.88-.26 1.13 1.13 0 010 .26v9.75h24a1.94 1.94 0 010 3.88z" class="color2b5185 svgShape"></path><circle cx="96.34" cy="97.83" r="4.1" fill="#24b2c0" class="color2b5185 svgShape"></circle><path fill="#24b2c0" d="M122.26,142.36H108a1.94,1.94,0,0,1,0-3.88h14.29a1.94,1.94,0,0,1,0,3.88Z" class="color2b5185 svgShape"></path><circle cx="108.21" cy="140.42" r="4.1" fill="#24b2c0" class="color2b5185 svgShape"></circle><path fill="#24b2c0" d="M150.78,100.72a2,2,0,0,1-1.94-1.94V79.46a2,2,0,0,1,3.91,0h0V98.78A2,2,0,0,1,150.78,100.72Z" class="color2b5185 svgShape"></path><path fill="#24b2c0" d="M151 98.78a.16.16 0 01-.16.15.15.15 0 01-.15-.15h0a.16.16 0 01.16-.16A.15.15 0 01151 98.78zM154.88 79.67a4.11 4.11 0 10-4.11 4.1h0a4.11 4.11 0 004.11-4.1zM166.34 100.86a2 2 0 01-2-2h0V86a2 2 0 011.95-1.89h14.3a1.95 1.95 0 01.27 3.89h-12.6v11A2 2 0 01166.34 100.86z" class="color2b5185 svgShape"></path><circle cx="180.4" cy="85.95" r="4.1" fill="#24b2c0" class="color2b5185 svgShape"></circle><path fill="#24b2c0" d="M135.23,100.86a2,2,0,0,1-2-2V82.7H121a1.95,1.95,0,0,1-.27-3.89h0a1.22,1.22,0,0,1,.27,0h14.22a2,2,0,0,1,1.94,2V98.9A2,2,0,0,1,135.23,100.86Z" class="color2b5185 svgShape"></path><circle cx="121.18" cy="80.77" r="4.1" fill="#24b2c0" class="color2b5185 svgShape"></circle><path fill="#24b2c0" d="M150.78,172.18a2,2,0,0,1-1.94-2v-14.3a1.95,1.95,0,0,1,3.89-.26h0v14.56A2,2,0,0,1,150.78,172.18Z" class="color2b5185 svgShape"></path><circle cx="150.79" cy="170.02" r="4.1" fill="#24b2c0" class="color2b5185 svgShape"></circle><path fill="#24b2c0" d="M135.23,169.59a2,2,0,0,1-2-2V156a2,2,0,0,1,3.9,0v11.66A2,2,0,0,1,135.23,169.59Z" class="color2b5185 svgShape"></path><path fill="#24b2c0" d="M131.17 167.43a4.1 4.1 0 104.09-4.1A4.08 4.08 0 00131.17 167.43zM183.19 176.07H166.34a2 2 0 01-2-1.95V156a2 2 0 013.9 0v16.21h14.9a1.95 1.95 0 11.26 3.89z" class="color2b5185 svgShape"></path><circle cx="182.99" cy="174.12" r="4.1" fill="#24b2c0" class="color2b5185 svgShape"></circle></g></g></svg></g></svg>