<svg xmlns="http://www.w3.org/2000/svg" xmlns:xlink="http://www.w3.org/1999/xlink" viewBox="0 0 288 288" xmlns:v="https://vecta.io/nano"><style><![CDATA[.B{fill:none}.C{fill:#24b2c0}.D{opacity:.3}.E{fill:#ffa8a7}.F{clip-path:url(#A)}.G{fill:#fff}.H{fill:#263238}.I{fill:#f0f0f0}.J{fill:#37474f}.K{opacity:.2}.L{fill:#f28f8f}.M{fill:#e0e0e0}.N{fill:#f5f5f5}.O{clip-path:url(#E)}.P{stroke-linecap:round}.Q{stroke-linejoin:round}.R{stroke-width:.468}.S{clip-path:url(#G)}]]></style><defs><clipPath id="A"><path d="M26.86 26.86h234.28v234.28H26.86z" class="B"/></clipPath><clipPath id="B"><path d="M33.65 115.63H251.6v126.39H33.65z" class="B"/></clipPath><clipPath id="C"><path d="M181.8 209.63h24.51v14.15H181.8z" class="B"/></clipPath><clipPath id="D"><path d="M79.71 206.33h24.51v14.15H79.71z" class="B"/></clipPath><clipPath id="E"><path d="M40.5 56.53h60.81v79.8H40.5z" class="B"/></clipPath><clipPath ><path d="M47.44 80.45h46.93v46.78H47.44z" class="B"/></clipPath><clipPath id="G"><path d="M186.56 56.53h60.81v79.8h-60.81z" class="B"/></clipPath><clipPath id="H"><path d="M190.55 89.17h53.3v41.21h-53.3z" class="B"/></clipPath><clipPath id="I"><path d="M193.73 85.66h5.55v4.29h-5.55z" class="B"/></clipPath><clipPath id="J"><path d="M202.13 91.89h5.55v4.29h-5.55z" class="B"/></clipPath><clipPath id="K"><path d="M215.67 84.26h5.55v4.29h-5.55z" class="B"/></clipPath><clipPath id="L"><path d="M226.71 84.04h5.55v4.29h-5.55z" class="B"/></clipPath><clipPath id="M"><path d="M75.13 122.87h137.74v79.45H75.13z" class="B"/></clipPath><clipPath id="N"><path d="M75.13 145.08h68.86v51.9H75.13z" class="B"/></clipPath><clipPath id="O"><path d="M143.99 145.08h68.88v51.9h-68.88z" class="B"/></clipPath><clipPath id="P"><path d="M75.13 106.67h137.74v79.44H75.13z" class="B"/></clipPath><clipPath id="Q"><path d="M143.93 55.65h55.36v122.67h-55.36z" class="B"/></clipPath><clipPath id="R"><path d="M143.93 140.34h55.36v37.97h-55.36z" class="B"/></clipPath><clipPath id="S"><path d="M143.93 133.83h55.36v37.97h-55.36z" class="B"/></clipPath><clipPath id="T"><path d="M143.93 127.32h55.36v37.97h-55.36z" class="B"/></clipPath><clipPath id="U"><path d="M143.93 120.8h55.36v37.97h-55.36z" class="B"/></clipPath><clipPath id="V"><path d="M143.93 114.28h55.36v37.97h-55.36z" class="B"/></clipPath><clipPath id="W"><path d="M143.93 107.77h55.36v37.97h-55.36z" class="B"/></clipPath><clipPath id="X"><path d="M143.93 101.26h55.36v37.97h-55.36z" class="B"/></clipPath><clipPath id="Y"><path d="M143.93 94.74h55.36v37.97h-55.36z" class="B"/></clipPath><clipPath id="Z"><path d="M143.93 88.23h55.36v37.97h-55.36z" class="B"/></clipPath><clipPath id="a"><path d="M143.93 81.71h55.36v37.97h-55.36z" class="B"/></clipPath><clipPath id="b"><path d="M143.93 75.19h55.36v37.97h-55.36z" class="B"/></clipPath><clipPath id="c"><path d="M143.93 68.68h55.36v37.97h-55.36z" class="B"/></clipPath><clipPath id="d"><path d="M143.93 62.17h55.36v37.97h-55.36z" class="B"/></clipPath><clipPath id="e"><path d="M143.93 55.65h55.36v37.97h-55.36z" class="B"/></clipPath><clipPath id="f"><path d="M88.58 55.65h55.36v122.67H88.58z" class="B"/></clipPath><clipPath id="g"><path d="M88.58 140.34h55.36v37.97H88.58z" class="B"/></clipPath><clipPath id="h"><path d="M88.58 133.83h55.36v37.97H88.58z" class="B"/></clipPath><clipPath id="i"><path d="M88.58 127.32h55.36v37.97H88.58z" class="B"/></clipPath><clipPath id="j"><path d="M88.58 120.8h55.36v37.97H88.58z" class="B"/></clipPath><clipPath id="k"><path d="M88.58 114.28h55.36v37.97H88.58z" class="B"/></clipPath><clipPath id="l"><path d="M88.58 107.77h55.36v37.97H88.58z" class="B"/></clipPath><clipPath id="m"><path d="M88.58 101.26h55.36v37.97H88.58z" class="B"/></clipPath><clipPath id="n"><path d="M88.58 94.74h55.36v37.97H88.58z" class="B"/></clipPath><clipPath id="o"><path d="M88.58 88.23h55.36v37.97H88.58z" class="B"/></clipPath><clipPath id="p"><path d="M88.58 81.71h55.36v37.97H88.58z" class="B"/></clipPath><clipPath id="q"><path d="M88.58 75.19h55.36v37.97H88.58z" class="B"/></clipPath><clipPath id="r"><path d="M88.58 68.68h55.36v37.97H88.58z" class="B"/></clipPath><clipPath id="s"><path d="M88.58 62.17h55.36v37.97H88.58z" class="B"/></clipPath><clipPath id="t"><path d="M88.58 55.65h55.36v37.97H88.58z" class="B"/></clipPath><clipPath id="u"><path d="M125.21 67.56h59.5v64.13h-59.5z" class="B"/></clipPath><clipPath id="v"><path d="M124.6 72.28h50.16v59.41H124.6z" class="B"/></clipPath><clipPath id="w"><path d="M102.73 72.93h71.15v64.61h-71.15z" class="B"/></clipPath><clipPath id="x"><path d="M104.45 78.86h66.99v55.53h-66.99z" class="B"/></clipPath><clipPath ><path d="M138.92 69.57h41.72v56.16h-41.72z" class="B"/></clipPath><clipPath ><path d="M107.21 74.82h61.73v59.4h-61.73z" class="B"/></clipPath><clipPath id="AA"><path d="M182.89 178.75h9.84v9.81h-9.84z" class="B"/></clipPath><clipPath id="AB"><path d="M185.11 179.07h2.63v.93h-2.63z" class="B"/></clipPath><clipPath id="AC"><path d="M186.34 217.46h7.79v4.04h-7.79z" class="B"/></clipPath><clipPath id="AD"><path d="M195.05 211.34h4.62v5.28h-4.62z" class="B"/></clipPath><clipPath id="AE"><path d="M195.3 190h3.35v8.97h-3.35z" class="B"/></clipPath><clipPath id="AF"><path d="M85.5 207.27h4.57v5.17H85.5z" class="B"/></clipPath><clipPath id="AG"><path d="M91.2 214.06h8.43v4.25H91.2z" class="B"/></clipPath><clipPath id="AH"><path d="M86.39 186.15h3.92v8.09h-3.92z" class="B"/></clipPath><clipPath id="AI"><path d="M99.21 164.22h9.32v12.25h-9.32z" class="B"/></clipPath><clipPath id="AJ"><path d="M103.46 165.56h2.89v1.78h-2.89z" class="B"/></clipPath><path id="AK" d="M56.83 149.93l-18.36 10.6-.41.78 19.31-11.15h13.32l6.48 3.75-4.46 2.57a2.28 2.28 0 0 0-1.79.13.83.83 0 0 0-.37.35H53.68l-18.15 10.5-.21.66 18.5-10.68h16.75a.86.86 0 0 0 .37.36 2.33 2.33 0 0 0 2.06 0c.48-.28.55-.72.2-1l4.46-2.58 3.42 2 .24-.41-3.19-1.84 7.43-4.3 3.41 2 .24-.4-3.21-1.91 8.39-4.84 3.42 2 .24-.41-3.21-1.88 3.62-2.09 1.63.95.24-.4-1.41-.81 5.14-3-.24-.41-5.36 3.1-6.2-3.57c.37-.33.31-.77-.18-1.07a2.27 2.27 0 0 0-1.84-.09l-.48-.29v-7.65l-5.55-3.2-.57.21 5.64 3.27v7.11l-12.84-7.37-.53.24 13.88 8c-.32.33-.24.74.23 1a2.34 2.34 0 0 0 1.74.14l6.25 3.6-3.62 2.1-22.45-13-.5.26 22.48 12.9-8.38 4.84-10.8-6.24h-9.41a.81.81 0 0 0-.34-.32 2.31 2.31 0 0 0-1.75-.13l-5.23-3-.42.31 5.16 3c-.38.32-.32.77.18 1.06a2.33 2.33 0 0 0 2.06 0 .84.84 0 0 0 .38-.41h9.22l10.51 6.08-7.43 4.29-6.83-3.95H57.37l-7.12-4.1-.35.34z"/><path id="AL" d="M64.37,136a2.35,2.35,0,0,0,2.07,0,.63.63,0,0,0,.39-.8.64.64,0,0,0-.39-.4,2.32,2.32,0,0,0-1.13-.23L64,135.4a.74.74,0,0,0,.42.62"/><path id="AM" d="M42,89.93l57.87-33.2c.81-.47,1.47-.09,1.47.85v42.8a3.25,3.25,0,0,1-1.47,2.55L42,136.13c-.81.47-1.47.09-1.47-.85V92.48A3.26,3.26,0,0,1,42,89.93"/><path id="AN" d="M245.9,89.93,188,56.73c-.81-.47-1.47-.09-1.47.85v42.8a3.27,3.27,0,0,0,1.47,2.55l57.87,33.2c.82.47,1.48.09,1.48-.85V92.48a3.27,3.27,0,0,0-1.48-2.55"/><path id="AO" d="M144,184.42V197a6.14,6.14,0,0,1-3-.7L76.38,159a2.12,2.12,0,0,1-1.25-1.74V146.4a1.77,1.77,0,0,1,.66-1.32l9.35,5.4Z"/><path id="AP" d="M144,184.42V197a6.14,6.14,0,0,0,3-.7L211.62,159a2.11,2.11,0,0,0,1.25-1.74V146.42a1.77,1.77,0,0,0-.66-1.31l-9.36,5.36Z"/><path id="AQ" d="M211.62,148.13,147,185.37a6.67,6.67,0,0,1-6,0l-64.6-37.24a2.11,2.11,0,0,1-1.25-1.73,1.77,1.77,0,0,1,.66-1.32,3.51,3.51,0,0,1,.59-.42L141,107.42a6.67,6.67,0,0,1,6,0l64.6,37.24c1.65,1,1.65,2.53,0,3.48"/><path id="AR" d="M170.38 130.73s3.42-.14 3.48-5.46-3.94-6.13-3.94-6.13a4.91 4.91 0 0 0 .62-4.29c-1-2.91-3-2.59-3-2.59s1.5-1.1.84-3.82a3.48 3.48 0 0 0-2.5-2.87s1.4-2.52-1.16-5.91-5.2-2.86-5.2-2.86a7.64 7.64 0 0 0-1.82-4.54 5.83 5.83 0 0 0-4.7-1.81 7.4 7.4 0 0 0-2.42-5.73 8.22 8.22 0 0 0-5.45-2.47 4.39 4.39 0 0 0-1.85-3.82 5 5 0 0 0-4.93-.71s-.48-3.34-3.37-4a5.73 5.73 0 0 0-5.64 1.4s-2.55-3.37-8.69-1.91c-5.14 1.26-5.52 5.11-5.52 5.11s-5.28-1-7.7 2.64-1.68 8.33-1.68 8.33-3 2.12-2.86 5.29a9.65 9.65 0 0 0 1.52 5s-3 5.15-.91 9.39a9.86 9.86 0 0 0 5.9 5.15s0 4.53 2.12 6.81 5.9 2.12 5.9 2.12a8.21 8.21 0 0 0 4.09 4.7 9.3 9.3 0 0 0 6.51.29 8.22 8.22 0 0 0 3.82 2.58 12 12 0 0 0 5.46 0 3.91 3.91 0 0 0 3.18 3.18 4.55 4.55 0 0 0 4.39-1.21 3.83 3.83 0 0 0 3 2.12 4.22 4.22 0 0 0 3.33-1.22s1.21 3.82 6.21 3.94 6.21-2 6.21-2a4.21 4.21 0 0 0 4.84-.1 5.18 5.18 0 0 0 2-4.7"/><path id="AS" d="M193.73,217.46s.18.57.28,1.08a2.85,2.85,0,0,1,.06,1.36c-.14.31-.69.5-1.53.49a5.1,5.1,0,0,0-2,.7,5.31,5.31,0,0,1-2.5.39,2.44,2.44,0,0,1-1.65-.83c-.12-.32-.23-.75,1.82-1.4a10.09,10.09,0,0,0,3.32-1.75Z"/><path id="AT" d="M199.47,214.24c.16.06.19.36.2.95s.08,1.23-.45,1.38a1.66,1.66,0,0,1-1.62-.39,18.47,18.47,0,0,0-1.25-1.66,4.47,4.47,0,0,1-1.23-1.91c-.17-.71,0-1,.48-1.21s1,0,1.59.53a4.3,4.3,0,0,0,.6.32c.44.14,1.53,1.91,1.68,2"/><path id="AU" d="M91.6 214.07l-.29 1.17a3.36 3.36 0 0 0 0 1.48c.17.33.76.52 1.68.49a5.19 5.19 0 0 1 2.16.7 5.5 5.5 0 0 0 2.72.37 2.56 2.56 0 0 0 1.76-1c.13-.33-.06-.68-2-1.46 0 0-2.7-.8-3.64-1.8z"/></defs><circle cx="144" cy="144" r="144" class="G"/><g class="F"><g class="F"><path d="M221.68,134.25c43,24.83,43,65.11,0,90s-112.78,24.83-155.8,0-43-65.12,0-90,112.78-24.83,155.8,0" class="I"/><g class="C"><use xlink:href="#AK"/><use xlink:href="#AL"/></g><g clip-path="url(#B)"><g opacity=".5"><use xlink:href="#AK"/><use xlink:href="#AL"/></g></g><g clip-path="url(#C)"><g class="K"><path d="M205.89,214.87c1.76,3.82-2.12,7.64-8.66,8.67s-13.25-1.23-15-5,2.12-7.64,8.66-8.67,13.25,1.23,15,5"/></g></g><g clip-path="url(#D)"><g class="K"><path d="M103.81,211.57c1.75,3.82-2.12,7.64-8.67,8.67s-13.25-1.23-15-5,2.12-7.64,8.66-8.67,13.26,1.23,15,5"/></g></g><use xlink:href="#AM" class="C"/><g class="O G"><g opacity=".9"><use xlink:href="#AM"/></g></g><g class="O C"><g class="D"><path d="M100.5,57h0c.3,0,.34.37.34.58v42.8a2.77,2.77,0,0,1-1.23,2.15L41.74,135.72a1,1,0,0,1-.43.14c-.29,0-.34-.36-.34-.58V92.48a2.75,2.75,0,0,1,1.24-2.14l57.86-33.2a.84.84,0,0,1,.43-.14m0-.47a1.41,1.41,0,0,0-.66.2L42,89.93a3.26,3.26,0,0,0-1.47,2.55v42.8c0,.67.33,1.05.81,1.05a1.38,1.38,0,0,0,.66-.2l57.87-33.2a3.25,3.25,0,0,0,1.47-2.55V57.58c0-.66-.33-1-.81-1"/></g></g><g stroke="#fff" class="B P Q R"><path d="M52.98 105.3v.48"/><path d="M52.98 107.57v15.19" stroke-dasharray="0.8976722955703735,1.7857948541641235"/><path d="M52.98 123.65v.47m27.17-33.3v.47"/><path d="M80.15 93.24v13.71" stroke-dasharray="0.9836196303367615,1.9576895236968994"/><path d="M80.15 107.93v.47m10.61-16.72v.47"/><path d="M90.77 93.89l.01 7.02" stroke-dasharray="0.878572940826416,1.757145881652832"/><path d="M90.78 101.79v.47M68.73 86.81v.46"/><path d="M68.73 89.16v24.42" stroke-dasharray="0.9358711242675781,1.8812919855117798"/><path d="M68.73 114.52v.47"/></g><use xlink:href="#AN" class="C"/><g class="S G"><g opacity=".9"><use xlink:href="#AN"/></g></g><g class="S C"><g class="D"><path d="M187.37,57a.78.78,0,0,1,.42.14l57.88,33.19a2.84,2.84,0,0,1,1.24,2.15v42.8c0,.22,0,.58-.35.58a1,1,0,0,1-.43-.14l-57.87-33.19a2.8,2.8,0,0,1-1.23-2.15V57.58c0-.21,0-.58.34-.58m0-.47c-.48,0-.81.39-.81,1v42.8a3.27,3.27,0,0,0,1.47,2.55l57.87,33.2a1.41,1.41,0,0,0,.66.2c.48,0,.82-.38.82-1.05V92.48a3.27,3.27,0,0,0-1.48-2.55L188,56.73a1.35,1.35,0,0,0-.66-.2"/></g></g><g clip-path="url(#H)" class="C"><g class="D"><path d="M190.54 99.6v-1.9l5.72-5.5 4.27 9.08 4.3-4.95 3.48 6.3 10.1-13.04 4.14 9.33 6.39-9.75 8.61 24.83 6.29 7.87v8.5l-53.3-30.77z"/></g></g><g stroke="#fff" stroke-dasharray="0.9358711242675781,1.8717422485351562" class="B P Q R"><path d="M228.94 89.87v32.09m-10.49-31.58v25.07m-22.19-22.31v9.76m8.46-5.82v10.75"/></g><g clip-path="url(#I)" class="C"><g class="D"><path d="M199.28,89.41c0,.55-.47.7-1.07.36l-3.4-2a2.18,2.18,0,0,1-1.08-1.59c0-.54.49-.69,1.08-.36l3.4,2a2.11,2.11,0,0,1,1.07,1.58"/></g></g><g clip-path="url(#J)" class="C"><g class="D"><path d="M207.68,95.64c0,.54-.49.7-1.08.35l-3.4-2a2.11,2.11,0,0,1-1.07-1.59c0-.53.48-.7,1.07-.35l3.4,2a2.11,2.11,0,0,1,1.08,1.58"/></g></g><g clip-path="url(#K)" class="C"><g class="D"><path d="M221.22 88c0 .53-.48.69-1.07.34l-3.4-2a2.19 2.19 0 0 1-1.08-1.6c0-.53.49-.69 1.08-.34l3.4 2a2.14 2.14 0 0 1 1.07 1.6"/></g></g><g clip-path="url(#L)" class="C"><g class="D"><path d="M232.26,87.79c0,.54-.49.69-1.08.34l-3.4-2a2.17,2.17,0,0,1-1.07-1.6c0-.53.48-.68,1.07-.34l3.4,2a2.15,2.15,0,0,1,1.08,1.59"/></g></g><g clip-path="url(#M)"><g class="K"><path d="M211.62,164.32,147,201.57a6.76,6.76,0,0,1-6,0l-64.6-37.25a2.11,2.11,0,0,1-1.25-1.74,1.75,1.75,0,0,1,.66-1.3,3.07,3.07,0,0,1,.59-.43L141,123.6a6.74,6.74,0,0,1,6,0l64.6,37.25c1.65,1,1.65,2.52,0,3.47"/></g></g><use xlink:href="#AO" class="C"/><g clip-path="url(#N)" class="G"><g opacity=".5"><use xlink:href="#AO"/></g></g><use xlink:href="#AP" class="C"/><g clip-path="url(#O)" class="G"><g opacity=".65"><use xlink:href="#AP"/></g></g><use xlink:href="#AQ" class="C"/><g clip-path="url(#P)" class="G"><g opacity=".8"><use xlink:href="#AQ"/></g></g><path d="M144,107.42a5.44,5.44,0,0,1,2.65.62l64.6,37.24a1.44,1.44,0,0,1,.87,1.1c0,.38-.32.76-.87,1.08L146.63,184.7a5.29,5.29,0,0,1-2.64.61,5.51,5.51,0,0,1-2.64-.61l-64.6-37.24c-.55-.32-.88-.72-.88-1.09a1.12,1.12,0,0,1,.43-.77,2.36,2.36,0,0,1,.45-.33L141.37,108a5.37,5.37,0,0,1,2.63-.62m0-.75a6.19,6.19,0,0,0-3,.72L76.38,144.62a3.51,3.51,0,0,0-.59.42,1.81,1.81,0,0,0-.66,1.32,2.11,2.11,0,0,0,1.25,1.73L141,185.33a6.08,6.08,0,0,0,3,.72,6.23,6.23,0,0,0,3-.72l64.61-37.24c1.65-1,1.65-2.51,0-3.48L147,107.37a6.23,6.23,0,0,0-3-.72" class="G"/><path d="M142,115,89.47,145.24a1.23,1.23,0,0,0-.76,1.56,1.25,1.25,0,0,0,.76.75L142,177.83a4.45,4.45,0,0,0,4,0l52.52-30.28a1.23,1.23,0,0,0,0-2.32L146,115a4.45,4.45,0,0,0-4,0" class="I"/><path d="M198.5,145.23,146,115a4.07,4.07,0,0,0-2-.48v2l54.16,31.23.34-.2a1.22,1.22,0,0,0,0-2.32" class="J"/><path d="M144,114.48a4.07,4.07,0,0,0-2,.48L89.47,145.24a1.23,1.23,0,0,0-.76,1.56,1.25,1.25,0,0,0,.76.75l.35.2L144,116.51Z" class="H"/><g clip-path="url(#Q)" class="C"><g opacity=".5"><g clip-path="url(#R)"><g class="D"><path d="M147.63,170.17a6.48,6.48,0,0,1-3.7.86h0v7.28a4.62,4.62,0,0,0,2.48-.72l51.46-29.71c.95-.54,1.41-1,1.41-1.65v-5.85Z"/></g></g><g clip-path="url(#S)"><g opacity=".28"><path d="M147.63,163.65a6.48,6.48,0,0,1-3.7.86h0v7.29a4.56,4.56,0,0,0,2.48-.74l51.46-29.72c.95-.53,1.41-1,1.41-1.64v-5.89Z"/></g></g><g clip-path="url(#T)"><g opacity=".25"><path d="M147.63,157.13a6.41,6.41,0,0,1-3.7.87h0v7.29a4.64,4.64,0,0,0,2.48-.74l51.46-29.71c.95-.52,1.41-1,1.41-1.63v-5.89Z"/></g></g><g clip-path="url(#U)"><g opacity=".23"><path d="M147.63,150.62a6.57,6.57,0,0,1-3.7.87h0v7.28a4.63,4.63,0,0,0,2.48-.73l51.46-29.71c.95-.53,1.41-1,1.41-1.64V120.8Z"/></g></g><g clip-path="url(#V)"><g opacity=".21"><path d="M147.63,144.11a6.39,6.39,0,0,1-3.7.85h0v7.29a4.62,4.62,0,0,0,2.48-.72l51.46-29.71c.95-.54,1.41-1,1.41-1.65v-5.89Z"/></g></g><g clip-path="url(#W)"><g opacity=".18"><path d="M147.63,137.59a6.48,6.48,0,0,1-3.7.86h0v7.29a4.56,4.56,0,0,0,2.48-.74l51.46-29.71c.95-.52,1.41-1,1.41-1.63v-5.89Z"/></g></g><g clip-path="url(#X)"><g opacity=".16"><path d="M147.63,131.07a6.41,6.41,0,0,1-3.7.87h0v7.29a4.64,4.64,0,0,0,2.48-.74l51.46-29.71c.95-.52,1.41-1,1.41-1.63v-5.92Z"/></g></g><g clip-path="url(#Y)"><g opacity=".14"><path d="M147.63,124.56a6.57,6.57,0,0,1-3.7.87h0v7.31a4.63,4.63,0,0,0,2.48-.73l51.46-29.71c.95-.53,1.41-1,1.41-1.64V94.77Z"/></g></g><g clip-path="url(#Z)"><g opacity=".12"><path d="M147.63,118a6.32,6.32,0,0,1-3.7.86h0v7.29a4.55,4.55,0,0,0,2.48-.73l51.46-29.71c.95-.53,1.41-1,1.41-1.64V88.22Z"/></g></g><g clip-path="url(#a)"><g opacity=".09"><path d="M147.63,111.53a6.48,6.48,0,0,1-3.7.86h0v7.29a4.56,4.56,0,0,0,2.48-.74l51.46-29.71c.95-.52,1.41-1,1.41-1.63V81.71Z"/></g></g><g clip-path="url(#b)"><g opacity=".07"><path d="M147.63,105.05a6.48,6.48,0,0,1-3.7.87h0v7.28a4.63,4.63,0,0,0,2.48-.73l51.46-29.71c.95-.53,1.41-1,1.41-1.64V75.23Z"/></g></g><g clip-path="url(#c)"><g opacity=".05"><path d="M147.63,98.5a6.48,6.48,0,0,1-3.7.86h0v7.29a4.63,4.63,0,0,0,2.48-.73l51.46-29.71c.95-.53,1.41-1,1.41-1.64V68.68Z"/></g></g><g clip-path="url(#d)"><g opacity=".02"><path d="M147.63 92a6.41 6.41 0 0 1-3.7.87h0v7.28a4.55 4.55 0 0 0 2.48-.73l51.46-29.69c.95-.53 1.41-.95 1.41-1.64v-5.9z"/></g></g><g clip-path="url(#e)"><g opacity="0"><path d="M147.63,85.47a6.48,6.48,0,0,1-3.7.86h0v7.26a4.56,4.56,0,0,0,2.48-.74l51.46-29.71c.95-.52,1.41-1,1.41-1.63V55.62Z"/></g></g></g></g><g clip-path="url(#f)" class="C"><g opacity=".7"><g clip-path="url(#g)"><g opacity=".5"><path d="M140.25,170.17a6.41,6.41,0,0,0,3.68.86h0v7.28a4.62,4.62,0,0,1-2.47-.72L90,147.88c-1-.54-1.43-1-1.43-1.65v-5.85Z"/></g></g><g clip-path="url(#h)"><g opacity=".46"><path d="M140.25,163.65a6.41,6.41,0,0,0,3.68.86h0v7.29a4.55,4.55,0,0,1-2.47-.74L90,141.34c-1-.53-1.43-1-1.43-1.64v-5.89Z"/></g></g><g clip-path="url(#i)"><g opacity=".42"><path d="M140.25,157.13a6.32,6.32,0,0,0,3.68.87h0v7.29a4.64,4.64,0,0,1-2.47-.74L90,134.84c-1-.52-1.43-1-1.43-1.63v-5.89Z"/></g></g><g clip-path="url(#j)"><g opacity=".38"><path d="M140.25,150.62a6.5,6.5,0,0,0,3.68.87h0v7.28a4.63,4.63,0,0,1-2.47-.73L90,128.33c-1-.53-1.43-1-1.43-1.64V120.8Z"/></g></g><g clip-path="url(#k)"><g opacity=".35"><path d="M140.25,144.11a6.33,6.33,0,0,0,3.68.85h0v7.29a4.62,4.62,0,0,1-2.47-.72L90,121.82c-1-.54-1.43-1-1.43-1.65v-5.89Z"/></g></g><g clip-path="url(#l)"><g opacity=".31"><path d="M140.25,137.59a6.41,6.41,0,0,0,3.68.86h0v7.29a4.55,4.55,0,0,1-2.47-.74L90,115.29c-1-.52-1.43-1-1.43-1.63v-5.89Z"/></g></g><g clip-path="url(#m)"><g opacity=".27"><path d="M140.25,131.07a6.32,6.32,0,0,0,3.68.87h0v7.29a4.73,4.73,0,0,1-2.47-.74L90,108.78c-1-.52-1.43-1-1.43-1.63v-5.92Z"/></g></g><g clip-path="url(#n)"><g opacity=".23"><path d="M140.25,124.56a6.5,6.5,0,0,0,3.68.87h0v7.31a4.63,4.63,0,0,1-2.47-.73L90,102.3c-1-.53-1.43-1-1.43-1.64V94.77Z"/></g></g><g clip-path="url(#o)"><g opacity=".19"><path d="M140.25,118a6.26,6.26,0,0,0,3.68.86h0v7.29a4.54,4.54,0,0,1-2.47-.73L90,95.75c-1-.53-1.43-1-1.43-1.64V88.22Z"/></g></g><g clip-path="url(#p)"><g opacity=".15"><path d="M140.25,111.53a6.41,6.41,0,0,0,3.68.86h0v7.29a4.55,4.55,0,0,1-2.47-.74L90,89.23c-1-.52-1.43-1-1.43-1.63V81.71Z"/></g></g><g clip-path="url(#q)"><g opacity=".12"><path d="M140.25,105.05a6.4,6.4,0,0,0,3.68.87h0v7.28a4.63,4.63,0,0,1-2.47-.73L90,82.76c-1-.53-1.43-1-1.43-1.64V75.23Z"/></g></g><g clip-path="url(#r)"><g opacity=".08"><path d="M140.25,98.5a6.41,6.41,0,0,0,3.68.86h0v7.29a4.63,4.63,0,0,1-2.47-.73L90,76.21c-1-.53-1.43-1-1.43-1.64V68.68Z"/></g></g><g clip-path="url(#s)"><g opacity=".04"><path d="M140.25,92a6.42,6.42,0,0,0,3.68.87h0v7.28a4.63,4.63,0,0,1-2.47-.73L90,69.71c-1-.53-1.43-.95-1.43-1.64V62.19Z"/></g></g><g clip-path="url(#t)"><g opacity="0"><path d="M140.25,85.47a6.41,6.41,0,0,0,3.68.86h0v7.26a4.55,4.55,0,0,1-2.47-.74L90,63.14c-1-.52-1.43-1-1.43-1.63V55.62Z"/></g></g></g></g><path d="M181.4 118.81s1.56 1.55.47 4.44-4.46 3.27-4.46 3.27.45 4.61-7 5.17a3.78 3.78 0 0 0 0-.95s3.43-.14 3.49-5.46-3.94-6.14-3.94-6.14a4.89 4.89 0 0 0 .62-4.28c-1-2.91-3-2.59-3-2.59s1.5-1.1.84-3.82a3.48 3.48 0 0 0-2.5-2.87s1.4-2.52-1.17-5.91-5.19-2.86-5.19-2.86a7.61 7.61 0 0 0-1.82-4.55 5.86 5.86 0 0 0-4.74-1.82 7.4 7.4 0 0 0-2.42-5.73 8.09 8.09 0 0 0-5.46-2.46 4.38 4.38 0 0 0-1.85-3.82 5 5 0 0 0-4.93-.7s-.47-3.35-3.36-4a5.75 5.75 0 0 0-5.64 1.41 6.6 6.6 0 0 0-4.11-2.14 14.74 14.74 0 0 1 3.82-3.48c3.39-2.08 8.53-.75 8.53-.75a6.66 6.66 0 0 1 4.49-1.24 5.07 5.07 0 0 1 3.82 2.24s1.58-1.17 5.4-1a5.1 5.1 0 0 1 4.71 3.3 9.31 9.31 0 0 1 5.31 1.49c2.87 1.75 2.87 5.48 2.87 5.48a6.89 6.89 0 0 1 6.39 2.17c3 3.07 1.67 6 1.67 6a6.75 6.75 0 0 1 5.31 10 3 3 0 0 1 1.92 1.79 2.78 2.78 0 0 1 0 2.42 6.84 6.84 0 0 1 3.66 4.31 5.83 5.83 0 0 1-.76 4.9 4.78 4.78 0 0 1 2.41 4.31c0 3.15-3.32 3.82-3.32 3.82" class="C"/><g clip-path="url(#u)"><g opacity=".05"><path d="M181.4,118.81s1.56,1.55.47,4.44-4.46,3.27-4.46,3.27.45,4.61-7,5.17a3.78,3.78,0,0,0,0-.95s3.43-.14,3.49-5.46-3.94-6.14-3.94-6.14a4.89,4.89,0,0,0,.62-4.28c-1-2.91-3-2.59-3-2.59s1.5-1.1.84-3.82a3.48,3.48,0,0,0-2.5-2.87s1.4-2.52-1.17-5.91-5.19-2.86-5.19-2.86a7.61,7.61,0,0,0-1.82-4.55A5.86,5.86,0,0,0,153,90.44a7.4,7.4,0,0,0-2.42-5.73,8.09,8.09,0,0,0-5.46-2.46,4.38,4.38,0,0,0-1.85-3.82,5,5,0,0,0-4.93-.7s-.47-3.35-3.36-4a5.75,5.75,0,0,0-5.64,1.41,5.07,5.07,0,0,0-1.25-1.06,1,1,0,0,0-.24-.15,7.49,7.49,0,0,0-2.63-1,14.74,14.74,0,0,1,3.82-3.48c3.39-2.08,8.53-.75,8.53-.75a6.66,6.66,0,0,1,4.49-1.24,5.07,5.07,0,0,1,3.82,2.24s1.58-1.16,5.4-1A5.08,5.08,0,0,1,156,72a9.31,9.31,0,0,1,5.31,1.49c2.87,1.75,2.87,5.48,2.87,5.48a6.89,6.89,0,0,1,6.39,2.17c3,3.07,1.67,6,1.67,6a6.75,6.75,0,0,1,5.31,10,3,3,0,0,1,1.91,1.82,2.78,2.78,0,0,1,0,2.42,6.84,6.84,0,0,1,3.66,4.31,5.83,5.83,0,0,1-.76,4.9,4.78,4.78,0,0,1,2.41,4.31c0,3.15-3.32,3.82-3.32,3.82"/></g></g><g clip-path="url(#v)"><g class="K"><path d="M171.21 118.66a5.74 5.74 0 0 0 .19-4.08 4.59 4.59 0 0 0-2.37-2.92 5.18 5.18 0 0 0 .19-3.43 4.62 4.62 0 0 0-2.25-3.15 7 7 0 0 0-1.57-5.93 7.2 7.2 0 0 0-5.11-3.23 8.57 8.57 0 0 0-1.91-4.22 6.37 6.37 0 0 0-4.5-2.13 8.45 8.45 0 0 0-2.67-5.48 9.75 9.75 0 0 0-5.2-2.64 5.35 5.35 0 0 0-2.19-3.69 5.93 5.93 0 0 0-4.83-1.1 5.28 5.28 0 0 0-3.82-3.73 6.93 6.93 0 0 0-5.79 1 8.16 8.16 0 0 0-3.51-1.7 17.72 17.72 0 0 0-1.26 1.6 6 6 0 0 1 4 1.85.92.92 0 0 0 .68.34.88.88 0 0 0 .7-.3 4.89 4.89 0 0 1 4.77-1.11c2.25.5 2.67 3.12 2.69 3.23a.89.89 0 0 0 .45.65.87.87 0 0 0 .8 0 4.1 4.1 0 0 1 4 .62 3.53 3.53 0 0 1 1.5 3 .89.89 0 0 0 .91 1 7.33 7.33 0 0 1 4.89 2.24 6.54 6.54 0 0 1 2.14 5 .85.85 0 0 0 .26.72.83.83 0 0 0 .7.25 5 5 0 0 1 3.9 1.49 6.91 6.91 0 0 1 1.6 4 .84.84 0 0 0 .33.67.87.87 0 0 0 .71.21c.09 0 2.17-.33 4.34 2.53s1.13 4.87 1.1 4.94a.87.87 0 0 0 0 .8.91.91 0 0 0 .64.5 2.65 2.65 0 0 1 1.8 2.19c.5 2-.48 2.86-.51 2.86a.89.89 0 0 0-.28 1 1 1 0 0 0 .95.57c.14 0 1.39-.08 2.08 2a4 4 0 0 1-.47 3.47.87.87 0 0 0 .51 1.4c.14 0 3.29.79 3.24 5.27s-2.61 4.67-2.68 4.67a.89.89 0 0 0-.65.32.88.88 0 0 0-.19.7q0 .34 0 .69a2.28 2.28 0 0 0 .86.14 6 6 0 0 0 .89-.11.48.48 0 0 0 0-.17c1.26-.43 3.41-1.8 3.46-6.13 0-3.82-1.91-5.82-3.56-6.63"/></g></g><use xlink:href="#AR" class="C"/><g clip-path="url(#w)" class="G"><g class="K"><use xlink:href="#AR"/></g></g><g clip-path="url(#x)"><g opacity=".05"><path d="M130.49 87.5a15.07 15.07 0 0 0-1.91-2.78c-.55-.62-1.39-1.52-2.29-1.43-.27 0-.1.45.08.49a3.09 3.09 0 0 1 1.85 1.49 18.44 18.44 0 0 1 1.3 2.18 15.15 15.15 0 0 1 1.76 6.38c.07 1.91-.39 3.82-2.18 4.7-2.11 1.09-4.82.4-6.81-.6a5.56 5.56 0 0 1-3.15-4.24c0-.24-.4-.44-.39-.09a5.63 5.63 0 0 0 .74 2.86 6 6 0 0 0 2.14 2 9.3 9.3 0 0 0 6.84 1.27c5.5-1.39 3.94-8.6 2-12.21m-5.93 2.9a4.88 4.88 0 0 0-.76-2.15 6.71 6.71 0 0 0-1.49-1.74 5.47 5.47 0 0 0-2-1.17c-.33-.09-.3.37-.11.49a11.12 11.12 0 0 1 1.71 1.15 6.05 6.05 0 0 1 1.27 1.58 4.79 4.79 0 0 1 .56 1.85 6 6 0 0 1 0 1 5.16 5.16 0 0 1-.19 1c0 .14.18.47.34.3a3 3 0 0 0 .71-2.32m13.33 32.83a12 12 0 0 0-5.79-5l-1.17-.5a7 7 0 0 0 1.19-1.41 12.51 12.51 0 0 0 1.54-3.34 4.15 4.15 0 0 0-.44-3.43 3.71 3.71 0 0 0-1.32-1.2 2.61 2.61 0 0 0-2-.32c-.22.1 0 .45.19.48a4.27 4.27 0 0 1 1.66.54 2.63 2.63 0 0 1 .95 1.32 4.13 4.13 0 0 1-.11 2.71 11.66 11.66 0 0 1-1.32 2.73 6.33 6.33 0 0 1-1 1.12 2.43 2.43 0 0 1-.57.37l-6.07-1.85a16.7 16.7 0 0 1-7.64-4.69 10.11 10.11 0 0 1-2.57-4.78 9.85 9.85 0 0 1-.13-2.3 3 3 0 0 1 .53-1.91c.23-.23-.19-.7-.45-.52-1 .63-1 2.18-1 3.21a9.66 9.66 0 0 0 1.16 4.65 15.51 15.51 0 0 0 6.85 6.27c4.87 2.33 11.06 2.38 15 6.46a7.48 7.48 0 0 1 2.09 3.82 5.66 5.66 0 0 1 0 2.39 17.47 17.47 0 0 1-.87 2c-.06.18.2.5.4.41 1.14-.55 1.54-2.1 1.63-3.29a7.26 7.26 0 0 0-.82-3.82m22.81-22.3c-.8-1.91-2.87-2.69-4.69-3.34a25.77 25.77 0 0 1-5.8-2.65 9.8 9.8 0 0 1-2.25-2 8.47 8.47 0 0 1-1.65-4.31c0-.26-.61-.52-.67-.17-.73 3.9 2.49 6.69 5.61 8.31a51.89 51.89 0 0 0 5.22 2.1c1.44.55 3.66 1.66 3.35 3.56-.16.95-1 1.21-1.81 1.38a12.48 12.48 0 0 1-3.28.28 30.94 30.94 0 0 1-6.69-1.09 16 16 0 0 1-9.76-7.26 15.24 15.24 0 0 1-2.07-6.87 16.75 16.75 0 0 1 .18-3.61 10.23 10.23 0 0 1 1.29-4.13c.06-.08 0-.32-.12-.21a5.33 5.33 0 0 0-1.36 2.72 24.74 24.74 0 0 0-.61 3.2 15 15 0 0 0 .84 7.12 16.77 16.77 0 0 0 8.79 9.06 27.77 27.77 0 0 0 6.46 1.66 16.92 16.92 0 0 0 7.12-.1 2.84 2.84 0 0 0 2-1.42 2.64 2.64 0 0 0 0-2.2"/></g></g></g><path d="M188.51 178.76l-5.44.37-.18.25 4.66 9.18 5.17-.86-4.21-8.94z" class="C"/><g class="F"><g clip-path="url(#AA)"><g class="D"><path d="M188.51 178.76l-5.44.37-.18.25 4.66 9.18 5.17-.86-4.21-8.94z"/></g></g></g><path d="M188.69 178.51l-5.62.62 4.66 9.18 5.17-.86-4.21-8.94z" class="C"/><path d="M188.65 179.38l-4.71.53 3.89 7.5 4.34-.71-3.52-7.32z" class="I"/><g class="F"><g clip-path="url(#AB)"><g opacity=".15"><path d="M187.73,179.75l-.19-.38c-.11-.21-.55-.33-1-.29l-.83.08c-.43,0-.7.26-.59.46l.19.38Z"/></g></g><path d="M187.28,178.41a.45.45,0,0,0-.44-.19h-.32a1.51,1.51,0,0,0-1.19-.8c-.76,0-.34,1-.34,1l-.35.06c-.19,0-.29.15-.24.27l.11.23,2.86-.31-.12-.25" class="J"/><path d="M187,178.68c-.27,0-.37,0-.21.37a4.6,4.6,0,0,0,.35.64l-1.28.15-.33-.65a.46.46,0,0,0-.43-.29l-.12-.15,2-.19Z" class="H"/><path d="M187.8,179.8s-.08-.17-.2-.37a1.07,1.07,0,0,0-.95-.3l-.83.09c-.44,0-.71.25-.6.46l.2.37Z" class="J"/><path d="M190.55,182.92s.15-.84-.1-1.12-1.28-.25-1.79-.47-.45.38-.19.57c.58.43,1.73.63,2.08,1" class="L"/><path d="M199.14,172c.83,0,1.6.66,2.44,2.76s2.59,6.69,2.32,7.5c-.2.54-6.43,2.17-6.43,2.17l-.9-1.91,4.14-1.85-2.35-5.41Z" class="M"/><use xlink:href="#AS" class="C"/><g clip-path="url(#AC)"><g opacity=".4"><use xlink:href="#AS"/></g></g><g class="E"><path d="M193.73,217.51h-2.19a10.09,10.09,0,0,1-3.32,1.75l-.33.11c-.35.28-.06.77.78.85a14.06,14.06,0,0,0,4-1.09,1.75,1.75,0,0,0,1-1.61"/><path d="M193.73,216.78v.77c0,.28-.34.7-1.2.67-.6,0-1-.18-.95-.68v-.76Z"/></g><use xlink:href="#AT" class="C"/><g clip-path="url(#AD)"><g opacity=".4"><use xlink:href="#AT"/></g></g><g class="E"><path d="M199.49,213.69v.72s-.47,1-1.82,0c0-.07-.15-1.47-.15-1.47Z"/><path d="M197.79,212.26a4.3,4.3,0,0,1-.6-.32c-.54-.18-1.68,0-1.16.82a5.88,5.88,0,0,0,1.61,1.65c.6.31.82-.07.82-.07l-.22-1.7a1.19,1.19,0,0,0-.45-.38"/></g><path d="M200.48 203.67a16.6 16.6 0 0 0-.8-3.75l.83-6.27c.84-7.2.27-7.32-.74-9.82 0 0-9.23-1.18-9.63 2.66a158.94 158.94 0 0 0-.18 15.74 57.84 57.84 0 0 0 .73 6c.38 2.7.74 8.6.74 8.6a2.36 2.36 0 0 0 2.38-.13s1.16-7.27 1.13-9.22a16.7 16.7 0 0 0-.62-4.28l1-9 .31 4.19c.09 1.7.53 3.32.95 6.48l1 8.45a2.57 2.57 0 0 0 2 .38s1.2-7.64 1-10" class="C"/><g clip-path="url(#AE)"><g opacity=".1"><path d="M195.3,194.2l.5-3.21a6.92,6.92,0,0,0,2.86-1,3.86,3.86,0,0,1-2.29,1.34l-.51,3.72-.21,3.9Z"/></g></g><path d="M193.9 170.17l.33 3.59 3.15-.2-.25-3.99-3.23.6z" class="E"/><path d="M200.22 173.24a2.22 2.22 0 0 0-2.42-1.52h-.53c-.1.53-1.65 1-3.19.41a10.3 10.3 0 0 1-1.14.21l-.73.11c-1.12.37-1.62 2.31-1.72 5.38l-.57 9.66a10.86 10.86 0 0 0 6.19.78 7.39 7.39 0 0 0 4.6-2.19 23.7 23.7 0 0 0-1.75-4.93c1.78-4.38 1.74-6.51 1.26-7.93" class="I"/><path d="M194.25,188.41a12.17,12.17,0,0,0,1.91-.12,7.43,7.43,0,0,0,4.59-2.2,23.79,23.79,0,0,0-1.74-4.92,20.85,20.85,0,0,0,1.48-5.12c-.15.95-1.51,4.49-3.29,5.56a3.11,3.11,0,0,1,1.86,1.33c.86,1.18.16,5.22-4.77,5.47" class="J"/><path d="M192.25,165.71a2.43,2.43,0,0,1-.26-2.8c1.1-1.63,3-2.19,5.43-1.47a4.84,4.84,0,0,1,3,4.29c.07,1.77-4.9,2.94-4.82,4.15Z" class="H"/><path d="M191.56,166.22s-.7,1.06-.61,1.18a1.94,1.94,0,0,0,.53.23Z" class="L"/><path d="M193.69,162.88c-.68.35-1.86,1-2.15,3.5s.26,3.46.61,3.82a3.26,3.26,0,0,0,2.09.12,6.63,6.63,0,0,0,3.32-2.43c1-1.55,1.15-3.64,0-4.45a4.09,4.09,0,0,0-3.92-.53" class="E"/><g class="H"><path d="M193.49,163a6.8,6.8,0,0,0,.11,3.82s.42-.95,1.2-.65.72,1.31.1,1.86a1.19,1.19,0,0,1-1.22.26,2.11,2.11,0,0,0,1.12,1.8,3.87,3.87,0,0,0,4.42-1.13c1.91-2,1.65-5.66-1.15-6.59a4.79,4.79,0,0,0-4.58.63"/><path d="M193.3,167.65a.6.6,0,0,1-.37-.76h0a.61.61,0,0,1,.77-.35Z"/></g><path d="M192.44 172.44a7.8 7.8 0 0 0-2.35.42l-6.21 1.5-5.35-2.74c-.23-.27-.09-.81 0-1.11s.16-.95.23-1.15-.36-.23-.65.07-.41.9-.54 1-1.23-1.14-1.75-1.73-.76-1-1.12-.78-.09.54.29 1.05a4.63 4.63 0 0 1 .48.68c0 .09-.09.16-.15.21s-.28.24-.29.38v.23c-.06.17-.27.26-.33.42a1 1 0 0 0 0 .38c0 .13 0 .16-.07.24a.55.55 0 0 0 .17.44 4.09 4.09 0 0 0 1.31.9c.4.22.81.32 1.28.52s5.79 4 6.76 3.93 7.71-1.28 7.71-1.28c1.74-1.18.6-3.55.6-3.55" class="E"/><path d="M197.8 171.72a3.51 3.51 0 0 1 1.57.28c.73.34 1.18 1.16 1.22 3s-1.39 6.28-1.39 6.28a38.52 38.52 0 0 1 1.8 5.22 42 42 0 0 1-.1 6.34s-3 2.46-9 1.39c-.11 0-.22-5.64-.33-5.67s-.24 5.56-.35 5.54l-1.77-.47.15-6.68c.02-2.01.16-9.74.83-11.71a7.79 7.79 0 0 1 1.62-2.87h1.27z" class="N"/><path d="M193.9,181.56s3,.74,4.77-.34c.27.25.25.54,0,1a6.61,6.61,0,0,1-4.77.29.73.73,0,0,1,0-1" class="I"/><path d="M85.72 210.09c-.15.07-.18.36-.19 1s-.09 1.21.43 1.35a1.58 1.58 0 0 0 1.59-.37l1.25-1.63a4.47 4.47 0 0 0 1.2-1.95c.17-.7 0-1-.47-1.19-.66-.26-1.66.66-2.17.83S85.87 210 85.72 210" class="C"/><g clip-path="url(#AF)"><g opacity=".4"><path d="M85.71 210.09c-.15.07-.19.36-.2 1s-.08 1.21.44 1.35a1.6 1.6 0 0 0 1.59-.37l1.24-1.64a4.39 4.39 0 0 0 1.22-1.89c.17-.7 0-1-.47-1.2-.66-.25-1.66.67-2.18.82s-1.51 1.91-1.66 1.91"/></g></g><path d="M85.71,209.54v.72a1.76,1.76,0,0,0,1.8,0c0-.08.17-1,.17-1Z" class="E"/><use xlink:href="#AU" class="C"/><g clip-path="url(#AG)"><g opacity=".4"><use xlink:href="#AU"/></g></g><path d="M91.58,213.29v.83c0,.3.37.76,1.3.7.66,0,1.11-.22,1.07-.75v-.78Z" class="E"/><path d="M85 200.06l.42-3.82-.52-5.87a46.51 46.51 0 0 1 .1-8.59s10.57-2.39 10.84 1.41-.12 13.5-.2 15.17-.34 3.15-.63 5.87L94 213.29a2.49 2.49 0 0 1-2.37 0s-1-7.58-.88-9.55a16.41 16.41 0 0 1 .64-4.23l-.51-5.85-.53-5.22-.23-.1-.22 6.38c-.1 1.67-.31 3.28-.72 6.4l-1.48 8.42a1.61 1.61 0 0 1-1.91 0s-1-7.13-.68-9.48" class="C"/><g clip-path="url(#AH)"><g opacity=".1"><path d="M90.3 188.48a22.06 22.06 0 0 1-3.91-2.33 8.49 8.49 0 0 0 2.81 2.38l.69 5.73.19-5.73z"/></g></g><path d="M92.11 166.81l-.55 3.46-3.13-.15.36-4.07 3.32.76z" class="E"/><path d="M87.78,168.13s-2.17-.55-3.1,1-.06,4.92-.06,4.92Z" class="M"/><path d="M84.74 170.27c.29-1 1.85-2.33 3-2.14l.81.15c.15.58 1.65 1 3.18.66l1.26.39c1.11.36 2.12 1.28 2.3 4.88 0 0 1 10.62 1 16a10 10 0 0 1-1.91.59c-.08 0-.35-6.52-.42-6.5s0 6.58-.11 6.6a17.78 17.78 0 0 1-5.15 0 10.19 10.19 0 0 1-4.26-1.61 99.81 99.81 0 0 1 .49-10.23l-.38-4.68a9.08 9.08 0 0 1 .21-4.08" class="N"/><path d="M90.16,180s-3,.28-4.66-1.07c-.32.2-.34.49-.14,1a6.71,6.71,0,0,0,4.66,1,.74.74,0,0,0,.14-1" class="I"/><path d="M102.01 164.22l6.51 3.4-3.23 8.85-6.08-3.41 2.8-8.84z" class="C"/><g clip-path="url(#AI)"><g class="D"><path d="M102.01 164.22l6.51 3.4-3.23 8.85-6.08-3.41 2.8-8.84z"/></g></g><path d="M101.73 164.07l6.52 3.4-3.24 8.86-6.09-3.4 2.81-8.86z" class="C"/><path d="M102.11 164.97l5.46 2.86-2.87 7.61-5.1-2.87 2.51-7.6z" class="N"/><g clip-path="url(#AJ)"><g opacity=".15"><path d="M103.46,165.91l.11-.28c.05-.14.51-.06,1,.2l1,.5c.51.26.87.59.82.74l-.11.27Z"/></g></g><path d="M103.53 164.82c0-.09.24-.08.44 0l.38.2s.23-.58 1.1-.18.67 1.09.67 1.09l.4.22c.22.12.38.29.35.39l-.05.17-3.29-1.71.07-.18" class="J"/><path d="M103.93,165.21c.31.15.44.22.34.46a3,3,0,0,1-.2.45l1.49.77.18-.46c.06-.12.17-.19.4-.06l.09-.1-2.35-1.19Z" class="H"/><path d="M103.39,165.92l.12-.27c.06-.15.51-.06,1,.2l1,.5c.49.25.86.59.8.73l-.11.28Z" class="J"/><g class="E"><path d="M93.22,169.39c1.25.38,2,.45,3.38,2.57s4.5,6.08,4.78,6.59a2.65,2.65,0,0,1,.13,2.42c-.33.6-1.13.25-2.51-1s-4.07-4.3-4.07-4.3a22.66,22.66,0,0,1-1.69-6.27"/><path d="M101.11,181.26c1.16-.13,3.64-3.63,4.41-4.82a8.51,8.51,0,0,1,2.33-2.45c1.23-.91,1.05-2.3.51-3.57-.18-.44-.8-.15-.8-.15l-.22.6-.38,1c-.26.25-.41.33-.43.25a9.27,9.27,0,0,0,.19-1.28c0-.58-.51-.24-.65,0a10,10,0,0,0-.52,1.16c-.25.63-.15,1.27-.45,1.7s-4.31,4.28-4.31,4.28Z"/></g><path d="M93 169.33a6.1 6.1 0 0 1 1.91.61c1 .49 1.32 1.33 2.75 3.2l3.29 4.39 3.34-2.93a1.9 1.9 0 0 0 1.53 1.39 20 20 0 0 1-2.87 4.29c-1.66 1.78-1.67 1.69-3.18.8s-5-5.14-5-5.14-3.47-2.72-1.76-6.61" class="M"/><path d="M94.43,162.55s.81,1.24.72,1.36-.69.23-.69.23Z" class="L"/><path d="M93,162.34a1,1,0,1,1,1,1,1,1,0,0,1-1-1m.22,0a.77.77,0,0,0,.75.77h0a.77.77,0,1,0-.76-.77h0" class="H"/><path d="M92.15,159.1c1.66.35,2.13,1.08,2.29,3.71s-.12,3.62-.48,4a3.71,3.71,0,0,1-2.28.11,6.67,6.67,0,0,1-3.71-2.3c-1.07-1.63-1.34-3.82-.21-4.78a5.41,5.41,0,0,1,4.39-.76" class="E"/><g class="H"><path d="M94.92 162.16l-2.95.39.13.2 2.82-.37v-.22z"/><path d="M94.63 160h-.06c-.31.3-.73.49-1.06.78a2.53 2.53 0 0 0-.75 1.2c-.11.38-.16.83-.57 1 0 0-.26-1-1.12-.88s-1 1.22-.43 1.91 1 .41 1 .41a4.63 4.63 0 0 1-.68 2.28 4.57 4.57 0 0 1-2.08-.06 4.37 4.37 0 0 1-2.5-2.31c-1.05-2.32-1.11-4.41.37-5a2.21 2.21 0 0 1 2-1.77c1.44-.33 2.78.52 4.21.2.29-.06.58-.17.88-.21H94s.07.15 0 .22a1.87 1.87 0 0 1-.42.77 4.6 4.6 0 0 0 1.61-.2 2.08 2.08 0 0 1-.57 1.64"/></g></g></g></svg>