<svg xmlns="http://www.w3.org/2000/svg" xmlns:xlink="http://www.w3.org/1999/xlink" viewBox="0 0 288 288" xmlns:v="https://vecta.io/nano"><style><![CDATA[.B{fill:none}.C{fill:#24b2c0}.D{fill:#1a2e35}.E{fill:#f9f9f9}.F{fill:#2b454e}.G{fill:#fff}.H{fill:#375a64}.I{fill:#e0e0e0}.J{clip-path:url(#A)}.K{opacity:.3}.L{opacity:.2}.M{opacity:.1}.N{opacity:.35}.O{opacity:.25}.P{opacity:.15}.Q{fill:#dc8569}.R{fill:#e6e6e6}.S{fill:#ebebeb}.T{stroke-linejoin:round}.U{stroke-width:.859}.V{stroke-linecap:round}]]></style><defs><clipPath id="A"><path d="M34.38 36.56H248.4v214.02H34.38z" class="B"/></clipPath><clipPath id="B"><path d="M76.96 218.62h27.03v15.98H76.96z" class="B"/></clipPath><clipPath id="C"><path d="M102.81 227.95h21.55v12.74h-21.55z" class="B"/></clipPath><clipPath id="D"><path d="M83.63 199.22h21.43v14.36H83.63z" class="B"/></clipPath><clipPath id="E"><path d="M83.63 179.34h47.38v29.43H83.63z" class="B"/></clipPath><clipPath id="F"><path d="M93.08 168.29h21.06v24.7H93.08z" class="B"/></clipPath><clipPath ><path d="M45.69 120.16h8v45.45h-8z" class="B"/></clipPath><clipPath id="H"><path d="M210.95 63.49h7.95v4.86h-7.95z" class="B"/></clipPath><clipPath id="I"><path d="M210.95 68.73h6.07v3.78h-6.07z" class="B"/></clipPath><clipPath id="J"><path d="M210.95 70.8h9.67v5.86h-9.67z" class="B"/></clipPath><clipPath id="K"><path d="M210.95 78.09h4.27v2.75h-4.27z" class="B"/></clipPath><clipPath id="L"><path d="M207.98 114.26h3.7v6.4h-3.7z" class="B"/></clipPath><clipPath id="M"><path d="M211.68 112.12h3.7v6.4h-3.7z" class="B"/></clipPath><clipPath id="N"><path d="M215.37 109.99h3.7v6.4h-3.7z" class="B"/></clipPath><clipPath id="O"><path d="M219.08 107.85h3.7v6.4h-3.7z" class="B"/></clipPath><clipPath id="P"><path d="M222.78 105.72h3.7v6.4h-3.7z" class="B"/></clipPath><clipPath id="Q"><path d="M226.47 103.59h3.7v6.4h-3.7z" class="B"/></clipPath><clipPath id="R"><path d="M207.98 120.66h3.7v6.4h-3.7z" class="B"/></clipPath><clipPath id="S"><path d="M211.68 118.53h3.7v6.4h-3.7z" class="B"/></clipPath><clipPath id="T"><path d="M215.37 116.39h3.7v6.4h-3.7z" class="B"/></clipPath><clipPath id="U"><path d="M219.08 114.26h3.7v6.4h-3.7z" class="B"/></clipPath><clipPath id="V"><path d="M222.78 112.12h3.7v6.4h-3.7z" class="B"/></clipPath><clipPath id="W"><path d="M226.47 109.99h3.7v6.4h-3.7z" class="B"/></clipPath><clipPath ><path d="M79.28 64.87h112.17v67.02H79.28z" class="B"/></clipPath><clipPath ><path d="M75.9 131.68h3.61v65.16H75.9z" class="B"/></clipPath><clipPath id="Z"><path d="M83.87 121.56h33.36v63.73H83.87z" class="B"/></clipPath><clipPath id="a"><path d="M120.12 100.63h33.36v63.73h-33.36z" class="B"/></clipPath><clipPath id="b"><path d="M156.63 79.54h33.36v63.73h-33.36z" class="B"/></clipPath><clipPath id="c"><path d="M52.02 55.67h17.53v34.79H52.02z" class="B"/></clipPath><clipPath id="d"><path d="M61 67.75h2.7v22.72H61z" class="B"/></clipPath><clipPath id="e"><path d="M55.16 57.53h14.39v32.94H55.16z" class="B"/></clipPath><clipPath id="f"><path d="M55.67 55.67h10.34v5.97H55.67z" class="B"/></clipPath><clipPath id="g"><path d="M52.02 73.85h10.09v16.62H52.02z" class="B"/></clipPath><clipPath id="h"><path d="M61 70.43h1.59v20.03H61z" class="B"/></clipPath><clipPath id="i"><path d="M149.24 152.74h47.2v29.57h-47.2z" class="B"/></clipPath><clipPath id="j"><path d="M52.31 194.08h7.59v16.7h-7.59z" class="B"/></clipPath><clipPath id="k"><path d="M56.68 192.47h9.34v11.11h-9.34z" class="B"/></clipPath><clipPath id="l"><path d="M59.02 194.85h3.44v31.36h-3.44z" class="B"/></clipPath><clipPath id="m"><path d="M48.91 200.9h10.05v13.01H48.91z" class="B"/></clipPath><clipPath id="n"><path d="M51.74 203.1h6.93v15.88h-6.93z" class="B"/></clipPath><clipPath id="o"><path d="M59.58 204.6h9.13v8.92h-9.13z" class="B"/></clipPath><clipPath id="p"><path d="M59.28 208.43h4.47v5.98h-4.47z" class="B"/></clipPath><clipPath id="q"><path d="M59.49 222.55h8.88v4.2h-8.88z" class="B"/></clipPath><clipPath id="r"><path d="M43.44 210.5h14.27v5.05H43.44z" class="B"/></clipPath><clipPath id="s"><path d="M64.33 202.1h8.47v5.17h-8.47z" class="B"/></clipPath><clipPath id="t"><path d="M58.99 214.99h2.05v4.84h-2.05z" class="B"/></clipPath><clipPath id="u"><path d="M44.45 215.66h14.64v8.87H44.45z" class="B"/></clipPath><clipPath id="v"><path d="M47.11 218.54H57.8v1.69H47.11z" class="B"/></clipPath><clipPath id="w"><path d="M61.69 212.31h16.25v8.25H61.69z" class="B"/></clipPath><clipPath id="x"><path d="M62.28 215.34h12.44v1.83H62.28z" class="B"/></clipPath><clipPath id="y"><path d="M181.16 182.51h9.91v10h-9.91z" class="B"/></clipPath><clipPath id="z"><path d="M183.48 137.31h54.63v52.96h-54.63z" class="B"/></clipPath><clipPath id="AA"><path d="M188.59 175.43h10.52v10.19h-10.52z" class="B"/></clipPath><clipPath id="AB"><path d="M191.31 181.3h1.68v1.73h-1.68z" class="B"/></clipPath><clipPath id="AC"><path d="M213.89 184.12h6.93v18.22h-6.93z" class="B"/></clipPath><path id="AD" d="M102.57 220.43a.35.35 0 0 1-.22.3l-2 1a.55.55 0 0 0-.23.73 4.76 4.76 0 0 1 .19.53.9.9 0 0 0 .64.63l.5.07.84-.43a.36.36 0 0 0 .22-.32h0zm-15.34.95c-2.29 1-3.11 2.67-2.13 4.1a4.69 4.69 0 0 1 2.1-1.55c2.65-1.11 6.28-.77 8.1.76a3.82 3.82 0 0 1 .62.65 2.26 2.26 0 0 0-.53-3.15h-.06c-1.82-1.53-5.44-1.91-8.1-.77m16.77 3.14v.14l-.49 1.35a.79.79 0 0 1-.72.51l-2.79-.08a1.11 1.11 0 0 0-.43.09 1.44 1.44 0 0 0-.46.31 7.8 7.8 0 0 1-.68.61.48.48 0 0 0-.12.67v.05l1 1 .24-.12h0a1.23 1.23 0 0 1 .42-.1l2.79.09a.79.79 0 0 0 .72-.52l.43-1.36a.49.49 0 0 0 0-.17h0zm-22.63-3.43h0a.36.36 0 0 0 .12.28l.13.15a1.08 1.08 0 0 0 .24-.18 6.47 6.47 0 0 1 .67-.61.48.48 0 0 0 .11-.68v-.05l-1.06-1.2a.36.36 0 0 1-.11-.22zm18.22 8.6a.38.38 0 0 1-.25.33l-2.52 1a1.12 1.12 0 0 1-.63 0 .8.8 0 0 1-.32-.13l-1.62-1.09a1.6 1.6 0 0 0-1-.18 14.68 14.68 0 0 1-1.58.22 1 1 0 0 0-.8.53l-.62 1.21a.84.84 0 0 1-.45.38.66.66 0 0 1-.34.06l-3-.29a.52.52 0 0 1-.47-.57h0l.17-1.17a.67.67 0 0 0-.45-.7 11.31 11.31 0 0 1-1.27-.46 1.74 1.74 0 0 0-1 0h0l-2.36.77a1.22 1.22 0 0 1-.6 0 1.11 1.11 0 0 1-.34-.18l-1.54-1.3a.41.41 0 0 1-.15-.25v2.53a.41.41 0 0 0 .15.27l1.54 1.3a1 1 0 0 0 .65.21h.29l2.36-.77h0a1.59 1.59 0 0 1 1 .06l1.26.46a.53.53 0 0 1 .31.22v1.72a.53.53 0 0 0 .47.52l3.05.29a.88.88 0 0 0 .54-.17l.09-.07h0a.27.27 0 0 0 .07-.08l.06-.09h0l.62-1.2a.36.36 0 0 1 .07-.1l.06-.07a.57.57 0 0 1 .14-.13.94.94 0 0 1 .53-.23c.53 0 1.06-.12 1.58-.22a1.47 1.47 0 0 1 1 .19l1.62 1.08a.91.91 0 0 0 .31.12h.09a1.15 1.15 0 0 0 .37 0h.18l2.46-1a.39.39 0 0 0 .21-.17.43.43 0 0 0 0-.16zm-22.2-5.51a.45.45 0 0 1-.39-.44v2.55h0a.45.45 0 0 0 .39.44l2.16.35 1.12-.58a.55.55 0 0 0 .22-.74 4.6 4.6 0 0 1-.19-.52.92.92 0 0 0-.64-.63z"/><path id="AE" d="M123.21 229.39a.3.3 0 0 1-.18.25l-1.57.81a.45.45 0 0 0-.19.59 1.5 1.5 0 0 1 .15.42.73.73 0 0 0 .52.49l.39.07.67-.35a.27.27 0 0 0 .18-.25h0zm-12.23.76c-1.83.76-2.49 2.13-1.7 3.27a3.81 3.81 0 0 1 1.67-1.24c2.12-.88 5-.61 6.45.6a3.12 3.12 0 0 1 .5.53 1.81 1.81 0 0 0-.42-2.52h0a6.82 6.82 0 0 0-6.45-.61m13.37 2.54a.2.2 0 0 1 0 .11l-.35 1.1a.6.6 0 0 1-.57.4l-2.22-.06a.84.84 0 0 0-.35.07 1.15 1.15 0 0 0-.37.25l-.54.49a.38.38 0 0 0-.08.54h0l.76.82.19-.09h0a.85.85 0 0 1 .35-.08l2.22.07a.6.6 0 0 0 .56-.41l.36-1.09v-.14h0zm-18-2.73h0a.31.31 0 0 0 .09.22l.11.12.19-.14a4.1 4.1 0 0 1 .53-.49.39.39 0 0 0 .09-.55h0l-.87-1a.28.28 0 0 1-.09-.18zm14.52 6.82a.28.28 0 0 1-.21.26l-2 .81a.72.72 0 0 1-.5 0 .54.54 0 0 1-.25-.09l-1.3-.86a1.12 1.12 0 0 0-.78-.15l-1.26.17a.83.83 0 0 0-.43.18.52.52 0 0 0-.2.24l-.5.95a.73.73 0 0 1-.36.31.66.66 0 0 1-.28 0l-2.42-.23a.42.42 0 0 1-.38-.46h0l.13-.95a.53.53 0 0 0-.36-.56 9.35 9.35 0 0 1-1-.36 1.22 1.22 0 0 0-.8 0h0l-1.91.61a.76.76 0 0 1-.47 0 .79.79 0 0 1-.28-.13l-1.22-1a.3.3 0 0 1-.12-.22v2a.3.3 0 0 0 .12.22l1.23 1a.75.75 0 0 0 .51.17h.22l1.91-.62h0a1.36 1.36 0 0 1 .8 0c.33.15.67.26 1 .38a.49.49 0 0 1 .25.17V240a.42.42 0 0 0 .38.41l2.43.23a.61.61 0 0 0 .27 0l.16-.08a.27.27 0 0 0 .08-.07h0a.16.16 0 0 0 0-.07l.06-.06h0l.5-1a.22.22 0 0 1 0-.08h0a.68.68 0 0 1 .12-.12 1.05 1.05 0 0 1 .42-.18 10.88 10.88 0 0 0 1.26-.17 1.18 1.18 0 0 1 .78.15l1.3.87a1.14 1.14 0 0 0 .26.09h.06a1.41 1.41 0 0 0 .29 0h.16l1.91-.82a.36.36 0 0 0 .16-.14.24.24 0 0 0 0-.12zm-17.7-4.39a.36.36 0 0 1-.32-.35v2h0a.37.37 0 0 0 .32.36l1.71.27.89-.46a.43.43 0 0 0 .19-.59 2.61 2.61 0 0 1-.16-.42.69.69 0 0 0-.5-.49z"/><path id="AF" d="M83.63,200.89a4,4,0,0,0,2.29,3.4l14,8.06a10.77,10.77,0,0,0,5.19,1.24v-2L83.63,199.18v1.67"/><path id="AG" d="M110.15,189.35c0-4.11,1.29-17.06,4-20.1l-8.64-1c-4.25,4.49-9.34,15.23-12.42,21.41,0,0,2.53,1,5.66,2.33s7.48,1.28,9.73,0a3,3,0,0,0,1.67-2.68Z"/><path id="AH" d="M211.68 107.61l3.7-2.14v4.27l-3.7 2.14v-4.27z"/><path id="AI" d="M215.38 105.47l3.7-2.13v4.27l-3.7 2.13v-4.27z"/><path id="AJ" d="M90.16,178.1a3.57,3.57,0,0,1-1.83-.47c-1.54-.89-2.44-3-2.44-5.73V151.74c0-5.17,3.16-11.22,7-13.45l15.11-8.73c1.7-.95,3.35-1.12,4.64-.37,1.55.9,2.44,3,2.44,5.73v20.16c0,5.17-3.16,11.21-7,13.45L93,177.26a5.65,5.65,0,0,1-2.8.84m20.7-49.3a5.35,5.35,0,0,0-2.77.84L93,138.37c-3.82,2.22-7,8.24-7,13.37v20.15c0,2.71.88,4.78,2.42,5.66a4.55,4.55,0,0,0,4.57-.37l15.11-8.73h0c3.87-2.24,7-8.24,7-13.37V134.92c0-2.71-.88-4.78-2.4-5.66a3.55,3.55,0,0,0-1.8-.46"/><path id="AK" d="M85.99 181.3l-.06-.03 29.17-55.74.06.03-29.17 55.74z"/><path id="AL" d="M95.56,171.66a6.41,6.41,0,0,1-3.23-.84c-2.76-1.6-4.35-5.3-4.35-10.17,0-9.22,5.63-20,12.55-24,3-1.74,5.94-2,8.22-.65,2.77,1.59,4.36,5.3,4.36,10.16,0,9.21-5.64,20-12.55,24a10.18,10.18,0,0,1-5,1.51m10-36.42a10.13,10.13,0,0,0-5,1.5c-6.9,4-12.51,14.71-12.51,23.88,0,4.83,1.56,8.51,4.31,10.1,2.27,1.31,5.16,1.07,8.17-.66,6.89-4,12.51-14.71,12.51-23.87,0-4.84-1.58-8.52-4.32-10.11a6.27,6.27,0,0,0-3.2-.84"/><path id="AM" d="M85.98 161.87l-.04-.06 29.17-16.84.04.05-29.17 16.85z"/><path id="AN" d="M98.64,160.44a2.42,2.42,0,0,1-1.24-.33c-1.07-.61-1.67-2-1.67-3.9,0-3.53,2.14-7.64,4.77-9.17a3.1,3.1,0,0,1,3.16-.26c1.06.62,1.67,2,1.67,3.9,0,3.53-2.15,7.64-4.77,9.18a4,4,0,0,1-1.91.58m3.82-13.92a3.87,3.87,0,0,0-1.91.57c-2.63,1.52-4.78,5.61-4.78,9.12,0,1.84.61,3.24,1.65,3.82a3.06,3.06,0,0,0,3.1-.24c2.63-1.52,4.77-5.62,4.77-9.12,0-1.85-.59-3.25-1.63-3.82a2.46,2.46,0,0,0-1.21-.32"/><path id="AO" d="M97.86,163.3a3.38,3.38,0,0,1-1.76-.46c-1.5-.87-2.36-2.86-2.36-5.5,0-5,3.05-10.81,6.79-13A4.39,4.39,0,0,1,105,144c1.5.86,2.36,2.86,2.36,5.5,0,5-3,10.8-6.79,13a5.5,5.5,0,0,1-2.7.82m5.37-19.67a5.37,5.37,0,0,0-2.67.8c-3.73,2.15-6.75,7.94-6.75,12.91,0,2.61.85,4.59,2.32,5.44a4.35,4.35,0,0,0,4.4-.36c3.71-2.15,6.75-7.93,6.75-12.9,0-2.61-.85-4.59-2.33-5.44a3.23,3.23,0,0,0-1.72-.45"/><path id="AP" d="M88,174.51a1.8,1.8,0,0,1-.87-.23,3,3,0,0,1-1.16-2.71V152.11a8,8,0,0,1,3.33-6.36l22.55-13a2.13,2.13,0,0,1,2.19-.17,2.94,2.94,0,0,1,1.17,2.7v19.44a8,8,0,0,1-3.33,6.36l-22.54,13a2.63,2.63,0,0,1-1.34.4m25.19-42.11a2.61,2.61,0,0,0-1.31.39l-22.54,13a7.85,7.85,0,0,0-3.3,6.3v19.46a2.93,2.93,0,0,0,1.13,2.66,2.11,2.11,0,0,0,2.13-.18l22.55-13h0a8,8,0,0,0,3.29-6.31V135.24A2.84,2.84,0,0,0,114,132.6a1.52,1.52,0,0,0-.83-.22"/><path id="AQ" d="M91.93 177.51a1.74 1.74 0 0 1-.87-.23 3 3 0 0 1-1.17-2.7v-30.06a8 8 0 0 1 3.33-6.36l14.61-8.44a2.18 2.18 0 0 1 2.19-.17 3 3 0 0 1 1.15 2.71v30.08a8 8 0 0 1-3.33 6.37l-14.6 8.43a2.72 2.72 0 0 1-1.33.4m17.19-48.12a2.7 2.7 0 0 0-1.3.39l-14.59 8.43a7.91 7.91 0 0 0-3.31 6.3v30.07a2.86 2.86 0 0 0 1.1 2.64 2.07 2.07 0 0 0 2.13-.17l14.6-8.42a8 8 0 0 0 3.29-6.31v-30.09a2.92 2.92 0 0 0-1.12-2.65 1.67 1.67 0 0 0-.84-.22"/><path id="AR" d="M126.45,157.17a3.67,3.67,0,0,1-1.83-.47c-1.55-.9-2.44-3-2.44-5.73V130.83c0-5.17,3.16-11.22,7-13.46l15.11-8.72a4.63,4.63,0,0,1,4.64-.38c1.54.9,2.44,3,2.44,5.73v20.16c0,5.18-3.16,11.22-7,13.46h0l-15.11,8.73a5.72,5.72,0,0,1-2.81.84m20.7-49.28a5.61,5.61,0,0,0-2.78.84l-15.11,8.71c-3.87,2.24-7,8.25-7,13.37V151c0,2.71.87,4.78,2.4,5.66a4.54,4.54,0,0,0,4.58-.37l15.11-8.73c3.82-2.23,7-8.24,7-13.37V114c0-2.71-.88-4.77-2.41-5.65a3.5,3.5,0,0,0-1.79-.47"/><path id="AS" d="M122.23 124.23l-.03-.06 29.17-16.84.03.06-29.17 16.84z"/><path id="AT" d="M131.81,150.72a6.27,6.27,0,0,1-3.22-.84c-2.77-1.59-4.36-5.3-4.36-10.16,0-9.22,5.64-20,12.55-24,3-1.75,5.95-2,8.23-.66,2.76,1.6,4.35,5.3,4.35,10.16,0,9.22-5.63,20-12.54,24a10,10,0,0,1-5,1.51m10-36.41a10,10,0,0,0-5,1.5c-6.91,4-12.52,14.71-12.52,23.87,0,4.84,1.57,8.52,4.32,10.11,2.26,1.31,5.16,1.07,8.16-.67,6.9-4,12.51-14.71,12.51-23.88,0-4.84-1.57-8.51-4.31-10.1a6.31,6.31,0,0,0-3.21-.84"/><path id="AU" d="M122.23 140.94l-.03-.06 29.17-16.85.03.06-29.17 16.85z"/><path id="AV" d="M134.9,139.47a2.38,2.38,0,0,1-1.25-.32c-1.06-.61-1.67-2-1.67-3.9,0-3.53,2.16-7.64,4.77-9.17a3.12,3.12,0,0,1,3.17-.26c1.06.62,1.67,2,1.67,3.9,0,3.53-2.15,7.64-4.77,9.18a3.94,3.94,0,0,1-1.91.57m3.82-13.91a3.68,3.68,0,0,0-1.91.57c-2.64,1.52-4.78,5.61-4.78,9.12,0,1.84.61,3.24,1.65,3.82a3,3,0,0,0,3.09-.25c2.64-1.51,4.78-5.61,4.78-9.12,0-1.84-.61-3.24-1.65-3.82a2.35,2.35,0,0,0-1.21-.31"/><path id="AW" d="M134.09,142.36a3.61,3.61,0,0,1-1.76-.46c-1.5-.87-2.36-2.87-2.36-5.51,0-5,3.05-10.8,6.79-13a4.39,4.39,0,0,1,4.46-.35c1.5.86,2.36,2.86,2.36,5.5,0,5-3.05,10.8-6.78,13a5.54,5.54,0,0,1-2.71.82m5.38-19.67a5.3,5.3,0,0,0-2.67.8c-3.72,2.15-6.76,7.93-6.76,12.9,0,2.62.85,4.59,2.33,5.45a4.33,4.33,0,0,0,4.39-.36c3.73-2.15,6.75-7.94,6.75-12.9,0-2.61-.84-4.6-2.32-5.45a3.32,3.32,0,0,0-1.72-.44"/><path id="AX" d="M124.21,153.58a1.8,1.8,0,0,1-.87-.23,3,3,0,0,1-1.16-2.71V131.17a8,8,0,0,1,3.33-6.36l22.54-13a2.17,2.17,0,0,1,2.21-.17,3,3,0,0,1,1.16,2.7v19.46a8,8,0,0,1-3.33,6.37l-22.55,13a2.73,2.73,0,0,1-1.33.41m25.16-42.12a2.71,2.71,0,0,0-1.3.4l-22.55,13a7.92,7.92,0,0,0-3.29,6.3v19.47a2.92,2.92,0,0,0,1.12,2.65,2.11,2.11,0,0,0,2.14-.17l22.54-13a7.92,7.92,0,0,0,3.3-6.31V114.33a2.85,2.85,0,0,0-1.1-2.6,1.67,1.67,0,0,0-.84-.22"/><path id="AY" d="M128.19,156.62a1.74,1.74,0,0,1-.87-.23,3,3,0,0,1-1.17-2.71V123.62a8,8,0,0,1,3.33-6.36l14.6-8.43a2.17,2.17,0,0,1,2.2-.17,3,3,0,0,1,1.17,2.71v30a8,8,0,0,1-3.34,6.37l-14.6,8.42a2.69,2.69,0,0,1-1.32.41m17.19-48.13a2.61,2.61,0,0,0-1.3.4l-14.61,8.43a7.92,7.92,0,0,0-3.29,6.3v30.06a2.86,2.86,0,0,0,1.13,2.65,2.11,2.11,0,0,0,2.14-.17L144,147.73a7.92,7.92,0,0,0,3.3-6.31v-30a2.86,2.86,0,0,0-1.13-2.66,1.75,1.75,0,0,0-.83-.22"/><path id="AZ" d="M163,136.09a3.67,3.67,0,0,1-1.83-.47c-1.54-.9-2.44-3-2.44-5.73V109.73c0-5.18,3.16-11.22,7.05-13.46l15.14-8.71a4.56,4.56,0,0,1,4.63-.37c1.56.9,2.45,3,2.45,5.73v20.16c0,5.17-3.16,11.22-7,13.45h0l-15.13,8.73a5.57,5.57,0,0,1-2.81.85M183.69,86.8a5.55,5.55,0,0,0-2.77.84l-15.13,8.73c-3.82,2.23-7,8.24-7,13.37v20.14c0,2.71.88,4.77,2.42,5.65,1.26.73,2.86.6,4.56-.37l15.12-8.7c3.82-2.23,7-8.24,7-13.37V92.93c0-2.7-.88-4.78-2.41-5.66a3.59,3.59,0,0,0-1.79-.46"/><path id="Aa" d="M158.74 103.15l-.03-.06 29.17-16.84.04.06-29.18 16.84z"/><path id="Ab" d="M168.33,129.64a6.41,6.41,0,0,1-3.23-.84c-2.76-1.6-4.35-5.3-4.35-10.16,0-9.22,5.62-20,12.54-24,3-1.75,6-2,8.23-.67,2.77,1.59,4.36,5.3,4.36,10.16,0,9.22-5.64,20-12.55,24a10.07,10.07,0,0,1-5,1.5m10-36.41a10,10,0,0,0-5,1.5c-6.9,4-12.51,14.71-12.51,23.88,0,4.84,1.56,8.52,4.31,10.1,2.27,1.31,5.16,1.07,8.16-.66,6.9-4,12.52-14.7,12.52-23.87,0-4.83-1.58-8.52-4.32-10.11a6.39,6.39,0,0,0-3.2-.83"/><path id="Ac" d="M158.74 119.86l-.03-.06 29.17-16.85.04.06-29.18 16.85z"/><path id="Ad" d="M171.41,118.42a2.42,2.42,0,0,1-1.24-.33c-1.07-.62-1.67-2-1.67-3.9,0-3.53,2.14-7.64,4.77-9.18a3.12,3.12,0,0,1,3.16-.25c1.06.61,1.67,2,1.67,3.9,0,3.53-2.16,7.64-4.77,9.17a4,4,0,0,1-1.91.59m3.82-13.92a3.87,3.87,0,0,0-1.91.57c-2.63,1.51-4.78,5.61-4.78,9.12,0,1.84.6,3.24,1.64,3.82a3.1,3.1,0,0,0,3.11-.26c2.62-1.52,4.77-5.61,4.77-9.12,0-1.84-.59-3.24-1.63-3.82a2.46,2.46,0,0,0-1.21-.32"/><path id="Ae" d="M170.62,121.28a3.35,3.35,0,0,1-1.75-.46c-1.5-.86-2.36-2.86-2.36-5.5,0-5,3.05-10.8,6.79-13a4.41,4.41,0,0,1,4.46-.36c1.5.87,2.36,2.87,2.36,5.5,0,5-3.05,10.81-6.79,13a5.56,5.56,0,0,1-2.71.81M176,101.61a5.35,5.35,0,0,0-2.67.81c-3.73,2.15-6.75,7.94-6.75,12.9,0,2.61.85,4.6,2.32,5.45a4.32,4.32,0,0,0,4.4-.36c3.71-2.15,6.75-7.93,6.75-12.91,0-2.61-.85-4.59-2.33-5.44a3.35,3.35,0,0,0-1.72-.45"/><path id="Af" d="M160.72,132.49a1.6,1.6,0,0,1-.87-.23,3,3,0,0,1-1.16-2.7V110.1a8,8,0,0,1,3.33-6.37l22.55-13a2.18,2.18,0,0,1,2.19-.17,3,3,0,0,1,1.17,2.71v19.43a8,8,0,0,1-3.33,6.36l-22.54,13a2.65,2.65,0,0,1-1.34.4M185.9,90.35a2.7,2.7,0,0,0-1.3.39l-22.54,13a7.9,7.9,0,0,0-3.31,6.31v19.46a2.88,2.88,0,0,0,1.14,2.65A2.09,2.09,0,0,0,162,132l22.55-13h0a7.92,7.92,0,0,0,3.29-6.3V93.22a2.91,2.91,0,0,0-1.13-2.65,1.59,1.59,0,0,0-.83-.22"/><path id="Ag" d="M164.69,135.5a1.73,1.73,0,0,1-.86-.23,3,3,0,0,1-1.17-2.71v-30A8,8,0,0,1,166,96.14l14.6-8.43a2.17,2.17,0,0,1,2.2-.17,3,3,0,0,1,1.17,2.7v30.09a8,8,0,0,1-3.34,6.36L166,135.12a2.63,2.63,0,0,1-1.34.4M181.88,87.4a2.74,2.74,0,0,0-1.3.39L166,96.21a7.94,7.94,0,0,0-3.3,6.32v30.05a2.85,2.85,0,0,0,1.14,2.65,2.07,2.07,0,0,0,2.12-.17l14.61-8.43a7.92,7.92,0,0,0,3.29-6.3V90.24a2.84,2.84,0,0,0-1.13-2.64,1.53,1.53,0,0,0-.84-.22"/><path id="Ah" d="M69.52 67.64l-6.93 22.55-.47-.28v.55L59 88.65l-6.9-14.41a1.21 1.21 0 0 1 0-.88 43.68 43.68 0 0 0 3.44-13.2 1 1 0 0 1 .46-.71l6.46-3.68a1 1 0 0 1 .85 0l2.3 1.33a1 1 0 0 1 .46.72 16.69 16.69 0 0 0 3.33 9 1 1 0 0 1 .17.83"/><path id="Ai" d="M69.52,67.64,62.59,90.19V71.35a3.39,3.39,0,0,0,1.12-2.42c0-1-.61-1.45-1.35-1A3.24,3.24,0,0,0,61,70.5c0,.88.48,1.34,1.12,1.12V90.46L55.25,76.05a1.19,1.19,0,0,1,0-.87A43.28,43.28,0,0,0,58.64,62a1.08,1.08,0,0,1,.47-.73l6.41-3.7a.29.29,0,0,1,.4,0,.31.31,0,0,1,.07.2,16.69,16.69,0,0,0,3.32,9,.92.92,0,0,1,.17.83"/><path id="Aj" d="M59.8 208.81a13.4 13.4 0 0 0-.26-1.78 22.88 22.88 0 0 0-.95-3.45 25.29 25.29 0 0 0-3.47-6.4 22.21 22.21 0 0 0-2.72-3.09s-.06 0 0 .06a27 27 0 0 1 4.27 5.9 27.53 27.53 0 0 1 2.47 6.68l.4 2 .31 2c0 .07.11.12.12 0a12.28 12.28 0 0 0-.09-1.91"/><path id="Ak" d="M60.8,203.41c-2.68.83-4.68-1.27-4-4.57s4.15-6.94,5.45-6c.82-.81,2.62-.52,3.46,2.15s.08,9.55-4.92,8.38"/><path id="Al" d="M62.38 194.88a37.24 37.24 0 0 0-1.79 5.91 58.75 58.75 0 0 0-1 6.19 94.61 94.61 0 0 0-.59 12.14v3.35l.11 3.47c0 .44.66.32.67-.08l-.1-6.05v-6a84.63 84.63 0 0 1 1.09-12.11l.67-3.33 1-3.46s0-.11-.07 0"/><path id="Am" d="M56.43,213c-1.18,1.33-3.87,1.22-5.67-1.15s-2.87-11.3-.35-10.74c.54-1.18,7.56,1.68,8.45,7.5.66,4.23-2.43,4.39-2.43,4.39"/><path id="An" d="M58.53 217.27a14.9 14.9 0 0 0-.34-1.64l-1-3.23a34.59 34.59 0 0 0-3.19-6.15 29.8 29.8 0 0 0-2.22-3.15s-.05 0 0 .06l1.82 2.77a34.12 34.12 0 0 1 1.6 3.07 42.76 42.76 0 0 1 2.31 6.2l.49 1.83.58 1.91c0 .08.13.12.12 0l-.14-1.64"/><path id="Ao" d="M60.73,211.73c-1.54-.36-1.62-2.2.3-4.46s6.76-3.26,7-2.3c1.08,0,1.08,3.37-1.3,6.46s-5.85,2.38-6,.3"/><path id="Ap" d="M63.73,208.43A13,13,0,0,0,61.08,211a12.8,12.8,0,0,0-1.79,3.21c0,.13.18.33.23.18a14.19,14.19,0,0,1,4.22-5.89h0"/><path id="Aq" d="M68.38,226.71a18,18,0,0,0-3.26-3c-1.21-.79-2.87-1.47-4.29-.95-.56.19-1.43.75-1.33,1.45,0,.07.14.24.22.14a5.47,5.47,0,0,1,.77-.9,2.3,2.3,0,0,1,1.13-.43,5.18,5.18,0,0,1,3,.68,16.4,16.4,0,0,1,3.75,3.09h0"/><path id="Ar" d="M57.69,215.45c-1.84-3.82-6.59-5-10.5-4.95a15.5,15.5,0,0,0-3.78.5h0a20.3,20.3,0,0,1,6.32-.06,13.11,13.11,0,0,1,5.73,2.23,7.89,7.89,0,0,1,2.07,2.31c0,.1.12,0,.08-.07"/><path id="As" d="M72.79 202.14a5.52 5.52 0 0 0-2.18.22 11.38 11.38 0 0 0-1.85.67 10.13 10.13 0 0 0-3.17 2.29l-.72.86a3.49 3.49 0 0 0-.53.89c0 .1.11.26.2.16.25-.29.44-.64.67-1a9.15 9.15 0 0 1 .82-1 10.15 10.15 0 0 1 1.91-1.54 12.22 12.22 0 0 1 2.15-1.05l1.27-.38a4.6 4.6 0 0 1 1.38-.19h0"/><path id="At" d="M60.89,215a2.94,2.94,0,0,0-1,1,5.66,5.66,0,0,0-.61,1.17,5.1,5.1,0,0,0-.26,2.68h0a5.38,5.38,0,0,1,.54-2.65,5.44,5.44,0,0,1,.64-1.06c.13-.17.28-.33.43-.49a2.59,2.59,0,0,0,.4-.41c0-.07,0-.25-.13-.2"/><path id="Au" d="M57.58,219.46c-.07-1.55-1.76-2.8-4.17-3.51a6.56,6.56,0,0,0-6.76,1.78c-1.76,1.91-2.67,3.54-2,4a47,47,0,0,0,6,2.27,8.84,8.84,0,0,0,6.9-.39c2.12-1.24,1.91-3.38,0-4.17"/><path id="Av" d="M57.69 219.29a6.63 6.63 0 0 0-2.62-.7 11.39 11.39 0 0 0-2.61 0 16.88 16.88 0 0 0-2.72.58l-1.37.45a8.15 8.15 0 0 0-1.26.52v.06c.44-.1.87-.27 1.31-.4l1.39-.41a18.61 18.61 0 0 1 2.68-.5 11.25 11.25 0 0 1 2.72 0 17.17 17.17 0 0 1 2.45.6c.17 0 .13-.18 0-.24"/><path id="Aw" d="M62.54,217.14c-1.72-1.36-1.14-4.64,4.87-4.77s10.32,1.39,10.13,3.33c1,1,.48,3.69-4.4,4.53s-11.84.43-10.6-3"/><path id="Ax" d="M74.71,215.67a25.51,25.51,0,0,0-5.38-.31,20.69,20.69,0,0,0-5,.57,8.47,8.47,0,0,0-1.22.45,5.21,5.21,0,0,0-.52.28c-.14.09-.29.16-.34.32s.08.21.17.19a5.83,5.83,0,0,0,1.06-.53,9.32,9.32,0,0,1,1-.37,12.28,12.28,0,0,1,2.09-.42,35.88,35.88,0,0,1,5.08-.27c1,0,2,.08,3,.17v-.08"/><path id="Ay" d="M186.1,182.67a7.73,7.73,0,0,1,4.85,5.05,2.46,2.46,0,0,1-.46,2.44L188.58,192a2.5,2.5,0,0,1-2.47.35,7.78,7.78,0,0,1-4.85-5,2.46,2.46,0,0,1,.46-2.45l1.91-1.83a2.48,2.48,0,0,1,2.47-.35"/><path id="Az" d="M233.28,137.46a7.52,7.52,0,0,1,4.72,4.92,2.36,2.36,0,0,1-.44,2.37l-46.85,45a2.38,2.38,0,0,1-2.39.36,7.54,7.54,0,0,1-4.72-4.92,2.37,2.37,0,0,1,.44-2.38l46.85-45a2.42,2.42,0,0,1,2.39-.34"/><path id="BA" d="M190.32 185.44l8.59-8.25a.65.65 0 0 0 0-.91h0l-.64-.66a.65.65 0 0 0-.93 0h0l-8.6 8.25a.67.67 0 0 0 0 .91l.64.66a.67.67 0 0 0 .91 0"/></defs><circle cx="144" cy="144" r="144" class="G"/><g class="J"><g class="J E"><path d="M67.66,230c-40.73-24.37-40.73-63.89,0-88.26s106.75-24.37,147.47,0,40.72,63.89,0,88.26-106.75,24.37-147.47,0"/></g><g class="J"><use xlink:href="#AD" class="R"/><g clip-path="url(#B)"><g class="M"><use xlink:href="#AD"/></g></g><path d="M89.53 231.94l-3-.28a.36.36 0 0 1-.27-.15.39.39 0 0 1-.09-.33l.15-1.18a.76.76 0 0 0-.52-.8 10.33 10.33 0 0 1-1.25-.46 1.87 1.87 0 0 0-.66-.11 1.54 1.54 0 0 0-.43.06l-2.38.78h-.24a1 1 0 0 1-.59-.19L78.7 228a.28.28 0 0 1-.11-.22c0-.09.07-.15.17-.2l2-1a.66.66 0 0 0 .29-.87 3.24 3.24 0 0 1-.19-.52 1 1 0 0 0-.73-.71l-2.64-.42a.31.31 0 0 1-.25-.16.42.42 0 0 1 0-.31l.44-1.38a.66.66 0 0 1 .59-.43l2.81.08a1.52 1.52 0 0 0 .95-.43 6.17 6.17 0 0 1 .66-.6.59.59 0 0 0 .25-.45.56.56 0 0 0-.16-.43l-1.18-1.19a.24.24 0 0 1-.08-.23.29.29 0 0 1 .19-.2l2.44-1a.78.78 0 0 1 .34-.05 1 1 0 0 1 .52.13l1.63 1.09a1.72 1.72 0 0 0 .83.22h.23a15.62 15.62 0 0 1 1.57-.22 1.23 1.23 0 0 0 .88-.58l.62-1.22a.81.81 0 0 1 .64-.38h0l3 .29a.39.39 0 0 1 .28.15.48.48 0 0 1 .09.32l-.15 1.18a.75.75 0 0 0 .51.81 11.15 11.15 0 0 1 1.26.46 1.62 1.62 0 0 0 .65.11 1.24 1.24 0 0 0 .43-.05l2.39-.79h.24a1 1 0 0 1 .59.19l1.54 1.3a.28.28 0 0 1 .11.22.25.25 0 0 1-.17.2l-2 1a.65.65 0 0 0-.28.86 3.24 3.24 0 0 1 .19.52 1 1 0 0 0 .72.7l2.66.43a.35.35 0 0 1 .25.16.42.42 0 0 1 0 .31l-.44 1.37a.67.67 0 0 1-.6.44l-2.79-.08a1.52 1.52 0 0 0-1 .43 5.42 5.42 0 0 1-.67.6.66.66 0 0 0-.25.44.58.58 0 0 0 .17.44l1.09 1.19a.25.25 0 0 1-.1.43l-2.42 1a.92.92 0 0 1-.33.06 1.06 1.06 0 0 1-.52-.13l-1.63-1.09a1.52 1.52 0 0 0-.83-.22h-.1l-1.57.21a1.21 1.21 0 0 0-.88.59l-.62 1.2a.76.76 0 0 1-.64.39h0m1.11-11.33a9.06 9.06 0 0 0-3.49.66 3.82 3.82 0 0 0-2.58 2.62 2.51 2.51 0 0 0 1 2.31 7.58 7.58 0 0 0 4.73 1.45 9.24 9.24 0 0 0 3.48-.66 3.83 3.83 0 0 0 2.57-2.64 2.51 2.51 0 0 0-1-2.31 7.53 7.53 0 0 0-4.72-1.43" fill="#f4f4f4"/><path d="M91.4 216.39h0l3 .28a.3.3 0 0 1 .21.12.36.36 0 0 1 .06.25l-.15 1.17a.89.89 0 0 0 .59 1 10.11 10.11 0 0 1 1.24.44 1.89 1.89 0 0 0 .7.13 1.49 1.49 0 0 0 .47-.07l2.38-.77a.74.74 0 0 1 .21 0 .79.79 0 0 1 .51.16l1.55 1.29a.22.22 0 0 1 .08.13.18.18 0 0 1-.12.12l-1.93 1a.75.75 0 0 0-.32 1 4.24 4.24 0 0 1 .18.5 1.09 1.09 0 0 0 .81.78l2.65.43a.25.25 0 0 1 .17.11.28.28 0 0 1 0 .22l-.44 1.38a.55.55 0 0 1-.5.36h0l-2.75-.22h0a1.64 1.64 0 0 0-1 .47 7.32 7.32 0 0 1-.66.59.75.75 0 0 0-.28.52.72.72 0 0 0 .19.52l1.09 1.18a.17.17 0 0 1 0 .15.18.18 0 0 1-.12.12l-2.4 1.08a.7.7 0 0 1-.29 0 .83.83 0 0 1-.46-.12l-1.63-1.08a1.67 1.67 0 0 0-.89-.25h-.25c-.51.1-1 .16-1.56.21a1.32 1.32 0 0 0-1 .65l-.65 1.23a.67.67 0 0 1-.55.33h0l-3-.29a.28.28 0 0 1-.21-.1.32.32 0 0 1-.07-.25l.15-1.18a.86.86 0 0 0-.6-1c-.43-.13-.85-.29-1.24-.45a1.68 1.68 0 0 0-.7-.13 1.82 1.82 0 0 0-.46.06l-2.38.79h-.2a.9.9 0 0 1-.53-.17l-1.64-1.24c-.06 0-.09-.08-.08-.12a.21.21 0 0 1 .11-.12l2-1a.77.77 0 0 0 .33-1 4.24 4.24 0 0 1-.18-.5 1.16 1.16 0 0 0-.81-.78l-2.64-.32a.31.31 0 0 1-.18-.11.24.24 0 0 1 0-.23l.44-1.37a.55.55 0 0 1 .5-.36h0l2.78.07h0a1.58 1.58 0 0 0 1-.45 5.25 5.25 0 0 1 .65-.6.68.68 0 0 0 .29-.52.67.67 0 0 0-.18-.52l-1.06-1.18a.2.2 0 0 1-.06-.14.38.38 0 0 1 .13-.12l2.45-1a.71.71 0 0 1 .29 0 1 1 0 0 1 .46.11l1.63 1.09a1.76 1.76 0 0 0 .9.24.88.88 0 0 0 .23 0 13.77 13.77 0 0 1 1.57-.21 1.36 1.36 0 0 0 1-.65l.62-1.2a.67.67 0 0 1 .54-.34m-1.06 11.36a9.22 9.22 0 0 0 3.52-.67 3.92 3.92 0 0 0 2.65-2.71 2.63 2.63 0 0 0-1.07-2.49 7.62 7.62 0 0 0-4.77-1.46 9.26 9.26 0 0 0-3.53.66 3.91 3.91 0 0 0-2.64 2.72 2.6 2.6 0 0 0 1.06 2.39 7.62 7.62 0 0 0 4.77 1.46m1.06-11.57a.91.91 0 0 0-.73.44l-.65 1.24a1.16 1.16 0 0 1-.8.52 9.39 9.39 0 0 0-1.58.22h-.2a1.56 1.56 0 0 1-.79-.21L85 217.33a1.08 1.08 0 0 0-.58-.16.9.9 0 0 0-.37.07l-2.46 1a.37.37 0 0 0-.23.46.36.36 0 0 0 .1.15l1.13 1.15a.5.5 0 0 1 0 .69h0a6.47 6.47 0 0 0-.67.61 1.36 1.36 0 0 1-.89.4h0l-2.79-.08h0a.75.75 0 0 0-.68.51l-.56 1.45a.45.45 0 0 0 .26.59h.1l2.65.43a.87.87 0 0 1 .64.62 3.24 3.24 0 0 0 .19.52.56.56 0 0 1-.23.74l-2 1a.33.33 0 0 0-.21.43.34.34 0 0 0 .13.16l1.55 1.3a1.05 1.05 0 0 0 .66.22.62.62 0 0 0 .27 0l2.37-.77a1.4 1.4 0 0 1 .41-.06 1.87 1.87 0 0 1 .61.11 10.64 10.64 0 0 0 1.27.46.66.66 0 0 1 .45.69l-.12 1.2a.54.54 0 0 0 .44.6h0l3 .29h0a.92.92 0 0 0 .74-.45l.62-1.21a1.12 1.12 0 0 1 .8-.53 9.37 9.37 0 0 0 1.58-.21.74.74 0 0 1 .21 0 1.58 1.58 0 0 1 .77.2L96 231a1 1 0 0 0 .58.15.94.94 0 0 0 .37-.07l2.45-1a.35.35 0 0 0 .25-.43.42.42 0 0 0-.11-.18l-1.13-1.22a.48.48 0 0 1 0-.68h0a7.8 7.8 0 0 0 .68-.61 1.33 1.33 0 0 1 .88-.4h0l2.78.08h0a.8.8 0 0 0 .7-.51l.44-1.38a.47.47 0 0 0-.3-.59h-.07l-2.65-.43a.89.89 0 0 1-.64-.62 3.35 3.35 0 0 0-.19-.53.55.55 0 0 1 .23-.73l2-1a.33.33 0 0 0 .21-.42.31.31 0 0 0-.14-.18l-1.53-1.29a1 1 0 0 0-.66-.22 1.31 1.31 0 0 0-.28 0l-2.38.78a1.34 1.34 0 0 1-.4.06 1.57 1.57 0 0 1-.61-.11 11.15 11.15 0 0 0-1.26-.46.66.66 0 0 1-.45-.69l.15-1.17a.51.51 0 0 0-.44-.59h0l-3-.28h-.06m-1.12 11.24a7.49 7.49 0 0 1-4.66-1.4c-1.81-1.53-1.13-3.66 1.52-4.78a9.27 9.27 0 0 1 3.45-.65 7.4 7.4 0 0 1 4.65 1.42c1.82 1.53 1.13 3.65-1.52 4.77a9.17 9.17 0 0 1-3.44.64" class="I"/><use xlink:href="#AE" class="R"/><g clip-path="url(#C)"><g class="M"><use xlink:href="#AE"/></g></g><path d="M112.84 238.56l-2.44-.23a.36.36 0 0 1-.21-.11.35.35 0 0 1-.06-.24l.12-1a.62.62 0 0 0-.43-.66l-.95-.37a1.56 1.56 0 0 0-.57-.11 1 1 0 0 0-.35.06l-1.91.62h-.19a.82.82 0 0 1-.46-.16l-1.22-1a.21.21 0 0 1-.09-.15.17.17 0 0 1 .13-.14l1.56-.83a.53.53 0 0 0 .24-.71 2.86 2.86 0 0 1-.15-.41.82.82 0 0 0-.59-.58l-2.11-.34a.31.31 0 0 1-.2-.11.3.3 0 0 1 0-.23l.36-1.1a.52.52 0 0 1 .45-.34l2.23.07a1.2 1.2 0 0 0 .8-.35 6 6 0 0 1 .53-.48.53.53 0 0 0 .2-.36.53.53 0 0 0-.12-.37l-.88-1a.18.18 0 0 1-.06-.17.24.24 0 0 1 .13-.15l2-.81h.25a.87.87 0 0 1 .41.11l1.3.87a1.29 1.29 0 0 0 .67.18.6.6 0 0 0 .19 0 12.95 12.95 0 0 1 1.25-.17 1 1 0 0 0 .72-.48l.49-1a.62.62 0 0 1 .49-.29l2.46.23a.36.36 0 0 1 .22.11.28.28 0 0 1 .06.25l-.12 1a.62.62 0 0 0 .43.66 10 10 0 0 1 1 .37 1.6 1.6 0 0 0 .53.09 1 1 0 0 0 .35 0l1.91-.62h.18a.86.86 0 0 1 .46.14l1.23 1a.22.22 0 0 1 .09.16.25.25 0 0 1-.13.14l-1.57.81a.53.53 0 0 0-.23.72c0 .14.11.28.15.41a.76.76 0 0 0 .59.57l2.11.35a.25.25 0 0 1 .18.11.25.25 0 0 1 0 .24l-.34 1.09a.51.51 0 0 1-.45.33l-2.23-.06a1.22 1.22 0 0 0-.81.35 5.91 5.91 0 0 1-.52.48.54.54 0 0 0-.21.37.47.47 0 0 0 .13.36l.87 1a.22.22 0 0 1 .09.1.2.2 0 0 1-.14.14l-2 .81h-.26a.71.71 0 0 1-.4-.11l-1.28-.84a1.36 1.36 0 0 0-.68-.18h-.18a12.95 12.95 0 0 1-1.25.17 1.06 1.06 0 0 0-.73.48l-.49 1a.61.61 0 0 1-.49.29zm.88-9.05a7.34 7.34 0 0 0-2.78.52 3.08 3.08 0 0 0-2.07 2.12 2 2 0 0 0 .83 1.91 6 6 0 0 0 3.82 1.15 7.2 7.2 0 0 0 2.78-.53 3 3 0 0 0 2.07-2.12 2 2 0 0 0-.83-1.85 6 6 0 0 0-3.82-1.15" fill="#f4f4f4"/><path d="M114.32 226.22h0l2.43.23a.21.21 0 0 1 .14.07.22.22 0 0 1 0 .16l-.13 1a.77.77 0 0 0 .51.79l1 .35a1.51 1.51 0 0 0 .56.11 1.32 1.32 0 0 0 .39-.06l1.91-.62h.14a.72.72 0 0 1 .4.12l1.23 1a.08.08 0 0 1 0 .07l-.06.06-1.58.81a.64.64 0 0 0-.27.86c0 .13.1.26.14.39a.89.89 0 0 0 .68.65l2.11.34a.26.26 0 0 1 .11.07.17.17 0 0 1 0 .14l-.35 1.1a.38.38 0 0 1-.35.26l-2.13-.12h0a1.31 1.31 0 0 0-.85.38c-.17.17-.34.32-.52.47a.66.66 0 0 0-.25.45.6.6 0 0 0 .16.44l.87.95v.08c0 .02 0 0-.07.06l-1.91.82h-.22a.74.74 0 0 1-.35-.1l-1.3-.86a1.43 1.43 0 0 0-.73-.2h-.2a12.34 12.34 0 0 1-1.24.17 1.08 1.08 0 0 0-.81.54l-.49 1a.52.52 0 0 1-.4.24h0l-2.44-.23a.27.27 0 0 1-.13-.07.25.25 0 0 1 0-.17l.11-.95a.73.73 0 0 0-.5-.79 7.89 7.89 0 0 1-1-.36 1.4 1.4 0 0 0-.57-.1 1 1 0 0 0-.38.05l-1.91.62a.22.22 0 0 1-.16 0 .58.58 0 0 1-.38-.11l-1.23-1a.05.05 0 0 1 0-.06c0-.06 0 0 .07-.06l1.57-.82a.63.63 0 0 0 .28-.85h0a2.24 2.24 0 0 1-.14-.39 1 1 0 0 0-.69-.65l-2.1-.34a.12.12 0 0 1-.11-.07.17.17 0 0 1 0-.14l.34-1.09a.41.41 0 0 1 .36-.26l2.22.06h0a1.38 1.38 0 0 0 .86-.38 4.51 4.51 0 0 1 .51-.47.61.61 0 0 0 .24-.44.58.58 0 0 0-.15-.45l-.87-.95s-.05-.06 0-.08 0 0 .07-.06l2-.82h.21a.74.74 0 0 1 .36.09l1.29.86a1.43 1.43 0 0 0 .73.2h.21a12.35 12.35 0 0 1 1.24-.16 1.11 1.11 0 0 0 .81-.55l.49-.95a.5.5 0 0 1 .39-.24m-.84 9a7.32 7.32 0 0 0 2.82-.53 3.16 3.16 0 0 0 2.14-2.2 2.16 2.16 0 0 0-.87-1.91 6.07 6.07 0 0 0-3.82-1.17 7.19 7.19 0 0 0-2.86.53 3.11 3.11 0 0 0-2.13 2.2 2.11 2.11 0 0 0 .86 1.91 6.07 6.07 0 0 0 3.82 1.17m.84-9.26a.73.73 0 0 0-.59.35l-.49 1a.87.87 0 0 1-.63.42 10.33 10.33 0 0 0-1.26.17h-.18a1.21 1.21 0 0 1-.61-.16l-1.37-.75a1 1 0 0 0-.47-.12 1 1 0 0 0-.3.05l-1.91.82a.27.27 0 0 0-.19.35.22.22 0 0 0 .08.13l.87 1a.38.38 0 0 1 0 .54h0a6.15 6.15 0 0 0-.53.49 1.16 1.16 0 0 1-.71.32h0l-2.23-.06h0a.61.61 0 0 0-.55.41l-.34 1.09a.35.35 0 0 0 .19.46h.09l2.11.35a.7.7 0 0 1 .51.49 2.6 2.6 0 0 0 .15.42.43.43 0 0 1-.18.59l-1.56.82a.26.26 0 0 0-.17.34.28.28 0 0 0 .11.13l1.22 1a.9.9 0 0 0 .53.17h.22l1.91-.62a.81.81 0 0 1 .31 0 1.18 1.18 0 0 1 .49.08l1 .37a.51.51 0 0 1 .35.55l-.12.95a.43.43 0 0 0 .36.48h0l2.43.23h0a.72.72 0 0 0 .59-.35l.49-1a.89.89 0 0 1 .64-.42c.42 0 .84-.09 1.26-.17h.03a1.23 1.23 0 0 1 .62.17l1.3.86a.84.84 0 0 0 .46.13 1.4 1.4 0 0 0 .29 0l2-.83a.26.26 0 0 0 .2-.33.22.22 0 0 0-.08-.14l-.88-1a.38.38 0 0 1 0-.55h0l.54-.49a1.11 1.11 0 0 1 .7-.32h0l2.22.06h0a.62.62 0 0 0 .55-.4l.35-1.09a.37.37 0 0 0-.21-.47h-.08l-2.11-.35a.7.7 0 0 1-.51-.49 1.92 1.92 0 0 0-.16-.42.45.45 0 0 1 .19-.59l1.57-.81a.26.26 0 0 0 .16-.34.21.21 0 0 0-.1-.13l-1.23-1a.9.9 0 0 0-.53-.17h-.21l-1.91.62a.86.86 0 0 1-.32 0 1.51 1.51 0 0 1-.48-.08 9.48 9.48 0 0 0-1-.38.5.5 0 0 1-.36-.55l.12-.95a.43.43 0 0 0-.36-.48h0l-2.42-.23h0m-.84 9a5.91 5.91 0 0 1-3.69-1.17c-1.45-1.22-.9-2.87 1.22-3.82a7.15 7.15 0 0 1 2.74-.53 5.93 5.93 0 0 1 3.71 1.13c1.45 1.22.91 2.92-1.21 3.82a7.53 7.53 0 0 1-2.74.52" class="I"/><path d="M137.17,188.93l-13.95-8.05a14.26,14.26,0,0,0-10.78-.85l-8.28,3.19a48.14,48.14,0,0,0-10.3,5.86l-8.43,6.63a4.22,4.22,0,0,0-1.8,3.26v1.91a4.07,4.07,0,0,0,2.29,3.4l14,8.06a11.48,11.48,0,0,0,10.37,0l26.93-15.55a3.61,3.61,0,0,0,2.14-3v-1.91a3.62,3.62,0,0,0-2.14-3" class="R"/><use xlink:href="#AF" class="I"/><g clip-path="url(#D)"><g class="M"><use xlink:href="#AF"/></g></g><path d="M112.44,180l-8.28,3.19a48.14,48.14,0,0,0-10.3,5.86l-8.43,6.63c-2.6,2-2.38,5,.49,6.69l14,8.06a11.48,11.48,0,0,0,10.37,0l26.93-15.55c2.87-1.66,2.87-4.34,0-6l-13.95-8a14.26,14.26,0,0,0-10.78-.85" fill="#efefef"/><g clip-path="url(#E)"><g class="M"><path d="M123.22,180.88a14.26,14.26,0,0,0-10.78-.85l-8.28,3.19a48.14,48.14,0,0,0-10.3,5.86l-8.43,6.63a4.22,4.22,0,0,0-1.8,3.26v1.91a4,4,0,0,0,2.29,3.4l7.77,4.49v-1.91L131,185.31Z"/></g></g><use xlink:href="#AG" class="I"/><g clip-path="url(#F)"><g class="M"><use xlink:href="#AG"/></g></g><path d="M108.53,169.55a6.82,6.82,0,0,0,5.21,0c1.2-.7,1.2-2.05,0-3l-2.17-1.76a24.85,24.85,0,0,0-6.07,3.52l3,1.26" class="I"/><path d="M61.28,209.64a4.92,4.92,0,0,0,4.45-.09l104.59-60.38a5.09,5.09,0,0,0,2.29-4V48.54a4.3,4.3,0,0,0-6.6-3.81L61.42,105.11a5.13,5.13,0,0,0-2.3,4v96.64a5,5,0,0,0,2.16,3.9" class="H"/><path d="M65.73,209.55l104.59-60.39a5.06,5.06,0,0,0,2.29-4V48.54c0-1.47-1-2.06-2.29-1.33L65.73,107.61a5,5,0,0,0-2.29,4v96.6c0,1.47,1,2.07,2.29,1.33" class="F"/><path d="M63.42,200.41v7.77c0,1.47,1,2.07,2.29,1.33L170.3,149.12a5,5,0,0,0,2.29-4v-7.83Z" class="S"/><path d="M116.75,174l5.2-3c.47-.27.84-.08.85.42a1.82,1.82,0,0,1-.85,1.4l-5.2,3c-.45.27-.84.08-.84-.43a1.83,1.83,0,0,1,.84-1.39" class="C"/><path d="M69.46 189.88a.88.88 0 0 1-.39-.11.74.74 0 0 1-.37-.65v-76.4a1.09 1.09 0 0 1 .14-.23h0l97.51-56.4a.79.79 0 0 1 .76 0 .76.76 0 0 1 .38.66v76.4a.72.72 0 0 1-.14.24l-.05.05-97.47 56.34a.84.84 0 0 1-.38.11m-.3-77v76.23a.35.35 0 0 0 .17.3.34.34 0 0 0 .34 0L167.14 133h0V56.73a.33.33 0 0 0-.17-.3.3.3 0 0 0-.34 0l-97.48 56.42" class="H"/><path d="M167.34,63.83v-7.1a.55.55,0,0,0-.56-.55.48.48,0,0,0-.26.07L69,112.69a.34.34,0,0,0-.1.16v7.94Z" class="F"/><path d="M71.2,112.63l.6-.35a.34.34,0,0,1,.55.31v.7a1.19,1.19,0,0,1-.55.95l-.6.36a.33.33,0,0,1-.53-.31v-.71a1.18,1.18,0,0,1,.53-1" class="C"/><path d="M86.34,107.42l.6-.34a.33.33,0,0,1,.54.31v.69a1.22,1.22,0,0,1-.54,1l-.6.34a.34.34,0,0,1-.55-.3v-.7a1.22,1.22,0,0,1,.55-1" class="D"/><path d="M165.74,58.14c.41-.24.73,0,.73.43a1.66,1.66,0,0,1-.73,1.28c-.42.24-.75,0-.75-.43a1.63,1.63,0,0,1,.75-1.28" class="I"/><path d="M52.91,113.33a.39.39,0,0,0-.39,0l-9.22,5.32a1.24,1.24,0,0,0-.55.95v59.73a.42.42,0,0,0,.16.36l1.8,1a.39.39,0,0,0,.39,0l9.23-5.32a1.24,1.24,0,0,0,.54-1V114.72a.35.35,0,0,0-.16-.35l-1.8-1" class="H"/><path d="M44.52,122.74l.16-2.6-1.79-1a1,1,0,0,0-.16.54v59.73a.39.39,0,0,0,.15.36l1.8,1a.39.39,0,0,0,.39,0l-.55-.32Z" class="F"/><path d="M44.52,120.68v59.73c0,.36.25.5.55.32l9.23-5.32a1.24,1.24,0,0,0,.54-1V114.72c0-.35-.24-.5-.54-.31l-9.23,5.31a1.25,1.25,0,0,0-.55,1" class="H"/><path d="M54.3,114.41l-9.23,5.31a1.25,1.25,0,0,0-.55,1v2.06l10.3-6v-2.06c0-.35-.24-.5-.54-.31" class="F"/><path d="M46,168.38l4.35-2.5a.36.36,0,0,1,.58.33v5a1.32,1.32,0,0,1-.58,1L46,174.76a.36.36,0,0,1-.58-.34v-5a1.3,1.3,0,0,1,.59-1" class="E"/><g class="H"><path d="M227,45.1a1.23,1.23,0,0,0-.59.18L203.6,58.45a2.9,2.9,0,0,0-1.32,2.29v28c0,.67.36,1.24.88,1.24a1,1,0,0,0,.44-.13l22.84-13.19a2.87,2.87,0,0,0,1.32-2.29V46.05c0-.6-.3-1-.73-1"/><path d="M202.66,89.77h.06l-.1-.08"/></g><path d="M202.06,65.14a.09.09,0,0,1-.09-.06.1.1,0,0,1,0-.15h0l2-1.18v-2a.12.12,0,0,1,0-.1l5.41-3.12a.11.11,0,0,1,.11,0,.1.1,0,0,1,.06.09v1.91l17.85-10.3a.11.11,0,1,1,.15.15l-18,10.42a.11.11,0,0,1-.11,0,.08.08,0,0,1,0-.09V58.83l-5.19,3v2a.11.11,0,0,1-.06.1l-2,1.2h-.06" class="D"/><g class="F"><path d="M209.87 58.42l5.41-3.11v1.63l-5.41 3.11v-1.63zm5.74-3.32l5.41-3.11v1.62l-5.41 3.12V55.1z"/></g><g class="I"><path d="M204.08 65.94l.65-.38a.35.35 0 0 1 .57.33v.76a1.26 1.26 0 0 1-.57.95l-.65.38a.36.36 0 0 1-.58-.33v-.75a1.29 1.29 0 0 1 .58-1m8.97-5.14l.65-.38a.36.36 0 0 1 .58.34v.74a1.27 1.27 0 0 1-.58 1l-.65.38a.36.36 0 0 1-.58-.34v-.74a1.25 1.25 0 0 1 .58-1"/></g><path d="M215.26,59.47l4.64-2.68a.24.24,0,0,1,.38.22v1.24a.84.84,0,0,1-.38.67l-4.64,2.68a.24.24,0,0,1-.38-.22V60.16a.88.88,0,0,1,.38-.67" class="F"/><g clip-path="url(#H)" class="G"><g class="L"><path d="M211.29,68.35a.32.32,0,0,1-.29-.17.33.33,0,0,1,.12-.45l7.27-4.21a.37.37,0,0,1,.46.13.35.35,0,0,1-.12.46l-7.28,4.2h-.16"/></g></g><g clip-path="url(#I)" class="G"><g class="L"><path d="M211.29,72.51a.34.34,0,0,1-.29-.16.34.34,0,0,1,.12-.46l5.4-3.12a.34.34,0,0,1,.34.58h0l-5.41,3.11a.24.24,0,0,1-.16.05"/></g></g><g clip-path="url(#J)" class="G"><g class="L"><path d="M211.29,76.67a.33.33,0,0,1-.18-.61h0l9-5.2a.32.32,0,0,1,.44.12h0a.33.33,0,0,1-.11.45h0l-9,5.21a.43.43,0,0,1-.16,0"/></g></g><g clip-path="url(#K)" class="G"><g class="L"><path d="M211.29,80.83a.33.33,0,0,1-.17-.62l3.61-2.07a.31.31,0,0,1,.44.11h0a.33.33,0,0,1-.11.46l-3.62,2.08h-.16"/></g></g><path d="M226.21 54.3l-1.79 1.04v19.9l1.79-1.04V54.3z" class="F"/><path d="M225.32 55.39a1.17 1.17 0 0 0-.49 1v15.4c0 .38.22.55.49.39a1.19 1.19 0 0 0 .48-1V55.77c0-.36-.22-.53-.48-.38" class="H"/><path d="M234.83 75.44l1.61 1a.82.82 0 0 0-.3-.07 1.23 1.23 0 0 0-.59.18L203.59 95a2.92 2.92 0 0 0-1.32 2.28v41.54a1 1 0 0 0 .14.28.33.33 0 0 0 .06.1.52.52 0 0 0 .1.11h0l.1.09h0l-1.57-.9a1.25 1.25 0 0 1-.56-1.14v-41A2.78 2.78 0 0 1 201.9 94l32-18.59a1 1 0 0 1 1-.07" class="D"/><g class="H"><path d="M236.14,76.25a1.15,1.15,0,0,0-.59.19l-32,18.45a2.86,2.86,0,0,0-1.32,2.28v41c0,.66.36,1.24.88,1.24a1,1,0,0,0,.44-.14l31.94-18.47a2.85,2.85,0,0,0,1.33-2.28V77.2c0-.6-.3-1-.73-1"/><path d="M202.66,139.21a.06.06,0,0,1,.06,0h0l-.1-.08"/></g><path d="M202.06,101.56a.07.07,0,0,1-.09,0,.1.1,0,0,1,0-.15h0l2-1.18v-2a.12.12,0,0,1,0-.1L209.39,95a.11.11,0,0,1,.11,0,.1.1,0,0,1,.06.09V97l27-15.58a.1.1,0,1,1,.1.15L209.53,97.26a.11.11,0,0,1-.11,0,.07.07,0,0,1,0-.09V95.26l-5.19,3v2a.11.11,0,0,1-.06.1l-2,1.21h-.06" class="D"/><g class="F"><path d="M209.87 94.86l5.41-3.13v1.63l-5.41 3.12v-1.62zm5.74-3.33l5.41-3.12v1.62l-5.41 3.13v-1.63zm19.71-6.08l-1.8 1.04v26.25l1.8-1.04V85.45z"/></g><path d="M234.43,86.58a1.17,1.17,0,0,0-.49,1V103c0,.38.22.55.49.4a1.21,1.21,0,0,0,.48-1V87c0-.36-.22-.54-.48-.38" class="H"/><path d="M207.98 109.74l3.7-2.13v4.27l-3.7 2.12v-4.26z" class="E"/><path d="M207.98 109.74l3.7-2.13v4.27l-3.7 2.12v-4.26z" stroke="#1a2e35" stroke-miterlimit="9.549705386161804" stroke-width=".115" class="B"/><path d="M211.64 109.69l-.84.48a.66.66 0 0 0-.29-.55.66.66 0 0 0-.61 0v-1h-.13v1a2.2 2.2 0 0 0-.9 1.56l-.82.48v.15l.83-.47a.66.66 0 0 0 .29.54.52.52 0 0 0 .27.07.88.88 0 0 0 .35-.1v1l.13-.06v-1a2.11 2.11 0 0 0 1-1.58l.83-.48zm-1.39 0a.42.42 0 0 1 .21.06.57.57 0 0 1 .24.5l-.8.46v-1a.83.83 0 0 1 .35-.1m-.5.19v1l-.76.44a2 2 0 0 1 .77-1.36m-.55 2a.61.61 0 0 1-.23-.5l.8-.46v1a.64.64 0 0 1-.57 0m.7-.13v-1l.79-.44a2 2 0 0 1-.79 1.36" class="F"/><path d="M204.29 111.88l3.69-2.14V114l-3.69 2.14v-4.26z" class="E"/><path d="M204.23,116.24v-4.4l3.82-2.2V114Zm.11-4.34v4.15l3.59-2.07v-4.16Z" class="D"/><path d="M207.53 110.06l-3.19 5.53v.46l.4-.23 3.19-5.53v-.45l-.4.22z" class="C"/><use xlink:href="#AH" class="E"/><path d="M211.62,112v-4.4l3.82-2.2v4.45Zm.12-4.34v4.1l3.58-2.06v-4.14Z" class="D"/><path d="M215.38 108.93l-.7 1.22.7-.41v-.81z" class="E"/><path d="M214.62,110.2l.78-1.34v.89h0Zm.74-1.19-.63,1.07.63-.35Z" class="D"/><use xlink:href="#AI"/><path d="M215.32,109.82v-4.4l3.82-2.2v4.4Zm.11-4.33v4.13l3.59-2.07v-4.14Z" class="D"/><path d="M219.08 106.79l-.71 1.22.71-.4v-.82z" class="E"/><path d="M218.32,108.06l.78-1.34v.9h0Zm.73-1.18-.61,1.07.61-.35Z" class="D"/><path d="M204.76,118.94l.55-.31a.3.3,0,0,1,.34,0,.32.32,0,0,0,.35,0l1.45-.84a.12.12,0,0,1,.2.11v1.69a.44.44,0,0,1-.2.34l-2.69,1.61c-.11.07-.2,0-.2-.12v-2.13a.46.46,0,0,1,.2-.35" class="I"/><path d="M207.98 116.39l3.7-2.13v4.27l-3.7 2.13v-4.27h0z" class="C"/><g clip-path="url(#L)" class="G"><g class="L"><path d="M207.98 116.39l3.7-2.13v4.27l-3.7 2.13v-4.27h0z"/></g></g><path d="M207.93,120.77v-4.41l3.82-2.19v4.39Zm.11-4.34v4.14l3.58-2.07v-4.14Z" class="D"/><path d="M211.68 117.73l-.7 1.2.7-.4v-.8z" class="E"/><path d="M210.92,119l.79-1.35v.9h0Zm.74-1.18-.62,1.06.62-.35Z" class="D"/><path d="M211.68 114.26l3.7-2.13v4.26l-3.7 2.14v-4.27z" class="C"/><g clip-path="url(#M)" class="G"><g class="N"><path d="M211.68 114.26l3.7-2.13v4.26l-3.7 2.14v-4.27z"/></g></g><path d="M211.62,118.63v-4.41l3.82-2.19v4.4Zm.12-4.34v4.13l3.58-2.08v-4.13Z" class="D"/><path d="M215.38 115.59l-.7 1.21.7-.4v-.81z" class="E"/><path d="M214.62,116.86l.78-1.35v.9h0Zm.74-1.19-.63,1.08.63-.37Z" class="D"/><path d="M215.38 112.12l3.7-2.13v4.27l-3.7 2.13v-4.27z" class="C"/><g clip-path="url(#N)" class="G"><g opacity=".5"><path d="M215.38 112.12l3.7-2.13v4.27l-3.7 2.13v-4.27z"/></g></g><path d="M215.32,116.51V112.1l3.82-2.19v4.39Zm.11-4.34v4.14l3.59-2.07V110.1Z" class="D"/><path d="M219.08 113.46l-.71 1.2.71-.4v-.8z" class="E"/><path d="M218.32,114.72l.78-1.35v.9h0Zm.73-1.18-.61,1.07.61-.36Z" class="D"/><path d="M219.08 109.99l3.7-2.14v4.27l-3.7 2.14v-4.27z" class="C"/><g clip-path="url(#O)" class="G"><g opacity=".65"><path d="M219.08 109.99l3.7-2.14v4.27l-3.7 2.14v-4.27z"/></g></g><path d="M219,114.36V110l3.82-2.2v4.4Zm.11-4.34v4.15l3.59-2.08V108Z" class="D"/><path d="M222.78 111.32l-.71 1.21.71-.4v-.81z" class="E"/><path d="M222,112.59l.78-1.35v.9h0Zm.74-1.19-.61,1.08.61-.37Z" class="D"/><path d="M222.78 107.85l3.69-2.13v4.27l-3.69 2.13v-4.27z" class="C"/><g clip-path="url(#P)" class="G"><g opacity=".8"><path d="M222.78 107.85l3.69-2.13v4.27l-3.69 2.13v-4.27z"/></g></g><path d="M222.72,112.23v-4.4l3.82-2.2V110Zm.11-4.34V112l3.58-2.07v-4.14Z" class="D"/><path d="M226.47 109.19l-.7 1.2.7-.4v-.8z" class="E"/><path d="M225.71,110.45l.78-1.34V110h0Zm.73-1.18-.61,1.07.61-.36Z" class="D"/><path d="M226.47 105.72l3.7-2.13v4.26l-3.7 2.14v-4.27z" class="C"/><g clip-path="url(#Q)" class="G"><g opacity=".95"><path d="M226.47 105.72l3.7-2.13v4.26l-3.7 2.14v-4.27z"/></g></g><path d="M226.41,110.09V105.7l3.82-2.21v4.42Zm.12-4.34v4.15l3.58-2.07v-4.14Z" class="D"/><path d="M230.17 107.05l-.7 1.22.7-.42v-.8z" class="E"/><path d="M229.41,108.32l.78-1.34v.89h0Zm.74-1.19-.62,1.08.62-.37Z" class="D"/><path d="M204.76 125.34l.55-.32a.34.34 0 0 1 .34 0 .29.29 0 0 0 .35 0l1.45-.84a.13.13 0 0 1 .2.12v1.76a.44.44 0 0 1-.2.34l-2.69 1.6c-.11.05-.2 0-.2-.12v-2.18a.44.44 0 0 1 .2-.34" class="I"/><path d="M207.98 122.8l3.7-2.14v4.27l-3.7 2.14v-4.27z" class="C"/><g clip-path="url(#R)"><g class="M"><path d="M207.98 122.8l3.7-2.14v4.27l-3.7 2.14v-4.27z"/></g></g><path d="M207.93,127.16v-4.4l3.82-2.19V125Zm.11-4.33V127l3.58-2.06v-4.14Z" class="D"/><path d="M211.68 124.13l-.7 1.21.7-.41v-.8z" class="E"/><path d="M210.92,125.4l.79-1.35v.9h0Zm.74-1.2-.62,1.07.62-.35Z" class="D"/><path d="M211.68 120.66l3.7-2.13v4.27l-3.7 2.13v-4.27z" class="C"/><g clip-path="url(#S)"><g class="L"><path d="M211.68 120.66l3.7-2.13v4.27l-3.7 2.13v-4.27z"/></g></g><path d="M211.62,125v-4.4l3.82-2.19v4.39Zm.12-4.33v4.13l3.59-2.07v-4.13Z" class="D"/><path d="M215.38 121.99l-.7 1.21.7-.4v-.81z" class="E"/><path d="M214.62,123.26l.78-1.35v.9h0Zm.74-1.19-.62,1.07.62-.35Z" class="D"/><path d="M215.38 118.53l3.7-2.14v4.27l-3.7 2.14v-4.27z" class="C"/><g clip-path="url(#T)"><g class="K"><path d="M215.38 118.53l3.7-2.14v4.27l-3.7 2.14v-4.27z"/></g></g><path d="M215.32,122.9v-4.41l3.82-2.19v4.4Zm.11-4.34v4.13l3.59-2.06v-4.12Z" class="D"/><path d="M219.08 119.86l-.7 1.21.7-.41v-.8z" class="E"/><path d="M218.32,121.13l.78-1.35v.9h0Zm.73-1.2-.61,1.07.61-.35Z" class="D"/><path d="M219.08 116.39l3.7-2.13v4.27l-3.7 2.13v-4.27z" class="C"/><g clip-path="url(#U)"><g opacity=".4"><path d="M219.08 116.39l3.7-2.13v4.27l-3.7 2.13v-4.27z"/></g></g><path d="M219,120.77v-4.41l3.82-2.19v4.39Zm.12-4.34v4.14l3.58-2.08v-4.13Z" class="D"/><path d="M222.78 117.72l-.71 1.21.71-.4v-.81z" class="E"/><path d="M222,119l.78-1.35v.9h0Zm.74-1.18-.61,1.06.61-.35Z" class="D"/><path d="M222.78 114.26l3.69-2.14v4.27l-3.69 2.14v-4.27z" class="C"/><g clip-path="url(#V)"><g opacity=".5"><path d="M222.78 114.26l3.69-2.14v4.27l-3.69 2.14v-4.27z"/></g></g><path d="M222.72,118.63v-4.41l3.82-2.19v4.4Zm.11-4.34v4.13l3.58-2.07v-4.13Z" class="D"/><path d="M226.47 115.59l-.7 1.21.7-.41v-.8z" class="E"/><path d="M225.76,116.86l.78-1.35v.9h0Zm.74-1.19-.62,1.07.62-.36Z" class="D"/><path d="M226.47 112.12l3.7-2.13v4.27l-3.7 2.13v-4.27z" class="C"/><g clip-path="url(#W)"><g opacity=".6"><path d="M226.47 112.12l3.7-2.13v4.27l-3.7 2.13v-4.27z"/></g></g><path d="M226.41,116.51V112.1l3.82-2.19v4.39Zm.12-4.34v4.14l3.58-2.08V110.1Z" class="D"/><path d="M230.17 113.46l-.7 1.2.7-.4v-.8z" class="E"/><path d="M229.41,114.72l.78-1.35v.9h0Zm.74-1.18-.62,1.07.62-.36Z" class="D"/><path d="M209.89,101.83,206.2,104v4.27l3.69-2.13Zm-.84,3.82-1.62.95-.39.22V104.5l1.61-1,.4-.23Z" class="E"/><path d="M206.14,108.33v-4.4l3.82-2.2v4.4Zm.11-4.33v4.13l3.59-2.07v-4.14Z" class="D"/><g class="C"><path d="M207.04 106.77l.39-.22-.78 1.35-.4.23v-.46l.79-1.35v.45zm2.8-4.85v.46l-.79 1.36v-.45l-.4.23.79-1.37.4-.23z"/></g><path d="M207,106.86v-2.44l2.12-1.23v2.45Zm.11-2.39v2.21l1.91-1.1v-2.2Z" class="D"/><path d="M204.29 102.69l3.69-2.13v4.26l-3.69 2.14v-4.27z" class="C"/><path d="M204.23,107.05v-4.39l3.82-2.21v4.41Zm.11-4.33v4.14l3.59-2.07v-4.14Zm-170,147.85" class="D"/><g class="I"><path d="M233.37 116.46l-1.08.63v-.47l-.91.52v.47l-1.08.62v-.32l.84-.49v-.47l1.39-.79v.47l.84-.49v.32zm-1.42 3.46l-.24.14v-2.27l.24-.14v2.27zm.57-.32l-.24.14v-2.27l.24-.14v2.27zm-1.12.65l-.24.13v-2.27l.24-.14v2.28zm-.49-30.54v.85l.74-.43v-.85l-.74.43zm-.97.55v.86l.74-.43v-.86l-.74.43zm-.97.57v.85l.74-.42v-.86l-.74.43zm1.94 0v.85l.74-.42v-.86l-.74.43zm-.97.55v.86l.74-.43v-.85l-.74.42zm-.97.56v.85l.74-.42v-.85l-.74.42zm1.94 0v.85l.74-.42v-.85l-.74.42zm-.97.56v.86l.74-.43v-.85l-.74.42zm-.97.56v.86l.74-.43v-.86l-.74.43zm-4.61.47l2.73-1.58v.41l-2.73 1.58v-.41zm0 .89l2.73-1.59v.41l-2.73 1.58v-.4zm0 .88l2.73-1.58v.4l-2.73 1.59v-.41zm0 .89l2.73-1.59v.41l-2.73 1.58v-.4z"/></g><path d="M77 198.72a.86.86 0 0 0 .41-.13l115.85-67a3.5 3.5 0 0 0 1.55-2.68V58.68c0-.57-.25-1-.66-1a1.23 1.23 0 0 0-.61.2l-115.8 67a3.49 3.49 0 0 0-1.54 2.69v69.85a1.72 1.72 0 0 0 .26 1 .73.73 0 0 0 .59.35" class="G"/><path d="M74.45,197.68l2.07,1.17a1.72,1.72,0,0,1-.62-1.42V129.88l-2.17-1.26v67.61a1.66,1.66,0,0,0,.72,1.47" class="F"/><path d="M194.19,58c.33,0,.38.4.38.64v70.24a3.19,3.19,0,0,1-1.42,2.44l-115.85,67a.5.5,0,0,1-.26.08c-.31,0-.57-.47-.57-1V127.57a3.15,3.15,0,0,1,1.41-2.44L193.73,58.25a.94.94,0,0,1,.46-.16m0-.57a1.42,1.42,0,0,0-.75.24L77.59,124.63a3.75,3.75,0,0,0-1.69,2.94v69.85c0,.86.47,1.59,1.14,1.59a1.09,1.09,0,0,0,.55-.18l115.85-67a3.75,3.75,0,0,0,1.69-2.93V58.68c0-.76-.37-1.21-1-1.21" class="H"/><path d="M195.13 58.65V61L75.9 129.88l-2.17-1.26v-2.25a3.53 3.53 0 0 1 .52-1.7 3.37 3.37 0 0 1 1.17-1.23l115.85-66.93a1.21 1.21 0 0 1 1.24-.1l2.09 1.18a.71.71 0 0 1 .14.1.8.8 0 0 1 .13.13 1 1 0 0 1 .21.39.88.88 0 0 1 0 .23h0a1 1 0 0 1 0 .24" class="D"/><path d="M195.13 58.65V61L75.9 129.88v-2.28a2.92 2.92 0 0 1 .2-1 1.34 1.34 0 0 0 .07-.18l.24-.46a3.45 3.45 0 0 1 1.18-1.25l115.85-66.97a1.13 1.13 0 0 1 1.3-.05.8.8 0 0 1 .13.13 1 1 0 0 1 .21.39.88.88 0 0 1 0 .23h0a1 1 0 0 1 0 .24" class="F"/><g class="H"><path d="M193.44 57.71L77.59 124.63a3.68 3.68 0 0 0-1.19 1.26l-2.15-1.25a3.45 3.45 0 0 1 1.17-1.23l115.85-66.93a1.19 1.19 0 0 1 1.23-.1l2.08 1.18a1.19 1.19 0 0 0-1.14.15M75.9 129.85V134l118.67-68.55V61.3L75.9 129.85z"/><path d="M79.5,127.77v70l-1.91,1.09A1.11,1.11,0,0,1,77,199c-.67,0-1.15-.72-1.15-1.58V129.88l.56-.34Z"/></g><g class="I"><use xlink:href="#AJ"/><path d="M85.98 145.16l-.04-.05 29.17-16.85.04.06-29.17 16.84z"/><path d="M87.98 141.2h.07v38.9h-.07z"/><path d="M85.98 178.57l-.04-.06 29.17-16.83.04.04-29.17 16.85z"/><path d="M113.04 126.73h.07v38.9h-.07z"/><use xlink:href="#AK"/><path d="M115.11 164.47l-29.17-22.06.04-.04 29.17 22.05-.04.05z"/><use xlink:href="#AL"/><path d="M100.51 133.97h.07v38.9h-.07z"/><use xlink:href="#AM"/><path d="M105.3 131.2h.07v38.9h-.07zm-9.57 5.53h.07v38.9h-.07z"/><path d="M85.98 155.49l-.04-.06 29.17-16.84.04.05-29.17 16.85zm0 12.77l-.04-.06 29.17-16.85.04.06-29.17 16.85z"/><use xlink:href="#AN"/><use xlink:href="#AO"/><use xlink:href="#AP"/><use xlink:href="#AQ"/><path d="M83.87 185.26V140.8h0l33.34-19.25V166h0zm.06-44.42v44.31L117.16 166v-44.35zm.97 42.51v-41.71h0l31.28-18.06v41.63h0zm0-41.67v41.57l31.17-18v-41.62z"/></g><g clip-path="url(#Z)"><g opacity=".05"><use xlink:href="#AJ"/><path d="M85.98 145.16l-.04-.05 29.17-16.85.04.06-29.17 16.84z"/><path d="M87.98 141.2h.07v38.9h-.07z"/><path d="M85.98 178.57l-.04-.06 29.17-16.83.04.04-29.17 16.85z"/><path d="M113.04 126.73h.07v38.9h-.07z"/><use xlink:href="#AK"/><path d="M115.11 164.47l-29.17-22.06.04-.04 29.17 22.05-.04.05z"/><use xlink:href="#AL"/><path d="M100.51 133.97h.07v38.9h-.07z"/><use xlink:href="#AM"/><path d="M105.3 131.2h.07v38.9h-.07zm-9.57 5.53h.07v38.9h-.07z"/><path d="M85.98 155.49l-.04-.06 29.17-16.84.04.05-29.17 16.85zm0 12.77l-.04-.06 29.17-16.85.04.06-29.17 16.85z"/><use xlink:href="#AN"/><use xlink:href="#AO"/><use xlink:href="#AP"/><use xlink:href="#AQ"/><path d="M83.87 185.26V140.8h0l33.34-19.25V166h0zm.06-44.42v44.31L117.16 166v-44.35zm.97 42.51v-41.71h0l31.28-18.06v41.63h0zm0-41.67v41.57l31.17-18v-41.62z"/></g></g><g class="B T U"><g stroke="#24b2c0"><path d="M84.93 162.43l31.23-18.03-15.62-11.8-15.61 29.83z"/><path d="M89.93 176.25v-16.7l21.23-12.26V164l-21.23 12.25z"/></g><path d="M97.15 172.09v-12.18l6.78-3.94v12.2" stroke="#d168cb" class="V"/></g><g class="I"><use xlink:href="#AR"/><use xlink:href="#AS"/><path d="M124.23 120.27h.07v38.9h-.07z"/><path d="M122.23 157.64l-.03-.06 29.17-16.84.03.06-29.17 16.84z"/><path d="M149.29 105.8h.07v38.9h-.07z"/><path d="M122.24 160.37l-.06-.03 29.17-55.74.06.03-29.17 55.74z"/><path d="M151.36 143.54l-29.17-22.06.05-.05 29.16 22.05-.04.06z"/><use xlink:href="#AT"/><path d="M136.76 113.04h.07v38.9h-.07z"/><use xlink:href="#AU"/><path d="M141.56 110.27h.07v38.9h-.07zm-9.58 5.53h.07v38.9h-.07z"/><path d="M122.23 134.56l-.03-.06 29.17-16.85.03.06-29.17 16.85zm0 12.75l-.03-.04 29.17-16.85.03.06-29.17 16.83z"/><use xlink:href="#AV"/><use xlink:href="#AW"/><use xlink:href="#AX"/><use xlink:href="#AY"/><path d="M120.12 164.35v-44.47h0l33.33-19.25v44.47h0zm.06-44.43v44.33l33.23-19.18v-44.31zm.97 42.42v-41.72h0l31.28-18.06v41.72h0zm.06-41.68v41.57l31.17-18v-41.56z"/></g><g clip-path="url(#a)"><g opacity=".05"><use xlink:href="#AR"/><use xlink:href="#AS"/><path d="M124.23 120.27h.07v38.9h-.07z"/><path d="M122.23 157.64l-.03-.06 29.17-16.84.03.06-29.17 16.84z"/><path d="M149.29 105.8h.07v38.9h-.07z"/><path d="M122.24 160.37l-.06-.03 29.17-55.74.06.03-29.17 55.74z"/><path d="M151.36 143.54l-29.17-22.06.05-.05 29.16 22.05-.04.06z"/><use xlink:href="#AT"/><path d="M136.76 113.04h.07v38.9h-.07z"/><use xlink:href="#AU"/><path d="M141.56 110.27h.07v38.9h-.07zm-9.58 5.53h.07v38.9h-.07z"/><path d="M122.23 134.56l-.03-.06 29.17-16.85.03.06-29.17 16.85zm0 12.75l-.03-.04 29.17-16.85.03.06-29.17 16.83z"/><use xlink:href="#AV"/><use xlink:href="#AW"/><use xlink:href="#AX"/><use xlink:href="#AY"/><path d="M120.12 164.35v-44.47h0l33.33-19.25v44.47h0zm.06-44.43v44.33l33.23-19.18v-44.31zm.97 42.42v-41.72h0l31.28-18.06v41.72h0zm.06-41.68v41.57l31.17-18v-41.56z"/></g></g><g class="B T U"><path d="M147.46,140.93a4.1,4.1,0,0,1-1.86,3.2l-17.52,10.12c-1,.59-1.85.11-1.85-1.07V138.61l-2.87,1.68a.71.71,0,0,1-1-1l13.13-25.1a2.46,2.46,0,0,1,3.32-1,2.67,2.67,0,0,1,.36.22l11.78,8.9a1.26,1.26,0,0,1,.23,1.77,1.22,1.22,0,0,1-.36.32l-3.37,1.91Z" stroke="#24b2c0"/><path d="M140.18 147.22v-12.18l-6.77 3.91v12.17" stroke="#d168cb" class="V"/></g><g class="I"><use xlink:href="#AZ"/><use xlink:href="#Aa"/><path d="M160.75 99.19h.07v38.9h-.07z"/><path d="M158.74 136.56l-.03-.06 29.17-16.84.04.06-29.18 16.84z"/><path d="M185.81 84.72h.07v38.9h-.07z"/><path d="M158.75 139.29l-.05-.03 29.17-55.74.06.03-29.18 55.74z"/><path d="M187.88 122.46l-29.17-22.05.04-.06 29.17 22.06-.04.05z"/><use xlink:href="#Ab"/><path d="M173.28 91.95h.07v38.9h-.07z"/><use xlink:href="#Ac"/><path d="M178.06 89.19h.07v38.9h-.07zm-9.56 5.53h.07v38.9h-.07z"/><path d="M158.74 113.47l-.03-.06 29.17-16.83.04.04-29.18 16.85zm0 12.77l-.03-.06 29.17-16.85.04.06-29.18 16.85z"/><use xlink:href="#Ad"/><use xlink:href="#Ae"/><use xlink:href="#Af"/><use xlink:href="#Ag"/><path d="M156.63 143.25V98.78h0L190 79.53V124h0zm.07-44.43v44.31L189.92 124V79.64zm.97 42.52V99.61h0L189 81.55v41.64h0zm.05-41.69v41.57l31.17-18v-41.6z"/></g><g clip-path="url(#b)"><g opacity=".05"><use xlink:href="#AZ"/><use xlink:href="#Aa"/><path d="M160.75 99.19h.07v38.9h-.07z"/><path d="M158.74 136.56l-.03-.06 29.17-16.84.04.06-29.18 16.84z"/><path d="M185.81 84.72h.07v38.9h-.07z"/><path d="M158.75 139.29l-.05-.03 29.17-55.74.06.03-29.18 55.74z"/><path d="M187.88 122.46l-29.17-22.05.04-.06 29.17 22.06-.04.05z"/><use xlink:href="#Ab"/><path d="M173.28 91.95h.07v38.9h-.07z"/><use xlink:href="#Ac"/><path d="M178.06 89.19h.07v38.9h-.07zm-9.56 5.53h.07v38.9h-.07z"/><path d="M158.74 113.47l-.03-.06 29.17-16.83.04.04-29.18 16.85zm0 12.77l-.03-.06 29.17-16.85.04.06-29.18 16.85z"/><use xlink:href="#Ad"/><use xlink:href="#Ae"/><use xlink:href="#Af"/><use xlink:href="#Ag"/><path d="M156.63 143.25V98.78h0L190 79.53V124h0zm.07-44.43v44.31L189.92 124V79.64zm.97 42.52V99.61h0L189 81.55v41.64h0zm.05-41.69v41.57l31.17-18v-41.6z"/></g></g><path d="M187.29,103.34l-3.36,1.91v14.56a4.1,4.1,0,0,1-1.86,3.21l-5.37,3.1V113.94l-6.76,3.9V130l-5.38,3.1c-1,.59-1.85.12-1.85-1.07V117.5l-2.87,1.67a.7.7,0,0,1-1-1L172,93.12a2.48,2.48,0,0,1,3.34-1.05l.34.22,11.7,8.94a1.25,1.25,0,0,1-.12,2.09" class="C"/><g class="C"><path d="M59.21 66.09a3.22 3.22 0 0 0-1.35 2.59c0 .89.48 1.35 1.11 1.13v18.84L52.1 74.24a1.21 1.21 0 0 1 0-.88 43.68 43.68 0 0 0 3.44-13.2 1 1 0 0 1 .46-.71l6.46-3.68a.29.29 0 0 1 .47.24 16.61 16.61 0 0 0 3.33 9 1 1 0 0 1 .17.83l-6.94 22.54V69.53a3.29 3.29 0 0 0 1.12-2.41c0-1-.6-1.46-1.35-1"/><use xlink:href="#Ah"/></g><g clip-path="url(#c)" class="G"><g opacity=".4"><use xlink:href="#Ah"/></g></g><g clip-path="url(#d)"><g class="P"><path d="M63.71,68.93a3.35,3.35,0,0,1-1.12,2.42V90.19l-.47-.28V71.62c-.64.22-1.12-.24-1.12-1.12a3.24,3.24,0,0,1,1.36-2.59c.74-.43,1.35,0,1.35,1"/></g></g><use xlink:href="#Ai" class="C"/><g clip-path="url(#e)" class="G"><g opacity=".8"><use xlink:href="#Ai"/></g></g><g clip-path="url(#f)"><g class="P"><path d="M66 57.76a.29.29 0 0 0-.34-.23h-.12l-6.41 3.7a1 1 0 0 0-.33.36l-3.15-1.82a.9.9 0 0 1 .33-.34l6.46-3.71a1 1 0 0 1 .85 0l2.3 1.33a1.06 1.06 0 0 1 .45.66"/></g></g><path d="M54.13 53.72l10.16-5.87a1 1 0 0 1 .84 0l2.3 1.33a1 1 0 0 1 .42.73v4.52a1 1 0 0 1-.42.73L57.28 61a1 1 0 0 1-.84 0l-2.31-1.3a1 1 0 0 1-.41-.73v-4.54a.94.94 0 0 1 .41-.72" class="F"/><path d="M67.85,49.84c0-.21-.21-.3-.42-.17L57.28,55.53a.72.72,0,0,0-.3.32L53.83,54a.77.77,0,0,1,.31-.31l10.15-5.87a1,1,0,0,1,.84,0l2.3,1.34a.88.88,0,0,1,.42.65" class="H"/><path d="M57.2,61h-.26a.79.79,0,0,1-.5-.09l-2.3-1.33a.93.93,0,0,1-.42-.73V54.43a.87.87,0,0,1,.11-.41L57,55.84a.73.73,0,0,0-.12.41v4.48c0,.19.09.29.23.29h.11" class="D"/><g clip-path="url(#g)"><g class="P"><path d="M62.12,90.46,59,88.65,52.11,74.24a.89.89,0,0,1-.09-.39l3.14,1.81a1,1,0,0,0,.09.39Z"/></g></g><g clip-path="url(#h)"><g class="P"><path d="M62.59,71.35V90.19l-.47-.28V71.62c-.64.22-1.12-.24-1.12-1.12v-.07Z"/></g></g><path d="M77.11,65.89c0-.5-.36-.71-.8-.46a1.79,1.79,0,0,0-.8,1.39c0,.42.24.62.56.55C75.61,76.84,69,88,60.92,92.65c-4,2.32-7.79,2.7-10.6,1.08S46.13,89,46,84.77a1.81,1.81,0,0,0,.58-1.21c0-.52-.37-.72-.81-.47a1.79,1.79,0,0,0-.8,1.4c0,.44.26.65.61.54.22,4.28,1.82,7.48,4.56,9.06a8,8,0,0,0,4.09,1A14.11,14.11,0,0,0,61.13,93c8.26-4.77,15-16.23,15.37-25.89a1.71,1.71,0,0,0,.61-1.24" class="H"/><path d="M102 58.46l-9.55-11.4a1.29 1.29 0 0 0-.17-.16L90 45.58c-.06 0-.34 0-.34.41v23.05c0 .2 0 .31.08.34L92 70.7c.08 0 .2-.08.34-.38L94 66.85l1 3.33a.4.4 0 0 0 .19.27l2.29 1.33c.18.1.46 0 .72-.3L99.45 70a1.91 1.91 0 0 0 .48-1.58L98.13 62a1.16 1.16 0 0 1 .76-1.22l2.66-1.21c.55-.24.76-.7.47-1" class="F"/><path d="M97.53 71.5a.32.32 0 0 1-.07-.1l-1.8-6.46c-.12-.46-.41-.51-.53-.51a.84.84 0 0 0-.65.57l-2.28 4.86V47.22l9.55 11.39a.22.22 0 0 1 0 .19.76.76 0 0 1-.41.4l-2.68 1.2a1.44 1.44 0 0 0-1 1.57l1.8 6.43a1.71 1.71 0 0 1-.42 1.31l-1.32 1.51c-.16.19-.29.24-.34.24" class="E"/><path d="M92.55 48.07l9 10.74a.53.53 0 0 1-.23.16l-2.67 1.2a1.74 1.74 0 0 0-1.07 1.91l1.8 6.43a1.39 1.39 0 0 1-.36 1L97.66 71 96 64.88a.87.87 0 0 0-.82-.72c-.26 0-.64.13-.95.75l-1.71 3.65v-20.5m-.37-1.2c-.13 0-.21.15-.21.45l-.06 23c0 .23.05.35.11.35s.19-.13.31-.39l2.41-5.15c.13-.27.27-.41.4-.41s.19.1.23.29l1.81 6.43a.37.37 0 0 0 .35.32.91.91 0 0 0 .57-.34l1.31-1.52a1.88 1.88 0 0 0 .48-1.58l-1.79-6.43a1.16 1.16 0 0 1 .75-1.22l2.66-1.21c.55-.23.76-.7.47-1l-9.55-11.4a.43.43 0 0 0-.29-.19" class="H"/><path d="M97.33 71.73l-2.25-1.3a.36.36 0 0 1-.18-.27l-.9-3.31.78-1.67c.23-.5.52-.55.64-.12l1.8 6.43a.37.37 0 0 0 .15.25" class="D"/><path d="M101.22 69.76l3.98-2.3v4.59l-3.98 2.3v-4.59z" class="F"/><path d="M143.13 184.31l4.56-5.18 44.58-25.78c1.2-.82 3 .84 3.69 2.5h0a5.28 5.28 0 0 1 .24.77 1.54 1.54 0 0 1-.5 1.68l-45 26-6.7 1.33-1.81.35a.25.25 0 0 1-.23-.07.27.27 0 0 1 0-.36z" class="I"/><path d="M190.15 159l-.62.36-.74.43-38.93 22.51a3.47 3.47 0 0 0-.47-2.55c-.62-1.16-1.57-2.09-2.26-2.12l38.73-22.42 1.42-.82c-.89.58 2 5.17 2.86 4.6" class="H"/><path d="M185.91,155.17l1.39-.79c.4-.24,1.14.47,1.8,1.4.87,1.25,1.58,2.87,1.05,3.21l-1,.59-.37.2c.52-.32-.18-2-1.06-3.21-.63-.9-1.35-1.59-1.75-1.42h-.05" class="S"/><path d="M186.27,155c.95-.57,3.76,4,2.86,4.61l-1.38.8c.9-.58-1.91-5.18-2.87-4.62Z" class="C"/><path d="M183.56,156.54l1.37-.79c.89-.57,3.69,3.82,2.93,4.56h-.05l-1.38.78c.9-.58-2-5.16-2.87-4.59" class="S"/><path d="M142.24,183.81l1.64-.32s.06-.32-.43-1l-1.43.9a.26.26,0,0,0,0,.33.27.27,0,0,0,.21.06" class="F"/><path d="M147.13,177.62h0l-4.1,4.66a.83.83,0,0,1,.43.23L149,179l.26-.14a2.86,2.86,0,0,0-2.11-1.25" fill="#ffa9a7"/><path d="M143.45,182.52a.56.56,0,0,0-.43-.23l-1,1.13Z" class="H"/><g clip-path="url(#i)"><g class="L"><path d="M149.24 178.88l46.58-26.14a4.42 4.42 0 0 1 .58 1.4 1.38 1.38 0 0 1-.45 1.51l-5.8 3.34-.62.36-.74.43-38.93 22.52c.73-1.12-.06-2.78-.62-3.42"/></g></g><path d="M112.23,219.16,184,177.7a2.69,2.69,0,0,1,2.44,0l43.25,25a.74.74,0,0,1,.45,1,.73.73,0,0,1-.45.46L158,245.53a2.67,2.67,0,0,1-2.43,0l-43.3-24.93c-.68-.39-.68-1,0-1.41" class="I"/><path d="M113.41,214.69l69.82-40.31a2.61,2.61,0,0,1,2.37,0l42.07,24.25a2.64,2.64,0,0,1,1.19,2.05v.47a2.65,2.65,0,0,1-1.19,2.06l-69.83,40.31a2.61,2.61,0,0,1-2.37,0l-42-24.29a2.57,2.57,0,0,1-1.18-2v-.41a2.58,2.58,0,0,1,1.18-2.05" class="D"/><path d="M156.65,240.65v3.2a2.31,2.31,0,0,1-1.18-.28l-42-24.28a2.61,2.61,0,0,1-1.19-2v-.47a2.63,2.63,0,0,1,.95-1.91c-.43.37-.35.89.22,1.22l42,24.28a2.42,2.42,0,0,0,1.18.28Z" class="F"/><path d="M113.41,214.69l69.82-40.31a2.61,2.61,0,0,1,2.37,0l42.07,24.25a.73.73,0,0,1,.44.93.69.69,0,0,1-.44.44l-69.83,40.34a2.61,2.61,0,0,1-2.37,0l-42-24.28a.72.72,0,0,1,0-1.37" class="H"/><path d="M140.42,222.08c-1.27.73-1.27,1.91,0,2.65a5,5,0,0,0,4.59,0c1.27-.73,1.27-1.91,0-2.65a5.08,5.08,0,0,0-4.59,0" class="D"/><path d="M133.34,223.2a.21.21,0,0,1,.15.27.25.25,0,0,1-.15.15.83.83,0,0,1-.72,0,.23.23,0,0,1-.15-.28.21.21,0,0,1,.15-.14.77.77,0,0,1,.72,0" class="C"/><path d="M134.58 209.05l50.01-28.87 33.01 19.07-50 28.86-33.02-19.06z" class="F"/><g class="D"><path d="M189.52 176.66l-72.17 41.68.59.33L190.11 177l-.59-.34zm33.6 19.4l-72.18 41.67.59.33 72.17-41.66-.58-.34z"/></g><path d="M66.28,230.45c3.75,2.19,3.75,5.73,0,7.93a14.84,14.84,0,0,1-13.57,0c-3.75-2.19-3.75-5.73,0-7.93a14.9,14.9,0,0,1,13.57,0" class="I"/><path d="M53.78,235.8c-3.08-3.17-4.89-11.15-1.91-13.67H67.15c3,2.52,1.2,10.5-1.91,13.67l-.08.09a.52.52,0,0,1-.11.1,2.11,2.11,0,0,1-.27.25l-.07.07-.24.17-.39.26a10,10,0,0,1-9.18,0h0l-.4-.26-.21-.16-.1-.08-.26-.24-.06-.12-.07-.08" class="F"/><path d="M65.85,221.11c3.48,2,3.48,5.33,0,7.37a13.86,13.86,0,0,1-12.63,0c-3.48-2-3.48-5.33,0-7.37a13.84,13.84,0,0,1,12.62,0" class="H"/><path d="M64.17,222.09c2.56,1.5,2.56,3.91,0,5.41a10.17,10.17,0,0,1-9.27,0c-2.56-1.5-2.56-3.91,0-5.41a10.17,10.17,0,0,1,9.27,0" class="D"/><path d="M54.9,224.66a10.17,10.17,0,0,1,9.27,0,4.26,4.26,0,0,1,1.53,1.42,4.26,4.26,0,0,1-1.53,1.42,10.17,10.17,0,0,1-9.27,0,4.34,4.34,0,0,1-1.53-1.42,4.34,4.34,0,0,1,1.53-1.42" class="E"/><g class="C"><path d="M58.51 204.29c-1.17 1.27-4.43 1.61-5.78-1.82l-3-7.44a1.19 1.19 0 0 1 .71-1.54h.06s.09-1.77 3.08-.58a11 11 0 0 1 6.41 6c1.29 2.87.53 5-1.48 5.45"/><use xlink:href="#Aj"/></g><g clip-path="url(#j)"><g class="K"><use xlink:href="#Aj"/></g></g><use xlink:href="#Ak" class="C"/><g clip-path="url(#k)" class="G"><g class="O"><use xlink:href="#Ak"/></g></g><use xlink:href="#Al" class="C"/><g clip-path="url(#l)"><g class="K"><use xlink:href="#Al"/></g></g><use xlink:href="#Am" class="C"/><g clip-path="url(#m)" class="G"><g class="O"><use xlink:href="#Am"/></g></g><use xlink:href="#An" class="C"/><g clip-path="url(#n)"><g class="K"><use xlink:href="#An"/></g></g><use xlink:href="#Ao" class="C"/><g clip-path="url(#o)" class="G"><g class="O"><use xlink:href="#Ao"/></g></g><use xlink:href="#Ap" class="C"/><g clip-path="url(#p)"><g class="K"><use xlink:href="#Ap"/></g></g><g class="C"><path d="M62.46,223c-2.12.86-1.21,3.4.86,5.32a9.49,9.49,0,0,0,6.48,2.33,5.42,5.42,0,0,0,1.79-.3,15.93,15.93,0,0,0,0-3.52,6.81,6.81,0,0,0-5-5.4c-3.31-.9-4.11.31-4.11,1.57"/><use xlink:href="#Aq"/></g><g clip-path="url(#q)"><g class="K"><use xlink:href="#Aq"/></g></g><g class="C"><path d="M54.38,212.07c.21-.95-1.2-3.28-5.56-3.73s-7.64,1.4-8.29,2.25-1,1.73-.2,1.91a27.84,27.84,0,0,1,5.31,1.31c1.78.82,5.42,3.25,7.91,2.53a2.43,2.43,0,0,0,.83-4.32"/><use xlink:href="#Ar"/></g><g clip-path="url(#r)"><g class="K"><use xlink:href="#Ar"/></g></g><g class="C"><path d="M64.55,207c-.06,1.53,2.09,2.41,4.17,1.09A23.88,23.88,0,0,1,74.9,205c1.91-.5,2.86-2.07,2.23-2.87s-1.57-2.67-6.68-2-6.86,2.86-7.55,4.51.84,2.87,1.61,2.38"/><use xlink:href="#As"/></g><g clip-path="url(#s)"><g class="K"><use xlink:href="#As"/></g></g><g class="C"><path d="M60.91,215.21c-.71-.7-2.63-.54-3.54,1.56s1,4.39,1.21,5c.89-.5,1.56-.2,3.11-.5a3.83,3.83,0,0,0,3-3.82c-.09-1.91-.91-3.19-3.75-2.23"/><use xlink:href="#At"/></g><g clip-path="url(#t)"><g class="K"><use xlink:href="#At"/></g></g><use xlink:href="#Au" class="C"/><g clip-path="url(#u)" class="G"><g class="O"><use xlink:href="#Au"/></g></g><use xlink:href="#Av" class="C"/><g clip-path="url(#v)"><g class="K"><use xlink:href="#Av"/></g></g><use xlink:href="#Aw" class="C"/><g clip-path="url(#w)" class="G"><g class="O"><use xlink:href="#Aw"/></g></g><use xlink:href="#Ax" class="C"/><g clip-path="url(#x)"><g class="K"><use xlink:href="#Ax"/></g></g><path d="M174.47,198.55h0a.6.6,0,0,1,0-.84h0l2.51-2.34a.6.6,0,0,1,.86.84h0l-2.51,2.34a.59.59,0,0,1-.83,0h0"/><g class="C"><path d="M181.73,184.85l6.86,7.15c-1.44,1.36-8,4.77-10.51,5.08a1,1,0,0,1-.45-.07,2.23,2.23,0,0,1-1.38-1.46.9.9,0,0,1,0-.4h0c.4-2.54,4.09-8.93,5.51-10.3"/><path d="M182.14,185.44l.52.53a3.29,3.29,0,0,1,.88.13,6.15,6.15,0,0,1,3.87,4,2.61,2.61,0,0,1,.09.88l.51.54-1.2.71h0a2.15,2.15,0,0,1-1.72.1,6.17,6.17,0,0,1-3.82-4,2.2,2.2,0,0,1,.17-1.72h0Z"/><use xlink:href="#Ay"/></g><g clip-path="url(#y)" class="G"><g class="N"><use xlink:href="#Ay"/></g></g><g class="C"><path d="M188,190.52a7.75,7.75,0,0,1-4.85-5.05,2.13,2.13,0,0,1,2.92-2.8,7.75,7.75,0,0,1,4.85,5.05,2.46,2.46,0,0,1-.46,2.44,2.44,2.44,0,0,1-2.46.36"/><use xlink:href="#Az"/></g><g clip-path="url(#z)" class="G"><g class="N"><use xlink:href="#Az"/></g></g><path d="M230.89,137.8a4.83,4.83,0,0,1,6.81.15,4.77,4.77,0,0,1-.08,6.75l-.06.05a2.42,2.42,0,0,1-2.4.35,7.59,7.59,0,0,1-4.72-4.91,2.42,2.42,0,0,1,.45-2.39" class="C"/><path d="M237.22 136.09a1.72 1.72 0 0 1 2.42.06 1.69 1.69 0 0 1 0 2.4h0 0l-2.18 2.08a.84.84 0 0 1-.85.12 2.68 2.68 0 0 1-1.67-1.75.83.83 0 0 1 .15-.84l2.18-2.08" class="H"/><path d="M234.88,139a.86.86,0,0,1,.16-.84l2.17-2.08h0a1.78,1.78,0,0,1,1.62-.42c-.49,0-2,1.42-2.7,2.07s-1,1.35,0,2.41c.67.77,1.19.55,1.42.36l-.14.14a.85.85,0,0,1-.85.12,2.67,2.67,0,0,1-1.68-1.75" class="F"/><use xlink:href="#BA" class="C"/><g clip-path="url(#AA)"><g class="N"><use xlink:href="#BA"/></g></g><g clip-path="url(#AB)"><g class="N"><path d="M191.31 181.56l1.43 1.46.25-.26-1.43-1.46-.25.26z"/></g></g><path d="M193.3,235.42c-.26,0-.27.59-.11.89a5.33,5.33,0,0,0,3.54,2.17c1.85.41,5.45-.07,6.54-.12a27.86,27.86,0,0,1,4,.69,4.65,4.65,0,0,0,4-.86,1.22,1.22,0,0,0,.26-1c0-.75-.08-.95-.17-.89Z" class="F"/><g class="H"><path d="M211.15 234.16a9.48 9.48 0 0 1 .18 2.71 2.06 2.06 0 0 1-1.33 1 7.51 7.51 0 0 1-4 0 10.68 10.68 0 0 0-2.81-.32l-4.78.33a7.88 7.88 0 0 1-3.07-.59 5.06 5.06 0 0 1-2-1.67c-.25-1.35-.12-2.16.66-2.61a8.9 8.9 0 0 1 3.63-.71 13.52 13.52 0 0 0 1.36-.09l2.65-.23a4.18 4.18 0 0 0 1.84-.4 1.27 1.27 0 0 0 .61-.58c.15-.36.15-.85.45-.88l6 .95c.44 0 .19.8.67 3m22.98-10.79v-.61c-.15-.54-.48-.69-.9-.95a6.87 6.87 0 0 1-1.18-1c-.14-.2-.17-.31-.4-.39a2 2 0 0 0-1.72.23c-1.23.64-1.6 1.41-1.53 2.25 0 .64.1 1.5-.46 1.91-.24.16-.8-.62-.8-.62-.35.58.33 1.16.59 2.33a5.18 5.18 0 0 1 0 2c-.12 1-.27 1-.82 1.1a5.66 5.66 0 0 0-2.65.54 1.73 1.73 0 0 0-.82 1.84c.14.4 1.38 2.33 5.86 1.62a10.52 10.52 0 0 0 4-2.58 5.61 5.61 0 0 1 0-.58l.06-1.38a7.21 7.21 0 0 1 .08-1.31 8 8 0 0 0 .17-1.09l.26-2.76c0-.26.26-.32.22-.59"/></g><path d="M234.75,223.1c.44.43.17,1.67-.42,3.16a6.26,6.26,0,0,0-.61,3,3.71,3.71,0,0,1-.14,2.35c-.49.89-3.1,2-4.64,2.38a8.4,8.4,0,0,0,1.6-4.43c.15-2.68.36-4.4,1.58-5.58,1.54-1.5,2.66-.89,2.66-.89"/><path d="M223.55,231.83s.9,1.68,4.36,1.62c1.37,0,2.1-.69,2.13-2.76,0-2.5.25-5,1.05-6.27a3.57,3.57,0,0,1,3.11-1.75,1,1,0,0,1,.55.43s-.95-.32-2.56,1c-1.14.95-1.46,2.95-1.44,5.42a9.33,9.33,0,0,1-.24,3.07,2.45,2.45,0,0,1-1.65,1.47,6.1,6.1,0,0,1-5.13-1.14,1.22,1.22,0,0,1-.18-1.06" class="F"/><path d="M225 220.33l-7.72-13.52a11.18 11.18 0 0 1-1.46-3.74l-1.91-8.2L212.2 206a25 25 0 0 1 .62 4.39 65.69 65.69 0 0 1-.75 8.41l-1.16 8.87c-.42.29-1 .7-3.78.66a7.33 7.33 0 0 1-2.86-.8l-.72-10.22-.67-10.59c-.31-4.38-.41-6.27-.45-13.2 0-7.17.5-17.71.5-17.71h20.19s1.49 2.52 1.09 8.69c.15 6 .69 17.07.69 17.07 1.37 1.58 2.33 3.52 3.27 7l2.52 8.83c-1.64 0-5 1.82-5.63 3" class="C"/><g clip-path="url(#AC)"><g class="L"><path d="M213.89 194.93l1.13-8a11.44 11.44 0 0 0 5.81-2.86s-.41 2.36-4.92 4l-1.08 7.71.83 6.53-1.77-7.41"/></g></g><path d="M219.08,149.46c2.86,0,3.76.65,4.64,1.68s4.27,7.92,5.67,11.28c.63,1.51.27,2.48-1,4.06s-5.55,6-5.55,6l-2.48-3.74,3.35-4.92-4.38-7.17Z" class="Q"/><path d="M220,149.39a4.59,4.59,0,0,1,4.52,2.76c1.31,2.32,3.64,7.39,3.64,7.39s-1.16,2.57-6,3.89L220,158.92Z" class="C"/><path d="M221.65 149.93c1.77.87 2.93 3.28 2.69 6.89l-.87 8.92a44.37 44.37 0 0 0-.17 6.62 51 51 0 0 0 .57 5.23s-1.83 3.06-8.15 3.63a28 28 0 0 1-13-1.83l.13-4.93-.1-8c.2-5.67.27-10.38 1-12.41a3.13 3.13 0 0 1 2.14-2.1c.89-.33 4.86-1.43 6.42-1.76 5.21-1.12 7.57-1.17 9.43-.26" class="F"/><path d="M210.19,147.8l.46,2.72c1.74.1,5.66-.26,6.5-1.06l-.47-3Z" class="Q"/><path d="M206.2,139.35a23.74,23.74,0,0,0-1.44,3l1.18.58Z" fill="#c56150"/><path d="M209.05,133.64c-2.14.11-2.86,2.26-3.1,6.92s.29,6.27.88,6.9a5.76,5.76,0,0,0,4.54.43c1.43-.36,5-1.39,6.57-3.63,1.83-2.65,2.37-6.69.53-8.22-2.6-2.17-8.28-2.46-9.42-2.4" class="Q"/><g class="D"><path d="M208.85 136.85a1.82 1.82 0 0 0 .26 1 2.11 2.11 0 0 0 1.16.89 4.22 4.22 0 0 0-.51 1.91.94.94 0 0 0 .11.59.39.39 0 0 0 .51.18.39.39 0 0 0 .18-.18 5.94 5.94 0 0 1 .6-1 2 2 0 0 1 1.19-.63c1.72-.14 1.67 2.59 1 3.5-1.15 1.5-2.06.51-2.06.51s-.63 2.32 1 3.37a7.69 7.69 0 0 0 4.48-.25c1.2-1.8 2.62-3.37 3.38-4.87 1.8-3.56 1.14-6.45-.5-7.11a3.84 3.84 0 0 0-2.76-2.86c-1.74-.67-3.46-.14-5.26-.17a6 6 0 0 1-2.63-.69c-.36-.19-.8-.42-1.14-.2a.84.84 0 0 0-.29.38 1.93 1.93 0 0 0 .1 1.66 1.64 1.64 0 0 0-1.79.15 1.81 1.81 0 0 0-.59 2.09 2.8 2.8 0 0 0 3.57 1.72h0"/><path d="M219.51,135.17l1.65-1a.95.95,0,0,0-1.65.93"/></g><g class="Q"><path d="M194,176.89c-1.72.72-3.68,2.7-5.44,3a4.91,4.91,0,0,1-1.53,0l-1.24,1.19a9.21,9.21,0,0,1-.76-3.5,2.06,2.06,0,0,1,.72-1.18c.39-.38.18-.95.4-1.19s.65-.41.9-.73.27-1.14.85-1.22c1-.12,3.82-.37,4.91-1.07s1.19,4.67,1.19,4.67"/><path d="M192.84 172.22l7.46-5 1.45-9.55c.49-2.67.49-4.55 4.06-5.53 0 0 2.75 1.42 2.3 6.5a87.7 87.7 0 0 1-2.11 11.24c-.37 1.56-1 2-3.11 3l-10.5 4.77z"/></g><path d="M205.94 151.84a4.88 4.88 0 0 0-3.36 2c-.61.89-.85 2-1.2 4.46l-.73 5.42s.24.95 2.57 1.85a5.14 5.14 0 0 0 4 0l.95-5.06c.27-1.65 1.15-6.77-2.21-8.72" class="C"/></g></g></svg>