<svg id="SvgjsSvg1001" width="288" height="288" xmlns="http://www.w3.org/2000/svg" version="1.1" xmlns:xlink="http://www.w3.org/1999/xlink" xmlns:svgjs="http://svgjs.com/svgjs"><defs id="SvgjsDefs1002"></defs><g id="SvgjsG1008" transform="matrix(1,0,0,1,0,0)"><svg xmlns="http://www.w3.org/2000/svg" data-name="Layer 1" viewBox="0 0 301.6 301.6" width="288" height="288"><g data-name="Layer 2" fill="#000000" class="color000 svgShape"><circle cx="150.8" cy="150.8" r="150.8" fill="#ffffff" data-name="Layer 1-2" class="colorfff svgShape"></circle></g><g data-name="Layer 2-2" fill="#000000" class="color000 svgShape"><g data-name="layer 1-2-2" fill="#000000" class="color000 svgShape"><path fill="#0bd1d2" d="M231.22,233.77H88.5A20.84,20.84,0,0,1,67.73,213V88.5H231.22a2.54,2.54,0,0,1,2.55,2.55V231.22A2.54,2.54,0,0,1,231.22,233.77Z" class="colora3d4ff svgShape"></path><path fill="#ffffff" d="M218.19,213H83.31a15.59,15.59,0,0,1-15.58-15.57V88.5H218.19Z" class="colorfff svgShape"></path><path fill="#24b2c0" d="M231.22,235.75H88.5A22.79,22.79,0,0,1,65.75,213.1V88.5a2,2,0,0,1,2-2H231.22a4.53,4.53,0,0,1,4.53,4.53h0V231.22A4.6,4.6,0,0,1,231.22,235.75ZM69.71,90.48V213A18.79,18.79,0,0,0,88.5,231.79H231.22a.65.65,0,0,0,.66-.67h0v-140a.64.64,0,0,0-.66-.66Z" class="color2b5185 svgShape"></path><path fill="#0bd1d2" d="M67.83,213a20.76,20.76,0,0,1,20.76-20.76V67.83A20.76,20.76,0,0,0,67.83,88.59Z" class="colora3d4ff svgShape"></path><path fill="#ffffff" d="M67.83,182a20.77,20.77,0,0,1,20.76-20.77V67.83A20.76,20.76,0,0,0,67.83,88.59Z" class="colorfff svgShape"></path><path fill="#24b2c0" d="M67.83,215a2.07,2.07,0,0,1-2-2V88.5A22.8,22.8,0,0,1,88.5,65.75a2.05,2.05,0,0,1,2,2V192.24a2.07,2.07,0,0,1-2,2A18.78,18.78,0,0,0,69.71,213,1.91,1.91,0,0,1,67.83,215ZM86.61,69.81A18.75,18.75,0,0,0,69.71,88.5V200.26a23,23,0,0,1,16.9-10Z" class="color2b5185 svgShape"></path><path fill="#0bd1d2" d="M176.76,122.29H145.61a98.45,98.45,0,0,1-12.94,39.93l28.51,43.14,28.51-43.14A97,97,0,0,1,176.76,122.29Z" class="colora3d4ff svgShape"></path><path fill="#ffffff" d="M166.18,122.29H145.61a98.45,98.45,0,0,1-12.94,39.93l28.51,43.14,17.93-43.14A65.63,65.63,0,0,1,166.18,122.29Z" class="colorfff svgShape"></path><path fill="#24b2c0" d="M161.18,207.24a2.06,2.06,0,0,1-1.6-.85L131,163.26a2.09,2.09,0,0,1,0-2.08,94.79,94.79,0,0,0,12.65-39,2,2,0,0,1,2-1.8h31.15a2,2,0,0,1,2,1.8,96.28,96.28,0,0,0,12.65,38.89,1.85,1.85,0,0,1,0,2.17l-28.51,43A2.37,2.37,0,0,1,161.18,207.24Zm-26.34-45.12,26.25,39.65,26.24-39.65a100,100,0,0,1-12.46-37.85H147.4A100.14,100.14,0,0,1,134.84,162.12Z" class="color2b5185 svgShape"></path><path fill="#ffffff" d="M154.76,166.28a9.08,9.08,0,1,1,12.84,0A9.18,9.18,0,0,1,154.76,166.28Z" class="colorfff svgShape"></path><path fill="#0bd1d2" d="M167.6,153.44a8,8,0,0,0-3.4-2.08,9,9,0,0,1-5.38,11.52,8.63,8.63,0,0,1-6.13,0A9.07,9.07,0,0,0,170,157.31c-.1-.19-.1-.38-.19-.57A11.32,11.32,0,0,0,167.6,153.44Z" class="colora3d4ff svgShape"></path><path fill="#24b2c0" d="M161.18,170.9a11,11,0,1,1,11-11h0A11.11,11.11,0,0,1,161.18,170.9Zm0-18.21a7.17,7.17,0,1,0,7.17,7.17,7.28,7.28,0,0,0-7.17-7.17Z" class="color2b5185 svgShape"></path><path fill="#24b2c0" d="M161.18,207.24a2.05,2.05,0,0,1-2-2V168.92a1.94,1.94,0,1,1,3.87-.28v36.62A2,2,0,0,1,161.18,207.24Z" class="color2b5185 svgShape"></path><polygon fill="#0bd1d2" points="176.75 122.29 145.61 122.29 137.87 104.07 184.5 104.07 176.75 122.29" class="colora3d4ff svgShape"></polygon><polygon fill="#ffffff" points="166.37 122.29 145.61 122.29 137.87 104.07 168.92 104.07 166.37 122.29" class="colorfff svgShape"></polygon><path fill="#24b2c0" d="M176.76 124.18H145.61a1.94 1.94 0 01-1.8-1.23l-7.74-18.12a1.93 1.93 0 011-2.55 2.83 2.83 0 01.85-.19h46.72a2 2 0 011.6.85 2.2 2.2 0 01.19 1.89L178.55 123A1.89 1.89 0 01176.76 124.18zm-29.93-3.87h28.51l6.13-14.25H140.79zM218.19 215H104.07a2 2 0 01-1.79-2.07 1.93 1.93 0 011.79-1.8H218.19a1.94 1.94 0 01.29 3.87z" class="color2b5185 svgShape"></path><path fill="#24b2c0" d="M104.07 217.44a4.39 4.39 0 01-.09-8.78 4.48 4.48 0 014.44 4.34h0a4.3 4.3 0 01-4.35 4.44zM218.19 217.44a4.39 4.39 0 10-4.34-4.44h0A4.41 4.41 0 00218.19 217.44zM161.18 215a59 59 0 01-59-59 1.94 1.94 0 113.87-.28V156a55.13 55.13 0 00110.25 0 1.94 1.94 0 113.87-.28V156A59.14 59.14 0 01161.18 215z" class="color2b5185 svgShape"></path><rect width="15.57" height="15.57" x="153.35" y="205.26" fill="#ffffff" class="colorfff svgShape"></rect><path fill="#24b2c0" d="M168.92 222.72H153.35a2.07 2.07 0 01-2-2V205.17a2 2 0 012-2h15.57a2 2 0 012 2v15.67A1.91 1.91 0 01168.92 222.72zm-13.59-3.87h11.61v-11.7H155.33zM202.62 80.1H164.48a1.94 1.94 0 01-.28-3.87h38.42a1.94 1.94 0 11.28 3.87zM154.2 80.1h-6A2 2 0 01146.36 78a1.93 1.93 0 011.79-1.79h5.95a2 2 0 011.79 2.07A1.84 1.84 0 01154.2 80.1zM111.91 116.44H101.52a1.94 1.94 0 01-.28-3.87h10.67a1.94 1.94 0 01.28 3.87z" class="color2b5185 svgShape"></path><path fill="#24b2c0" d="M106.72 121.63a2.05 2.05 0 01-2-1.89V109.36a2 2 0 012.08-1.79 1.92 1.92 0 011.79 1.79v10.38A2 2 0 01106.72 121.63zM124.84 142.4H114.46a2 2 0 01-1.8-2.08 1.93 1.93 0 011.8-1.79h10.38a2 2 0 011.79 2.07A1.93 1.93 0 01124.84 142.4z" class="color2b5185 svgShape"></path><path fill="#24b2c0" d="M119.65 147.59a2.05 2.05 0 01-2-2V135.22a1.94 1.94 0 013.87-.28v10.67A1.92 1.92 0 01119.65 147.59zM207.9 126.82H197.52a1.94 1.94 0 11-.28-3.87H207.9a1.94 1.94 0 01.29 3.87z" class="color2b5185 svgShape"></path><path fill="#24b2c0" d="M202.71,132a2,2,0,0,1-2-2V119.65a1.94,1.94,0,0,1,3.87-.29V130A2,2,0,0,1,202.71,132Z" class="color2b5185 svgShape"></path></g></g></svg></g></svg>