<svg id="SvgjsSvg1001" width="288" height="288" xmlns="http://www.w3.org/2000/svg" version="1.1" xmlns:xlink="http://www.w3.org/1999/xlink" xmlns:svgjs="http://svgjs.com/svgjs"><defs id="SvgjsDefs1002"></defs><g id="SvgjsG1008" transform="matrix(1,0,0,1,0,0)"><svg xmlns="http://www.w3.org/2000/svg" data-name="Layer 1" viewBox="0 0 301.58 301.58" width="288" height="288"><g data-name="Layer 2" fill="#000000" class="color000 svgShape"><circle cx="150.79" cy="150.79" r="150.79" fill="#ffffff" data-name="Layer 1-2" class="colorfff svgShape"></circle></g><g data-name="Layer 2-2" fill="#000000" class="color000 svgShape"><g data-name="layer 1-2-2" fill="#000000" class="color000 svgShape"><polygon fill="#0bd1d2" points="67.76 109.29 150.79 67.78 150.79 150.82 67.76 192.33 67.76 109.29" class="colora3d4ff svgShape"></polygon><polygon fill="#ffffff" points="67.76 109.29 135.21 75.56 135.21 158.6 67.76 192.33 67.76 109.29" class="colorfff svgShape"></polygon><path fill="#24b2c0" d="M67.78,194.27a2,2,0,0,1-2-2v-83a1.89,1.89,0,0,1,1-1.73L150,66a1.89,1.89,0,0,1,2.83,1.67v83a2,2,0,0,1-1.07,1.8L68.68,194A2.27,2.27,0,0,1,67.78,194.27Zm1.94-83.79V189.2l79.14-39.56V71Z" class="color2b5185 svgShape"></path><polygon fill="#0bd1d2" points="150.79 233.85 233.82 192.33 150.79 150.82 67.76 192.33 150.79 233.85" class="colora3d4ff svgShape"></polygon><polygon fill="#ffffff" points="165.06 226.71 233.82 192.33 150.79 150.82 83.32 184.54 165.06 226.71" class="colorfff svgShape"></polygon><path fill="#24b2c0" d="M150.78,235.78a1.77,1.77,0,0,1-.85-.2L66.84,194a1.94,1.94,0,0,1-.87-2.61,2,2,0,0,1,.87-.87L149.93,149a1.91,1.91,0,0,1,1.74,0l83,41.55a2,2,0,0,1,1.06,1.73,2,2,0,0,1-1.06,1.79l-83,41.54A1.83,1.83,0,0,1,150.78,235.78ZM72.1,192.35l78.68,39.35,78.71-39.35L150.78,153Z" class="color2b5185 svgShape"></path><polygon fill="#0bd1d2" points="150.79 67.78 150.79 150.82 233.82 192.33 233.82 109.29 150.79 67.78" class="colora3d4ff svgShape"></polygon><polygon fill="#ffffff" points="150.79 67.78 150.79 150.82 218.25 184.54 218.25 101.51 150.79 67.78" class="colorfff svgShape"></polygon><path fill="#24b2c0" d="M233.82,194.27a2.15,2.15,0,0,1-.9-.2l-83-41.54a1.88,1.88,0,0,1-1.08-1.74v-83a1.86,1.86,0,0,1,.88-1.66,2,2,0,0,1,1.89,0l83.09,41.54a2,2,0,0,1,1.05,1.78v83a1.9,1.9,0,0,1-.94,1.67A2.11,2.11,0,0,1,233.82,194.27Zm-81.07-44.65,79.14,39.56V110.46L152.75,71Z" class="color2b5185 svgShape"></path><polygon fill="#0bd1d2" points="194.9 172.86 150.79 194.92 150.79 150.82 194.9 128.75 194.9 172.86" class="colora3d4ff svgShape"></polygon><path fill="#ffffff" d="M177.42,165.44,151,178.66V150.81l28.9-14.46V161.5A4.34,4.34,0,0,1,177.42,165.44Z" class="colorfff svgShape"></path><path fill="#24b2c0" d="M150.78,196.86a2,2,0,0,1-1-.28,1.93,1.93,0,0,1-1-1.66V150.81a1.9,1.9,0,0,1,1.1-1.74L194,127a1.84,1.84,0,0,1,2.78,1.66v44.11a1.9,1.9,0,0,1-1.06,1.73l-44.07,22.07A2,2,0,0,1,150.78,196.86Zm2-44.85v39.76L193,171.66V131.89Z" class="color2b5185 svgShape"></path><polygon fill="#0bd1d2" points="150.79 106.7 106.68 128.75 150.79 150.82 194.9 128.75 150.79 106.7" class="colora3d4ff svgShape"></polygon><path fill="#ffffff" d="M150.78,106.7,122.25,121l26.58,13.34a4.56,4.56,0,0,0,3.95,0L179.45,121Z" class="colorfff svgShape"></path><path fill="#24b2c0" d="M150.78,152.75a1.9,1.9,0,0,1-.85-.2l-44.12-22.06a1.92,1.92,0,0,1-.88-2.59,1.79,1.79,0,0,1,.88-.88L149.93,105a1.91,1.91,0,0,1,1.74,0L195.78,127a2,2,0,0,1,0,3.52l-44.11,22A2.11,2.11,0,0,1,150.78,152.75Zm-39.74-24,39.74,19.83,39.75-19.83-39.75-19.88Z" class="color2b5185 svgShape"></path><polygon fill="#0bd1d2" points="150.79 194.92 150.79 150.82 106.68 128.75 106.68 172.86 150.79 194.92" class="colora3d4ff svgShape"></polygon><path fill="#ffffff" d="M135.58,170.53V143.21l-28.91-14.46v30.88l25.72,13a2.21,2.21,0,0,0,3-1,2.17,2.17,0,0,0,.23-1.09Z" class="colorfff svgShape"></path><path fill="#24b2c0" d="M150.78 196.86a1.77 1.77 0 01-.85-.2l-44.12-22.07a1.9 1.9 0 01-1.08-1.74v-44.1a1.9 1.9 0 01.89-1.66 2 2 0 011.89 0l44.15 22.08a2 2 0 011.06 1.75V195a1.94 1.94 0 01-.89 1.66A2 2 0 01150.78 196.86zm-42.16-25.2l40.25 20.11V152l-40.25-20.12zM78.13 168.32a2 2 0 01-1.95-1.94V136a2 2 0 013.9-.26v30.62a1.94 1.94 0 01-1.94 1.94zM78.13 127.58a2 2 0 01-1.95-1.94v-6a2 2 0 013.9 0v6a1.94 1.94 0 01-1.89 2zM208.16 111.4a2.23 2.23 0 01-.95-.21l-7.13-3.58a2 2 0 011.74-3.5h0l7.16 3.58a2 2 0 01-.9 3.69zM192.3 103.45a1.63 1.63 0 01-.89-.21L162 88.53A1.94 1.94 0 01163.54 85l.18.09 29.42 14.71a1.94 1.94 0 01-.94 3.68z" class="color2b5185 svgShape"></path></g></g></svg></g></svg>