<svg xmlns="http://www.w3.org/2000/svg" xmlns:xlink="http://www.w3.org/1999/xlink" viewBox="0 0 288 288" xmlns:v="https://vecta.io/nano"><style><![CDATA[.B{fill:none}.C{fill:#24b2c0}.D{fill:#fff}.E{opacity:.6}.F{opacity:.3}.G{opacity:.8}.H{fill:#f9f9f9}.I{fill:#2b454e}.J{fill:#375a64}.K{fill:#1a2e35}.L{opacity:.5}.M{fill:#e0e0e0}.N{clip-path:url(#A)}.O{fill:#ebebeb}.P{opacity:.1}.Q{opacity:.15}.R{fill:#ffa9a7}.S{opacity:.35}.T{fill:#c56150}.U{fill:#e6e6e6}.V{stroke:#e0e0e0}.W{stroke-miterlimit:9.549705386161804}.X{stroke-width:.267}]]></style><defs><clipPath id="A"><path d="M34.14 34.14h219.73v219.73H34.14z" class="B"/></clipPath><clipPath id="B"><path d="M116.72 45.2h37.11v27.46h-37.11z" class="B"/></clipPath><clipPath id="C"><path d="M75.99 48.62h20.87v13.97H75.99z" class="B"/></clipPath><clipPath id="D"><path d="M68.47 40.05h36.32v38.28H68.47z" class="B"/></clipPath><clipPath id="E"><path d="M97.96 158.05h39.51v41.26H97.96z" class="B"/></clipPath><clipPath id="F"><path d="M97.96 169.25h5.75v24.41h-5.75z" class="B"/></clipPath><clipPath id="G"><path d="M99.61 160.79h37.86v36.62H99.61z" class="B"/></clipPath><clipPath id="H"><path d="M99.61 160.79h28.07v30.96H99.61z" class="B"/></clipPath><clipPath id="I"><path d="M116.76 185.32h20.7v13.99h-20.7z" class="B"/></clipPath><clipPath id="J"><path d="M62.79 62.33h95.95v142.05H62.79z" class="B"/></clipPath><clipPath id="K"><path d="M59.59 197.78h4.65v8.62h-4.65z" class="B"/></clipPath><clipPath id="L"><path d="M62.79 144.23h95.95v61.98H62.79z" class="B"/></clipPath><clipPath id="M"><path d="M59.59 115.39h3.7v84.25h-3.7z" class="B"/></clipPath><clipPath id="N"><path d="M60.1 60.27h98.62v56.96H60.1z" class="B"/></clipPath><clipPath id="O"><path d="M44.27 66.18h63.5v36.7h-63.5z" class="B"/></clipPath><clipPath id="P"><path d="M43.8 101.75h2.43v5.62H43.8z" class="B"/></clipPath><clipPath id="Q"><path d="M49.73 75.19h55.06v83.69H49.73z" class="B"/></clipPath><clipPath id="R"><path d="M49.73 137.71h2.85v12.13h-2.85z" class="B"/></clipPath><clipPath id="S"><path d="M49.73 137.71h2.85v2.95h-2.85z" class="B"/></clipPath><clipPath id="T"><path d="M49.73 140.76h2.85v2.95h-2.85z" class="B"/></clipPath><clipPath id="U"><path d="M49.73 143.82h2.85v2.95h-2.85z" class="B"/></clipPath><clipPath id="V"><path d="M49.73 146.87h2.85v2.95h-2.85z" class="B"/></clipPath><clipPath id="W"><path d="M49.73 122.53h2.85v36.35h-2.85z" class="B"/></clipPath><clipPath id="X"><path d="M49.73 122.53h2.85v2.95h-2.85z" class="B"/></clipPath><clipPath id="Y"><path d="M49.73 125.6h2.85v2.95h-2.85z" class="B"/></clipPath><clipPath id="Z"><path d="M49.73 128.65h2.85v2.95h-2.85z" class="B"/></clipPath><clipPath id="a"><path d="M49.73 131.71h2.85v2.95h-2.85z" class="B"/></clipPath><clipPath id="b"><path d="M49.73 152.87h2.85v2.95h-2.85z" class="B"/></clipPath><clipPath id="c"><path d="M49.73 155.93h2.85v2.95h-2.85z" class="B"/></clipPath><clipPath id="d"><path d="M49.73 107.37h2.85v12.13h-2.85z" class="B"/></clipPath><clipPath id="e"><path d="M49.73 107.37h2.85v2.95h-2.85z" class="B"/></clipPath><clipPath id="f"><path d="M49.73 110.43h2.85v2.95h-2.85z" class="B"/></clipPath><clipPath id="g"><path d="M49.73 113.49h2.85v2.95h-2.85z" class="B"/></clipPath><clipPath id="h"><path d="M49.73 116.54h2.85v2.95h-2.85z" class="B"/></clipPath><clipPath id="i"><path d="M100.21 118.44h2.57v2.19h-2.57z" class="B"/></clipPath><clipPath id="j"><path d="M100.21 103.29h2.57v2.19h-2.57z" class="B"/></clipPath><clipPath id="k"><path d="M98.14 107.51h2.57v2.19h-2.57z" class="B"/></clipPath><clipPath id="l"><path d="M98.14 110.54h2.57v2.19h-2.57z" class="B"/></clipPath><clipPath id="m"><path d="M100.21 112.38h2.57v2.2h-2.57z" class="B"/></clipPath><clipPath id="n"><path d="M98.14 116.6h2.57v2.19h-2.57z" class="B"/></clipPath><clipPath id="o"><path d="M88.63 105.62h10.1v6.54h-10.1z" class="B"/></clipPath><clipPath id="p"><path d="M88.63 120.78h10.1v6.54h-10.1z" class="B"/></clipPath><clipPath id="q"><path d="M88.63 109.84h8.03v5.35h-8.03z" class="B"/></clipPath><clipPath id="r"><path d="M88.63 112.88h8.03v5.35h-8.03z" class="B"/></clipPath><clipPath id="s"><path d="M88.63 114.72h10.1v6.54h-10.1z" class="B"/></clipPath><clipPath id="t"><path d="M88.63 118.94h8.03v5.35h-8.03z" class="B"/></clipPath><clipPath id="u"><path d="M100.21 124.55h2.57v2.19h-2.57z" class="B"/></clipPath><clipPath id="v"><path d="M98.14 122.7h2.57v2.19h-2.57z" class="B"/></clipPath><clipPath id="w"><path d="M88.63 126.88h10.1v6.54h-10.1z" class="B"/></clipPath><clipPath id="x"><path d="M88.63 125.03h8.03v5.35h-8.03z" class="B"/></clipPath><clipPath id="y"><path d="M100.21 93.61h2.57v2.19h-2.57z" class="B"/></clipPath><clipPath id="z"><path d="M100.21 78.45h2.57v2.2h-2.57z" class="B"/></clipPath><clipPath id="AA"><path d="M98.14 82.67h2.57v2.2h-2.57z" class="B"/></clipPath><clipPath id="AB"><path d="M98.14 85.7h2.57v2.19h-2.57z" class="B"/></clipPath><clipPath id="AC"><path d="M100.21 87.54h2.57v2.2h-2.57z" class="B"/></clipPath><clipPath id="AD"><path d="M98.14 91.77h2.57v2.19h-2.57z" class="B"/></clipPath><clipPath id="AE"><path d="M88.63 80.78h10.1v6.54h-10.1z" class="B"/></clipPath><clipPath id="AF"><path d="M88.63 95.95h10.1v6.54h-10.1z" class="B"/></clipPath><clipPath id="AG"><path d="M88.63 85h8.03v5.35h-8.03z" class="B"/></clipPath><clipPath id="AH"><path d="M88.63 88.04h8.03v5.35h-8.03z" class="B"/></clipPath><clipPath id="AI"><path d="M88.63 89.88h10.1v6.54h-10.1z" class="B"/></clipPath><clipPath id="AJ"><path d="M88.63 94.1h8.03v5.35h-8.03z" class="B"/></clipPath><clipPath id="AK"><path d="M55.2 102.99h8.45v5.39H55.2z" class="B"/></clipPath><clipPath id="AL"><path d="M55.2 107.16h5.38v3.6H55.2z" class="B"/></clipPath><clipPath id="AM"><path d="M64.37 96.91h9.74v6.17h-9.74z" class="B"/></clipPath><clipPath id="AN"><path d="M61.04 102.04h8.37v5.35h-8.37z" class="B"/></clipPath><clipPath id="AO"><path d="M70.13 94.34h12.72v7.78H70.13z" class="B"/></clipPath><clipPath id="AP"><path d="M55.18 104.6h14.23v8.67H55.18z" class="B"/></clipPath><clipPath id="AQ"><path d="M70.13 96.89h12.72v7.78H70.13z" class="B"/></clipPath><clipPath id="AR"><path d="M55.27 132.94h2.55v1.97h-2.55z" class="B"/></clipPath><clipPath id="AS"><path d="M55.27 119.93h2.55v1.97h-2.55z" class="B"/></clipPath><clipPath id="AT"><path d="M55.27 125.04h2.55v1.97h-2.55z" class="B"/></clipPath><clipPath id="AU"><path d="M55.27 127.43h2.55v1.97h-2.55z" class="B"/></clipPath><clipPath id="AV"><path d="M55.27 129.81h2.55v1.97h-2.55z" class="B"/></clipPath><clipPath id="AW"><path d="M55.27 135.09h2.55v1.97h-2.55z" class="B"/></clipPath><clipPath id="AX"><path d="M55.27 150.68h2.55v1.97h-2.55z" class="B"/></clipPath><clipPath id="AY"><path d="M55.27 152.83h2.55v1.97h-2.55z" class="B"/></clipPath><clipPath id="AZ"><path d="M55.27 140.22h2.55v1.97h-2.55z" class="B"/></clipPath><clipPath id="Aa"><path d="M55.27 142.6h2.55v1.97h-2.55z" class="B"/></clipPath><clipPath id="Ab"><path d="M55.27 144.97h2.55v1.97h-2.55z" class="B"/></clipPath><clipPath id="Ac"><path d="M76.59 64.39h100.76v64.14H76.59z" class="B"/></clipPath><clipPath id="Ad"><path d="M77.04 64.39h99.82v57.76H77.04z" class="B"/></clipPath><clipPath id="Ae"><path d="M85.68 143.28h10.34v28.94H85.68z" class="B"/></clipPath><clipPath id="Af"><path d="M131.56 124.17h5.37v6.91h-5.37z" class="B"/></clipPath><clipPath id="Ag"><path d="M121.7 123.98h10.25v28.87H121.7z" class="B"/></clipPath><clipPath id="Ah"><path d="M121.7 123.98h7.72v28.87h-7.72z" class="B"/></clipPath><clipPath id="Ai"><path d="M134.49 117.68h.41v.4h-.41z" class="B"/></clipPath><clipPath id="Aj"><path d="M142.56 115.07h2.12v4.72h-2.12z" class="B"/></clipPath><clipPath id="Ak"><path d="M167.16 135.43h2.08v1.78h-2.08z" class="B"/></clipPath><clipPath id="Al"><path d="M167.16 123.12h2.08v1.78h-2.08z" class="B"/></clipPath><clipPath id="Am"><path d="M165.48 126.56h2.08v1.78h-2.08z" class="B"/></clipPath><clipPath id="An"><path d="M165.48 129.02h2.08v1.78h-2.08z" class="B"/></clipPath><clipPath id="Ao"><path d="M167.16 130.52h2.08v1.78h-2.08z" class="B"/></clipPath><clipPath id="Ap"><path d="M165.48 133.94h2.08v1.78h-2.08z" class="B"/></clipPath><clipPath id="Aq"><path d="M157.76 125.02h8.2v5.31h-8.2z" class="B"/></clipPath><clipPath id="Ar"><path d="M157.76 137.33h8.2v5.31h-8.2z" class="B"/></clipPath><clipPath id="As"><path d="M157.76 128.45h6.52v4.35h-6.52z" class="B"/></clipPath><clipPath id="At"><path d="M157.76 130.92h6.52v4.35h-6.52z" class="B"/></clipPath><clipPath id="Au"><path d="M157.76 132.41h8.2v5.31h-8.2z" class="B"/></clipPath><clipPath id="Av"><path d="M157.76 135.84h6.52v4.35h-6.52z" class="B"/></clipPath><clipPath id="Aw"><path d="M167.16 140.39h2.08v1.78h-2.08z" class="B"/></clipPath><clipPath id="Ax"><path d="M165.48 138.89h2.08v1.78h-2.08z" class="B"/></clipPath><clipPath id="Ay"><path d="M157.76 142.28h8.2v5.31h-8.2z" class="B"/></clipPath><clipPath id="Az"><path d="M157.76 140.79h6.52v4.35h-6.52z" class="B"/></clipPath><clipPath id="BA"><path d="M43.8 157.58h27.27v21.31H43.8z" class="B"/></clipPath><clipPath id="BB"><path d="M44.23 157.58h26.38v15.3H44.23z" class="B"/></clipPath><clipPath id="BC"><path d="M162.64 167.91h2.98v4.34h-2.98z" class="B"/></clipPath><clipPath id="BD"><path d="M162.64 169.37h2.97v2.87h-2.97z" class="B"/></clipPath><clipPath id="BE"><path d="M163.69 168.23h1.53v1.22h-1.53z" class="B"/></clipPath><clipPath id="BF"><path d="M153.97 161.54h2.98v4.34h-2.98z" class="B"/></clipPath><clipPath id="BG"><path d="M153.97 163h2.97v2.87h-2.97z" class="B"/></clipPath><clipPath id="BH"><path d="M155.02 161.86h1.53v1.22h-1.53z" class="B"/></clipPath><clipPath id="BI"><path d="M151.06 167.11h2.98v4.34h-2.98z" class="B"/></clipPath><clipPath id="BJ"><path d="M151.06 168.57h2.97v2.87h-2.97z" class="B"/></clipPath><clipPath id="BK"><path d="M152.11 167.43h1.53v1.22h-1.53z" class="B"/></clipPath><clipPath id="BL"><path d="M153.97 169.32h2.98v4.34h-2.98z" class="B"/></clipPath><clipPath id="BM"><path d="M153.97 170.77h2.97v2.87h-2.97z" class="B"/></clipPath><clipPath id="BN"><path d="M155.02 169.62h1.53v1.22h-1.53z" class="B"/></clipPath><clipPath id="BO"><path d="M156.88 163.75h2.98v4.34h-2.98z" class="B"/></clipPath><clipPath id="BP"><path d="M156.88 165.2h2.97v2.87h-2.97z" class="B"/></clipPath><clipPath id="BQ"><path d="M157.93 164.05h1.53v1.22h-1.53z" class="B"/></clipPath><clipPath id="BR"><path d="M171.32 151.53h2.98v4.33h-2.98z" class="B"/></clipPath><clipPath id="BS"><path d="M171.32 152.99h2.97v2.87h-2.97z" class="B"/></clipPath><clipPath id="BT"><path d="M172.37 151.84h1.53v1.22h-1.53z" class="B"/></clipPath><clipPath id="BU"><path d="M168.41 157.09h2.98v4.34h-2.98z" class="B"/></clipPath><clipPath id="BV"><path d="M168.41 158.55h2.97v2.87h-2.97z" class="B"/></clipPath><clipPath id="BW"><path d="M169.45 157.41h1.53v1.22h-1.53z" class="B"/></clipPath><clipPath id="BX"><path d="M171.32 159.3h2.98v4.34h-2.98z" class="B"/></clipPath><clipPath id="BY"><path d="M171.32 160.76h2.97v2.87h-2.97z" class="B"/></clipPath><clipPath id="BZ"><path d="M172.37 159.61h1.53v1.22h-1.53z" class="B"/></clipPath><clipPath id="Ba"><path d="M174.23 153.73h2.98v4.34h-2.98z" class="B"/></clipPath><clipPath id="Bb"><path d="M174.23 155.19h2.97v2.87h-2.97z" class="B"/></clipPath><clipPath id="Bc"><path d="M175.28 154.05h1.53v1.22h-1.53z" class="B"/></clipPath><clipPath ><path d="M141.18 140.98h45.91v45.69h-45.91z" class="B"/></clipPath><clipPath id="Be"><path d="M65.69 221.15h30.45v18.01H65.69z" class="B"/></clipPath><clipPath id="Bf"><path d="M87.18 207.11h24.28v14.35H87.18z" class="B"/></clipPath><clipPath id="Bg"><path d="M205.34 40.05h7.9v6.04h-7.9z" class="B"/></clipPath><clipPath id="Bh"><path d="M181.68 96.16h7.9v6.04h-7.9z" class="B"/></clipPath><clipPath id="Bi"><path d="M216.5 107.93h20.59v26.4H216.5z" class="B"/></clipPath><clipPath id="Bj"><path d="M194.7 167h9.79v8.15h-9.79z" class="B"/></clipPath><clipPath id="Bk"><path d="M195.02 94.23h14.12v77.86h-14.12z" class="B"/></clipPath><clipPath id="Bl"><path d="M199.12 154.54h2.9v12.86h-2.9z" class="B"/></clipPath><clipPath id="Bm"><path d="M199.42 163.03h2.01v.47h-2.01z" class="B"/></clipPath><clipPath id="Bn"><path d="M225.64 77.88h3.14v6.66h-3.14z" class="B"/></clipPath><clipPath id="Bo"><path d="M230.62 69.54h3.18v15h-3.18z" class="B"/></clipPath><clipPath id="Bp"><path d="M218.71 62.37h14.83v8.59h-14.83z" class="B"/></clipPath><path id="Bq" d="M117.85,72.65a.93.93,0,0,1-.54-.14,1.36,1.36,0,0,1-.59-1.27V67.8a4,4,0,0,1,1.79-3.12l33.32-19.23a1.4,1.4,0,0,1,1.4-.12,1.36,1.36,0,0,1,.6,1.27V50A4,4,0,0,1,152,53.15L118.71,72.4a1.72,1.72,0,0,1-.86.25m34.84-27.06a1.43,1.43,0,0,0-.67.21L118.71,65a3.54,3.54,0,0,0-1.6,2.78v3.43a1,1,0,0,0,.4,1,1,1,0,0,0,1-.13l33.32-19.23a3.57,3.57,0,0,0,1.61-2.78V46.63a1,1,0,0,0-.41-1,.67.67,0,0,0-.34-.09"/><path id="Br" d="M76.72,62.59a.73.73,0,0,1-.35-.09.86.86,0,0,1-.38-.79v-.39a2.3,2.3,0,0,1,1.07-1.84L95.6,48.78a.77.77,0,0,1,1.25.73v.39a2.31,2.31,0,0,1-1.06,1.84L77.25,62.44a1.2,1.2,0,0,1-.53.15M96.13,49a.67.67,0,0,0-.34.1L77.25,59.8a2,2,0,0,0-.87,1.52v.39a.4.4,0,0,0,.68.39L95.6,51.41a2,2,0,0,0,.87-1.51v-.39a.5.5,0,0,0-.19-.46.2.2,0,0,0-.15,0"/><path id="Bs" d="M69.59,78.31a1,1,0,0,1-.54-.15,1.34,1.34,0,0,1-.58-1.24V62.15a3.9,3.9,0,0,1,1.76-3l32.6-18.82a1.33,1.33,0,0,1,1.37-.11,1.35,1.35,0,0,1,.59,1.24V56.18a3.91,3.91,0,0,1-1.77,3L70.43,78.05l-.1-.16.1.16a1.66,1.66,0,0,1-.84.26m34.08-37.9a1.37,1.37,0,0,0-.65.2L70.43,59.44a3.48,3.48,0,0,0-1.58,2.71V76.92a1,1,0,0,0,.39.91,1,1,0,0,0,1-.11l32.6-18.83a3.45,3.45,0,0,0,1.57-2.71V41.41a1,1,0,0,0-.39-.91.67.67,0,0,0-.34-.09"/><path id="Bt" d="M121.67 198.09l13.7-7.92a3.57 3.57 0 0 0 2.12-2.95v-1.91l-14.21-8a3 3 0 0 1-1.37-2.36v-16.9L98 171.89v16.9a3 3 0 0 0 1.37 2.36l12.09 7a11.29 11.29 0 0 0 10.22 0"/><path id="Bu" d="M99.61,187.81a3,3,0,0,0,1.36,2.36l10.44,6a11.29,11.29,0,0,0,10.22,0l13.72-7.92c2.82-1.63,2.82-4.28,0-5.9l-10.45-6a3,3,0,0,1-1.37-2.36v-13.2L99.61,174.62Z"/><path id="Bv" d="M137.46,185.32v1.91a3.58,3.58,0,0,1-2.12,3l-13.67,7.91a10.11,10.11,0,0,1-4.88,1.21v-1.91a10.11,10.11,0,0,0,4.88-1.21l13.7-7.92a3.57,3.57,0,0,0,2.12-2.95"/><path id="Bw" d="M64.5,204.15,157,150.73c1-.54,1.71-1.91,1.71-1.5V64.94c0-2.54-.77-3-1.71-2.44L64.48,115.92a3.78,3.78,0,0,0-1.71,3v84.26c0,1.09.76,1.53,1.71,1"/><path id="Bx" d="M66,192.9V120a2.24,2.24,0,0,1,1-1.76l87.5-50.52c.57-.33,1-.07,1,.59V141.2a2.28,2.28,0,0,1-1,1.78L67,193.5c-.56.32-1,.05-1-.6"/><path id="By" d="M102.24,118.52l-1.48.86a1.18,1.18,0,0,0-.55,1c0,.32.24.44.55.26l1.48-.85a1.18,1.18,0,0,0,.54-.9c0-.33-.24-.45-.54-.28"/><path id="Bz" d="M102.24,103.37l-1.48.85a1.15,1.15,0,0,0-.55,1c0,.33.24.45.55.28l1.48-.85a1.2,1.2,0,0,0,.54-.91c0-.32-.24-.45-.54-.28"/><path id="CA" d="M100.16,107.59l-1.47.85a1.17,1.17,0,0,0-.55.9c0,.33.24.45.55.28l1.47-.85a1.14,1.14,0,0,0,.54-1c0-.33-.24-.45-.54-.28"/><path id="CB" d="M100.16,110.61l-1.47.85a1.18,1.18,0,0,0-.55.91c0,.33.24.45.55.28l1.47-.86a1.14,1.14,0,0,0,.54-.9c0-.32-.24-.45-.54-.28"/><path id="CC" d="M102.24,112.46l-1.48.86a1.13,1.13,0,0,0-.55.89c0,.34.24.45.55.28l1.48-.85a1.18,1.18,0,0,0,.54-.91c0-.32-.24-.44-.54-.27"/><path id="CD" d="M100.16,116.69l-1.47.85a1.15,1.15,0,0,0-.55.9c0,.33.24.45.55.28l1.47-.86a1.14,1.14,0,0,0,.54-.9c0-.33-.24-.44-.54-.27"/><path id="CE" d="M98.19,105.7l-9,5.2a1.22,1.22,0,0,0-.54,1c0,.32.25.44.54.27l9-5.2a1.13,1.13,0,0,0,.53-.93c0-.32-.24-.45-.54-.28"/><path id="CF" d="M98.19,120.86l-9,5.2a1.18,1.18,0,0,0-.54,1c0,.33.25.45.54.28l9-5.21a1.15,1.15,0,0,0,.54-1c0-.33-.24-.45-.54-.28"/><path id="CG" d="M96.12,109.93l-6.94,4a1.17,1.17,0,0,0-.55.9c0,.33.25.45.55.28l6.94-4a1.12,1.12,0,0,0,.54-.95c0-.33-.24-.45-.54-.27"/><path id="CH" d="M96.12,113l-6.94,4a1.22,1.22,0,0,0-.55,1c0,.32.25.45.55.28l6.94-4a1.17,1.17,0,0,0,.54-1c0-.32-.24-.45-.54-.28"/><path id="CI" d="M98.19,114.8l-9,5.2a1.2,1.2,0,0,0-.54,1c0,.32.25.45.54.27l9-5.2a1.17,1.17,0,0,0,.54-.91c0-.32-.24-.45-.54-.28"/><path id="CJ" d="M96.12,119l-6.94,4a1.18,1.18,0,0,0-.55.91c0,.32.25.44.55.27l6.94-4a1.14,1.14,0,0,0,.54-1c0-.33-.24-.45-.54-.28"/><path id="CK" d="M102.24,124.62l-1.48.85a1.21,1.21,0,0,0-.55,1c0,.32.24.45.55.28l1.48-.85a1.21,1.21,0,0,0,.54-1c0-.32-.24-.45-.54-.28"/><path id="CL" d="M100.16,122.78l-1.47.86a1.15,1.15,0,0,0-.55.9c0,.33.24.45.55.27l1.47-.85a1.14,1.14,0,0,0,.54-.9c0-.33-.24-.45-.54-.28"/><path id="CM" d="M98.19,127l-9,5.21a1.22,1.22,0,0,0-.54,1c0,.33.25.45.54.28l9-5.2a1.17,1.17,0,0,0,.54-1c0-.32-.24-.45-.54-.28"/><path id="CN" d="M96.12,125.1l-6.94,4a1.18,1.18,0,0,0-.55.91c0,.32.25.45.55.28l6.94-4a1.16,1.16,0,0,0,.54-.9c0-.34-.24-.46-.54-.28"/><path id="CO" d="M102.24,93.69l-1.48.85a1.18,1.18,0,0,0-.55.91c0,.32.24.45.55.28l1.48-.86a1.17,1.17,0,0,0,.54-1c0-.32-.24-.45-.54-.27"/><path id="CP" d="M102.24,78.53l-1.48.85a1.17,1.17,0,0,0-.55.9c0,.33.24.45.55.28l1.48-.85a1.2,1.2,0,0,0,.54-.91c0-.32-.24-.44-.54-.27"/><path id="CQ" d="M100.16,82.75l-1.47.86a1.15,1.15,0,0,0-.55.9c0,.33.24.44.55.27l1.47-.85a1.14,1.14,0,0,0,.54-.9c0-.33-.24-.45-.54-.28"/><path id="CR" d="M100.16,85.78l-1.47.85a1.15,1.15,0,0,0-.55.9c0,.33.24.45.55.28l1.47-.85a1.2,1.2,0,0,0,.54-.91c0-.32-.24-.45-.54-.27"/><path id="CS" d="M102.24,87.62l-1.48.86a1.15,1.15,0,0,0-.55.9c0,.33.24.45.55.27l1.48-.85a1.15,1.15,0,0,0,.54-1c0-.33-.24-.45-.54-.28"/><path id="CT" d="M100.16,91.85l-1.47.85a1.16,1.16,0,0,0-.55,1c0,.33.24.45.55.28l1.47-.85a1.18,1.18,0,0,0,.54-.91c0-.32-.24-.45-.54-.27"/><path id="CU" d="M98.19,80.87l-9,5.2a1.18,1.18,0,0,0-.54.9c0,.32.25.45.54.28l9-5.21a1.14,1.14,0,0,0,.53-.87c0-.32-.24-.45-.54-.26"/><path id="CV" d="M98.19,96l-9,5.21a1.18,1.18,0,0,0-.54.9c0,.33.25.45.54.28l9-5.2a1.15,1.15,0,0,0,.54-.91c0-.33-.24-.45-.54-.28"/><path id="CW" d="M96.12,85.09l-6.92,4a1.18,1.18,0,0,0-.54.91c0,.32.25.44.54.27l7-4a1.14,1.14,0,0,0,.54-.9c0-.33-.24-.45-.54-.27"/><path id="CX" d="M96.12,88.12l-6.92,4a1.15,1.15,0,0,0-.54.89c0,.33.25.45.54.28l7-4a1.17,1.17,0,0,0,.54-.91c0-.32-.24-.45-.54-.27"/><path id="CY" d="M98.19,90l-9,5.2a1.2,1.2,0,0,0-.54.91c0,.32.25.45.54.28l9-5.21a1.16,1.16,0,0,0,.54-.9c0-.33-.24-.45-.54-.28"/><path id="CZ" d="M96.12,94.18l-6.92,4a1.18,1.18,0,0,0-.54.9c0,.32.25.45.54.27l7-4a1.14,1.14,0,0,0,.54-1c0-.33-.24-.45-.54-.28"/><path id="Ca" d="M55.58,109.87l4.61-2.66a.23.23,0,0,1,.38.2.85.85,0,0,1-.38.64l-4.61,2.65a.23.23,0,0,1-.38-.2.79.79,0,0,1,.38-.63"/><path id="Cb" d="M64.75,102.18l9-5.22a.24.24,0,0,1,.39.2.8.8,0,0,1-.39.63l-9,5.22a.23.23,0,0,1-.38-.19.81.81,0,0,1,.38-.64"/><path id="Cc" d="M61.42,106.51l7.64-4.41a.24.24,0,0,1,.39.2.8.8,0,0,1-.39.63l-7.64,4.41c-.21.12-.38,0-.38-.19a.84.84,0,0,1,.38-.64"/><path id="Cd" d="M70.52,101.23l11.94-6.84c.22-.12.39,0,.39.19a.82.82,0,0,1-.39.64l-11.94,6.84c-.22.12-.39,0-.39-.19a.82.82,0,0,1,.39-.64"/><path id="Ce" d="M55.57,112.38,69,104.65a.23.23,0,0,1,.38.2.84.84,0,0,1-.38.64l-13.46,7.72c-.22.13-.39,0-.39-.2a.79.79,0,0,1,.39-.63"/><path id="Cf" d="M70.52,103.79,82.46,97c.22-.13.39,0,.39.19a.82.82,0,0,1-.39.64l-11.94,6.85c-.22.11-.39,0-.39-.2a.8.8,0,0,1,.39-.64"/><path id="Cg" d="M55.66,121l1.78-1c.21-.12.38,0,.38.19a.82.82,0,0,1-.38.64l-1.78,1a.24.24,0,0,1-.39-.2.84.84,0,0,1,.39-.64"/><path id="Ch" d="M55.66,126.12l1.78-1a.23.23,0,0,1,.38.2.78.78,0,0,1-.38.63l-1.78,1a.24.24,0,0,1-.39-.19.82.82,0,0,1,.39-.64"/><path id="Ci" d="M55.66,128.51l1.78-1a.23.23,0,0,1,.38.19.84.84,0,0,1-.38.64l-1.78,1a.24.24,0,0,1-.39-.2.8.8,0,0,1,.39-.63"/><path id="Cj" d="M55.66,130.89l1.78-1a.23.23,0,0,1,.38.19.84.84,0,0,1-.38.64l-1.78,1c-.21.12-.39,0-.39-.19a.82.82,0,0,1,.39-.64"/><path id="Ck" d="M55.66,136.17l1.78-1a.23.23,0,0,1,.38.19.81.81,0,0,1-.38.64l-1.78,1c-.21.12-.39,0-.39-.19a.82.82,0,0,1,.39-.64"/><path id="Cl" d="M55.66,153.91l1.78-1c.21-.12.38,0,.38.19a.81.81,0,0,1-.38.64l-1.78,1a.24.24,0,0,1-.39-.2.84.84,0,0,1,.39-.64"/><path id="Cm" d="M55.66,146.05l1.78-1c.21-.12.38,0,.38.19a.81.81,0,0,1-.38.64l-1.78,1a.24.24,0,0,1-.39-.19.82.82,0,0,1,.39-.64"/><path id="Cn" d="M177.35 66.49v5l-98.86 57.04-1.91-1.1v-4.89a3 3 0 0 1 .45-1.48 3 3 0 0 1 1-1.08L174 64.59a1 1 0 0 1 1.08-.08c.26.16 1.56.91 1.83 1a.28.28 0 0 1 .11.08.43.43 0 0 1 .12.11.6.6 0 0 1 .09.15.71.71 0 0 1 .08.18.67.67 0 0 1 0 .2h0a.81.81 0 0 1 0 .22"/><path id="Co" d="M175.87 65.66L80 121.05a3.1 3.1 0 0 0-1 1.11l-2-1.1a3 3 0 0 1 1-1.06l96-55.41a1 1 0 0 1 1.07-.08l1.81 1a1.07 1.07 0 0 0-1 .12"/><path id="Cp" d="M93.43,172.22h0c-5.73-.31-7.1-12.82-7.71-18.15v0a.2.2,0,0,1,.06-.15c1.81-1.48,2.86-7.1,3-10.44a.17.17,0,0,1,.07-.13h.08c.49,3.29,3.17,5.3,6.2,3h0a0,0,0,0,1,0,.05c1,9.46,1.84,17.61-1.67,25.79a.18.18,0,0,1,0,.07m-7.64-18.23c.61,5.31,2,17.65,7.58,18,3.41-8.07,2.59-16.15,1.61-25.49-2.91,2.2-5.48.49-6.18-2.51-.23,3.4-1.28,8.46-3,10"/><path id="Cq" d="M124.77,124c.48,3.24,3.16,5.44,6.31,3,1,10.06,1.76,17.86-1.66,25.86-5.73-.29-7.12-12.91-7.72-18.24,1.91-1.53,2.93-7.32,3.07-10.62"/><path id="Cr" d="M134.71,117.75c0-.08-.15,0-.21.1a.14.14,0,0,0,.14.23c.14,0,.27-.28.27-.28s0-.23-.2,0"/><path id="Cs" d="M168.8,135.5l-1.2.7a.92.92,0,0,0-.44.73c0,.26.2.37.44.22l1.2-.68a1,1,0,0,0,.44-.74c0-.27-.19-.37-.44-.23"/><path id="Ct" d="M168.8,123.19l-1.2.7a.92.92,0,0,0-.44.73c0,.26.2.37.44.22l1.2-.68a1,1,0,0,0,.44-.74c0-.27-.19-.37-.44-.23"/><path id="Cu" d="M167.12,126.62l-1.2.7a.92.92,0,0,0-.44.73c0,.26.19.36.44.22l1.2-.69a1,1,0,0,0,.44-.73c0-.27-.2-.37-.44-.23"/><path id="Cv" d="M167.12,129.07l-1.2.7a.94.94,0,0,0-.44.74c0,.26.19.36.44.22l1.2-.69a1,1,0,0,0,.44-.74c0-.26-.2-.36-.44-.23"/><path id="Cw" d="M168.8,130.57l-1.2.7a.93.93,0,0,0-.44.74c0,.26.2.36.44.22l1.2-.69a1,1,0,0,0,.44-.74c0-.27-.19-.36-.44-.23"/><path id="Cx" d="M167.12,134l-1.2.69a.92.92,0,0,0-.44.73c0,.27.19.37.44.23l1.2-.69a1,1,0,0,0,.44-.74c0-.27-.2-.36-.44-.22"/><path id="Cy" d="M165.52,125.1l-7.32,4.22a1,1,0,0,0-.44.74c0,.26.19.36.44.23l7.32-4.23a1,1,0,0,0,.44-.74c0-.27-.2-.36-.44-.22"/><path id="Cz" d="M165.52,137.4l-7.32,4.22a1,1,0,0,0-.44.74c0,.26.19.36.44.23l7.32-4.23a1,1,0,0,0,.44-.74c0-.27-.2-.36-.44-.22"/><path id="DA" d="M163.83,128.52l-5.63,3.26a1,1,0,0,0-.44.73c0,.27.19.36.44.22l5.63-3.26a.92.92,0,0,0,.44-.73c0-.27-.19-.36-.44-.22"/><path id="DB" d="M163.83,131l-5.63,3.27a1,1,0,0,0-.44.74c0,.25.19.36.44.22l5.63-3.26a.94.94,0,0,0,.44-.74c0-.26-.19-.36-.44-.23"/><path id="DC" d="M165.52,132.47l-7.32,4.23a1,1,0,0,0-.44.74c0,.26.19.36.44.22l7.32-4.23a1,1,0,0,0,.44-.73c0-.26-.2-.37-.44-.23"/><path id="DD" d="M163.83,135.9l-5.63,3.26a1,1,0,0,0-.44.73c0,.27.19.38.44.23l5.63-3.25a1,1,0,0,0,.44-.74c0-.27-.19-.37-.44-.23"/><path id="DE" d="M168.8,140.46l-1.2.68a1,1,0,0,0-.44.74c0,.27.2.36.44.23l1.2-.7a1,1,0,0,0,.44-.73c0-.27-.19-.37-.44-.22"/><path id="DF" d="M167.12,139l-1.2.69a1,1,0,0,0-.44.74c0,.26.19.36.44.22l1.2-.7a1,1,0,0,0,.44-.72c0-.27-.2-.38-.44-.23"/><path id="DG" d="M165.52,142.35l-7.32,4.23a1,1,0,0,0-.44.73c0,.26.19.37.44.22l7.32-4.22a1,1,0,0,0,.44-.73c0-.27-.2-.38-.44-.23"/><path id="DH" d="M163.83,140.86l-5.63,3.25a1,1,0,0,0-.44.74c0,.26.19.36.44.22l5.63-3.26a.92.92,0,0,0,.44-.73c0-.27-.19-.37-.44-.22"/><path id="DI" d="M71.06 159.59v4.66l-25.47 14.66-1.8-1v-4.59a2.87 2.87 0 0 1 .43-1.4 2.79 2.79 0 0 1 1-1l22.64-13a1 1 0 0 1 1-.09c.26.17 1.5.87 1.75 1l.11.08.11.11a.38.38 0 0 1 .09.13.56.56 0 0 1 .07.18.67.67 0 0 1 0 .2h0a.67.67 0 0 1 0 .2"/><path id="DJ" d="M69.67 158.79L47 171.84a2.83 2.83 0 0 0-1 1l-1.84-1a3 3 0 0 1 1-1l22.65-13a1 1 0 0 1 1-.09l1.72 1a1 1 0 0 0-1 .12"/><path id="DK" d="M165.6,169.21a3.57,3.57,0,0,1-1.49,2.87c-.82.46-1.49,0-1.49-1.13a3.6,3.6,0,0,1,1.49-2.87c.83-.47,1.49,0,1.49,1.12"/><path id="DL" d="M157,162.85a3.6,3.6,0,0,1-1.49,2.87c-.82.47-1.49,0-1.49-1.13a3.57,3.57,0,0,1,1.49-2.87c.82-.47,1.49,0,1.49,1.13"/><path id="DM" d="M154,168.42a3.59,3.59,0,0,1-1.49,2.86c-.82.48-1.49,0-1.49-1.12a3.55,3.55,0,0,1,1.49-2.87c.82-.48,1.49,0,1.49,1.13"/><path id="DN" d="M157,170.62a3.62,3.62,0,0,1-1.49,2.86c-.82.47-1.49,0-1.49-1.13a3.58,3.58,0,0,1,1.49-2.86c.82-.47,1.49,0,1.49,1.13"/><path id="DO" d="M159.87,165.05a3.54,3.54,0,0,1-1.49,2.86c-.82.48-1.49,0-1.49-1.11a3.62,3.62,0,0,1,1.49-2.87c.82-.47,1.49,0,1.49,1.13"/><path id="DP" d="M174.3,152.8a3.55,3.55,0,0,1-1.49,2.86c-.82.48-1.49,0-1.49-1.13a3.58,3.58,0,0,1,1.49-2.86c.82-.48,1.49,0,1.49,1.13"/><path id="DQ" d="M171.39,158.4a3.6,3.6,0,0,1-1.49,2.87c-.83.47-1.49,0-1.49-1.13a3.55,3.55,0,0,1,1.49-2.87c.82-.47,1.49,0,1.49,1.13"/><path id="DR" d="M174.3,160.61a3.58,3.58,0,0,1-1.49,2.86c-.82.47-1.49,0-1.49-1.13a3.58,3.58,0,0,1,1.49-2.86c.82-.48,1.49,0,1.49,1.13"/><path id="DS" d="M177.21,155a3.54,3.54,0,0,1-1.49,2.86c-.82.47-1.49,0-1.49-1.12a3.58,3.58,0,0,1,1.49-2.87c.83-.47,1.49,0,1.49,1.13"/><path id="DT" d="M94.52 223.19a.43.43 0 0 1-.25.35l-2.2 1.15a.61.61 0 0 0-.27.82 3.89 3.89 0 0 1 .22.6 1 1 0 0 0 .72.7l.55.09 1-.5a.37.37 0 0 0 .24-.35h0zm-17.28 1.05c-2.58 1.07-3.51 3-2.4 4.62a5.23 5.23 0 0 1 2.36-1.76c3-1.24 7.09-.86 9.13.86a4.09 4.09 0 0 1 .7.74 2.56 2.56 0 0 0-.59-3.55l-.08-.05c-2-1.72-6.13-2.1-9.12-.86m18.92 3.58v.18l-.5 1.55a.86.86 0 0 1-.8.57l-3.14-.12a1.17 1.17 0 0 0-.49.11 1.7 1.7 0 0 0-.54.34 6.14 6.14 0 0 1-.75.69.54.54 0 0 0-.13.76v.05l1.07 1.17a1.51 1.51 0 0 1 .28-.15h0a1.34 1.34 0 0 1 .49-.1l3.14.09a.86.86 0 0 0 .8-.58l.49-1.54a.54.54 0 0 0 0-.18h0zM70.66 224h0a.42.42 0 0 0 .12.3l.16.18a1.09 1.09 0 0 0 .26-.21 8.32 8.32 0 0 1 .77-.68.56.56 0 0 0 .13-.76v-.05l-1.23-1.34a.5.5 0 0 1-.13-.25zm20.53 9.64a.43.43 0 0 1-.3.38l-2.76 1.14a1.23 1.23 0 0 1-.71.05.93.93 0 0 1-.36-.14l-1.83-1.23a1.77 1.77 0 0 0-1.11-.21l-1.78.25a1.2 1.2 0 0 0-.6.26 1 1 0 0 0-.29.33l-.71 1.37a1 1 0 0 1-.5.43.9.9 0 0 1-.39.07l-3.43-.34a.58.58 0 0 1-.53-.65h0l.18-1.32a.75.75 0 0 0-.51-.78l-1.43-.51a1.82 1.82 0 0 0-1.13-.07h0l-2.66.87a1.27 1.27 0 0 1-.67 0 1.5 1.5 0 0 1-.38-.19l-1.74-1.46a.47.47 0 0 1-.16-.31v2.87a.42.42 0 0 0 .17.31l1.73 1.46a1.21 1.21 0 0 0 .73.24h.31l2.65-.88h0a1.9 1.9 0 0 1 1.13.07c.45.19.93.36 1.43.52a.71.71 0 0 1 .35.24v1.91a.6.6 0 0 0 .54.59l3.42.32a.85.85 0 0 0 .39-.07 1 1 0 0 0 .23-.12l.1-.08h0l.08-.08.07-.11h0l.7-1.35a.25.25 0 0 1 .08-.12.22.22 0 0 1 0-.08l.17-.15a1.2 1.2 0 0 1 .6-.26 17.5 17.5 0 0 0 1.77-.24 1.65 1.65 0 0 1 1.11.21L87 238a.82.82 0 0 0 .35.13h.09a1.48 1.48 0 0 0 .42 0h.22l2.75-1.28a.43.43 0 0 0 .23-.19.37.37 0 0 0 .05-.18zm-25-6.19a.52.52 0 0 1-.44-.51v2.86h0a.5.5 0 0 0 .44.5l2.43.4 1.27-.66a.63.63 0 0 0 .23-.85 3.89 3.89 0 0 1-.22-.6 1 1 0 0 0-.72-.71z"/><path id="DU" d="M110.21 208.74a.3.3 0 0 1-.2.27l-1.76 1a.5.5 0 0 0-.22.66 3.41 3.41 0 0 1 .18.48.76.76 0 0 0 .57.55l.44.08.76-.4a.33.33 0 0 0 .2-.28h0zm-13.78.83c-2.06.86-2.8 2.4-1.91 3.68a4.27 4.27 0 0 1 1.91-1.39c2.38-1 5.65-.69 7.27.68a2.8 2.8 0 0 1 .55.59 2 2 0 0 0-.45-2.81h-.07c-1.63-1.37-4.89-1.68-7.27-.69m15.08 2.86a.33.33 0 0 1 0 .14l-.39 1.23a.71.71 0 0 1-.64.47l-2.5-.08a1 1 0 0 0-.39.08 1.32 1.32 0 0 0-.42.27 5.5 5.5 0 0 1-.62.56.44.44 0 0 0-.09.61h0l.86 1a.7.7 0 0 1 .21-.11h0a.85.85 0 0 1 .38-.09l2.51.08a.7.7 0 0 0 .63-.46l.39-1.23a.38.38 0 0 0 0-.15h0zm-20.43-3.09h0a.36.36 0 0 0 .11.25l.12.14a1.16 1.16 0 0 0 .21-.16 6.32 6.32 0 0 1 .6-.56.41.41 0 0 0 .11-.59.21.21 0 0 0 0-.06l-1-1.06a.35.35 0 0 1-.1-.2zm16.36 7.7a.31.31 0 0 1-.23.29l-2.19 1a1 1 0 0 1-.59 0 .9.9 0 0 1-.27-.11l-1.46-.95a1.39 1.39 0 0 0-.89-.18 14.25 14.25 0 0 1-1.42.2.9.9 0 0 0-.48.21.82.82 0 0 0-.23.26l-.56 1.09a.87.87 0 0 1-.41.35.81.81 0 0 1-.31 0L95.7 219a.48.48 0 0 1-.43-.51h0l.14-1.06a.61.61 0 0 0-.4-.62 9.1 9.1 0 0 1-1.14-.41 1.53 1.53 0 0 0-.9 0h0l-2.11.69a1 1 0 0 1-.54 0 .77.77 0 0 1-.3-.15l-1.39-1.17a.28.28 0 0 1-.13-.24v2.28a.29.29 0 0 0 .13.24L90 219.1a1 1 0 0 0 .58.19h.24l2.11-.7h0a1.39 1.39 0 0 1 .9.06 12.75 12.75 0 0 0 1.14.41.61.61 0 0 1 .28.19v1.56a.48.48 0 0 0 .42.47l2.74.25a1 1 0 0 0 .3-.05l.19-.1a.23.23 0 0 0 .07-.07h0l.07-.06.06-.08h0l.56-1.08a.18.18 0 0 1 .06-.09v-.06a.53.53 0 0 1 .14-.12.84.84 0 0 1 .48-.21 13.67 13.67 0 0 0 1.41-.2 1.39 1.39 0 0 1 .89.18l1.46.95a1 1 0 0 0 .28.11h.08a1 1 0 0 0 .34 0h.2l2.19-1a.29.29 0 0 0 .19-.15.19.19 0 0 0 0-.15zm-19.94-5a.41.41 0 0 1-.35-.4v2.3h0a.4.4 0 0 0 .34.4l1.91.32 1-.53a.5.5 0 0 0 .21-.66 2 2 0 0 1-.18-.48.82.82 0 0 0-.57-.56z"/><path id="DV" d="M237.09 131.64a43.28 43.28 0 0 1-1.08-7.07l-.08-7.79c0-4.9-1.21-7.1-2.09-7.84l-2-.46a15.6 15.6 0 0 0-1.91-.34 22.6 22.6 0 0 0-5-.13c-.4 0-1.19.2-2.18.37l-1.79.33a12.34 12.34 0 0 0-2.57 3.31c-.95 1.69-1.16 3.09-1.33 6.68l-.63 13.44c3.82 2.35 15.78 3.57 20.59-.54"/><path id="DW" d="M196.41,167.61a7.47,7.47,0,0,1,6.79.44,2.38,2.38,0,0,1,1.28,2.06l-.16,2.56a2.42,2.42,0,0,1-1.54,1.91,7.56,7.56,0,0,1-6.8-.45,2.41,2.41,0,0,1-1.28-2l.17-2.57a2.37,2.37,0,0,1,1.54-1.91"/><path id="DX" d="M201.29,94.82a7.31,7.31,0,0,1,6.61.43,2.33,2.33,0,0,1,1.24,2l-4.78,72.43a2.31,2.31,0,0,1-1.49,1.81,7.29,7.29,0,0,1-6.6-.43,2.35,2.35,0,0,1-1.26-2l4.78-72.43a2.34,2.34,0,0,1,1.5-1.81"/><path id="DY" d="M201.26 166.82l.75-11.56a.61.61 0 0 0-.56-.66h0l-.89-.06a.64.64 0 0 0-.66.59l-.76 11.57a.61.61 0 0 0 .56.66h0 .89a.63.63 0 0 0 .67-.59"/><path id="DZ" d="M225.64,84.53l1.18-2.22-.95-2.75V77.88l2.92,1.68v1.69l-1.25,2.17a.22.22,0,0,1-.09.07h0Z"/></defs><circle cx="144" cy="144" r="144" class="D"/><g class="N"><g class="N"><path d="M68.93,227.28c-41.13-23.56-41.13-61.75,0-85.31s107.82-23.56,149,0,41.13,61.75,0,85.31-107.82,23.56-149,0" fill="#f4f4f4"/><path d="M110.73,225.19l64.2-37.06a2.39,2.39,0,0,1,2.18,0l38.68,22.33a.65.65,0,0,1,.41.83.66.66,0,0,1-.41.42l-64.22,37.07a2.44,2.44,0,0,1-2.17,0l-38.67-22.33a.67.67,0,0,1-.41-.85.69.69,0,0,1,.41-.41" class="M"/><path d="M111.79,221.2l62.41-36a2.31,2.31,0,0,1,2.11,0l37.6,21.71A2.33,2.33,0,0,1,215,208.7v.42a2.32,2.32,0,0,1-1.06,1.83L151.51,247a2.31,2.31,0,0,1-2.11,0l-37.61-21.71a2.36,2.36,0,0,1-1.06-1.83V223a2.36,2.36,0,0,1,1.06-1.83" class="K"/><path d="M150.46,244.4v2.86a2,2,0,0,1-1.05-.25l-37.62-21.72a2.36,2.36,0,0,1-1.06-1.83V223a2.37,2.37,0,0,1,.87-1.7c-.38.34-.33.8.19,1.09l37.58,21.71a2.27,2.27,0,0,0,1.06.25Z" class="I"/><path d="M111.79 221.2l62.41-36a2.31 2.31 0 0 1 2.11 0l37.6 21.71a.65.65 0 0 1 .4.83.67.67 0 0 1-.4.39l-62.39 36a2.39 2.39 0 0 1-2.12 0l-37.61-21.72a.65.65 0 0 1 0-1.22" class="J"/><path d="M135.94,227.81a1.25,1.25,0,0,0,0,2.37,4.51,4.51,0,0,0,4.11,0,1.25,1.25,0,0,0,0-2.37,4.58,4.58,0,0,0-4.11,0" class="K"/><path d="M129.61,228.8a.21.21,0,0,1,.13.25.19.19,0,0,1-.13.13.68.68,0,0,1-.65,0,.19.19,0,0,1-.13-.25.21.21,0,0,1,.13-.13.82.82,0,0,1,.65,0" class="C"/><path d="M130.73 216.17l44.7-25.83 29.52 17.05-44.71 25.81-29.51-17.03z" class="I"/><g class="K"><path d="M179.84 187.2l-64.53 37.26.53.3 64.53-37.26-.53-.3zm30.04 17.34l-64.53 37.26.52.3 64.54-37.26-.53-.3z"/></g><use xlink:href="#Bq" class="C"/><g clip-path="url(#B)" class="D"><g opacity=".7"><use xlink:href="#Bq"/></g></g><path d="M73.52,67.73A5.46,5.46,0,0,0,71.06,72c0,1.58,1.11,2.22,2.47,1.44A5.51,5.51,0,0,0,76,69.15c0-1.58-1.11-2.22-2.48-1.42" class="C"/><path d="M72.09 70.94a2.12 2.12 0 0 1 .18-.82h0a1.36 1.36 0 0 1 .52-.66c.36-.22.66.21.7.72a2.31 2.31 0 0 1 .69-1.54.41.41 0 0 1 .53 0h0a.91.91 0 0 1 .18.61 5.36 5.36 0 0 1-1 2.43l-.45.85-.44-.32c-.43-.3-1-.46-1-1.31" class="H"/><path d="M80.12,63.93a5.41,5.41,0,0,0-2.47,4.27c0,1.58,1.11,2.22,2.47,1.44a5.51,5.51,0,0,0,2.48-4.29c0-1.58-1.11-2.22-2.48-1.42" class="C"/><path d="M78.7,67.14a2.11,2.11,0,0,1,.17-.82h0a1.36,1.36,0,0,1,.52-.66c.35-.21.66.21.7.72a2.31,2.31,0,0,1,.69-1.54.4.4,0,0,1,.53,0h0a.94.94,0,0,1,.18.61,5.52,5.52,0,0,1-1,2.43l-.45.86-.45-.33c-.43-.3-1-.47-1-1.32" class="H"/><path d="M86.72,60.16a5.44,5.44,0,0,0-2.47,4.28c0,1.58,1.11,2.22,2.47,1.43a5.44,5.44,0,0,0,2.47-4.28c0-1.58-1.1-2.22-2.47-1.43" class="C"/><path d="M85.29,63.34a2.11,2.11,0,0,1,.17-.82h0a1.49,1.49,0,0,1,.53-.66c.35-.21.64.21.69.72a2.32,2.32,0,0,1,.7-1.54.41.41,0,0,1,.53,0h0a1.09,1.09,0,0,1,.18.61,5.6,5.6,0,0,1-1,2.43l-.46.86-.45-.33c-.44-.3-1-.46-1-1.31" class="H"/><path d="M93.31,56.34a5.44,5.44,0,0,0-2.47,4.28c0,1.58,1.1,2.22,2.47,1.43a5.44,5.44,0,0,0,2.47-4.28c0-1.58-1.1-2.22-2.47-1.43" class="C"/><path d="M91.89 59.54a1.8 1.8 0 0 1 .17-.82h0a1.43 1.43 0 0 1 .52-.67c.36-.21.65.21.7.72a2.31 2.31 0 0 1 .72-1.54.38.38 0 0 1 .52.06h0a.89.89 0 0 1 .19.61 5.56 5.56 0 0 1-1 2.44l-.45.84-.46-.32c-.43-.31-1-.47-1-1.32" class="H"/><path d="M99.91,52.52a5.44,5.44,0,0,0-2.47,4.28c0,1.59,1.1,2.22,2.47,1.43A5.44,5.44,0,0,0,102.38,54c0-1.58-1.11-2.22-2.47-1.43" class="C"/><path d="M98.48,55.74a2.11,2.11,0,0,1,.17-.82h0a1.47,1.47,0,0,1,.51-.67c.37-.21.66.21.71.72a2.27,2.27,0,0,1,.69-1.54.38.38,0,0,1,.52.06h0a.89.89,0,0,1,.19.61,5.48,5.48,0,0,1-1,2.43l-.45.85-.46-.32c-.43-.3-1-.47-1-1.32" class="H"/><g class="C"><path d="M74.78,61.48A4.38,4.38,0,0,1,73,64.94c-1,.57-1.82,0-1.82-1.38A4.36,4.36,0,0,1,73,60.1c1-.58,1.81,0,1.81,1.37"/><use xlink:href="#Br"/></g><g clip-path="url(#C)" class="D"><g opacity=".7"><use xlink:href="#Br"/></g></g><use xlink:href="#Bs" class="C"/><g clip-path="url(#D)" class="D"><g opacity=".7"><use xlink:href="#Bs"/></g></g><path d="M49.47 89.25v-7.46L43.88 85V74.7l5.59-3.23V64l7.76-4.48V67l5.6-3.24v10.3l-5.6 3.29v7.46zm.31-8v7.47l7.15-4.14v-7.45l5.59-3.22v-9.55l-5.59 3.22v-7.46l-7.15 4.13v7.47L44.19 75v9.5z" class="M"/><g class="O"><path d="M55.69 73.06a5.58 5.58 0 0 1-2.34 4.46c-1.29.75-2.34 0-2.34-1.76a5.61 5.61 0 0 1 2.34-4.47c1.29-.75 2.34 0 2.34 1.77m-.17-7.03l-4.33 2.51 2.16-5.09 2.17 2.58zm-7.56 8.5v5.79l-2.88-1.23 2.88-4.56zm3.23 8.26l4.33-2.51-2.17 5.08-2.16-2.57zm7.56-8.51v-5.79l2.87 1.23-2.87 4.56z"/></g><use xlink:href="#Bt" class="C"/><g clip-path="url(#E)"><g class="E"><use xlink:href="#Bt"/></g></g><g clip-path="url(#F)"><g class="F"><path d="M103.7 191.76v1.91l-4.38-2.52a3 3 0 0 1-1.32-2.36v-16.9l4.57-2.62.28 3.51-3.19 1.86v13.19a3 3 0 0 0 1.36 2.36z"/></g></g><use xlink:href="#Bu" class="C"/><g clip-path="url(#G)"><g class="F"><use xlink:href="#Bu"/></g></g><g clip-path="url(#H)"><g class="L"><path d="M127.68,178h0l-2.78-1.6a3,3,0,0,1-1.36-2.36V160.8L99.61,174.62v13.19a3,3,0,0,0,1.36,2.36l2.73,1.58Z"/></g></g><use xlink:href="#Bv" class="C"/><g clip-path="url(#I)"><g class="L"><use xlink:href="#Bv"/></g></g><g class="C"><path d="M61.19,204.22a3.68,3.68,0,0,0,3.31-.07L157,150.73c1-.54,1.71-1.91,1.71-1.49V65c0-2.55-.72-3.82-1.61-4.36a3.65,3.65,0,0,0-3.3.07L61.3,114.12a3.76,3.76,0,0,0-1.71,2.95v84.26a3.67,3.67,0,0,0,1.6,2.86"/><use xlink:href="#Bw"/></g><g clip-path="url(#J)"><g class="L"><use xlink:href="#Bw"/></g></g><path d="M64.24,206.1a3.19,3.19,0,0,1-4.65-2.93v-5.36l3.2,1.86V205c0,1,.63,1.44,1.45,1.11" class="C"/><g clip-path="url(#K)"><g class="L"><path d="M64.24,206.1a3.19,3.19,0,0,1-4.65-2.93v-5.36l3.2,1.86V205c0,1,.63,1.44,1.45,1.11"/></g></g><path d="M62.79,199.64V205c0,1.09.76,1.53,1.71,1L157,152.55a3.78,3.78,0,0,0,1.71-3v-5.4Z" class="C"/><g clip-path="url(#L)"><g class="F"><path d="M62.79 199.59V205c0 1.08.76 1.52 1.71.95l92.5-53.4a3.78 3.78 0 0 0 1.71-3v-5.4z"/></g></g><use xlink:href="#Bx" class="C"/><use xlink:href="#Bx" class="K"/><g clip-path="url(#M)"><g opacity=".7"><path d="M63.3,117.22a3.54,3.54,0,0,0-.51,1.69v80.73l-3.19-1.86V117.07a3.47,3.47,0,0,1,.51-1.68Z"/></g></g><g clip-path="url(#N)"><g class="F"><path d="M158.72,64.36c-.08-2-.83-2.32-1.69-1.83L64.5,116a3.35,3.35,0,0,0-1.21,1.27l-3.19-1.85a3.38,3.38,0,0,1,1.2-1.26L153.83,60.7a3.65,3.65,0,0,1,3.3-.07c.81.47,1.5,1.59,1.59,3.73"/></g></g><path d="M108.3,68.19a.33.33,0,0,0,0-.14h0a.29.29,0,0,0,0-.13.5.5,0,0,0-.08-.2.22.22,0,0,0,0-.08.06.06,0,0,0,0-.06.47.47,0,0,0-.1-.1h0l-.13-.08a1.15,1.15,0,0,0-1,.14L47.41,101.78a3.83,3.83,0,0,0-1.53,3.39v57.36a1.05,1.05,0,0,0,.55.95h.07l.08.05h.33a1,1,0,0,0,.5-.15h0l1.47-.85,57.93-33.43a3.37,3.37,0,0,0,1.53-2.65V68.33a.6.6,0,0,0,0-.19" class="J"/><g class="C"><path d="M107.78,67.36a1.14,1.14,0,0,0-1,.14L47.3,101.74a3.45,3.45,0,0,0-1.54,2.66v3l-2-1.15v-2.94a3.41,3.41,0,0,1,1.53-2.65l59.46-34.24a1.06,1.06,0,0,1,1.11-.09c.27.17,1.54.89,1.91,1.06"/><path d="M108.3,68.38c0-1-.68-1.37-1.52-.88L47.33,101.74a3.39,3.39,0,0,0-1.54,2.66v3l62.51-36Z"/></g><g clip-path="url(#O)" class="D"><g opacity=".2"><path d="M106.74,67.5,47.3,101.74a3.27,3.27,0,0,0-1.08,1.14l-1.91-1.13a3,3,0,0,1,1.07-1.12l59.44-34.24a1.11,1.11,0,0,1,1.11-.1c.28.18,1.55.9,1.91,1.07a1.09,1.09,0,0,0-1,.14"/></g></g><g clip-path="url(#P)"><g class="Q"><path d="M43.8,106.23v-3a3.3,3.3,0,0,1,.47-1.53l2,1.12a3.18,3.18,0,0,0-.46,1.53v3Z"/></g></g><path d="M46.32,163.42h-.08l-1.62-.95a1.64,1.64,0,0,1-.8-1.19.81.81,0,0,1,0-.22V106.25l2,1.16v55.11a1,1,0,0,0,.48.87h.05Z" class="K"/><g clip-path="url(#Q)"><g class="L"><g clip-path="url(#R)" class="D"><g class="E"><g clip-path="url(#S)"><path d="M50.12,139l2.09-1.21a.24.24,0,0,1,.38.22v.77a.82.82,0,0,1-.38.66l-2.09,1.21a.24.24,0,0,1-.39-.22v-.77a.84.84,0,0,1,.39-.66"/></g><g clip-path="url(#T)"><path d="M50.12,142l2.09-1.2a.24.24,0,0,1,.38.22v.76a.8.8,0,0,1-.38.66l-2.09,1.22a.24.24,0,0,1-.39-.22v-.78a.87.87,0,0,1,.39-.66"/></g><g clip-path="url(#U)"><path d="M50.12,145.08l2.09-1.21a.24.24,0,0,1,.38.22v.77a.87.87,0,0,1-.38.66l-2.09,1.2a.24.24,0,0,1-.39-.22v-.77a.82.82,0,0,1,.39-.65"/></g><g clip-path="url(#V)"><path d="M50.12,148.14l2.09-1.22a.24.24,0,0,1,.38.22v.78a.85.85,0,0,1-.38.65l-2.09,1.21a.24.24,0,0,1-.39-.22v-.77a.82.82,0,0,1,.39-.65"/></g></g></g><g clip-path="url(#W)" class="D"><g class="E"><g clip-path="url(#X)"><path d="M50.12,123.79l2.09-1.2a.24.24,0,0,1,.38.22v.76a.83.83,0,0,1-.38.66l-2.09,1.21a.24.24,0,0,1-.39-.21v-.78a.86.86,0,0,1,.39-.66"/></g><g clip-path="url(#Y)"><path d="M50.12,126.85l2.09-1.2c.21-.13.38,0,.38.22v.76a.82.82,0,0,1-.38.66l-2.09,1.21a.24.24,0,0,1-.39-.22v-.77a.86.86,0,0,1,.39-.66"/></g><g clip-path="url(#Z)"><path d="M50.12,129.88l2.09-1.22a.24.24,0,0,1,.38.22v.78a.84.84,0,0,1-.38.65l-2.09,1.21a.24.24,0,0,1-.39-.22v-.77a.82.82,0,0,1,.39-.65"/></g><g clip-path="url(#a)"><path d="M50.12,133l2.09-1.21a.24.24,0,0,1,.38.22v.77a.87.87,0,0,1-.38.66l-2.09,1.24a.24.24,0,0,1-.39-.22v-.76a.84.84,0,0,1,.39-.66"/></g><g clip-path="url(#b)"><path d="M50.12,154.12l2.09-1.2a.24.24,0,0,1,.38.22v.76a.8.8,0,0,1-.38.66l-2.09,1.21a.24.24,0,0,1-.39-.21v-.78a.86.86,0,0,1,.39-.66"/></g><g clip-path="url(#c)"><path d="M50.12,157.19,52.21,156a.23.23,0,0,1,.38.21V157a.83.83,0,0,1-.38.65l-2.09,1.21a.24.24,0,0,1-.39-.22v-.77a.82.82,0,0,1,.39-.65"/></g></g></g><g clip-path="url(#d)" class="D"><g class="E"><g clip-path="url(#e)"><path d="M50.12,108.63l2.09-1.21a.24.24,0,0,1,.38.22v.77a.84.84,0,0,1-.38.66l-2.09,1.2a.24.24,0,0,1-.39-.22v-.76a.86.86,0,0,1,.39-.66"/></g><g clip-path="url(#f)"><path d="M50.12,111.73l2.09-1.2c.21-.13.38,0,.38.22v.76a.8.8,0,0,1-.38.66l-2.09,1.21a.24.24,0,0,1-.39-.22v-.77a.86.86,0,0,1,.39-.66"/></g><g clip-path="url(#g)"><path d="M50.12,114.74l2.09-1.2c.21-.13.38,0,.38.22v.77a.81.81,0,0,1-.38.65l-2.09,1.21a.24.24,0,0,1-.39-.22v-.77a.86.86,0,0,1,.39-.66"/></g><g clip-path="url(#h)"><path d="M50.12,117.81l2.09-1.22a.24.24,0,0,1,.38.22v.78a.85.85,0,0,1-.38.65l-2.09,1.21a.24.24,0,0,1-.39-.22v-.81a.82.82,0,0,1,.39-.65"/></g></g></g><path d="M103.72,100.18l-16,9.25a2.37,2.37,0,0,0-1.07,1.86v24.15c0,.69.47,1,1.07.62l16-9.25A2.35,2.35,0,0,0,104.8,125V100.8c0-.69-.48-1-1.08-.62" class="I"/><use xlink:href="#By" class="C"/><g clip-path="url(#i)" class="D"><g class="E"><use xlink:href="#By"/></g></g><use xlink:href="#Bz" class="C"/><g clip-path="url(#j)" class="D"><g class="E"><use xlink:href="#Bz"/></g></g><use xlink:href="#CA" class="C"/><g clip-path="url(#k)" class="D"><g class="E"><use xlink:href="#CA"/></g></g><use xlink:href="#CB" class="C"/><g clip-path="url(#l)" class="D"><g class="E"><use xlink:href="#CB"/></g></g><use xlink:href="#CC" class="C"/><g clip-path="url(#m)" class="D"><g class="E"><use xlink:href="#CC"/></g></g><use xlink:href="#CD" class="C"/><g clip-path="url(#n)" class="D"><g class="E"><use xlink:href="#CD"/></g></g><use xlink:href="#CE" class="C"/><g clip-path="url(#o)" class="D"><g class="G"><use xlink:href="#CE"/></g></g><use xlink:href="#CF" class="C"/><g clip-path="url(#p)" class="D"><g class="G"><use xlink:href="#CF"/></g></g><use xlink:href="#CG" class="C"/><g clip-path="url(#q)" class="D"><g class="G"><use xlink:href="#CG"/></g></g><use xlink:href="#CH" class="C"/><g clip-path="url(#r)" class="D"><g class="G"><use xlink:href="#CH"/></g></g><use xlink:href="#CI" class="C"/><g clip-path="url(#s)" class="D"><g class="G"><use xlink:href="#CI"/></g></g><use xlink:href="#CJ" class="C"/><g clip-path="url(#t)" class="D"><g class="G"><use xlink:href="#CJ"/></g></g><use xlink:href="#CK" class="C"/><g clip-path="url(#u)" class="D"><g class="E"><use xlink:href="#CK"/></g></g><use xlink:href="#CL" class="C"/><g clip-path="url(#v)" class="D"><g class="E"><use xlink:href="#CL"/></g></g><use xlink:href="#CM" class="C"/><g clip-path="url(#w)" class="D"><g class="G"><use xlink:href="#CM"/></g></g><use xlink:href="#CN" class="C"/><g clip-path="url(#x)" class="D"><g class="G"><use xlink:href="#CN"/></g></g><path d="M103.72,75.34l-16,9.25a2.38,2.38,0,0,0-1.07,1.91V105c0,.69.47.95,1.07.62l16-9.25a2.38,2.38,0,0,0,1.08-1.87V76c0-.69-.48-1-1.08-.62" class="I"/><use xlink:href="#CO" class="C"/><g clip-path="url(#y)" class="D"><g class="E"><use xlink:href="#CO"/></g></g><use xlink:href="#CP" class="C"/><g clip-path="url(#z)" class="D"><g class="E"><use xlink:href="#CP"/></g></g><use xlink:href="#CQ" class="C"/><g clip-path="url(#AA)" class="D"><g class="E"><use xlink:href="#CQ"/></g></g><use xlink:href="#CR" class="C"/><g clip-path="url(#AB)" class="D"><g class="E"><use xlink:href="#CR"/></g></g><use xlink:href="#CS" class="C"/><g clip-path="url(#AC)" class="D"><g class="E"><use xlink:href="#CS"/></g></g><use xlink:href="#CT" class="C"/><g clip-path="url(#AD)" class="D"><g class="E"><use xlink:href="#CT"/></g></g><use xlink:href="#CU" class="C"/><g clip-path="url(#AE)" class="D"><g class="G"><use xlink:href="#CU"/></g></g><use xlink:href="#CV" class="C"/><g clip-path="url(#AF)" class="D"><g class="G"><use xlink:href="#CV"/></g></g><use xlink:href="#CW" class="C"/><g clip-path="url(#AG)" class="D"><g class="G"><use xlink:href="#CW"/></g></g><use xlink:href="#CX" class="C"/><g clip-path="url(#AH)" class="D"><g class="G"><use xlink:href="#CX"/></g></g><use xlink:href="#CY" class="C"/><g clip-path="url(#AI)" class="D"><g class="G"><use xlink:href="#CY"/></g></g><use xlink:href="#CZ" class="C"/><g clip-path="url(#AJ)" class="D"><g class="G"><use xlink:href="#CZ"/></g></g></g></g><g clip-path="url(#AK)" class="D"><g class="E"><path d="M55.58,107.49l7.64-4.44c.21-.12.39,0,.39.19a.85.85,0,0,1-.39.64l-7.64,4.44a.23.23,0,0,1-.38-.19.84.84,0,0,1,.38-.64"/></g></g><use xlink:href="#Ca" class="C"/><g clip-path="url(#AL)" class="D"><g class="E"><use xlink:href="#Ca"/></g></g><use xlink:href="#Cb" class="C"/><g clip-path="url(#AM)" class="D"><g class="E"><use xlink:href="#Cb"/></g></g><use xlink:href="#Cc" class="C"/><g clip-path="url(#AN)" class="D"><g class="E"><use xlink:href="#Cc"/></g></g><use xlink:href="#Cd" class="C"/><g clip-path="url(#AO)" class="D"><g class="E"><use xlink:href="#Cd"/></g></g><use xlink:href="#Ce" class="C"/><g clip-path="url(#AP)" class="D"><g class="E"><use xlink:href="#Ce"/></g></g><use xlink:href="#Cf" class="C"/><g clip-path="url(#AQ)" class="D"><g class="E"><use xlink:href="#Cf"/></g></g><g clip-path="url(#AR)" class="D"><g class="E"><path d="M55.66,134l1.78-1a.23.23,0,0,1,.38.19.84.84,0,0,1-.38.64l-1.78,1a.24.24,0,0,1-.39-.2.8.8,0,0,1,.39-.63"/></g></g><use xlink:href="#Cg" class="C"/><g clip-path="url(#AS)" class="D"><g class="E"><use xlink:href="#Cg"/></g></g><use xlink:href="#Ch" class="C"/><g clip-path="url(#AT)" class="D"><g class="E"><use xlink:href="#Ch"/></g></g><use xlink:href="#Ci" class="C"/><g clip-path="url(#AU)" class="D"><g class="E"><use xlink:href="#Ci"/></g></g><use xlink:href="#Cj" class="C"/><g clip-path="url(#AV)" class="D"><g class="E"><use xlink:href="#Cj"/></g></g><use xlink:href="#Ck" class="C"/><g clip-path="url(#AW)" class="D"><g class="E"><use xlink:href="#Ck"/></g></g><path d="M59.6 134l23.11-13.5a.23.23 0 0 1 .38.2.84.84 0 0 1-.38.64L59.6 134.78a.23.23 0 0 1-.38-.19.84.84 0 0 1 .38-.64" class="R"/><g clip-path="url(#AX)" class="D"><g class="E"><path d="M55.66,151.76l1.78-1c.21-.12.38,0,.38.19a.84.84,0,0,1-.38.64l-1.78,1a.24.24,0,0,1-.39-.2.8.8,0,0,1,.39-.63"/></g></g><use xlink:href="#Cl" class="C"/><g clip-path="url(#AY)" class="D"><g class="E"><use xlink:href="#Cl"/></g></g><path d="M59.75,151.47l22.77-13.21c.21-.12.38,0,.38.19a.84.84,0,0,1-.38.64L59.74,152.3c-.21.12-.38,0-.38-.19a.84.84,0,0,1,.38-.64" class="R"/><g clip-path="url(#AZ)" class="D"><g class="E"><path d="M55.66,141.34l1.78-1c.21-.11.38,0,.38.2a.78.78,0,0,1-.38.63l-1.78,1c-.21.12-.39,0-.39-.19a.8.8,0,0,1,.39-.64"/></g></g><g clip-path="url(#Aa)" class="D"><g class="E"><path d="M55.66,143.68l1.78-1c.21-.12.38,0,.38.19a.82.82,0,0,1-.38.64l-1.78,1a.24.24,0,0,1-.39-.2.79.79,0,0,1,.39-.63"/></g></g><path d="M59.65,143.76l23-13.31a.23.23,0,0,1,.38.19.84.84,0,0,1-.38.64l-23,13.31a.23.23,0,0,1-.38-.19.81.81,0,0,1,.38-.64" fill="#ff8f8f"/><use xlink:href="#Cm" class="C"/><g clip-path="url(#Ab)" class="D"><g class="E"><use xlink:href="#Cm"/></g></g><path d="M79.31,201.81a.75.75,0,0,0,.36-.1l95.9-55.39a3,3,0,0,0,1.36-2.35V66.55c0-.5-.21-.81-.58-.81a1.14,1.14,0,0,0-.53.17l-95.9,55.37a3.06,3.06,0,0,0-1.35,2.35V200.7a1.49,1.49,0,0,0,.22.82.62.62,0,0,0,.52.3" class="H"/><path d="M77.21,200.9l1.82,1a1.5,1.5,0,0,1-.54-1.25V128.47l-1.91-1.11v72.23a1.46,1.46,0,0,0,.62,1.29" class="O"/><path d="M176.53 66c.28 0 .32.34.32.55v77.42a2.73 2.73 0 0 1-1.23 2.13l-95.9 55.4a.62.62 0 0 1-.24.08c-.27 0-.49-.42-.49-.88v-77.07a2.76 2.76 0 0 1 1.23-2.13l95.9-55.39a.83.83 0 0 1 .41-.13m0-.51a1.38 1.38 0 0 0-.66.2L80 121.06a3.29 3.29 0 0 0-1.49 2.57v77.07c0 .74.42 1.37 1 1.37a1 1 0 0 0 .49-.14l95.9-55.39a3.31 3.31 0 0 0 1.48-2.57V66.55c0-.67-.34-1.06-.82-1.06" class="M"/><use xlink:href="#Cn" class="C"/><g clip-path="url(#Ac)"><g class="Q"><use xlink:href="#Cn"/></g></g><g class="C"><path d="M177.35,66.49v5L78.49,128.53v-4.91a2.75,2.75,0,0,1,.17-1,.77.77,0,0,1,.07-.16,3.73,3.73,0,0,1,.2-.4,2.89,2.89,0,0,1,1-1.1l95.9-55.38a.93.93,0,0,1,1.13,0,.43.43,0,0,1,.12.11.51.51,0,0,1,.09.16.49.49,0,0,1,.08.18.67.67,0,0,1,0,.2h0a.74.74,0,0,1,0,.21"/><use xlink:href="#Co"/></g><g clip-path="url(#Ad)" class="D"><g class="F"><use xlink:href="#Co"/></g></g><use xlink:href="#Cp" class="J"/><g clip-path="url(#Ae)" class="J"><g opacity=".4"><use xlink:href="#Cp"/></g></g><g class="J"><path d="M100.38 133.76v.05l-.07 1.53a3.73 3.73 0 0 1-1.44 2.86c-.77.44-1.4-.09-1.44-1.21l-.07-1.4a.7.7 0 0 1-.13.17h0v1.33c.06 1.22.76 1.79 1.6 1.3a4.05 4.05 0 0 0 1.59-3.15l.07-1.53h0l-.12.07m11.4-13.78l-3.23 14.68h0 .1l3.25-14.68a.09.09 0 0 0 0-.07l-.49-1.1h-.1a.17.17 0 0 0 0 .14z"/></g><path d="M133.32 136.25L127.26 152l-3.19 8.74a53.28 53.28 0 0 0-1.56 5.56 9.8 9.8 0 0 1-1.63 3.32c-.4.25-.13-2.77.58-4.48.86-2.07 1.45-6.68 2.37-11.12 1-4.64 2.17-6.29 2.17-6.29s.45-2.39 1.26-5.87c1.74-7.45 3.17-10.05 4.06-11.63a6.64 6.64 0 0 0 .89-3.59c0-.84-.16-1.41-.39-1.31s-2.73 4.68-2.73 4.68.06.58.23 1.65l.54 3.31-1 1a27.15 27.15 0 0 1-1-3.16c-.53-2-.63-2.27-.23-3.14l2.87-6a5 5 0 0 1 2.38-2.7c1.34-1 1.26-1.18 1.26-2.2l1.26-.72v.8c0 .52.23.5 1.07.14s1.48-1.3 2.2-.09a88.94 88.94 0 0 0 1.91 3l3.23-4.13-.05 1.5s-1.7 2.72-2.78 4.22c-.51.72-.83 1.31-1.42.72a29.5 29.5 0 0 1-2.06-2.79 4.3 4.3 0 0 1-.82 2.47 3.48 3.48 0 0 0-1 2 6.52 6.52 0 0 0-.24 1.39c0 .81.53 1.37 1.34 3.13s3.45 6.13 3.82 6.93.47 1.1 1 4.45 1.84 10 2.18 11.37 1.34 1.18 2.26 1.54c.47.18-.29.7-1.68 1.28-1.06.45-1.91 1.13-1.73.21a4.55 4.55 0 0 0-.21-2.58l-3-6.9a14.7 14.7 0 0 1-.62-5.63z" fill="#dc8569"/><path d="M135.71,128.22c-.26.69-3,2.58-4.77,2.16a37.19,37.19,0,0,0-3.45,9.28,69.05,69.05,0,0,0-1.52,7.52s.82.55,2.36-2.86a26.46,26.46,0,0,1,2.44-4.62s-1.85,5.65-1.43,5.66,2.87-4.59,3.35-5.78c-.21,1.15,0,2,.71.5a46.18,46.18,0,0,0,2.51-6.77c.76-2.55,1-2.56,1-2.56a15.72,15.72,0,0,0-1.24-2.5" class="J"/><path d="M131.56,129.05l2.23,2,1.91-2.87a3,3,0,0,1,0-1,2.72,2.72,0,0,1,.09-.45,7,7,0,0,1,.74-1.91,7,7,0,0,0,1-2.49,2.4,2.4,0,0,0-.29-1.72c-.54,2-3.35,3.33-4.4,2.68a8.1,8.1,0,0,0-1,2,7.25,7.25,0,0,1,.11,2.5,3.79,3.79,0,0,1-.48,1.22" class="C"/><g clip-path="url(#Af)"><g class="P"><path d="M133.43 126.63c-.8.15-1.21-.42-1.5-1.32h0a7.25 7.25 0 0 1 .1 2.5 4.18 4.18 0 0 1-.47 1.23l2.23 2 1.91-2.87a3 3 0 0 1 0-.95 2.72 2.72 0 0 1 .09-.45 7 7 0 0 1 .74-1.91l.38-.72a5.28 5.28 0 0 1-3.49 2.45"/></g></g><use xlink:href="#Cq" class="C"/><g clip-path="url(#Ag)" class="D"><g opacity=".4"><use xlink:href="#Cq"/></g></g><path d="M128.67,151.74C124,149.45,123,140.29,122.38,135a15.69,15.69,0,0,0,2.36-7c1.17,1.49,3.44,1.85,5.58.65.86,8.38,1,16-1.65,23.08" class="C"/><g clip-path="url(#Ah)"><g class="P"><path d="M124.77,124c-.14,3.3-1.19,9.09-3.07,10.62.6,5.33,2,18,7.72,18.24,0,0-2.64-2.92-3.77-11a109.55,109.55,0,0,1-.88-17.83"/></g></g><path d="M134.15,119.25a1,1,0,0,0,.68-.14,2.79,2.79,0,0,0,.58-.5v-.48l-1.26.72v.4" class="T"/><path d="M134.87,118.88h0c-.8.47-1.47-.09-1.52-1.27l-.06-1.46a4,4,0,0,1,1.52-3.34l.13-.08c.89-.5,1.58.22,1.53,1.58l-.07,1.54a3.88,3.88,0,0,1-1.53,3" fill="#dc8569"/><path d="M137.08,113c-.09,0-.15-.09-.19-.18a1.77,1.77,0,0,0-1.15-1,2,2,0,0,0-1.6.89,4.74,4.74,0,0,0-1,2.26c0,.3-.08.59-.14.89a1.14,1.14,0,0,1-.47.72,1.71,1.71,0,0,0,1-.69,3.37,3.37,0,0,0,.63-1.42v-.06a1.33,1.33,0,0,0,.11.24.5.5,0,0,0,.67.18.79.79,0,0,0,.29-.25.8.8,0,0,0,.17-.43c.14.31.47.34.81.22a1.69,1.69,0,0,0,.75-.6,1.86,1.86,0,0,0,.39-1.07c0,.15-.18.23-.26.21" class="J"/><path d="M135,116.73c-.12.06-.29.34-.23.34a4.49,4.49,0,0,0,.42-.24s-.1-.16-.19-.1" class="T"/><use xlink:href="#Cr" class="C"/><g clip-path="url(#Ai)"><g class="F"><use xlink:href="#Cr"/></g></g><path d="M135.4,115.9a.84.84,0,0,0,.4-.15,1,1,0,0,0,.29-.25s.12-.19,0-.27-.56.22-.73.67" class="H"/><path d="M135.36,116a1.22,1.22,0,0,1,.3-.73c.19-.2.31-.23.45-.22a.22.22,0,0,0,.19-.09.37.37,0,0,1-.23.28,1.39,1.39,0,0,0-.71.76" class="C"/><path d="M135.36,116a1.3,1.3,0,0,1,.52-.7c.3-.21.37-.17.42-.34a.74.74,0,0,1-.12.31.33.33,0,0,1-.09.27c0-.1.09-.26,0-.24a1.58,1.58,0,0,0-.7.7" class="K"/><path d="M134.38,116.51a3.2,3.2,0,0,1-.4.31.54.54,0,0,1-.3.1s-.11-.07,0-.23.57-.44.74-.18" class="H"/><path d="M134.41,116.51c0-.22-.11-.42-.3-.4a.71.71,0,0,0-.44.29c-.15.16-.19.14-.19.14a.18.18,0,0,0,.23,0c.1-.09.54-.34.7,0" class="C"/><path d="M134.41,116.51c-.06-.15-.21-.25-.51-.11s-.37.25-.42.14a.13.13,0,0,0,.06.17h.05s0,.15.09.17a.21.21,0,0,1,0-.28c.11-.09.51-.28.7-.1" class="K"/><path d="M148.96 99.1l-3.91 16.46-.98.13 3.35-16.39 1.47-3.28.07 3.08z" class="I"/><path d="M147.42 99.3l.51 1.1-3.38 15.22-.48.07" class="K"/><path d="M148.96 99.1l-1.03 1.3-.51-1.1 1.47-3.28.07 3.08z" class="J"/><g class="C"><path d="M142.83 116.51c-.47.06-.27-.46.12-.52a2 2 0 0 0 1.29-.43 3.27 3.27 0 0 0 .44-.47h0s0 .09.25.39.77.16 1.16.11.36.46-.11.52-1.24.19-1.37.79l-.45 2h0-.39-.29l.44-2c.14-.61-.61-.54-1.09-.48"/><path d="M143.14,119.37a.74.74,0,0,1,.34-.4.89.89,0,0,1,.36-.11.58.58,0,0,1,.32,0,.27.27,0,0,1,.17.33.52.52,0,0,1-.15.27,1,1,0,0,1-.53.26c-.34,0-.56-.13-.51-.38"/></g><path d="M144.31 116.7l.47-.64-.19-.6-.47.68.19.56z" class="I"/><g clip-path="url(#Aj)"><g class="P"><path d="M143.14,119.37a.74.74,0,0,1,.34-.4l.44-2c.14-.61-.61-.54-1.09-.48s-.27-.46.12-.52a1.9,1.9,0,0,0,1.29-.43,3.81,3.81,0,0,0,.44-.46h0l-.09.38-.48.69.21.55-.48,2.2-.08.1c-.08.13-.18.34-.12.47s.51.07.54.06a.88.88,0,0,1-.53.25c-.34,0-.56-.12-.51-.37"/></g></g><path d="M144.59,115.9l-.06-.18-.18.72.18-.25a.33.33,0,0,0,.06-.29" class="J"/><path d="M169.3,82.46l-4,2.3a2,2,0,0,0-.89,1.57v4.59c0,.58.4.81.89.52l4-2.29a2,2,0,0,0,.89-1.57V83c0-.58-.4-.81-.89-.53" class="T"/><path d="M161.58,95.75l-4,2.3a2,2,0,0,0-.91,1.56v4.6c0,.57.4.8.91.51l4-2.29a2,2,0,0,0,.91-1.57V96.27c0-.58-.41-.81-.91-.52" class="J"/><path d="M169.3,91.29l-4,2.3a2,2,0,0,0-.89,1.56v4.59c0,.58.4.81.89.52l4-2.29a2,2,0,0,0,.89-1.57V91.81c0-.58-.4-.81-.89-.52" class="C"/><path d="M161.58,104.57l-4,2.29a2,2,0,0,0-.91,1.58V113c0,.58.4.81.91.53l4-2.3a2,2,0,0,0,.91-1.56v-4.6c0-.58-.41-.81-.91-.52" class="I"/><path d="M164.91,109c-.23,0-.26-.28-.26-.41V104a1.75,1.75,0,0,1,.79-1.36l4-2.34a.6.6,0,0,1,.29-.08c.24,0,.27.28.27.41v4.58a1.8,1.8,0,0,1-.8,1.37l-4,2.29a.48.48,0,0,1-.29.09" class="D"/><path d="M169.7,100.46a.48.48,0,0,1,0,.17v4.59a1.49,1.49,0,0,1-.67,1.15l-4,2.31-.17.06a.54.54,0,0,1,0-.18V104a1.59,1.59,0,0,1,.67-1.16l4-2.29a.38.38,0,0,1,.16-.06m0-.47a.72.72,0,0,0-.4.12l-4,2.29a2,2,0,0,0-.89,1.57v4.59c0,.41.2.65.49.65a.78.78,0,0,0,.4-.12l4-2.31a2,2,0,0,0,.89-1.56v-4.59c0-.41-.2-.64-.49-.64" class="M"/><path d="M161.58,113.39l-4,2.3a2,2,0,0,0-.91,1.56v4.59c0,.59.4.82.91.53l4-2.3a2,2,0,0,0,.91-1.57v-4.59c0-.57-.41-.8-.91-.52" class="K"/><path d="M169.3,108.93l-4,2.3a2,2,0,0,0-.89,1.56v4.59c0,.58.4.82.89.53l4-2.3a2,2,0,0,0,.89-1.57v-4.59c0-.57-.4-.8-.89-.52"/><path d="M156.6,150.12a.86.86,0,0,1-.36-.08.9.9,0,0,1-.39-.8v-19.6a2.18,2.18,0,0,1,1-1.75l13-7.52a.89.89,0,0,1,.88-.05.86.86,0,0,1,.38.79v19.6a2.19,2.19,0,0,1-1,1.74l-13,7.48a1,1,0,0,1-.52.15m13.54-29.3-13,7.53a1.66,1.66,0,0,0-.74,1.29v19.6a.39.39,0,0,0,.12.34.39.39,0,0,0,.36-.06l13-7.51a1.66,1.66,0,0,0,.74-1.29V121.07a.39.39,0,0,0-.12-.34.42.42,0,0,0-.36,0" class="M"/><use xlink:href="#Cs" class="C"/><g clip-path="url(#Ak)" class="D"><g class="E"><use xlink:href="#Cs"/></g></g><use xlink:href="#Ct" class="C"/><g clip-path="url(#Al)" class="D"><g class="E"><use xlink:href="#Ct"/></g></g><use xlink:href="#Cu" class="C"/><g clip-path="url(#Am)" class="D"><g class="E"><use xlink:href="#Cu"/></g></g><use xlink:href="#Cv" class="C"/><g clip-path="url(#An)" class="D"><g class="E"><use xlink:href="#Cv"/></g></g><use xlink:href="#Cw" class="C"/><g clip-path="url(#Ao)" class="D"><g class="E"><use xlink:href="#Cw"/></g></g><use xlink:href="#Cx" class="C"/><g clip-path="url(#Ap)" class="D"><g class="E"><use xlink:href="#Cx"/></g></g><use xlink:href="#Cy" class="C"/><g clip-path="url(#Aq)" class="D"><g class="G"><use xlink:href="#Cy"/></g></g><use xlink:href="#Cz" class="C"/><g clip-path="url(#Ar)" class="D"><g class="G"><use xlink:href="#Cz"/></g></g><use xlink:href="#DA" class="C"/><g clip-path="url(#As)" class="D"><g class="G"><use xlink:href="#DA"/></g></g><use xlink:href="#DB" class="C"/><g clip-path="url(#At)" class="D"><g class="G"><use xlink:href="#DB"/></g></g><use xlink:href="#DC" class="C"/><g clip-path="url(#Au)" class="D"><g class="G"><use xlink:href="#DC"/></g></g><use xlink:href="#DD" class="C"/><g clip-path="url(#Av)" class="D"><g class="G"><use xlink:href="#DD"/></g></g><use xlink:href="#DE" class="C"/><g clip-path="url(#Aw)" class="D"><g class="E"><use xlink:href="#DE"/></g></g><use xlink:href="#DF" class="C"/><g clip-path="url(#Ax)" class="D"><g class="E"><use xlink:href="#DF"/></g></g><use xlink:href="#DG" class="C"/><g clip-path="url(#Ay)" class="D"><g class="G"><use xlink:href="#DG"/></g></g><use xlink:href="#DH" class="C"/><g clip-path="url(#Az)" class="D"><g class="G"><use xlink:href="#DH"/></g></g><path d="M46.55,220.7a.74.74,0,0,0,.36-.09l22.64-13.08a2.84,2.84,0,0,0,1.29-2.23V159.61c0-.48-.2-.77-.54-.77a1.13,1.13,0,0,0-.51.16l-22.6,13a2.87,2.87,0,0,0-1.29,2.24v45.36a1.39,1.39,0,0,0,.22.79.58.58,0,0,0,.48.28" class="H"/><path d="M44.4 219.83l1.73 1a1.48 1.48 0 0 1-.52-1.19v-40.77l-1.81-1.05v40.76a1.39 1.39 0 0 0 .6 1.23" class="O"/><path d="M70.3,159.08c.26,0,.3.33.3.53v45.71a2.61,2.61,0,0,1-1.17,2L46.78,220.4a.44.44,0,0,1-.23.06c-.24,0-.46-.39-.46-.83V174.28a2.61,2.61,0,0,1,1.17-2L69.9,159.2a.93.93,0,0,1,.4-.12m0-.48a1.37,1.37,0,0,0-.63.19L47,171.84a3.11,3.11,0,0,0-1.41,2.44v45.36c0,.71.39,1.31,1,1.31a1,1,0,0,0,.47-.13l22.64-13.07a3.08,3.08,0,0,0,1.39-2.43V159.63c0-.64-.32-1-.78-1" class="M"/><use xlink:href="#DI" class="C"/><g clip-path="url(#BA)"><g class="Q"><use xlink:href="#DI"/></g></g><g class="C"><path d="M71.06 159.59v4.66l-25.47 14.66v-4.61a2.42 2.42 0 0 1 .17-.88l.06-.14.19-.38a2.9 2.9 0 0 1 1-1l22.64-13.05a1 1 0 0 1 1.08 0l.11.12a.3.3 0 0 1 .09.13.51.51 0 0 1 .07.17.67.67 0 0 1 0 .2h0a.67.67 0 0 1 0 .2"/><use xlink:href="#DJ"/></g><g clip-path="url(#BB)" class="D"><g class="F"><use xlink:href="#DJ"/></g></g><path d="M59.65 179.11l-.48 24.36-1.65.95-.46-23.82 1.29-5.39 1.3 3.9z" class="I"/><path d="M57.06 180.6l1.3 1.02-.02 22.32-.82.48" class="K"/><path d="M59.65 179.11l-1.29 2.51-1.3-1.02 1.29-5.39 1.3 3.9z" class="J"/><g class="C"><path d="M55.7,206.45c-.8.46-.66-.38,0-.76a5.51,5.51,0,0,0,2.07-1.6,5.78,5.78,0,0,0,.57-1h0s.07.11.57.29,1.42-.41,2.07-.79.81.29,0,.75-2.07,1.24-2.06,2.13v3l-.66.38-.47.28h0v-3c0-.85-1.27-.19-2.08.26"/><path d="M57.35,210a1.21,1.21,0,0,1,.44-.78,2.22,2.22,0,0,1,.56-.45,1.46,1.46,0,0,1,.57-.21c.27,0,.43.06.43.28a.87.87,0,0,1-.17.47,2.42,2.42,0,0,1-.82.77c-.57.32-1,.28-1-.08"/></g><path d="M58.35 205.52l.56-1.2-.57-.63-.56 1.28.57.55z" class="I"/><path d="M190.86 129l-1.77-1-53.47 30.87v39.29a1.33 1.33 0 0 0 .54 1.22h0l1.77 1a1.28 1.28 0 0 0 1.32-.12l49.66-28.71a4.17 4.17 0 0 0 1.91-3.26z" class="U"/><path d="M138.45,200.32a1.5,1.5,0,0,0,.74-.23l49.66-28.7a3.93,3.93,0,0,0,1.77-3.07V129.41l-53,30.62v39.16c0,.7.31,1.12.82,1.12" class="H"/><path d="M190.43,129.79v38.53a3.76,3.76,0,0,1-1.66,2.87l-49.66,28.69a1.31,1.31,0,0,1-.63.21c-.54,0-.6-.64-.6-1v-39l52.55-30.3m.44-.75-53.48,30.87V199.2c0,.85.43,1.34,1,1.34a1.75,1.75,0,0,0,.84-.25l49.66-28.71a4.17,4.17,0,0,0,1.91-3.26Z" class="M"/><path d="M188.52 122.86a1.29 1.29 0 0 0-1.35.12l-49.65 28.7a4.12 4.12 0 0 0-1.91 3.26v3.94l1.75 1L190.84 129v-3.9a1.33 1.33 0 0 0-.54-1.21l-1.76-1" class="K"/><path d="M137.41,156a4.17,4.17,0,0,1,1.91-3.26L189,124c1-.6,1.91-.11,1.91,1.09V129l-53.48,30.87Z" class="I"/><path d="M190.34 123.89a1.33 1.33 0 0 0-1.34.11l-49.66 28.71a4 4 0 0 0-1.33 1.4l-1.76-1a3.91 3.91 0 0 1 1.33-1.41l49.64-28.7a1.34 1.34 0 0 1 1.35-.12l1.76 1" class="J"/><path d="M179.5,158.18c-1.46-4.77-2.43-8.54-6.58-7.38s-5.61,6-8.79,7.84-4.63-1.33-8.78,2.3-5.12,8.49-6.58,15-1.25,11,1.32,10.68c2.09-.29,4.14-3.94,6.1-7.16,2.65-4.32,5.61-7.44,7.94-8.8a8.54,8.54,0,0,1,8-.37c2,1,4,2.25,6.1.12,2.57-2.6,2.78-7.4,1.32-12.21" class="H"/><path d="M171.05,166.53c-2.34-2.21-4.08-2.28-6.92-.63s-4.57,3.71-6.91,8.59c-2.49,5.18-2.87,7.4-5.17,10.93a34.33,34.33,0,0,0,4.14-6c2.65-4.32,5.61-7.44,7.94-8.79a8.54,8.54,0,0,1,8-.38c1.34.64,2.73,1.46,4.14,1.22-2.31-.85-2.68-2.64-5.17-5" class="O"/><path d="M149.82,186.75a1.56,1.56,0,0,1-1.2-.51c-1.19-1.3-1.18-5,0-10.34l.15-.65c1.36-6.08,2.43-10.87,6.47-14.4,2.44-2.14,4-2,5.45-1.81a4.81,4.81,0,0,0,3.35-.51,13.12,13.12,0,0,0,3.41-3.4c1.47-1.86,3-3.78,5.42-4.45,4.13-1.16,5.21,2.43,6.59,7l.14.47c1.6,5.26,1.09,9.87-1.35,12.34-2,2-3.88,1.07-5.73.16l-.51-.24a8.39,8.39,0,0,0-7.82.36c-2.46,1.42-5.41,4.69-7.89,8.76l-.52.85c-1.82,3-3.7,6.09-5.73,6.36a1.4,1.4,0,0,1-.29,0m9.68-27.53a5.9,5.9,0,0,0-4.06,1.83c-4,3.47-5,8-6.39,14.25l-.14.65c-1.17,5.21-1.2,8.9-.08,10.11a1.33,1.33,0,0,0,1.25.41c1.85-.26,3.69-3.31,5.48-6.25l.52-.85c2.51-4.09,5.49-7.4,8-8.84a8.67,8.67,0,0,1,8.07-.38l.52.26c1.84.9,3.58,1.75,5.43-.12,2.36-2.4,2.86-6.91,1.28-12.06l-.15-.49c-1.37-4.58-2.38-7.89-6.26-6.81-2.35.66-3.82,2.54-5.27,4.36a13.39,13.39,0,0,1-3.49,3.47,5,5,0,0,1-3.51.55,11.91,11.91,0,0,0-1.19-.09" class="C"/><path d="M160.83,164.49c0,4-2.41,8.55-5.38,10.26s-5.37-.1-5.37-4.06,2.41-8.59,5.37-10.25,5.38.1,5.38,4.05" class="H"/><path d="M160.83 164.49c0 4-2.41 8.55-5.38 10.26s-5.37-.1-5.37-4.06 2.41-8.59 5.37-10.25 5.38.1 5.38 4.05z" class="B V W X"/><path d="M166.43,168.74a5.49,5.49,0,0,1-2.3,4.41c-1.27.73-2.3-.05-2.3-1.74a5.53,5.53,0,0,1,2.3-4.4c1.28-.74,2.3,0,2.3,1.73" class="H"/><path d="M166.43 168.74a5.49 5.49 0 0 1-2.3 4.41c-1.27.73-2.3-.05-2.3-1.74a5.53 5.53 0 0 1 2.3-4.4c1.28-.74 2.3.04 2.3 1.73z" class="B V W X"/><path d="M167.44,160.67c0,4,2.4,5.78,5.37,4.07s5.37-6.31,5.37-10.26-2.41-5.73-5.37-4.06-5.37,6.3-5.37,10.25" class="H"/><path d="M167.44 160.67c0 4 2.4 5.78 5.37 4.07s5.37-6.31 5.37-10.26-2.41-5.73-5.37-4.06-5.37 6.3-5.37 10.25z" class="B V W X"/><path d="M165.1,164.2l1.41-.81a.78.78,0,0,0,.32-.62c0-.23-.14-.35-.32-.24l-1.41.82a.75.75,0,0,0-.32.61c0,.23.14.34.32.24" class="M"/><use xlink:href="#DK" class="C"/><g clip-path="url(#BC)" class="D"><g class="E"><use xlink:href="#DK"/></g></g><g clip-path="url(#BD)" class="C"><g class="F"><path d="M165.6,169.37a2.83,2.83,0,0,1-1.49,1.91c-1.07.48-1.51-.73-1.18-1.74a3.38,3.38,0,0,0-.31,1.36c0,1.1.67,1.6,1.49,1.13a3.56,3.56,0,0,0,1.49-2.69"/></g></g><g clip-path="url(#BE)" class="D"><g class="F"><path d="M165.17,169.19c-.12.4-.4.21-.81.15s-.77,0-.64-.35a1.12,1.12,0,0,1,1-.76c.4.05.58.56.44,1"/></g></g><use xlink:href="#DL" class="C"/><g clip-path="url(#BF)" class="D"><g class="L"><use xlink:href="#DL"/></g></g><g clip-path="url(#BG)" class="C"><g class="F"><path d="M157,163a2.86,2.86,0,0,1-1.49,1.91c-1.07.48-1.51-.73-1.18-1.74a3.38,3.38,0,0,0-.31,1.36c0,1.1.67,1.61,1.49,1.13A3.59,3.59,0,0,0,157,163"/></g></g><g clip-path="url(#BH)" class="D"><g class="F"><path d="M156.5,162.82c-.13.4-.41.21-.81.16s-.77,0-.64-.36a1.09,1.09,0,0,1,1-.76.72.72,0,0,1,.47.9.17.17,0,0,1,0,.05"/></g></g><use xlink:href="#DM" class="C"/><g clip-path="url(#BI)" class="D"><g class="L"><use xlink:href="#DM"/></g></g><g clip-path="url(#BJ)" class="C"><g class="F"><path d="M154,168.57a2.87,2.87,0,0,1-1.48,1.91c-1.07.48-1.51-.73-1.19-1.75a3.59,3.59,0,0,0-.3,1.37c0,1.1.67,1.6,1.49,1.13a3.62,3.62,0,0,0,1.48-2.7"/></g></g><g clip-path="url(#BK)" class="D"><g class="F"><path d="M153.59 168.39c-.14.4-.41.21-.81.15s-.78 0-.64-.35a1.08 1.08 0 0 1 1-.76.7.7 0 0 1 .47.89v.06"/></g></g><use xlink:href="#DN" class="C"/><g clip-path="url(#BL)" class="D"><g class="L"><use xlink:href="#DN"/></g></g><g clip-path="url(#BM)" class="C"><g class="F"><path d="M157,170.77a2.88,2.88,0,0,1-1.49,2c-1.07.47-1.51-.74-1.18-1.76a3.42,3.42,0,0,0-.31,1.37c0,1.09.67,1.6,1.49,1.12a3.55,3.55,0,0,0,1.49-2.69"/></g></g><g clip-path="url(#BN)" class="D"><g class="F"><path d="M156.5,170.6c-.13.4-.41.21-.81.15s-.77,0-.64-.35a1.1,1.1,0,0,1,1-.77.72.72,0,0,1,.47.9.14.14,0,0,1,0,.06"/></g></g><use xlink:href="#DO" class="C"/><g clip-path="url(#BO)" class="D"><g class="L"><use xlink:href="#DO"/></g></g><g clip-path="url(#BP)" class="C"><g class="F"><path d="M159.87,165.21a2.8,2.8,0,0,1-1.49,1.91c-1.07.49-1.51-.74-1.18-1.75a3.6,3.6,0,0,0-.31,1.37c0,1.1.67,1.6,1.49,1.12a3.53,3.53,0,0,0,1.49-2.65"/></g></g><g clip-path="url(#BQ)" class="D"><g class="F"><path d="M159.41,165c-.13.4-.41.21-.81.15s-.77,0-.64-.35a1.13,1.13,0,0,1,1-.77.7.7,0,0,1,.44,1"/></g></g><use xlink:href="#DP" class="C"/><g clip-path="url(#BR)" class="D"><g class="L"><use xlink:href="#DP"/></g></g><g clip-path="url(#BS)" class="C"><g class="F"><path d="M174.29,153a2.89,2.89,0,0,1-1.48,1.91c-1.07.47-1.52-.74-1.19-1.75a3.54,3.54,0,0,0-.3,1.36c0,1.1.67,1.61,1.49,1.13a3.55,3.55,0,0,0,1.48-2.69"/></g></g><g clip-path="url(#BT)" class="D"><g class="F"><path d="M173.85,152.8c-.13.4-.41.21-.81.16s-.77,0-.65-.37a1.15,1.15,0,0,1,1-.76.72.72,0,0,1,.45,1"/></g></g><use xlink:href="#DQ" class="C"/><g clip-path="url(#BU)" class="D"><g class="L"><use xlink:href="#DQ"/></g></g><g clip-path="url(#BV)" class="C"><g class="F"><path d="M171.38,158.53a2.89,2.89,0,0,1-1.48,1.91c-1.07.47-1.52-.74-1.19-1.75a3.37,3.37,0,0,0-.3,1.36c0,1.1.66,1.61,1.49,1.13a3.55,3.55,0,0,0,1.48-2.69"/></g></g><g clip-path="url(#BW)" class="D"><g class="F"><path d="M170.93,158.38c-.12.39-.4.2-.8.15s-.79,0-.65-.36a1.15,1.15,0,0,1,1-.76.71.71,0,0,1,.44,1"/></g></g><use xlink:href="#DR" class="C"/><g clip-path="url(#BX)" class="D"><g class="L"><use xlink:href="#DR"/></g></g><g clip-path="url(#BY)" class="C"><g class="F"><path d="M174.29,160.76a2.89,2.89,0,0,1-1.48,1.91c-1.07.48-1.52-.74-1.19-1.75a3.68,3.68,0,0,0-.29,1.42c0,1.1.67,1.6,1.49,1.13a3.55,3.55,0,0,0,1.48-2.69"/></g></g><g clip-path="url(#BZ)" class="D"><g class="F"><path d="M173.85,160.58c-.13.4-.41.21-.81.15s-.77.05-.65-.35a1.13,1.13,0,0,1,1-.77.72.72,0,0,1,.45,1"/></g></g><use xlink:href="#DS" class="C"/><g clip-path="url(#Ba)" class="D"><g class="L"><use xlink:href="#DS"/></g></g><g clip-path="url(#Bb)" class="C"><g class="F"><path d="M177.2,155.19a2.81,2.81,0,0,1-1.48,1.91c-1.07.48-1.5-.73-1.19-1.75a3.63,3.63,0,0,0-.3,1.37c0,1.1.67,1.6,1.49,1.13a3.55,3.55,0,0,0,1.48-2.7"/></g></g><g clip-path="url(#Bc)" class="D"><g class="F"><path d="M176.77,155c-.14.4-.42.21-.82.15s-.77.05-.65-.35a1.12,1.12,0,0,1,1-.76c.4,0,.57.56.45.95"/></g></g><g class="M"><path d="M145.62 173.33l-.02-.01-2.51-1.15.04-.09 2.49 1.13 5.41-3.12.06.09-5.47 3.15z"/><path d="M151.4 170a.81.81 0 0 1-.34.66c-.19.12-.35 0-.35-.25a.79.79 0 0 1 .35-.66c.19-.12.34 0 .34.25m-1.81-2.68l-.02-.01-2.51-1.15.03-.09 2.5 1.14 4.36-2.52.06.08-4.42 2.55z"/><path d="M154.32 164.53a.82.82 0 0 1-.34.66c-.19.11-.34 0-.34-.27a.83.83 0 0 1 .34-.66c.19-.1.34 0 .34.27m1.87-5.48h-.09v-3.39l-2.68.1v-.1l2.77-.1v3.49z"/><path d="M156.15 159.48c-.19.11-.35 0-.35-.26a.84.84 0 0 1 .35-.66c.19-.11.34 0 .34.26a.82.82 0 0 1-.34.66m-.67 14.04h.11v10.99h-.11z"/><path d="M155.53 173.06c.19-.11.34 0 .34.26a.85.85 0 0 1-.34.67c-.19.1-.35 0-.35-.27a.86.86 0 0 1 .35-.66m2.79-5.17h.11v10.99h-.11z"/><path d="M158.37 167.43c.19-.11.35 0 .35.26a.86.86 0 0 1-.35.66c-.19.11-.34 0-.34-.26a.83.83 0 0 1 .34-.66m5.71 4.81h.11v9.44h-.11z"/><path d="M164.13 171.78c.19-.11.34 0 .34.26a.83.83 0 0 1-.34.66c-.19.1-.34 0-.34-.26a.82.82 0 0 1 .34-.66m-.05-15.09h.11v4.08h-.11z"/><path d="M164.13 161.23c-.19.11-.34 0-.34-.26a.82.82 0 0 1 .34-.66c.19-.11.34 0 .34.26a.79.79 0 0 1-.34.66m13.11-6.15l-.05-.09 5.42-3.13 2.5-4.04.09.06-2.53 4.06-5.43 3.14z"/><path d="M176.87 155.23c0 .26.15.37.34.27a.87.87 0 0 0 .35-.66c0-.26-.16-.37-.35-.27a.86.86 0 0 0-.34.66m-2.55-2.19l-.06-.08 4.39-2.53 2.5-4.04.08.05-2.53 4.06-4.38 2.54z"/><path d="M174 153.2c0 .25.15.37.34.26a.83.83 0 0 0 .35-.66c0-.25-.16-.37-.35-.26a.82.82 0 0 0-.34.66m-1.83-3.36h-.1v-3.47l2.75-3.07.07.07-2.72 3.04v3.43z"/><path d="M172.12 150.29a.84.84 0 0 0 .35-.66c0-.25-.16-.37-.35-.26a.82.82 0 0 0-.34.67c0 .24.15.36.34.25m.58 13.29h.11v10.99h-.11z"/><path d="M172.74 163.12a.82.82 0 0 0-.34.66c0 .26.15.37.34.26a.82.82 0 0 0 .35-.66c0-.25-.15-.38-.35-.26m-2.9-1.88h.11v10.99h-.11z"/><path d="M169.9,160.78a.86.86,0,0,0-.35.66c0,.26.16.37.35.26a.83.83,0,0,0,.34-.66c0-.25-.15-.37-.34-.26"/></g><use xlink:href="#DT" class="U"/><g clip-path="url(#Be)"><g class="P"><use xlink:href="#DT"/></g></g><path d="M79.86 236.17l-3.42-.29a.47.47 0 0 1-.33-.17.49.49 0 0 1-.09-.37l.17-1.32a.87.87 0 0 0-.59-1 13.32 13.32 0 0 1-1.42-.52 2 2 0 0 0-.73-.13 1.61 1.61 0 0 0-.49.07l-2.68.88H70a1.13 1.13 0 0 1-.67-.21l-1.74-1.46a.32.32 0 0 1-.12-.25.3.3 0 0 1 .19-.23l2.21-1.15a.72.72 0 0 0 .32-.95 5.89 5.89 0 0 1-.21-.59 1.1 1.1 0 0 0-.82-.78l-3-.46a.36.36 0 0 1-.28-.18.43.43 0 0 1 0-.35l.5-1.54a.75.75 0 0 1 .67-.5l3.15.1a1.67 1.67 0 0 0 1.11-.49 7 7 0 0 1 .75-.68.71.71 0 0 0 .28-.5.72.72 0 0 0-.18-.49L71 221.32a.33.33 0 0 1-.09-.27.31.31 0 0 1 .21-.22l2.76-1.15a.94.94 0 0 1 .37-.07 1.11 1.11 0 0 1 .59.16l1.79 1.23a1.89 1.89 0 0 0 1 .26h.25a17.7 17.7 0 0 1 1.78-.24 1.34 1.34 0 0 0 1-.67l.7-1.36a.84.84 0 0 1 .71-.43H82l3.43.32a.52.52 0 0 1 .33.16.54.54 0 0 1 .09.37l-.17 1.33a.86.86 0 0 0 .59.91 13.93 13.93 0 0 1 1.41.51 1.91 1.91 0 0 0 .74.14 2.07 2.07 0 0 0 .49-.07l2.68-.89a1.22 1.22 0 0 1 .27 0 1.17 1.17 0 0 1 .67.22l1.75 1.44a.3.3 0 0 1 .14.25.3.3 0 0 1-.19.22L92 224.64a.72.72 0 0 0-.31 1 5.89 5.89 0 0 1 .21.59 1.1 1.1 0 0 0 .81.79l3 .48a.36.36 0 0 1 .29.5l-.49 1.55a.75.75 0 0 1-.67.49l-3.15-.09a1.67 1.67 0 0 0-1.11.49 7.82 7.82 0 0 1-.75.67.73.73 0 0 0-.28.5.68.68 0 0 0 .18.5l1.23 1.32a.37.37 0 0 1 .1.28.38.38 0 0 1-.21.22l-2.77 1.15a1.19 1.19 0 0 1-.37.06 1 1 0 0 1-.59-.16l-1.83-1.21a1.89 1.89 0 0 0-1-.26h-.25l-1.77.25a1.34 1.34 0 0 0-1 .66l-.72 1.34a.88.88 0 0 1-.73.43h0m1.25-12.78a10.53 10.53 0 0 0-3.92.73c-1.66.7-2.72 1.78-2.87 3a2.89 2.89 0 0 0 1.16 2.61 8.61 8.61 0 0 0 5.33 1.61 10.3 10.3 0 0 0 3.92-.74c1.67-.69 2.73-1.77 2.87-3a2.89 2.89 0 0 0-1.1-2.62 8.59 8.59 0 0 0-5.33-1.61" class="H"/><path d="M82 218.69h0l3.43.32a.38.38 0 0 1 .24.13.39.39 0 0 1 .08.27l-.19 1.33a1 1 0 0 0 .68 1q.73.24 1.41.51a1.85 1.85 0 0 0 .77.14 1.67 1.67 0 0 0 .54-.07l2.68-.88h.23a.93.93 0 0 1 .58.18l1.74 1.46c.06 0 .09.1.08.14a.22.22 0 0 1-.12.14l-2.22 1.14a.88.88 0 0 0-.37 1.15 2.92 2.92 0 0 1 .21.56 1.22 1.22 0 0 0 .91.87l3 .49a.25.25 0 0 1 .19.12.28.28 0 0 1 0 .25l-.5 1.55a.64.64 0 0 1-.56.41h0l-3.14-.1h0a1.94 1.94 0 0 0-1.18.53 7.73 7.73 0 0 1-.73.67.8.8 0 0 0-.32.58.83.83 0 0 0 .2.59l1.23 1.33c.06.06.09.11.07.16a.21.21 0 0 1-.13.13l-2.76 1.09a1 1 0 0 1-.34.06.9.9 0 0 1-.51-.13l-1.82-1.25a2 2 0 0 0-1-.27 1.31 1.31 0 0 0-.28 0 17.12 17.12 0 0 1-1.75.24 1.43 1.43 0 0 0-1.09.73l-.7 1.36a.75.75 0 0 1-.62.37h0l-3.43-.31a.35.35 0 0 1-.24-.14.41.41 0 0 1-.07-.27l.17-1.32a1 1 0 0 0-.67-1 13.82 13.82 0 0 1-1.4-.52 2.12 2.12 0 0 0-.79-.14 1.86 1.86 0 0 0-.52.07l-2.68.88a.45.45 0 0 1-.23 0 .92.92 0 0 1-.6-.19l-1.72-1.46c-.07 0-.1-.09-.09-.14a.16.16 0 0 1 .12-.13l2.21-1.15a.87.87 0 0 0 .37-1.14 5.37 5.37 0 0 1-.21-.56 1.19 1.19 0 0 0-1-.87l-3-.49a.25.25 0 0 1-.2-.38l.49-1.55a.63.63 0 0 1 .57-.4l3.14.09h0a1.77 1.77 0 0 0 1.16-.53q.36-.34.75-.66a.84.84 0 0 0 .31-.59.74.74 0 0 0-.21-.58L71 221.18a.24.24 0 0 1-.07-.16.23.23 0 0 1 .15-.14l2.76-1.14a.87.87 0 0 1 .32-.06.9.9 0 0 1 .53.14l1.84 1.18a1.89 1.89 0 0 0 1 .26h.28a17.31 17.31 0 0 1 1.76-.24 1.47 1.47 0 0 0 1.09-.73l.7-1.36a.72.72 0 0 1 .61-.37m-1.2 12.8a10.47 10.47 0 0 0 4-.76 4.42 4.42 0 0 0 3-3 3 3 0 0 0-1.21-2.71 8.71 8.71 0 0 0-5.4-1.66 10.47 10.47 0 0 0-4 .76c-1.7.71-2.78 1.82-3 3.05a3 3 0 0 0 1.21 2.72 8.64 8.64 0 0 0 5.4 1.65m1.2-13a1 1 0 0 0-.82.5l-.71 1.37a1.23 1.23 0 0 1-.89.59 17.72 17.72 0 0 0-1.78.25h-.24a1.74 1.74 0 0 1-.87-.23l-1.8-1.2a1.26 1.26 0 0 0-.66-.18 1.15 1.15 0 0 0-.41.08l-2.79 1.1a.4.4 0 0 0-.28.48.39.39 0 0 0 .13.2l1.23 1.33a.54.54 0 0 1 0 .78 7.16 7.16 0 0 0-.77.69 1.6 1.6 0 0 1-.95.45h0l-3.14-.09h0a.89.89 0 0 0-.78.58l-.49 1.55a.51.51 0 0 0 .3.66h.11l3 .48a1 1 0 0 1 .72.7 4.29 4.29 0 0 0 .14.62.62.62 0 0 1-.26.82l-2.22 1.15a.38.38 0 0 0-.23.49.35.35 0 0 0 .15.19l1.73 1.46a1.26 1.26 0 0 0 .75.24.76.76 0 0 0 .3 0l2.69-.88a1.63 1.63 0 0 1 .45-.06 1.75 1.75 0 0 1 .68.13 15.24 15.24 0 0 0 1.44.51.74.74 0 0 1 .49.79l-.17 1.31a.61.61 0 0 0 .52.68h0l3.43.33h.06a1 1 0 0 0 .83-.51l.7-1.36a1.29 1.29 0 0 1 .9-.6 9.77 9.77 0 0 0 1.78-.24h.23a1.81 1.81 0 0 1 .88.23l1.83 1.22a1.28 1.28 0 0 0 .65.18 1 1 0 0 0 .42-.08l2.66-1.12a.39.39 0 0 0 .16-.67L89.83 232a.55.55 0 0 1 0-.77.1.1 0 0 1 0 0 6.23 6.23 0 0 0 .76-.69 1.54 1.54 0 0 1 1-.45h0l3.13.09h0a.87.87 0 0 0 .78-.58l.5-1.54a.51.51 0 0 0-.31-.66.17.17 0 0 0-.1 0l-3-.49a.94.94 0 0 1-.71-.69l-.22-.61a.62.62 0 0 1 .25-.82l2.23-1.14a.38.38 0 0 0 .23-.49.36.36 0 0 0-.15-.19l-1.73-1.46a1.26 1.26 0 0 0-.75-.24.76.76 0 0 0-.3 0l-2.69.89a1.41 1.41 0 0 1-.46 0 1.89 1.89 0 0 1-.67-.12l-1.44-.52a.74.74 0 0 1-.5-.78l.18-1.33a.59.59 0 0 0-.51-.66h0l-3.35-.32h-.07m-1.2 12.79a8.46 8.46 0 0 1-5.25-1.59c-2-1.72-1.27-4.12 1.72-5.36a10.1 10.1 0 0 1 3.88-.74 8.32 8.32 0 0 1 5.3 1.57c2 1.72 1.28 4.11-1.71 5.36a10.29 10.29 0 0 1-3.88.73" class="M"/><use xlink:href="#DU" class="U"/><g clip-path="url(#Bf)"><g class="P"><use xlink:href="#DU"/></g></g><path d="M98.48 219.07l-2.74-.26a.32.32 0 0 1-.23-.13.3.3 0 0 1-.08-.27l.13-1.06a.7.7 0 0 0-.48-.75l-1.12-.41a1.56 1.56 0 0 0-.6-.11 1.27 1.27 0 0 0-.39.06l-2.14.7h-.21a.82.82 0 0 1-.52-.18l-1.38-1.16a.21.21 0 0 1-.1-.17.24.24 0 0 1 .14-.17l1.77-.95a.61.61 0 0 0 .26-.81 3.57 3.57 0 0 1-.16-.46 1 1 0 0 0-.67-.65l-2.38-.38a.38.38 0 0 1-.21-.14.3.3 0 0 1 0-.26l.4-1.24a.58.58 0 0 1 .51-.37l2.51.08a1.43 1.43 0 0 0 .91-.4 6.1 6.1 0 0 1 .59-.54.61.61 0 0 0 .23-.42.53.53 0 0 0-.15-.41l-1-1.06a.27.27 0 0 1-.08-.19.28.28 0 0 1 .16-.16l2.2-.91a.72.72 0 0 1 .29-.06.84.84 0 0 1 .46.13l1.46.95a1.36 1.36 0 0 0 .76.2h.21l1.41-.19a1.08 1.08 0 0 0 .81-.54l.56-1.08a.63.63 0 0 1 .55-.33l2.77.25a.32.32 0 0 1 .24.14.35.35 0 0 1 .08.26l-.14 1.06a.71.71 0 0 0 .48.76 8.91 8.91 0 0 1 1.13.4 1.35 1.35 0 0 0 .59.11 1.07 1.07 0 0 0 .4 0l2.14-.71h.2a.9.9 0 0 1 .53.17l1.38 1.16a.21.21 0 0 1 .09.18.25.25 0 0 1-.14.16l-1.76 1a.6.6 0 0 0-.27.81 3.61 3.61 0 0 1 .17.46 1 1 0 0 0 .67.65l2.38.38a.36.36 0 0 1 .21.13.3.3 0 0 1 0 .26l-.39 1.23a.57.57 0 0 1-.51.38l-2.51-.07a1.36 1.36 0 0 0-.91.4 7.63 7.63 0 0 1-.59.53.57.57 0 0 0-.23.41.5.5 0 0 0 .14.41l1 1.06a.26.26 0 0 1 .07.2.22.22 0 0 1-.16.16l-2.19.95a.76.76 0 0 1-.3 0 .79.79 0 0 1-.45-.11l-1.46-1a1.55 1.55 0 0 0-.76-.21h-.21a13.85 13.85 0 0 1-1.42.2 1.17 1.17 0 0 0-.81.54l-.55 1.09a.71.71 0 0 1-.56.33zm1-10.2a8.17 8.17 0 0 0-3.13.59 3.47 3.47 0 0 0-2.35 2.39 2.26 2.26 0 0 0 1 2.06 6.8 6.8 0 0 0 4.26 1.3 8.19 8.19 0 0 0 3.14-.59 3.4 3.4 0 0 0 2.33-2.39 2.26 2.26 0 0 0-1-2.09 6.82 6.82 0 0 0-4.26-1.3" class="H"/><path d="M100.16 205.17h0l2.73.25a.22.22 0 0 1 .15.08.24.24 0 0 1 0 .18l-.13 1.06a.82.82 0 0 0 .57.89 8.63 8.63 0 0 1 1.11.4 1.71 1.71 0 0 0 1.08.06l2.13-.71h.2a.79.79 0 0 1 .44.14l1.38 1.16s.06.07.06.08 0 0-.08.06l-1.77 1a.72.72 0 0 0-.31.95l.16.45a1 1 0 0 0 .77.73l2.37.39a.13.13 0 0 1 .13.08.22.22 0 0 1 0 .16l-.39 1.23a.47.47 0 0 1-.4.29h0l-2.47-.15h0a1.48 1.48 0 0 0-1 .44 7.43 7.43 0 0 1-.59.53.73.73 0 0 0-.27.49.65.65 0 0 0 .18.51l1 1.06a.14.14 0 0 1 0 .09l-.08.07-2.2 1h-.25a.75.75 0 0 1-.38-.1l-1.46-1a1.61 1.61 0 0 0-.83-.22h-.23a13.08 13.08 0 0 1-1.4.19 1.2 1.2 0 0 0-.91.61l-.53 1.1a.54.54 0 0 1-.45.27h0l-2.76-.27a.26.26 0 0 1-.16-.09.27.27 0 0 1 0-.18l.15-1a.86.86 0 0 0-.57-.89 8.63 8.63 0 0 1-1.11-.4 1.82 1.82 0 0 0-.65-.12 1.54 1.54 0 0 0-.43.06l-2.14.7h-.17a.84.84 0 0 1-.44-.13l-1.39-1.17a.1.1 0 0 1 0-.07l.07-.07 1.77-1a.72.72 0 0 0 .31-.95 4 4 0 0 1-.16-.45 1 1 0 0 0-.76-.73l-2.38-.39a.14.14 0 0 1-.12-.07.17.17 0 0 1 0-.17l.4-1.23a.43.43 0 0 1 .4-.28h0l2.5.06h0a1.42 1.42 0 0 0 1-.43 5.78 5.78 0 0 1 .59-.52.78.78 0 0 0 .27-.51.68.68 0 0 0-.18-.5l-1-1.06v-.09c0-.03 0 0 .07-.07l2.21-1a.49.49 0 0 1 .24 0 .86.86 0 0 1 .39.09l1.46 1a1.62 1.62 0 0 0 .83.23h.23a13.08 13.08 0 0 1 1.4-.19 1.25 1.25 0 0 0 .95-.61l.56-1.08a.57.57 0 0 1 .45-.27m-1 10.2a8.52 8.52 0 0 0 3.19-.6 3.58 3.58 0 0 0 2.4-2.49 2.39 2.39 0 0 0-1-2.2 6.92 6.92 0 0 0-4.35-1.33 8.44 8.44 0 0 0-3.18.6 3.58 3.58 0 0 0-2.4 2.48A2.39 2.39 0 0 0 95 214a6.89 6.89 0 0 0 4.34 1.33m1-10.45a.82.82 0 0 0-.67.4l-.67 1.07a1 1 0 0 1-.72.48 13.81 13.81 0 0 0-1.42.19h-.18a1.32 1.32 0 0 1-.7-.19l-1.46-1a1.06 1.06 0 0 0-.52-.13 1 1 0 0 0-.34.06l-2.19.95a.33.33 0 0 0-.23.39.39.39 0 0 0 .1.16l1 1.06a.43.43 0 0 1 0 .6.1.1 0 0 1 0 0 6.42 6.42 0 0 0-.6.55 1.28 1.28 0 0 1-.8.36h0l-2.51-.06h0a.68.68 0 0 0-.62.46l-.4 1.24a.42.42 0 0 0 .25.52h.09l2.37.39a.81.81 0 0 1 .58.55 2.48 2.48 0 0 0 .17.48.5.5 0 0 1-.21.66h0l-1.77 1a.29.29 0 0 0-.17.39.26.26 0 0 0 .11.14l1.17 1.18a1 1 0 0 0 .59.19h.25l2.13-.7a1.09 1.09 0 0 1 .36 0 1.45 1.45 0 0 1 .55.1 11 11 0 0 0 1.14.41.59.59 0 0 1 .4.62l-.14 1.06a.46.46 0 0 0 .39.53h0l2.74.26h0a.75.75 0 0 0 .66-.39l.54-1.13a1 1 0 0 1 .71-.47 13.85 13.85 0 0 0 1.42-.2h.26a1.47 1.47 0 0 1 .7.19l1.46.95a.9.9 0 0 0 .51.13.78.78 0 0 0 .34-.05l2.2-1a.31.31 0 0 0 .23-.38.34.34 0 0 0-.1-.16l-1-1.06a.43.43 0 0 1 0-.61h0a7.82 7.82 0 0 0 .6-.55 1.23 1.23 0 0 1 .79-.36h0l2.51.07h0a.69.69 0 0 0 .62-.46l.39-1.23a.4.4 0 0 0-.23-.52h-.1l-2.38-.39a.74.74 0 0 1-.57-.55 4.59 4.59 0 0 0-.17-.48.5.5 0 0 1 .2-.66l1.78-.95a.31.31 0 0 0 .17-.4.36.36 0 0 0-.11-.14l-1.38-1.16a.93.93 0 0 0-.6-.19h-.24l-2.14.7a1.09 1.09 0 0 1-.36 0 1.71 1.71 0 0 1-.55-.09 9.56 9.56 0 0 0-1.13-.41.6.6 0 0 1-.41-.63l.14-1a.46.46 0 0 0-.38-.53h0l-2.73-.26h0m-1 10.2a6.72 6.72 0 0 1-4.06-1.35c-1.62-1.37-1-3.29 1.37-4.28a8.15 8.15 0 0 1 3.09-.58 6.66 6.66 0 0 1 4.18 1.26c1.63 1.38 1 3.29-1.36 4.28a8.24 8.24 0 0 1-3.1.58" class="M"/></g><path d="M210.02 40.32l-26.68 15.43v46.44l26.68-15.42V40.32z" fill="#efefef"/><g class="N"><path d="M184.23,61.34c0-2.37,2.23-6.38,3.14-6.91L210.69,41V87.13l-26.46,15.28Z" class="H"/><g class="M"><path d="M210.57,41.13V87.07l-26.22,15.17V61.34c0-2.48,2.28-6.35,3.07-6.81l23.15-13.37m.22-.37L187.31,54.34c-1,.52-3.19,4.55-3.19,7v41.28L210.78,87.2Z"/><path d="M187.31 54.34c-1.47 1.18-.38 4.19-.38 4.19a2.75 2.75 0 0 0-2.81 2.69v.31h0c0-4.26 1.45-6.19 3.19-7.19"/></g><path d="M195.79 68.65l-2.8 1.63v1.87l-1.4.81v3.73l1.4-.8v1.86l1.4-.8v1.87l1.4-.81v1.87l1.4-.81v1.87l1.41-.81v-1.87l1.4-.81v-1.87l1.4-.81v-1.88l1.41-.8v-1.87l1.4-.81v-3.75l-1.4.81V64.6L200 66.22v1.88l-1.4.8v1.87l-1.41.81v-1.87l-1.4.82v-1.88z" class="C"/><g class="J"><path d="M194.39 69.47l-1.4.81v-1.87l1.4-.82v1.88z"/><path d="M195.79 68.65l-1.4.82v-1.88l1.4-.81v1.87zm-2.8 3.5l-1.4.81v-1.87l1.4-.81v1.87z"/></g><g class="H"><path d="M194.39 73.21l-1.4.81v-1.87l1.4-.81v1.87z"/><path d="M194.39 75.08l-1.4.81v-1.87l1.4-.81v1.87z"/><path d="M195.79 72.4l-1.4.81v-1.87l1.4-.81v1.87z"/></g><g class="J"><path d="M192.99 77.75l-1.4.81v-1.87l1.4-.8v1.86z"/><path d="M194.39 78.82l-1.4.82v-1.89l1.4-.8v1.87z"/><path d="M195.79 79.88l-1.4.81v-1.87l1.4-.81v1.87z"/><path d="M197.19 80.94l-1.4.81v-1.87l1.4-.81v1.87z"/><path d="M198.6 82l-1.41.81v-1.87l1.41-.81V82zm-7.01-7.17l-1.41.8v-1.87l1.41-.8v1.87z"/><path d="M191.59 76.69l-1.41.81v-1.87l1.41-.8v1.86zm5.6-6.98l-1.4.82v-1.88l1.4-.81v1.87zm4.21-4.29l1.41-.82v-1.87l-1.41.81v1.88z"/><path d="M200 66.22l1.4-.8v-1.88l-1.4.82v1.86zm2.81.25l1.4-.81v-1.87l-1.4.81v1.87zm0 5.62l1.4-.81v-1.87l-1.4.81v1.87z"/><path d="M201.4 74.77l1.41-.81v-1.87l-1.41.8v1.88z"/><path d="M200 77.45l1.4-.81v-1.87l-1.4.81v1.87z"/><path d="M198.6 80.13l1.4-.81v-1.87l-1.4.81v1.87zm5.61-12.59l1.41-.82v-1.87l-1.41.81v1.88z"/><path d="M204.21 69.41l1.41-.81v-1.88l-1.41.82v1.87zm-5.61-.51l1.4-.81v-1.87l-1.4.81v1.87z"/><path d="M198.6 70.77l-1.41.81v-1.87l1.41-.81v1.87z"/></g><path d="M206.09 40.06l-.75 1.91 7.14 4.13.76-1.92-7.15-4.12z" class="C"/><g clip-path="url(#Bg)" class="D"><g opacity=".4"><path d="M206.09 40.06l-.75 1.91 7.14 4.13.76-1.92-7.15-4.12z"/></g></g><path d="M182.45 96.16l-.77 1.91 7.15 4.12.76-1.92-7.14-4.11z" class="C"/><g clip-path="url(#Bh)" class="D"><g opacity=".4"><path d="M182.45 96.16l-.77 1.91 7.15 4.12.76-1.92-7.14-4.11z"/></g></g><path d="M216.75,111c-1.3,1.58-5.37,7.23-6.43,9.11l-5.87-5.41c-.47-.68-.36-2-1.15-3.4s-.36-2.86-1.08-2.73a1.05,1.05,0,0,0-.68,1c-.06.82.25,1.91-.07,1.79-.48-.21-.8-.78-1.38-1.65-.25-.36-.79-1.77-1.08-2.4a.54.54,0,0,0-.68-.34.53.53,0,0,0-.28.21c-.1.18-.2.61-.3.78a2.23,2.23,0,0,1-.4.35,2.18,2.18,0,0,0-.42.33c-.29.39-.07.86-.21,1.3a3.72,3.72,0,0,0,.34,2.66c.17.38.33.76.51,1.12a8.1,8.1,0,0,0,1.59,2c.55.53,1.24.85,1.78,1.41s2,2.57,3.16,4a53.32,53.32,0,0,0,4.13,5c1.52,1.13,3,1.4,4.87-.49,2.28-2.28,6.69-8.18,6.69-8.18l1.48-8.49a6.9,6.9,0,0,0-4.49,2" class="R"/><path d="M221 108.71a6.79 6.79 0 0 0-4.14 1.76c-1.27 1.22-5 6.88-5.54 7.41s-1 .75-1.05 1.23a.79.79 0 0 0 .16.72c.86.2 3.26 4.77 2.15 6.21l-.5.37a1 1 0 0 0 1.17.09 18.92 18.92 0 0 0 2.47-3l5-5.91z" class="C"/><path d="M210.49,119.83l-.34.06a7.13,7.13,0,0,1,1.2,3.82c.08,1.37-.24,2.93-.66,3.26,0,0,.39.18,1.09-.23a7.52,7.52,0,0,0,1.09-.75,4.64,4.64,0,0,0-.11-3.3c-.73-1.91-1.6-2.62-2.27-2.86" class="I"/><path d="M238.43 184.81c-.3-4.14.2-8.7-.15-15.17 0-1.66-.09-3.44-.2-5a51 51 0 0 0-1.27-8.15l-.75-21.8c-.16-5.46-1.75-7.12-3-10H218c-1.68 7.15-2.16 22.77-2.11 30.15 0 3.76 1.55 23.87 1.58 24.34.1 1.65 0 2.29-.68 3a38.45 38.45 0 0 1-5 4.09c.25.65 2.28.62 3.29.13a24 24 0 0 0 3.74-2.39c1.39-1 3.16-1.85 3.19-3.41 0-.19.06-.25 0-.28 0-1 2.16-14.37 2.34-17.5.14-2.69-.18-7.24-.18-7.24L226 144.2s1.32 8.6 2.4 13.23l3.33 14.71c.95 5.3 2.31 10.45 2.55 13.11.07.63.79 6.84 1.08 8.27s3.4 1.46 3.6-1c.14-1.63-.44-6.89-.49-7.64" fill="#ffbda6"/><path d="M208.93,187.87a1.33,1.33,0,0,0,.24,1.36,5.81,5.81,0,0,0,4.19,1,7.4,7.4,0,0,0,4.08-1.57,8.8,8.8,0,0,1,3-1.91,5.89,5.89,0,0,0,2.12-.84c.28-.27.26-1.47.26-1.47Z" class="K"/><path d="M222.11,179.82s.16,0,.21.29a17.87,17.87,0,0,0,.25,1.85,9.93,9.93,0,0,1,.17,2.93c-.12.62-1.56,1-2.48,1.37a11.75,11.75,0,0,0-3,1.84,8.72,8.72,0,0,1-4.42,1.6c-2.08,0-3.42-.58-3.82-1.33-.5-1-.09-1.46,2.3-2.54.46-.2,2.06-1.13,2.6-1.46a11.3,11.3,0,0,0,1.64-1.2,8.16,8.16,0,0,0,.74-.7,3.57,3.57,0,0,0,.61-.78.24.24,0,0,1,.08-.2,3.47,3.47,0,0,0,.16-.55.72.72,0,0,1,.26-.6,1.64,1.64,0,0,1,.85-.1,6,6,0,0,1,.95.14c.35.08.76.12,1,.45a1.76,1.76,0,0,1,.19.87v.42c0,.06,0,.16.06.15a1,1,0,0,0,.2-.31c0-.07.11-.32.18-.48a2.48,2.48,0,0,1,.3-.49,1.8,1.8,0,0,1,.39-.39c.13-.1.29-.15.41-.25a.94.94,0,0,0,.23-.53" class="I"/><path d="M211,186c3,.24,3.94,2.11,4.05,3.26a7.47,7.47,0,0,1-2.14.43c-2.08,0-3.5-.58-3.91-1.33s-.14-1.58,2-2.36" class="H"/><path d="M234.36,194.58a6.72,6.72,0,0,0,.81,3.19,2.08,2.08,0,0,0,2.42.85,3.17,3.17,0,0,0,2.46-2.12,7.72,7.72,0,0,0,.22-3.38Z" class="K"/><path d="M238.4,184.31c.39,0,.5,1.91.73,3.82s.86,2.86,1.08,4.56a5.31,5.31,0,0,1-.73,3.94c-.68,1.15-3,2.29-4.22.63-1-1.35-1-2.87-1-4.78a43.45,43.45,0,0,0-.12-4.84c-.09-1.43-.4-2.86-.06-3a5.28,5.28,0,0,0,.09.68,2.53,2.53,0,0,0,.12.77c0,.1.13.22.16,0a.73.73,0,0,0,0-.36c-.05-.53.21-.57.36-.62.61-.12,1.22-.2,1.84-.26.3,0,1.35-.06,1.48.11a1.06,1.06,0,0,1,.13.55c0,.29.11.51.11.41v-1.66" class="I"/><path d="M240.32,193.86a4.68,4.68,0,0,1-.74,2.91c-.67,1.16-3.23,2.3-4.41.64a5.53,5.53,0,0,1-.82-2.8c.71-1.28,4.86-1.84,6-.75" class="H"/><path d="M238.66,188a.14.14,0,0,0,.11-.09.15.15,0,0,0-.08-.19,5.33,5.33,0,0,0-3.92.37.14.14,0,0,0-.06.19h0a.15.15,0,0,0,.2,0,5.21,5.21,0,0,1,3.68-.34h.07" class="O"/><path d="M233.45 124.71c1.79 3.25 3.11 5.9 3.29 15.57l.45 15.45c.04 1.13.71 3.24 1.31 9a78.66 78.66 0 0 1 0 12.47s-.57 1-2.77 1.24a4.51 4.51 0 0 1-3-.59l-3.55-14.63c-.78-3.46-3.25-16.74-3.25-16.74l-1.28 9.2a28.88 28.88 0 0 1 0 8.2c-.62 5-1.71 10.19-1.71 10.19a9.12 9.12 0 0 1-3.1.51 5.36 5.36 0 0 1-2.74-.71s-1.71-15-1.71-20.68.48-20 2.28-28.42z" class="J"/><path d="M236.68 160.19l-.2-1a75.61 75.61 0 0 1-.8-12.49v-4.19c0-5.73-.5-12.2-3.41-16.35l-.23.16c2 2.79 2.78 6.69 3.12 10.65-2.86-.38-3.52-3.24-4.38-7.16l-.37-1.66-.28.05.37 1.66c.86 3.93 1.54 7 4.68 7.41.14 1.75.19 3.53.21 5.25v4.18a75.26 75.26 0 0 0 .81 12.55l.2 1a57.94 57.94 0 0 1 1.31 17.66 2 2 0 0 0 .31-.2 58.23 58.23 0 0 0-1.34-17.51M218.21 133c.4 1.91 3.43 3.49 4.78 3.82l.34 1.91-.22 3.22c-.42 6.14-.85 12.49-.54 13.92.83 3.76.59 6.16.14 10.5 0 .44-.09.91-.14 1.4l-.71 6.57.29-.07.7-6.47.15-1.4c.44-4.36.69-6.77-.15-10.59-.3-1.39.15-8 .55-13.83 0-.71.09-1.4.14-2.08l1.22 6.8-.17 9 1.33-9.22-1.82-11s-3.82-.27-5.93-2.49" class="I"/><use xlink:href="#DV" class="C"/><g clip-path="url(#Bi)"><g class="Q"><use xlink:href="#DV"/></g></g><path d="M229.83,105.15c0-1.12,1.65-2.86,2.65-5.2s.68-4.11-.36-4.71c0-1.34-.54-4.38-6.43-4.95-5-.48-6.86,1.47-7.34,2.87a2.66,2.66,0,0,0,.69,3s-1.26.64-.56,2.39,2.86,1.21,2.86,1.21Z" class="K"/><path d="M229.8 107l.08-3.68c0 .23 1.15.85 2.14-.34a2.6 2.6 0 0 0 .46-3.24 1.4 1.4 0 0 0-2.56.63c-.86 0-1.27-.4-1-1.82-.09-1-1.21-1.28-1.18-3.43-2.87-1.91-5.68-1.73-7.4-.24a16.85 16.85 0 0 0-.68 5.42c.12 3.26 1 4.83 2 5.38a4.12 4.12 0 0 0 2.56.35l-.05 1c0 .52 0 1-.46 1.15a3.91 3.91 0 0 0 1 4.35 11.72 11.72 0 0 0 6.06-4.28c-.84-.27-1-.65-1-1.27" fill="#ffbda6"/><path d="M225.34 102.18l-1.91.62a1 1 0 0 0 1.15.72h.11a1.07 1.07 0 0 0 .67-1.31" fill="#c66668"/><path d="M225.22,102.61a1.13,1.13,0,0,0-1.12.87.92.92,0,0,0,.57,0,1,1,0,0,0,.69-.84h-.14" fill="#ff9979"/><path d="M237.34,136.92c.95.27,2.11-.88,2.43-1.29s-.09-1.34-.29-2.14,0-2.16-1-1.78-3.08,3.06-1.15,5.21" fill="#ff8f8f"/><path d="M234.24 109.31c3 .63 3.3.53 4.72 3.39 1.64 3.31 4 8.71 4.58 10s1.15 2.18-.43 4.13l-6.21 7.45c-.62.72.07 2.49 1.91 2.22 0 0-1.43 1.26-2.22 1.13s-1.74-.71-2.73-2.78c-.62-1.3-.1-2.32.84-3.77 1.12-1.72 3.56-6.54 3.56-6.54l-4.44-8.54s-1.8-4.4.39-6.68" class="R"/><path d="M233.84 108.94a15.79 15.79 0 0 1 2.87.77c.63.27 1.13.51 2.09 2.3l4.17 8.28c.35.72 1.14 1.55 1.17 2.11a.67.67 0 0 1-.4.71l-.2-.43a2.87 2.87 0 0 0-2.73 0 5.8 5.8 0 0 0-2.52 1.86l-.24.48a.69.69 0 0 1-.78-.62.25.25 0 0 1 0-.08 7.07 7.07 0 0 0-1.09-2.8l-2.64-5.22c-.5-.99-1.82-4.84.31-7.34" class="C"/><path d="M238.29,124.52l-.24.49a8.63,8.63,0,0,1,4-1.38c1.73-.14,2,.54,2,.54a2.54,2.54,0,0,0-.56-1.49c-1-1-4-.28-5.25,1.84" class="I"/><path d="M198.47,186.64h0a.58.58,0,0,1-.53-.63h0l.27-3.33a.59.59,0,0,1,.62-.53h0a.59.59,0,0,1,.54.62l-.28,3.33a.58.58,0,0,1-.62.54"/><g class="C"><path d="M194.7,172l9.62.63c-.15,1.91-2.59,8.66-4.23,10.55a1,1,0,0,1-.37.24,2.14,2.14,0,0,1-1.91-.13,1,1,0,0,1-.27-.28h0c-1.38-2.09-2.93-9.1-2.8-11"/><path d="M195.38,172.18h.72a3.52,3.52,0,0,1,.72-.49,6,6,0,0,1,5.42.37,2.5,2.5,0,0,1,.64.57l.73.05-.4,1.31h0a2.14,2.14,0,0,1-1.18,1.2,6,6,0,0,1-5.41-.36,2,2,0,0,1-1-1.35h0Z"/><use xlink:href="#DW"/></g><g clip-path="url(#Bj)" class="D"><g class="S"><use xlink:href="#DW"/></g></g><g class="C"><path d="M202.94,172a7.5,7.5,0,0,1-6.79-.44,2.11,2.11,0,0,1,.26-4,7.5,7.5,0,0,1,6.79.44,2.11,2.11,0,0,1-.26,4"/><use xlink:href="#DX"/></g><g clip-path="url(#Bk)" class="D"><g class="S"><use xlink:href="#DX"/></g></g><path d="M199.79 96.63a4.68 4.68 0 0 1 9.35.61h0a2.32 2.32 0 0 1-1.49 1.82 7.31 7.31 0 0 1-6.61-.44 2.31 2.31 0 0 1-1.25-1.99z" class="C"/><path d="M203.22 91.26a1.65 1.65 0 0 1 1.78-1.55h0a1.66 1.66 0 0 1 1.56 1.76h0l-.2 2.92a.84.84 0 0 1-.53.65 2.63 2.63 0 0 1-2.35-.15.85.85 0 0 1-.44-.72l.2-2.92" class="J"/><path d="M203.46,94.9a.85.85,0,0,1-.44-.72l.2-2.92h0a1.66,1.66,0,0,1,.88-1.36c-.39.28-.52,2.33-.59,3.26s.21,1.57,1.58,1.73c.95.1,1.21-.4,1.26-.67v.18a.84.84,0,0,1-.53.65,2.63,2.63,0,0,1-2.35-.15" class="I"/><use xlink:href="#DY" class="C"/><g clip-path="url(#Bl)"><g class="S"><use xlink:href="#DY"/></g></g><g clip-path="url(#Bm)"><g class="S"><path d="M199.42 163.39l1.99.11.01-.35-1.98-.12-.02.36z"/></g></g><use xlink:href="#DZ" class="C"/><g clip-path="url(#Bn)"><g opacity=".2"><use xlink:href="#DZ"/></g></g><path d="M218.68,64.5a1.91,1.91,0,0,1,.88-1.52l.7-.41a1.93,1.93,0,0,1,1.75,0l10.92,6.31a1.93,1.93,0,0,1,.88,1.52v12a1.91,1.91,0,0,1-.88,1.52l-.71.41a1.87,1.87,0,0,1-1.75,0l-3.51-2-1.25,2.16a.18.18,0,0,1-.24.09.18.18,0,0,1-.1-.09l-1.32-3.82-4.49-2.6a1.91,1.91,0,0,1-.88-1.52Z" class="C"/><g clip-path="url(#Bo)"><g opacity=".2"><path d="M233.81,82.4a1.91,1.91,0,0,1-.88,1.52l-.71.41a1.91,1.91,0,0,1-1.6.07c.41.16.72-.08.72-.57v-12a1.83,1.83,0,0,0-.26-.87l2.47-1.41a2,2,0,0,1,.26.86Z"/></g></g><g clip-path="url(#Bp)" class="D"><g class="F"><path d="M218.71,64.25c.1-.37.44-.49.85-.26l10.91,6.31a1.76,1.76,0,0,1,.61.66l2.47-1.42a1.76,1.76,0,0,0-.62-.65L222,62.58a1.89,1.89,0,0,0-1.76,0l-.7.41a1.86,1.86,0,0,0-.85,1.26"/></g></g><path d="M221.08 72.63l.95.67a.49.49 0 0 1 .13.2 7.88 7.88 0 0 0 .24.83.17.17 0 0 1 0 .21l-.54.46a.15.15 0 0 0 0 .2l.78 1.35a.17.17 0 0 0 .19.08l.68-.24a.19.19 0 0 1 .21.06l.58.62a.3.3 0 0 1 .12.22l.1 1.17a.28.28 0 0 0 .13.2l1.06.61s.11 0 .12-.06l.11-1a.11.11 0 0 1 .12-.11h0a3 3 0 0 0 .51.06.24.24 0 0 1 .2.09l.78 1.18a.17.17 0 0 0 .19 0l.68-.4a.16.16 0 0 0 .06-.19l-.63-1.26a.24.24 0 0 1 0-.23 2.4 2.4 0 0 0 .21-.46.09.09 0 0 1 .12-.08h0l1 .42c.07 0 .12 0 .12-.08v-1.23a.29.29 0 0 0-.11-.21l-.95-.68a.34.34 0 0 1-.14-.21 6.21 6.21 0 0 0-.24-.81.19.19 0 0 1 0-.21l.55-.47a.18.18 0 0 0 0-.2l-.78-1.34a.16.16 0 0 0-.19-.08l-.67.24a.2.2 0 0 1-.21-.06 5.76 5.76 0 0 0-.59-.62.39.39 0 0 1-.11-.22l-.11-1.18a.32.32 0 0 0-.12-.2l-1.06-.61c-.07 0-.13 0-.13.07l-.1 1a.12.12 0 0 1-.14.11h0a2.22 2.22 0 0 0-.51-.06.25.25 0 0 1-.21-.1l-.78-1.18a.13.13 0 0 0-.18 0l-.69.39a.13.13 0 0 0 0 .18l.62 1.27a.24.24 0 0 1 0 .23 2.11 2.11 0 0 0-.21.46.13.13 0 0 1-.14.09h0l-1-.42c-.07 0-.12 0-.12.07v1.23a.3.3 0 0 0 .1.21m2.25.53c0-1.15.8-1.6 1.78-1a3.94 3.94 0 0 1 1.89 3.07c0 1.14-.79 1.61-1.79 1a3.94 3.94 0 0 1-1.78-3.09" class="H"/></g></g></svg>