<svg xmlns="http://www.w3.org/2000/svg" xmlns:svgjs="http://svgjs.com/svgjs" xmlns:xlink="http://www.w3.org/1999/xlink" id="SvgjsSvg1001" width="288" height="288" version="1.1"><g id="SvgjsG1008" transform="matrix(1,0,0,1,0,0)"><svg xmlns="http://www.w3.org/2000/svg" width="288" height="288" data-name="Layer 1" viewBox="0 0 301.58 301.58"><g fill="#000" class="color000 svgShape" data-name="Layer 2"><circle cx="150.79" cy="150.79" r="150.79" fill="#fff" class="colorfff svgShape" data-name="Layer 1-2"/></g><g fill="#000" class="color000 svgShape" data-name="Layer 2-2"><g fill="#000" class="color000 svgShape" data-name="layer 1-2-2"><rect width="108.98" height="108.98" x="96.3" y="96.29" fill="#0bd1d2" class="colora3d4ff svgShape" rx="5.18"/><path fill="#fff" d="M101.49,96.29H194.9V191a3.88,3.88,0,0,1-3.87,3.89H96.3V101.48A5.19,5.19,0,0,1,101.49,96.29Z" class="colorfff svgShape"/><path fill="#24b2c0" d="M200.09,207.22h-98.6a7.15,7.15,0,0,1-7.16-7.13V101.48a7.15,7.15,0,0,1,7.15-7.15h98.61a7.15,7.15,0,0,1,7.15,7.15h0v98.61A7.15,7.15,0,0,1,200.09,207.22Zm-98.6-109a3.24,3.24,0,0,0-3.24,3.24v98.61a3.24,3.24,0,0,0,3.24,3.24h98.6a3.24,3.24,0,0,0,3.24-3.24V101.48a3.24,3.24,0,0,0-3.24-3.24Z" class="color2b5185 svgShape"/><rect width="62.28" height="62.28" x="119.66" y="119.65" fill="#0bd1d2" class="colora3d4ff svgShape" rx="2.6"/><path fill="#fff" d="M122.25,119.66h49.3v49.27a2.6,2.6,0,0,1-2.6,2.6H119.67v-49.3A2.58,2.58,0,0,1,122.25,119.66Z" class="colorfff svgShape"/><path fill="#24b2c0" d="M179.32 183.86H122.25a4.52 4.52 0 01-4.54-4.5V122.24a4.56 4.56 0 014.54-4.54h57.07a4.56 4.56 0 014.54 4.54v57.08a4.52 4.52 0 01-4.5 4.54h0zm-57.08-62.27a.65.65 0 00-.65.65h0v57.08a.65.65 0 00.65.65h57.08a.65.65 0 00.65-.65h0V122.24a.65.65 0 00-.65-.65H122.24zM96.3 152.75H70a1.95 1.95 0 01-.26-3.89H96.3a1.95 1.95 0 010 3.89z" class="color2b5185 svgShape"/><circle cx="70.2" cy="150.79" r="4.38" fill="#24b2c0" class="color2b5185 svgShape"/><path fill="#24b2c0" d="M231.59,152.75H205.28a1.93,1.93,0,0,1-1.94-1.94,2,2,0,0,1,1.94-1.95h26.31a1.95,1.95,0,1,1,.26,3.89h-.26Z" class="color2b5185 svgShape"/><path fill="#24b2c0" d="M231.38 146.39a4.4 4.4 0 11-4.38 4.42v0h0a4.39 4.39 0 014.38-4.4zM96.3 134.57H70a2 2 0 010-3.9H96.3a2 2 0 11.27 3.9z" class="color2b5185 svgShape"/><path fill="#24b2c0" d="M70.2 137a4.38 4.38 0 114.38-4.38h0A4.38 4.38 0 0170.2 137zM231.59 134.57H205.28a2 2 0 11-.27-3.9h26.58a1.94 1.94 0 011.81 2.08A2 2 0 01231.59 134.57z" class="color2b5185 svgShape"/><path fill="#24b2c0" d="M231.38 128.24a4.38 4.38 0 11-4.38 4.38h0A4.38 4.38 0 01231.38 128.24zM96.3 116.4H70a1.95 1.95 0 01-.26-3.89H96.3a1.95 1.95 0 110 3.89z" class="color2b5185 svgShape"/><path fill="#24b2c0" d="M70.2 118.88a4.39 4.39 0 114.38-4.4h0a4.38 4.38 0 01-4.38 4.4zM231.59 116.4H205.28a1.95 1.95 0 110-3.89h26.31a1.95 1.95 0 11.26 3.89z" class="color2b5185 svgShape"/><path fill="#24b2c0" d="M231.38 110.07a4.39 4.39 0 11-4.38 4.4h0a4.38 4.38 0 014.36-4.4zM96.3 189.06H70a2 2 0 01-.26-3.9H96.3a2 2 0 010 3.9z" class="color2b5185 svgShape"/><path fill="#24b2c0" d="M70.2 191.49a4.39 4.39 0 114.38-4.4h0a4.38 4.38 0 01-4.36 4.4zM231.59 189.06H205.28a2 2 0 010-3.9h26.31a2 2 0 11.26 3.9z" class="color2b5185 svgShape"/><path fill="#24b2c0" d="M231.38 182.72a4.39 4.39 0 11-4.38 4.4h0a4.38 4.38 0 014.38-4.4zM96.3 170.9H70a2 2 0 010-3.9H96.3a2 2 0 11.27 3.9z" class="color2b5185 svgShape"/><path fill="#24b2c0" d="M70.2 173.33a4.39 4.39 0 114.38-4.4h0a4.38 4.38 0 01-4.38 4.4zM231.59 170.9H205.28A2 2 0 11205 167h26.58a1.94 1.94 0 011.81 2.08A2 2 0 01231.59 170.9z" class="color2b5185 svgShape"/><path fill="#24b2c0" d="M231.38 164.56A4.39 4.39 0 11227 169v0h0A4.38 4.38 0 01231.38 164.56zM150.79 233.52a1.92 1.92 0 01-1.94-1.92h0V205.27a1.95 1.95 0 013.89 0v26.31a1.89 1.89 0 01-1.84 1.94h-.11z" class="color2b5185 svgShape"/><path fill="#24b2c0" d="M155.18 231.37a4.4 4.4 0 11-4.42-4.38h0A4.4 4.4 0 01155.18 231.37zM150.79 98.24a1.94 1.94 0 01-1.94-1.95V70a1.95 1.95 0 013.89-.26 1.13 1.13 0 010 .26V96.29A2 2 0 01150.79 98.24z" class="color2b5185 svgShape"/><circle cx="150.79" cy="70.19" r="4.38" fill="#24b2c0" class="color2b5185 svgShape"/><path fill="#24b2c0" d="M132.63,233.52a1.94,1.94,0,0,1-1.95-1.94V205.27a1.94,1.94,0,0,1,2.08-1.81,2,2,0,0,1,1.82,1.81v26.31A1.94,1.94,0,0,1,132.63,233.52Z" class="color2b5185 svgShape"/><path fill="#24b2c0" d="M137 231.37a4.38 4.38 0 11-4.38-4.38h0A4.38 4.38 0 01137 231.37zM132.63 98.24a2 2 0 01-1.95-1.95V70a1.94 1.94 0 012.08-1.81A2 2 0 01134.58 70h0V96.29A2 2 0 01132.63 98.24z" class="color2b5185 svgShape"/><circle cx="132.63" cy="70.19" r="4.38" fill="#24b2c0" class="color2b5185 svgShape"/><path fill="#24b2c0" d="M114.46,233.52a1.87,1.87,0,0,1-1.94-1.83v-.05h0V205.27a1.95,1.95,0,1,1,3.89,0v26.31a1.89,1.89,0,0,1-1.83,1.94h-.12Z" class="color2b5185 svgShape"/><path fill="#24b2c0" d="M118.88 231.37a4.39 4.39 0 11-4.4-4.38h0A4.4 4.4 0 01118.88 231.37zM114.46 98.24a1.89 1.89 0 01-1.95-1.82v-.07h0V70a1.95 1.95 0 013.89-.26 1.13 1.13 0 010 .26V96.29a2 2 0 01-1.93 1.95z" class="color2b5185 svgShape"/><circle cx="114.47" cy="70.19" r="4.38" fill="#24b2c0" class="color2b5185 svgShape"/><path fill="#24b2c0" d="M187.12,233.52a1.89,1.89,0,0,1-2-1.83V205.27a1.95,1.95,0,0,1,3.89,0v26.31a1.87,1.87,0,0,1-1.83,1.94h-.11Z" class="color2b5185 svgShape"/><path fill="#24b2c0" d="M191.5 231.37a4.39 4.39 0 11-4.4-4.38h0a4.38 4.38 0 014.4 4.36zM187.12 98.24a2 2 0 01-2-1.89h0V70a1.95 1.95 0 013.89-.26V96.29a1.88 1.88 0 01-1.83 1.95h-.11z" class="color2b5185 svgShape"/><circle cx="187.12" cy="70.19" r="4.38" fill="#24b2c0" class="color2b5185 svgShape"/><path fill="#24b2c0" d="M168.93,233.52a1.94,1.94,0,0,1-1.94-1.94V205.27a1.94,1.94,0,0,1,2.08-1.81,2,2,0,0,1,1.82,1.81v26.31A2,2,0,0,1,168.93,233.52Z" class="color2b5185 svgShape"/><path fill="#24b2c0" d="M173.33 231.37A4.38 4.38 0 11169 227h0A4.38 4.38 0 01173.33 231.37zM168.93 98.24A2 2 0 01167 96.29V70a2 2 0 013.9 0h0V96.29a2 2 0 01-2 1.95z" class="color2b5185 svgShape"/><circle cx="168.96" cy="70.19" r="4.38" fill="#24b2c0" class="color2b5185 svgShape"/><path fill="#24b2c0" d="M106.68 190.32a1.93 1.93 0 01-2-1.91v-28a1.95 1.95 0 113.89-.26h0a1.13 1.13 0 010 .26v28A2 2 0 01106.68 190.32zM106.68 152a2 2 0 01-1.94-1.89v-5.76a1.95 1.95 0 113.89 0V150A2 2 0 01106.68 152zM194.9 137.89a1.94 1.94 0 01-1.94-1.95V113.16a1.93 1.93 0 011.94-1.94 2 2 0 011.95 1.94v22.72a1.9 1.9 0 01-1.75 2h-.2zM194.9 154a2 2 0 01-1.94-1.94v-5.81a1.94 1.94 0 011.81-2.08 2 2 0 012.08 1.81h0v6a1.89 1.89 0 01-1.73 2h-.22zM215.66 77.48a1.9 1.9 0 01-1.37-.57l-7.79-7.79a1.94 1.94 0 112.75-2.74L217 74.17a2 2 0 01-1.38 3.31z" class="color2b5185 svgShape"/><path fill="#24b2c0" d="M207.88 77.48a1.94 1.94 0 01-1.38-3.31l7.76-7.79A1.94 1.94 0 01217 69.12l-7.78 7.79A2 2 0 01207.88 77.48zM233.83 98.24a1.88 1.88 0 01-1.38-.57l-7.8-7.79a1.94 1.94 0 112.74-2.75l7.79 7.78a1.94 1.94 0 010 2.75h0A1.93 1.93 0 01233.83 98.24z" class="color2b5185 svgShape"/><path fill="#24b2c0" d="M226 98.24a1.9 1.9 0 01-1.37-.57 1.93 1.93 0 010-2.75h0l7.78-7.78a1.95 1.95 0 012.75 2.75l-7.8 7.79A1.89 1.89 0 01226 98.24zM218.24 225.37a1.88 1.88 0 01-1.36-.56L209.09 217a1.95 1.95 0 012.75-2.75l7.78 7.78a2 2 0 010 2.76 1.87 1.87 0 01-1.36.55z" class="color2b5185 svgShape"/><path fill="#24b2c0" d="M210.48 225.37a1.94 1.94 0 01-1.89-2 2 2 0 01.56-1.35l7.79-7.78a1.94 1.94 0 012.74 2.75l-7.78 7.78A1.88 1.88 0 01210.48 225.37zM98.9 235.75a1.87 1.87 0 01-1.38-.56l-7.78-7.79a1.94 1.94 0 112.75-2.74l7.79 7.78a1.94 1.94 0 010 2.75A1.87 1.87 0 0198.9 235.75z" class="color2b5185 svgShape"/><path fill="#24b2c0" d="M91.12 235.75a1.87 1.87 0 01-1.38-.56 1.89 1.89 0 01-.08-2.67l.08-.08 7.78-7.79a1.95 1.95 0 012.76 2.74l-7.79 7.79A1.87 1.87 0 0191.12 235.75zM75.55 215a1.89 1.89 0 01-1.37-.58l-7.79-7.78a2 2 0 112.74-2.78h0l7.78 7.79a2 2 0 010 2.77 2 2 0 01-1.34.56z" class="color2b5185 svgShape"/><path fill="#24b2c0" d="M67.78 215a2 2 0 01-1.89-2 2 2 0 01.56-1.36l7.75-7.81a2 2 0 012.74 2.76l-7.78 7.78A1.89 1.89 0 0167.78 215zM96.3 85.26a2.1 2.1 0 01-1.38-.56l-7.78-7.79a2 2 0 010-2.77 1.94 1.94 0 012.75 0h0l7.79 7.78a2 2 0 010 2.78A2.06 2.06 0 0196.3 85.26z" class="color2b5185 svgShape"/><path fill="#24b2c0" d="M88.52,85.26a2,2,0,0,1-1.38-.56,2,2,0,0,1,0-2.78l7.78-7.78a1.94,1.94,0,0,1,2.75,0h0a2,2,0,0,1,0,2.77L89.89,84.7A2.05,2.05,0,0,1,88.52,85.26Z" class="color2b5185 svgShape"/></g></g></svg></g></svg>