<svg xmlns="http://www.w3.org/2000/svg" xmlns:xlink="http://www.w3.org/1999/xlink" viewBox="0 0 288 288" xmlns:v="https://vecta.io/nano"><style><![CDATA[.B{fill:none}.C{fill:#fff}.D{fill:#24b2c0}.E{fill:#375a64}.F{opacity:.1}.G{clip-path:url(#A)}.H{opacity:.2}.I{opacity:.3}.J{fill:#2b454e}.K{opacity:.6}.L{opacity:.4}.M{fill:#e0e0e0}.N{opacity:.08}.O{opacity:.15}.P{opacity:.25}.Q{opacity:.06}.R{opacity:.02}.S{opacity:.03}.T{fill:#d37171}.U{fill:#ffa9a7}.V{fill:#1a2e35}.W{clip-path:url(#C)}.X{clip-path:url(#F)}.Y{clip-path:url(#I)}.Z{clip-path:url(#L)}.a{clip-path:url(#c)}.b{clip-path:url(#d)}.c{clip-path:url(#AL)}.d{clip-path:url(#AY)}.e{clip-path:url(#Ad)}.f{clip-path:url(#BM)}]]></style><defs><clipPath id="A"><path d="M22.73 20.48h242.54v242.54H22.73z" class="B"/></clipPath><clipPath id="B"><path d="M190.95 141.19h23.81v26.14h-23.81z" class="B"/></clipPath><clipPath id="C"><path d="M216.69 140.42h23.02v30.34h-23.02z" class="B"/></clipPath><clipPath id="D"><path d="M189.01 124.4h50.72v29.37h-50.72z" class="B"/></clipPath><clipPath id="E"><path d="M190.95 121.51h23.81v26.14h-23.81z" class="B"/></clipPath><clipPath id="F"><path d="M216.69 120.74h23.02v30.34h-23.02z" class="B"/></clipPath><clipPath id="G"><path d="M189.01 104.72h50.72v29.37h-50.72z" class="B"/></clipPath><clipPath id="H"><path d="M190.95 101.83h23.81v26.14h-23.81z" class="B"/></clipPath><clipPath id="I"><path d="M216.69 101.05h23.02v30.34h-23.02z" class="B"/></clipPath><clipPath id="J"><path d="M189.01 85.04h50.72v29.37h-50.72z" class="B"/></clipPath><clipPath id="K"><path d="M190.95 82.15h23.81v26.14h-23.81z" class="B"/></clipPath><clipPath id="L"><path d="M216.69 81.37h23.02v30.34h-23.02z" class="B"/></clipPath><clipPath id="M"><path d="M189.01 65.36h50.72v29.37h-50.72z" class="B"/></clipPath><clipPath id="N"><path d="M193.8 86.64h7.16v8.99h-7.16z" class="B"/></clipPath><clipPath id="O"><path d="M192.85 87.62h6.44v8.28h-6.44z" class="B"/></clipPath><clipPath id="P"><path d="M192.67 89.05h5.1v6.41h-5.1z" class="B"/></clipPath><clipPath id="Q"><path d="M191.98 89.75h4.58v5.89h-4.58z" class="B"/></clipPath><clipPath id="R"><path d="M54.46 136.21h29.9v19.08h-29.9z" class="B"/></clipPath><clipPath id="S"><path d="M54.46 145.55h19.26v12.93H54.46z" class="B"/></clipPath><clipPath id="T"><path d="M54.46 115.16H91.6v36.12H54.46z" class="B"/></clipPath><clipPath id="U"><path d="M54.68 76.41h37.03v21.85H54.68z" class="B"/></clipPath><clipPath id="V"><path d="M54.54 97.46h1.8v11.47h-1.8z" class="B"/></clipPath><clipPath id="W"><path d="M54.54 76.41h37.61v32.61H54.54z" class="B"/></clipPath><clipPath id="X"><path d="M58.78 81.58h30.93v24.25H58.78z" class="B"/></clipPath><clipPath id="Y"><path d="M58.78 98.85h9.5v6.98h-9.5z" class="B"/></clipPath><clipPath id="Z"><path d="M58.78 95.02h10.69v7.67H58.78z" class="B"/></clipPath><clipPath id="a"><path d="M58.78 95.34h4.76v4.24h-4.76z" class="B"/></clipPath><clipPath id="b"><path d="M84.62 85.43h1.94v2.87h-1.94z" class="B"/></clipPath><clipPath id="c"><path d="M85.45 81.58h4.26v6.12h-4.26z" class="B"/></clipPath><clipPath id="d"><path d="M76.3 86.86h4.26v6.12H76.3z" class="B"/></clipPath><clipPath id="e"><path d="M81.48 82.22h7.45v9.93h-7.45z" class="B"/></clipPath><clipPath id="f"><path d="M75.47 90.71h1.94v2.87h-1.94z" class="B"/></clipPath><clipPath id="g"><path d="M72.33 87.5h7.45v9.93h-7.45z" class="B"/></clipPath><clipPath id="h"><path d="M54.51 98.3h37.05v31.53H54.51z" class="B"/></clipPath><clipPath id="i"><path d="M54.51 114.98h3.36v4.98h-3.36z" class="B"/></clipPath><clipPath id="j"><path d="M54.52 119.92h3.36v4.98h-3.36z" class="B"/></clipPath><clipPath id="k"><path d="M54.54 124.84h3.36v4.98h-3.36z" class="B"/></clipPath><clipPath id="l"><path d="M59.19 112.54h21.42v14.1H59.19z" class="B"/></clipPath><clipPath id="m"><path d="M59.2 101.28h32.36v20.43H59.2z" class="B"/></clipPath><clipPath id="n"><path d="M59.2 98.3h28.98v18.56H59.2z" class="B"/></clipPath><clipPath id="o"><path d="M90.09 143h107.82v62.46H90.09z" class="B"/></clipPath><clipPath id="p"><path d="M83.62 135.5h60.19v38.71H83.62z" class="B"/></clipPath><clipPath id="q"><path d="M143.8 135.5h60.58v38.74H143.8z" class="B"/></clipPath><clipPath id="r"><path d="M68.13 170.47h76.07v55.13H68.13z" class="B"/></clipPath><clipPath id="s"><path d="M144.2 170.47h75.68v55.13H144.2z" class="B"/></clipPath><clipPath id="t"><path d="M83.43 61.33h60.58v47.34H83.43z" class="B"/></clipPath><clipPath id="u"><path d="M83.43 86.05h60.58v47.34H83.43z" class="B"/></clipPath><clipPath id="v"><path d="M83.43 73.69h60.58v47.34H83.43z" class="B"/></clipPath><clipPath id="w"><path d="M83.43 98.41h60.58v47.34H83.43z" class="B"/></clipPath><clipPath id="x"><path d="M83.43 110.78h60.58v47.34H83.43z" class="B"/></clipPath><clipPath id="y"><path d="M83.43 123.13h60.58v47.34H83.43z" class="B"/></clipPath><clipPath id="z"><path d="M83.43 48.96h60.58V96.3H83.43z" class="B"/></clipPath><clipPath id="AA"><path d="M83.43 26.35h60.58v45.23H83.43z" class="B"/></clipPath><clipPath id="AB"><path d="M83.43 36.6h60.58v47.34H83.43z" class="B"/></clipPath><clipPath id="AC"><path d="M143.8 61.33h60.58v47.34H143.8z" class="B"/></clipPath><clipPath id="AD"><path d="M143.8 86.05h60.58v47.34H143.8z" class="B"/></clipPath><clipPath id="AE"><path d="M143.8 73.69h60.58v47.34H143.8z" class="B"/></clipPath><clipPath id="AF"><path d="M143.8 98.41h60.58v47.34H143.8z" class="B"/></clipPath><clipPath id="AG"><path d="M143.8 110.78h60.58v47.34H143.8z" class="B"/></clipPath><clipPath id="AH"><path d="M143.8 123.13h60.58v47.34H143.8z" class="B"/></clipPath><clipPath id="AI"><path d="M143.8 48.96h60.58V96.3H143.8z" class="B"/></clipPath><clipPath id="AJ"><path d="M143.8 26.35h60.58v45.23H143.8z" class="B"/></clipPath><clipPath id="AK"><path d="M143.8 36.6h60.58v47.34H143.8z" class="B"/></clipPath><clipPath id="AL"><path d="M110.27 66.94h66.85v107.21h-66.85z" class="B"/></clipPath><clipPath id="AM"><path d="M132.89 91.23h19.83v21.02h-19.83z" class="B"/></clipPath><clipPath id="AN"><path d="M147.35 94.65h5.19v8.86h-5.19z" class="B"/></clipPath><clipPath id="AO"><path d="M94.53 103.67h6.27v6.27h-6.27z" class="B"/></clipPath><clipPath id="AP"><path d="M113.6 87.97h10.24v10.24H113.6z" class="B"/></clipPath><clipPath id="AQ"><path d="M163.22 107.48h10.24v10.24h-10.24z" class="B"/></clipPath><clipPath id="AR"><path d="M187.13 123.18h6.27v6.27h-6.27z" class="B"/></clipPath><clipPath id="AS"><path d="M122.05 76.32h13.36v15.23h-13.36z" class="B"/></clipPath><clipPath id="AT"><path d="M131.58 152.99h8.66v22.16h-8.66z" class="B"/></clipPath><clipPath id="AU"><path d="M125.45 176.01h5.06v3h-5.06z" class="B"/></clipPath><clipPath id="AV"><path d="M132.82 150.9h4.31v5.88h-4.31z" class="B"/></clipPath><clipPath id="AW"><path d="M133.38 123.56h17v13.2h-17z" class="B"/></clipPath><clipPath id="AX"><path d="M133.38 120.01h15.85v9.19h-15.85z" class="B"/></clipPath><clipPath id="AY"><path d="M135.03 122.9h12.54v4.85h-12.54z" class="B"/></clipPath><clipPath id="AZ"><path d="M134.82 121.45h12.97v3.89h-12.97z" class="B"/></clipPath><clipPath id="Aa"><path d="M145.25 153.86h9.23v25.82h-9.23z" class="B"/></clipPath><clipPath id="Ab"><path d="M143.06 182.87h6.6v2.92h-6.6z" class="B"/></clipPath><clipPath id="Ac"><path d="M145.68 152.05h4.77v5.88h-4.77z" class="B"/></clipPath><clipPath id="Ad"><path d="M102.63 115.61h58.18v85.38h-58.18z" class="B"/></clipPath><clipPath id="Ae"><path d="M83.62 96.3h60.58v47.34H83.62z" class="B"/></clipPath><clipPath id="Af"><path d="M83.62 121.02h60.58v47.34H83.62z" class="B"/></clipPath><clipPath id="Ag"><path d="M83.62 108.67h60.58v47.34H83.62z" class="B"/></clipPath><clipPath id="Ah"><path d="M83.62 133.39h60.58v47.34H83.62z" class="B"/></clipPath><clipPath id="Ai"><path d="M83.62 145.75h60.58v47.34H83.62z" class="B"/></clipPath><clipPath id="Aj"><path d="M83.62 158.11h60.58v47.34H83.62z" class="B"/></clipPath><clipPath id="Ak"><path d="M83.62 83.94h60.58v47.34H83.62z" class="B"/></clipPath><clipPath id="Al"><path d="M83.62 35.32h60.58v71.23H83.62z" class="B"/></clipPath><clipPath id="Am"><path d="M83.62 71.58h60.58v47.34H83.62z" class="B"/></clipPath><clipPath id="An"><path d="M144.2 35.32h60.58v170.13H144.2z" class="B"/></clipPath><clipPath id="Ao"><path d="M144.2 96.3h60.58v47.34H144.2z" class="B"/></clipPath><clipPath id="Ap"><path d="M144.2 121.02h60.58v47.34H144.2z" class="B"/></clipPath><clipPath id="Aq"><path d="M144.2 108.67h60.58v47.34H144.2z" class="B"/></clipPath><clipPath id="Ar"><path d="M144.2 133.39h60.58v47.34H144.2z" class="B"/></clipPath><clipPath id="As"><path d="M144.2 145.75h60.58v47.34H144.2z" class="B"/></clipPath><clipPath id="At"><path d="M144.2 158.11h60.58v47.34H144.2z" class="B"/></clipPath><clipPath id="Au"><path d="M144.2 83.94h60.58v47.34H144.2z" class="B"/></clipPath><clipPath id="Av"><path d="M144.2 35.32h60.58v71.23H144.2z" class="B"/></clipPath><clipPath id="Aw"><path d="M144.2 71.58h60.58v47.34H144.2z" class="B"/></clipPath><clipPath id="Ax"><path d="M207.47 174.67h1.7v1.62h-1.7z" class="B"/></clipPath><clipPath id="Ay"><path d="M205.92 175.41h1.4v6.94h-1.4z" class="B"/></clipPath><clipPath id="Az"><path d="M204.18 164.96h3.99v9.15h-3.99z" class="B"/></clipPath><clipPath id="BA"><path d="M183.19 225.47h13.54v6.47h-13.54z" class="B"/></clipPath><clipPath id="BB"><path d="M183.19 229.02h13.54v2.92h-13.54z" class="B"/></clipPath><clipPath id="BC"><path d="M197.96 216.52h7.87v8.39h-7.87z" class="B"/></clipPath><clipPath id="BD"><path d="M197.96 217.54h7.87v7.37h-7.87z" class="B"/></clipPath><clipPath id="BE"><path d="M191.06 183.86h15.23v11.8h-15.23z" class="B"/></clipPath><clipPath id="BF"><path d="M198.88 188.43h5.27v10.67h-5.27z" class="B"/></clipPath><clipPath id="BG"><path d="M190.97 167.95h3.67v7.53h-3.67z" class="B"/></clipPath><clipPath id="BH"><path d="M185.8 162.52h7.6v9.27h-7.6z" class="B"/></clipPath><clipPath id="BI"><path d="M78.98 182.69h15.28v40.07H78.98z" class="B"/></clipPath><clipPath id="BJ"><path d="M82.3 189.88h3.87v6.48H82.3z" class="B"/></clipPath><clipPath id="BK"><path d="M78.98 182.69h14.88v12.89H78.98z" class="B"/></clipPath><clipPath id="BL"><path d="M88.95 165.07h4.57v11.31h-4.57z" class="B"/></clipPath><clipPath id="BM"><path d="M96.57 153.09h13.6v17.79h-13.6z" class="B"/></clipPath><clipPath id="BN"><path d="M99.3 170.98h1.72v2.86H99.3z" class="B"/></clipPath><path id="BO" d="M190.95 153.61l.02-12.42 23.78 13.72-.03 12.42-23.77-13.72z"/><path id="BP" d="M216.74 153.77l-.05 16.99 22.98-13.35.05-16.99-22.98 13.35z"/><path id="BQ" d="M190.95 114.24l.02-12.41 23.78 13.72-.03 12.42-23.77-13.73z"/><path id="BR" d="M216.74 114.41l-.05 16.98 22.98-13.35.05-16.98-22.98 13.35z"/><path id="BS" d="M190.95 94.56l.02-12.41 23.78 13.72-.03 12.41-23.77-13.72z"/><path id="BT" d="M199.28,93.59A7.07,7.07,0,0,0,196.07,88a2.31,2.31,0,0,0-2.27-.23,2.2,2.2,0,0,0-1,2.07,7,7,0,0,0,3.2,5.56,2.36,2.36,0,0,0,2.15.29h.05l.15-.09a2.29,2.29,0,0,0,.88-2"/><path id="BU" d="M197.76,93.32a5,5,0,0,0-2.28-3.95,1.63,1.63,0,0,0-1.61-.18h0l-1.2.69h0a1.62,1.62,0,0,1,1.62.16,5.08,5.08,0,0,1,2.29,4,1.68,1.68,0,0,1-.63,1.44l1.14-.65h0a1.64,1.64,0,0,0,.64-1.45"/><path id="BV" d="M196.57,94a5.08,5.08,0,0,0-2.29-4,1.61,1.61,0,0,0-1.61-.16,1.58,1.58,0,0,0-.69,1.48,5,5,0,0,0,2.29,4,1.69,1.69,0,0,0,1.53.21h0l.1-.06a1.66,1.66,0,0,0,.63-1.44"/><path id="BW" d="M81.1,120.33a3.05,3.05,0,0,0-.82.7A7.22,7.22,0,0,0,79,125l-.55,5.51a12.07,12.07,0,0,1-.5,2.87A5.67,5.67,0,0,1,76.24,136l-.29.19a1.7,1.7,0,0,1-1.86,0,5.08,5.08,0,0,1-1.23-1.71,4.17,4.17,0,0,0-1.64-1.86,2.36,2.36,0,0,0-2.27.19,2.29,2.29,0,0,0-.41.28c-1.55,1.18-2.47,3.52-3.18,5.54s-1.65,4.37-3.21,5.5a2.56,2.56,0,0,1-.33.21,2.62,2.62,0,0,1-3.06-.24c-.86-.66-1.55-1.62-2.62-1.91a2.71,2.71,0,0,0-1.68.23v8.85L91.6,129.88v-14.7a12.53,12.53,0,0,0-1.46,3.89c-.32,1.76-.24,3.68-1.43,5.24a3.66,3.66,0,0,1-1,1,2.07,2.07,0,0,1-1.51.3,2.46,2.46,0,0,1-1.5-1.68c-.41-1.08-.59-2.41-1.25-3.2a1.74,1.74,0,0,0-2.27-.29"/><path id="BX" d="M85.57,82.13l-.13.07v1.22l.13-.08c1.69-1,3.06-.19,3.07,1.75A6.1,6.1,0,0,1,88,87.57l.9.12a7.81,7.81,0,0,0,.77-3.21c0-2.61-1.85-3.66-4.12-2.35"/><path id="BY" d="M76.43,87.43l-.13.07v1.22l.14-.08c1.68-1,3-.19,3.06,1.75a5.79,5.79,0,0,1-.62,2.48l.9.12a7.81,7.81,0,0,0,.77-3.21c0-2.61-1.85-3.66-4.12-2.35"/><path id="BZ" d="M121.14 90.9l1.1.63.01-2.42-1.1-.64-.01 2.43z"/><path id="Ba" d="M135.34,110.89a4.09,4.09,0,0,1-1.91-2.4,11.36,11.36,0,0,1-.47-3.07,30.67,30.67,0,0,1,.23-7,13.68,13.68,0,0,1,1.54-4.39,5,5,0,0,1,3.32-2.42A17.17,17.17,0,0,1,151.15,94a3.6,3.6,0,0,1,1.53,2.8,18.12,18.12,0,0,1-5.81,14.58c-2.43,2.3-4.71-.23-5.59-2.35s-2-3.74-3.7-3.74-2.17,2.24-2.17,2.24Z"/><path id="Bb" d="M152.42,96.54a2.19,2.19,0,0,0-1.61-1.91,3.13,3.13,0,0,1,.49,1.14,7.17,7.17,0,0,1-2,6.18,2.44,2.44,0,0,1-2,.78c.71,1,1.91,1,3.11,0a7.17,7.17,0,0,0,2-6.18"/><path id="Bc" d="M94.53 106.8a3.15 3.15 0 0 0 3.14 3.2h0a3.15 3.15 0 0 0 3.14-3.14h0a3.14 3.14 0 0 0-6.28 0h0"/><path id="Bd" d="M173.45,112.6a5.11,5.11,0,0,1-5.11,5.11h0a5.11,5.11,0,0,1-5.11-5.11h0a5.12,5.12,0,1,1,10.23,0"/><path id="Be" d="M193.4,126.32a3.14,3.14,0,0,1-6.27,0h0a3.14,3.14,0,0,1,3.14-3.14h0a3.13,3.13,0,0,1,3.13,3.13h0"/><path id="Bf" d="M134.66,83.86h0a3.5,3.5,0,0,0-2.86,2.6l-.7,2.72a2.47,2.47,0,0,1-2,1.83l-3.19.51A2.42,2.42,0,0,1,123.27,90c-2.56-6.57-1.32-12.89,4.64-13.63s7.47,4,7.46,6.55a1,1,0,0,1-.76.91"/><path id="Bg" d="M140.24,173.21l-1.91-17.9a2.26,2.26,0,0,0-.73-1.43l-.95-.89-3.16.28-1.91,19.45.52-.69a1.06,1.06,0,0,1,1.12-.4l.29.07a2.6,2.6,0,0,1,1.65,1.25l.87,1.49a1.41,1.41,0,0,0,1.73.62h0a5.56,5.56,0,0,0,2.15-1.49Z"/><path id="Bh" d="M133.38,124.57c0,4,.76,12.07,8.21,12.19,4.89.09,7.18-2.57,8.16-4.4a5.35,5.35,0,0,0,.61-3,18.56,18.56,0,0,0-1.34-5.73Z"/><path id="Bi" d="M146.89,121.35c3.11,1.79,3.13,4.71,0,6.49a12.31,12.31,0,0,1-11.21,0c-3.1-1.78-3.12-4.7,0-6.49a12.37,12.37,0,0,1,11.21,0"/><path id="Bj" d="M136.45,126.59a10.89,10.89,0,0,0,9.76,0,3.79,3.79,0,0,0,1.37-1.27,3.86,3.86,0,0,0-1.4-1.29,10.18,10.18,0,0,0-4.9-1.14,10,10,0,0,0-4.87,1.14A3.8,3.8,0,0,0,135,125.3a3.6,3.6,0,0,0,1.42,1.29"/><path id="Bk" d="M147.19,153.86l-.87.51a2.14,2.14,0,0,0-1.07,1.91c0,3.19.07,12.15.54,22.66l.59-.87a3.52,3.52,0,0,0,.35-.7l.37-1a1.21,1.21,0,0,1,1.14-.8H149a1.2,1.2,0,0,1,1.15.85l.5,1.62a2.86,2.86,0,0,0,.45.95l.23.34a1.17,1.17,0,0,0,1.62.26,1.45,1.45,0,0,0,.22-.21l1.13-1.42a.81.81,0,0,0,.17-.62l-3.32-21.72a2.14,2.14,0,0,0-.69-1.28l-.31-.28Z"/><path id="Bl" d="M148.14,184.55c0-.23-.11-.46-.16-.69a.89.89,0,0,0-.67-.7,11.85,11.85,0,0,0-3.36-.27.88.88,0,0,0-.81.68,4.91,4.91,0,0,0-.07,1.08,1.28,1.28,0,0,0,.74.57l.8.23a9.21,9.21,0,0,0,3.58.27l1.45-.17h0c-.2,0-.39-.05-.59-.09a1.26,1.26,0,0,1-1-.91"/><path id="Bm" d="M146.62 149.13l1.1.64v-2.44l-1.1-.63v2.43z"/><path id="Bn" d="M204.78 145.75l-60.58 34.98v-12.36l60.58-34.98v12.36z"/><path id="Bo" d="M196.67,230.15a2.19,2.19,0,0,1-1.91,1.3,9.43,9.43,0,0,1-2.42-.35,30.1,30.1,0,0,0-5.37,0,7.48,7.48,0,0,1-1.76-.2,2.82,2.82,0,0,1-1.51-.89,1.88,1.88,0,0,1-.43-.95,1.89,1.89,0,0,0,.43,1.48,3,3,0,0,0,1.51.89,7.47,7.47,0,0,0,1.76.19,33.2,33.2,0,0,1,5.37,0,9.62,9.62,0,0,0,2.45.3,1.82,1.82,0,0,0,2-2.13,2.87,2.87,0,0,1-.05.31"/><path id="Bp" d="M196.62 228.61l-.34-1.65a2.45 2.45 0 0 0-.27-.83.81.81 0 0 0-.74-.42c-1-.14-2.39-.5-3.22.07a7.28 7.28 0 0 1-4.43 1.29 15.53 15.53 0 0 0-2.46-.1 2.19 2.19 0 0 0-1.91 1.33 1.75 1.75 0 0 0 0 .72 2 2 0 0 0 .43 1 2.87 2.87 0 0 0 1.51.88 7 7 0 0 0 1.76.2 34.38 34.38 0 0 1 5.37 0 9.21 9.21 0 0 0 2.45.32 2.17 2.17 0 0 0 1.91-1.3 1.57 1.57 0 0 0 0-.3 4 4 0 0 0-.1-1.2"/><path id="Bq" d="M205.82,222.92a1.56,1.56,0,0,1-.28.88,1.64,1.64,0,0,1-1,.57,2.6,2.6,0,0,1-2.52-1c-.27-.39-.43-.85-.67-1.25a5.82,5.82,0,0,0-1.42-1.38,6.28,6.28,0,0,1-1.42-1.35,2.06,2.06,0,0,1-.27-1.82,1.46,1.46,0,0,0-.16.19,2.07,2.07,0,0,0,.26,1.91,6.22,6.22,0,0,0,1.44,1.41,5.83,5.83,0,0,1,1.47,1.46c.26.41.42.89.7,1.29a2.58,2.58,0,0,0,2.56,1.06,1.65,1.65,0,0,0,1-.59,2,2,0,0,0,.3-1.23v-.13"/><path id="Br" d="M205.18,220.23a11.37,11.37,0,0,0-3-2.79,4,4,0,0,0-2-1,1.92,1.92,0,0,0-1.91,1v.05a2.06,2.06,0,0,0,.27,1.82,6.32,6.32,0,0,0,1.42,1.36,5.6,5.6,0,0,1,1.42,1.37c.25.4.4.86.68,1.25a2.56,2.56,0,0,0,2.53,1.13,1.64,1.64,0,0,0,1-.57,1.56,1.56,0,0,0,.28-.88v-.32a5,5,0,0,0-.65-2.38"/><path id="Bs" d="M93.36 183.14l.9 21.41-2.45 17.84c-1.3.83-3.31 0-3.31 0-.27-5.49-1.5-13.28-.5-17.39l-1.81-11.46-.6 9.24c-.1 5.42-1.5 11.2-1.76 14.67a3.06 3.06 0 0 1-2.64-.2c-.81-7.22-2.41-11.11-.88-16.24-1.07-9.71-2-15.73-.64-18.2z"/><path id="Bt" d="M110.17 158.04l-4.45 12.84-9.16-5.08 4.39-12.71 9.22 4.95z"/></defs><circle cx="144" cy="144" r="144" class="C"/><g class="G"><g class="G"><path d="M222.9,139.75c-43.87-25.33-114.77-25.33-158.35,0s-43.36,66.39.51,91.73,114.77,25.32,158.36,0,43.35-66.4-.52-91.68" fill="#f4f4f4"/></g><path d="M241.25 158.16l-29.41-16.99-24.37 14.17 29.41 16.98 24.37-14.16z" class="M"/><path d="M189 137.76l-.04 16.99 27.73 16.01.05-16.99L189 137.76z" class="E"/><use xlink:href="#BO" class="C"/><use xlink:href="#BO" class="E"/><g class="G C"><g clip-path="url(#B)"><g class="F"><use xlink:href="#BO"/></g></g></g><use xlink:href="#BP" class="E"/><g class="G"><g class="W"><g class="F"><use xlink:href="#BP"/></g><g class="C"><g class="F"><use xlink:href="#BP"/></g></g></g></g><path d="M239.72 140.42l-27.74-16.02L189 137.76l27.74 16.01 22.98-13.35z" class="E"/><g class="G C"><g clip-path="url(#D)"><g class="F"><path d="M239.72 140.42l-27.74-16.02L189 137.76l27.74 16.01 22.98-13.35z"/></g></g></g><path d="M205.92 152.08l1.51.87-.01 1.56-1.51-.87.01-1.56z" class="C"/><g class="D"><path d="M207.42 154.51l-.01 6.7-1.51-.87.01-6.7 1.51.87zm2.71 6.89l-.01 1.38-1.51-.87.02-1.38 1.5.87z"/></g><g class="C"><path d="M208.63 153.64l1.51.87-.01 6.89-1.5-.87v-6.89zm2.71 1.56l1.51.87-.01 2.23-1.5-.87v-2.23z"/></g><path d="M212.84 158.3l-.02 6.04-1.5-.87.02-6.04 1.5.87z" class="D"/><path d="M189 118.08l-.04 16.99 27.73 16.01.05-16.99L189 118.08z" class="E"/><path d="M190.95 133.93l.02-12.42 23.78 13.72-.03 12.42-23.77-13.72z" class="C"/><path d="M190.95 133.93l.02-12.42 23.78 13.72-.03 12.42-23.77-13.72z" class="E"/><g class="G C"><g clip-path="url(#E)"><g class="F"><path d="M190.95 133.93l.02-12.42 23.78 13.72-.03 12.42-23.77-13.72z"/></g></g></g><path d="M216.74 134.09l-.05 16.99 22.98-13.35.05-16.99-22.98 13.35z" class="E"/><g class="G"><g class="X"><g class="F"><path d="M216.74 134.09l-.05 16.99 22.98-13.35.05-16.99-22.98 13.35z"/></g><g class="C"><g class="F"><path d="M216.74 134.09l-.05 16.99 22.98-13.35.05-16.99-22.98 13.35z"/></g></g></g></g><path d="M239.72 120.74l-27.74-16.02L189 118.08l27.74 16.01 22.98-13.35z" class="E"/><g class="G C"><g clip-path="url(#G)"><g class="F"><path d="M239.72 120.74l-27.74-16.02L189 118.08l27.74 16.01 22.98-13.35z"/></g></g></g><path d="M205.92 132.39l1.51.88-.01 5.95-1.51-.87.01-5.96z" class="C"/><g class="D"><path d="M207.42 139.22l-.01 2.31-1.51-.87.01-2.31 1.51.87zm2.71.3l-.01 3.57-1.51-.87.02-3.57 1.5.87z"/></g><g class="C"><path d="M208.63 133.96l1.51.87-.01 4.69-1.5-.87v-4.69zm2.71 1.56l1.51.87-.01 4.92-1.5-.87v-4.92z"/></g><path d="M212.84 141.31l-.02 3.35-1.5-.87.02-3.35 1.5.87z" class="D"/><path d="M189 98.4l-.04 16.99 27.73 16 .05-16.98L189 98.4z" class="E"/><use xlink:href="#BQ" class="C"/><use xlink:href="#BQ" class="E"/><g class="G C"><g clip-path="url(#H)"><g class="F"><use xlink:href="#BQ"/></g></g></g><use xlink:href="#BR" class="E"/><g class="G"><g class="Y"><g class="F"><use xlink:href="#BR"/></g><g class="C"><g class="F"><use xlink:href="#BR"/></g></g></g></g><path d="M239.72 101.06l-27.74-16.02L189 98.4l27.74 16.01 22.98-13.35z" class="E"/><g class="G C"><g clip-path="url(#J)"><g class="F"><path d="M239.72 101.06l-27.74-16.02L189 98.4l27.74 16.01 22.98-13.35z"/></g></g></g><path d="M205.92 112.72l1.51.86-.01 2.07-1.51-.87.01-2.06z" class="C"/><g class="D"><path d="M207.42 115.65l-.01 6.19-1.51-.86.01-6.2 1.51.87zm2.71 4.9l-.01 2.86-1.51-.87.02-2.86 1.5.87z"/></g><g class="C"><path d="M208.63 114.28l1.51.87-.01 5.4-1.5-.87v-5.4zm2.71 1.56l1.51.87-.01 3.9-1.5-.87v-3.9z"/></g><path d="M212.84 120.61l-.02 4.37-1.5-.87.02-4.37 1.5.87z" class="D"/><path d="M189 78.72l-.04 16.99 27.73 16 .05-16.99-27.74-16z" class="E"/><use xlink:href="#BS" class="C"/><use xlink:href="#BS" class="E"/><g class="G C"><g clip-path="url(#K)"><g class="F"><use xlink:href="#BS"/></g></g></g><path d="M216.74 94.72l-.05 16.99 22.98-13.35.05-16.99-22.98 13.35z" class="E"/><g class="G"><g class="Z"><g class="F"><path d="M216.74 94.72l-.05 16.99 22.98-13.35.05-16.99-22.98 13.35z"/></g><g class="C"><g class="F"><path d="M216.74 94.72l-.05 16.99 22.98-13.35.05-16.99-22.98 13.35z"/></g></g></g></g><path d="M239.72 81.37l-27.74-16.01L189 78.72l27.74 16 22.98-13.35z" class="E"/><g class="G C"><g clip-path="url(#M)"><g class="F"><path d="M239.72 81.37l-27.74-16.01L189 78.72l27.74 16 22.98-13.35z"/></g></g></g><path d="M205.92 93.03l1.51.87-.01 4.13-1.51-.87.01-4.13z" class="C"/><g class="D"><path d="M207.42 98.03l-.01 4.13-1.51-.87.01-4.13 1.51.87zm2.71-.9l-.01 6.6-1.51-.87.02-6.6 1.5.87z"/></g><g class="C"><path d="M208.63 94.6l1.51.87-.01 1.66-1.5-.87V94.6zm2.71 1.56l1.51.87-.01 2.9-1.5-.88v-2.89z"/></g><path d="M212.84 99.93l-.02 5.37-1.5-.87.02-5.38 1.5.88z" class="D"/><g class="G"><g clip-path="url(#N)"><g class="H"><path d="M200.94,92.63a7.08,7.08,0,0,0-3.21-5.56,2.26,2.26,0,0,0-2.27-.23h0l-1.67,1h0a2.33,2.33,0,0,1,2.28.23,7.1,7.1,0,0,1,3.2,5.56,2.31,2.31,0,0,1-.87,2l1.58-.95H200a2.27,2.27,0,0,0,.91-2"/></g></g><use xlink:href="#BT" class="M"/><g clip-path="url(#O)"><g class="F"><use xlink:href="#BT"/></g></g><use xlink:href="#BU" class="M"/><g clip-path="url(#P)"><g class="H"><use xlink:href="#BU"/></g></g><use xlink:href="#BV" class="M"/><g clip-path="url(#Q)"><g class="F"><use xlink:href="#BV"/></g></g><path d="M194.07 91.68a.67.67 0 0 0-.63-.07l-.07.06h0a27.08 27.08 0 0 0-3.07 2 56.28 56.28 0 0 1-7.17 4.54 16.42 16.42 0 0 1-9 2.27 9.45 9.45 0 0 1-7.47-4.31c-1.1-1.91-1.46-4.4-1.1-7.64l.53-3.47a45 45 0 0 0 .68-5.18c.13-2.6-.2-6.27-2.55-9a9.1 9.1 0 0 0-5.08-3c-4.06-.82-8 1.21-11.36 3.19l1.22 2.16c3.12-1.82 6.41-3.55 9.61-2.87a6.69 6.69 0 0 1 3.7 2.17c1.81 2.12 2.06 5.13 1.91 7.28a42.6 42.6 0 0 1-.64 4.88c-.2 1.17-.41 2.39-.56 3.62-.42 3.82 0 6.8 1.44 9.17a11.89 11.89 0 0 0 9.41 5.53H175a19.6 19.6 0 0 0 9.3-2.61 61.56 61.56 0 0 0 7.48-4.78 25.84 25.84 0 0 1 2.79-1.84l.09-.06h0a.62.62 0 0 0 .24-.55 2 2 0 0 0-.88-1.53" fill="#efefef"/></g><g class="E"><path d="M54.46 153.47l.01 1.82 29.9-17.27-.01-1.81-29.9 17.26zm0 3.19l.01 1.82 19.25-11.12v-1.81l-19.26 11.11z"/></g><g class="G"><g clip-path="url(#R)" class="C"><g class="I"><path d="M54.46 153.47l.01 1.82 29.9-17.27-.01-1.81-29.9 17.26z"/></g></g><g clip-path="url(#S)" class="C"><g class="I"><path d="M54.46 156.66l.01 1.82 19.25-11.12v-1.81l-19.26 11.11z"/></g></g><use xlink:href="#BW" class="E"/><g clip-path="url(#T)" class="C"><g opacity=".5"><use xlink:href="#BW"/></g></g><g class="E"><path d="M55.86,96,89.4,76.59a1,1,0,0,1,.88-.12h.06l1.36.79a1,1,0,0,0-1,.09L57.19,96.73A2.85,2.85,0,0,0,55.88,99v9a1,1,0,0,0,.38.85h0l-1.39-.81h0a1,1,0,0,1-.37-.83v-9a2.84,2.84,0,0,1,1.32-2.28"/><path d="M56,108.09V99a2.87,2.87,0,0,1,1.32-2.27L90.8,77.35a1,1,0,0,1,1-.09h0a1,1,0,0,1,.36.82v9a2.86,2.86,0,0,1-1.32,2.27L57.28,108.87a.82.82,0,0,1-1.34-.76"/></g><g clip-path="url(#U)" class="C"><g class="I"><path d="M55.86,96,89.4,76.59a1,1,0,0,1,.88-.12h.06l1.36.79a1,1,0,0,0-1,.09L57.19,96.73A2.87,2.87,0,0,0,56,98.22l-1.41-.79a2.86,2.86,0,0,1,1.18-1.51"/></g></g><g clip-path="url(#V)"><g class="H"><path d="M56.09,98.26a2.31,2.31,0,0,0-.16.78v9a1,1,0,0,0,.38.84h0l-1.38-.8h0a.93.93,0,0,1-.37-.83v-9a2.29,2.29,0,0,1,.14-.78Z"/></g></g><g clip-path="url(#W)" class="C"><g class="I"><path d="M92.12 78.15a1 1 0 0 0-.36-.82h0l-1.35-.78h-.06a1 1 0 0 0-.88.12L55.92 96a1.59 1.59 0 0 0-.33.25.3.3 0 0 0-.08.08 2.44 2.44 0 0 0-.27.29h0a3.07 3.07 0 0 0-.47.87h0c0 .12-.07.24-.1.36h0a2.41 2.41 0 0 0 0 .38v9a1 1 0 0 0 .37.83h0l1.39.8h0a.93.93 0 0 0 1-.08l33.5-19.31a2.89 2.89 0 0 0 1.32-2.27z"/></g></g><g clip-path="url(#X)"><g clip-path="url(#Y)" class="C"><path d="M58.78 104.33v1.5l9.5-5.48v-1.5l-9.5 5.48z"/></g><g clip-path="url(#Z)" class="C"><path d="M58.78 101.19v1.5l10.69-6.18v-1.49l-10.69 6.17z"/></g><g clip-path="url(#a)" class="C"><path d="M58.78 98.08v1.5l4.75-2.74-.01-1.5-4.74 2.74z"/></g><g clip-path="url(#b)" class="C"><path d="M85.15,86a1.14,1.14,0,0,0-.53,1v1c0,.34.24.47.53.31l.88-.52a1.16,1.16,0,0,0,.53-1v-1c0-.33-.24-.46-.54-.29Z"/></g><g class="a E"><use xlink:href="#BX"/></g><g class="b E"><use xlink:href="#BY"/></g><g class="a C"><g class="I"><use xlink:href="#BX"/></g></g><g clip-path="url(#e)" class="C"><path d="M85.44,82.22a9.09,9.09,0,0,0-4,7c0,2.61,1.85,3.66,4.12,2.35a8.81,8.81,0,0,0,3.33-3.89l-.9-.11a6.63,6.63,0,0,1-2.43,2.79c-1.69,1-3.06.19-3.06-1.75a6.73,6.73,0,0,1,2.91-5.19Z"/></g><g class="b C"><g class="I"><use xlink:href="#BY"/></g></g><g clip-path="url(#f)" class="C"><path d="M76,91.3a1.14,1.14,0,0,0-.53,1v1c0,.34.23.47.53.31l.88-.52a1.13,1.13,0,0,0,.52-.9v-1c0-.33-.24-.47-.53-.29Z"/></g><g clip-path="url(#g)" class="C"><path d="M76.3,87.5a9.06,9.06,0,0,0-4,7c0,2.61,1.86,3.66,4.12,2.35A8.72,8.72,0,0,0,79.78,93l-.9-.12a6.44,6.44,0,0,1-2.43,2.79c-1.69,1-3.06.19-3.06-1.75a6.73,6.73,0,0,1,2.91-5.19Z"/></g></g><g class="E"><path d="M59.19 124.9l.01 1.75 21.41-12.37-.01-1.74-21.41 12.36zm.01-4.94v1.75l32.36-18.68v-1.75L59.2 119.96zm0-4.84v1.75l28.98-16.83-.01-1.73-28.97 16.81z"/></g><g clip-path="url(#h)" class="C"><g class="I"><g clip-path="url(#i)"><path d="M55.42,116a2,2,0,0,0-.91,1.59v1.74c0,.59.41.83,1,.53L57,119a2,2,0,0,0,.91-1.58v-1.75c0-.58-.41-.81-1-.53Z"/></g><g clip-path="url(#j)"><path d="M55.44,120.92a2,2,0,0,0-1,1.57v1.76c0,.58.41.81,1,.52l1.52-.88a2,2,0,0,0,.91-1.58v-1.74c0-.59-.41-.83-.95-.53Z"/></g><g clip-path="url(#k)"><path d="M55.45,125.86a2,2,0,0,0-.91,1.57v1.75c0,.58.41.82,1,.52l1.53-.87a2,2,0,0,0,.91-1.59v-1.75c0-.58-.41-.81-1-.52Z"/></g><g clip-path="url(#l)"><path d="M59.19 124.9l.01 1.75 21.41-12.37-.01-1.74-21.41 12.36z"/></g><g clip-path="url(#m)"><path d="M59.2 119.96v1.75l32.36-18.68v-1.75L59.2 119.96z"/></g><g clip-path="url(#n)"><path d="M59.2 115.12v1.75l28.98-16.83-.01-1.73-28.97 16.81z"/></g></g></g><g class="D"><path d="M218.43,172.51l-70.67,41.06a7.69,7.69,0,0,1-7,0L69.6,172.51a2.49,2.49,0,0,1-1.46-2v11.18a2.48,2.48,0,0,0,1.46,2l71.14,41.06a7.69,7.69,0,0,0,7,0l70.67-41.06a2.45,2.45,0,0,0,1.44-2h0V170.47a2.45,2.45,0,0,1-1.44,2"/><path d="M69.59,172.51l71.14,41.06a7.69,7.69,0,0,0,7,0l70.67-41.06a2.15,2.15,0,0,0,0-4.07l-71.14-41.07a7.82,7.82,0,0,0-7,0L69.57,168.44a2.42,2.42,0,0,0-1.44,2,2.49,2.49,0,0,0,1.46,2"/><path d="M197.91 174.23L143.8 143l-53.71 31.22 54.11 31.23 53.71-31.22z"/></g><g clip-path="url(#o)"><g class="L"><path d="M197.91 174.23L143.8 143l-53.71 31.22 54.11 31.23 53.71-31.22z"/></g></g><g class="D"><path d="M83.62 170.47l6.47 3.75L143.8 143v-7.51l-60.18 34.98z"/><path d="M143.8 135.49V143l54.11 31.23 6.47-3.76-60.58-34.98z"/></g><g clip-path="url(#p)"><g class="H"><path d="M83.62 170.47l6.47 3.75L143.8 143v-7.51l-60.18 34.98z"/></g></g><g clip-path="url(#q)"><g class="F"><path d="M143.8 135.49V143l54.11 31.23 6.47-3.76-60.58-34.98z"/></g></g><g clip-path="url(#r)"><g class="F"><path d="M140.77,213.58,69.63,172.52a2.49,2.49,0,0,1-1.46-2v11.18a2.48,2.48,0,0,0,1.46,2l71.14,41.06a7.12,7.12,0,0,0,3.47.84V214.42a7.12,7.12,0,0,1-3.47-.84"/></g></g><g clip-path="url(#s)"><g class="H"><path d="M218.43,172.51l-70.67,41.06a7.18,7.18,0,0,1-3.55.84v11.18a7,7,0,0,0,3.55-.84l70.67-41.06a2.45,2.45,0,0,0,1.44-2h0V170.47a2.45,2.45,0,0,1-1.44,2"/></g></g><g clip-path="url(#t)" class="D"><g class="N"><path d="M144.01 73.69l-60.58 34.98V96.3l60.58-34.97v12.36z"/></g></g><g clip-path="url(#u)" class="D"><g class="O"><path d="M144.01 98.41l-60.58 34.98v-12.37l60.58-34.97v12.36z"/></g></g><g clip-path="url(#v)" class="D"><g class="F"><path d="M144.01 86.05l-60.58 34.97v-12.35l60.58-34.98v12.36z"/></g></g><g clip-path="url(#w)" class="D"><g class="H"><path d="M144.01 110.78l-60.58 34.97v-12.36l60.58-34.98v12.37z"/></g></g><g clip-path="url(#x)" class="D"><g class="P"><path d="M144.01 123.13l-60.58 34.98v-12.36l60.58-34.97v12.35z"/></g></g><g clip-path="url(#y)" class="D"><g class="I"><path d="M144.01 135.5l-60.58 34.97v-12.36l60.58-34.98v12.37z"/></g></g><g clip-path="url(#z)" class="D"><g class="Q"><path d="M144.01 61.33L83.43 96.3V83.94l60.58-34.98v12.37z"/></g></g><g clip-path="url(#AA)" class="D"><g class="R"><path d="M144.01 26.35V36.6L83.43 71.58V61.33l60.58-34.98z"/></g></g><g clip-path="url(#AB)" class="D"><g class="S"><path d="M144.01 48.96L83.43 83.94V71.58l60.58-34.98v12.36z"/></g></g><g clip-path="url(#AC)" class="D"><g class="N"><path d="M143.8 73.69l60.58 34.98V96.3L143.8 61.33v12.36z"/></g></g><g clip-path="url(#AD)" class="D"><g class="O"><path d="M143.8 98.41l60.58 34.98v-12.37L143.8 86.05v12.36z"/></g></g><g clip-path="url(#AE)" class="D"><g class="F"><path d="M143.8 86.05l60.58 34.97v-12.35L143.8 73.69v12.36z"/></g></g><g clip-path="url(#AF)" class="D"><g class="H"><path d="M143.8 110.78l60.58 34.97v-12.36L143.8 98.41v12.37z"/></g></g><g clip-path="url(#AG)" class="D"><g class="P"><path d="M143.8 123.13l60.58 34.98v-12.36l-60.58-34.97v12.35z"/></g></g><g clip-path="url(#AH)" class="D"><g class="I"><path d="M143.8 135.5l60.58 34.97v-12.36l-60.58-34.98v12.37z"/></g></g><g clip-path="url(#AI)" class="D"><g class="Q"><path d="M143.8 61.33l60.58 34.97V83.94L143.8 48.96v12.37z"/></g></g><g clip-path="url(#AJ)" class="D"><g class="R"><path d="M143.8 26.35V36.6l60.58 34.98V61.33L143.8 26.35z"/></g></g><g clip-path="url(#AK)" class="D"><g class="S"><path d="M143.8 48.96l60.58 34.98V71.58L143.8 36.6v12.36z"/></g></g><g class="c"><g opacity=".5"><g class="D"><path d="M158.97 123.77l1.1.63.08-27.12-1.1-.64-.08 27.13zm-.01 4.76l1.1.64.01-2.44-1.11-.63v2.43zm-1.46-3.17l1.1.63.01-2.43-1.1-.64-.01 2.44zm4.31 4.81l1.1.64v-2.43l-1.1-.63v2.42zm.08-29.25v2.43l1.1.63v-2.43l-1.1-.63zm-1.48 20.43l1.09.64.05-15.33-1.1-.63-.04 15.32zm-2.89-1.66l1.1.63.04-15.33-1.1-.63-.04 15.33zm4.34-7.83l1.1.63.01-5.01-1.1-.64-.01 5.02zm-.03 10.31l1.1.64.02-7.67-1.1-.63-.02 7.66zM114.66 96l-.01 2.43 1.1.63.01-2.43-1.1-.63zm-4.32-.06l1.1.64v-2.44l-1.09-.63-.01 2.43zm.02-4.98l1.09.63.02-5.61-1.09-.64-.02 5.62zm4.28 12.43l1.1.63v-2.43l-1.1-.63v2.43zm-2.88 9.29l1.11.64.07-23.97-1.1-.63-.08 23.96zm-.05 19.33l1.1.63.04-16.04-1.1-.64-.04 16.05zm1.47-18.51l1.1.64.04-10.95-1.11-.64-.03 10.95zm-.03 9.77l1.1.64.03-7.16-1.11-.64-.02 7.16zm-2.88-3.22l1.1.63.06-18.36-1.1-.63-.06 18.36zm4.3 7.82l1.1.64.02-8.19-1.09-.63-.03 8.18zm.04-13.79l1.1.64.01-4.71-1.09-.64-.02 4.71zm61.41 19.66v2.43l1.1.64.01-2.43-1.11-.64zm-4.43 39.78l1.11.63v-2.43l-1.1-.64-.01 2.44zM176 141.4l1.1.64.01-2.42-1.1-.64-.01 2.42zm-2.92 27.76l1.1.63.11-40.37-1.1-.64-.11 40.38zm1.43-5l1.1.63.08-26-1.1-.63-.08 26zm-2.83-20l1.09.64.02-4.88-1.1-.63-.01 4.87zm-.03 10.99l1.1.63.01-8.19-1.1-.64-.01 8.2zm-.03 10.2l1.1.63.02-8.19-1.1-.63-.02 8.19zm4.32-2.41l1.1.63.02-8.2-1.1-.63-.02 8.2zm.04-13.5l1.1.63.01-4.91-1.1-.63-.01 4.91zm-50.46-81.23l-.01 2.43 1.1.64.01-2.43-1.1-.64z"/><use xlink:href="#BZ"/><path d="M121.13 96.19l1.1.64v-2.42l-1.1-.64v2.42zm1.48-6.87l1.1.63.06-22.38-1.09-.63-.07 22.38zm1.45-7.45l1.1.64.03-10.52-1.1-.64-.03 10.52zM124.03 93l1.1.64.02-8.38-1.1-.63-.02 8.37zm-2.84-20.88l1.1.64.01-4.88-1.1-.64-.01 4.88zm-.02 10.52l1.1.64V78.4l-1.09-.64-.01 4.88zm4.26 18.75l1.09.64.04-13-1.1-.64-.03 13zm.04-15.94l1.1.63.03-10.47-1.1-.64-.03 10.48z"/></g><g class="c C"><g opacity=".8"><path d="M158.97 123.77l1.1.63.08-27.12-1.1-.64-.08 27.13zm-.01 4.76l1.1.64.01-2.44-1.11-.63v2.43zm-1.46-3.17l1.1.63.01-2.43-1.1-.64-.01 2.44zm4.31 4.81l1.1.64v-2.43l-1.1-.63v2.42zm.08-29.25v2.43l1.1.63v-2.43l-1.1-.63zm-1.48 20.43l1.09.64.05-15.33-1.1-.63-.04 15.32zm-2.89-1.66l1.1.63.04-15.33-1.1-.63-.04 15.33zm4.34-7.83l1.1.63.01-5.01-1.1-.64-.01 5.02zm-.03 10.31l1.1.64.02-7.67-1.1-.63-.02 7.66zM114.66 96l-.01 2.43 1.1.63.01-2.43-1.1-.63zm-4.32-.06l1.1.64v-2.44l-1.09-.63-.01 2.43zm.02-4.98l1.09.63.02-5.61-1.09-.64-.02 5.62zm4.28 12.43l1.1.63v-2.43l-1.1-.63v2.43zm-2.88 9.29l1.11.64.07-23.97-1.1-.63-.08 23.96zm-.05 19.33l1.1.63.04-16.04-1.1-.64-.04 16.05zm1.47-18.51l1.1.64.04-10.95-1.11-.64-.03 10.95zm-.03 9.77l1.1.64.03-7.16-1.11-.64-.02 7.16zm-2.88-3.22l1.1.63.06-18.36-1.1-.63-.06 18.36zm4.3 7.82l1.1.64.02-8.19-1.09-.63-.03 8.18zm.04-13.79l1.1.64.01-4.71-1.09-.64-.02 4.71zm61.41 19.66v2.43l1.1.64.01-2.43-1.11-.64zm-4.43 39.78l1.11.63v-2.43l-1.1-.64-.01 2.44zM176 141.4l1.1.64.01-2.42-1.1-.64-.01 2.42zm-2.92 27.76l1.1.63.11-40.37-1.1-.64-.11 40.38zm1.43-5l1.1.63.08-26-1.1-.63-.08 26zm-2.83-20l1.09.64.02-4.88-1.1-.63-.01 4.87zm-.03 10.99l1.1.63.01-8.19-1.1-.64-.01 8.2zm-.03 10.2l1.1.63.02-8.19-1.1-.63-.02 8.19zm4.32-2.41l1.1.63.02-8.2-1.1-.63-.02 8.2zm.04-13.5l1.1.63.01-4.91-1.1-.63-.01 4.91zm-50.46-81.23l-.01 2.43 1.1.64.01-2.43-1.1-.64z"/><use xlink:href="#BZ"/><path d="M121.13 96.19l1.1.64v-2.42l-1.1-.64v2.42zm1.48-6.87l1.1.63.06-22.38-1.09-.63-.07 22.38zm1.45-7.45l1.1.64.03-10.52-1.1-.64-.03 10.52zM124.03 93l1.1.64.02-8.38-1.1-.63-.02 8.37zm-2.84-20.88l1.1.64.01-4.88-1.1-.64-.01 4.88zm-.02 10.52l1.1.64V78.4l-1.09-.64-.01 4.88zm4.26 18.75l1.09.64.04-13-1.1-.64-.03 13zm.04-15.94l1.1.63.03-10.47-1.1-.64-.03 10.48z"/></g></g></g></g><g class="E"><path d="M150 74.39l-.05.7a6.89 6.89 0 0 1-1.11 3.37 7 7 0 0 0-1.13 3.82v1.26a2.48 2.48 0 0 1-.81 1.91c-3.24 2.87-7.26 1.55-4.7-1a1.07 1.07 0 0 0 .33-.77v-1.8l5.73-7.42z"/><path d="M149.37 75.62h0a3.14 3.14 0 0 0-2.51 2.31l-.61 2.41a2.16 2.16 0 0 1-1.76 1.66l-2.87.46a2.15 2.15 0 0 1-2.35-1.31c-2.26-5.84-1.16-11.46 4.12-12.1s6.63 3.53 6.62 5.8a.82.82 0 0 1-.67.81m-2.63 31.18l-5.23-2.75-6 .53v2.91l-.21 7.39a2.88 2.88 0 0 0 1.7 2.35 9 9 0 0 0 8.13 0 2.86 2.86 0 0 0 1.66-2.36z"/></g><use xlink:href="#Ba" class="D"/><g clip-path="url(#AM)" class="C"><g class="K"><use xlink:href="#Ba"/></g></g><path d="M148.07 105.05l1.05-3.41-.26-.08-1 3.21a8.77 8.77 0 0 0-1.81-1.84 12.4 12.4 0 0 0-7.46-2.38h-.54a18.25 18.25 0 0 1 4.44-8.55l-.2-.18a18.56 18.56 0 0 0-4.47 8.74 16 16 0 0 0-4.88 1v.29a16.39 16.39 0 0 1 4.84-1 18.56 18.56 0 0 0-.33 4.46h.27a18 18 0 0 1 .34-4.45h.58a12.21 12.21 0 0 1 7.31 2.32 8.87 8.87 0 0 1 1.86 1.91 27.1 27.1 0 0 1-1.15 2.86 14.61 14.61 0 0 1-2.86 4.1 1.69 1.69 0 0 0 .27.11 15.19 15.19 0 0 0 2.86-4.1 27 27 0 0 0 1.09-2.66 8.11 8.11 0 0 1 1.24 3.43 4 4 0 0 0 .24-.33 8.46 8.46 0 0 0-1.37-3.41" class="E"/><path d="M143.73,91.32a4.79,4.79,0,0,0-3.69.79c-3.21,2.7,1,4.27,4.37,1.26a2.44,2.44,0,0,0,.51-.65c.19-.45.11-1.24-1.19-1.4" class="J"/><use xlink:href="#Bb" class="D"/><g clip-path="url(#AN)" class="C"><g class="I"><use xlink:href="#Bb"/></g></g><path d="M149.37,102a7.16,7.16,0,0,0,2-6.18,3.11,3.11,0,0,0-.48-1.14,2.45,2.45,0,0,0-2,.76,7.16,7.16,0,0,0-2,6.19,3.26,3.26,0,0,0,.49,1.15,2.45,2.45,0,0,0,2-.78" class="J"/><g class="E"><path d="M92.2,111.44a.56.56,0,0,0,.54-.36,6.6,6.6,0,0,1,3.07-3.31.55.55,0,0,0,.29-.7v0a.53.53,0,0,0-.7-.28h0a7.55,7.55,0,0,0-3.65,3.92.55.55,0,0,0,.32.7h.16"/><path d="M94.09,111.34a.54.54,0,0,0,.51-.36,6.42,6.42,0,0,1,2.86-3.26.54.54,0,0,0,.23-.73.53.53,0,0,0-.73-.22,7.31,7.31,0,0,0-3.34,3.82.53.53,0,0,0,.34.68.25.25,0,0,0,.17,0"/><path d="M96.39,110.9a.56.56,0,0,0,.41-.38,8,8,0,0,1,2.5-3.58.55.55,0,0,0,.08-.76.54.54,0,0,0-.75-.09h0a9,9,0,0,0-2.87,4.11.55.55,0,0,0,.37.68.62.62,0,0,0,.27,0"/></g><use xlink:href="#Bc" class="D"/><g clip-path="url(#AO)" class="C"><g class="K"><use xlink:href="#Bc"/></g></g><path d="M98.75,107.62a2,2,0,0,0,1.34-.52,66.1,66.1,0,0,1,17.66-11.46,2,2,0,0,0,1-2.6v0a2,2,0,0,0-2.62-1,70.22,70.22,0,0,0-18.72,12.2,2,2,0,0,0-.14,2.8h0a1.93,1.93,0,0,0,1.47.64" class="E"/><path d="M113.6,93.08A5.12,5.12,0,1,0,118.73,88h0a5.12,5.12,0,0,0-5.12,5.1h0" class="D"/><g clip-path="url(#AP)" class="C"><g class="L"><path d="M113.6,93.08A5.12,5.12,0,1,0,118.73,88h0a5.12,5.12,0,0,0-5.12,5.1h0"/></g></g><g class="E"><path d="M121.21,96.52a6.1,6.1,0,0,0,1.18-5.8,5.61,5.61,0,0,0-1.63-2.33,4.46,4.46,0,0,0-1.06-.32,5.53,5.53,0,0,1,2.35,2.78,5.74,5.74,0,0,1-1.11,5.44,7.42,7.42,0,0,1-2.5,1.91h.8a7.28,7.28,0,0,0,2-1.65"/><path d="M121.25,95.64a2,2,0,0,1-.29-.7,4.35,4.35,0,0,1,1.19-3.74,1.65,1.65,0,0,1,1-.48H122.1a1.58,1.58,0,0,0-1.06.48,4.29,4.29,0,0,0-1.19,3.74,1.8,1.8,0,0,0,.29.7,1,1,0,0,0,.8.46h1.12a1,1,0,0,1-.81-.46"/></g><path d="M124.33,91.88c-.16-.68-.52-1.08-1-1.15h-.16a1.63,1.63,0,0,0-1,.48A4.32,4.32,0,0,0,121,95a2,2,0,0,0,.29.7,1,1,0,0,0,.81.46,1.59,1.59,0,0,0,1.07-.48,4.36,4.36,0,0,0,1.2-3.74" class="J"/><path d="M166.22,110.29c-.15-.68-.51-1.08-.95-1.15h-.17a1.65,1.65,0,0,0-1,.48,4.32,4.32,0,0,0-1.18,3.74,2,2,0,0,0,.29.7,1,1,0,0,0,.81.46,1.56,1.56,0,0,0,1.07-.48,4.28,4.28,0,0,0,1.19-3.74" class="E"/><use xlink:href="#Bd" class="D"/><g clip-path="url(#AQ)" class="C"><g class="L"><use xlink:href="#Bd"/></g></g><g class="E"><path d="M169.78,116.56a5.41,5.41,0,0,0,.46-8.71,5.45,5.45,0,0,0-1.05-.29A5.07,5.07,0,0,1,165.7,117a5,5,0,0,0,1,.46h0a5.44,5.44,0,0,0,3-.88"/><path d="M189.18,127.14a2.08,2.08,0,0,1-1.34-.52,66.1,66.1,0,0,0-17.66-11.46,2,2,0,1,1,1.59-3.63h0a70.29,70.29,0,0,1,18.74,12.19,2,2,0,0,1,.12,2.8h0a1.93,1.93,0,0,1-1.46.65"/></g><use xlink:href="#Be" class="D"/><g clip-path="url(#AR)" class="C"><g class="K"><use xlink:href="#Be"/></g></g><path d="M193.4,131.87a.56.56,0,0,1-.52-.38A6.58,6.58,0,0,0,190,128a.55.55,0,0,1-.24-.73.56.56,0,0,1,.74-.23,7.53,7.53,0,0,1,3.4,4.14.55.55,0,0,1-.36.68h-.16" class="E"/><use xlink:href="#Bf" class="D"/><g clip-path="url(#AS)" class="C"><g class="K"><use xlink:href="#Bf"/></g></g><path d="M132.38 78.61a5.31 5.31 0 0 1 2.17.85l-.41-.65a5.67 5.67 0 0 0-2.14-.61 6.68 6.68 0 0 0-2.32-1.47 6 6 0 0 0-1.25-.32l.27-.07-.74.06a8.22 8.22 0 0 0-1.63.38l.55-.07a7 7 0 0 0-1.65 1.36 8.88 8.88 0 0 0-1.91 3.66 8.6 8.6 0 0 1-.95-.5l-.09.37a6.09 6.09 0 0 0 1 .47c0 .19-.08.38-.12.57a16 16 0 0 0 .08 5 10.78 10.78 0 0 0 .67 2.55 5.73 5.73 0 0 0 .68 1.14 2.34 2.34 0 0 0 .64.18 4.84 4.84 0 0 1-1-1.48 9.85 9.85 0 0 1-.65-2.45 15.49 15.49 0 0 1-.07-4.9 2.42 2.42 0 0 1 .1-.51 6.35 6.35 0 0 0 1.83.33h0a1.57 1.57 0 0 0 1.44-1 5.19 5.19 0 0 1 3.12-2.71 4.78 4.78 0 0 1 1.8-.24 6.85 6.85 0 0 1 .85 1.08 7 7 0 0 1 .87 4.62l.39-.18a7.35 7.35 0 0 0-1-4.63 6.89 6.89 0 0 0-.61-.84m-2.45-.16a5.68 5.68 0 0 0-3.32 3 1.22 1.22 0 0 1-1.05.71 6.57 6.57 0 0 1-1.76-.31 8.63 8.63 0 0 1 1.76-3.51 6.54 6.54 0 0 1 2.18-1.62 6.24 6.24 0 0 1 1.91.38 6.12 6.12 0 0 1 1.91 1.12 5.21 5.21 0 0 0-1.52.26" class="E"/><path d="M128.36 87a3.09 3.09 0 0 0 2.36-2.07l.26-1a.58.58 0 0 0-.44-.71.44.44 0 0 0-.2 0 31.42 31.42 0 0 1-4.34.08 9.79 9.79 0 0 1-2.22-.29 4.62 4.62 0 0 1-1.58-.76 13.22 13.22 0 0 0 .11 4.21 5.33 5.33 0 0 0 2.61.72 14.7 14.7 0 0 0 3.44-.2" class="J"/><path d="M133.45,126.5c-.8,12.18-.07,27.36-.07,27.36l4.45,1.13a103.12,103.12,0,0,0,3.63-19.64Z" class="E"/><use xlink:href="#Bg" class="D"/><g clip-path="url(#AT)" class="C"><g class="K"><use xlink:href="#Bg"/></g></g><path d="M139.72,175.55a5.29,5.29,0,0,1-2.44,1l-.69.07a5.39,5.39,0,0,0-2.11.71l-1.2.72a7.45,7.45,0,0,1-6.91.35l-.41-.19a.86.86,0,0,1-.51-.78v.68a.89.89,0,0,0,.51.79l.41.19a7.45,7.45,0,0,0,6.91-.37l1.2-.7a5.08,5.08,0,0,1,2.11-.71l.69-.08a5.17,5.17,0,0,0,2.44-.95,1,1,0,0,0,.4-.87V175a.89.89,0,0,1-.37.54" class="J"/><g clip-path="url(#AU)"><g class="H"><path d="M128.48,178.08a2.52,2.52,0,0,1-.08-.54.55.55,0,0,0-.48-.51,3.92,3.92,0,0,1-2.23-1,1.43,1.43,0,0,0-.24.78v.56a.85.85,0,0,0,.51.78l.41.19a7.4,7.4,0,0,0,4.15.61,7,7,0,0,1-1.52-.29.76.76,0,0,1-.52-.56"/></g></g><g clip-path="url(#AV)"><g class="H"><path d="M137.11,154c-.13,1.62-1.19,2.86-2.37,2.77s-2-1.48-1.91-3.11,1.19-2.86,2.37-2.77,2,1.49,1.91,3.11"/></g></g><use xlink:href="#Bh" class="D"/><g clip-path="url(#AW)" class="C"><g class="L"><use xlink:href="#Bh"/></g></g><use xlink:href="#Bi" class="D"/><g clip-path="url(#AX)" class="C"><g class="H"><use xlink:href="#Bi"/></g></g><g class="d"><g class="H"><use xlink:href="#Bj"/></g></g><g clip-path="url(#AZ)"><g class="H"><path d="M136.41,124a11,11,0,0,1,9.76,0,3.8,3.8,0,0,1,1.41,1.29,1.51,1.51,0,0,0,.21-.72c0-.68-.59-1.42-1.62-2a10.15,10.15,0,0,0-4.89-1.15,10,10,0,0,0-4.87,1.15c-1,.58-1.59,1.31-1.59,2a1.5,1.5,0,0,0,.21.71,3.8,3.8,0,0,1,1.38-1.26"/></g></g><g class="d"><g class="H"><use xlink:href="#Bj"/></g></g><path d="M150.15,153.94c.62-6.86.29-19.72-.37-22.57-1.33-4.78-8.86-.79-8.47,2.73s1.81,13.13,4.46,20.36Z" class="E"/><use xlink:href="#Bk" class="D"/><g clip-path="url(#Aa)" class="C"><g class="K"><use xlink:href="#Bk"/></g></g><path d="M143.81,185.26l.8.23a9.22,9.22,0,0,0,3.58.28l1.45-.17a3.63,3.63,0,0,0,3.23-3.63v-.41a2.18,2.18,0,0,1,.66-1.56l.39-.37a1.21,1.21,0,0,0,.32-.57l-.08-1-.95,1.23a1.15,1.15,0,0,1-1.61.23,1,1,0,0,1-.23-.23l-.24-.33a3.25,3.25,0,0,1-.45-1l-.49-1.61a1.2,1.2,0,0,0-1.15-.85h-.76a1.2,1.2,0,0,0-1.14.79l-.37,1a3.61,3.61,0,0,1-.35.71l-3.17,4.67a1.89,1.89,0,0,0-.35,1.1v.16a1.33,1.33,0,0,0,1,1.25" class="E"/><path d="M153.92,179.58l-.39.37a2.2,2.2,0,0,0-.66,1.56v.41a3.63,3.63,0,0,1-3.23,3.63l-1.45.17a9.21,9.21,0,0,1-3.58-.27l-.8-.23a1.33,1.33,0,0,1-1-1.25v.79a1.31,1.31,0,0,0,1,1.24l.8.23a9.2,9.2,0,0,0,3.58.29l1.45-.18a3.68,3.68,0,0,0,2.93-2.15,3.77,3.77,0,0,0,.3-1.48v-.41a2.16,2.16,0,0,1,.66-1.55l.39-.38a1.23,1.23,0,0,0,.36-1V179a1.12,1.12,0,0,1-.32.57" class="J"/><use xlink:href="#Bl" class="D"/><g clip-path="url(#Ab)"><g class="H"><use xlink:href="#Bl"/></g></g><path d="M150.42,154.71a2.43,2.43,0,1,1-2.68-2.68,2.7,2.7,0,0,1,2.68,2.68" class="D"/><g clip-path="url(#Ac)"><g class="H"><path d="M150.42,154.71a2.43,2.43,0,1,1-2.68-2.68,2.7,2.7,0,0,1,2.68,2.68"/></g></g><g class="e"><g class="H"><g class="D"><path d="M143.78 142.73l1.1.64.08-27.13-1.1-.63-.08 27.12zm-.02 4.76l1.11.64v-2.44l-1.1-.63-.01 2.43zm-1.45-3.18l1.1.63.01-2.42-1.1-.64-.01 2.43z"/><use xlink:href="#Bm"/><path d="M146.69 119.88l-.01 2.42 1.11.63v-2.42l-1.1-.63zm-1.48 20.42l1.1.64.05-15.32-1.1-.63-.05 15.31zm-2.89-1.66l1.11.63.04-15.32-1.1-.64-.05 15.33zm4.34-7.83l1.1.63.02-5-1.11-.63-.01 5zm-.02 10.32l1.09.63.02-7.66-1.09-.63-.02 7.66zm-15.6 9.87v2.43l1.1.63v-2.43l-1.1-.63zm-4.32-.06l1.1.63.01-2.42-1.1-.64-.01 2.43zm.01-4.98l1.11.63.01-5.62-1.1-.64-.02 5.63zm4.29 12.42l1.1.63.01-2.42-1.1-.63-.01 2.42zm-2.87 9.29l1.1.64.06-23.96-1.1-.64-.06 23.96zm-.06 19.33l1.1.63.05-16.03-1.1-.63-.05 16.03zm1.48-18.5l1.1.63.03-10.94-1.1-.63-.03 10.94zm-.03 9.77l1.1.63.02-7.16-1.1-.63-.02 7.16zm-2.88-3.22l1.1.63.04-18.36-1.1-.64-.04 18.37zm4.3 7.83l1.09.63.02-8.2-1.1-.63-.01 8.2zm.03-13.79l1.1.63.01-4.71-1.1-.63-.01 4.71zm28.72-8.51l-.01 2.42 1.1.64.01-2.43-1.1-.63zm-4.43 39.77l1.1.63v-2.42l-1.1-.64v2.43zm4.41-32.11l1.1.64v-2.44l-1.1-.63v2.43zm-2.93 27.75l1.1.64.11-40.38-1.1-.64-.11 40.38zm1.43-5l1.11.63.07-26-1.1-.63-.08 26zM155.35 171l1.1.64.02-4.88-1.1-.64-.02 4.88zm-.02 10.97l1.09.64.03-8.19-1.1-.63-.02 8.18zm-.03 10.21l1.1.64.01-8.2-1.09-.63-.02 8.19zm4.32-2.42l1.1.64.03-8.19-1.1-.63-.03 8.18zm.04-13.48l1.1.63.02-4.91-1.1-.63-.02 4.91zm-52.63-54.27l-.01 2.42 1.1.64.01-2.42-1.1-.64zm-4.38 22.68l1.1.64v-2.44l-1.1-.63v2.43zm-.02 5.3l1.1.64.01-2.43-1.1-.64-.01 2.43zm1.49-6.89l1.1.64.07-22.37-1.11-.63-.06 22.36zm1.44-7.44l1.1.64.04-10.52-1.1-.64-.04 10.52zm-.03 11.13l1.1.64.03-8.38-1.11-.63-.02 8.37zm-2.83-20.88l1.1.64.01-4.88-1.09-.64-.02 4.88zm-.03 10.53l1.1.63.02-4.87-1.1-.64-.02 4.88zm4.27 18.74l1.1.64.03-13-1.09-.63-.04 12.99zm.04-15.94l1.09.64.04-10.47-1.1-.64-.03 10.47z"/></g><g class="e C"><g opacity=".8"><path d="M143.78 142.73l1.1.64.08-27.13-1.1-.63-.08 27.12zm-.02 4.76l1.11.64v-2.44l-1.1-.63-.01 2.43zm-1.45-3.18l1.1.63.01-2.42-1.1-.64-.01 2.43z"/><use xlink:href="#Bm"/><path d="M146.69 119.88l-.01 2.42 1.11.63v-2.42l-1.1-.63zm-1.48 20.42l1.1.64.05-15.32-1.1-.63-.05 15.31zm-2.89-1.66l1.11.63.04-15.32-1.1-.64-.05 15.33zm4.34-7.83l1.1.63.02-5-1.11-.63-.01 5zm-.02 10.32l1.09.63.02-7.66-1.09-.63-.02 7.66zm-15.6 9.87v2.43l1.1.63v-2.43l-1.1-.63zm-4.32-.06l1.1.63.01-2.42-1.1-.64-.01 2.43zm.01-4.98l1.11.63.01-5.62-1.1-.64-.02 5.63zm4.29 12.42l1.1.63.01-2.42-1.1-.63-.01 2.42zm-2.87 9.29l1.1.64.06-23.96-1.1-.64-.06 23.96zm-.06 19.33l1.1.63.05-16.03-1.1-.63-.05 16.03zm1.48-18.5l1.1.63.03-10.94-1.1-.63-.03 10.94zm-.03 9.77l1.1.63.02-7.16-1.1-.63-.02 7.16zm-2.88-3.22l1.1.63.04-18.36-1.1-.64-.04 18.37zm4.3 7.83l1.09.63.02-8.2-1.1-.63-.01 8.2zm.03-13.79l1.1.63.01-4.71-1.1-.63-.01 4.71zm28.72-8.51l-.01 2.42 1.1.64.01-2.43-1.1-.63zm-4.43 39.77l1.1.63v-2.42l-1.1-.64v2.43zm4.41-32.11l1.1.64v-2.44l-1.1-.63v2.43zm-2.93 27.75l1.1.64.11-40.38-1.1-.64-.11 40.38zm1.43-5l1.11.63.07-26-1.1-.63-.08 26zM155.35 171l1.1.64.02-4.88-1.1-.64-.02 4.88zm-.02 10.97l1.09.64.03-8.19-1.1-.63-.02 8.18zm-.03 10.21l1.1.64.01-8.2-1.09-.63-.02 8.19zm4.32-2.42l1.1.64.03-8.19-1.1-.63-.03 8.18zm.04-13.48l1.1.63.02-4.91-1.1-.63-.02 4.91zm-52.63-54.27l-.01 2.42 1.1.64.01-2.42-1.1-.64zm-4.38 22.68l1.1.64v-2.44l-1.1-.63v2.43zm-.02 5.3l1.1.64.01-2.43-1.1-.64-.01 2.43zm1.49-6.89l1.1.64.07-22.37-1.11-.63-.06 22.36zm1.44-7.44l1.1.64.04-10.52-1.1-.64-.04 10.52zm-.03 11.13l1.1.64.03-8.38-1.11-.63-.02 8.37zm-2.83-20.88l1.1.64.01-4.88-1.09-.64-.02 4.88zm-.03 10.53l1.1.63.02-4.87-1.1-.64-.02 4.88zm4.27 18.74l1.1.64.03-13-1.09-.63-.04 12.99zm.04-15.94l1.09.64.04-10.47-1.1-.64-.03 10.47z"/></g></g></g></g><g clip-path="url(#Ae)" class="D"><g class="N"><path d="M83.62 108.67l60.58 34.98v-12.37L83.62 96.3v12.37z"/></g></g><g clip-path="url(#Af)" class="D"><g class="O"><path d="M83.62 133.39l60.58 34.98V156l-60.58-34.98v12.37z"/></g></g><g clip-path="url(#Ag)" class="D"><g class="F"><path d="M83.62 121.02L144.2 156v-12.35l-60.58-34.98v12.35z"/></g></g><g clip-path="url(#Ah)" class="D"><g class="H"><path d="M83.62 145.75l60.58 34.98v-12.36l-60.58-34.98v12.36z"/></g></g><g clip-path="url(#Ai)" class="D"><g class="P"><path d="M83.62 158.11l60.58 34.98v-12.36l-60.58-34.98v12.36z"/></g></g><g clip-path="url(#Aj)" class="D"><g class="I"><path d="M83.62 170.47l60.58 34.98v-12.36l-60.58-34.98v12.36z"/></g></g><g clip-path="url(#Ak)" class="D"><g class="Q"><path d="M83.62 96.3l60.58 34.98v-12.36L83.62 83.94V96.3z"/></g></g><g clip-path="url(#Al)" class="D"><g class="R"><path d="M83.62 35.32v36.26l60.58 34.98V70.31L83.62 35.32z"/></g></g><g clip-path="url(#Am)" class="D"><g class="S"><path d="M83.62 83.94l60.58 34.98v-12.36L83.62 71.58v12.36z"/></g></g><g clip-path="url(#An)" class="D"><g opacity=".8"><g clip-path="url(#Ao)"><g class="N"><path d="M204.78 108.67l-60.58 34.98v-12.37l60.58-34.98v12.37z"/></g></g><g clip-path="url(#Ap)"><g class="O"><path d="M204.78 133.39l-60.58 34.98V156l60.58-34.98v12.37z"/></g></g><g clip-path="url(#Aq)"><g class="F"><path d="M204.78 121.02L144.2 156v-12.35l60.58-34.98v12.35z"/></g></g><g clip-path="url(#Ar)"><g class="H"><use xlink:href="#Bn"/></g></g><g clip-path="url(#As)"><g class="P"><path d="M204.78 158.11l-60.58 34.98v-12.36l60.58-34.98v12.36z"/></g></g><g clip-path="url(#At)"><g class="I"><path d="M204.78 170.47l-60.58 34.98v-12.36l60.58-34.98v12.36z"/></g></g><g clip-path="url(#Au)"><g class="Q"><path d="M204.78 96.3l-60.58 34.98v-12.36l60.58-34.98V96.3z"/></g></g><g clip-path="url(#Av)"><g class="R"><path d="M204.78 35.32v36.26l-60.58 34.98V70.31l60.58-34.99z"/></g></g><g clip-path="url(#Aw)"><g class="S"><path d="M204.78 83.94l-60.58 34.98v-12.36l60.58-34.98v12.36z"/></g></g></g></g><path d="M213.16 174.44l-2-4.21h0c-2.26-4.72-4.27-10.07-8.27-8.82l4.27 11.46.86 1.81-2.1 2.32.15 5.41 6.69-5.73a1.82 1.82 0 0 0 .45-2.14" class="C"/><g clip-path="url(#Ax)"><g class="F"><path d="M209.17,176.3a4.28,4.28,0,0,1-1.19-1.63l-.51.57a2.73,2.73,0,0,0,1.7,1.06"/></g></g><g clip-path="url(#Ay)"><g class="F"><path d="M207.31,175.41l-1.39,1.53.15,5.41,1.25-1.09a40.79,40.79,0,0,1,0-5.85"/></g></g><g clip-path="url(#Az)"><g class="F"><path d="M207.23,165.45a8.14,8.14,0,0,0-3-.49l2.94,7.9.6,1.24a14.07,14.07,0,0,0-.49-8.65"/></g></g><path d="M194.25 157h0a2.07 2.07 0 0 0-1.3 1l-1.43 2.61-4.66 5.39a12.67 12.67 0 0 0-2.87 5.56 2.58 2.58 0 0 0 4.35 2.4h0l1.56-1.52-.35-2.4 4.05-7.88 2.24-1.3a1.84 1.84 0 0 0 .87-1.28l.18-1z" fill="#ff8f8f"/><g class="E"><use xlink:href="#Bo"/><use xlink:href="#Bp"/></g><g clip-path="url(#BA)"><g opacity=".5"><g clip-path="url(#BB)" class="C"><g class="K"><use xlink:href="#Bo"/></g></g><use xlink:href="#Bp" class="J"/></g></g><path d="M191.82,224.06l-.07,2.14a.86.86,0,0,0,.78.88,13.1,13.1,0,0,0,2.17,0,1.2,1.2,0,0,0,1.1-1.14l.08-1.59Z" class="U"/><g class="E"><use xlink:href="#Bq"/><use xlink:href="#Br"/></g><g clip-path="url(#BC)"><g opacity=".5"><g clip-path="url(#BD)" class="C"><g class="K"><use xlink:href="#Bq"/></g></g><use xlink:href="#Br" class="J"/></g></g><path d="M202.35,219.23v1.91a3.25,3.25,0,0,0,3-.13l.18-1.76Z" class="U"/><path d="M206.07,183.86c.59,1.75-.13,10.08-.47,18.08,1.27,3,1,11.6.2,17.69a4.36,4.36,0,0,1-3.57,0l-2.86-16.81-.4-9.51s-.72,8.44-1.55,13.84c.78,4.15.58,4.93-1.34,17.67a4.75,4.75,0,0,1-4.31,0c-1.09-17.91-.69-34.22-.49-40.11Z" class="E"/><g clip-path="url(#BE)"><g class="I"><path d="M206.07 183.86l-14.8.88-.21 9.25a15.34 15.34 0 0 0 7.64 1.65l.21-2.33.1 2.31a15.4 15.4 0 0 0 7-2.27c.24-4.63.4-8.38 0-9.49"/></g></g><g clip-path="url(#BF)"><g class="I"><path d="M199.21,199.1l-.33-7.75c2,0,3.82-1.5,5.27-2.92a8.9,8.9,0,0,1-4,3.49Z"/></g></g><path d="M207.47,190.45c-.14-2-1.05-10.84-.9-12.92.3-4.22,1-8.14.85-10.2-.11-3.07-.49-6.53-5.25-5.83l-5.06.49-2.57.62L191,170v9.21l-.48,13.25a18.39,18.39,0,0,0,10.38,1.29A39.92,39.92,0,0,0,202,187a32.84,32.84,0,0,1,.54,6.41c2.75-.78,4.56-2.12,4.94-3" class="C"/><g clip-path="url(#BG)"><g class="F"><path d="M191,172l3.66-4a17.53,17.53,0,0,1-3.66,7.54Z"/></g></g><path d="M194.68,151.56a.71.71,0,0,1-.1-.79,1,1,0,0,1-.76-.1.69.69,0,0,1-.33-.64.59.59,0,0,1,.48-.52.94.94,0,0,1-.57-.39,1,1,0,0,1-.18-.68,1.21,1.21,0,0,1,.85-.95,2.81,2.81,0,0,1,1.32-.08,1,1,0,0,1,.55-1.25,1.28,1.28,0,0,1,1.21.2,3.88,3.88,0,0,1,.86.95,3.78,3.78,0,0,1,5.37,2.1,2.61,2.61,0,0,1,1.68,1.74,4.14,4.14,0,0,1-.15,2.46,10.79,10.79,0,0,1-1.15,2.21l-.63,1-1.21,1.91a3.94,3.94,0,0,1-3.74-.23,6.4,6.4,0,0,1-2.41-3,20.84,20.84,0,0,1-1.09-3.95" class="V"/><path d="M200.31 159.16a4.2 4.2 0 0 1-2.16-.62 6.37 6.37 0 0 1-2.44-3 20.74 20.74 0 0 1-1.09-3.94.7.7 0 0 1-.15-.72 1.05 1.05 0 0 1-.69-.15.76.76 0 0 1-.35-.7.64.64 0 0 1 .34-.51 1.18 1.18 0 0 1-.42-.35 1.11 1.11 0 0 1-.2-.73 1.28 1.28 0 0 1 .89-1 2.83 2.83 0 0 1 1.26-.08 1.13 1.13 0 0 1 .61-1.24 1.36 1.36 0 0 1 1.28.21 3.46 3.46 0 0 1 .84.95 3.91 3.91 0 0 1 3.16-.18 4 4 0 0 1 2.24 2.3 2.66 2.66 0 0 1 1.69 1.78 4.23 4.23 0 0 1-.15 2.49 11.85 11.85 0 0 1-1.15 2.24l-.64 1-.62 1a8.42 8.42 0 0 0-.58 1h0a3.51 3.51 0 0 1-1.65.38m-5.6-8.49l-.07.14a.62.62 0 0 0 .09.71h0a19.93 19.93 0 0 0 1.09 3.93 6.41 6.41 0 0 0 2.37 2.95 3.85 3.85 0 0 0 3.68.24l.57-.9.62-1 .64-1a11.27 11.27 0 0 0 1.14-2.21 3.9 3.9 0 0 0 .14-2.41 2.52 2.52 0 0 0-1.63-1.71h0a3.71 3.71 0 0 0-5.28-2.06H198a3.8 3.8 0 0 0-.84-1 1.25 1.25 0 0 0-1.15-.19 1 1 0 0 0-.52 1.17v.1h-.1a3 3 0 0 0-1.29.06 1.19 1.19 0 0 0-.82.89 1 1 0 0 0 .71 1l.46.06-.46.06a.52.52 0 0 0-.43.46.64.64 0 0 0 .3.59.87.87 0 0 0 .7.1z" fill="#232020"/><path d="M194.1,154.16l-.8,1.4.79.29v-1.69" fill="#ff8f8f"/><path d="M194.68,151.56a11.11,11.11,0,0,0-.58,2.6v1.69a16.74,16.74,0,0,0,.27,2.35,2.65,2.65,0,0,0,.47,1.18,1.83,1.83,0,0,0,1.28.59,5.7,5.7,0,0,0,1.43-.15v2.29c1.73.41,3.17.59,4.52-.46l-.18-2.93a4.24,4.24,0,0,1-2.43-.39,2.16,2.16,0,0,1-1.36-2.25.86.86,0,0,0,1,.33,1.26,1.26,0,0,0,.79-.62,2.61,2.61,0,0,0,.28-.95,1.7,1.7,0,0,0-.18-1.19,1.21,1.21,0,0,0-1.34-.46,1.91,1.91,0,0,0-1.15.95,2.39,2.39,0,0,0-.2.43.27.27,0,0,1-.33.19.29.29,0,0,1-.2-.26,3.62,3.62,0,0,1,.35-1.91,1.43,1.43,0,0,1-.64.15.83.83,0,0,1-.61-.29.53.53,0,0,1,0-.65,1.05,1.05,0,0,1-1.12-.23" class="U"/><path d="M193.41,163.36a3.73,3.73,0,0,0-3.88-1.4c-1.63,2.07-4.18,4.34-5.35,7a7.93,7.93,0,0,0-.7,2.28,3.78,3.78,0,0,0,.39,2.31,3.06,3.06,0,0,0,2.6,1.54c1.06,0,2.23-1.08,3-1.77-.13-3.26-1.08-4.33-1.08-4.33Z" class="C"/><g clip-path="url(#BH)"><g class="F"><path d="M193.41 163.36a3.35 3.35 0 0 0-.88-.84 5.89 5.89 0 0 0-2.16 1.23 17.71 17.71 0 0 0-2.15 2.34l-2.42 3.12 3.58 2.58a5.82 5.82 0 0 0-.95-2.8z"/></g></g><path d="M185.8,169.21l4.77-4.72a6.76,6.76,0,0,1,4-1.91h.08c2,4.45-.65,6.62-.65,6.62l-4.46,4.11a8.07,8.07,0,0,1-3.72-4.11" class="C"/><path d="M91.75,223.53a11.7,11.7,0,0,0,5.3,3c.59.14,1.26.32,1.47.88a1.33,1.33,0,0,1-.6,1.44,3.53,3.53,0,0,1-2.55.58,11.07,11.07,0,0,1-2.57-.73,9.14,9.14,0,0,0-2.58-.65c-.43,0-.85,0-1.27-.08a1.5,1.5,0,0,1-1.06-.62c0-2.57.66-3.49.66-3.49Z" class="J"/><path d="M91.81 222.39v1.74a2.1 2.1 0 0 1-3 .09 2.37 2.37 0 0 1-.29-.34v-1.49z" class="T"/><path d="M83.05,216.15c2.1-1.91,3.25-1.82,3.75-1.43s1.41,1.57-.9,3.61-2.14,3.29-3.74,3.29a1.28,1.28,0,0,1-1.35-1.21,1,1,0,0,1,0-.39,7.17,7.17,0,0,1,.25-1.66Z" class="J"/><path d="M83.81,217.35v1.23c-1,.84-2.63.37-2.71-.22l.07-1.21Z" class="T"/><use xlink:href="#Bs" class="V"/><g clip-path="url(#BI)" class="C"><g class="F"><use xlink:href="#Bs"/></g></g><g clip-path="url(#BJ)"><g class="H"><path d="M85.82 191.25l.35 2.19-.17 2.86-.7-4.56a4.17 4.17 0 0 1-3-1.91 7.74 7.74 0 0 0 3.52 1.37"/></g></g><g clip-path="url(#BK)"><g class="I"><path d="M92.25,195.4a12.47,12.47,0,0,0,1.6-.4l-.49-11.86-13.71-.44c-1,1.75-.76,5.36-.18,10.84A11.89,11.89,0,0,0,83,195a17.09,17.09,0,0,0,3,.45l.13-2,.32,2.05c.61,0,1.21.06,1.82.08a20.8,20.8,0,0,0,3.94-.17"/></g></g><path d="M93.72 179.41l-.06-.95h0l-.65-8-3.82-7.32-6.3-.84c-2.64-.26-3.82 2.63-3.74 5.32 0 1.57.84 5.57 1.34 9.7-2.38 5.06-2.24 11.46-2.19 14a15.12 15.12 0 0 0 3.51 1.91 25.54 25.54 0 0 1 .53-5.37 31.46 31.46 0 0 0 .59 5.73c4.91 1.49 10.14.8 11.88-.75l-1.09-13.37" class="C"/><path d="M91.26,155.12a4.84,4.84,0,0,0,.55-2.58,2.79,2.79,0,0,0-1.36-2.18,2,2,0,0,0-2.42.42,4.66,4.66,0,0,0-4.6.16,4.81,4.81,0,0,0-2.05,4.15,16.08,16.08,0,0,1,.3,2.77,4.43,4.43,0,0,0-.12,1.62,1.73,1.73,0,0,0,.88,1,9.16,9.16,0,0,0,1.81.24,2.9,2.9,0,0,0,4.11-.26l.06-.07c1.09-1.11,2.87-5.27,2.87-5.27" class="J"/><path d="M91.54 156.35l.85 1.49-.93.34.08-1.83z" fill="#bf5252"/><path d="M91.64,155.66a4.38,4.38,0,0,0-1.37-3.15,7,7,0,0,1-1,4.66,2.13,2.13,0,0,0-.63-1.12,1.17,1.17,0,0,0-1.21-.26,1.23,1.23,0,0,0-.62.67,1.58,1.58,0,0,0,2,2.08,3,3,0,0,1-2.33,2.37,3.88,3.88,0,0,1-2.26-.22l-.36,1.76c1.43,1.52,3.87.5,3.87.5l.32-1.73c2.8.17,3.07.12,3.38-1.42a15.54,15.54,0,0,0,.2-4.14" class="T"/><path d="M85.38,153.8a4.93,4.93,0,0,0-2.23-2.67,4.75,4.75,0,0,0-1.81,4,16.08,16.08,0,0,1,.3,2.77,4.21,4.21,0,0,0-.08,1.62,1.73,1.73,0,0,0,.88,1,9.16,9.16,0,0,0,1.81.24c0,.06.19,0,.26.1a13.82,13.82,0,0,0,1-2.8,7.39,7.39,0,0,0-.1-4.22" class="V"/><path d="M84.64,152.8a3.58,3.58,0,0,0-6.82-.08c-.85,2.56,1.32,5.28.85,7.94-.17,1-.68,1.83-.85,2.79a4.12,4.12,0,0,0,3.6,4.83,2.43,2.43,0,0,1-.28-2.54,11.16,11.16,0,0,1,1.5-2.27,12.65,12.65,0,0,0,2-10.67" class="J"/><g clip-path="url(#BL)"><g class="F"><path d="M91.11 173.49a20.25 20.25 0 0 0 2.44 2.86L93 170.4l-2.8-5.35a7.88 7.88 0 0 0-1.1 2.21c-.64 2.1.72 4.4 2 6.21"/></g></g><use xlink:href="#Bt" class="E"/><g class="f"><g class="I"><use xlink:href="#Bt"/></g></g><g class="f C"><g class="L"><use xlink:href="#Bt"/></g></g><path d="M97.92 165.28l3.65-10.58 7.22 3.87-3.69 10.69-7.18-3.98z" class="C"/><path d="M102.85 155.48l4.01 2.11.17-.54-.77-.68-2.21-1.11-.99-.18-.21.4z" class="E"/><path d="M104.05 155.26l.17-.4 2.15 1.14-.12.37-2.2-1.11z" class="J"/><path d="M102.98 154.19l4.85 2.6.22-.51-4.9-2.57-.17.48z" class="E"/><path d="M104.29,154.31c.43-1.32,3-.07,2.48,1.3Z" class="J"/><path d="M95.89,168.41l3.39,4.39,5.88-5.79a2,2,0,0,0,.59-1.2c.28-2.19.89-3.76,1.67-3.48.49.17-.14,2.31-.14,2.31l.74-.42.86-2.48h.38a1,1,0,0,1,.95.65l.37,1.06a3.12,3.12,0,0,1-1.09,3.53l-1.29,1a2.24,2.24,0,0,0-.49.53,65.24,65.24,0,0,1-6.89,8.81,1.76,1.76,0,0,1-2.23.23A30.72,30.72,0,0,1,92,171.1Z" class="T"/><path d="M102.92 168.47L99.3 172l-4.73-6.05a7.07 7.07 0 0 0-4.77-2.73l-.59-.08s-1.15 4.84 1.33 7.54l4.73 5c1.73 1.85 3.13 2.95 4.48 2.76s2.09-1 3.47-2.76l3.82-4.93a3.25 3.25 0 0 0-4-2.31l-.18.06" class="C"/><g clip-path="url(#BN)"><g class="F"><path d="M100.31,170.94l-1,.95L101,173.8a4.71,4.71,0,0,0-.66-2.86"/></g></g></g></g></svg>