<svg xmlns="http://www.w3.org/2000/svg" viewBox="0 0 288 288" xmlns:v="https://vecta.io/nano"><style><![CDATA[.B{fill:#24b2c0}.C{fill:#1a2e35}.D{fill:#2b454e}.E{fill:#375a64}.F{fill:#f4f4f4}.G{fill:none}.H{fill:#f9f9f9}.I{clip-path:url(#A)}.J{fill:#ffa9a7}.K{fill:#ebebeb}.L{stroke-miterlimit:9.549705386161804}.M{stroke-width:.497}]]></style><defs><clipPath id="A"><path d="M19.62 20.62h248.77v248.77H19.62z" class="G"/></clipPath><clipPath id="B"><path d="M199.7 189.06h35.02v11.09H199.7z" class="G"/></clipPath><clipPath id="C"><path d="M220.03 164.75h15.54v28.57h-15.54z" class="G"/></clipPath><clipPath id="D"><path d="M220.67 163.97h17.72v9.47h-17.72z" class="G"/></clipPath><clipPath id="E"><path d="M223.39 164.75h15.01v9.99h-15.01z" class="G"/></clipPath></defs><circle cx="144" cy="144" r="144" fill="#fff"/><g class="I"><g class="I"><path d="M70,232.89c42.35,22.6,111,22.6,153.39,0s42.35-59.27,0-81.88-111-22.6-153.39,0-42.36,59.26,0,81.88" fill="#efefef"/></g><g fill="#e0e0e0" class="I"><path d="M145.35 202.45l31 17.76a1.4 1.4 0 0 0 1.29 0l54.79-31.63a.4.4 0 0 0 0-.76l-31-17.82a1.42 1.42 0 0 0-1.3 0l-54.78 31.63c-.37.21-.37.55 0 .75"/><path d="M239.91,211.65c-.11-.79-1-1.19-1.58-1.5l-21.16-12.23a3,3,0,0,0-3,0L193,210.09c-.62.36-1.64,1-1.64,1.86s.56,1,1.58,1.56l21,12.13a3.5,3.5,0,0,0,3.46,0l21.65-12.41a1.63,1.63,0,0,0,.84-1.58"/></g><g class="I"><path d="M167.75 149l5-2.87a2.37 2.37 0 0 1 2.14 0l31.27 18m-40.43-16.37l7-4a2.37 2.37 0 0 1 2.14 0l33.28 19.22m2.04-1.22l-35.33-20.38a2.39 2.39 0 0 0-2.15 0l-9 5.21m48.5 14.01l-37.33-21.55a2.37 2.37 0 0 0-2.14 0l-11.06 6.38" stroke="#24b2c0" class="G L M"/><path d="M136.35,43.37,104.14,62a2.38,2.38,0,0,0-1.07,1.91V152.4a2.4,2.4,0,0,0,1.07,1.87l32.21,18.58a2.39,2.39,0,0,0,2.15,0l32.2-18.59a2.38,2.38,0,0,0,1.08-1.87V63.87A2.37,2.37,0,0,0,170.7,62L138.5,43.37a2.33,2.33,0,0,0-2.15,0" class="D"/><path d="M171.78 63.83v88.53a2.4 2.4 0 0 1-1.08 1.91l-32.2 18.58a2.23 2.23 0 0 1-1.07.26v-91a2.12 2.12 0 0 0 1.07-.26l32.2-18.59.3-.26.38-.33a2.29 2.29 0 0 1 .4 1.19" class="C"/><path d="M108.19,72.58,132.3,86.5a2.37,2.37,0,0,1,1.08,1.86v9.19c0,.69-.48,1-1.08.62L108.19,84.25a2.4,2.4,0,0,1-1.08-1.91V73.16c0-.69.48-1,1.08-.62" class="E"/><path d="M109.13,76.6a2.32,2.32,0,0,0,1.07,1.78L130.26,90c.59.34,1.08.09,1.08-.55a2.35,2.35,0,0,0-1.08-1.79L110.2,76.05c-.59-.34-1.07-.1-1.07.55" class="B"/><path d="M109.13,81.26a2.33,2.33,0,0,0,1.08,1.82l20.06,11.59c.59.34,1.08.1,1.08-.55a2.33,2.33,0,0,0-1.08-1.78l-20.06-11.6c-.59-.34-1.07-.09-1.07.55" class="C"/><path d="M110.21,80.71l11.05,6.38v2.34l-11.05-6.35a2.31,2.31,0,0,1-1.07-1.79c0-.64.48-.89,1.07-.55" class="B"/><path d="M108.19,88.89l24.11,13.92a2.36,2.36,0,0,1,1.08,1.91v9.18c0,.69-.48.95-1.08.63L108.19,100.6a2.37,2.37,0,0,1-1.08-1.87V89.56c0-.69.48-1,1.08-.62" class="E"/><path d="M109.13,92.93a2.28,2.28,0,0,0,1.07,1.78l20.06,11.6c.59.34,1.08.1,1.08-.55a2.33,2.33,0,0,0-1.08-1.78L110.2,92.38c-.59-.34-1.07-.09-1.07.55" class="B"/><path d="M109.13,97.6a2.32,2.32,0,0,0,1.07,1.78L130.26,111c.59.34,1.08.09,1.08-.55a2.33,2.33,0,0,0-1.08-1.78L110.2,97.05c-.59-.34-1.07-.1-1.07.55" class="C"/><path d="M110.21,97.05,127.32,107v2.34l-17.11-9.92a2.32,2.32,0,0,1-1.07-1.78c0-.65.48-.89,1.07-.55" class="B"/><path d="M108.19,105.22l24.11,13.92a2.39,2.39,0,0,1,1.08,1.91v9.18c0,.69-.48,1-1.08.62l-24.11-14a2.36,2.36,0,0,1-1.08-1.91v-9.19c0-.69.48-1,1.08-.62" class="E"/><path d="M109.13,109.27a2.32,2.32,0,0,0,1.07,1.78l20.06,11.6c.59.34,1.08.09,1.08-.55a2.34,2.34,0,0,0-1.07-1.77l-20.06-11.59c-.59-.34-1.07-.1-1.07.55" class="B"/><path d="M109.13,113.93a2.31,2.31,0,0,0,1.07,1.79l20.06,11.6c.59.34,1.08.09,1.08-.55a2.35,2.35,0,0,0-1.08-1.79l-20.06-11.6c-.59-.34-1.07-.09-1.07.55" class="C"/><path d="M110.21,113.38l7,4.05v2.33l-7-4a2.31,2.31,0,0,1-1.07-1.79c0-.64.48-.89,1.07-.55" class="B"/><path d="M108.19,121.56l24.11,13.92a2.37,2.37,0,0,1,1.08,1.86v9.19c0,.69-.48,1-1.08.62l-24.11-13.92a2.39,2.39,0,0,1-1.08-1.91v-9.18c0-.69.48-1,1.08-.62" class="E"/><path d="M109.13,125.6a2.35,2.35,0,0,0,1.08,1.79L130.27,139c.59.34,1.08.1,1.08-.55a2.33,2.33,0,0,0-1.08-1.78L110.21,125.1c-.59-.34-1.07-.09-1.07.55" class="B"/><path d="M109.13,130.27a2.29,2.29,0,0,0,1.07,1.78l20.06,11.6c.59.34,1.08.1,1.08-.55a2.31,2.31,0,0,0-1.07-1.76l-20.06-11.6c-.59-.34-1.07-.09-1.07.55" class="C"/><path d="M110.21,129.72l11.05,6.38v2.37l-11.05-6.42a2.29,2.29,0,0,1-1.07-1.78c0-.64.48-.89,1.07-.55" class="B"/><path d="M108.19,137.89l24.11,14a2.39,2.39,0,0,1,1.08,1.91v9.18c0,.69-.48.95-1.08.62l-24.11-13.93a2.35,2.35,0,0,1-1.08-1.91v-9.24c0-.69.48-.95,1.08-.62" class="E"/><path d="M109.13,141.94a2.33,2.33,0,0,0,1.08,1.78l20.06,11.6c.59.34,1.08.09,1.08-.55a2.33,2.33,0,0,0-1.08-1.78l-20.06-11.6c-.59-.34-1.07-.1-1.07.55" class="B"/><path d="M109.13,146.61a2.32,2.32,0,0,0,1.07,1.78L130.26,160c.59.34,1.08.09,1.08-.55a2.35,2.35,0,0,0-1.08-1.79l-20-11.54c-.59-.34-1.07-.1-1.07.54" class="C"/><path d="M110.21,146.11l15.1,8.71v2.33l-15.1-8.76a2.32,2.32,0,0,1-1.07-1.78c0-.65.48-.89,1.07-.55" class="B"/><path d="M142.48,87.69c1.11-.65,2-.06,2,1.31v53.37a4.67,4.67,0,0,1-2,3.66c-1.12.64-2,.06-2-1.31V91.34a4.59,4.59,0,0,1,2-3.65" class="D"/><path d="M142.48,144.85a2.33,2.33,0,0,0,1-1.82V89.5c0-.69-.45-1-1-.66a2.32,2.32,0,0,0-.95,1.82V144.2c0,.69.45,1,1,.66" class="C"/><path d="M142.48,144.85a2.33,2.33,0,0,0,1-1.82V117.46l-2,1.17V144.2c0,.69.45,1,1,.66" class="B"/><path d="M148.54,84.18c1.11-.65,2-.06,2,1.32v53.37a4.65,4.65,0,0,1-2,3.66c-1.11.65-2,.06-2-1.32V87.86a4.67,4.67,0,0,1,2-3.66" class="D"/><path d="M148.54,141.34a2.31,2.31,0,0,0,1-1.83V86c0-.68-.45-1-1-.67a2.34,2.34,0,0,0-1,1.84v53.48c0,.68.45.95,1,.66" class="B"/><path d="M154.6,80.69c1.12-.65,2-.06,2,1.31v53.37a4.62,4.62,0,0,1-2,3.66c-1.12.64-2,.06-2-1.31V84.34a4.58,4.58,0,0,1,2-3.65" class="D"/><path d="M154.6,137.85a2.3,2.3,0,0,0,1-1.83V82.54c0-.69-.45-1-1-.66a2.3,2.3,0,0,0-1,1.82v53.48c0,.69.45,1,1,.66" class="C"/><path d="M154.6,137.85a2.3,2.3,0,0,0,1-1.83V94.68l-2,1.17v41.34c0,.69.45,1,1,.66" class="B"/><path d="M160.66,77.18c1.12-.65,2-.06,2,1.32v53.37a4.66,4.66,0,0,1-2,3.66c-1.11.65-2,.06-2-1.32V80.84a4.64,4.64,0,0,1,2-3.66" class="D"/><path d="M160.66,134.35a2.29,2.29,0,0,0,1-1.83V79c0-.68-.45-1-1-.67a2.37,2.37,0,0,0-1,1.84v53.48c0,.68.46.95,1,.66" class="C"/><path d="M160.66,134.35a2.29,2.29,0,0,0,1-1.83v-9l-2,1.16v9c0,.68.46,1,1,.65" class="B"/><path d="M166.73,73.69c1.12-.65,2-.06,2,1.3v53.38a4.59,4.59,0,0,1-2,3.65c-1.12.65-2,.06-2-1.3V77.35a4.62,4.62,0,0,1,2-3.65" class="D"/><path d="M166.73,130.83a2.28,2.28,0,0,0,1-1.83V75.52c0-.69-.45-1-1-.66a2.3,2.3,0,0,0-1,1.82v53.53c0,.69.45,1,1,.66" class="C"/><path d="M166.73,130.83a2.28,2.28,0,0,0,1-1.83V101.07l-2,1.18v27.92c0,.69.45,1,1,.66" class="B"/><path d="M141.32,152.53l26.57-15.35c.47-.28.86-.05.86.5v9.68a1.88,1.88,0,0,1-.86,1.49l-26.57,15.34c-.48.28-.86.06-.86-.5V154a1.88,1.88,0,0,1,.86-1.49" class="D"/><path d="M142.41,155.39c0,.65.48.89,1.07.55l22.24-12.84a2.35,2.35,0,0,0,1.08-1.79c0-.64-.48-.89-1.08-.55l-22.24,12.85a2.32,2.32,0,0,0-1.07,1.78" class="C"/><path d="M142.41,155.39c0,.65.48.89,1.07.55l16.17-9.34v-2.33l-16.17,9.34a2.32,2.32,0,0,0-1.07,1.78" class="B"/><path d="M142.41,160.06c0,.64.48.89,1.07.55l22.24-12.85A2.31,2.31,0,0,0,166.8,146c0-.64-.48-.89-1.08-.55l-22.24,12.85a2.29,2.29,0,0,0-1.07,1.78" class="C"/><path d="M142.41,160.06c0,.64.48.89,1.07.55l6.07-3.51v-2.33l-6.07,3.51a2.29,2.29,0,0,0-1.07,1.78" class="B"/><path d="M170.7,62l-32.2-18.6a2.39,2.39,0,0,0-2.15,0L104.15,62a.65.65,0,0,0-.43.81.62.62,0,0,0,.43.43l32.2,18.59a2.33,2.33,0,0,0,2.15,0l32.2-18.59a.65.65,0,0,0,0-1.24" class="E"/><path d="M136.78,77.35l-25-14.43a1.44,1.44,0,0,1-.65-1.11V61a1.45,1.45,0,0,1,.65-1.12l25-14.42a1.4,1.4,0,0,1,1.29,0l25,14.42A1.45,1.45,0,0,1,163.7,61v.84a1.44,1.44,0,0,1-.65,1.11l-25,14.43a1.46,1.46,0,0,1-1.29,0" class="C"/><path d="M111.8,60.63l25,14.42a1.4,1.4,0,0,0,1.29,0l25-14.42c.36-.21.36-.54,0-.74L138.07,46a1.4,1.4,0,0,0-1.29,0l-25,13.93c-.35.2-.35.53,0,.74" class="E"/><path d="M137.43,75.2v2.34a1.22,1.22,0,0,1-.65-.15L111.8,63a1.38,1.38,0,0,1-.65-1.12V61a1.44,1.44,0,0,1,.52-1c-.22.2-.19.48.13.66l25,14.42a1.22,1.22,0,0,0,.65.15" class="D"/><path d="M136.78,70.39l-16.9-9.76a1.41,1.41,0,0,1-.64-1.12v-.84a1.42,1.42,0,0,1,.64-1.12l10.84-6.25a4.93,4.93,0,0,0,1.09-.95l5.17-7a.86.86,0,0,1,1.09-.22L155,52.91a1.38,1.38,0,0,1,.65,1.11v5.51a1.39,1.39,0,0,1-.65,1.12l-16.89,9.76a1.46,1.46,0,0,1-1.29,0" class="C"/><path d="M138.07 68.05l10.84-6.25a3.28 3.28 0 0 0 .56-.42 4.68 4.68 0 0 0 .53-.56l5.17-7A.65.65 0 0 0 155 53h-.08l-16.89-9.76a.86.86 0 0 0-1.09.22l-5.17 7a4.4 4.4 0 0 1-1 1l-10.92 6.22c-.36.2-.36.53 0 .74l16.9 9.75a1.4 1.4 0 0 0 1.29 0" class="E"/><path d="M155 52.89l-16.89-9.76a.85.85 0 0 0-1.09.23l-5.18 7a3.78 3.78 0 0 1-.52.54l18.19 10.51a4.68 4.68 0 0 0 .53-.56l5.17-7A.65.65 0 0 0 155 53h-.08" class="D"/><path d="M126.26,56.41a1.69,1.69,0,0,1,1.52,0,.47.47,0,0,1,0,.88,1.69,1.69,0,0,1-1.52,0c-.42-.25-.42-.64,0-.88" class="B"/><path d="M129.31,58.16a1.69,1.69,0,0,1,1.52,0c.42.25.42.64,0,.88a1.76,1.76,0,0,1-1.52,0c-.42-.24-.42-.63,0-.88" class="C"/><path d="M132.32,59.91a1.67,1.67,0,0,1,1.51,0,.47.47,0,0,1,.29.59.45.45,0,0,1-.29.28,1.67,1.67,0,0,1-1.51,0,.46.46,0,0,1-.29-.58.49.49,0,0,1,.29-.29" class="B"/><path d="M135.35,61.66a1.64,1.64,0,1,0,.46,2.28,1.67,1.67,0,0,0,0-1.82m-7.28-7a1.64,1.64,0,1,0,.46,2.28,1.67,1.67,0,0,0,0-1.82" class="C"/><path d="M131.56,56.85a1.63,1.63,0,0,1,1.52,0,.46.46,0,0,1,0,.87,1.63,1.63,0,0,1-1.52,0,.46.46,0,0,1-.29-.58.44.44,0,0,1,.29-.29" class="B"/><path d="M134.59,58.6a1.67,1.67,0,0,1,1.51,0c.42.24.42.63,0,.88a1.74,1.74,0,0,1-1.51,0c-.42-.25-.42-.64,0-.88" class="C"/><path d="M136.12 64.69a1.69 1.69 0 0 1 1.52 0c.42.24.42.63 0 .88a1.69 1.69 0 0 1-1.52 0c-.42-.25-.42-.64 0-.88m-5.32-10.91a1.76 1.76 0 0 1 1.52 0 .47.47 0 0 1 .28.6.46.46 0 0 1-.28.28 1.69 1.69 0 0 1-1.52 0c-.42-.24-.42-.63 0-.88" class="B"/><path d="M133.83,55.53a1.69,1.69,0,0,1,1.52,0c.42.25.42.64,0,.88a1.69,1.69,0,0,1-1.52,0,.47.47,0,0,1-.28-.6.48.48,0,0,1,.28-.28" class="C"/><path d="M136.87 57.3a1.61 1.61 0 0 1 1.51 0 .46.46 0 0 1 0 .87 1.61 1.61 0 0 1-1.51 0 .46.46 0 0 1-.29-.58.42.42 0 0 1 .29-.29" class="B"/><path d="M139.89,59a1.69,1.69,0,0,1,1.52,0,.46.46,0,0,1,0,.87,1.69,1.69,0,0,1-1.52,0,.46.46,0,0,1,0-.87" class="C"/><path d="M140.67,62.07a1.69,1.69,0,0,1,1.52,0c.42.24.42.63,0,.88a1.69,1.69,0,0,1-1.52,0,.46.46,0,0,1-.28-.6.48.48,0,0,1,.28-.28" class="B"/><path d="M142.94,60.76a1.63,1.63,0,0,1,1.52,0,.46.46,0,0,1,.29.58.47.47,0,0,1-.29.28,1.63,1.63,0,0,1-1.52,0,.46.46,0,0,1-.29-.58.45.45,0,0,1,.29-.28" class="C"/><path d="M137.46,68.2v2.33a1.23,1.23,0,0,1-.68-.14l-16.89-9.76a1.38,1.38,0,0,1-.65-1.12v-.84a1.46,1.46,0,0,1,.52-1c-.23.21-.19.49.13.67l16.89,9.75a1.16,1.16,0,0,0,.68.15" class="D"/><path d="M134.09,50h0a.56.56,0,0,1,.72-.15l14.7,8.49a.43.43,0,0,1,.18.58l-.05.07h0a.57.57,0,0,1-.72.15l-14.71-8.49a.43.43,0,0,1-.18-.58l.05-.07" class="C"/><path d="M134.09 50h0a.56.56 0 0 1 .72-.15l10.93 6.31-.6.82-10.94-6.28a.43.43 0 0 1-.18-.58v-.07" class="B"/><path d="M135.25 48.4h0a.57.57 0 0 1 .73-.15l14.7 8.48a.43.43 0 0 1 .17.6v.05h0a.57.57 0 0 1-.73.16l-14.72-8.49a.44.44 0 0 1-.18-.6v-.05" class="C"/><path d="M135.25 48.4h0a.57.57 0 0 1 .73-.15l3.66 2.11-.62.82-3.64-2.11a.44.44 0 0 1-.18-.6h0" class="B"/><path d="M136.47 46.79h0a.57.57 0 0 1 .73-.14l14.71 8.49a.43.43 0 0 1 .18.57l-.05.07h0a.56.56 0 0 1-.72.14l-14.7-8.48a.44.44 0 0 1-.17-.6v-.05" class="C"/><path d="M136.47,46.79h0a.57.57,0,0,1,.73-.14l7.64,4.4-.61.82-7.64-4.41a.41.41,0,0,1-.18-.56.35.35,0,0,1,.05-.08" class="B"/><path d="M137.69 45.14h0a.55.55 0 0 1 .72-.15l14.72 8.49a.43.43 0 0 1 .18.58l-.05.07h0a.57.57 0 0 1-.73.14l-14.71-8.43a.44.44 0 0 1-.17-.6v-.05" class="C"/><path d="M137.69 45.14h0a.55.55 0 0 1 .72-.15l13.37 7.71-.61.81-13.37-7.7a.45.45 0 0 1-.17-.6v-.05" class="B"/><g stroke="#24b2c0" class="G L M"><path d="M111.17,181.61l5-2.87a2.41,2.41,0,0,1,2.16,0l29.61,17.11a1.1,1.1,0,0,0,1.49-.41,1.08,1.08,0,0,0,.15-.55V170.4"/><path d="M109.13,180.49l7-4.05a2.41,2.41,0,0,1,2.16,0l31.64,18.27a1.1,1.1,0,0,0,1.5-.41,1.15,1.15,0,0,0,.14-.55V170.42"/><path d="M107.11,179.27l9-5.22a2.41,2.41,0,0,1,2.16,0L152,193.48a1.1,1.1,0,0,0,1.65-1v-22"/><path d="M105.08,178.1l11-6.38a2.41,2.41,0,0,1,2.16,0L154,192.32a1.1,1.1,0,0,0,1.5-.41,1.11,1.11,0,0,0,.14-.54V170.51"/></g><path d="M77.74,77.21,45.54,95.8a2.4,2.4,0,0,0-1.08,1.91v88.51a2.43,2.43,0,0,0,1.08,1.91l32.2,18.53a2.41,2.41,0,0,0,2.16,0l32.22-18.6a2.37,2.37,0,0,0,1.08-1.91V97.63a2.37,2.37,0,0,0-1.08-1.91l-32.2-18.6a2.41,2.41,0,0,0-2.16,0" class="D"/><path d="M113.17,97.66v88.56a2.4,2.4,0,0,1-1.08,1.91l-32.2,18.53a2.23,2.23,0,0,1-1.08.25v-91a2.36,2.36,0,0,0,1.08-.26L112.12,97l.3-.23.38-.33a2.2,2.2,0,0,1,.4,1.18" class="C"/><path d="M49.57,106.38l24.13,14a2.36,2.36,0,0,1,1.07,1.91v9.18c0,.69-.48,1-1.07.62l-24.13-14a2.39,2.39,0,0,1-1.07-1.91V107c0-.69.48-1,1.07-.62" class="E"/><path d="M50.52,110.42a2.3,2.3,0,0,0,1.08,1.8L71.65,123.8c.6.35,1.08.11,1.08-.54a2.28,2.28,0,0,0-1.08-1.79L51.6,109.88c-.6-.34-1.08-.1-1.08.54" class="B"/><path d="M50.52,115.09a2.28,2.28,0,0,0,1.08,1.79l20.05,11.59c.6.35,1.08.11,1.08-.54a2.28,2.28,0,0,0-1.08-1.79L51.6,114.55c-.6-.35-1.08-.1-1.08.54" class="C"/><path d="M51.6,114.6l11,6.38v2.33l-11-6.38a2.29,2.29,0,0,1-1.08-1.79c0-.64.48-.89,1.08-.54" class="B"/><path d="M49.57,122.71,73.7,136.64a2.39,2.39,0,0,1,1.07,1.91v9.17c0,.69-.48,1-1.07.63l-24.13-14a2.37,2.37,0,0,1-1.07-1.86v-9.19c0-.68.48-1,1.07-.62" class="E"/><path d="M50.52,126.76a2.28,2.28,0,0,0,1.08,1.79l20.05,11.59c.6.35,1.08.1,1.08-.54a2.28,2.28,0,0,0-1.08-1.79L51.6,126.22c-.6-.35-1.08-.11-1.08.54" class="B"/><path d="M50.52,131.43a2.28,2.28,0,0,0,1.08,1.79l20.05,11.59c.6.35,1.08.1,1.08-.54a2.3,2.3,0,0,0-1.08-1.8L51.6,130.89c-.6-.35-1.08-.11-1.08.54" class="C"/><path d="M51.6,130.89l17.11,9.87v2.34L51.6,133.22a2.28,2.28,0,0,1-1.08-1.79c0-.65.48-.89,1.08-.54" class="B"/><path d="M49.57 139.05L73.7 153a2.37 2.37 0 0 1 1.07 1.86V164c0 .68-.48.95-1.07.62l-24.13-13.9a2.39 2.39 0 0 1-1.07-1.91v-9.17c0-.69.48-1 1.07-.62" class="E"/><path d="M50.52,143.1a2.29,2.29,0,0,0,1.08,1.79l20.05,11.59c.6.35,1.08.1,1.08-.54a2.3,2.3,0,0,0-1.08-1.8L51.6,142.55c-.6-.35-1.08-.1-1.08.55" class="B"/><path d="M50.52,147.76a2.3,2.3,0,0,0,1.08,1.8l20.05,11.58c.6.35,1.08.11,1.08-.54a2.28,2.28,0,0,0-1.08-1.79L51.6,147.22c-.6-.35-1.08-.1-1.08.54" class="C"/><path d="M51.6,147.22l7,4.05v2.33l-7-4a2.3,2.3,0,0,1-1.08-1.8c0-.64.48-.89,1.08-.54" class="B"/><path d="M49.57,155.39,73.7,169.32a2.37,2.37,0,0,1,1.07,1.86v9.18c0,.68-.48.95-1.07.63L49.57,167.05a2.39,2.39,0,0,1-1.07-1.91V156c0-.69.48-1,1.07-.62" class="E"/><path d="M50.52,159.48a2.29,2.29,0,0,0,1.08,1.79l20.05,11.59c.6.34,1.08.1,1.08-.55a2.28,2.28,0,0,0-1.08-1.78L51.6,158.94c-.6-.35-1.08-.1-1.08.54" class="B"/><path d="M50.52,164.1a2.29,2.29,0,0,0,1.08,1.79l20.05,11.59c.6.35,1.08.1,1.08-.54a2.28,2.28,0,0,0-1.08-1.79L51.6,163.56c-.6-.35-1.08-.11-1.08.54" class="C"/><path d="M51.6,163.56l11,6.42v2.33l-11-6.37a2.31,2.31,0,0,1-1.08-1.79c0-.65.48-.89,1.08-.54" class="B"/><path d="M49.57,171.72,73.7,185.65a2.39,2.39,0,0,1,1.07,1.91v9.16c0,.69-.48,1-1.07.62l-24.13-14a2.37,2.37,0,0,1-1.07-1.86v-9.18c0-.69.48-1,1.07-.63" class="E"/><path d="M50.52,175.77a2.29,2.29,0,0,0,1.08,1.79l20.05,11.59c.6.34,1.08.1,1.08-.54a2.3,2.3,0,0,0-1.08-1.8L51.6,175.23c-.6-.35-1.08-.11-1.08.54" class="B"/><path d="M50.52,180.43a2.31,2.31,0,0,0,1.08,1.8l20.05,11.59c.6.34,1.08.1,1.08-.54a2.3,2.3,0,0,0-1.08-1.8L51.6,179.89c-.6-.35-1.08-.1-1.08.54" class="C"/><path d="M51.6,179.89l15.09,8.72v2.33L51.6,182.23a2.31,2.31,0,0,1-1.08-1.8c0-.64.48-.89,1.08-.54" class="B"/><path d="M83.87,121.52c1.11-.65,2-.06,2,1.31V176.2a4.62,4.62,0,0,1-2,3.66c-1.12.65-2,.06-2-1.31V125.18a4.62,4.62,0,0,1,2-3.66" class="D"/><path d="M83.87,178.68a2.31,2.31,0,0,0,1-1.83V123.37c0-.68-.45-1-1-.66a2.33,2.33,0,0,0-1,1.83V178c0,.67.46.95,1,.65" class="C"/><path d="M83.87,178.68a2.31,2.31,0,0,0,1-1.83V151.27l-2,1.16V178c0,.67.46.95,1,.65" class="B"/><path d="M89.93,118c1.12-.65,2-.06,2,1.31v53.38a4.59,4.59,0,0,1-2,3.65c-1.12.65-2,.06-2-1.31V121.67a4.59,4.59,0,0,1,2-3.65" class="D"/><path d="M89.93,175.18a2.28,2.28,0,0,0,1-1.82V119.83c0-.69-.45-1-1-.66a2.34,2.34,0,0,0-1,1.83v53.48c0,.69.46,1,1,.66" class="B"/><path d="M96,114.52c1.12-.65,2-.07,2,1.31V169.2a4.63,4.63,0,0,1-2,3.66c-1.11.65-2,.06-2-1.31V118.18a4.62,4.62,0,0,1,2-3.66" class="D"/><path d="M96,171.68a2.32,2.32,0,0,0,1-1.83V116.37c0-.68-.46-1-1-.66a2.32,2.32,0,0,0-1,1.83V171c0,.68.46.95,1,.66" class="C"/><path d="M96,171.68a2.32,2.32,0,0,0,1-1.83V128.51l-2,1.17V171c0,.68.46.95,1,.66" class="B"/><path d="M102.06,111c1.12-.65,2-.06,2,1.31v53.38a4.61,4.61,0,0,1-2,3.65c-1.12.65-2,.06-2-1.31V114.67a4.62,4.62,0,0,1,2-3.65" class="D"/><path d="M102.06,168.18a2.33,2.33,0,0,0,1-1.82V112.88c0-.69-.46-1-1-.66a2.28,2.28,0,0,0-1,1.82v53.48c0,.69.44,1,1,.66" class="C"/><path d="M102.06,168.18a2.33,2.33,0,0,0,1-1.82v-9l-2,1.21v9c0,.69.44.95,1,.66" class="B"/><path d="M108.12,107.51c1.12-.64,2-.06,2,1.32V162.2a4.62,4.62,0,0,1-2,3.66c-1.12.65-2,.06-2-1.32V111.18a4.62,4.62,0,0,1,2-3.67" class="D"/><path d="M108.12,164.68a2.31,2.31,0,0,0,1-1.83V109.37c0-.68-.45-1-1-.66a2.28,2.28,0,0,0-1,1.83V164c0,.68.45.95,1,.66" class="C"/><path d="M108.12,164.68a2.31,2.31,0,0,0,1-1.83V134.93l-2,1.16V164c0,.68.45.95,1,.66" class="B"/><path d="M82.71,186.35,109.26,171c.48-.28.86-.05.86.49v9.69a2,2,0,0,1-.86,1.49L82.71,198c-.48.28-.86.06-.86-.49v-9.68a1.91,1.91,0,0,1,.86-1.5" class="D"/><path d="M83.8,189.23c0,.64.49.89,1.08.54l22.23-12.84a2.28,2.28,0,0,0,1.08-1.79c0-.64-.49-.89-1.08-.54L84.88,187.44a2.28,2.28,0,0,0-1.08,1.79" class="C"/><path d="M83.8,189.23c0,.64.49.89,1.08.54l16.17-9.34V178.1l-16.17,9.34a2.28,2.28,0,0,0-1.08,1.79" class="B"/><path d="M83.8,193.86c0,.64.49.89,1.08.54l22.23-12.84a2.33,2.33,0,0,0,1.08-1.79c0-.65-.49-.88-1.08-.54L84.88,192.06a2.31,2.31,0,0,0-1.08,1.8" class="C"/><path d="M83.8,193.86c0,.64.49.89,1.08.54l6.06-3.5v-2.33l-6.06,3.49a2.31,2.31,0,0,0-1.08,1.8" class="B"/><path d="M112.12,95.8,79.92,77.21a2.41,2.41,0,0,0-2.16,0L45.56,95.8a.66.66,0,0,0,0,1.24l32.18,18.6a2.41,2.41,0,0,0,2.16,0L112.12,97a.65.65,0,0,0,.4-.84.66.66,0,0,0-.4-.4" class="E"/><path d="M78.16,111.22l-25-14.42a1.43,1.43,0,0,1-.65-1.12v-.84a1.42,1.42,0,0,1,.65-1.12l25-14.46a1.48,1.48,0,0,1,1.3,0l25,14.46a1.41,1.41,0,0,1,.64,1.12v.84a1.42,1.42,0,0,1-.64,1.12l-25,14.42a1.42,1.42,0,0,1-1.3,0" class="C"/><path d="M53.19,94.47l25,14.4a1.42,1.42,0,0,0,1.3,0l25-14.4c.36-.21.36-.55,0-.75l-25-13.92a1.42,1.42,0,0,0-1.3,0l-25,13.92c-.36.2-.36.54,0,.75" class="E"/><path d="M78.81,109v2.34a1.49,1.49,0,0,1-.65-.16l-25-14.42a1.43,1.43,0,0,1-.65-1.12v-.84a1.4,1.4,0,0,1,.53-1c-.23.21-.19.48.12.67l25,14.4a1.47,1.47,0,0,0,.65.15" class="D"/><path d="M78.16,104.22,61.27,94.47a1.46,1.46,0,0,1-.65-1.12v-.84a1.46,1.46,0,0,1,.65-1.13L72.1,85.13a4.4,4.4,0,0,0,1.1-1l5.17-7A.84.84,0,0,1,79.46,77l16.9,9.76A1.45,1.45,0,0,1,97,87.85v5.51a1.46,1.46,0,0,1-.65,1.12l-16.9,9.74a1.42,1.42,0,0,1-1.3,0" class="C"/><path d="M79.46,101.89l10.83-6.26a3.8,3.8,0,0,0,.57-.42,3.39,3.39,0,0,0,.52-.55l5.18-7a.65.65,0,0,0-.12-.9l-.08-.06L79.46,77a.84.84,0,0,0-1.09.23l-5.17,7a4.31,4.31,0,0,1-1,1L61.27,91.38a.4.4,0,0,0,0,.75l16.89,9.76a1.42,1.42,0,0,0,1.3,0" class="E"/><path d="M96.36,86.72,79.46,77a.84.84,0,0,0-1.09.23l-5.17,7a4,4,0,0,1-.54.55l18.2,10.5a3.39,3.39,0,0,0,.52-.55l5.18-7a.65.65,0,0,0-.12-.9l-.08-.06" class="D"/><path d="M67.64,90.24a1.69,1.69,0,0,1,1.52,0,.47.47,0,0,1,.29.59.45.45,0,0,1-.29.28,1.63,1.63,0,0,1-1.52,0,.46.46,0,0,1-.29-.58.49.49,0,0,1,.29-.29" class="B"/><path d="M70.68,92a1.69,1.69,0,0,1,1.52,0,.47.47,0,0,1,0,.88,1.69,1.69,0,0,1-1.52,0c-.42-.25-.42-.64,0-.88" class="C"/><path d="M73.7 93.74a1.69 1.69 0 0 1 1.52 0c.42.25.42.64 0 .88a1.69 1.69 0 0 1-1.52 0c-.42-.24-.42-.63 0-.88m-.7-3.02a1.63 1.63 0 0 1 1.52 0 .46.46 0 0 1 0 .87 1.63 1.63 0 0 1-1.52 0 .46.46 0 0 1 0-.87" class="B"/><path d="M76,92.43a1.69,1.69,0,0,1,1.52,0c.42.24.42.63,0,.88a1.69,1.69,0,0,1-1.52,0,.46.46,0,0,1-.28-.6.48.48,0,0,1,.28-.28" class="C"/><path d="M77.51 98.52a1.69 1.69 0 0 1 1.52 0 .46.46 0 0 1 .29.58.42.42 0 0 1-.29.29 1.63 1.63 0 0 1-1.52 0 .46.46 0 0 1-.28-.58.47.47 0 0 1 .28-.29m-5.31-10.9a1.65 1.65 0 0 1 1.5 0c.42.24.42.63 0 .88a1.65 1.65 0 0 1-1.5 0c-.42-.25-.42-.64 0-.88" class="B"/><path d="M75.22,89.37a1.69,1.69,0,0,1,1.52,0c.42.24.42.64,0,.87a1.69,1.69,0,0,1-1.52,0c-.42-.23-.42-.63,0-.87" class="C"/><path d="M78.25 91.12a1.69 1.69 0 0 1 1.52 0 .46.46 0 0 1 0 .87 1.63 1.63 0 0 1-1.52 0 .46.46 0 0 1-.29-.58.49.49 0 0 1 .29-.29" class="B"/><path d="M81.29,92.87a1.69,1.69,0,0,1,1.52,0,.46.46,0,0,1,0,.87,1.63,1.63,0,0,1-1.52,0,.46.46,0,0,1-.29-.58.44.44,0,0,1,.29-.29" class="C"/><path d="M82.06,95.9a1.69,1.69,0,0,1,1.52,0c.42.24.42.63,0,.88a1.69,1.69,0,0,1-1.52,0c-.42-.25-.42-.64,0-.88" class="B"/><path d="M84.33,94.54a1.69,1.69,0,0,1,1.52,0c.42.25.42.64,0,.88a1.69,1.69,0,0,1-1.52,0c-.42-.24-.42-.63,0-.88" class="C"/><path d="M78.85,102v2.33a1.39,1.39,0,0,1-.69-.15L61.27,94.47a1.48,1.48,0,0,1-.65-1.13V92.5a1.42,1.42,0,0,1,.54-1c-.24.2-.2.48.11.66l16.89,9.76a1.39,1.39,0,0,0,.69.15" class="D"/><path d="M75.43 83.87h0a.58.58 0 0 1 .73-.16l14.71 8.49a.42.42 0 0 1 .17.58.16.16 0 0 1 0 .07h0a.57.57 0 0 1-.73.15l-14.73-8.49a.43.43 0 0 1-.18-.58v-.06" class="C"/><path d="M75.43 83.87h0a.58.58 0 0 1 .73-.16L87.09 90l-.61.82-10.92-6.29a.43.43 0 0 1-.18-.58.43.43 0 0 0 0-.07" class="B"/><path d="M76.65 82.23h0a.57.57 0 0 1 .72-.15l14.7 8.47a.43.43 0 0 1 .18.58v.07h0a.56.56 0 0 1-.72.15l-14.74-8.47a.43.43 0 0 1-.18-.58v-.07" class="C"/><path d="M76.65 82.23h0a.57.57 0 0 1 .72-.15L81 84.19l-.6.82-3.63-2.13a.43.43 0 0 1-.18-.58v-.07" class="B"/><path d="M77.86 80.6h0a.56.56 0 0 1 .72-.15l14.71 8.49a.43.43 0 0 1 .17.59v.06h0a.57.57 0 0 1-.72.15L78 81.25a.44.44 0 0 1-.16-.6v-.05" class="C"/><path d="M77.86 80.6h0a.56.56 0 0 1 .72-.15l7.64 4.41-.61.82L78 81.27a.44.44 0 0 1-.16-.6h0" class="B"/><path d="M79.08 79h0a.56.56 0 0 1 .73-.15l14.7 8.49a.43.43 0 0 1 .19.57v.07h0a.56.56 0 0 1-.73.16l-14.7-8.49a.44.44 0 0 1-.18-.57v-.07" class="C"/><path d="M79.08 79h0a.56.56 0 0 1 .73-.15l13.37 7.7-.61.82-13.37-7.73a.42.42 0 0 1-.19-.56V79" class="B"/><path d="M147.25,174.25V201.5a.68.68,0,0,0,.32.55l26.12,15.06a.66.66,0,0,0,.64,0l.87-.49a.73.73,0,0,0,.32-.57V188.81a.37.37,0,0,0-.35-.38h0l-27.53-14.56a.37.37,0,0,0-.37.37h0" class="H"/><path d="M175.15,188.44h-.76a.38.38,0,0,0-.38.36v28.14c0,.21.15.29.32.18l.87-.49a.73.73,0,0,0,.32-.57V188.82a.37.37,0,0,0-.35-.38h0" class="F"/><path d="M199.26,143v27.24a.72.72,0,0,0,.32.56l27.14,15.67a.74.74,0,0,0,.65,0l.87-.51a.69.69,0,0,0,.32-.55V158.19a.37.37,0,0,0-.37-.37h0l-28.56-15.16a.38.38,0,0,0-.38.36v0" fill="#e0e0e0"/><path d="M228.2,157.82h-.77a.38.38,0,0,0-.38.37v28.12c0,.21.15.3.33.2l.87-.51a.69.69,0,0,0,.32-.55V158.19a.37.37,0,0,0-.37-.37h0" class="K"/><path d="M144.7,173.4v-.25a1.38,1.38,0,0,1,.65-1.12l54.78-31.65a1.48,1.48,0,0,1,1.3,0l29,16.76a1.41,1.41,0,0,1,.64,1.12v.26a1.41,1.41,0,0,1-.64,1.11l-54.79,31.65a1.46,1.46,0,0,1-1.29,0l-29-16.76a1.38,1.38,0,0,1-.65-1.12" class="F"/><path d="M175,189.69v1.74a1.32,1.32,0,0,1-.65-.15l-29-16.76a1.39,1.39,0,0,1-.65-1.12v-.25a1.44,1.44,0,0,1,.52-1c-.23.2-.19.48.13.66l29,16.76a1.33,1.33,0,0,0,.65.16" class="K"/><path d="M145.35,172.77l29,16.75a1.4,1.4,0,0,0,1.29,0l54.79-31.63c.36-.21.36-.54,0-.74l-29-16.77a1.48,1.48,0,0,0-1.3,0L145.35,172c-.37.2-.37.53,0,.74" class="H"/><path d="M209.53,150.32l4.92,2.87a1.12,1.12,0,0,1,.52.88,1.15,1.15,0,0,1-.52.88l-15.87,9.17a1.23,1.23,0,0,1-1.06,0l-4.92-2.86a1,1,0,0,1,0-1.76l15.87-9.17a1.23,1.23,0,0,1,1.06,0" class="D"/><path d="M198.07,164.25a1,1,0,0,1-.52-.12l-4.92-2.86a1,1,0,0,1,0-1.76l.5-.3h4.94Z" class="C"/><path d="M192.59,159.48l15.87-9.17a1.23,1.23,0,0,1,1.06,0l4.91,2.87a.33.33,0,0,1,0,.62L198.56,163a1.17,1.17,0,0,1-1.06,0l-4.91-2.87c-.3-.17-.3-.44,0-.61" class="E"/><path d="M207.09,154.55l.5-.28h0l-.58-.34h-.08l-.49.29v.05l.57.33h.08m-1-1.15-.51.29m0,0,.59.33h.07l.51-.28h0l-.57-.34h-.08m-1.62,1-.84.48h0l.58.34h.07l.85-.5h0l-.57-.33a.06.06,0,0,0-.08,0m.88-.52-.49.29v.05l.57.33h.09l.49-.29h0l-.58-.33h-.08m-1.91,1.14-.5.28v0l.57.33h.09l.49-.29h0l-.58-.34a.06.06,0,0,0-.08,0m-.73.42-.5.29v0l.58.33h0l.49-.28v-.05l-.57-.34h-.09m2.28,1.36.5-.29v0l-.57-.34a.07.07,0,0,0-.09,0l-.49.29v0l.58.33H205m-.73.42.5-.29v0l-.59-.34h-.07l-.5.29V157l.57.33a.14.14,0,0,0,.09,0m-.74.42.51-.29v0l-.57-.34h-.09l-.5.29h0l.59.33h.07m-.72.42.49-.28v-.05l-.58-.34h-.07l-.5.29h0l.57.34h.09m3.59-3,.5-.29h0l-.57-.33h-.08l-.5.28m0,.05.58.34h.08m-.67,1.34,1.11-.65h0l-1.41-.8h-.07l-.59.34h0l.75.42h0l-.46.27v.05l.57.33h.09m-3.73-.51-.51.29v0l.57.34h.09l.5-.29m0,0-.59-.33H202m-.74.42-.5.29v0l.59.34h.07l.5-.29v-.05l-.57-.33h-.09m-3.65,4.73a.06.06,0,0,0,.08,0l.51-.29v-.05l-.58-.33h-.07l-.51.28v.05Zm-2.19-1.36-.5.3h0l.58.33a.06.06,0,0,0,.08,0l.51-.29v0l-.58-.34h-.08m1.18,1h.08l.49-.29m0-.05-.58-.33h-.08l-.49.28v.05Zm1.73,1,.5-.29h0l-.57-.33h-.09l-.5.28m0,0,.59.34h.07m-.81.42h.09l.49-.29h0l-.58-.34a.11.11,0,0,0-.08,0l-.5.29v0Zm-1.91-2.46-.5.29v.05l.58.33a.06.06,0,0,0,.08,0l.5-.29v0l-.58-.34h-.08m3.65-2.11-.5.3h0l.58.33H200l.5-.3v0l-.58-.33h-.08m-2.92,1.69-.5.29v0l.58.33h.08l.5-.29h0l-.58-.33h-.08m3.65-2.11-.5.29h0l.57.33a.08.08,0,0,0,.09,0l.49-.29v0l-.58-.34h-.08m-1.46.85-.5.29v.05l.57.32h.09l.49-.3h0l-.58-.33a.06.06,0,0,0-.08,0m-.73.42-.5.29v0l.58.33h.08l.51-.29h0l-.58-.33a.06.06,0,0,0-.08,0m-.73.42-.49.29v0l.57.34h.08l.5-.29h0l-.58-.33h-.08m3.74.51.49-.29h0l-.58-.34h-.08l-.49.3h0l.57.33a.07.07,0,0,0,.09,0m6.41-6.38-.5.3h0l.57.33a.06.06,0,0,0,.08,0l.5-.28v0l-.57-.34h-.08m-.88.52-.5.29v0l.57.34H207l.49-.29h0l-.58-.33h-.07m1.61-1-.5.29h0l.58.33h.08l.5-.28v0l-.58-.33h-.08m-3.82,3.89.5-.28v-.05l-.58-.34h-.08l-.5.29h0l.58.33a.06.06,0,0,0,.08,0m4.59-4.31h-.07l-.51.28h0l.58.34h.08l.51-.29V152ZM202,158.48l.51-.29v-.05l-.57-.33h-.08l-.51.29h0l.59.33a0,0,0,0,0,.07,0m9-5.17.51-.28v0l-.58-.34h-.08l-.5.29h0l.58.34H211m-1.56-.06.51-.29v-.05l-.57-.33h-.09l-.5.29h0l.59.33h.07m.65-1.09H210l-.5.29h0l.57.33a.14.14,0,0,0,.09,0l.5-.28Zm.16-.08,1.4.81h.09l.49-.29v-.05l-1.4-.81h-.09l-.49.29v.05m-1.69.95-.5.29h0l.57.33a.08.08,0,0,0,.09,0l.49-.28v0l-.58-.34h-.07M203.07,156l-.49.29v.05l.58.33h.08l.49-.29h0l-.57-.34a.07.07,0,0,0-.09,0m7.14-2.45h.08l.5-.29m0,0-.58-.33h-.08l-.49.29h0Zm-7,2.39-.5.3h0l.58.33a.11.11,0,0,0,.08,0l.5-.3v0l-.58-.33h-.08m-5.47,4.83h.07l.5-.28v0l-.58-.33h-.08l-.49.28v.05Zm-1.13-1-.5.29v0l.59.34h.07l.51-.29h0l-.57-.33h-.09m1.91.61.51-.29v0l-.6-.32H199l-.51.29v0l.58.34h.07m.74-.42.49-.29h0l-.58-.33h-.07l-.5.28v.05l.57.34h.09m.72-.42.51-.29h0l-.57-.33a.06.06,0,0,0-.08,0l-.51.28v0l.59.33h.07m-2.63-.19-.5.29v.05l.57.33h.07l.5-.29h0l-.59-.33a0,0,0,0,0-.07,0m.72-.43-.49.3v0l.58.33h.08l.5-.3h0l-.57-.33h-.09m2.93-1.68-.5.28m0,.05.58.34h.08l.5-.29v0l-.57-.33h-.08m-.73.42-.5.28h0l.58.34a.11.11,0,0,0,.08,0l.5-.29v-.05l-.58-.33h-.08m1.46-.84-.5.29v0l.58.34h.08l.5-.29v0l-.58-.33a.06.06,0,0,0-.08,0m-2.92,1.68-.5.3h0l.57.33a.07.07,0,0,0,.09,0l.5-.29v0l-.59-.33h-.07m.72-.42-.49.29h0l.58.33h.08l.5-.28v0l-.57-.34h-.09m-.52,3,.5-.28h0l-.59-.34h-.07l-.51.29v0l.57.33h.09m-4.29-.43-.58-.33a.06.06,0,0,0-.08,0l-.49.29h0l.57.34h.08l.5-.3h0m1.09.32-.57-.34h-.08l-.77.45h0l.58.34h.08l.77-.45v0m-2-1-.58-.33h-.08l-.61.35v0l.58.34h.08l.61-.36h0m.47-.27H195l.49-.29h0l-.58-.34a.06.06,0,0,0-.08,0l-.5.29v.05Zm2.53,1.61-.58-.34a.11.11,0,0,0-.08,0l-.95.57h0l.57.33a.08.08,0,0,0,.09,0l.95-.55h0m.48.67-.57-.34h-.09l-.61.36h0l.58.33a.06.06,0,0,0,.08,0l.61-.35h0m2.42-5.42a.06.06,0,0,0,.08,0l.51-.28v-.05l-.58-.34h-.08l-.5.29h0Zm-1.46.85h.08l.51-.29h0l-.58-.34a0,0,0,0,0-.07,0l-.51.29V157Zm-3.23,1.86a0,0,0,0,0,.07,0l.5-.29v0l-.57-.32a.08.08,0,0,0-.09,0l-.5.29h0Zm4-2.29a.06.06,0,0,0,.08,0l.5-.29h0l-.58-.34h-.08l-.49.3h0Zm-1.45.85h.07l.5-.28h0l-.58-.34h-.08l-.5.29v0Zm.16,4.2a.11.11,0,0,0-.08,0l-.77.44h0l.57.34h.09l.76-.44v-.05Zm-1.18-3.76h.07l.5-.28v0l-.57-.34H197l-.5.29v.05Zm-.74.42a.08.08,0,0,0,.09,0l.49-.28v-.05l-.58-.34h-.08l-.5.29v0ZM211.86,154h-.08l-1.29.75h0l.58.33h.07l1.24-.71v0Zm-1.61,1a.06.06,0,0,0-.08,0l-.51.29h0l.58.34h.08l.5-.3v-.05Zm-9.9,5.47.5-.29h0l-.57-.33a.07.07,0,0,0-.09,0l-.5.28v0l.59.34h.07m8.44-4.64h-.08l-.51.29v0l.58.33h.08l.5-.28h0Zm3.82-2.19a.08.08,0,0,0-.09,0l-.5.28h0l.59.34a.09.09,0,0,0,.07,0l.5-.29v-.05Zm1.3-.09-1.4-.81a.08.08,0,0,0-.09,0l-.49.29v0l1.4.81a.14.14,0,0,0,.09,0l.49-.3h0m-7.85,3.82H206l-.61.35v.05l.57.33H206l.62-.35h0Zm1.86-1.07a.14.14,0,0,0-.09,0l-.76.45h0l.57.33a.07.07,0,0,0,.09,0l.76-.45h0Zm-3.55,2h-.07l-4.12,2.38h0l.58.34h.08l4.12-2.38ZM200,160.8a.06.06,0,0,0-.08,0l-.61.35v0l.58.33H200l.61-.35v-.05Zm5.2-3a.14.14,0,0,0-.09,0l-.61.35h0l.58.34h.08l.62-.36h0Zm-6,3.48h-.09l-.61.36v.05l.59.33h.07l.62-.35h0Zm7.73-4.45a.06.06,0,0,0-.08,0l-.62.35h0l.58.32a.06.06,0,0,0,.08,0l.62-.36h0Zm2.61-1.51a.06.06,0,0,0-.08,0l-.5.28v.05l.58.33a.11.11,0,0,0,.08,0l.5-.3h0Zm1.6-1.17.49-.29v0l-.57-.34h-.09l-.49.29h0l.58.33a.11.11,0,0,0,.08,0m-3.27,0,.51-.28h0l-.58-.34a.06.06,0,0,0-.08,0l-.5.29v0l.58.33h.08M206.17,157l1.46-.84h0l-.58-.34H207l-1.46.85h0l.58.34a.06.06,0,0,0,.08,0m4.1-2.42h.09l.5-.29m0,0-.58-.34h-.08l-.5.29h0Zm-1.33-.15.51-.28v0l-.58-.34h-.08l-.5.29h0l.58.33h.08m-4.1,3.33.51-.3h0l-.57-.33a.06.06,0,0,0-.08,0l-.51.28v.05l.58.33h.07m3.23-1.91h.09l.49-.29h0l-.58-.33a.06.06,0,0,0-.08,0l-.49.28v.05Zm-6.88,4,.5-.29v-.05l-.57-.33h-.09l-.49.29v0l.58.34a0,0,0,0,0,.07,0m.74-.42.5-.29v-.05l-.59-.33h-.07l-.51.29v0l.57.34h.09m-1.46.85.5-.3h0l-.59-.33a0,0,0,0,0-.07,0l-.51.29h0l.57.34h.09m2.86-1.69.51-.29h0l-.58-.33h-.08l-.5.28V158l.57.33h.08m-.73.42.5-.28v-.05l-.58-.33a.11.11,0,0,0-.08,0l-.5.28m0,0,.58.33h.08m1.46-.84.5-.28h0l-.58-.34a.06.06,0,0,0-.08,0l-.5.29v.05l.58.33h.2m3.34-6.23h.07l.51-.29h0l-.15-.1a.11.11,0,0,0-.08,0l-.51.29v0ZM204.51,154h.07l.5-.3h0l-.58-.33a.06.06,0,0,0-.08,0l-.5.29v.05Zm1.46-.84a0,0,0,0,0,.07,0l.5-.29v-.05l-.58-.33h-.08l-.49.28v0Zm-2.36,1.35a.08.08,0,0,0,.09,0l.49-.29h0l-.58-.34h-.08l-.5.3h0Zm1.62-.95a.06.06,0,0,0,.08,0l.51-.29v-.05l-.58-.33h-.07l-.51.3h0Zm-3.08,1.78h.08l.5-.28V155l-.58-.33a.06.06,0,0,0-.08,0l-.5.28v0Zm.73-.42H203l.5-.29h0l-.58-.34a.06.06,0,0,0-.08,0l-.5.29v0Zm3.76-2.41h0l.5-.29v-.05l-.15-.08a.06.06,0,0,0-.08,0l-.49.28h0Zm2.18-1.27h.09l.5-.3h0l-.16-.09h-.08l-.5.28v.05Zm1.22.7h.08l.5-.28v-.05l-.58-.33H210l-.5.28v0Zm1.78,1.78.5-.29v0l-.58-.34h-.08l-.5.29h0l.58.33a.11.11,0,0,0,.08,0M207.31,152h.09l.5-.28h0l-.16-.09h-.08l-.5.3h0Zm-5.94,3.67h.08l.5-.29v0l-.58-.34h-.08l-.5.29Z" class="B"/><path d="M201,151.17l-6,3.45h0l-2.25-1.3a1.21,1.21,0,0,1-.55-1.2l.85-4.39,5-4,1,.58-.84,4.38a1.22,1.22,0,0,0,.54,1.2Z" class="E"/><path d="M195,154.62v1.15l-3.11-1.8a1.82,1.82,0,0,1-.83-1.82l1-5,1,.57-.85,4.39a1.22,1.22,0,0,0,.55,1.2l2.25,1.3Z" class="C"/><path d="M201.02 151.17l-5.98 3.45v1.14l5.98-3.44v-1.15z" class="D"/><path d="M206.5,122.12a1.16,1.16,0,0,1,.5,1v18.26a1.17,1.17,0,0,1-.54.95l-22.84,13.19a1.1,1.1,0,0,1-1,0,1.17,1.17,0,0,1-.5-.9V136.26a1.17,1.17,0,0,1,.54-1l22.84-13.2a1.17,1.17,0,0,1,1,0" class="E"/><path d="M183.62,155.46a1.1,1.1,0,0,1-1,0,1.16,1.16,0,0,1-.5-.9V136.24a1.1,1.1,0,0,1,.16-.53L200,146Z" class="C"/><path d="M207,141.34V123c0-.34-.24-.48-.54-.31l-22.84,13.19a1.15,1.15,0,0,0-.52,1v18.32c0,.35.23.48.52.31l22.84-13.19a1.17,1.17,0,0,0,.54-.95" class="D"/><path d="M205.71,123.75,184,136.26a1,1,0,0,0-.42.73v16.24c0,.27.19.38.42.24L205.71,141a.94.94,0,0,0,.42-.73V124c0-.27-.19-.38-.42-.25" fill="#fff"/><path d="M175.38,183.11l-12.85-7.4a1.38,1.38,0,0,1-.65-1.11v-7.84a1.41,1.41,0,0,1,.65-1.13l8.81-5.08a1.4,1.4,0,0,1,1.29,0L185.48,168a1.41,1.41,0,0,1,.64,1.12v7.84a1.38,1.38,0,0,1-.65,1.11l-8.8,5.09a1.48,1.48,0,0,1-1.3,0" class="C"/><path d="M176.67,173.8l8.81-5.09c.36-.21.36-.54,0-.74l-12.85-7.42a1.4,1.4,0,0,0-1.29,0l-8.81,5.08c-.37.21-.37.54,0,.74l12.85,7.43a1.46,1.46,0,0,0,1.29,0" class="E"/><path d="M165.74,166.08a1,1,0,0,1,.85,0l5.63,3.25-.84.49-5.63-3.24c-.23-.15-.23-.37,0-.5" class="B"/><path d="M167.35,165.15a1,1,0,0,1,.85,0l9.24,5.34c.23.14.24.36,0,.5a1,1,0,0,1-.85,0l-9.24-5.34a.27.27,0,0,1,0-.5" class="D"/><path d="M167.35,165.15a1,1,0,0,1,.85,0l.75.44-.84.49-.75-.43a.26.26,0,0,1,0-.5" class="B"/><path d="M169,164.25a1,1,0,0,1,.84,0l9.25,5.34c.24.15.25.37,0,.5a1,1,0,0,1-.85,0l-9.25-5.34a.27.27,0,0,1,0-.5" class="D"/><path d="M169 164.25a1 1 0 0 1 .84 0l3.28 1.91-.84.5-3.28-1.91c-.24-.13-.25-.36 0-.5" class="B"/><path d="M170.55,163.3a1,1,0,0,1,.85,0l9.24,5.34c.24.14.25.36,0,.49a.91.91,0,0,1-.85,0l-9.24-5.33c-.24-.14-.25-.37,0-.5" class="D"/><path d="M170.55,163.3a1,1,0,0,1,.85,0l6.63,3.82-.84.49-6.62-3.82c-.24-.14-.25-.37,0-.5" class="B"/><path d="M172.15,162.34a1,1,0,0,1,.85,0l9.25,5.33c.24.15.24.37,0,.5a1,1,0,0,1-.84,0l-9.25-5.34c-.24-.13-.25-.36,0-.49" class="D"/><path d="M172.15,162.34a1,1,0,0,1,.85,0l8.33,4.78-.83.49-8.33-4.78c-.24-.13-.25-.36,0-.49" class="B"/><path d="M177.06,180.56V179a1.27,1.27,0,0,1,.51-1c.28-.16.5,0,.5.45V180a1.28,1.28,0,0,1-.5,1c-.28.16-.51,0-.51-.45" class="D"/><path d="M177.57,178.17a.75.75,0,0,0-.34.57c0,.22.16.31.34.2a.79.79,0,0,0,.33-.58c0-.22-.15-.31-.33-.19" class="B"/><path d="M178.63,179.64V178a1.27,1.27,0,0,1,.5-1c.29-.16.51,0,.51.45v1.6a1.24,1.24,0,0,1-.51,1c-.27.16-.5,0-.5-.45" class="D"/><path d="M179.13,179.08a.77.77,0,0,0-.33.58c0,.22.15.3.33.19a.72.72,0,0,0,.34-.57c0-.22-.15-.31-.34-.2" class="B"/><path d="M208.42,199.26a7.08,7.08,0,0,1,.41,1.63,3.44,3.44,0,0,1,.13,1.77,3.5,3.5,0,0,1-2,1.57,4.51,4.51,0,0,1-3.53-.69,14.62,14.62,0,0,0-3.92-2.13,8.93,8.93,0,0,1-3.45-1.56c-1-.79-1.61-1.91.25-2.46s5.24.28,8.91.44Z" class="C"/><path d="M208.42,197v2.75s-.38,1-2,1a2.37,2.37,0,0,1-2.08-1V197Z" class="J"/><path d="M203.15,178.93c0,3.43,1,19.25,1,19.25s1.4,1.77,4.45,0l1-17.55Z" class="D"/><path d="M200.14,204.66a6.48,6.48,0,0,1,.42,1.61,3.48,3.48,0,0,1,.13,1.78,3.58,3.58,0,0,1-2,1.57,4.46,4.46,0,0,1-3.53-.68,14.65,14.65,0,0,0-3.92-2.14,8.85,8.85,0,0,1-3.46-1.57c-1-.78-1.6-1.91.26-2.44s5.24.27,8.91.43Z" class="C"/><path d="M200.14,202.36v2.76s-.37.95-1.91.95a2.37,2.37,0,0,1-2.08-.95v-2.73Z" class="J"/><path d="M194.88,184.31c0,3.43,1,19.23,1,19.23s1.4,1.78,4.45,0l1-17.54Z" class="D"/><path d="M205.54,216.86a1.34,1.34,0,0,0,0,.4.89.89,0,0,0,.34.53h0a1,1,0,0,0,1.07-.09,3.2,3.2,0,0,0,1.47-2.54,1,1,0,0,0-.41-.95h-.07a.94.94,0,0,0-.62,0,2.75,2.75,0,0,0-.36.15,3.26,3.26,0,0,0-1.47,2.54" class="E"/><path d="M205.94,213.71a1.41,1.41,0,0,1,.66-.2.75.75,0,0,1,.41.12h0l1,.54a.94.94,0,0,0-.62,0,2.28,2.28,0,0,0-.36.15,3.26,3.26,0,0,0-1.47,2.54,1.34,1.34,0,0,0,0,.4.94.94,0,0,0,.34.53l-.95-.56h-.08a1.09,1.09,0,0,1-.35-.9,3.2,3.2,0,0,1,1.46-2.54" class="C"/><path d="M221.43,208.33a1.21,1.21,0,0,0,0,.38.89.89,0,0,0,.34.53h0a1,1,0,0,0,1.13-.1,3.24,3.24,0,0,0,1.47-2.54,1.08,1.08,0,0,0-.41-1h-.07a.94.94,0,0,0-.62,0,1.19,1.19,0,0,0-.36.17,3.2,3.2,0,0,0-1.47,2.54" class="E"/><path d="M221.83,205.17a1.22,1.22,0,0,1,.66-.2.67.67,0,0,1,.41.11h0l.95.55a.94.94,0,0,0-.62,0,2.83,2.83,0,0,0-.36.16,3.24,3.24,0,0,0-1.47,2.55,2.41,2.41,0,0,0,0,.38.94.94,0,0,0,.34.53l-1-.56h0l-.08-.05h0a1.09,1.09,0,0,1-.35-.9,3.25,3.25,0,0,1,1.46-2.54" class="C"/><path d="M218.59,220.21a1.21,1.21,0,0,1,0,.38.8.8,0,0,1-.34.53h0a1,1,0,0,1-1.06-.07,3.25,3.25,0,0,1-1.47-2.55,1,1,0,0,1,.41-1h.07a.94.94,0,0,1,.62,0,2.32,2.32,0,0,1,.36.16,3.25,3.25,0,0,1,1.46,2.54" class="E"/><path d="M218.19,217.05a1.16,1.16,0,0,0-.65-.2.87.87,0,0,0-.41.11h0l-.95.54a.94.94,0,0,1,.62,0,1.69,1.69,0,0,1,.36.17,3.19,3.19,0,0,1,1.46,2.54,1.21,1.21,0,0,1,0,.38.8.8,0,0,1-.34.53l.95-.56h0l.09-.06h0a1.13,1.13,0,0,0,.35-.95A3.2,3.2,0,0,0,218.2,217" class="C"/><path d="M228.92,215.15a2.54,2.54,0,0,1,0,.39.91.91,0,0,1-.35.53h0a1,1,0,0,1-1.07-.08,3.26,3.26,0,0,1-1.47-2.54,1.08,1.08,0,0,1,.41-1h.07a.83.83,0,0,1,.62,0,1.46,1.46,0,0,1,.36.16,3.23,3.23,0,0,1,1.47,2.54" class="E"/><path d="M228.51,212a1.34,1.34,0,0,0-.65-.2.73.73,0,0,0-.41.12h0l-1,.55a.83.83,0,0,1,.62,0,2,2,0,0,1,.36.16,3.23,3.23,0,0,1,1.47,2.54,1.28,1.28,0,0,1,0,.39.85.85,0,0,1-.34.53l1-.56h.08a1.1,1.1,0,0,0,.36-.9,3.24,3.24,0,0,0-1.47-2.54" class="C"/><path d="M209,209a2.41,2.41,0,0,1,0,.38.81.81,0,0,1-.35.53h0a1,1,0,0,1-1.07-.07,3.27,3.27,0,0,1-1.47-2.55,1,1,0,0,1,.41-1h.07a.94.94,0,0,1,.62,0,1.49,1.49,0,0,1,.36.17A3.2,3.2,0,0,1,209,209" class="E"/><path d="M208.58,205.8a1.31,1.31,0,0,0-.66-.2.81.81,0,0,0-.41.11h0l-1,.54a1.09,1.09,0,0,1,.62,0,1.49,1.49,0,0,1,.36.17A3.2,3.2,0,0,1,209,209a1.21,1.21,0,0,1,0,.38.8.8,0,0,1-.34.53l1-.56h.07a1.11,1.11,0,0,0,.36-.95,3.24,3.24,0,0,0-1.47-2.56" class="C"/><path d="M217.74 205.85l5.25-1.51v1.12l-5.25 3.03v-2.64z" class="F"/><path d="M217.74 205.85l-.51-.32 5.26-1.43.5.24-5.25 1.51z" class="H"/><path d="M215.47 209.2l-7.43-2.79v-1.14l7.43.67v3.26z" class="F"/><g class="H"><path d="M208.04 205.27l.55-.14 7.33.47-.45.34-7.43-.67z"/><path d="M215.26,208.83c0,.84,2.58.84,2.58,0V201.5h-2.58Z"/><path d="M217.17,206.92l1.42,9.24h-1l-1.34-9.24a1.64,1.64,0,0,0,.88,0"/></g><path d="M216.33 206.92v2.53l1.34 8.26v-1.56l-1.34-9.23z" class="F"/><path d="M217.67 216.16h.97v1.57h-.97z" class="K"/><path d="M215.89 209.38l-9.59 5.03v-1.55l9.59-5.93v2.45z" class="F"/><path d="M215.89,206.93a1,1,0,0,1-.61-.28l-9.55,5.8.6.41Z" class="H"/><path d="M206.3 214.41v-1.55l-.6-.41v1.5l.6.46z" class="K"/><path d="M227.98 212.63l-10.25-3.5v-2.3l10.25 4.26v1.54z" class="F"/><path d="M217.73 206.83c.09 0 .13-.17.13-.4l10.42 4.57-.3.13z" class="H"/><path d="M228.28 210.96v1.49l-.3.18v-1.54l.3-.13z" class="K"/><path d="M218.76,188.67h-4.38v15.17c0,1.26,4.38,1.26,4.38,0Z" fill="#efefef"/><path d="M199.7,190h0a2.2,2.2,0,0,1,1.1-1.91l15.28-8.85a2.2,2.2,0,0,1,2.19,0l15.28,8.84a2.2,2.2,0,0,1,1.1,1.91l-17.48,10.11Z" class="B"/><path d="M199.7,190v1.27l16.43,9.48a2.16,2.16,0,0,0,1.08.29,2.2,2.2,0,0,0,1.09-.29l16.42-9.48V190l-16.42,9.48a2.11,2.11,0,0,1-1.09.3,2.07,2.07,0,0,1-1.08-.3Z" class="H"/><path d="M199.7,190v1.27l16.43,9.48a2.16,2.16,0,0,0,1.08.29v-1.26a2.07,2.07,0,0,1-1.08-.3Z" class="F"/><g clip-path="url(#B)"><g opacity=".1"><path d="M199.7,190a2.46,2.46,0,0,1,.23-1l16.56,9.55a1.43,1.43,0,0,0,1.44,0l16.56-9.55a2.15,2.15,0,0,1,.23,1l-17.55,10.1Z"/></g></g><path d="M229.42 183.13l-16.68-5c-2.47-.72-7.21-1.82-8.6-1.19a3.26 3.26 0 0 0-2.21 3.34v2.19a50.67 50.67 0 0 0 12.5 2.13 123.55 123.55 0 0 0 15-1.51" class="C"/><path d="M217.28 158.98l.94 5.09 5.22.61-.75-7.03-5.41 1.33z" class="J"/><path d="M212.4,154.92s-.69,2.1-.48,2.22a3.63,3.63,0,0,0,1.14.07Z" fill="#ff8f8f"/><path d="M213.74,148.17c-.9,1-1.76,2.53-1.37,6.55.41,4.4,1.72,5.57,2.28,5.83.82.39,3.64-.29,4.55-1a10.36,10.36,0,0,0,3.88-5.53c.66-3.05-.19-6.52-2.41-7.21a7.67,7.67,0,0,0-6.93,1.33" class="J"/><g class="C"><path d="M211.69,150.34c.53,1,1.55,3.52,4.4,4.22,0,0,.16-1.71,1.58-1.72s1.91,1.72,1.19,2.94-1.59,1-1.59,1,.15,2.4,1.91,3.26a4.55,4.55,0,0,0,4-.26c.85-.56,1.84-2.91,2.35-4.78,1.08-4,.88-7.08-1.67-7.71a2.86,2.86,0,0,0-3-2.33c-3.46-.22-5.73,2.33-8.6,2.33-1.49,0-1.16,2-.55,3.14"/><path d="M223.75,147.49l1.73-.74a.94.94,0,1,0-1.73.74"/></g><path d="M229.38,181.44c0,2.74.26,5.58-.87,7.58s-6.3,6.12-12.1,5.14c-3.82-.64-16.07-5.31-16.07-5.31s-5.42-2-5.45-3.44v-1.09c.11-1.91.88-3.95,4.85-3.82,4.34.11,17.19,2.22,17.19,2.22Z" class="D"/><path d="M228.37 163.78a4 4 0 0 0-4.09-2.65c-3.32.62-7 1.7-7.92 2h0s.43 7.32-3.33 9.55l-.49 9.34a8 8 0 0 0 2.36 2.77 11.1 11.1 0 0 0 7.64 2.15 9.63 9.63 0 0 0 6.9-3.82l-.19-12.77a27.57 27.57 0 0 0-.86-6.59" class="E"/><path d="M212.94,174.47a12.55,12.55,0,0,0,2.65-4.4,6.94,6.94,0,0,1-2.7,5.33Z" class="D"/><path d="M216.36,163.12c-2.06.61-3.31.72-5.57,4.21s-7.24,10.41-7.73,11.25a3.69,3.69,0,0,0-.39,3.59c.55,1,2.16.56,4.41-1.41a85.06,85.06,0,0,0,6.49-7.32,37.32,37.32,0,0,0,2.79-10.32" class="J"/><path d="M216.36 163.12a16.06 16.06 0 0 0-3 .95 4.79 4.79 0 0 0-2.25 1.85l-3.82 6.39s-.38 3.26 3.59 4.41l2.12-2.29a11.85 11.85 0 0 0 2.1-3.13 13.76 13.76 0 0 0 1.27-8.16" class="E"/><path d="M203.36,182.66c-1.91-.23-6.16-6.06-7.57-7.92a12.67,12.67,0,0,0-3.89-3.65,5.14,5.14,0,0,1-2.73-4.05c-.32-2.08,1.61-3.4,3.2-1.3,1,1.32,2,2.15,2.07,1.91a19,19,0,0,1-.3-2.12c0-1.15.82-.39,1.06,0a15.51,15.51,0,0,1,.86,1.91c.41,1,.23,2.09.73,2.79s7.11,7.05,7.11,7.05Z" class="J"/><path d="M235.57 164.75v19.57l-15.54 9v-19.55l15.54-9.02z" class="B"/><g clip-path="url(#C)"><g opacity=".1"><path d="M235.57 164.75v19.57l-15.54 9v-19.55l15.54-9.02z"/></g></g><path d="M218.62 192.5l1.41.82v-17.94c0-.85.26-1.27.61-1.45 1.18-.74 2.75.81 2.75.81v-1.3l15-8.69c-1.41-.81-2.34-1.35-5.2.27l-12.53 7.27a3.47 3.47 0 0 0-2 3.19v17" class="B"/><g clip-path="url(#D)"><g opacity=".4"><path d="M220.67,172.29c1.3-.85,9.69-5.66,12.53-7.27s3.82-1.08,5.2-.27l-15,8.69a3.72,3.72,0,0,0-2.72-1.15" fill="#fff"/></g></g><path d="M223.39 174.74l15.01-8.72v-1.27l-15.01 8.69v1.3z" class="B"/><g clip-path="url(#E)"><g opacity=".2"><path d="M223.39 174.74l15.01-8.72v-1.27l-15.01 8.69v1.3z"/></g></g></g></g></svg>