<svg id="SvgjsSvg1006" width="288" height="288" xmlns="http://www.w3.org/2000/svg" version="1.1" xmlns:xlink="http://www.w3.org/1999/xlink" xmlns:svgjs="http://svgjs.com/svgjs"><defs id="SvgjsDefs1007"></defs><g id="SvgjsG1008" transform="matrix(1,0,0,1,0,0)"><svg xmlns="http://www.w3.org/2000/svg" viewBox="0 0 301.58 301.58" width="288" height="288"><defs><clipPath id="a" transform="translate(-301.59 323)"><rect width="260.5" height="260.5" x="322.13" y="-301.41" fill="none"></rect></clipPath><clipPath id="b" transform="translate(-301.59 323)"><rect width="36.67" height="11.61" x="510.71" y="-125.03" fill="none"></rect></clipPath><clipPath id="c" transform="translate(-301.59 323)"><rect width="16.27" height="29.92" x="532" y="-150.48" fill="none"></rect></clipPath><clipPath id="d" transform="translate(-301.59 323)"><rect width="18.56" height="9.92" x="532.67" y="-151.3" fill="none"></rect></clipPath><clipPath id="e" transform="translate(-301.59 323)"><rect width="15.72" height="10.46" x="535.51" y="-150.48" fill="none"></rect></clipPath></defs><g data-name="Layer 1" fill="#000000" class="color000 svgShape"><g data-name="Layer 2" fill="#000000" class="color000 svgShape"><circle cx="150.79" cy="150.79" r="150.79" fill="#ffffff" data-name="Layer 1-2" class="colorfff svgShape"></circle></g></g><g clip-path="url(#a)" data-name="Layer 2" fill="#000000" class="color000 svgShape"><g clip-path="url(#a)" fill="#000000" class="color000 svgShape"><path fill="#efefef" d="M374.88-79.13c44.35,23.67,116.27,23.67,160.62,0s44.35-62.06,0-85.74-116.27-23.67-160.62,0-44.36,62.06,0,85.74" transform="translate(-301.59 323)" class="colorefefef svgShape"></path></g><g clip-path="url(#a)" fill="#000000" class="color000 svgShape"><path fill="#e0e0e0" d="M453.79-111,486.2-92.41a1.46,1.46,0,0,0,1.35,0l57.38-33.12a.42.42,0,0,0,0-.79l-32.41-18.63a1.48,1.48,0,0,0-1.36,0l-57.37,33.12c-.38.22-.38.57,0,.78" transform="translate(-301.59 323)" class="colore0e0e0 svgShape"></path><path fill="#e0e0e0" d="M552.81-101.37c-.11-.83-1.1-1.25-1.65-1.57L529-115.75a3.18,3.18,0,0,0-3.17,0L503.73-103c-.65.37-1.71,1.09-1.71,1.94s.58,1,1.65,1.64l22,12.7a3.65,3.65,0,0,0,3.62,0l22.67-13a1.69,1.69,0,0,0,.88-1.65" transform="translate(-301.59 323)" class="colore0e0e0 svgShape"></path></g><g clip-path="url(#a)" fill="#000000" class="color000 svgShape"><path fill="none" stroke="#24b2c0" stroke-miterlimit="10" stroke-width=".52" d="M477.25-167l5.22-3a2.48,2.48,0,0,1,2.25,0l32.74,18.9" transform="translate(-301.59 323)" class="colorStroke00debe svgStroke"></path><path fill="none" stroke="#24b2c0" stroke-miterlimit="10" stroke-width=".52" d="M475.13-168.27l7.34-4.24a2.48,2.48,0,0,1,2.25,0l34.85,20.12" transform="translate(-301.59 323)" class="colorStroke00debe svgStroke"></path><path fill="none" stroke="#24b2c0" stroke-miterlimit="10" stroke-width=".52" d="M521.69-153.61l-37-21.34a2.48,2.48,0,0,0-2.25,0L473-169.5" transform="translate(-301.59 323)" class="colorStroke00debe svgStroke"></path><path fill="none" stroke="#24b2c0" stroke-miterlimit="10" stroke-width=".52" d="M523.81-154.83l-39.09-22.56a2.48,2.48,0,0,0-2.25,0l-11.58,6.68" transform="translate(-301.59 323)" class="colorStroke00debe svgStroke"></path><path fill="#2b454e" d="M444.37-277.58l-33.73,19.47a2.5,2.5,0,0,0-1.12,2v92.7a2.5,2.5,0,0,0,1.12,1.95L444.37-142a2.48,2.48,0,0,0,2.25,0l33.72-19.47a2.48,2.48,0,0,0,1.13-1.95v-92.7a2.49,2.49,0,0,0-1.13-2l-33.72-19.47a2.48,2.48,0,0,0-2.25,0" transform="translate(-301.59 323)" class="color2b454e svgShape"></path><path fill="#1a2e35" d="M481.47-256.16v92.7a2.51,2.51,0,0,1-1.13,2L446.62-142a2.29,2.29,0,0,1-1.12.27v-95.31a2.29,2.29,0,0,0,1.12-.27l33.72-19.47.31-.25.4-.34a2.33,2.33,0,0,1,.42,1.24" transform="translate(-301.59 323)" class="color1a2e35 svgShape"></path><path fill="#375a64" d="M414.88-247l25.25,14.58a2.48,2.48,0,0,1,1.13,1.95v9.62c0,.72-.5,1-1.13.65l-25.25-14.58a2.49,2.49,0,0,1-1.13-2v-9.61c0-.72.5-1,1.13-.65" transform="translate(-301.59 323)" class="color375a64 svgShape"></path><path fill="#24b2c0" d="M415.87-242.79a2.42,2.42,0,0,0,1.12,1.87l21,12.14c.62.36,1.13.1,1.13-.57a2.43,2.43,0,0,0-1.13-1.88l-21-12.13c-.62-.36-1.12-.11-1.12.57" transform="translate(-301.59 323)" class="color00debe svgShape"></path><path fill="#1a2e35" d="M415.87-237.91A2.42,2.42,0,0,0,417-236l21,12.13c.62.36,1.13.11,1.13-.57a2.43,2.43,0,0,0-1.13-1.87l-21-12.14c-.62-.36-1.12-.1-1.12.57" transform="translate(-301.59 323)" class="color1a2e35 svgShape"></path><path fill="#24b2c0" d="M417-238.48l11.57,6.68v2.45L417-236a2.42,2.42,0,0,1-1.12-1.88c0-.67.5-.93,1.12-.57" transform="translate(-301.59 323)" class="color00debe svgShape"></path><path fill="#375a64" d="M414.88-229.92l25.25,14.58a2.47,2.47,0,0,1,1.13,2v9.61c0,.72-.5,1-1.13.66l-25.25-14.59a2.47,2.47,0,0,1-1.13-1.95v-9.61c0-.72.5-1,1.13-.65" transform="translate(-301.59 323)" class="color375a64 svgShape"></path><path fill="#24b2c0" d="M415.87-225.69a2.39,2.39,0,0,0,1.12,1.87l21,12.14c.62.36,1.13.11,1.13-.57a2.43,2.43,0,0,0-1.13-1.87l-21-12.14c-.62-.36-1.12-.1-1.12.57" transform="translate(-301.59 323)" class="color00debe svgShape"></path><path fill="#1a2e35" d="M415.87-220.8a2.42,2.42,0,0,0,1.12,1.87l21,12.14c.62.36,1.13.1,1.13-.57a2.42,2.42,0,0,0-1.13-1.87l-21-12.14c-.62-.36-1.12-.11-1.12.57" transform="translate(-301.59 323)" class="color1a2e35 svgShape"></path><path fill="#24b2c0" d="M417-221.37,434.91-211v2.45L417-218.93a2.42,2.42,0,0,1-1.12-1.87c0-.68.5-.93,1.12-.57" transform="translate(-301.59 323)" class="color00debe svgShape"></path><path fill="#375a64" d="M414.88-212.82l25.25,14.58a2.49,2.49,0,0,1,1.13,2v9.61c0,.72-.5,1-1.13.65L414.88-200.6a2.47,2.47,0,0,1-1.13-2v-9.62c0-.72.5-1,1.13-.65" transform="translate(-301.59 323)" class="color375a64 svgShape"></path><path fill="#24b2c0" d="M415.87-208.58a2.42,2.42,0,0,0,1.12,1.87l21,12.14c.62.36,1.13.1,1.13-.57A2.43,2.43,0,0,0,438-197l-21-12.13c-.62-.36-1.12-.11-1.12.57" transform="translate(-301.59 323)" class="color00debe svgShape"></path><path fill="#1a2e35" d="M415.87-203.7a2.42,2.42,0,0,0,1.12,1.88l21,12.14c.62.36,1.13.1,1.13-.57a2.43,2.43,0,0,0-1.13-1.88l-21-12.14c-.62-.36-1.12-.1-1.12.57" transform="translate(-301.59 323)" class="color1a2e35 svgShape"></path><path fill="#24b2c0" d="M417-204.27l7.34,4.24v2.44L417-201.82a2.42,2.42,0,0,1-1.12-1.88c0-.67.5-.93,1.12-.57" transform="translate(-301.59 323)" class="color00debe svgShape"></path><path fill="#375a64" d="M414.88-195.71l25.25,14.58a2.47,2.47,0,0,1,1.13,1.95v9.62c0,.72-.5,1-1.13.65l-25.25-14.58a2.49,2.49,0,0,1-1.13-2v-9.61c0-.72.5-1,1.13-.65" transform="translate(-301.59 323)" class="color375a64 svgShape"></path><path fill="#24b2c0" d="M415.87-191.48A2.42,2.42,0,0,0,417-189.6l21,12.13c.62.36,1.13.11,1.13-.57a2.43,2.43,0,0,0-1.13-1.87L417-192c-.62-.36-1.12-.1-1.12.57" transform="translate(-301.59 323)" class="color00debe svgShape"></path><path fill="#1a2e35" d="M415.87-186.59a2.4,2.4,0,0,0,1.12,1.87l21,12.14c.62.36,1.13.11,1.13-.57A2.43,2.43,0,0,0,438-175l-21-12.14c-.62-.36-1.12-.1-1.12.57" transform="translate(-301.59 323)" class="color1a2e35 svgShape"></path><path fill="#24b2c0" d="M417-187.16l11.57,6.68V-178L417-184.72a2.4,2.4,0,0,1-1.12-1.87c0-.67.5-.93,1.12-.57" transform="translate(-301.59 323)" class="color00debe svgShape"></path><path fill="#375a64" d="M414.88-178.61,440.13-164a2.49,2.49,0,0,1,1.13,2v9.61c0,.72-.5,1-1.13.65l-25.25-14.58a2.47,2.47,0,0,1-1.13-2V-178c0-.72.5-1,1.13-.65" transform="translate(-301.59 323)" class="color375a64 svgShape"></path><path fill="#24b2c0" d="M415.87-174.37A2.42,2.42,0,0,0,417-172.5l21,12.14c.62.36,1.13.1,1.13-.57A2.42,2.42,0,0,0,438-162.8l-21-12.14c-.62-.36-1.12-.11-1.12.57" transform="translate(-301.59 323)" class="color00debe svgShape"></path><path fill="#1a2e35" d="M415.87-169.48a2.42,2.42,0,0,0,1.12,1.87l21,12.14c.62.36,1.13.1,1.13-.57a2.43,2.43,0,0,0-1.13-1.88L417-170c-.62-.36-1.12-.11-1.12.57" transform="translate(-301.59 323)" class="color1a2e35 svgShape"></path><path fill="#24b2c0" d="M417-170l15.81,9.12v2.44L417-167.61a2.42,2.42,0,0,1-1.12-1.87c0-.68.5-.93,1.12-.57" transform="translate(-301.59 323)" class="color00debe svgShape"></path><path fill="#2b454e" d="M450.79-231.18c1.16-.68,2.11-.06,2.11,1.38v55.88a4.89,4.89,0,0,1-2.11,3.84c-1.17.67-2.12.06-2.12-1.38v-55.89a4.85,4.85,0,0,1,2.12-3.83" transform="translate(-301.59 323)" class="color2b454e svgShape"></path><path fill="#1a2e35" d="M450.79-171.32a2.43,2.43,0,0,0,1-1.91v-56.05c0-.72-.47-1-1.06-.69a2.42,2.42,0,0,0-1,1.91V-172c0,.72.47,1,1.06.69" transform="translate(-301.59 323)" class="color1a2e35 svgShape"></path><path fill="#24b2c0" d="M450.79-171.32a2.43,2.43,0,0,0,1-1.91V-200l-2.11,1.22V-172c0,.72.47,1,1.06.69" transform="translate(-301.59 323)" class="color00debe svgShape"></path><path fill="#2b454e" d="M457.13-234.85c1.17-.68,2.12-.06,2.12,1.38v55.89a4.85,4.85,0,0,1-2.12,3.83c-1.16.68-2.11.06-2.11-1.38V-231a4.88,4.88,0,0,1,2.11-3.83" transform="translate(-301.59 323)" class="color2b454e svgShape"></path><path fill="#24b2c0" d="M457.13-175a2.39,2.39,0,0,0,1.06-1.91v-56c0-.72-.47-1-1.06-.7a2.44,2.44,0,0,0-1.05,1.92v56c0,.72.47,1,1.05.69" transform="translate(-301.59 323)" class="color00debe svgShape"></path><path fill="#2b454e" d="M463.48-238.51c1.17-.68,2.12-.06,2.12,1.38v55.88a4.87,4.87,0,0,1-2.12,3.84c-1.17.67-2.11.06-2.11-1.38v-55.89a4.84,4.84,0,0,1,2.11-3.83" transform="translate(-301.59 323)" class="color2b454e svgShape"></path><path fill="#1a2e35" d="M463.48-178.65a2.42,2.42,0,0,0,1.06-1.92v-56c0-.72-.47-1-1.06-.69a2.43,2.43,0,0,0-1.06,1.91v56c0,.72.47,1,1.05.69" transform="translate(-301.59 323)" class="color1a2e35 svgShape"></path><path fill="#24b2c0" d="M463.48-178.65a2.42,2.42,0,0,0,1.06-1.92v-43.29l-2.12,1.23v43.29c0,.72.47,1,1.05.69" transform="translate(-301.59 323)" class="color00debe svgShape"></path><path fill="#2b454e" d="M469.83-242.18c1.17-.68,2.12-.06,2.12,1.38v55.89a4.85,4.85,0,0,1-2.12,3.83c-1.17.68-2.11.06-2.11-1.38v-55.89a4.84,4.84,0,0,1,2.11-3.83" transform="translate(-301.59 323)" class="color2b454e svgShape"></path><path fill="#1a2e35" d="M469.83-182.32a2.39,2.39,0,0,0,1.06-1.91v-56c0-.72-.47-1-1.06-.7a2.45,2.45,0,0,0-1.06,1.92v56c0,.72.48,1,1.06.69" transform="translate(-301.59 323)" class="color1a2e35 svgShape"></path><path fill="#24b2c0" d="M469.83-182.32a2.39,2.39,0,0,0,1.06-1.91v-9.46l-2.12,1.22V-183c0,.72.48,1,1.06.69" transform="translate(-301.59 323)" class="color00debe svgShape"></path><path fill="#2b454e" d="M476.18-245.84c1.17-.68,2.12-.06,2.12,1.37v55.89a4.83,4.83,0,0,1-2.12,3.83c-1.17.68-2.11.06-2.11-1.37V-242a4.83,4.83,0,0,1,2.12-3.83" transform="translate(-301.59 323)" class="color2b454e svgShape"></path><path fill="#1a2e35" d="M476.18-186a2.42,2.42,0,0,0,1.06-1.92v-56c0-.72-.47-1-1.06-.69a2.43,2.43,0,0,0-1.06,1.91v56.05c0,.72.48,1,1.06.69" transform="translate(-301.59 323)" class="color1a2e35 svgShape"></path><path fill="#24b2c0" d="M476.18-186a2.42,2.42,0,0,0,1.06-1.92v-29.24l-2.12,1.23v29.24c0,.72.48,1,1.06.69" transform="translate(-301.59 323)" class="color00debe svgShape"></path><path fill="#2b454e" d="M449.57-163.28l27.83-16.07c.49-.29.9-.05.9.52v10.14a2,2,0,0,1-.9,1.56l-27.83,16.06c-.5.29-.9.06-.9-.52v-10.13a2,2,0,0,1,.9-1.56" transform="translate(-301.59 323)" class="color2b454e svgShape"></path><path fill="#1a2e35" d="M450.72-160.28c0,.68.5.93,1.12.57l23.28-13.44a2.41,2.41,0,0,0,1.13-1.88c0-.67-.5-.93-1.13-.57l-23.28,13.45a2.42,2.42,0,0,0-1.12,1.87" transform="translate(-301.59 323)" class="color1a2e35 svgShape"></path><path fill="#24b2c0" d="M450.72-160.28c0,.68.5.93,1.12.57l16.93-9.78v-2.44l-16.93,9.78a2.42,2.42,0,0,0-1.12,1.87" transform="translate(-301.59 323)" class="color00debe svgShape"></path><path fill="#1a2e35" d="M450.72-155.39c0,.67.5.93,1.12.57l23.28-13.45a2.39,2.39,0,0,0,1.13-1.87c0-.67-.5-.93-1.13-.57l-23.28,13.45a2.4,2.4,0,0,0-1.12,1.87" transform="translate(-301.59 323)" class="color1a2e35 svgShape"></path><path fill="#24b2c0" d="M450.72-155.39c0,.67.5.93,1.12.57l6.35-3.67v-2.44l-6.35,3.67a2.4,2.4,0,0,0-1.12,1.87" transform="translate(-301.59 323)" class="color00debe svgShape"></path><path fill="#375a64" d="M480.34-258.11l-33.72-19.47a2.48,2.48,0,0,0-2.25,0l-33.72,19.47a.68.68,0,0,0,0,1.3l33.72,19.47a2.48,2.48,0,0,0,2.25,0l33.72-19.47c.63-.35.63-.94,0-1.3" transform="translate(-301.59 323)" class="color375a64 svgShape"></path><path fill="#1a2e35" d="M444.82-242l-26.16-15.11a1.5,1.5,0,0,1-.68-1.17v-.88a1.5,1.5,0,0,1,.68-1.17l26.16-15.1a1.46,1.46,0,0,1,1.35,0l26.16,15.1a1.5,1.5,0,0,1,.68,1.17v.88a1.5,1.5,0,0,1-.68,1.17L446.17-242a1.53,1.53,0,0,1-1.35,0" transform="translate(-301.59 323)" class="color1a2e35 svgShape"></path><path fill="#375a64" d="M418.66-259.51l26.16,15.1a1.46,1.46,0,0,0,1.35,0l26.16-15.1c.37-.22.37-.57,0-.78l-26.16-14.58a1.46,1.46,0,0,0-1.35,0l-26.16,14.58c-.37.21-.37.56,0,.78" transform="translate(-301.59 323)" class="color375a64 svgShape"></path><path fill="#2b454e" d="M445.5-244.25v2.45a1.37,1.37,0,0,1-.68-.16l-26.16-15.11a1.47,1.47,0,0,1-.68-1.17v-.88a1.52,1.52,0,0,1,.55-1.08c-.24.21-.2.5.13.69l26.16,15.1a1.37,1.37,0,0,0,.68.16" transform="translate(-301.59 323)" class="color2b454e svgShape"></path><path fill="#1a2e35" d="M444.82-249.29l-17.7-10.22a1.5,1.5,0,0,1-.67-1.17v-.88a1.52,1.52,0,0,1,.67-1.18l11.35-6.54a4.82,4.82,0,0,0,1.14-1l5.42-7.3a.9.9,0,0,1,1.14-.24l17.69,10.22a1.47,1.47,0,0,1,.68,1.17v5.77a1.49,1.49,0,0,1-.68,1.17l-17.69,10.22a1.53,1.53,0,0,1-1.35,0" transform="translate(-301.59 323)" class="color1a2e35 svgShape"></path><path fill="#375a64" d="M446.17-251.74l11.35-6.55a3.46,3.46,0,0,0,.59-.44,4.84,4.84,0,0,0,.55-.58l5.42-7.29a.68.68,0,0,0-.22-1l-17.69-10.22a.9.9,0,0,0-1.14.24l-5.42,7.3a4.4,4.4,0,0,1-1.05,1.06l-11.44,6.51c-.37.21-.37.56,0,.78l17.7,10.21a1.46,1.46,0,0,0,1.35,0" transform="translate(-301.59 323)" class="color375a64 svgShape"></path><path fill="#2b454e" d="M463.86-267.62l-17.69-10.22a.9.9,0,0,0-1.14.24l-5.42,7.3a4.13,4.13,0,0,1-.55.57s19,11,19.05,11a4.84,4.84,0,0,0,.55-.58l5.42-7.29a.68.68,0,0,0-.22-1" transform="translate(-301.59 323)" class="color2b454e svgShape"></path><path fill="#24b2c0" d="M431.42-262.56a1.76 1.76 0 011.58 0c.44.26.44.67 0 .92a1.76 1.76 0 01-1.58 0c-.44-.25-.44-.66 0-.92M434.59-260.72a1.72 1.72 0 011.59 0 .48.48 0 010 .91 1.72 1.72 0 01-1.59 0 .48.48 0 010-.91" transform="translate(-301.59 323)" class="color00debe svgShape"></path><path fill="#1a2e35" d="M437.77-258.89a1.76 1.76 0 011.58 0c.44.25.44.66 0 .92a1.76 1.76 0 01-1.58 0c-.44-.26-.44-.67 0-.92M440.94-257.06a1.78 1.78 0 011.59 0c.44.26.44.67 0 .92a1.78 1.78 0 01-1.59 0c-.44-.25-.44-.66 0-.92" transform="translate(-301.59 323)" class="color1a2e35 svgShape"></path><path fill="#24b2c0" d="M433.8-263.93a1.78,1.78,0,0,1,1.59,0,.49.49,0,0,1,0,.92,1.78,1.78,0,0,1-1.59,0c-.44-.26-.44-.67,0-.92" transform="translate(-301.59 323)" class="color00debe svgShape"></path><path fill="#1a2e35" d="M437-262.1a1.78,1.78,0,0,1,1.59,0c.44.26.44.67,0,.92a1.78,1.78,0,0,1-1.59,0c-.44-.25-.44-.66,0-.92" transform="translate(-301.59 323)" class="color1a2e35 svgShape"></path><path fill="#24b2c0" d="M440.15-260.26a1.7,1.7,0,0,1,1.58,0,.48.48,0,0,1,0,.91,1.76,1.76,0,0,1-1.58,0,.48.48,0,0,1,0-.91" transform="translate(-301.59 323)" class="color00debe svgShape"></path><path fill="#1a2e35" d="M443.32-258.43a1.72 1.72 0 011.59 0 .48.48 0 010 .91 1.72 1.72 0 01-1.59 0 .48.48 0 010-.91M436.18-265.3a1.72 1.72 0 011.59 0 .48.48 0 010 .91 1.78 1.78 0 01-1.59 0 .48.48 0 010-.91" transform="translate(-301.59 323)" class="color1a2e35 svgShape"></path><path fill="#24b2c0" d="M439.35-263.47a1.72,1.72,0,0,1,1.59,0,.48.48,0,0,1,0,.91,1.72,1.72,0,0,1-1.59,0,.48.48,0,0,1,0-.91" transform="translate(-301.59 323)" class="color00debe svgShape"></path><path fill="#1a2e35" d="M442.53-261.64a1.76,1.76,0,0,1,1.58,0c.44.25.44.66,0,.92a1.76,1.76,0,0,1-1.58,0c-.44-.26-.44-.67,0-.92" transform="translate(-301.59 323)" class="color1a2e35 svgShape"></path><path fill="#24b2c0" d="M444.13-255.26a1.78,1.78,0,0,1,1.59,0c.44.25.44.66,0,.92a1.78,1.78,0,0,1-1.59,0c-.44-.26-.44-.67,0-.92" transform="translate(-301.59 323)" class="color00debe svgShape"></path><path fill="#1a2e35" d="M446.51-256.64a1.78 1.78 0 011.59 0c.44.26.44.67 0 .92a1.78 1.78 0 01-1.59 0c-.44-.25-.44-.66 0-.92M445.7-259.81a1.78 1.78 0 011.59 0c.44.26.44.67 0 .92a1.78 1.78 0 01-1.59 0c-.44-.25-.44-.66 0-.92" transform="translate(-301.59 323)" class="color1a2e35 svgShape"></path><path fill="#24b2c0" d="M438.56-266.68a1.78,1.78,0,0,1,1.59,0,.49.49,0,0,1,0,.92,1.78,1.78,0,0,1-1.59,0c-.44-.25-.44-.66,0-.92" transform="translate(-301.59 323)" class="color00debe svgShape"></path><path fill="#1a2e35" d="M441.73-264.85a1.78,1.78,0,0,1,1.59,0c.44.26.44.67,0,.92a1.78,1.78,0,0,1-1.59,0,.49.49,0,0,1,0-.92" transform="translate(-301.59 323)" class="color1a2e35 svgShape"></path><path fill="#24b2c0" d="M444.91-263a1.72,1.72,0,0,1,1.59,0,.48.48,0,0,1,0,.91,1.72,1.72,0,0,1-1.59,0,.48.48,0,0,1,0-.91" transform="translate(-301.59 323)" class="color00debe svgShape"></path><path fill="#1a2e35" d="M448.08-261.18a1.78,1.78,0,0,1,1.59,0c.44.25.44.66,0,.92a1.78,1.78,0,0,1-1.59,0c-.44-.26-.44-.67,0-.92" transform="translate(-301.59 323)" class="color1a2e35 svgShape"></path><path fill="#24b2c0" d="M448.89-258a1.78,1.78,0,0,1,1.59,0c.44.25.44.66,0,.92a1.78,1.78,0,0,1-1.59,0,.49.49,0,0,1,0-.92" transform="translate(-301.59 323)" class="color00debe svgShape"></path><path fill="#1a2e35" d="M451.27-259.38a1.72,1.72,0,0,1,1.59,0,.48.48,0,0,1,0,.91,1.72,1.72,0,0,1-1.59,0,.48.48,0,0,1,0-.91" transform="translate(-301.59 323)" class="color1a2e35 svgShape"></path><path fill="#2b454e" d="M445.53-251.58v2.44a1.4,1.4,0,0,1-.71-.15l-17.69-10.22a1.47,1.47,0,0,1-.68-1.17v-.88a1.51,1.51,0,0,1,.55-1.09c-.24.22-.2.51.13.7l17.69,10.21a1.31,1.31,0,0,0,.71.16" transform="translate(-301.59 323)" class="color2b454e svgShape"></path><path fill="#1a2e35" d="M442-270.61l0,0a.6.6,0,0,1,.76-.16l15.39,8.89a.45.45,0,0,1,.14.68v0a.6.6,0,0,1-.76.16l-15.4-8.89a.45.45,0,0,1-.14-.68" transform="translate(-301.59 323)" class="color1a2e35 svgShape"></path><path fill="#24b2c0" d="M442-270.61l0,0a.6.6,0,0,1,.76-.16l11.44,6.61-.63.86-11.45-6.61a.45.45,0,0,1-.14-.68" transform="translate(-301.59 323)" class="color00debe svgShape"></path><path fill="#1a2e35" d="M443.22-272.32l0,0a.6.6,0,0,1,.76-.16l15.4,8.89a.46.46,0,0,1,.14.68l0,0a.6.6,0,0,1-.76.16l-15.39-8.89a.46.46,0,0,1-.15-.68" transform="translate(-301.59 323)" class="color1a2e35 svgShape"></path><path fill="#24b2c0" d="M443.22-272.32l0,0a.6.6,0,0,1,.76-.16l3.83,2.21-.64.86-3.82-2.21a.46.46,0,0,1-.15-.68" transform="translate(-301.59 323)" class="color00debe svgShape"></path><path fill="#1a2e35" d="M444.5-274v0a.59.59,0,0,1,.76-.15l15.4,8.89a.44.44,0,0,1,.14.67l0,0a.59.59,0,0,1-.76.15l-15.39-8.88a.46.46,0,0,1-.14-.68" transform="translate(-301.59 323)" class="color1a2e35 svgShape"></path><path fill="#24b2c0" d="M444.5-274v0a.59.59,0,0,1,.76-.15l8,4.61-.64.86-8-4.62a.44.44,0,0,1-.14-.67" transform="translate(-301.59 323)" class="color00debe svgShape"></path><path fill="#1a2e35" d="M445.77-275.73l0,0a.58.58,0,0,1,.76-.16L461.94-267a.45.45,0,0,1,.14.68v0a.6.6,0,0,1-.77.15L445.91-275a.46.46,0,0,1-.14-.68" transform="translate(-301.59 323)" class="color1a2e35 svgShape"></path><path fill="#24b2c0" d="M445.77-275.73l0,0a.58.58,0,0,1,.76-.16l14,8.07-.64.85-14-8.06a.46.46,0,0,1-.14-.68" transform="translate(-301.59 323)" class="color00debe svgShape"></path><path fill="none" stroke="#24b2c0" stroke-miterlimit="10" stroke-width=".52" d="M418-132.83l5.22-3a2.5,2.5,0,0,1,2.26,0l31,17.91a1.15,1.15,0,0,0,1.72-1v-25.65" transform="translate(-301.59 323)" class="colorStroke00debe svgStroke"></path><path fill="none" stroke="#24b2c0" stroke-miterlimit="10" stroke-width=".52" d="M415.87-134l7.33-4.24a2.5,2.5,0,0,1,2.26,0l33.13,19.13a1.15,1.15,0,0,0,1.72-1v-24.43" transform="translate(-301.59 323)" class="colorStroke00debe svgStroke"></path><path fill="none" stroke="#24b2c0" stroke-miterlimit="10" stroke-width=".52" d="M413.75-135.28l9.45-5.46a2.53,2.53,0,0,1,2.26,0l35.24,20.34a1.15,1.15,0,0,0,1.73-1v-23.06" transform="translate(-301.59 323)" class="colorStroke00debe svgStroke"></path><path fill="none" stroke="#24b2c0" stroke-miterlimit="10" stroke-width=".52" d="M411.63-136.5l11.57-6.68a2.5,2.5,0,0,1,2.26,0l37.36,21.57a1.15,1.15,0,0,0,1.72-1v-21.84" transform="translate(-301.59 323)" class="colorStroke00debe svgStroke"></path><path fill="#2b454e" d="M383-242.15l-33.72,19.47a2.5,2.5,0,0,0-1.13,2V-128a2.51,2.51,0,0,0,1.13,2L383-106.6a2.5,2.5,0,0,0,2.26,0L419-126.07a2.51,2.51,0,0,0,1.13-2v-92.7a2.5,2.5,0,0,0-1.13-2l-33.72-19.47a2.5,2.5,0,0,0-2.26,0" transform="translate(-301.59 323)" class="color2b454e svgShape"></path><path fill="#1a2e35" d="M420.1-220.73V-128a2.51,2.51,0,0,1-1.13,2L385.25-106.6a2.3,2.3,0,0,1-1.13.27v-95.31a2.33,2.33,0,0,0,1.13-.27L419-221.38l.31-.25.4-.34a2.33,2.33,0,0,1,.42,1.24" transform="translate(-301.59 323)" class="color1a2e35 svgShape"></path><path fill="#375a64" d="M353.5-211.6,378.76-197a2.5,2.5,0,0,1,1.13,2v9.62c0,.72-.51,1-1.13.65L353.5-199.38a2.5,2.5,0,0,1-1.12-2v-9.61c0-.72.5-1,1.12-.65" transform="translate(-301.59 323)" class="color375a64 svgShape"></path><path fill="#24b2c0" d="M354.49-207.37a2.43,2.43,0,0,0,1.13,1.88l21,12.13c.63.36,1.13.11,1.13-.57a2.41,2.41,0,0,0-1.13-1.87l-21-12.14c-.62-.36-1.13-.1-1.13.57" transform="translate(-301.59 323)" class="color00debe svgShape"></path><path fill="#1a2e35" d="M354.49-202.48a2.42,2.42,0,0,0,1.13,1.87l21,12.14c.63.36,1.13.11,1.13-.57a2.41,2.41,0,0,0-1.13-1.87l-21-12.14c-.62-.36-1.13-.1-1.13.57" transform="translate(-301.59 323)" class="color1a2e35 svgShape"></path><path fill="#24b2c0" d="M355.62-203l11.57,6.68v2.44l-11.57-6.68a2.42,2.42,0,0,1-1.13-1.87c0-.67.51-.93,1.13-.57" transform="translate(-301.59 323)" class="color00debe svgShape"></path><path fill="#375a64" d="M353.5-194.5l25.26,14.58a2.51,2.51,0,0,1,1.13,2v9.61c0,.72-.51,1-1.13.65L353.5-182.28a2.49,2.49,0,0,1-1.12-1.95v-9.62c0-.72.5-1,1.12-.65" transform="translate(-301.59 323)" class="color375a64 svgShape"></path><path fill="#24b2c0" d="M354.49-190.26a2.43,2.43,0,0,0,1.13,1.87l21,12.14c.63.36,1.13.1,1.13-.57a2.39,2.39,0,0,0-1.13-1.87l-21-12.14c-.62-.36-1.13-.11-1.13.57" transform="translate(-301.59 323)" class="color00debe svgShape"></path><path fill="#1a2e35" d="M354.49-185.37a2.43,2.43,0,0,0,1.13,1.87l21,12.14c.63.36,1.13.1,1.13-.57a2.41,2.41,0,0,0-1.13-1.88l-21-12.13c-.62-.36-1.13-.11-1.13.57" transform="translate(-301.59 323)" class="color1a2e35 svgShape"></path><path fill="#24b2c0" d="M355.62-185.94l17.92,10.34v2.45L355.62-183.5a2.43,2.43,0,0,1-1.13-1.87c0-.68.51-.93,1.13-.57" transform="translate(-301.59 323)" class="color00debe svgShape"></path><path fill="#375a64" d="M353.5-177.39l25.26,14.58a2.51,2.51,0,0,1,1.13,1.95v9.62c0,.72-.51,1-1.13.65L353.5-165.17a2.5,2.5,0,0,1-1.12-2v-9.61c0-.72.5-1,1.12-.65" transform="translate(-301.59 323)" class="color375a64 svgShape"></path><path fill="#24b2c0" d="M354.49-173.15a2.43,2.43,0,0,0,1.13,1.87l21,12.14c.63.36,1.13.1,1.13-.57a2.41,2.41,0,0,0-1.13-1.88l-21-12.14c-.62-.36-1.13-.1-1.13.58" transform="translate(-301.59 323)" class="color00debe svgShape"></path><path fill="#1a2e35" d="M354.49-168.27a2.43,2.43,0,0,0,1.13,1.88l21,12.13c.63.36,1.13.11,1.13-.57a2.41,2.41,0,0,0-1.13-1.87l-21-12.14c-.62-.36-1.13-.1-1.13.57" transform="translate(-301.59 323)" class="color1a2e35 svgShape"></path><path fill="#24b2c0" d="M355.62-168.84,363-164.6v2.44l-7.34-4.23a2.43,2.43,0,0,1-1.13-1.88c0-.67.51-.93,1.13-.57" transform="translate(-301.59 323)" class="color00debe svgShape"></path><path fill="#375a64" d="M353.5-160.28l25.26,14.58a2.5,2.5,0,0,1,1.13,1.95v9.61c0,.72-.51,1-1.13.66L353.5-148.07a2.49,2.49,0,0,1-1.12-2v-9.61c0-.72.5-1,1.12-.65" transform="translate(-301.59 323)" class="color375a64 svgShape"></path><path fill="#24b2c0" d="M354.49-156a2.42,2.42,0,0,0,1.13,1.87l21,12.14c.63.36,1.13.11,1.13-.57a2.41,2.41,0,0,0-1.13-1.87l-21-12.14c-.62-.36-1.13-.1-1.13.57" transform="translate(-301.59 323)" class="color00debe svgShape"></path><path fill="#1a2e35" d="M354.49-151.16a2.43,2.43,0,0,0,1.13,1.87l21,12.14c.63.36,1.13.1,1.13-.57a2.39,2.39,0,0,0-1.13-1.87l-21-12.14c-.62-.36-1.13-.11-1.13.57" transform="translate(-301.59 323)" class="color1a2e35 svgShape"></path><path fill="#24b2c0" d="M355.62-151.73,367.19-145v2.44l-11.57-6.68a2.43,2.43,0,0,1-1.13-1.87c0-.68.51-.93,1.13-.57" transform="translate(-301.59 323)" class="color00debe svgShape"></path><path fill="#375a64" d="M353.5-143.18l25.26,14.58a2.51,2.51,0,0,1,1.13,2V-117c0,.72-.51,1-1.13.65L353.5-131a2.49,2.49,0,0,1-1.12-1.95v-9.62c0-.72.5-1,1.12-.65" transform="translate(-301.59 323)" class="color375a64 svgShape"></path><path fill="#24b2c0" d="M354.49-138.94a2.43,2.43,0,0,0,1.13,1.87l21,12.14c.63.36,1.13.1,1.13-.57a2.41,2.41,0,0,0-1.13-1.88l-21-12.13c-.62-.36-1.13-.11-1.13.57" transform="translate(-301.59 323)" class="color00debe svgShape"></path><path fill="#1a2e35" d="M354.49-134.06a2.43,2.43,0,0,0,1.13,1.88l21,12.14c.63.36,1.13.1,1.13-.57a2.41,2.41,0,0,0-1.13-1.88l-21-12.14c-.62-.36-1.13-.1-1.13.57" transform="translate(-301.59 323)" class="color1a2e35 svgShape"></path><path fill="#24b2c0" d="M355.62-134.63l15.8,9.13v2.44l-15.8-9.12a2.43,2.43,0,0,1-1.13-1.88c0-.67.51-.93,1.13-.57" transform="translate(-301.59 323)" class="color00debe svgShape"></path><path fill="#2b454e" d="M389.41-195.75c1.17-.68,2.12-.06,2.12,1.37v55.89a4.83,4.83,0,0,1-2.12,3.83c-1.17.68-2.11.06-2.11-1.37v-55.89a4.82,4.82,0,0,1,2.11-3.83" transform="translate(-301.59 323)" class="color2b454e svgShape"></path><path fill="#1a2e35" d="M389.41-135.89a2.42,2.42,0,0,0,1.06-1.92v-56c0-.72-.47-1-1.06-.69a2.43,2.43,0,0,0-1.06,1.91v56c0,.71.48,1,1.06.69" transform="translate(-301.59 323)" class="color1a2e35 svgShape"></path><path fill="#24b2c0" d="M389.41-135.89a2.42,2.42,0,0,0,1.06-1.92V-164.6l-2.12,1.22v26.8c0,.71.48,1,1.06.69" transform="translate(-301.59 323)" class="color00debe svgShape"></path><path fill="#2b454e" d="M395.76-199.42c1.17-.68,2.12-.06,2.12,1.38v55.89a4.85,4.85,0,0,1-2.12,3.83c-1.17.68-2.12.06-2.12-1.38v-55.89a4.85,4.85,0,0,1,2.12-3.83" transform="translate(-301.59 323)" class="color2b454e svgShape"></path><path fill="#24b2c0" d="M395.76-139.56a2.4,2.4,0,0,0,1.06-1.91v-56.05c0-.72-.47-1-1.06-.69a2.45,2.45,0,0,0-1.06,1.92v56c0,.72.48,1,1.06.69" transform="translate(-301.59 323)" class="color00debe svgShape"></path><path fill="#2b454e" d="M402.11-203.08c1.17-.68,2.12-.07,2.12,1.37v55.89a4.83,4.83,0,0,1-2.12,3.83c-1.17.68-2.12.06-2.12-1.37v-55.89a4.83,4.83,0,0,1,2.12-3.83" transform="translate(-301.59 323)" class="color2b454e svgShape"></path><path fill="#1a2e35" d="M402.11-143.22a2.45,2.45,0,0,0,1.06-1.92v-56c0-.72-.48-1-1.06-.69a2.41,2.41,0,0,0-1.06,1.91v56c0,.72.48,1,1.06.7" transform="translate(-301.59 323)" class="color1a2e35 svgShape"></path><path fill="#24b2c0" d="M402.11-143.22a2.45,2.45,0,0,0,1.06-1.92v-43.29l-2.12,1.22v43.29c0,.72.48,1,1.06.7" transform="translate(-301.59 323)" class="color00debe svgShape"></path><path fill="#2b454e" d="M408.46-206.75c1.17-.68,2.12-.06,2.12,1.38v55.89a4.86,4.86,0,0,1-2.12,3.83c-1.17.68-2.12.06-2.12-1.38v-55.89a4.85,4.85,0,0,1,2.12-3.83" transform="translate(-301.59 323)" class="color2b454e svgShape"></path><path fill="#1a2e35" d="M408.46-146.89a2.43,2.43,0,0,0,1.06-1.91v-56c0-.72-.48-1-1.06-.69a2.42,2.42,0,0,0-1.06,1.91v56c0,.72.47,1,1.06.69" transform="translate(-301.59 323)" class="color1a2e35 svgShape"></path><path fill="#24b2c0" d="M408.46-146.89a2.43,2.43,0,0,0,1.06-1.91v-9.46L407.4-157v9.46c0,.72.47,1,1.06.69" transform="translate(-301.59 323)" class="color00debe svgShape"></path><path fill="#2b454e" d="M414.81-210.42c1.17-.67,2.11-.06,2.11,1.38v55.89a4.82,4.82,0,0,1-2.11,3.83c-1.17.68-2.12.06-2.12-1.38v-55.88a4.87,4.87,0,0,1,2.12-3.84" transform="translate(-301.59 323)" class="color2b454e svgShape"></path><path fill="#1a2e35" d="M414.81-150.55a2.45,2.45,0,0,0,1.06-1.92v-56c0-.72-.48-1-1.06-.69a2.39,2.39,0,0,0-1.06,1.91v56c0,.72.47,1,1.06.7" transform="translate(-301.59 323)" class="color1a2e35 svgShape"></path><path fill="#24b2c0" d="M414.81-150.55a2.45,2.45,0,0,0,1.06-1.92v-29.24l-2.12,1.22v29.24c0,.72.47,1,1.06.7" transform="translate(-301.59 323)" class="color00debe svgShape"></path><path fill="#2b454e" d="M388.2-127.86,416-143.92c.5-.29.9-.05.9.52v10.14a2,2,0,0,1-.9,1.56L388.2-115.64c-.5.29-.9.06-.9-.52v-10.13a2,2,0,0,1,.9-1.57" transform="translate(-301.59 323)" class="color2b454e svgShape"></path><path fill="#1a2e35" d="M389.34-124.85c0,.67.51.93,1.13.57l23.28-13.45a2.4,2.4,0,0,0,1.13-1.87c0-.67-.51-.93-1.13-.57l-23.28,13.45a2.42,2.42,0,0,0-1.13,1.87" transform="translate(-301.59 323)" class="color1a2e35 svgShape"></path><path fill="#24b2c0" d="M389.34-124.85c0,.67.51.93,1.13.57l16.93-9.78v-2.44l-16.93,9.78a2.42,2.42,0,0,0-1.13,1.87" transform="translate(-301.59 323)" class="color00debe svgShape"></path><path fill="#1a2e35" d="M389.34-120c0,.67.51.93,1.13.57l23.28-13.45a2.43,2.43,0,0,0,1.13-1.87c0-.68-.51-.93-1.13-.57l-23.28,13.44a2.43,2.43,0,0,0-1.13,1.88" transform="translate(-301.59 323)" class="color1a2e35 svgShape"></path><path fill="#24b2c0" d="M389.34-120c0,.67.51.93,1.13.57l6.35-3.67v-2.44l-6.35,3.66a2.43,2.43,0,0,0-1.13,1.88" transform="translate(-301.59 323)" class="color00debe svgShape"></path><path fill="#375a64" d="M419-222.68l-33.72-19.47a2.5,2.5,0,0,0-2.26,0l-33.72,19.47a.69.69,0,0,0,0,1.3L383-201.91a2.5,2.5,0,0,0,2.26,0L419-221.38a.69.69,0,0,0,0-1.3" transform="translate(-301.59 323)" class="color375a64 svgShape"></path><path fill="#1a2e35" d="M383.44-206.54l-26.15-15.1a1.47,1.47,0,0,1-.68-1.17v-.88a1.47,1.47,0,0,1,.68-1.17L383.44-240a1.55,1.55,0,0,1,1.36,0L411-224.86a1.49,1.49,0,0,1,.67,1.17v.88a1.49,1.49,0,0,1-.67,1.17l-26.16,15.1a1.48,1.48,0,0,1-1.36,0" transform="translate(-301.59 323)" class="color1a2e35 svgShape"></path><path fill="#375a64" d="M357.29-224.08,383.44-209a1.48,1.48,0,0,0,1.36,0L411-224.08c.37-.22.37-.57,0-.78L384.8-239.44a1.48,1.48,0,0,0-1.36,0l-26.15,14.58c-.38.21-.38.56,0,.78" transform="translate(-301.59 323)" class="color375a64 svgShape"></path><path fill="#2b454e" d="M384.12-208.82v2.45a1.4,1.4,0,0,1-.68-.17l-26.15-15.1a1.47,1.47,0,0,1-.68-1.17v-.88a1.51,1.51,0,0,1,.55-1.09c-.24.22-.2.51.13.7L383.44-209a1.39,1.39,0,0,0,.68.16" transform="translate(-301.59 323)" class="color2b454e svgShape"></path><path fill="#1a2e35" d="M383.44-213.87l-17.69-10.21a1.51,1.51,0,0,1-.68-1.17v-.88a1.52,1.52,0,0,1,.68-1.18l11.34-6.55a4.45,4.45,0,0,0,1.15-1l5.42-7.3a.88.88,0,0,1,1.14-.24l17.69,10.22a1.47,1.47,0,0,1,.68,1.17v5.77a1.51,1.51,0,0,1-.68,1.17L384.8-213.87a1.48,1.48,0,0,1-1.36,0" transform="translate(-301.59 323)" class="color1a2e35 svgShape"></path><path fill="#375a64" d="M384.8-216.31l11.34-6.55a3.46,3.46,0,0,0,.59-.44,3.64,3.64,0,0,0,.55-.58l5.42-7.3a.67.67,0,0,0-.21-1L384.8-242.41a.88.88,0,0,0-1.14.24l-5.42,7.3a4.36,4.36,0,0,1-1.05,1.05l-11.44,6.51c-.37.22-.37.57,0,.78l17.69,10.22a1.48,1.48,0,0,0,1.36,0" transform="translate(-301.59 323)" class="color375a64 svgShape"></path><path fill="#2b454e" d="M402.49-232.19,384.8-242.41a.88.88,0,0,0-1.14.24l-5.42,7.3a4.25,4.25,0,0,1-.56.57l19.05,11a3.64,3.64,0,0,0,.55-.58l5.42-7.3a.67.67,0,0,0-.21-1" transform="translate(-301.59 323)" class="color2b454e svgShape"></path><path fill="#24b2c0" d="M370-227.13a1.78 1.78 0 011.59 0c.44.26.44.67 0 .92a1.78 1.78 0 01-1.59 0 .49.49 0 010-.92M373.22-225.29a1.72 1.72 0 011.59 0 .48.48 0 010 .91 1.78 1.78 0 01-1.59 0 .48.48 0 010-.91" transform="translate(-301.59 323)" class="color00debe svgShape"></path><path fill="#1a2e35" d="M376.39-223.46a1.72 1.72 0 011.59 0 .48.48 0 010 .91 1.72 1.72 0 01-1.59 0 .48.48 0 010-.91M379.57-221.63a1.76 1.76 0 011.58 0c.44.25.44.66 0 .92a1.76 1.76 0 01-1.58 0c-.44-.26-.44-.67 0-.92" transform="translate(-301.59 323)" class="color1a2e35 svgShape"></path><path fill="#24b2c0" d="M372.42-228.5a1.72,1.72,0,0,1,1.59,0,.48.48,0,0,1,0,.91,1.72,1.72,0,0,1-1.59,0,.48.48,0,0,1,0-.91" transform="translate(-301.59 323)" class="color00debe svgShape"></path><path fill="#1a2e35" d="M375.6-226.67a1.78,1.78,0,0,1,1.59,0,.49.49,0,0,1,0,.92,1.78,1.78,0,0,1-1.59,0c-.44-.26-.44-.67,0-.92" transform="translate(-301.59 323)" class="color1a2e35 svgShape"></path><path fill="#24b2c0" d="M378.77-224.84a1.78,1.78,0,0,1,1.59,0c.44.26.44.67,0,.92a1.78,1.78,0,0,1-1.59,0c-.44-.25-.44-.66,0-.92" transform="translate(-301.59 323)" class="color00debe svgShape"></path><path fill="#1a2e35" d="M382-223a1.7 1.7 0 011.58 0 .48.48 0 010 .91 1.7 1.7 0 01-1.58 0 .48.48 0 010-.91M374.81-229.88a1.76 1.76 0 011.58 0c.44.26.44.67 0 .92a1.76 1.76 0 01-1.58 0c-.44-.25-.44-.66 0-.92" transform="translate(-301.59 323)" class="color1a2e35 svgShape"></path><path fill="#24b2c0" d="M378-228a1.72,1.72,0,0,1,1.59,0,.48.48,0,0,1,0,.91,1.72,1.72,0,0,1-1.59,0,.48.48,0,0,1,0-.91" transform="translate(-301.59 323)" class="color00debe svgShape"></path><path fill="#1a2e35" d="M381.15-226.21a1.78,1.78,0,0,1,1.59,0c.44.25.44.66,0,.92a1.78,1.78,0,0,1-1.59,0,.49.49,0,0,1,0-.92" transform="translate(-301.59 323)" class="color1a2e35 svgShape"></path><path fill="#24b2c0" d="M382.76-219.83a1.72,1.72,0,0,1,1.59,0,.48.48,0,0,1,0,.91,1.72,1.72,0,0,1-1.59,0,.48.48,0,0,1,0-.91" transform="translate(-301.59 323)" class="color00debe svgShape"></path><path fill="#1a2e35" d="M385.14-221.21a1.78 1.78 0 011.59 0c.44.26.44.67 0 .92a1.78 1.78 0 01-1.59 0c-.44-.25-.44-.66 0-.92M384.33-224.38a1.78 1.78 0 011.59 0 .49.49 0 010 .92 1.78 1.78 0 01-1.59 0c-.44-.25-.44-.66 0-.92" transform="translate(-301.59 323)" class="color1a2e35 svgShape"></path><path fill="#24b2c0" d="M377.19-231.25a1.76,1.76,0,0,1,1.58,0c.44.25.44.66,0,.92a1.76,1.76,0,0,1-1.58,0c-.44-.26-.44-.67,0-.92" transform="translate(-301.59 323)" class="color00debe svgShape"></path><path fill="#1a2e35" d="M380.36-229.42a1.78,1.78,0,0,1,1.59,0c.44.26.44.67,0,.92a1.78,1.78,0,0,1-1.59,0c-.44-.25-.44-.66,0-.92" transform="translate(-301.59 323)" class="color1a2e35 svgShape"></path><path fill="#24b2c0" d="M383.53-227.58a1.72,1.72,0,0,1,1.59,0,.48.48,0,0,1,0,.91,1.72,1.72,0,0,1-1.59,0,.48.48,0,0,1,0-.91" transform="translate(-301.59 323)" class="color00debe svgShape"></path><path fill="#1a2e35" d="M386.71-225.75a1.78,1.78,0,0,1,1.59,0,.48.48,0,0,1,0,.91,1.72,1.72,0,0,1-1.59,0,.48.48,0,0,1,0-.91" transform="translate(-301.59 323)" class="color1a2e35 svgShape"></path><path fill="#24b2c0" d="M387.52-222.58a1.78,1.78,0,0,1,1.59,0c.44.25.44.66,0,.92a1.78,1.78,0,0,1-1.59,0c-.44-.26-.44-.67,0-.92" transform="translate(-301.59 323)" class="color00debe svgShape"></path><path fill="#1a2e35" d="M389.9-224a1.78,1.78,0,0,1,1.59,0c.44.26.44.67,0,.92a1.78,1.78,0,0,1-1.59,0c-.44-.25-.44-.66,0-.92" transform="translate(-301.59 323)" class="color1a2e35 svgShape"></path><path fill="#2b454e" d="M384.16-216.15v2.44a1.42,1.42,0,0,1-.72-.16l-17.69-10.21a1.52,1.52,0,0,1-.68-1.18v-.88a1.5,1.5,0,0,1,.56-1.08c-.25.21-.21.51.12.69l17.69,10.22a1.42,1.42,0,0,0,.72.16" transform="translate(-301.59 323)" class="color2b454e svgShape"></path><path fill="#1a2e35" d="M380.58-235.18v0a.6.6,0,0,1,.76-.16l15.4,8.89a.45.45,0,0,1,.14.68l0,0a.6.6,0,0,1-.76.16l-15.39-8.89a.45.45,0,0,1-.14-.68" transform="translate(-301.59 323)" class="color1a2e35 svgShape"></path><path fill="#24b2c0" d="M380.58-235.18v0a.6.6,0,0,1,.76-.16l11.45,6.61-.64.86-11.44-6.61a.45.45,0,0,1-.14-.68" transform="translate(-301.59 323)" class="color00debe svgShape"></path><path fill="#1a2e35" d="M381.85-236.89l0,0a.6.6,0,0,1,.76-.16L398-228.18a.45.45,0,0,1,.14.68v0a.6.6,0,0,1-.76.16L382-236.21a.45.45,0,0,1-.14-.68" transform="translate(-301.59 323)" class="color1a2e35 svgShape"></path><path fill="#24b2c0" d="M381.85-236.89l0,0a.6.6,0,0,1,.76-.16l3.82,2.21-.63.86L382-236.21a.45.45,0,0,1-.14-.68" transform="translate(-301.59 323)" class="color00debe svgShape"></path><path fill="#1a2e35" d="M383.12-238.6l0,0a.6.6,0,0,1,.76-.16l15.4,8.89a.46.46,0,0,1,.14.68l0,0a.6.6,0,0,1-.76.16l-15.4-8.89a.46.46,0,0,1-.14-.68" transform="translate(-301.59 323)" class="color1a2e35 svgShape"></path><path fill="#24b2c0" d="M383.12-238.6l0,0a.6.6,0,0,1,.76-.16l8,4.62-.64.86-8-4.62a.46.46,0,0,1-.14-.68" transform="translate(-301.59 323)" class="color00debe svgShape"></path><path fill="#1a2e35" d="M384.4-240.3v0a.59.59,0,0,1,.76-.15l15.4,8.89a.44.44,0,0,1,.14.67l0,0a.58.58,0,0,1-.76.16l-15.39-8.89a.44.44,0,0,1-.14-.67" transform="translate(-301.59 323)" class="color1a2e35 svgShape"></path><path fill="#24b2c0" d="M384.4-240.3v0a.59.59,0,0,1,.76-.15l14,8.06-.64.86-14-8.07a.44.44,0,0,1-.14-.67" transform="translate(-301.59 323)" class="color00debe svgShape"></path></g><g clip-path="url(#a)" fill="#000000" class="color000 svgShape"><path fill="#f9f9f9" d="M455.78-140.53V-112a.73.73,0,0,0,.34.58l27.35,15.77a.72.72,0,0,0,.67,0l.91-.52a.75.75,0,0,0,.34-.59v-28.53a.38.38,0,0,0-.39-.39l-28.83-15.25a.39.39,0,0,0-.39.39" transform="translate(-301.59 323)" class="colorf9f9f9 svgShape"></path><path fill="#f4f4f4" d="M485-125.67h-.8a.38.38,0,0,0-.39.39v29.45c0,.22.15.3.33.19l.91-.52a.75.75,0,0,0,.34-.59v-28.53a.38.38,0,0,0-.39-.39" transform="translate(-301.59 323)" class="colorf4f4f4 svgShape"></path><path fill="#e0e0e0" d="M510.25-173.22v28.53a.76.76,0,0,0,.33.59L539-127.7a.74.74,0,0,0,.68,0l.91-.53a.74.74,0,0,0,.34-.58v-28.54a.39.39,0,0,0-.39-.39l-29.91-15.87a.38.38,0,0,0-.39.39" transform="translate(-301.59 323)" class="colore0e0e0 svgShape"></path><path fill="#ebebeb" d="M540.55-157.74h-.81a.4.4,0,0,0-.39.39v29.45c0,.22.15.31.34.2l.91-.53a.73.73,0,0,0,.34-.58v-28.54a.39.39,0,0,0-.39-.39" transform="translate(-301.59 323)" class="colorebebeb svgShape"></path><path fill="#f4f4f4" d="M453.11-141.42v-.27a1.47,1.47,0,0,1,.68-1.17L511.16-176a1.55,1.55,0,0,1,1.36,0l30.39,17.55a1.49,1.49,0,0,1,.67,1.17v.27a1.49,1.49,0,0,1-.67,1.17L485.53-122.7a1.53,1.53,0,0,1-1.35,0l-30.39-17.55a1.47,1.47,0,0,1-.68-1.17" transform="translate(-301.59 323)" class="colorf4f4f4 svgShape"></path><path fill="#ebebeb" d="M484.86-124.37v1.83a1.48,1.48,0,0,1-.68-.16l-30.39-17.55a1.49,1.49,0,0,1-.68-1.17v-.27a1.5,1.5,0,0,1,.55-1.08c-.24.2-.2.5.13.69l30.39,17.55a1.37,1.37,0,0,0,.68.16" transform="translate(-301.59 323)" class="colorebebeb svgShape"></path><path fill="#f9f9f9" d="M453.79-142.08l30.39,17.54a1.46,1.46,0,0,0,1.35,0l57.38-33.12c.37-.22.37-.57,0-.78L512.52-176a1.55,1.55,0,0,0-1.36,0l-57.37,33.13c-.38.21-.38.56,0,.78" transform="translate(-301.59 323)" class="colorf9f9f9 svgShape"></path><path fill="#ebebeb" d="M502.77-154.33L520-164.27a1.21 1.21 0 011.11 0l5.44 3.18c.31.17.31.46 0 .64l-17.18 9.94a1.27 1.27 0 01-1.11 0l-5.44-3.18c-.31-.18-.31-.46 0-.64M505.82-160.5h0L504-161.56a.27.27 0 010-.52l14.28-8.24a.28.28 0 000-.53l-.15-.08a1 1 0 00-.9 0l-13.87 8c-.25.14-.49.16-.49 0a1 1 0 010-.24l.79-4.08a.79.79 0 00-.35-.77l-.15-.08a.35.35 0 00-.55.26l-.9 4.73a1.29 1.29 0 000 .52.75.75 0 01-.31.76l-8.66 5c-.25.15-.25.38 0 .52l.14.09a1 1 0 00.91 0L502-161a2 2 0 01.49-.24l0 0 2.81 1.62a1 1 0 00.9 0l5.89-3.39c.25-.14.33-.32.19-.41a1 1 0 00-.74.08l-5.32 2.55a4.05 4.05 0 01-.48.22" transform="translate(-301.59 323)" class="colorebebeb svgShape"></path><path fill="#2b454e" d="M521-165.59l5.15,3a1.21,1.21,0,0,1,.55.93,1.21,1.21,0,0,1-.55.92l-16.62,9.6a1.27,1.27,0,0,1-1.11,0l-5.15-3a1.18,1.18,0,0,1-.56-.92,1.19,1.19,0,0,1,.56-.92l16.62-9.6a1.27,1.27,0,0,1,1.11,0" transform="translate(-301.59 323)" class="color2b454e svgShape"></path><path fill="#1a2e35" d="M509-151a1.21,1.21,0,0,1-.55-.13l-5.15-3a1.18,1.18,0,0,1-.56-.92,1.19,1.19,0,0,1,.56-.92l.53-.31H509Z" transform="translate(-301.59 323)" class="color1a2e35 svgShape"></path><path fill="#375a64" d="M503.26-156l16.62-9.6a1.27,1.27,0,0,1,1.11,0l5.14,3a.34.34,0,0,1,0,.65l-16.62,9.59a1.21,1.21,0,0,1-1.11,0l-5.14-3c-.31-.18-.31-.46,0-.64" transform="translate(-301.59 323)" class="color375a64 svgShape"></path><path fill="#24b2c0" d="M518.45-161.16l.52-.3s0,0,0,0l-.61-.35h-.08l-.52.3s0,0,0,.05l.6.35h.09m-1-1.2-.53.3a0,0,0,0,0,0,.05l.61.35h.08l.53-.3s0,0,0,0l-.6-.35h-.08m-1.7,1-.88.51a0,0,0,0,0,0,0l.61.35a.08.08,0,0,0,.08,0l.89-.52s0,0,0,0l-.6-.35a.07.07,0,0,0-.09,0m.93-.54-.52.3s0,0,0,.05l.6.35h.09l.52-.3s0,0,0,0l-.61-.35a.11.11,0,0,0-.08,0m-2,1.19-.53.3s0,0,0,.05l.6.35h.09l.52-.31a0,0,0,0,0,0,0l-.61-.35a.06.06,0,0,0-.08,0m-.77.44-.52.3s0,0,0,.05l.61.35H514l.52-.3s0,0,0-.05l-.6-.35s-.07,0-.09,0m2.38,1.42.53-.3s0,0,0-.05l-.6-.35a.07.07,0,0,0-.09,0l-.52.3s0,0,0,.05l.61.35h.08m-.76.44.52-.3s0,0,0-.05l-.61-.35h-.08l-.52.3s0,0,0,.05l.6.35a.14.14,0,0,0,.09,0m-.77.44.53-.3s0,0,0-.05l-.6-.35h-.09l-.52.3a0,0,0,0,0,0,0l.61.35a.11.11,0,0,0,.08,0m-.76.44.52-.3s0,0,0-.05l-.61-.35h-.08l-.52.3s0,0,0,0l.6.35s.07,0,.09,0m3.76-3.17.53-.3s0,0,0,0l-.6-.35a.14.14,0,0,0-.09,0l-.52.3a0,0,0,0,0,0,.05l.61.35h.08m-.7,1.41,1.16-.68s0,0,0,0l-1.47-.84a.08.08,0,0,0-.08,0l-.61.35s0,0,0,0l.78.45a0,0,0,0,1,0,0l-.48.28s0,0,0,.05l.6.35H517m-3.91-.54-.53.3s0,0,0,.05l.6.35a.14.14,0,0,0,.09,0l.52-.3a0,0,0,0,0,0-.05l-.61-.35a.11.11,0,0,0-.08,0m-.77.44-.52.3s0,0,0,.05l.61.35s.06,0,.08,0l.52-.3s0,0,0-.05l-.6-.35h-.09m-3.82,4.95a.06.06,0,0,0,.08,0l.53-.3s0,0,0-.05l-.6-.35h-.08l-.53.3s0,0,0,.05Zm-2.3-1.42-.52.31a0,0,0,0,0,0,0l.61.35a.06.06,0,0,0,.08,0l.53-.3s0,0,0-.05l-.6-.35h-.09m1.24,1h.08l.52-.3a0,0,0,0,0,0-.05l-.61-.35a.11.11,0,0,0-.08,0l-.52.3s0,0,0,.05Zm2.41.65.52-.3s0,0,0,0l-.6-.35a.14.14,0,0,0-.09,0l-.52.3a0,0,0,0,0,0,.05l.61.35h.08m-.85.44h.09l.52-.3s0,0,0,0l-.61-.35a.11.11,0,0,0-.08,0l-.53.3s0,0,0,.05Zm-2-2.57-.52.3s0,0,0,.05l.6.35a.07.07,0,0,0,.09,0l.52-.3s0,0,0-.05l-.61-.35a.11.11,0,0,0-.08,0m3.82-2.21-.52.31a0,0,0,0,0,0,0l.61.35a.08.08,0,0,0,.08,0l.52-.31s0,0,0-.05l-.6-.34a.1.1,0,0,0-.09,0m-3.06,1.77-.52.3s0,0,0,.05l.61.35h.08l.52-.3s0,0,0,0l-.6-.35a.14.14,0,0,0-.09,0m3.83-2.21-.53.3s0,0,0,0l.6.35a.07.07,0,0,0,.09,0l.52-.3s0,0,0-.05l-.61-.35h-.08m-1.53.89-.53.3s0,0,0,.05l.6.34a.1.1,0,0,0,.09,0l.52-.31a0,0,0,0,0,0,0l-.61-.35a.06.06,0,0,0-.08,0m-.77.44-.52.3s0,0,0,.05l.61.35h.08l.53-.3s0,0,0,0l-.6-.35a.07.07,0,0,0-.09,0m-.76.44-.52.3s0,0,0,.05l.6.35h.09l.52-.3s0,0,0,0l-.61-.35a.11.11,0,0,0-.08,0m3.91.54.52-.31a0,0,0,0,0,0,0l-.61-.35a.08.08,0,0,0-.08,0l-.52.31s0,0,0,0l.6.35a.1.1,0,0,0,.09,0m6.72-6.68-.53.31s0,0,0,0l.6.35a.06.06,0,0,0,.08,0l.53-.3s0,0,0-.05l-.6-.35h-.08m-.93.54-.52.3s0,0,0,.05l.6.35h.09l.52-.3s0,0,0,0l-.61-.35s-.06,0-.08,0m1.69-1-.52.3s0,0,0,0l.6.35s.07,0,.09,0l.52-.3s0,0,0-.05l-.61-.35h-.08m-4,4.08.52-.3s0,0,0-.05l-.6-.35h-.09l-.52.3s0,0,0,0l.61.35a.06.06,0,0,0,.08,0m4.81-4.52h-.08l-.53.3a0,0,0,0,0,0,0l.61.35a.11.11,0,0,0,.08,0l.53-.3s0,0,0-.05Zm-7.57,7.11.53-.3s0,0,0-.05l-.6-.35H513l-.53.3s0,0,0,0l.61.35a.06.06,0,0,0,.08,0m9.38-5.41.53-.3s0,0,0-.05l-.6-.35h-.09l-.52.3s0,0,0,0l.61.35a.11.11,0,0,0,.08,0m-1.63-.06.53-.3s0,0,0-.05l-.6-.35h-.09l-.52.3s0,0,0,0l.61.35a.11.11,0,0,0,.08,0m.68-1.14h-.08l-.52.3s0,0,0,0l.6.35a.14.14,0,0,0,.09,0l.52-.3a0,0,0,0,0,0-.05Zm.16-.09,1.47.85a.14.14,0,0,0,.09,0l.52-.3s0,0,0-.05l-1.47-.85a.1.1,0,0,0-.09,0l-.52.3s0,0,0,.05m-1.77,1-.52.3s0,0,0,0l.6.35a.07.07,0,0,0,.09,0l.52-.3s0,0,0-.05l-.61-.35H520m-5.76,3.33-.52.3s0,0,0,.05l.61.35h.08l.52-.31s0,0,0,0l-.6-.35a.07.07,0,0,0-.09,0m7.47-2.57a.14.14,0,0,0,.09,0l.52-.3a0,0,0,0,0,0-.05l-.61-.35h-.08l-.52.3s0,0,0,0ZM515-160l-.52.31s0,0,0,0l.6.35a.1.1,0,0,0,.09,0l.52-.31s0,0,0-.05l-.61-.34a.08.08,0,0,0-.08,0m-5.73,5.06s.06,0,.08,0l.52-.3s0,0,0-.05l-.61-.35a.11.11,0,0,0-.08,0l-.52.3s0,0,0,.05ZM508.09-156l-.52.3s0,0,0,.05l.61.35h.08l.53-.3s0,0,0,0l-.6-.35a.14.14,0,0,0-.09,0m2,.64.53-.3s0,0,0-.05L510-156a.11.11,0,0,0-.08,0l-.53.3s0,0,0,.05l.6.35h.08m.77-.44.52-.3s0,0,0,0l-.61-.35s-.06,0-.08,0l-.52.3s0,0,0,.05l.6.35h.09m.76-.44.53-.3s0,0,0,0l-.6-.35a.06.06,0,0,0-.08,0l-.53.3s0,0,0,.05l.61.35h.08m-2.76-.2-.52.3s0,0,0,.05l.6.35H509l.52-.3s0,0,0,0l-.61-.35a.06.06,0,0,0-.08,0m.76-.45-.52.31s0,0,0,.05l.61.34a.08.08,0,0,0,.08,0l.53-.31s0,0,0,0l-.6-.35a.1.1,0,0,0-.09,0m3.06-1.76-.52.3a0,0,0,0,0,0,.05l.61.35a.11.11,0,0,0,.08,0l.53-.3s0,0,0-.05l-.6-.35h-.09m-.76.44-.52.3s0,0,0,0l.6.35a.14.14,0,0,0,.09,0l.52-.3s0,0,0-.05l-.61-.35h-.08m1.53-.88-.52.3s0,0,0,.05l.6.35h.09l.52-.3s0,0,0-.05l-.61-.35a.06.06,0,0,0-.08,0m-3.06,1.76-.52.31s0,0,0,0l.6.35a.07.07,0,0,0,.09,0l.52-.3s0,0,0-.05l-.61-.34a.08.08,0,0,0-.08,0m.76-.44-.52.3s0,0,0,0l.61.35s.06,0,.08,0l.53-.3s0,0,0-.05l-.6-.35h-.09m-.55,3.12.52-.3s0,0,0,0l-.61-.35s-.06,0-.08,0l-.53.3s0,0,0,.05l.6.35h.09m-4.49-.45-.61-.35a.08.08,0,0,0-.08,0l-.52.31s0,0,0,0l.6.35a.1.1,0,0,0,.09,0l.52-.31a0,0,0,0,0,0,0m1.14.33-.6-.35a.11.11,0,0,0-.08,0l-.81.47a0,0,0,0,0,0,0l.61.35a.08.08,0,0,0,.08,0l.81-.47s0,0,0-.05m-2.07-1-.61-.35h-.08l-.64.37s0,0,0,.05l.6.35h.09l.64-.37a0,0,0,0,0,0,0m.49-.28h.09l.52-.31a0,0,0,0,0,0,0l-.61-.35a.06.06,0,0,0-.08,0l-.53.3s0,0,0,.05Zm2.65,1.68-.61-.35a.08.08,0,0,0-.08,0l-1,.59s0,0,0,0l.6.35a.08.08,0,0,0,.09,0l1-.58s0,0,0,0m.5.7-.6-.35a.14.14,0,0,0-.09,0l-.64.37s0,0,0,0l.61.35a.06.06,0,0,0,.08,0l.64-.37s0,0,0,0m2.54-5.67a.06.06,0,0,0,.08,0l.53-.3s0,0,0-.05l-.6-.35h-.09l-.52.3s0,0,0,0Zm-1.53.89h.08l.53-.31s0,0,0,0l-.6-.35a.06.06,0,0,0-.08,0l-.53.3s0,0,0,.05Zm-3.39,1.95a.08.08,0,0,0,.08,0l.52-.31s0,0,0-.05l-.6-.34a.1.1,0,0,0-.09,0l-.52.31a0,0,0,0,0,0,0Zm4.15-2.4a.1.1,0,0,0,.09,0l.52-.31a0,0,0,0,0,0,0l-.61-.35a.08.08,0,0,0-.08,0l-.52.31s0,0,0,0Zm-1.52.89h.08l.52-.3s0,0,0,0l-.61-.35s-.06,0-.08,0l-.52.3s0,0,0,.05Zm.17,4.4a.11.11,0,0,0-.08,0l-.81.46s0,0,0,0l.6.35a.1.1,0,0,0,.09,0l.8-.46s0,0,0-.05ZM508-157.37s.06,0,.08,0l.52-.3s0,0,0-.05l-.6-.35a.14.14,0,0,0-.09,0l-.52.3s0,0,0,.05Zm-.77.44a.07.07,0,0,0,.09,0l.52-.3s0,0,0-.05l-.61-.35h-.08l-.53.3s0,0,0,.05Zm16.21-4.85h-.08L522-161a0,0,0,0,0,0,0l.61.35h.08l1.29-.74s0,0,0-.05Zm-1.69,1a.08.08,0,0,0-.08,0l-.53.31s0,0,0,0l.6.35a.1.1,0,0,0,.09,0l.52-.31s0,0,0-.05Zm-10.36,5.73.52-.3s0,0,0,0l-.6-.35a.07.07,0,0,0-.09,0l-.52.3s0,0,0,.05l.61.35h.08m8.83-4.85s-.06,0-.08,0l-.53.3s0,0,0,.05l.6.35h.09l.52-.3s0,0,0,0Zm4-2.3a.08.08,0,0,0-.09,0l-.52.3s0,0,0,0l.61.35a.11.11,0,0,0,.08,0l.52-.3s0,0,0-.05Zm1.37-.09-1.47-.85a.08.08,0,0,0-.09,0l-.52.3s0,0,0,.05l1.47.84a.1.1,0,0,0,.09,0l.52-.31a0,0,0,0,0,0,0m-8.22,4s-.06,0-.08,0l-.64.37s0,0,0,.05l.6.35h.09l.64-.37s0,0,0,0Zm1.94-1.12a.14.14,0,0,0-.09,0l-.8.47s0,0,0,0l.6.35a.1.1,0,0,0,.09,0l.8-.47s0,0,0,0Zm-3.71,2.14h-.08l-4.31,2.49a0,0,0,0,0,0,0l.61.35a.08.08,0,0,0,.08,0l4.31-2.49a0,0,0,0,0,0-.05ZM511-154.62a.06.06,0,0,0-.08,0l-.64.37s0,0,0,.05l.6.35H511l.64-.37s0,0,0-.05Zm5.44-3.14a.14.14,0,0,0-.09,0l-.64.37s0,0,0,0l.61.35a.11.11,0,0,0,.08,0l.65-.37s0,0,0,0Zm-6.32,3.65a.1.1,0,0,0-.09,0l-.64.37s0,0,0,.05l.61.35h.08l.65-.37s0,0,0,0Zm8.09-4.67a.06.06,0,0,0-.08,0l-.65.37s0,0,0,0l.61.34a.08.08,0,0,0,.08,0l.65-.38s0,0,0,0Zm2.74-1.58a.07.07,0,0,0-.09,0l-.52.3s0,0,0,.05l.61.34a.08.08,0,0,0,.08,0l.52-.31s0,0,0,0Zm1.67-1.22.52-.3s0,0,0-.05l-.6-.35h-.09l-.52.3a0,0,0,0,0,0,0l.61.35a.11.11,0,0,0,.08,0m-3.42,0,.53-.3s0,0,0,0l-.6-.35a.07.07,0,0,0-.09,0l-.52.3s0,0,0,.05l.61.35h.08m-1.73,3,1.53-.88s0,0,0,0l-.61-.35a.11.11,0,0,0-.08,0l-1.53.89a0,0,0,0,0,0,0l.61.35a.06.06,0,0,0,.08,0m4.3-2.53h.09l.52-.3a0,0,0,0,0,0-.05l-.61-.35h-.08l-.52.3s0,0,0,0Zm-.78-.5.53-.3s0,0,0-.05l-.6-.35h-.09l-.52.3s0,0,0,0l.61.35s.06,0,.08,0m-4.29,3.48.53-.31s0,0,0,0l-.6-.35a.06.06,0,0,0-.08,0l-.53.3s0,0,0,.05l.6.34a.08.08,0,0,0,.08,0m3.38-2h.09l.52-.3s0,0,0,0l-.61-.35a.06.06,0,0,0-.08,0l-.52.3s0,0,0,.05Zm-7.2,4.2.52-.3s0,0,0-.05l-.6-.35h-.09l-.52.3s0,0,0,.05l.61.35a.06.06,0,0,0,.08,0m.77-.44.52-.3s0,0,0-.05l-.61-.35a.11.11,0,0,0-.08,0l-.53.3s0,0,0,.05l.6.35a.1.1,0,0,0,.09,0m-1.53.89.52-.31a0,0,0,0,0,0,0l-.61-.35a.08.08,0,0,0-.08,0l-.53.31s0,0,0,0l.6.35a.1.1,0,0,0,.09,0m3-1.77.53-.3s0,0,0,0l-.61-.35a.11.11,0,0,0-.08,0l-.53.3s0,0,0,.05l.6.35h.08m-.76.44.52-.3s0,0,0-.05l-.6-.35a.14.14,0,0,0-.09,0l-.52.3a0,0,0,0,0,0,.05l.61.35h.08m1.53-.88.52-.3s0,0,0,0l-.6-.35a.07.07,0,0,0-.09,0l-.52.3s0,0,0,.05l.61.35H516m3.5-6.53h.08l.53-.3s0,0,0,0l-.16-.1a.11.11,0,0,0-.08,0l-.53.3s0,0,0,.05Zm-3.76,2.42a.08.08,0,0,0,.08,0l.52-.31a0,0,0,0,0,0,0l-.61-.35a.08.08,0,0,0-.08,0l-.52.31s0,0,0,.05Zm1.53-.88a.06.06,0,0,0,.08,0l.52-.3s0,0,0-.05l-.61-.35h-.08l-.52.3s0,0,0,.05Zm-2.47,1.42a.1.1,0,0,0,.09,0l.52-.31a0,0,0,0,0,0,0l-.61-.35a.08.08,0,0,0-.08,0l-.53.31s0,0,0,0Zm1.7-1a.06.06,0,0,0,.08,0l.53-.3s0,0,0-.05l-.6-.35h-.08l-.53.31s0,0,0,0Zm-3.23,1.87a.14.14,0,0,0,.09,0l.52-.3s0,0,0-.05l-.61-.35a.06.06,0,0,0-.08,0l-.53.3s0,0,0,.05Zm.77-.44h.08l.52-.31s0,0,0,0l-.6-.35a.07.07,0,0,0-.09,0l-.52.3s0,0,0,.05Zm3.93-2.53H518l.53-.3s0,0,0-.05l-.16-.09a.06.06,0,0,0-.08,0l-.52.3s0,0,0,0Zm2.29-1.33a.1.1,0,0,0,.09,0l.52-.31a0,0,0,0,0,0,0l-.16-.1a.14.14,0,0,0-.09,0l-.52.3s0,0,0,.05Zm1.27.74a.14.14,0,0,0,.09,0l.52-.3s0,0,0-.05l-.61-.35h-.08l-.52.3s0,0,0,.05ZM523.4-162l.52-.3s0,0,0-.05l-.61-.35s-.06,0-.08,0l-.52.3s0,0,0,0l.6.35a.14.14,0,0,0,.09,0m-4.72-1.79h.09l.52-.3s0,0,0,0l-.16-.09a.1.1,0,0,0-.09,0l-.52.31a0,0,0,0,0,0,0ZM512.46-160a.11.11,0,0,0,.08,0l.52-.3s0,0,0-.05l-.6-.35h-.09l-.52.3a0,0,0,0,0,0,.05Z" transform="translate(-301.59 323)" class="color00debe svgShape"></path><path fill="#375a64" d="M512.08-164.7l-6.25,3.61,0,0-2.36-1.36a1.28,1.28,0,0,1-.58-1.26l.89-4.59,5.21-4.21,1,.6-.88,4.59a1.3,1.3,0,0,0,.57,1.26Z" transform="translate(-301.59 323)" class="color375a64 svgShape"></path><path fill="#1a2e35" d="M505.83-161.09v1.2l-3.26-1.88a1.91,1.91,0,0,1-.87-1.91l1-5.24,1.05.6-.89,4.59a1.28,1.28,0,0,0,.58,1.26l2.36,1.36Z" transform="translate(-301.59 323)" class="color1a2e35 svgShape"></path><polygon fill="#2b454e" points="210.5 158.3 204.24 161.91 204.24 163.11 210.5 159.5 210.5 158.3" class="color2b454e svgShape"></polygon><path fill="#375a64" d="M517.83-195.12a1.2,1.2,0,0,1,.52,1V-175a1.23,1.23,0,0,1-.56,1l-23.92,13.81a1.18,1.18,0,0,1-1.08,0,1.2,1.2,0,0,1-.52-.94v-19.19a1.2,1.2,0,0,1,.56-1l23.92-13.82a1.24,1.24,0,0,1,1.08,0" transform="translate(-301.59 323)" class="color375a64 svgShape"></path><path fill="#1a2e35" d="M493.87-160.21a1.18,1.18,0,0,1-1.08,0,1.2,1.2,0,0,1-.52-.94v-19.19a1.12,1.12,0,0,1,.16-.55l18.62,10.75Z" transform="translate(-301.59 323)" class="color1a2e35 svgShape"></path><path fill="#2b454e" d="M518.35-175v-19.19c0-.36-.25-.5-.56-.32l-23.92,13.81a1.21,1.21,0,0,0-.55,1v19.19c0,.36.24.5.55.32L517.79-174a1.23,1.23,0,0,0,.56-1" transform="translate(-301.59 323)" class="color2b454e svgShape"></path><path fill="#ffffff" d="M517-193.42l-22.71,13.1a1,1,0,0,0-.44.77v17c0,.29.2.4.44.26L517-175.36a1,1,0,0,0,.44-.77v-17c0-.29-.2-.4-.44-.26" transform="translate(-301.59 323)" class="colorfff svgShape"></path><path fill="#1a2e35" d="M485.24-131.26,471.78-139a1.49,1.49,0,0,1-.68-1.17v-8.21a1.49,1.49,0,0,1,.68-1.18l9.23-5.32a1.46,1.46,0,0,1,1.35,0l13.46,7.77a1.49,1.49,0,0,1,.67,1.17v8.21a1.47,1.47,0,0,1-.68,1.17l-9.22,5.33a1.55,1.55,0,0,1-1.36,0" transform="translate(-301.59 323)" class="color1a2e35 svgShape"></path><path fill="#375a64" d="M486.59-141l9.23-5.33c.37-.22.37-.57,0-.78l-13.46-7.77a1.46,1.46,0,0,0-1.35,0l-9.23,5.32c-.38.22-.38.57,0,.78L485.24-141a1.53,1.53,0,0,0,1.35,0" transform="translate(-301.59 323)" class="color375a64 svgShape"></path><path fill="#2b454e" d="M485.92-140.87v9.77a1.48 1.48 0 01-.68-.16L471.78-139a1.49 1.49 0 01-.68-1.17v-8.22a1.48 1.48 0 01.51-1c-.19.21-.14.47.16.64L485.24-141a1.48 1.48 0 00.68.16M475.15-149.09a1 1 0 01.89 0l9.68 5.59a.28.28 0 010 .52 1 1 0 01-.89 0l-9.68-5.59c-.25-.15-.25-.38 0-.52" transform="translate(-301.59 323)" class="color2b454e svgShape"></path><path fill="#24b2c0" d="M475.15-149.09a1,1,0,0,1,.89,0l5.89,3.4-.88.52-5.89-3.4c-.25-.15-.25-.38,0-.52" transform="translate(-301.59 323)" class="color00debe svgShape"></path><path fill="#2b454e" d="M476.83-150.06a1,1,0,0,1,.89,0l9.68,5.59c.24.15.25.38,0,.52a1,1,0,0,1-.89,0l-9.68-5.59a.28.28,0,0,1,0-.52" transform="translate(-301.59 323)" class="color2b454e svgShape"></path><path fill="#24b2c0" d="M476.83-150.06a1,1,0,0,1,.89,0l.79.46-.88.51-.79-.45c-.25-.15-.25-.38,0-.52" transform="translate(-301.59 323)" class="color00debe svgShape"></path><path fill="#2b454e" d="M478.51-151a1,1,0,0,1,.88,0l9.68,5.59c.25.15.26.38,0,.52a1,1,0,0,1-.89,0l-9.68-5.59c-.25-.14-.26-.38,0-.52" transform="translate(-301.59 323)" class="color2b454e svgShape"></path><path fill="#24b2c0" d="M478.51-151a1,1,0,0,1,.88,0l3.43,2-.88.52-3.42-2c-.25-.14-.26-.38,0-.52" transform="translate(-301.59 323)" class="color00debe svgShape"></path><path fill="#2b454e" d="M480.18-152a1,1,0,0,1,.89,0l9.68,5.59c.25.15.26.38,0,.52a1,1,0,0,1-.89,0l-9.68-5.59c-.25-.14-.26-.38,0-.52" transform="translate(-301.59 323)" class="color2b454e svgShape"></path><path fill="#24b2c0" d="M480.18-152a1,1,0,0,1,.89,0l6.94,4-.88.51-6.93-4c-.25-.14-.26-.38,0-.52" transform="translate(-301.59 323)" class="color00debe svgShape"></path><path fill="#2b454e" d="M481.86-153a1,1,0,0,1,.89,0l9.68,5.58c.25.15.26.38,0,.52a1,1,0,0,1-.88,0l-9.68-5.59c-.25-.14-.26-.38,0-.52" transform="translate(-301.59 323)" class="color2b454e svgShape"></path><path fill="#24b2c0" d="M481.86-153a1,1,0,0,1,.89,0l8.72,5-.87.51-8.72-5c-.25-.14-.26-.38,0-.52" transform="translate(-301.59 323)" class="color00debe svgShape"></path><path fill="#2b454e" d="M487-133.93v-1.67a1.34,1.34,0,0,1,.53-1.08c.3-.17.53,0,.53.47v1.67a1.32,1.32,0,0,1-.53,1.08c-.29.17-.53,0-.53-.47" transform="translate(-301.59 323)" class="color2b454e svgShape"></path><path fill="#24b2c0" d="M487.53-136.43a.77.77,0,0,0-.35.6c0,.23.16.32.35.21a.81.81,0,0,0,.35-.61c0-.23-.16-.32-.35-.2" transform="translate(-301.59 323)" class="color00debe svgShape"></path><path fill="#2b454e" d="M488.64-134.89v-1.67a1.35,1.35,0,0,1,.53-1.08c.3-.17.53,0,.53.47v1.67a1.31,1.31,0,0,1-.53,1.08c-.29.17-.53,0-.53-.47" transform="translate(-301.59 323)" class="color2b454e svgShape"></path><path fill="#24b2c0" d="M489.17-135.48a.81.81,0,0,0-.35.61c0,.23.16.32.35.2a.75.75,0,0,0,.35-.6c0-.23-.15-.32-.35-.21" transform="translate(-301.59 323)" class="color00debe svgShape"></path></g><g clip-path="url(#a)" fill="#000000" class="color000 svgShape"><path fill="#1a2e35" d="M519.84-114.34a7.62,7.62,0,0,1,.43,1.7,3.68,3.68,0,0,1,.13,1.86,3.69,3.69,0,0,1-2.1,1.64,4.72,4.72,0,0,1-3.7-.72,15.09,15.09,0,0,0-4.1-2.23,9.37,9.37,0,0,1-3.62-1.64c-1-.82-1.68-2,.27-2.57s5.48.29,9.33.46Z" transform="translate(-301.59 323)" class="color1a2e35 svgShape"></path><path fill="#ffa9a7" d="M519.84-116.74v2.88s-.4,1-2.05,1a2.48,2.48,0,0,1-2.18-1v-2.86Z" transform="translate(-301.59 323)" class="colorffa9a7 svgShape"></path><path fill="#2b454e" d="M514.32-135.63c0,3.59,1,20.15,1,20.15s1.47,1.86,4.66,0l1.08-18.37Z" transform="translate(-301.59 323)" class="color2b454e svgShape"></path><path fill="#1a2e35" d="M511.17-108.69a6.84,6.84,0,0,1,.44,1.69,3.68,3.68,0,0,1,.13,1.86,3.68,3.68,0,0,1-2.1,1.64,4.67,4.67,0,0,1-3.7-.71,15.25,15.25,0,0,0-4.1-2.24,9.28,9.28,0,0,1-3.63-1.64c-1-.82-1.67-2,.28-2.56s5.48.28,9.33.45Z" transform="translate(-301.59 323)" class="color1a2e35 svgShape"></path><path fill="#ffa9a7" d="M511.17-111.1v2.89s-.39,1-2,1a2.48,2.48,0,0,1-2.18-1v-2.86Z" transform="translate(-301.59 323)" class="colorffa9a7 svgShape"></path><path fill="#2b454e" d="M505.66-130c0,3.59,1,20.14,1,20.14s1.47,1.86,4.66,0l1.08-18.37Z" transform="translate(-301.59 323)" class="color2b454e svgShape"></path><path fill="#375a64" d="M516.82-95.91a1.7,1.7,0,0,0,0,.41.94.94,0,0,0,.36.56h0a1.08,1.08,0,0,0,1.12-.09,3.39,3.39,0,0,0,1.54-2.66,1.11,1.11,0,0,0-.43-1h0l-.07,0h0a1,1,0,0,0-.65,0,1.72,1.72,0,0,0-.38.16,3.39,3.39,0,0,0-1.54,2.66" transform="translate(-301.59 323)" class="color375a64 svgShape"></path><path fill="#1a2e35" d="M517.24-99.21a1.43,1.43,0,0,1,.69-.21.77.77,0,0,1,.43.12l0,0,1,.57a1,1,0,0,0-.65,0,1.72,1.72,0,0,0-.38.16,3.39,3.39,0,0,0-1.54,2.66,1.77,1.77,0,0,0,0,.41.94.94,0,0,0,.36.56l-1-.59h0l-.08,0,0,0a1.13,1.13,0,0,1-.37-.94,3.38,3.38,0,0,1,1.53-2.66" transform="translate(-301.59 323)" class="color1a2e35 svgShape"></path><path fill="#375a64" d="M533.46-104.85a1.68,1.68,0,0,0,0,.4.94.94,0,0,0,.36.56h0A1.08,1.08,0,0,0,535-104a3.39,3.39,0,0,0,1.54-2.66,1.11,1.11,0,0,0-.43-1h0l-.07,0h0a.89.89,0,0,0-.65,0,1.39,1.39,0,0,0-.38.17,3.38,3.38,0,0,0-1.54,2.66" transform="translate(-301.59 323)" class="color375a64 svgShape"></path><path fill="#1a2e35" d="M533.88-108.16a1.43,1.43,0,0,1,.69-.21.77.77,0,0,1,.43.12l0,0,1,.58a.9.9,0,0,0-.65,0,2.39,2.39,0,0,0-.38.16,3.41,3.41,0,0,0-1.54,2.67,1.68,1.68,0,0,0,0,.4.94.94,0,0,0,.36.56l-1-.59h0l-.08-.05,0,0a1.13,1.13,0,0,1-.37-.94,3.38,3.38,0,0,1,1.53-2.66" transform="translate(-301.59 323)" class="color1a2e35 svgShape"></path><path fill="#375a64" d="M530.49-92.41a1.7,1.7,0,0,1,0,.4.88.88,0,0,1-.36.56h0a1.05,1.05,0,0,1-1.11-.08,3.41,3.41,0,0,1-1.54-2.67,1.07,1.07,0,0,1,.43-1h0l.07,0h0a1,1,0,0,1,.65,0,1.78,1.78,0,0,1,.38.17,3.38,3.38,0,0,1,1.53,2.66" transform="translate(-301.59 323)" class="color375a64 svgShape"></path><path fill="#1a2e35" d="M530.07-95.72a1.37,1.37,0,0,0-.68-.21.86.86,0,0,0-.43.12l0,0-1,.57a1,1,0,0,1,.65,0,1.78,1.78,0,0,1,.38.17,3.38,3.38,0,0,1,1.53,2.66,1.7,1.7,0,0,1,0,.4.88.88,0,0,1-.36.56l1-.59h0l.09-.06h0a1.17,1.17,0,0,0,.37-1,3.39,3.39,0,0,0-1.54-2.66" transform="translate(-301.59 323)" class="color1a2e35 svgShape"></path><path fill="#375a64" d="M541.3-97.7a1.68,1.68,0,0,1,0,.4.91.91,0,0,1-.36.56h0a1.05,1.05,0,0,1-1.12-.09,3.39,3.39,0,0,1-1.54-2.66,1.11,1.11,0,0,1,.43-1h0l.07,0h0a.89.89,0,0,1,.65,0,1.78,1.78,0,0,1,.38.17,3.39,3.39,0,0,1,1.54,2.66" transform="translate(-301.59 323)" class="color375a64 svgShape"></path><path fill="#1a2e35" d="M540.88-101a1.43,1.43,0,0,0-.69-.21.86.86,0,0,0-.43.12l0,0-1,.58a.89.89,0,0,1,.65,0,1.78,1.78,0,0,1,.38.17,3.39,3.39,0,0,1,1.54,2.66,1.68,1.68,0,0,1,0,.4.91.91,0,0,1-.36.56l1-.59h0l.09,0,0,0a1.13,1.13,0,0,0,.37-.94,3.38,3.38,0,0,0-1.53-2.66" transform="translate(-301.59 323)" class="color1a2e35 svgShape"></path><path fill="#375a64" d="M520.42-104.19a1.68,1.68,0,0,1,0,.4.88.88,0,0,1-.36.56h0a1.07,1.07,0,0,1-1.12-.08,3.41,3.41,0,0,1-1.54-2.67,1.07,1.07,0,0,1,.43-1h0l.07,0h0a1,1,0,0,1,.65,0,1.78,1.78,0,0,1,.38.17,3.39,3.39,0,0,1,1.54,2.66" transform="translate(-301.59 323)" class="color375a64 svgShape"></path><path fill="#1a2e35" d="M520-107.5a1.43,1.43,0,0,0-.69-.21.86.86,0,0,0-.43.12l0,0-1,.57a1,1,0,0,1,.65,0,1.78,1.78,0,0,1,.38.17,3.39,3.39,0,0,1,1.54,2.66,1.68,1.68,0,0,1,0,.4.88.88,0,0,1-.36.56l1-.59h0l.08,0h0a1.17,1.17,0,0,0,.37-1A3.38,3.38,0,0,0,520-107.5" transform="translate(-301.59 323)" class="color1a2e35 svgShape"></path><polygon fill="#f4f4f4" points="228.01 215.56 233.5 213.98 233.5 215.15 228.01 218.32 228.01 215.56" class="colorf4f4f4 svgShape"></polygon><polygon fill="#f9f9f9" points="228.01 215.56 227.47 215.22 232.98 213.72 233.5 213.98 228.01 215.56" class="colorf9f9f9 svgShape"></polygon><polygon fill="#f4f4f4" points="225.63 219.06 217.85 216.14 217.85 214.95 225.63 215.65 225.63 219.06" class="colorf4f4f4 svgShape"></polygon><polygon fill="#f9f9f9" points="217.85 214.95 218.42 214.8 226.1 215.3 225.63 215.65 217.85 214.95" class="colorf9f9f9 svgShape"></polygon><path fill="#f9f9f9" d="M527-104.32c0,.88,2.7.88,2.7,0V-112H527Z" transform="translate(-301.59 323)" class="colorf9f9f9 svgShape"></path><path fill="#f9f9f9" d="M529-106.32l1.49,9.67h-1l-1.4-9.67a1.68,1.68,0,0,0,.92,0" transform="translate(-301.59 323)" class="colorf9f9f9 svgShape"></path><polygon fill="#f4f4f4" points="226.53 216.68 226.53 219.33 227.93 227.98 227.93 226.34 226.53 216.68" class="colorf4f4f4 svgShape"></polygon><rect width="1.02" height="1.64" x="227.93" y="226.35" fill="#ebebeb" class="colorebebeb svgShape"></rect><polygon fill="#f4f4f4" points="226.07 219.25 216.03 224.52 216.03 222.9 226.07 216.69 226.07 219.25" class="colorf4f4f4 svgShape"></polygon><path fill="#f9f9f9" d="M527.66-106.31a1.12,1.12,0,0,1-.64-.3l-10,6.08.63.43Z" transform="translate(-301.59 323)" class="colorf9f9f9 svgShape"></path><polygon fill="#ebebeb" points="216.03 224.52 216.03 222.9 215.4 222.47 215.4 224.04 216.03 224.52" class="colorebebeb svgShape"></polygon><polygon fill="#f4f4f4" points="238.73 222.66 228 218.99 228 216.58 238.73 221.04 238.73 222.66" class="colorf4f4f4 svgShape"></polygon><path fill="#f9f9f9" d="M529.59-106.42c.09,0,.13-.18.13-.42l10.91,4.75-.31.13Z" transform="translate(-301.59 323)" class="colorf9f9f9 svgShape"></path><polygon fill="#ebebeb" points="239.04 220.91 239.04 222.47 238.73 222.66 238.73 221.04 239.04 220.91" class="colorebebeb svgShape"></polygon><path fill="#efefef" d="M530.66-125.43h-4.58v15.88c0,1.32,4.58,1.32,4.58,0Z" transform="translate(-301.59 323)" class="colorefefef svgShape"></path><path fill="#24b2c0" d="M510.71-124h0a2.29,2.29,0,0,1,1.15-2l16-9.27a2.31,2.31,0,0,1,2.29,0l16,9.26a2.29,2.29,0,0,1,1.15,2L529-113.42Z" transform="translate(-301.59 323)" class="color00debe svgShape"></path><path fill="#f9f9f9" d="M510.71-124v1.33l17.2,9.93a2.28,2.28,0,0,0,1.13.3,2.29,2.29,0,0,0,1.14-.3l17.2-9.93V-124l-17.2,9.93a2.2,2.2,0,0,1-1.14.31,2.19,2.19,0,0,1-1.13-.31Z" transform="translate(-301.59 323)" class="colorf9f9f9 svgShape"></path><path fill="#f4f4f4" d="M510.71-124v1.33l17.2,9.93a2.28,2.28,0,0,0,1.13.3v-1.32a2.19,2.19,0,0,1-1.13-.31Z" transform="translate(-301.59 323)" class="colorf4f4f4 svgShape"></path><g clip-path="url(#b)" opacity=".1" fill="#000000" class="color000 svgShape"><path d="M510.71-124a2.35,2.35,0,0,1,.24-1l17.34,10a1.51,1.51,0,0,0,1.51,0l17.34-10a2.39,2.39,0,0,1,.24,1L529-113.42,510.71-124Z" transform="translate(-301.59 323)" fill="#000000" class="color000 svgShape"></path></g><path fill="#1a2e35" d="M541.83-131.23s-14.88-4.49-17.47-5.2-7.55-1.9-9-1.25-2.19,1.4-2.32,3.5c0,.39,0,2.3,0,2.3s7.19,2.23,13.09,2.23a129.93,129.93,0,0,0,15.7-1.58" transform="translate(-301.59 323)" class="color1a2e35 svgShape"></path><polygon fill="#ffa9a7" points="227.52 166.48 228.51 171.81 233.98 172.44 233.19 165.08 227.52 166.48" class="colorffa9a7 svgShape"></polygon><path fill="#ff8f8f" d="M524-160.78s-.72,2.2-.5,2.33a3.74,3.74,0,0,0,1.2.07Z" transform="translate(-301.59 323)" class="colorff8f8f svgShape"></path><path fill="#ffa9a7" d="M525.41-167.84c-.94,1-1.84,2.65-1.44,6.86.43,4.6,1.81,5.83,2.39,6.1.86.41,3.81-.3,4.77-1a10.88,10.88,0,0,0,4.06-5.8c.69-3.19-.2-6.82-2.53-7.55a8,8,0,0,0-7.25,1.4" transform="translate(-301.59 323)" class="colorffa9a7 svgShape"></path><path fill="#1a2e35" d="M523.26-165.57c.56,1,1.62,3.68,4.61,4.42,0,0,.17-1.79,1.65-1.8s2,1.8,1.25,3.08-1.66,1-1.66,1,.15,2.51,2,3.41a4.72,4.72,0,0,0,4.17-.27c.89-.58,1.93-3.05,2.46-5,1.13-4.21.93-7.42-1.75-8.08a3,3,0,0,0-3.14-2.44c-3.62-.23-6,2.44-9,2.44-1.56,0-1.22,2.08-.58,3.29" transform="translate(-301.59 323)" class="color1a2e35 svgShape"></path><path fill="#1a2e35" d="M535.89-168.56l1.81-.77a1,1,0,0,0-1.29-.52,1,1,0,0,0-.52,1.29" transform="translate(-301.59 323)" class="color1a2e35 svgShape"></path><path fill="#2b454e" d="M541.79-133c0,2.86.27,5.84-.92,7.93s-6.59,6.41-12.67,5.38c-4-.67-16.82-5.56-16.82-5.56s-5.68-2.1-5.71-3.6c0-.36,0-.74,0-1.14.12-2,.92-4.13,5.08-4,4.54.12,18,2.33,18,2.33Z" transform="translate(-301.59 323)" class="color2b454e svgShape"></path><path fill="#375a64" d="M540.73-151.5a4.18,4.18,0,0,0-4.28-2.77c-3.48.65-7.29,1.78-8.3,2.08h0s.45,7.67-3.48,10l-.52,9.78a8.39,8.39,0,0,0,2.47,2.9,11.58,11.58,0,0,0,8,2.25,10.09,10.09,0,0,0,7.23-4s-.05-9.23-.2-13.37a28.53,28.53,0,0,0-.9-6.9" transform="translate(-301.59 323)" class="color375a64 svgShape"></path><path fill="#2b454e" d="M524.57-140.3a13.22,13.22,0,0,0,2.78-4.61,7.31,7.31,0,0,1-2.83,5.58Z" transform="translate(-301.59 323)" class="color2b454e svgShape"></path><path fill="#ffa9a7" d="M528.15-152.19c-2.15.64-3.46.76-5.83,4.41s-7.58,10.9-8.1,11.78a3.87,3.87,0,0,0-.4,3.76c.57,1,2.26.59,4.61-1.48a88.26,88.26,0,0,0,6.8-7.66,39,39,0,0,0,2.92-10.81" transform="translate(-301.59 323)" class="colorffa9a7 svgShape"></path><path fill="#375a64" d="M528.15-152.19a16.53,16.53,0,0,0-3.11,1,5,5,0,0,0-2.35,1.93c-1.66,2.76-4,6.69-4,6.69s-.4,3.42,3.76,4.62l2.21-2.39a12.33,12.33,0,0,0,2.2-3.28,14.34,14.34,0,0,0,1.33-8.55" transform="translate(-301.59 323)" class="color375a64 svgShape"></path><path fill="#ffa9a7" d="M514.54-131.73c-2-.24-6.45-6.34-7.93-8.29a13.26,13.26,0,0,0-4.07-3.82,5.37,5.37,0,0,1-2.86-4.24c-.34-2.18,1.69-3.56,3.35-1.37,1.05,1.39,2.11,2.26,2.17,2a21.47,21.47,0,0,1-.32-2.21c0-1.21.86-.41,1.11,0a14.93,14.93,0,0,1,.9,2c.43,1.08.25,2.18.77,2.92s7.44,7.38,7.44,7.38Z" transform="translate(-301.59 323)" class="colorffa9a7 svgShape"></path><polygon fill="#24b2c0" points="246.68 172.52 246.68 193.01 230.41 202.44 230.41 181.96 246.68 172.52" class="color00debe svgShape"></polygon><g clip-path="url(#c)" opacity=".1" fill="#000000" class="color000 svgShape"><polygon points="246.68 172.52 246.68 193.01 230.41 202.44 230.41 181.96 246.68 172.52" fill="#000000" class="color000 svgShape"></polygon></g><path fill="#24b2c0" d="M530.52-121.42l1.48.86v-18.79c0-.89.27-1.33.63-1.52,1.24-.77,2.88.85,2.88.85v-1.36l15.72-9.1c-1.48-.85-2.45-1.41-5.44.28s-11.73,6.75-13.12,7.61a3.63,3.63,0,0,0-2.15,3.34v17.83" transform="translate(-301.59 323)" class="color00debe svgShape"></path><g clip-path="url(#d)" opacity=".4" fill="#000000" class="color000 svgShape"><path fill="#ffffff" d="M532.67-142.59c1.36-.89,10.14-5.92,13.12-7.61s4-1.13,5.44-.28l-15.72,9.1a3.91,3.91,0,0,0-2.84-1.21" transform="translate(-301.59 323)" class="colorfff svgShape"></path></g><polygon fill="#24b2c0" points="233.92 182.98 249.64 173.85 249.64 172.52 233.92 181.62 233.92 182.98" class="color00debe svgShape"></polygon><g clip-path="url(#e)" opacity=".2" fill="#000000" class="color000 svgShape"><polygon points="233.92 182.98 249.64 173.85 249.64 172.52 233.92 181.62 233.92 182.98" fill="#000000" class="color000 svgShape"></polygon></g><path fill="#e6e6e6" d="M535.74-114a1.45 1.45 0 00.72-.2 1.4 1.4 0 00.71-1.23v-10.75a.73.73 0 00-.73-.72.73.73 0 00-.73.72v10.69l-1.16-.66a.72.72 0 00-1 .26.74.74 0 00.26 1l1.21.69a1.41 1.41 0 00.71.2M544.64-119.23a1.4 1.4 0 00.71-.19 1.42 1.42 0 00.71-1.23V-131.4a.73.73 0 00-.73-.73.73.73 0 00-.73.73v10.69l-1.15-.67a.73.73 0 00-1 .27.72.72 0 00.27 1l1.21.7a1.38 1.38 0 00.71.19" transform="translate(-301.59 323)" class="colore6e6e6 svgShape"></path></g></g></svg></g></svg>