<svg xmlns="http://www.w3.org/2000/svg" xmlns:svgjs="http://svgjs.com/svgjs" xmlns:xlink="http://www.w3.org/1999/xlink" id="SvgjsSvg1001" width="288" height="288" version="1.1"><g id="SvgjsG1008" transform="matrix(1,0,0,1,0,0)"><svg xmlns="http://www.w3.org/2000/svg" width="288" height="288" data-name="Layer 1" viewBox="0 0 301.58 301.58"><g fill="#000" class="color000 svgShape" data-name="Layer 2"><circle cx="150.79" cy="150.79" r="150.79" fill="#fff" class="colorfff svgShape" data-name="Layer 1-2"/></g><g fill="#000" class="color000 svgShape" data-name="Layer 2-2"><g fill="#000" class="color000 svgShape" data-name="layer 1-2-2"><rect width="166.11" height="31.15" x="67.74" y="109.26" fill="#0bd1d2" class="colora3d4ff svgShape" rx="5.19"/><rect width="166.11" height="31.15" x="67.74" y="202.7" fill="#0bd1d2" class="colora3d4ff svgShape" rx="5.19"/><rect width="166.11" height="31.15" x="67.74" y="155.98" fill="#0bd1d2" class="colora3d4ff svgShape" rx="5.19"/><path fill="#fff" d="M72.92 109.26H218.26v7.79a23.34 23.34 0 01-23.35 23.35h-122a5.19 5.19 0 01-5.19-5.19h0V114.44a5.19 5.19 0 015.19-5.18zM72.92 202.69H218.26v7.79a23.35 23.35 0 01-23.34 23.36h-122a5.19 5.19 0 01-5.19-5.19h0V207.88a5.2 5.2 0 015.19-5.19zM72.92 156H218.26v7.78a23.34 23.34 0 01-23.34 23.36h-122a5.2 5.2 0 01-5.16-5.19V161.17A5.19 5.19 0 0172.92 156z" class="colorfff svgShape"/><path fill="#24b2c0" d="M228.65 142.35H73a7.15 7.15 0 01-7.16-7.16V114.44A7.15 7.15 0 0173 107.29H228.65a7.15 7.15 0 017.16 7.15v20.77A7.15 7.15 0 01228.65 142.35zM73 111.21a3.24 3.24 0 00-3.24 3.23h0v20.77a3.25 3.25 0 003.19 3.23H228.61a3.25 3.25 0 003.24-3.25V114.44a3.24 3.24 0 00-3.24-3.23zM228.65 235.78H73a7.15 7.15 0 01-7.16-7.16V207.88A7.16 7.16 0 0173 200.72H228.65a7.16 7.16 0 017.16 7.16v20.77A7.16 7.16 0 01228.65 235.78zM72.92 204.65a3.24 3.24 0 00-3.24 3.24v20.77a3.24 3.24 0 003.24 3.24H228.61a3.24 3.24 0 003.24-3.24V207.88a3.24 3.24 0 00-3.24-3.24z" class="color2b5185 svgShape"/><rect width="140.15" height="15.57" x="80.72" y="187.12" fill="#0bd1d2" class="colora3d4ff svgShape"/><rect width="140.15" height="15.57" x="80.72" y="140.41" fill="#0bd1d2" class="colora3d4ff svgShape"/><path fill="#fff" d="M80.71 187.12H210.44v5.19a10.37 10.37 0 01-10.37 10.38H80.71V187.12zM80.71 140.4H210.44v5.2A10.38 10.38 0 01200.07 156H80.71z" class="colorfff svgShape"/><path fill="#24b2c0" d="M220.87 204.65H80.71a2 2 0 01-1.94-2V187.13a2 2 0 011.94-1.95H220.87a2 2 0 011.94 1.95V202.7A2 2 0 01220.87 204.65zM82.66 200.74H218.92V189.11H82.66zM220.87 157.92H80.71A2 2 0 0178.77 156V140.4a1.94 1.94 0 011.92-2H220.87a1.94 1.94 0 011.94 1.94V156A2 2 0 01220.87 157.92zM82.66 154H218.92V142.4H82.66z" class="color2b5185 svgShape"/><path fill="#24b2c0" d="M228.65,189.07H73a7.16,7.16,0,0,1-7.16-7.16V161.17A7.15,7.15,0,0,1,73,154H228.65a7.15,7.15,0,0,1,7.16,7.16v20.76A7.16,7.16,0,0,1,228.65,189.07ZM73,157.92a3.25,3.25,0,0,0-3.24,3.25v20.76A3.23,3.23,0,0,0,73,185.17H228.65a3.24,3.24,0,0,0,3.24-3.24h0V161.17a3.25,3.25,0,0,0-3.24-3.25Z" class="color2b5185 svgShape"/><circle cx="150.79" cy="122.24" r="54.51" fill="#fff" class="colorfff svgShape"/><path fill="#0bd1d2" d="M185.41,80.14a54.51,54.51,0,0,1-82.23,68.7,54.51,54.51,0,1,0,82.23-68.7Z" class="colora3d4ff svgShape"/><path fill="#24b2c0" d="M150.78,178.7a56.46,56.46,0,1,1,56.46-56.45h0a56.44,56.44,0,0,1-56.45,56.44Zm0-109a52.56,52.56,0,1,0,52.57,52.56A52.55,52.55,0,0,0,150.78,69.7h0Z" class="color2b5185 svgShape"/><path fill="#24b2c0" d="M150.78,178.7a2.1,2.1,0,0,1-1-.25,64.77,64.77,0,0,1,0-112.38,2,2,0,0,1,2,0,64.79,64.79,0,0,1,0,112.38A2.06,2.06,0,0,1,150.78,178.7Zm0-108.7a60.86,60.86,0,0,0,0,104.42,60.8,60.8,0,0,0,0-104.42Z" class="color2b5185 svgShape"/><path fill="#24b2c0" d="M150.78 101.61a56.12 56.12 0 01-39.91-16.54 2 2 0 112.68-2.85.43.43 0 00.1.09 52.57 52.57 0 0074.33 0 2 2 0 012.75 2.76A56.12 56.12 0 01150.78 101.61zM189.33 162.72a1.9 1.9 0 01-1.38-.57 52.59 52.59 0 00-74.33 0 2 2 0 11-2.85-2.68h0l.1-.09a56.45 56.45 0 0179.84 0h0a2 2 0 010 2.76 2 2 0 01-1.36.56zM205.29 124.18h-109a1.95 1.95 0 01-.26-3.89 1.13 1.13 0 01.26 0h109a1.95 1.95 0 11.26 3.89z" class="color2b5185 svgShape"/><path fill="#24b2c0" d="M150.78,178.7a2,2,0,0,1-1.94-1.95v-109a2,2,0,0,1,3.92,0v109A2,2,0,0,1,150.78,178.7Z" class="color2b5185 svgShape"/><circle cx="119.21" cy="122.24" r="6.49" fill="#fff" class="colorfff svgShape"/><path fill="#24b2c0" d="M119.2,130.67a8.44,8.44,0,1,1,8.44-8.44h0a8.44,8.44,0,0,1-8.43,8.43Zm0-13a4.55,4.55,0,1,0,4.54,4.55,4.55,4.55,0,0,0-4.54-4.55Z" class="color2b5185 svgShape"/><circle cx="150.79" cy="99.65" r="6.49" fill="#fff" class="colorfff svgShape"/><path fill="#24b2c0" d="M150.78,108.09a8.44,8.44,0,1,1,8.44-8.44h0A8.45,8.45,0,0,1,150.78,108.09Zm0-13a4.55,4.55,0,1,0,4.55,4.54,4.54,4.54,0,0,0-4.55-4.54Z" class="color2b5185 svgShape"/><circle cx="175.89" cy="150.35" r="6.49" fill="#fff" class="colorfff svgShape"/><path fill="#24b2c0" d="M175.89,158.78a8.44,8.44,0,1,1,8.43-8.45h0a8.42,8.42,0,0,1-8.39,8.44h0Zm0-13a4.55,4.55,0,1,0,4.54,4.55v0a4.54,4.54,0,0,0-4.54-4.53Z" class="color2b5185 svgShape"/><circle cx="190.38" cy="83.96" r="6.49" fill="#fff" class="colorfff svgShape"/><path fill="#24b2c0" d="M190.34,92.39A8.44,8.44,0,1,1,198.78,84h0A8.44,8.44,0,0,1,190.34,92.39Zm0-13a4.55,4.55,0,1,0,4.54,4.54,4.55,4.55,0,0,0-4.54-4.54Z" class="color2b5185 svgShape"/><circle cx="97.58" cy="74.23" r="6.49" fill="#fff" class="colorfff svgShape"/><path fill="#24b2c0" d="M97.58,82.65A8.44,8.44,0,1,1,106,74.22a8.43,8.43,0,0,1-8.44,8.43Zm0-13a4.55,4.55,0,1,0,4.55,4.55h0A4.55,4.55,0,0,0,97.58,69.68Z" class="color2b5185 svgShape"/><circle cx="79.42" cy="92.39" r="6.49" fill="#fff" class="colorfff svgShape"/><path fill="#24b2c0" d="M79.39,100.86a8.44,8.44,0,1,1,8.44-8.43,8.43,8.43,0,0,1-8.44,8.43Zm0-13a3.27,3.27,0,1,0,.06,0h-.06Z" class="color2b5185 svgShape"/><circle cx="219.57" cy="89.79" r="6.49" fill="#fff" class="colorfff svgShape"/><path fill="#24b2c0" d="M219.57 98.22A8.44 8.44 0 11228 89.78h0A8.44 8.44 0 01219.57 98.22zm0-13a4.55 4.55 0 104.54 4.55h0a4.54 4.54 0 00-4.53-4.54zM83.31 226.7a2 2 0 01-2-1.94V211.81a1.95 1.95 0 013.89 0v13A2 2 0 0183.31 226.7zM83.31 180a2 2 0 01-2-1.95v-13a1.95 1.95 0 113.89-.26 1.13 1.13 0 010 .26v13A2 2 0 0183.31 180zM83.31 133.26a2 2 0 01-2-2v-13a1.95 1.95 0 113.89-.26 1.13 1.13 0 010 .26v13a2 2 0 01-1.94 2zM96.28 226.7a2 2 0 01-2-1.94V211.81a2 2 0 013.9 0v13A2 2 0 0196.28 226.7zM96.28 180a2 2 0 01-2-1.95v-13a2 2 0 013.9-.26V178A2 2 0 0196.28 180zM109.26 226.7a2 2 0 01-1.94-1.94V211.81a1.95 1.95 0 013.89 0v13A2 2 0 01109.26 226.7zM122.24 226.7a2 2 0 01-1.95-1.94V211.81a1.95 1.95 0 013.89 0v13A1.94 1.94 0 01122.24 226.7zM135.21 226.7a2 2 0 01-2-1.94V211.81a2 2 0 013.91 0v13A2 2 0 01135.21 226.7zM148.19 226.7a2 2 0 01-1.94-1.94V211.81a1.95 1.95 0 013.89 0v13A2 2 0 01148.19 226.7zM109.26 180a2 2 0 01-1.94-1.95V166a1.95 1.95 0 013.89 0v12A2 2 0 01109.26 180zM122.24 180a2 2 0 01-1.95-1.95v-2.59a1.95 1.95 0 013.89 0V178A1.94 1.94 0 01122.24 180zM220.87 220.21h-26a1.95 1.95 0 11-.26-3.89h26.21a1.95 1.95 0 010 3.89zM220.87 174h-26a1.95 1.95 0 11-.26-3.89h26.21a1.95 1.95 0 010 3.89zM220.87 126.81h-9.56a1.95 1.95 0 010-3.89h9.56a1.95 1.95 0 010 3.89z" class="color2b5185 svgShape"/></g></g></svg></g></svg>