<svg xmlns="http://www.w3.org/2000/svg" xmlns:svgjs="http://svgjs.com/svgjs" xmlns:xlink="http://www.w3.org/1999/xlink" id="SvgjsSvg1001" width="288" height="288" version="1.1"><g id="SvgjsG1008" transform="matrix(1,0,0,1,0,0)"><svg xmlns="http://www.w3.org/2000/svg" width="288" height="288" data-name="Layer 1" viewBox="0 0 301.58 301.58"><g fill="#000" class="color000 svgShape" data-name="Layer 2"><circle cx="150.79" cy="150.79" r="150.79" fill="#fff" class="colorfff svgShape" data-name="Layer 1-2"/></g><g fill="#000" class="color000 svgShape" data-name="Layer 2-2"><g fill="#000" class="color000 svgShape" data-name="layer 1-2-2"><rect width="114.13" height="166" x="67.78" y="67.79" fill="#0bd1d2" class="colora3d4ff svgShape" rx="10.37"/><path fill="#fff" d="M67.8 213H168.93v7.78a2.6 2.6 0 01-2.6 2.6H67.8V213zM168.93 67.81H78.15A10.37 10.37 0 0067.8 78.16h98.53a2.6 2.6 0 002.6-2.59z" class="colorfff svgShape"/><path fill="#24b2c0" d="M171.53,235.73H78.15a12.33,12.33,0,0,1-12.33-12.32h0V78.16A12.33,12.33,0,0,1,78.15,65.84h93.38a12.33,12.33,0,0,1,12.32,12.32h0V223.4a12.33,12.33,0,0,1-12.31,12.33Zm-93.38-166a8.46,8.46,0,0,0-8.43,8.43V223.4a8.45,8.45,0,0,0,8.43,8.43h93.38A8.46,8.46,0,0,0,180,223.4V78.16a8.46,8.46,0,0,0-8.43-8.43Z" class="color2b5185 svgShape"/><rect width="114.13" height="124.5" x="67.78" y="88.54" fill="#0bd1d2" class="colora3d4ff svgShape" rx="5.19"/><path fill="#fff" d="M73,88.54h88.19v20.75a85.58,85.58,0,0,1-85.59,85.58H67.8V93.74A5.18,5.18,0,0,1,73,88.54Z" class="colorfff svgShape"/><path fill="#24b2c0" d="M176.71 215H73a7.17 7.17 0 01-7.16-7.16h0V93.74A7.16 7.16 0 0173 86.59H176.71a7.15 7.15 0 017.15 7.15V207.85a7.15 7.15 0 01-7.15 7.15zM73 90.48a3.24 3.24 0 00-3.24 3.24V207.85A3.24 3.24 0 0073 211.09H176.69a3.23 3.23 0 003.24-3.23h0V93.74a3.24 3.24 0 00-3.23-3.24h0zM137.81 80.1H111.88a1.95 1.95 0 01-.27-3.89h26.2a1.95 1.95 0 010 3.89zM130 225.36H119.66a1.95 1.95 0 010-3.89H130a1.95 1.95 0 01.26 3.89H130zM101.49 225.36H91.12a1.95 1.95 0 11-.26-3.89h10.63a1.95 1.95 0 010 3.89zM158.55 225.36H148.18a1.95 1.95 0 11-.26-3.89h10.63a1.95 1.95 0 01.27 3.89z" class="color2b5185 svgShape"/><circle cx="148.18" cy="78.16" r="2.59" fill="#24b2c0" class="color2b5185 svgShape"/><circle cx="225.99" cy="153.49" r="7.78" fill="#fff" class="colorfff svgShape"/><path fill="#0bd1d2" d="M226.35,145.73a7.77,7.77,0,0,1-3.73,10.33,7.69,7.69,0,0,1-3.3.74h-.46a7.78,7.78,0,1,0,7.39-11Z" class="colora3d4ff svgShape"/><path fill="#24b2c0" d="M226,163.18a9.73,9.73,0,1,1,9.72-9.73h0A9.73,9.73,0,0,1,226,163.18Zm0-15.56a5.84,5.84,0,1,0,5.83,5.85v0a5.83,5.83,0,0,0-5.83-5.83Z" class="color2b5185 svgShape"/><circle cx="211.42" cy="122.62" r="7.78" fill="#fff" class="colorfff svgShape"/><path fill="#0bd1d2" d="M211.77,114.86A7.81,7.81,0,0,1,208,125.21a8,8,0,0,1-3.27.73h-.34a7.78,7.78,0,1,0,7.37-11Z" class="colora3d4ff svgShape"/><path fill="#24b2c0" d="M211.41,132.34a9.73,9.73,0,1,1,9.73-9.73,9.73,9.73,0,0,1-9.73,9.73Zm0-15.56a5.84,5.84,0,1,0,5.84,5.84h0a5.83,5.83,0,0,0-5.83-5.83Z" class="color2b5185 svgShape"/><circle cx="161.33" cy="107.71" r="7.78" fill="#fff" class="colorfff svgShape"/><path fill="#0bd1d2" d="M161.8,100a8,8,0,0,1,.75,3.3,7.79,7.79,0,0,1-7.78,7.78h-.34A7.78,7.78,0,1,0,161.8,100Z" class="colora3d4ff svgShape"/><path fill="#24b2c0" d="M161.33,117.43a9.73,9.73,0,1,1,9.72-9.73h0a9.72,9.72,0,0,1-9.72,9.72Zm0-15.56a5.84,5.84,0,1,0,5.83,5.84h0a5.82,5.82,0,0,0-5.82-5.84Z" class="color2b5185 svgShape"/><circle cx="200.79" cy="180.07" r="7.78" fill="#fff" class="colorfff svgShape"/><path fill="#0bd1d2" d="M201.14,172.34a7.74,7.74,0,0,1-7,11.07h-.37a7.78,7.78,0,1,0,7.39-11Z" class="colora3d4ff svgShape"/><path fill="#24b2c0" d="M200.7,189.79a9.72,9.72,0,1,1,.18,0Zm0-15.55a5.84,5.84,0,1,0,5.92,5.75h0a5.84,5.84,0,0,0-5.91-5.77h0Z" class="color2b5185 svgShape"/><circle cx="145.52" cy="194.99" r="7.78" fill="#fff" class="colorfff svgShape"/><path fill="#0bd1d2" d="M145.87,187.23a7.75,7.75,0,0,1-7,11.07h-.4a7.78,7.78,0,1,0,7.4-11.05Z" class="colora3d4ff svgShape"/><path fill="#24b2c0" d="M145.51,204.71a9.73,9.73,0,1,1,9.73-9.73,9.73,9.73,0,0,1-9.73,9.73Zm0-15.57a5.87,5.87,0,1,0,.08,0Z" class="color2b5185 svgShape"/><path fill="#24b2c0" d="M137.73 196.93H125.61a1.88 1.88 0 01-1.42-.65l-10.07-11.13H67.8a1.95 1.95 0 11-.26-3.89h47.6a2 2 0 011.45.65l9.93 11h11.21a1.95 1.95 0 010 3.89zM192.92 182h-29a2 2 0 01-1.42-.62l-10.06-11.07H129.55a1.95 1.95 0 010-3.89h23.74a2 2 0 011.45.62l10.06 11.08h28.12a1.94 1.94 0 01.26 3.88 1.13 1.13 0 01-.26 0zM118.43 170.32H78.15a1.95 1.95 0 010-3.89h40.28a1.95 1.95 0 010 3.89zM218.21 155.44h-76.1a1.95 1.95 0 010-3.89h76.1a1.95 1.95 0 01.26 3.89zM131 155.44H108.52a1.95 1.95 0 01-.26-3.89 1.13 1.13 0 01.26 0H131a1.95 1.95 0 010 3.89zM97.42 155.44H67.8a1.95 1.95 0 11-.26-3.89 1.13 1.13 0 01.26 0H97.42a1.95 1.95 0 01.26 3.89zM127.27 125.63H114.59a1.95 1.95 0 01-.26-3.89h12.11l14.31-15.36a2 2 0 011.43-.62h11.36a1.95 1.95 0 01.26 3.89H143L128.7 125A2 2 0 01127.27 125.63zM103.49 125.63H67.8a1.95 1.95 0 11-.26-3.89h35.95a1.95 1.95 0 11.26 3.89zM159.67 140.52H78.15a1.95 1.95 0 010-3.89h80.69l14.31-15.36a1.93 1.93 0 011.43-.6h29a1.95 1.95 0 11.26 3.89H175.41L161.1 139.89A2 2 0 01159.67 140.52zM218.21 77.51a1.89 1.89 0 01-1.37-.56l-7.76-7.79a2 2 0 012.69-2.75l7.78 7.78a2 2 0 010 2.76A1.89 1.89 0 01218.21 77.51z" class="color2b5185 svgShape"/><path fill="#24b2c0" d="M210.43 77.51a1.91 1.91 0 01-1.38-.56 2 2 0 010-2.76l7.79-7.78a1.94 1.94 0 012.74 2.75L211.77 77A1.89 1.89 0 01210.43 77.51zM233.77 196.82a2 2 0 01-1.37-.54l-7.78-7.78a2 2 0 010-2.77 1.94 1.94 0 012.74 0h0l7.78 7.78a1.93 1.93 0 010 2.74h0A1.94 1.94 0 01233.77 196.82z" class="color2b5185 svgShape"/><path fill="#24b2c0" d="M226 196.82a1.93 1.93 0 01-2-1.9 1.89 1.89 0 01.59-1.41l7.78-7.78a1.95 1.95 0 012.74 2.77h0l-7.78 7.78A1.94 1.94 0 01226 196.82zM205.24 222.78a2.1 2.1 0 01-1.38-.56l-7.78-7.79a1.94 1.94 0 012.69-2.78h0l7.77 7.78a1.94 1.94 0 010 2.75A2.07 2.07 0 01205.24 222.78z" class="color2b5185 svgShape"/><path fill="#24b2c0" d="M197.46 222.78a2.1 2.1 0 01-1.38-.56 2 2 0 010-2.76l7.78-7.78a1.93 1.93 0 012.68 0h0a2 2 0 010 2.75h0l-7.77 7.79A2.13 2.13 0 01197.46 222.78zM202.65 103.45a2 2 0 01-1.38-.57l-7.78-7.78a1.95 1.95 0 012.75-2.75l7.78 7.78a2 2 0 010 2.76 1.92 1.92 0 01-1.35.56z" class="color2b5185 svgShape"/><path fill="#24b2c0" d="M194.87,103.45a2,2,0,0,1-1.94-2,1.92,1.92,0,0,1,.56-1.36l7.78-7.78A1.95,1.95,0,0,1,204,95.1l-7.78,7.78A2,2,0,0,1,194.87,103.45Z" class="color2b5185 svgShape"/></g></g></svg></g></svg>