<svg xmlns="http://www.w3.org/2000/svg" xmlns:xlink="http://www.w3.org/1999/xlink" viewBox="0 0 288 288" xmlns:v="https://vecta.io/nano"><style><![CDATA[.B{fill:none}.C{opacity:.2}.D{fill:#fff}.E{fill:#24b2c0}.F{opacity:.3}.G{fill:#455a64}.H{fill:#e0e0e0}.I{opacity:.5}.J{clip-path:url(#A)}.K{fill:#37474f}.L{fill:#ffa8a7}.M{fill:#263238}.N{fill:#995c5c}.O{clip-path:url(#V)}.P{clip-path:url(#W)}.Q{clip-path:url(#i)}.R{clip-path:url(#j)}]]></style><defs><clipPath id="A"><path d="M35.39 37.31h217.22v217.23H35.39z" class="B"/></clipPath><clipPath id="B"><path d="M101.54 174.99h39.22v17.91h-39.22z" class="B"/></clipPath><clipPath id="C"><path d="M101.54 174.99h5.91v12.32h-5.91z" class="B"/></clipPath><clipPath id="D"><path d="M103.45 161.74h27.92v23.83h-27.92z" class="B"/></clipPath><clipPath id="E"><path d="M60.54 54.4h106.31v61.73H60.54z" class="B"/></clipPath><clipPath id="F"><path d="M59.71 113.96h4.93v85.84h-4.93z" class="B"/></clipPath><clipPath id="G"><path d="M67.09 61h97.51v134.6H67.09z" class="B"/></clipPath><clipPath id="H"><path d="M75.46 66.21h100.47v58.34H75.46z" class="B"/></clipPath><clipPath id="I"><path d="M74.69 122.5h4.66v81.14h-4.66z" class="B"/></clipPath><clipPath id="J"><path d="M78.24 74.78h98.86v129.09H78.24z" class="B"/></clipPath><clipPath id="K"><path d="M92.66 79.21h82.01v49.6H92.66z" class="B"/></clipPath><clipPath id="L"><path d="M81.72 127.91h9.12v6.88h-9.12z" class="B"/></clipPath><clipPath id="M"><path d="M81.72 132.53h2.35v2.25h-2.35z" class="B"/></clipPath><clipPath id="N"><path d="M85.4 130.08h2.35v2.25H85.4z" class="B"/></clipPath><clipPath id="O"><path d="M89 127.91h1.83v2.73H89z" class="B"/></clipPath><clipPath id="P"><path d="M78.23 68.26h98.71v63.5H78.23z" class="B"/></clipPath><clipPath id="Q"><path d="M81.72 121.76h6.74v5.18h-6.74z" class="B"/></clipPath><clipPath id="R"><path d="M81.72 124.61h1.8v2.33h-1.8z" class="B"/></clipPath><clipPath id="S"><path d="M84.18 123.18h1.8v2.33h-1.8z" class="B"/></clipPath><clipPath id="T"><path d="M86.65 121.76h1.8v2.33h-1.8z" class="B"/></clipPath><clipPath ><path d="M74.69 66.21h102.4v137.67H74.69z" class="B"/></clipPath><clipPath id="V"><path d="M184.96 96h31.91v20.94h-31.91z" class="B"/></clipPath><clipPath id="W"><path d="M184.7 96.7h31.2v20.25h-31.2z" class="B"/></clipPath><clipPath id="X"><path d="M186.28 102.44h28.04v28.98h-28.04z" class="B"/></clipPath><clipPath id="Y"><path d="M186.28 118.04h8.66v5.92h-8.66z" class="B"/></clipPath><clipPath id="Z"><path d="M186.3 112.35h8.66v5.92h-8.66z" class="B"/></clipPath><clipPath id="a"><path d="M186.31 108.4h6.05v4.41h-6.05z" class="B"/></clipPath><clipPath id="b"><path d="M191.99 123.32h11.14v7.34h-11.14z" class="B"/></clipPath><clipPath id="c"><path d="M192 119.35h13.92v8.96H192z" class="B"/></clipPath><clipPath id="d"><path d="M192.03 109.43h6.89v4.9h-6.89z" class="B"/></clipPath><clipPath id="e"><path d="M192.02 113.67h16.99v10.72h-16.99z" class="B"/></clipPath><clipPath id="f"><path d="M192.01 117.63h22.29v13.78h-22.29z" class="B"/></clipPath><clipPath id="g"><path d="M192.04 107.71h22.29v13.78h-22.29z" class="B"/></clipPath><clipPath id="h"><path d="M186.32 102.44h8.66v5.92h-8.66z" class="B"/></clipPath><clipPath id="i"><path d="M68.32 169.33h31.91v20.94H68.32z" class="B"/></clipPath><clipPath id="j"><path d="M69.28 170.02h31.2v20.25h-31.2z" class="B"/></clipPath><clipPath id="k"><path d="M70.86 177.92h28.42v30.69H70.86z" class="B"/></clipPath><clipPath id="l"><path d="M148.04 152.35h20.37v25.97h-20.37z" class="B"/></clipPath><clipPath id="m"><path d="M198.45 83.93h7.6v16.42h-7.6z" class="B"/></clipPath><clipPath id="n"><path d="M109.8 60.42h7.6v16.42h-7.6z" class="B"/></clipPath><clipPath id="o"><path d="M60.38 102.77h2.54v1.99h-2.54z" class="B"/></clipPath><clipPath id="p"><path d="M70 86.32h2.72v2.02H70z" class="B"/></clipPath><clipPath id="q"><path d="M60.83 89.93h6.55v8.46h-6.55z" class="B"/></clipPath><clipPath id="r"><path d="M54.34 100.34h3.86v3.86h-3.86z" class="B"/></clipPath><clipPath id="s"><path d="M56.12 99.98h2.08v1.58h-2.08z" class="B"/></clipPath><clipPath id="t"><path d="M65.43 84.14h2.12v1.4h-2.12z" class="B"/></clipPath><clipPath id="u"><path d="M54.63 91.94h3.54V96h-3.54z" class="B"/></clipPath><clipPath id="v"><path d="M52.65 96.12h2.84v4.4h-2.84z" class="B"/></clipPath><clipPath id="w"><path d="M59.52 83.3h3.35v4.23h-3.35z" class="B"/></clipPath><clipPath id="x"><path d="M54.31 90.49h3.88v3.09h-3.88z" class="B"/></clipPath><clipPath id="y"><path d="M56 87.56h4.61v1.8H56z" class="B"/></clipPath><clipPath id="z"><path d="M64.99 81.51h4.35v3.87h-4.35z" class="B"/></clipPath><clipPath id="AA"><path d="M57.79 85.89h4.56v3.49h-4.56z" class="B"/></clipPath><clipPath id="AB"><path d="M52.65 94.36h4.82v3.4h-4.82z" class="B"/></clipPath><clipPath id="AC"><path d="M60.04 81.92h5.23v3.03h-5.23z" class="B"/></clipPath><clipPath id="AD"><path d="M54.31 87.56h4.53v4.57h-4.53z" class="B"/></clipPath><clipPath id="AE"><path d="M80.38 93.25h1.8v1.4h-1.8z" class="B"/></clipPath><clipPath id="AF"><path d="M87.17 81.61h1.93v1.43h-1.93z" class="B"/></clipPath><clipPath id="AG"><path d="M80.7 84.17h4.64v5.99H80.7z" class="B"/></clipPath><clipPath id="AH"><path d="M76.1 91.53h2.73v2.73H76.1z" class="B"/></clipPath><clipPath id="AI"><path d="M77.35 91.28h1.47v1.12h-1.47z" class="B"/></clipPath><clipPath id="AJ"><path d="M83.94 80.07h1.5v.99h-1.5z" class="B"/></clipPath><clipPath id="AK"><path d="M76.3 85.59h2.51v2.87H76.3z" class="B"/></clipPath><clipPath id="AL"><path d="M74.9 88.54h2.01v3.11H74.9z" class="B"/></clipPath><clipPath id="AM"><path d="M79.77 79.48h2.37v3h-2.37z" class="B"/></clipPath><clipPath id="AN"><path d="M76.07 84.57h2.74v2.19h-2.74z" class="B"/></clipPath><clipPath id="AO"><path d="M77.28 82.5h3.27v1.28h-3.27z" class="B"/></clipPath><clipPath id="AP"><path d="M83.63 78.21h3.08v2.73h-3.08z" class="B"/></clipPath><clipPath id="AQ"><path d="M78.54 81.32h3.23v2.46h-3.23z" class="B"/></clipPath><clipPath id="AR"><path d="M74.9 87.3h3.41v2.41H74.9z" class="B"/></clipPath><clipPath id="AS"><path d="M80.13 78.5h3.7v2.14h-3.7z" class="B"/></clipPath><clipPath id="AT"><path d="M76.07 82.5h3.2v3.24h-3.2z" class="B"/></clipPath><clipPath id="AU"><path d="M225.71 141.14h1.6v1.25h-1.6z" class="B"/></clipPath><clipPath id="AV"><path d="M219.52 130.75h1.72v1.28h-1.72z" class="B"/></clipPath><clipPath id="AW"><path d="M222.88 133.03h4.14v5.35h-4.14z" class="B"/></clipPath><clipPath id="AX"><path d="M228.69 139.6h2.44v2.44h-2.44z" class="B"/></clipPath><clipPath id="AY"><path d="M228.69 139.37h1.32v1h-1.32z" class="B"/></clipPath><clipPath id="AZ"><path d="M222.79 129.37h1.34v.89h-1.34z" class="B"/></clipPath><clipPath id="Aa"><path d="M228.71 134.3h2.24v2.57h-2.24z" class="B"/></clipPath><clipPath id="Ab"><path d="M230.41 136.93h1.8v2.78h-1.8z" class="B"/></clipPath><clipPath id="Ac"><path d="M225.74 128.84h2.11v2.67h-2.11z" class="B"/></clipPath><clipPath id="Ad"><path d="M228.71 133.38h2.44v1.96h-2.44z" class="B"/></clipPath><clipPath id="Ae"><path d="M227.17 131.53h2.91v1.15h-2.91z" class="B"/></clipPath><clipPath id="Af"><path d="M221.67 127.7h2.74v2.44h-2.74z" class="B"/></clipPath><clipPath id="Ag"><path d="M226.07 130.48h2.88v2.2h-2.88z" class="B"/></clipPath><clipPath id="Ah"><path d="M229.15 135.83h3.05v2.15h-3.05z" class="B"/></clipPath><clipPath id="Ai"><path d="M224.23 127.97h3.3v1.91h-3.3z" class="B"/></clipPath><clipPath id="Aj"><path d="M228.3 131.53h2.86v2.89h-2.86z" class="B"/></clipPath><clipPath id="Ak"><path d="M233.81 152.97h1.11v.87h-1.11z" class="B"/></clipPath><clipPath id="Al"><path d="M229.54 145.78h1.19v.89h-1.19z" class="B"/></clipPath><clipPath id="Am"><path d="M231.86 147.35h2.86v3.7h-2.86z" class="B"/></clipPath><clipPath id="An"><path d="M235.88 151.91h1.69v1.68h-1.69z" class="B"/></clipPath><clipPath id="Ao"><path d="M235.88 151.74h.91v.69h-.91z" class="B"/></clipPath><clipPath id="Ap"><path d="M231.79 144.82h.93v.61h-.93z" class="B"/></clipPath><clipPath id="Aq"><path d="M235.89 148.23h1.55v1.78h-1.55z" class="B"/></clipPath><clipPath id="Ar"><path d="M237.06 150.05h1.24v1.92h-1.24z" class="B"/></clipPath><clipPath id="As"><path d="M233.83 144.46h1.46v1.85h-1.46z" class="B"/></clipPath><clipPath id="At"><path d="M235.89 147.6h1.69v1.36h-1.69z" class="B"/></clipPath><clipPath id="Au"><path d="M234.83 146.32h2.01v.79h-2.01z" class="B"/></clipPath><clipPath id="Av"><path d="M231.02 143.67h1.9v1.69h-1.9z" class="B"/></clipPath><clipPath id="Aw"><path d="M234.06 145.59h2v1.52h-2z" class="B"/></clipPath><clipPath id="Ax"><path d="M236.2 149.29h2.1v1.48h-2.1z" class="B"/></clipPath><clipPath id="Ay"><path d="M232.78 143.85h2.28v1.33h-2.28z" class="B"/></clipPath><clipPath id="Az"><path d="M235.6 146.32h1.98v2h-1.98z" class="B"/></clipPath><clipPath id="BA"><path d="M223.68 151.41h.93v.72h-.93z" class="B"/></clipPath><clipPath id="BB"><path d="M220.13 145.44h.98v.74h-.98z" class="B"/></clipPath><clipPath id="BC"><path d="M222.06 146.75h2.38v3.08h-2.38z" class="B"/></clipPath><clipPath id="BD"><path d="M225.39 150.53h1.4v1.4h-1.4z" class="B"/></clipPath><clipPath id="BE"><path d="M225.39 150.4h.75v.57h-.75z" class="B"/></clipPath><clipPath id="BF"><path d="M222 144.65h.76v.51H222z" class="B"/></clipPath><clipPath id="BG"><path d="M225.4 147.49h1.29v1.47h-1.29z" class="B"/></clipPath><clipPath id="BH"><path d="M226.39 148.99h1.03v1.59h-1.03z" class="B"/></clipPath><clipPath id="BI"><path d="M223.7 144.34h1.21v1.54h-1.21z" class="B"/></clipPath><clipPath id="BJ"><path d="M225.4 146.96h1.4v1.13h-1.4z" class="B"/></clipPath><clipPath id="BK"><path d="M224.52 145.89h1.67v.66h-1.67z" class="B"/></clipPath><clipPath id="BL"><path d="M221.36 143.69h1.58v1.4h-1.58z" class="B"/></clipPath><clipPath id="BM"><path d="M223.89 145.29h1.66v1.26h-1.66z" class="B"/></clipPath><clipPath id="BN"><path d="M225.66 148.35h1.75v1.23h-1.75z" class="B"/></clipPath><clipPath id="BO"><path d="M222.83 143.84h1.9v1.1h-1.9z" class="B"/></clipPath><clipPath id="BP"><path d="M225.17 145.89h1.64v1.66h-1.64z" class="B"/></clipPath><clipPath id="BQ"><path d="M179.3 156.05h50.71v47.6H179.3z" class="B"/></clipPath><clipPath id="BR"><path d="M184.05 163.21h35.54v38.85h-35.54z" class="B"/></clipPath><clipPath id="BS"><path d="M183.34 175.73h13.43v21.15h-13.43z" class="B"/></clipPath><clipPath id="BT"><path d="M186.65 152.9h9.52v11.87h-9.52z" class="B"/></clipPath><clipPath id="BU"><path d="M193.77 152.25h17.83v25.4h-17.83z" class="B"/></clipPath><clipPath id="BV"><path d="M196.64 148.58h1.44v.92h-1.44z" class="B"/></clipPath><clipPath id="BW"><path d="M197.81 149.82h4.71v3.09h-4.71z" class="B"/></clipPath><clipPath id="BX"><path d="M178.84 177.42h24.67v9.19h-24.67z" class="B"/></clipPath><clipPath id="BY"><path d="M180.01 174.65h18.65v10.63h-18.65z" class="B"/></clipPath><clipPath id="BZ"><path d="M190.14 175.23h6.99v4.23h-6.99z" class="B"/></clipPath><clipPath id="Ba"><path d="M176.93 166.95h16.89v19.06h-16.89z" class="B"/></clipPath><clipPath id="Bb"><path d="M205.69 153.76h8.05v12.37h-8.05z" class="B"/></clipPath><clipPath id="Bc"><path d="M121.71 178.34h6.98v13.58h-6.98z" class="B"/></clipPath><clipPath ><path d="M114.35 142.83h.11v2.31h-.11z" class="B"/></clipPath><clipPath id="Be"><path d="M121.63 136.23h5.57v12.31h-5.57z" class="B"/></clipPath><path id="Bf" d="M138.41,182.51l-12.35,7.07a11.67,11.67,0,0,1-11.66,0l-9.17-5.28a3.52,3.52,0,0,1-1.77-3V175l-1.91,1.1v5.44a4.11,4.11,0,0,0,2,3.55l10.89,6.28a11.59,11.59,0,0,0,11.46,0l12.42-7.13a4.65,4.65,0,0,0,2.27-4.94,4.64,4.64,0,0,1-2.27,3.2"/><path id="Bg" d="M164.43,61,162,62.44l.17,73.78a4.37,4.37,0,0,1-1.77,3L67.09,193v2.64l95.74-55.13a4.41,4.41,0,0,0,1.77-3Z"/><path id="Bh" d="M78.24,131.79l.15,69.78a2.36,2.36,0,0,0,1,2.11h.05a2.4,2.4,0,0,0,2.3-.27l92.07-53a7.29,7.29,0,0,0,3.3-5.73l-.16-69.9Z"/><path id="Bi" d="M173.12,79.42c.86-.48,1.54-.09,1.55.89A3.43,3.43,0,0,1,173.13,83L94.21,128.61c-.85.49-1.55.09-1.55-.88a3.4,3.4,0,0,1,1.54-2.68Z"/><path id="Bj" d="M176.93,70.61a2.32,2.32,0,0,0-1-2.12h0a2.32,2.32,0,0,0-2.34.24l-92.07,53a7.29,7.29,0,0,0-3.3,5.73v4.33l98.7-57Z"/><path id="Bk" d="M216.85 116.34v-1.61a2.2 2.2 0 0 0-1-1.75l-29.18-16.84a.71.71 0 0 0-.74-.06h0l-1 .72.64.41h.06v2.29l30.3 17.5z"/><path id="Bl" d="M68.32,189.68v-1.63a2.23,2.23,0,0,1,1-1.74L98.5,169.46a.71.71,0,0,1,.73-.06h0l1,.72-.65.41h-.06v2.29L69.24,190.28Z"/><path id="Bm" d="M149.2,177.76V164.89a1.91,1.91,0,0,1,.86-1.48l17.79-10.27a.59.59,0,0,1,.59-.07l-1.11-.67h0a.59.59,0,0,0-.59.07L148.9,162.73a1.88,1.88,0,0,0-.86,1.49v12.87a.58.58,0,0,0,.27.55l1.1.66h0a.56.56,0,0,1-.23-.54"/><path id="Bn" d="M192,166.77c-3,2.1-6.45,3.56-9,6.39-4.78,5.28-4.84,13.77-1.13,19.8s10.64,9.67,17.68,10.51a28.45,28.45,0,0,0,20.93-5.84A25.33,25.33,0,0,0,230,178.25a22.88,22.88,0,0,0-10-18.91c-5.68-3.72-13.85-4.78-19.55-.53-2.86,2.15-4.77,5.31-7.69,7.46l-.69.51"/><path id="Bo" d="M196.16,152.9c-3.06-.13-7.19,4.78-9.55,7.15.17,2.87,3.25,4.78,3.25,4.78a67.39,67.39,0,0,0,6.27-4.91Z"/><path id="Bp" d="M211.38,176.3c-2,1.91-11.8,2.31-16.79-2.44a45,45,0,0,0,0-10.5c-.31-3.55-2.38-9.75,1.58-10.51,5.29-1,8.74-.95,12.28,1,3.82,6.3,3.25,15.7,2.93,22.36"/><path id="Bq" d="M203.49,180.49a.38.38,0,0,1,0,.15h0a.21.21,0,0,1-.05.13h0l-.11.11h0a.83.83,0,0,1-.15.11l-8.39,4.88-.24.1h-1.06l-.18-.05h0l-.18-.08-13.84-8a.57.57,0,0,1-.16-.11h0l-.07-.08v-.13a.06.06,0,0,1,0-.06.09.09,0,0,1,0-.07v.48a.11.11,0,0,0,0,.08.06.06,0,0,0,0,.06v.13l.07.08v0a.57.57,0,0,0,.16.11l13.84,8a.76.76,0,0,0,.18.09h0l.18.06h1.06a1.28,1.28,0,0,0,.24-.11l8.39-4.87.15-.11h0a.63.63,0,0,0,.11-.12h0a.37.37,0,0,0,.05-.11h0a.24.24,0,0,0,0-.12h0Z"/><path id="Br" d="M192.8,175.28l-2.53,1.49a.27.27,0,0,0-.09.36.24.24,0,0,0,.09.08l3.82,2.19a.4.4,0,0,0,.42,0l2.53-1.49a.25.25,0,0,0,.08-.35.24.24,0,0,0-.08-.09l-3.82-2.19a.47.47,0,0,0-.43,0"/><path id="Bs" d="M193.81,185.42l-1.43-9.11a1.63,1.63,0,0,0-.81-1.2L177.62,167a.38.38,0,0,0-.36,0h0l-.33.16H177a.36.36,0,0,0,0,.25l1.43,9.11a1.67,1.67,0,0,0,.82,1.19l13.94,8.11h.08V186l.32-.16h0a.41.41,0,0,0,.23-.44"/><path id="Bt" d="M205.71,159.42l2.23,6.69c3.62.26,5.31-1,5.82-2.05-1.91-8.66-3.16-10.1-5.64-10.27s-2.41,5.65-2.41,5.65"/></defs><circle cx="144" cy="144" r="144" class="D"/><g class="J"><path d="M212.5,151.5c-38.25-22.09-100-22.09-138,0s-37.77,57.88.43,80,100.05,22.07,138.06,0,37.8-57.89-.46-80" fill="#f5f5f5"/><use xlink:href="#Bf" class="E"/><g clip-path="url(#B)"><g opacity=".1"><use xlink:href="#Bf"/></g></g><path d="M105.23,184.31l9.17,5.28a11.67,11.67,0,0,0,11.66,0l12.35-7.07a3.37,3.37,0,0,0,.09-6.35l-10.14-6.08a4.11,4.11,0,0,1-2-3.52v-4.78L103.45,175v6.25a3.53,3.53,0,0,0,1.77,3" class="E"/><g clip-path="url(#C)"><g opacity=".4"><path d="M105.23,184.31a3.52,3.52,0,0,1-1.77-3V175l-1.91,1.1v5.44a4.12,4.12,0,0,0,2,3.55l3.82,2.23V185.6Z"/></g></g><g clip-path="url(#D)"><g class="F"><path d="M105.23,184.31l2.22,1.29,23.93-13.71-3-1.8a4.11,4.11,0,0,1-2-3.52v-4.78L103.45,175v6.25a3.53,3.53,0,0,0,1.77,3"/></g></g><path d="M63.64 197.56l-.22-78.36a7.74 7.74 0 0 1 3.49-6.06l97.41-56.09a2.49 2.49 0 0 1 2.47-.26l-3.67-2.13h0a2.44 2.44 0 0 0-2.55.2L63.16 111a7.74 7.74 0 0 0-3.49 6l.18 78.37a2.51 2.51 0 0 0 .95 2.18h0l.19.12 3.62 2.1a2.45 2.45 0 0 1-1-2.24" class="E"/><g clip-path="url(#E)" class="D"><g class="F"><path d="M163.17,54.66h0a2.43,2.43,0,0,0-2.54.2L63.22,111a7.35,7.35,0,0,0-2.67,3l3.74,2.16a7.29,7.29,0,0,1,2.67-3L164.37,57a2.47,2.47,0,0,1,2.46-.26Z"/></g></g><g clip-path="url(#F)"><g class="C"><path d="M59.71,117l.19,78.38a2.49,2.49,0,0,0,1,2.18h0l.19.12,3.62,2.1a2.42,2.42,0,0,1-.95-2.24l-.29-78.36a6.9,6.9,0,0,1,.82-3.08L60.55,114a7.09,7.09,0,0,0-.82,3.06"/></g></g><path d="M166.88,56.81Z" class="L"/><g class="E"><path d="M167.88,59.06a2.47,2.47,0,0,0-1-2.25h0a2.47,2.47,0,0,0-2.46.26L67,113.16a7.74,7.74,0,0,0-3.49,6.06l.18,78.36a2.42,2.42,0,0,0,1,2.24h.06a2.47,2.47,0,0,0,2.42-.28l97.41-56.09a7.76,7.76,0,0,0,3.51-6.06Zm-5,81.42L67.1,195.61l-.18-76.4a4.39,4.39,0,0,1,1.77-3L164.43,61l.17,76.4a4.41,4.41,0,0,1-1.77,3.05"/><use xlink:href="#Bg"/></g><g clip-path="url(#G)"><g class="F"><use xlink:href="#Bg"/></g></g><path d="M162.12,136.22,162,62.44l-93.26,53.7a4.32,4.32,0,0,0-1.77,3L67.09,193l93.26-53.71a4.37,4.37,0,0,0,1.77-3" class="G"/><path d="M78.39,201.5l-.16-74.07a7.27,7.27,0,0,1,3.31-5.73L173.6,68.76a2.3,2.3,0,0,1,2.33-.24l-3.46-2h0a2.28,2.28,0,0,0-2.41.2L78,119.72a7.29,7.29,0,0,0-3.3,5.72l.17,74.07a2.37,2.37,0,0,0,.88,2.07h0l.19.1,3.42,2a2.36,2.36,0,0,1-1-2.11" class="E"/><g clip-path="url(#H)" class="D"><g opacity=".4"><path d="M172.47,66.46h0a2.28,2.28,0,0,0-2.41.19L78,119.67a7,7,0,0,0-2.53,2.86l3.54,2a7,7,0,0,1,2.54-2.82l92.06-53a2.3,2.3,0,0,1,2.33-.24Z"/></g></g><g clip-path="url(#I)" class="D"><g class="F"><path d="M74.69,125.41l.17,74.06a2.36,2.36,0,0,0,.88,2.07h0l.19.1,3.42,2a2.36,2.36,0,0,1-1-2.11l-.16-74.07a6.57,6.57,0,0,1,.77-2.91l-3.54-2.05a6.71,6.71,0,0,0-.77,2.87"/></g></g><use xlink:href="#Bh" class="E"/><g clip-path="url(#J)" class="D"><g class="I"><use xlink:href="#Bh"/></g></g><use xlink:href="#Bi" class="E"/><g clip-path="url(#K)" class="D"><g opacity=".8"><use xlink:href="#Bi"/></g></g><g clip-path="url(#L)" class="D"><g opacity=".7"><g clip-path="url(#M)"><path d="M82.6,132.55a.2.2,0,0,1,.11,0c.07,0,.07.14,0,.25l-.5.95,1.68-.95c.09,0,.16,0,.16.09a.37.37,0,0,1-.16.27l-1.68,1,.5.33c.07,0,.06.15,0,.26a.27.27,0,0,1-.11.1.08.08,0,0,1-.11,0l-.74-.49h0a.06.06,0,0,1,0-.06.09.09,0,0,1,0-.07.09.09,0,0,1,0-.07l.73-1.36a.34.34,0,0,1,.12-.12"/></g><g clip-path="url(#N)"><path d="M86.85,130.1a.09.09,0,0,1,.12,0l.74.49h0a.09.09,0,0,1,0,.07.06.06,0,0,1,0,.06v.07L87,132.15a.34.34,0,0,1-.12.12.09.09,0,0,1-.1,0c-.07,0-.07-.14,0-.25l.5-1-1.69,1c-.08,0-.16,0-.16-.09a.37.37,0,0,1,.16-.27l1.69-.95-.51-.34c-.06,0-.06-.15,0-.26a.24.24,0,0,1,.1-.1"/></g><g clip-path="url(#O)"><path d="M90,128.3a.76.76,0,0,1,.51-.12.31.31,0,0,1,.16-.25h0c.08-.05.15,0,.15.09v.4a.37.37,0,0,1-.15.26l-.34.21h0a.09.09,0,0,1-.15-.08.33.33,0,0,1,.11-.25.53.53,0,0,0-.27.08,1.41,1.41,0,0,0-.65,1.13c0,.41.28.58.65.37a1.4,1.4,0,0,0,.57-.72.37.37,0,0,1,.13-.17h.08c.08,0,.1.09.07.21a2.16,2.16,0,0,1-.85,1.06c-.53.31-1,.06-1-.55a2.13,2.13,0,0,1,1-1.66"/></g></g></g><g class="D"><path d="M154.28 104.54v1.07l-34.56 19.95v-1.07l34.56-19.95zm0-1.99v1.07l-34.56 19.95v-1.06l34.56-19.96zm-15.15 6.53l.01 1.07-19.42 11.21v-1.07l19.41-11.21z"/></g><path d="M167.87 94.58v1.08l-6.15 3.54v-1.07l6.15-3.55z" class="E"/><path d="M168.17,92.31c1.27-.74,2.3-.16,2.31,1.31a5.06,5.06,0,0,1-2.29,4l-6.76,3.9c-1.27.73-2.3.15-2.3-1.31a5,5,0,0,1,2.28-4Zm-.3,3.35V94.54l-6.15,3.55v1.07l6.15-3.54" class="D"/><path d="M148.41,146.84l23.39-13.51a3.84,3.84,0,0,0,1.91-3.28V102.3a1.41,1.41,0,0,0-1.43-1.42,1.43,1.43,0,0,0-.7.18L148.21,114.6a3.82,3.82,0,0,0-1.91,3.28v27.76a1.41,1.41,0,0,0,2.13,1.22" class="E"/><g class="D"><path d="M164.2 120.31l4.48 3.52.01 3.45-14.89 8.59-.01-3.43 2.84-5.64 2.54 1.98-.89 2.8 1.3-2.49 4.62-8.78zm7.63-12.04v1.06l-23.05 13.22v-1.07l23.05-13.21zm-.01-1.98l.01 1.07-23.05 13.2-.02-1.06 23.06-13.21zM157.9 112v1.07l-9.14 5.28v-1.07l9.14-5.28z"/></g><path d="M112.74 121.45L84 138a2.88 2.88 0 0 0-1.42 2.48l.08 41.33a1 1 0 0 0 1 .94.93.93 0 0 0 .46-.12l28.69-16.55a2.88 2.88 0 0 0 1.43-2.46v-41.38a1 1 0 0 0-1.45-.83" class="E"/><g class="D"><path d="M102.11 135.35l4.79 3.78.01 3.69-15.95 9.2-.02-3.68 3.05-6.04 2.73 2.12-.97 3 1.4-2.67 4.96-9.4zm8.97 16.62v1.07L85.8 167.77v-1.07l25.28-14.73zm-.01-1.97v1.07L85.8 165.78v-1.07L111.07 150zm.01 6v1.07L85.8 171.8v-1.07L111.08 156zm-.01-1.97v1.07L85.8 169.81v-1.07l25.27-14.71zm-10.61 12.28v1.07l-14.66 8.53v-1.07l14.66-8.53zm10.61-8.18v1.07L85.8 173.93v-1.07l25.27-14.73zm-18.71.5v1.07l-6.58 3.87v-1.07l6.58-3.87z"/></g><path d="M118.74,163.79l23.39-13.51A3.81,3.81,0,0,0,144,147V119.25a1.44,1.44,0,0,0-1.45-1.42,1.4,1.4,0,0,0-.69.19l-23.39,13.5a3.84,3.84,0,0,0-1.91,3.28v27.76a1.42,1.42,0,0,0,2.13,1.23" class="E"/><g class="D"><path d="M130.87 151.78v1.07l-11.75 6.75v-1.07l11.75-6.75zm11.3-8.44l.01 1.07-23.06 13.22-.01-1.07 23.06-13.22zm-5.67.89v1.07l-17.39 10.1v-1.07l17.39-10.1z"/></g><path d="M134.98 136.93l3.64-2.11-3.63 6.31-.01-4.2z" class="H"/><path d="M138.59 125.26l.03 9.56-3.64 2.11.01 4.2 3.63-6.31-3.63 6.31-12.93 7.46-.04-13.75 16.57-9.58z" class="D"/><use xlink:href="#Bj" class="E"/><g clip-path="url(#P)"><g class="F"><use xlink:href="#Bj"/></g></g><g clip-path="url(#Q)" class="D"><g class="I"><g clip-path="url(#R)"><path d="M82.61,124.74c.5-.3.91-.06.91.51a2,2,0,0,1-.9,1.56c-.5.29-.9.06-.9-.52a2,2,0,0,1,.89-1.55"/></g><g clip-path="url(#S)"><path d="M85.08,123.31c.5-.29.91-.06.91.51a2,2,0,0,1-.9,1.57c-.5.28-.91,0-.91-.52a2,2,0,0,1,.9-1.56"/></g><g clip-path="url(#T)"><path d="M87.55,121.88c.5-.28,1,0,1,.52a2,2,0,0,1-.9,1.56c-.51.29-.91.06-.91-.52a2,2,0,0,1,.9-1.56"/></g></g></g><g class="O E"><use xlink:href="#Bk"/></g><g class="O D"><g opacity=".7"><use xlink:href="#Bk"/></g></g><path d="M215.9 117l-30.24-17.51-.06 20.74a2.23 2.23 0 0 0 1 1.74l28.74 16.59-.27.32.49.69.95-.71h0a.71.71 0 0 0 .27-.62l.06-21.9z" class="K"/><g class="P E"><path d="M214.89 113.64a2.22 2.22 0 0 1 1 1.74v1.53l-31.2-18v-1.5c0-.64.46-.9 1-.58z"/></g><g class="P D"><g class="I"><path d="M214.89 113.64a2.22 2.22 0 0 1 1 1.74v1.53l-31.2-18v-1.5c0-.64.46-.9 1-.58z"/></g></g><path d="M215.9,117l-.07,22c0,.64-.46.89-1,.57l-29.16-16.81a2.22,2.22,0,0,1-1-1.74l.07-22Z" class="G"/><g class="E"><path d="M194.94 123.04v.91l-8.66-4.99.01-.92 8.65 5zm.02-5.68v.91l-8.66-5v-.92l8.66 5.01zm-2.6-5.47v.92l-6.05-3.5v-.92l6.05 3.5zm10.77 17.86v.92l-11.14-6.44v-.9l11.14 6.42zm2.79-2.37v.92L192 120.27l.01-.92 13.91 8.03zm-6.99-13.97l-.01.92-6.89-3.97v-.93l6.9 3.98zM209 123.48v.91l-16.98-9.79v-.93l16.98 9.81zm5.29 7.02v.92l-22.28-12.87v-.92l22.28 12.87zm.03-9.92l-.01.92-22.28-12.86v-.93l22.29 12.87zm-19.33-13.15v.92l-8.67-4.99v-.92l8.67 4.99z"/></g><g clip-path="url(#X)" class="D"><g class="I"><g clip-path="url(#Y)"><path d="M194.94 123.04v.91l-8.66-4.99.01-.92 8.65 5z"/></g><g clip-path="url(#Z)"><path d="M194.96 117.36v.91l-8.66-5v-.92l8.66 5.01z"/></g><g clip-path="url(#a)"><path d="M192.36 111.89v.92l-6.05-3.5v-.92l6.05 3.5z"/></g><g clip-path="url(#b)"><path d="M203.13 129.75v.92l-11.14-6.44v-.9l11.14 6.42z"/></g><g clip-path="url(#c)"><path d="M205.92 127.38v.92L192 120.27l.01-.92 13.91 8.03z"/></g><g clip-path="url(#d)"><path d="M198.93 113.41l-.01.92-6.89-3.97v-.93l6.9 3.98z"/></g><g clip-path="url(#e)"><path d="M209 123.48v.91l-16.98-9.79v-.93l16.98 9.81z"/></g><g clip-path="url(#f)"><path d="M214.29 130.5v.92l-22.28-12.87v-.92l22.28 12.87z"/></g><g clip-path="url(#g)"><path d="M214.32 120.58l-.01.92-22.28-12.86v-.93l22.29 12.87z"/></g><g clip-path="url(#h)"><path d="M194.99 107.43v.92l-8.67-4.99v-.92l8.67 4.99z"/></g></g></g><g class="Q E"><use xlink:href="#Bl"/></g><g class="Q D"><g class="F"><use xlink:href="#Bl"/></g></g><path d="M69.28 190.27l30.24-17.42v20.74a2.16 2.16 0 0 1-1 1.74l-28.67 16.59.25.32-.47.69-1-.71h0a.76.76 0 0 1-.27-.62l-.06-21.89z" class="K"/><g class="R E"><path d="M70.29,187a2.23,2.23,0,0,0-1,1.75v1.52l31.2-18v-1.52c0-.64-.45-.9-1-.58Z"/></g><g class="R D"><g opacity=".1"><path d="M70.29,187a2.23,2.23,0,0,0-1,1.75v1.52l31.2-18v-1.52c0-.64-.45-.9-1-.58Z"/></g></g><path d="M69.28,190.27l.07,22c0,.64.45.9,1,.58L99.54,196a2.23,2.23,0,0,0,1-1.74l-.06-22Z" class="G"/><g class="E"><path d="M70.91 207.7v.91l8.66-5-.01-.92-8.65 5.01zm-.02-5.69v.92l8.66-5v-.92l-8.66 5zm0-3.91v.93l6.05-3.5v-.93l-6.05 3.5zm6.07 7.91v.91l11.15-6.43v-.91l-11.15 6.43zm.03-3.94v.92l13.92-8.03-.01-.92-13.91 8.03zm-.51-9.63v.91l6.9-3.98v-.92l-6.9 3.99zm.52 3.71v.92l16.99-9.81v-.92L77 196.15zm-.01 4.27v.92l22.29-12.87-.01-.91-22.28 12.86zm-.54-9.63v.92l22.28-12.87v-.92l-22.28 12.87zm-5.59 1.3v.92l8.66-5.01v-.91l-8.66 5z"/></g><g clip-path="url(#k)" class="D"><g class="I"><path d="M70.91 207.7v.91l8.66-5-.01-.92-8.65 5.01zm-.02-5.69v.92l8.66-5v-.92l-8.66 5zm0-3.91v.93l6.05-3.5v-.93l-6.05 3.5zm6.07 7.91v.91l11.15-6.43v-.91l-11.15 6.43zm.03-3.94v.92l13.92-8.03-.01-.92-13.91 8.03zm-.51-9.63v.91l6.9-3.98v-.92l-6.9 3.99zm.52 3.71v.92l16.99-9.81v-.92L77 196.15zm-.01 4.27v.92l22.29-12.87-.01-.91-22.28 12.86zm-.54-9.63v.92l22.28-12.87v-.92l-22.28 12.87zm-5.59 1.3v.92l8.66-5.01v-.91l-8.66 5z"/></g></g><g class="G"><use xlink:href="#Bm"/><path d="M168.67,153.63a.6.6,0,0,0-.21-.52h0a.59.59,0,0,0-.6.07l-17.78,10.26a1.93,1.93,0,0,0-.86,1.48V177.8a.59.59,0,0,0,.24.54.56.56,0,0,0,.62-.05L167.86,168a1.91,1.91,0,0,0,.86-1.49Z"/></g><g clip-path="url(#l)"><g class="F"><use xlink:href="#Bm"/></g></g><g fill="#f5f5f5"><path d="M156.94 164.86v.96l-3.62 3.7 3.63-.48v.97l-4.57.57v-1.02l4.56-4.7zm4.63-5.88l-3.33 12.98-.89.52 3.33-12.99.89-.51zm.33 3.01l4.56-.56.01 1-4.56 4.72v-.98l3.62-3.7-3.63.5v-.98z"/></g><g class="G"><path d="M202.27 83.93l3.78 6.93-2.28-1.32-.02 5.12-3.03-1.75.02-5.12-2.29-1.32 3.82-2.54zm1.5 11.44v1.96l-3.03-1.75v-1.95l3.03 1.74zm0 2.75v.98l-3.03-1.75v-.97l3.03 1.74zm0 1.64v.59l-3.03-1.75v-.59l3.03 1.75z"/></g><g clip-path="url(#m)" class="D"><g class="I"><path d="M202.27 83.93l3.78 6.93-2.28-1.32-.02 5.12-3.03-1.75.02-5.12-2.29-1.32 3.82-2.54zm1.5 11.44v1.96l-3.03-1.75v-1.95l3.03 1.74zm0 2.75v.98l-3.03-1.75v-.97l3.03 1.74zm0 1.64v.59l-3.03-1.75v-.59l3.03 1.75z"/></g></g><path d="M108.06 50.52c3.53-2 6.51-1 7.45 2.13a10.49 10.49 0 0 1 3.82-4.24c2.76-1.6 5-.32 5 2.86v1.45l3.7-2.14c1.91-1.11 3.51-.21 3.52 2a7.72 7.72 0 0 1-3.49 6l-31.38 18.2c-1.91 1.12-3.5.22-3.51-2a7.68 7.68 0 0 1 3.48-6l3.71-2.14v-2.7a17 17 0 0 1 7.71-13.36" fill="#e6e6e6"/><g class="G"><path d="M113.62 76.85l3.79-6.94-2.29 1.32-.02-5.12-3.02 1.75.01 5.12-2.29 1.33 3.82 2.54zm1.5-11.45v-1.96l-3.03 1.75v1.95l3.03-1.74zm0-2.74v-.99l-3.03 1.75v.98l3.03-1.74zm0-1.65v-.59l-3.03 1.76v.58l3.03-1.75z"/></g><g clip-path="url(#n)" class="D"><g class="I"><path d="M113.62 76.85l3.79-6.94-2.29 1.32-.02-5.12-3.02 1.75.01 5.12-2.29 1.33 3.82 2.54zm1.5-11.45v-1.96l-3.03 1.75v1.95l3.03-1.74zm0-2.74v-.99l-3.03 1.75v.98l3.03-1.74zm0-1.65v-.59l-3.03 1.76v.58l3.03-1.75z"/></g></g><g class="H"><path d="M56.12 100.34l-.64.18-.28-.16-.86 2.19 2.83 1.65 1.03-2.65-2.08-1.21zm9.3-16.2l2.13 1.23 1.77-2.22-2.82-1.64-1.51 1.88.28.17.15.58zM57.46 96l-2.83-1.64-1.98 1.76 2.82 1.64L57.46 96z"/><path d="M55.47 97.76l-2.82-1.64v2.75l2.55 1.49.28.16-.01-2.76zm7.41-12.82l-2.84-1.64-.52 2.59 2.83 1.64.53-2.59z"/><path d="M65.27 83.56l-.28-.17-2.54-1.47-2.41 1.38 2.84 1.64 2.39-1.38zm-8.13 8.58l-2.83-1.65 1.04 1.45 2.83 1.65-1.04-1.45zm3.47-2.76l-2.83-1.66-1.78-.16 2.83 1.64 1.78.18z"/><path d="M58.83 89.2L56 87.56l-1.69 2.93 2.83 1.65 1.69-2.94zm11.9 3.12l2-1.76V87.8l-2 .54a4.86 4.86 0 0 0-.73-1.57l.17-.45.86-2.2-1.71-1-1.78 2.22H67a5.73 5.73 0 0 0-1.16.19l-.39-1.4-.15-.58L62.88 85l-.53 2.59-.52.49-.11.11-.29.3-.07.08-.75.86-1.78-.17-1.69 2.93 1 1.45a11.87 11.87 0 0 0-.41 1.36 2.33 2.33 0 0 0-.07.25c0 .16-.08.32-.12.49l-.08.33-2 1.76v2.76l.64-.18 1.35-.37a4.41 4.41 0 0 0 .74 1.58l-1 2.64 1.7 1 1.51-1.91.27-.33a4.71 4.71 0 0 0 1.75-.18l.52 2 2.41-1.38.52-2.59a14.33 14.33 0 0 0 1.7-1.87l1.79.16 1.69-2.94-1-1.44a14.51 14.51 0 0 0 .72-2.41m-3.38.42V93a2.17 2.17 0 0 1 0 .25v.36l-.06.23a.23.23 0 0 1 0 .14 2.58 2.58 0 0 1-.08.26v.11l-.15.35h0c0 .11-.09.21-.15.32v.11l-.16.29v.06l-.21.33a.36.36 0 0 1-.07.1l-.16.24-.09.12-.15.19-.13.15-.13.15-.21.23-.14.14-.12.11-.07.06-.33.27-.1.08-.1.06-.31.2a2.69 2.69 0 0 1-.38.19l-.16.07-.24.08-.14.05h-1l-.18-.06h-.06l-.21-.1h0a2.09 2.09 0 0 1-1-1.66V96a7.31 7.31 0 0 1 3.29-5.73l.44-.22a2 2 0 0 1 2 .07l.11.07.09.09.1.09.08.11.08.11.08.13a.61.61 0 0 1 .05.12.77.77 0 0 1 .07.16.61.61 0 0 1 0 .12c0 .06 0 .12.05.18v1.33"/></g><g clip-path="url(#o)"><g class="C"><path d="M60.65,103l-.27.32,2.54,1.48-.52-2a4.94,4.94,0,0,1-1.75.19"/></g></g><g clip-path="url(#p)"><g class="C"><path d="M70.73,88.34l2-.54-2.55-1.48-.17.45a4.89,4.89,0,0,1,.73,1.57"/></g></g><g clip-path="url(#q)"><g class="C"><path d="M67.35 91.76v-.35a1.16 1.16 0 0 0 0-.18.5.5 0 0 0 0-.13 1.11 1.11 0 0 0-.07-.16.24.24 0 0 0-.06-.11.27.27 0 0 0-.07-.14l-.08-.1-.08-.12-.1-.08a.47.47 0 0 0-.1-.1.21.21 0 0 0-.1-.06 2 2 0 0 0-2-.07 3.53 3.53 0 0 1 0 .46v.71a2 2 0 0 1 0 .26v.35l-.06.23a.21.21 0 0 1 0 .14l-.08.26v.11l-.15.36h0l-.15.32v.09l-.16.3v.07l-.2.33a.36.36 0 0 0-.07.1l-.16.23-.1.13-.14.18-.13.16-.13.15-.22.23-.13.14-.11.1-.19.17-.11.08-.4.18-.1.07a3.28 3.28 0 0 1-.31.2l-.31.15h-.14a2.12 2.12 0 0 0 .86 1.65h0l.21.09h.06l.18.06h1 .14l.24-.08h0L64 98h.08l.3-.16.31-.21.1-.06.1-.08.11-.07.11-.1.11-.1.07-.06.12-.11.14-.14.21-.23.13-.14.13-.16.15-.19.09-.12.16-.24a.86.86 0 0 0 .07-.1h0l.21-.33v-.07l.16-.28h0V95c.06-.1.1-.21.15-.31h0l.14-.36a.2.2 0 0 0 0-.11 1.14 1.14 0 0 0 .09-.26h0v-.7h0a2.21 2.21 0 0 0 .05-.25h0v-1.25"/></g></g><g clip-path="url(#r)"><g class="C"><path d="M56.12 100.34l-.64.18-.28-.16-.86 2.19 2.83 1.65 1.03-2.65-2.08-1.21z"/></g></g><g clip-path="url(#s)"><g class="C"><path d="M57.47,100l-1.35.36,2.09,1.21a4.44,4.44,0,0,1-.74-1.57"/></g></g><g clip-path="url(#t)"><g class="C"><path d="M65.81,85.55A4.61,4.61,0,0,1,67,85.36h.58l-2.12-1.24Z"/></g></g><g clip-path="url(#u)"><g class="C"><path d="M57.54,95.67h0a1.76,1.76,0,0,1,.12-.49h0a2.17,2.17,0,0,1,.07-.24,11.72,11.72,0,0,1,.45-1.34L55.31,92a.19.19,0,0,1-.05.13s0,.13-.07.21l-.13.35v.08L55,92.9a1.56,1.56,0,0,1-.13.4v.11a.28.28,0,0,1,0,.13l-.11.5v.33L57.63,96a1.44,1.44,0,0,1,.08-.33"/></g></g><g clip-path="url(#v)"><g class="C"><path d="M55.47 97.76l-2.82-1.64v2.75l2.55 1.49.28.16-.01-2.76z"/></g></g><g clip-path="url(#w)"><g class="C"><path d="M62.88 84.94l-2.84-1.64-.52 2.59 2.83 1.64.53-2.59z"/></g></g><g clip-path="url(#x)"><g class="C"><path d="M57.14 92.14l-2.83-1.65 1.04 1.45 2.83 1.65-1.04-1.45z"/></g></g><g clip-path="url(#y)"><g class="C"><path d="M60.61 89.38l-2.83-1.66-1.78-.16 2.83 1.64 1.78.18z"/></g></g><g clip-path="url(#z)" class="D"><g class="C"><path d="M65.42 84.14l2.13 1.23 1.77-2.22-2.82-1.64-1.51 1.88.28.17.15.58z"/></g></g><g clip-path="url(#AA)" class="D"><g class="C"><path d="M60.61,89.38a10.5,10.5,0,0,1,.75-.86l.07-.09h0l.29-.3.11-.11.52-.49-2.86-1.64a6,6,0,0,0-.52.49h0l-.24.24-.11.13-.4.43h0l-.42.5Z"/></g></g><g clip-path="url(#AB)" class="D"><g class="C"><path d="M57.46 96l-2.83-1.64-1.98 1.76 2.82 1.64L57.46 96z"/></g></g><g clip-path="url(#AC)" class="D"><g class="C"><path d="M65.27 83.56l-.28-.17-2.54-1.47-2.41 1.38 2.84 1.64 2.39-1.38z"/></g></g><g clip-path="url(#AD)" class="D"><g class="C"><path d="M58.83 89.2L56 87.56l-1.69 2.93 2.83 1.65 1.69-2.94z"/></g></g><g class="H"><path d="M77.35 91.53l-.45.13-.2-.12-.6 1.56 2 1.17.73-1.88-1.48-.86zm6.59-11.46l1.5.87 1.26-1.57-2-1.16-1.07 1.33.2.12.11.41zm-5.63 8.4L76.3 87.3l-1.4 1.25 2 1.16 1.41-1.24z"/><path d="M76.9 89.71l-2-1.16.01 1.94 1.79 1.05.2.12v-1.95zm5.24-9.07l-2.01-1.16-.36 1.84 2 1.15.37-1.83z"/><path d="M83.83 79.66l-.2-.12-1.8-1.04-1.7.98 2.01 1.16 1.69-.98zm-5.75 6.08l-2.01-1.17.75 1.02 1.99 1.17-.73-1.02zm2.45-1.97l-1.99-1.16-1.26-.11 1.99 1.16 1.26.11z"/></g><g clip-path="url(#AE)"><g class="C"><path d="M80.61,93.39l-.18.23,1.79,1-.38-1.41a3.67,3.67,0,0,1-1.23.14"/></g></g><g clip-path="url(#AF)"><g class="C"><path d="M87.69,83.08l1.41-.39-1.81-1-.12.33a3.23,3.23,0,0,1,.52,1.11"/></g></g><g clip-path="url(#AG)"><g class="C"><path d="M85.31 85.47V85v-.11-.08l-.06-.1v-.07l-.06-.09h-.07a.23.23 0 0 0-.07-.07h-.07a1.41 1.41 0 0 0-1.42-.05v.83a.54.54 0 0 1 0 .18.29.29 0 0 1 0 .13v.12.16.1l-.06.19v.08l-.11.25h0a.88.88 0 0 1-.1.22v.08l-.12.21h0l-.14.24v.07l-.11.16a.31.31 0 0 1-.07.09l-.1.14-.09.1-.08.11-.17.16-.09.1-.08.07-.13.12-.08.06-.15.12h-.07l-.22.14-.22.1h-.09a1.48 1.48 0 0 0 .67 1.18h0l.14.07h.86a1.13 1.13 0 0 0 .21-.12l.23-.13.06-.06h.07l.08-.05.08-.07a.23.23 0 0 0 .07-.07h.06l.08-.07a.47.47 0 0 1 .1-.1l.15-.16L84 89l.09-.1h0l.11-.14.06-.09h0l.12-.16a.18.18 0 0 1 0-.07l.14-.24h0l.11-.2h0a.06.06 0 0 0 0-.06l.11-.22h0a2.72 2.72 0 0 0 .11-.25v-.08a.82.82 0 0 1 .06-.19v-.26a.24.24 0 0 0 0-.12v-.32h0v-.24a1.13 1.13 0 0 0 0-.26 1.13 1.13 0 0 0 0-.26v-.09"/></g></g><g clip-path="url(#AH)"><g class="C"><path d="M77.35 91.53l-.45.13-.2-.12-.6 1.56 2 1.17.73-1.88-1.48-.86z"/></g></g><g clip-path="url(#AI)"><g class="C"><path d="M78.32,91.28l-1,.25,1.48.86a3,3,0,0,1-.51-1.11"/></g></g><g clip-path="url(#AJ)"><g class="C"><path d="M84.21,81.07a3.35,3.35,0,0,1,.83-.14h.4l-1.5-.87Z"/></g></g><g clip-path="url(#AK)"><g class="C"><path d="M78.36 88.23h0l.08-.34h0v-.19l.33-1-2-1.16v.09a.88.88 0 0 0-.05.15 1.25 1.25 0 0 0-.09.25.06.06 0 0 0 0 .06.24.24 0 0 0 0 .12l-.09.29v.17l-.09.34v.24l2 1.17a2 2 0 0 0 0-.24"/></g></g><g clip-path="url(#AL)"><g class="C"><path d="M76.9 89.71l-2-1.16.01 1.94 1.79 1.05.2.12v-1.95z"/></g></g><g clip-path="url(#AM)"><g class="C"><path d="M82.14 80.64l-2.01-1.16-.36 1.84 2 1.15.37-1.83z"/></g></g><g clip-path="url(#AN)"><g class="C"><path d="M78.08 85.74l-2.01-1.17.75 1.02 1.99 1.17-.73-1.02z"/></g></g><g clip-path="url(#AO)"><g class="C"><path d="M80.53 83.77l-1.99-1.16-1.26-.11 1.99 1.16 1.26.11z"/></g></g><path d="M79.27 83.66l-1.99-1.16-1.21 2.07 2.01 1.17 1.19-2.08z" class="H"/><g clip-path="url(#AP)" class="D"><g class="C"><path d="M83.94 80.07l1.5.87 1.26-1.57-2-1.16-1.07 1.33.2.12.11.41z"/></g></g><g clip-path="url(#AQ)" class="D"><g class="C"><path d="M80.53 83.77l.53-.6.06-.06.2-.21.08-.08.36-.35-2-1.15-.37.33h0l-.18.16-.08.1c-.1.09-.18.2-.28.3h0l-.29.37z"/></g></g><g clip-path="url(#AR)" class="D"><g class="C"><path d="M78.31 88.47L76.3 87.3l-1.4 1.25 2 1.16 1.41-1.24z"/></g></g><g clip-path="url(#AS)" class="D"><g class="C"><path d="M83.83 79.66l-.2-.12-1.8-1.04-1.7.98 2.01 1.16 1.69-.98z"/></g></g><g clip-path="url(#AT)" class="D"><g class="C"><path d="M79.27 83.66l-1.99-1.16-1.21 2.07 2.01 1.17 1.19-2.08z"/></g></g><g class="H"><path d="M230 139.6l.41.11.18-.1.54 1.39-1.79 1.04-.65-1.67 1.31-.77zm-5.88-10.23l-1.34.77-1.11-1.4 1.78-1.04.96 1.19-.18.11-.11.37zm5.04 7.49l1.78-1.04 1.26 1.11-1.79 1.04-1.25-1.11z"/><path d="M230.41 137.97l1.79-1.04-.01 1.74-1.6.94-.18.1v-1.74zm-4.67-8.09l1.78-1.04.34 1.64-1.79 1.03-.33-1.63z"/><path d="M224.23 129l.18-.11 1.6-.92 1.51.87-1.78 1.04-1.51-.88zm5.14 5.42l1.78-1.04-.66.92-1.78 1.04.66-.92zm-2.2-1.75l1.78-1.04 1.13-.1-1.79 1.04-1.12.1z"/><path d="M228.29 132.57l1.79-1.04 1.07 1.85-1.78 1.04-1.08-1.85z"/><path d="M221.23 136.05l-.66 1 1.07 1.85 1.13-.1a8 8 0 0 0 1.09 1.16l.33 1.64 1.52.87.33-1.26a2.94 2.94 0 0 0 1.1.12l.17.21 1 1.19 1.07-.62-.65-1.66a3 3 0 0 0 .46-1l.85.23.41.11V138l-1.26-1.1v-.22a.43.43 0 0 0-.08-.3c-.08-.11 0-.11 0-.15l-.29-.85.66-1-1.07-1.85-1.13.1-.46-.54-.05-.06-.18-.18-.08-.08-.32-.3-.39-1.63-1.5-.88-.11.37-.24.88a3 3 0 0 0-.73-.12h-.37l-1.12-1.4-1.07.61.54 1.4.11.28a2.84 2.84 0 0 0-.46 1l-1.26-.35v1.74l1.25 1.12a9.16 9.16 0 0 0 .46 1.52m1.65-1.56a1 1 0 0 1 0-.24.09.09 0 0 1 0-.07.38.38 0 0 1 0-.15v-.6l.06-.07h.05l.06-.06h.07a1.29 1.29 0 0 1 1.26 0l.28.13a4.58 4.58 0 0 1 2.08 3.59v.29a1.34 1.34 0 0 1-.59 1.05h0l-.13.07h-.93l-.1-.05-.24-.12-.19-.12-.07-.05h-.05a1.2 1.2 0 0 1-.21-.17h0l-.08-.07-.08-.08-.14-.15-.08-.09-.08-.11-.1-.11-.05-.08-.11-.15v-.06l-.13-.22h0a.77.77 0 0 1-.1-.18v-.06l-.09-.21h0l-.1-.22V136l-.06-.16v-1.07"/></g><g clip-path="url(#AU)"><g class="C"><path d="M227.14,141.25l.17.21-1.6.95.33-1.26a2.94,2.94,0,0,0,1.1.12"/></g></g><g clip-path="url(#AV)"><g class="C"><path d="M220.78,132l-1.26-.34,1.61-1,.11.28a2.84,2.84,0,0,0-.46,1"/></g></g><g clip-path="url(#AW)"><g class="C"><path d="M222.9 134.18v-.74l.06-.07v-.06l.06-.05h.07a1.29 1.29 0 0 1 1.26 0 1.31 1.31 0 0 0 0 .28.88.88 0 0 0 0 .23v.84l.06.17v.07l.09.23h0l.1.2v.06c0 .07.06.12.09.19h0l.14.21v.06l.1.15.06.08.09.12.09.1.08.08.13.15.09.09.07.07.12.1.07.06.13.1h.14l.21.12.18.09h0a1.31 1.31 0 0 1-.59 1.06h0l-.12.06h0a.24.24 0 0 1-.12 0h-.81-.1 0l-.19-.09-.2-.13h-.06-.06l-.08-.06-.06-.06-.07-.06h0l-.07-.06-.09-.09-.13-.15-.09-.09-.08-.1h0l-.09-.12h0l-.06-.07-.1-.16v-.05l-.14-.22h0a.76.76 0 0 1-.09-.18v-.07l-.1-.2h0l-.09-.23v-.08l-.06-.16h0v-1.07a1 1 0 0 1 0-.24.09.09 0 0 1 0-.07"/></g></g><g clip-path="url(#AX)"><g class="C"><path d="M230 139.6l.41.11.18-.1.54 1.39-1.79 1.04-.65-1.67 1.31-.77z"/></g></g><g clip-path="url(#AY)"><g class="C"><path d="M229.15,139.37l.85.23-1.31.77a3,3,0,0,0,.46-1"/></g></g><g clip-path="url(#AZ)"><g class="C"><path d="M223.85,130.25a3.59,3.59,0,0,0-.73-.12h-.36l1.33-.77Z"/></g></g><g clip-path="url(#Aa)"><g class="C"><path d="M229.11 136.65h0a.45.45 0 0 0-.08-.31h0v-.15l-.29-.85 1.79-1v.21a1.55 1.55 0 0 1 .08.23h0a.17.17 0 0 0 0 .1.84.84 0 0 0 .07.26v.07.08l.08.32v.21l-1.79 1a.81.81 0 0 0 0-.22"/></g></g><g clip-path="url(#Ab)"><g class="C"><path d="M230.41 137.97l1.79-1.04-.01 1.74-1.6.94-.18.1v-1.74z"/></g></g><g clip-path="url(#Ac)"><g class="C"><path d="M225.74 129.88l1.78-1.04.34 1.64-1.79 1.03-.33-1.63z"/></g></g><g clip-path="url(#Ad)"><g class="C"><path d="M229.37 134.42l1.78-1.04-.66.92-1.78 1.04.66-.92z"/></g></g><g clip-path="url(#Ae)"><g class="C"><path d="M227.17 132.67l1.78-1.04 1.13-.1-1.79 1.04-1.12.1z"/></g></g><g clip-path="url(#Af)" class="D"><g class="C"><path d="M224.12 129.37l-1.34.77-1.11-1.4 1.78-1.04.96 1.19-.18.11-.11.37z"/></g></g><g clip-path="url(#Ag)" class="D"><g class="C"><path d="M227.17 132.67l-.47-.54v-.06a1.53 1.53 0 0 1-.18-.18l-.08-.08-.32-.3 1.79-1 .32.3h0l.15.16.08.08.25.27h0l.27.31z"/></g></g><g clip-path="url(#Ah)" class="D"><g class="C"><path d="M229.16 136.86l1.78-1.04 1.26 1.11-1.79 1.04-1.25-1.11z"/></g></g><g clip-path="url(#Ai)" class="D"><g class="C"><path d="M224.23 129l.18-.11 1.6-.92 1.51.87-1.78 1.04-1.51-.88z"/></g></g><g clip-path="url(#Aj)" class="D"><g class="C"><path d="M228.29 132.57l1.79-1.04 1.07 1.85-1.78 1.04-1.08-1.85z"/></g></g><g class="H"><path d="M236.78 151.9l.28.08.13-.07.38.96-1.24.72-.45-1.16.9-.53zm-4.06-7.08l-.93.54-.77-.97 1.23-.72.67.83-.14.06-.06.26zm3.48 5.19l1.23-.72.87.77-1.23.71-.87-.76z"/><path d="M237.07 150.77l1.23-.71v1.2l-1.11.65-.13.06.01-1.2zm-3.24-5.59l1.25-.72.23 1.13-1.25.71-.23-1.12z"/><path d="M232.78 144.56l.14-.06 1.11-.65 1.05.61-1.25.72-1.05-.62zm3.57 3.76l1.23-.72-.46.63-1.23.72.46-.63zm-1.52-1.22l1.23-.71.78-.07-1.24.72-.77.06z"/><path d="M235.6 147.04l1.24-.72.74 1.28-1.23.72-.75-1.28z"/><path d="M230.71 149.45l-.45.63.74 1.28.78-.06a6.37 6.37 0 0 0 .76.8l.22 1.13 1.05.61.19-.84a2.22 2.22 0 0 0 .77.07l.11.15.66.82.75-.42-.45-1.16a1.88 1.88 0 0 0 .31-.69l.59.17.28.06v-1.2l-.87-.76a.38.38 0 0 0 0-.15.81.81 0 0 0 0-.22v-.1a4 4 0 0 0-.2-.58l.46-.64-.85-1.25-.77.07-.33-.38h0l-.12-.12h0l-.23-.22-.23-1.13-1.05-.6-.07.25-.16.61a2.26 2.26 0 0 0-.51-.08h-.25l-.77-.95-.75.42.37.95.08.19a2 2 0 0 0-.32.7l-.87-.24v1.2l.87.77a8.06 8.06 0 0 0 .32 1.06m1.15-1.08V148h0 0 0a0 0 0 0 1 0 0v-.05h0a.85.85 0 0 1 .87 0l.2.08a3.18 3.18 0 0 1 1.43 2.5.6.6 0 0 1 0 .19.87.87 0 0 1-.41.72h0-.08-.74l-.16-.07-.14-.09h0l-.14-.12h0l-.07-.06-.09-.1-.06-.06-.05-.07-.07-.09h0l-.07-.1h0l-.09-.15h0l-.06-.13h0a.46.46 0 0 1-.07-.14h0a1.11 1.11 0 0 1-.12-.26v-.05a.2.2 0 0 0 0-.11v-.74"/></g><g clip-path="url(#Ak)"><g class="C"><path d="M234.81 153l.11.15-1.11.65.19-.8a2.22 2.22 0 0 0 .77.07"/></g></g><g clip-path="url(#Al)"><g class="C"><path d="M230.41,146.66l-.87-.23,1.1-.65.08.19a2,2,0,0,0-.31.69"/></g></g><g clip-path="url(#Am)"><g class="C"><path d="M231.88 148.15v-.23h0v-.08h0a.06.06 0 0 1 0-.06v-.05h0a.9.9 0 0 1 .87 0v.51a.2.2 0 0 1 0 .11v.48l.06.16h0l.07.15v.05l.07.12h0a.71.71 0 0 0 .1.14v.05l.08.1v.05l.06.09.06.07.06.06.09.1.06.07h0l.09.07h0l.08.07h0a.42.42 0 0 0 .14.09l.13.07h.1a.92.92 0 0 1-.41.73h0-.09-.74l-.12-.06-.14-.09h-.15l-.06-.07-.1-.09-.06-.07v-.06l-.07-.09h0v-.05l-.08-.1h0l-.08-.16h0l-.07-.12v-.05a.54.54 0 0 1-.07-.13h0a1 1 0 0 1-.06-.16v-.22a.21.21 0 0 1 0-.11h0a.08.08 0 0 1 0-.07v-.2a.14.14 0 0 1 0-.09.06.06 0 0 1 0-.06v-.37"/></g></g><g clip-path="url(#An)"><g class="C"><path d="M236.78 151.9l.28.08.13-.07.38.96-1.24.72-.45-1.16.9-.53z"/></g></g><g clip-path="url(#Ao)"><g class="C"><path d="M236.19,151.74l.59.17-.9.52a1.88,1.88,0,0,0,.31-.69"/></g></g><g clip-path="url(#Ap)"><g class="C"><path d="M232.55,145.43a2.16,2.16,0,0,0-.51-.07h-.25l1-.54Z"/></g></g><g clip-path="url(#Aq)"><g class="C"><path d="M236.16,149.86h0a.81.81,0,0,0,0-.22v-.1h0a4.56,4.56,0,0,0-.2-.59l1.24-.72v.14l.05.17h0v.07a.24.24,0,0,0,.05.18h0v.06l.06.21v.15l-1.23.72v-.14"/></g></g><g clip-path="url(#Ar)"><g class="C"><path d="M237.07 150.77l1.23-.71v1.2l-1.11.65-.13.06.01-1.2z"/></g></g><g clip-path="url(#As)"><g class="C"><path d="M233.83 145.18l1.25-.72.23 1.13-1.25.71-.23-1.12z"/></g></g><g clip-path="url(#At)"><g class="C"><path d="M236.35 148.32l1.23-.72-.46.63-1.23.72.46-.63z"/></g></g><g clip-path="url(#Au)"><g class="C"><path d="M234.83 147.1l1.23-.71.78-.07-1.24.72-.77.06z"/></g></g><g clip-path="url(#Av)" class="D"><g class="C"><path d="M232.72 144.82l-.93.54-.77-.97 1.23-.72.67.83-.14.06-.06.26z"/></g></g><g clip-path="url(#Aw)" class="D"><g class="C"><path d="M234.83 147.11l-.33-.38h0l-.12-.12h0l-.23-.22 1.24-.72.22.21h0l.11.11h.05l.18.19h0l.18.22z"/></g></g><g clip-path="url(#Ax)" class="D"><g class="C"><path d="M236.2 150.01l1.23-.72.87.77-1.23.71-.87-.76z"/></g></g><g clip-path="url(#Ay)" class="D"><g class="C"><path d="M232.78 144.56l.14-.06 1.11-.65 1.05.61-1.25.72-1.05-.62z"/></g></g><g clip-path="url(#Az)" class="D"><g class="C"><path d="M235.6 147.04l1.24-.72.74 1.28-1.23.72-.75-1.28z"/></g></g><g class="H"><path d="M226.15 150.53l.23.06.1-.06.32.8-1.04.6-.37-.96.76-.44zm-3.37-5.88l-.78.45-.64-.81 1.02-.6.56.69-.11.06-.05.21zm2.89 4.31l1.02-.61.73.65-1.04.6-.71-.64z"/><path d="M226.38 149.6l1.04-.6-.01 1-.93.53-.1.06v-.99zm-2.68-4.66l1.02-.6.19.94-1.02.6-.19-.94z"/><path d="M222.83 144.44l.11-.06.91-.54.87.5-1.02.6-.87-.5zm2.95 3.11l1.03-.6-.38.54-1.03.59.38-.53zm-1.26-1l1.02-.6.65-.06-1.03.6-.64.06z"/><path d="M225.16 146.49l1.03-.6.62 1.06-1.03.6-.62-1.06z"/><path d="M221.1 148.5l-.37.52.61 1.06.66-.08a4.92 4.92 0 0 0 .63.66l.19 1 .87.51.19-.73a1.7 1.7 0 0 0 .63.07l.1.12.55.68.62-.35-.38-1a1.76 1.76 0 0 0 .27-.57l.49.13.24.06v-1l-.73-.64v-.39a3.86 3.86 0 0 0-.16-.48l.38-.53-.62-1.06-.64.06-.27-.32h0l-.1-.1v-.05l-.19-.17-.19-1-.87-.5-.05.21-.15.5a1.85 1.85 0 0 0-.42-.06h-.21l-.64-.82-.62.36.31.8.07.16a2.12 2.12 0 0 0-.27.57l-.72-.2v1l.73.64a4.66 4.66 0 0 0 .26.88m1-.9v-.14h0v-.2h0v-.07h0a.73.73 0 0 1 .73 0l.16.08a2.59 2.59 0 0 1 1.18 2.06.43.43 0 0 1 0 .16.69.69 0 0 1-.34.6h-.67l-.13-.06-.12-.08h0l-.11-.11h0-.06l-.08-.08v-.06-.17l-.06-.08h0l-.08-.13h0a.37.37 0 0 1-.05-.11h0l-.06-.12h0a.69.69 0 0 1 0-.13h0v-.1h0v-.56"/></g><g clip-path="url(#BA)"><g class="C"><path d="M224.5,151.48l.1.12-1,.54.2-.73a1.65,1.65,0,0,0,.63.07"/></g></g><g clip-path="url(#BB)"><g class="C"><path d="M220.85,146.18l-.72-.2,1-.54.06.16a2,2,0,0,0-.27.58"/></g></g><g clip-path="url(#BC)"><g class="C"><path d="M222.07 147.42v-.2h0a.06.06 0 0 1 0-.06h0 0a.77.77 0 0 1 .72 0v.84h0l.06.13h0l.06.11h0l.06.11h0l.07.12h0l.06.09h0l.06.07v.11l.07.08h0l.08.06h0l.08.06h0l.11.06.12.06h0a.7.7 0 0 1-.34.6h-.67l-.1-.06-.12-.07h0l-.06-.06-.07-.08h-.05v-.17h0l-.06-.09h0l-.07-.13h0a.41.41 0 0 1-.07-.11h0l-.06-.11h0l-.05-.14h0v-.09h0v-.31h0v-.4"/></g></g><g clip-path="url(#BD)"><g class="C"><path d="M226.15 150.53l.23.06.1-.06.32.8-1.04.6-.37-.96.76-.44z"/></g></g><g clip-path="url(#BE)"><g class="C"><path d="M225.66,150.4l.49.13-.76.44a1.57,1.57,0,0,0,.27-.57"/></g></g><g clip-path="url(#BF)"><g class="C"><path d="M222.63,145.16a2,2,0,0,0-.42-.07H222l.78-.45Z"/></g></g><g clip-path="url(#BG)"><g class="C"><path d="M225.64,148.83h0v-.17h0v-.09a3,3,0,0,0-.16-.48l1-.59h0v.21h0v.21h0v.29l-1,.6v-.12"/></g></g><g clip-path="url(#BH)"><g class="C"><path d="M226.38 149.6l1.04-.6-.01 1-.93.53-.1.06v-.99z"/></g></g><g clip-path="url(#BI)"><g class="C"><path d="M223.7 144.94l1.02-.6.19.94-1.02.6-.19-.94z"/></g></g><g clip-path="url(#BJ)"><g class="C"><path d="M225.78 147.55l1.03-.6-.38.54-1.03.59.38-.53z"/></g></g><g clip-path="url(#BK)"><g class="C"><path d="M224.52 146.55l1.02-.6.65-.06-1.03.6-.64.06z"/></g></g><g clip-path="url(#BL)" class="D"><g class="C"><path d="M222.78 144.65l-.78.45-.64-.81 1.02-.6.56.69-.11.06-.05.21z"/></g></g><g clip-path="url(#BM)" class="D"><g class="C"><path d="M224.52,146.55c-.08-.11-.18-.21-.26-.32h0a.52.52,0,0,1-.11-.1v0l-.18-.17,1-.59a1.54,1.54,0,0,1,.19.17h0l.08.09h.05l.14.16h0c.06.06.1.12.15.18Z"/></g></g><g clip-path="url(#BN)" class="D"><g class="C"><path d="M225.67 148.96l1.02-.61.73.65-1.04.6-.71-.64z"/></g></g><g clip-path="url(#BO)" class="D"><g class="C"><path d="M222.83 144.44l.11-.06.91-.54.87.5-1.02.6-.87-.5z"/></g></g><g clip-path="url(#BP)" class="D"><g class="C"><path d="M225.16 146.49l1.03-.6.62 1.06-1.03.6-.62-1.06z"/></g></g><use xlink:href="#Bn" class="G"/><g clip-path="url(#BQ)" class="D"><g class="F"><use xlink:href="#Bn"/></g></g><g clip-path="url(#BR)"><g opacity=".1"><path d="M193.3,197.68v-.15a8,8,0,0,1,6.47-6.69,25,25,0,0,0,8.29-3.18c1.81-1.09,3.52-2.43,5.56-3a9,9,0,0,1,6,.35,7,7,0,0,0-7-1.77,23.05,23.05,0,0,0,3.6-8.06,10.93,10.93,0,0,0-1.59-8.49,8.54,8.54,0,0,0-13.18-.71c-1.74,1.91-2.72,4.58-3.82,6.89a15.52,15.52,0,0,1-3,4.61c-2,1.91-5,2.6-7.08,4.42-2.4,2.07-3.43,5.38-3.44,8.54a24.9,24.9,0,0,0,1,6.31,23.8,23.8,0,0,0,8.67,5.3,9.27,9.27,0,0,1-.42-4.34"/></g></g><path d="M226,177.21a21.68,21.68,0,0,0-18.55-21.07,14.46,14.46,0,0,0-2.09.34,21.19,21.19,0,0,1,20,20.74c.13,6.93-3.26,14-9.06,18.88a34,34,0,0,1-17.22,7.31l.43.06c.6.06,1.19.11,1.79.15a33.86,33.86,0,0,0,15.4-7.07c5.94-5,9.4-12.23,9.26-19.33" class="D"/><path d="M185.53,195.37a20,20,0,0,1,.36,3.45l.83-.3A2.15,2.15,0,0,1,189,199h0a.82.82,0,0,0,1.13,0,.8.8,0,0,0,.29-.59l.11-3.49Z" class="L"/><path d="M188.69,208.34c-1.7,1.82-4.83,3.41-7.1,1.91l.25.57c2.28,1.56,5.41,0,7.11-1.85s.59-3.09,2.12-4.7a5.54,5.54,0,0,0,1.33-2,5.81,5.81,0,0,1-.21-.66,7.13,7.13,0,0,1-1.37,2.06c-1.54,1.61-.43,2.86-2.13,4.68" class="M"/><path d="M191.39,199.69a3.13,3.13,0,0,1-.54-1.24.7.7,0,0,0-.33-.5v.59a.86.86,0,0,1-1.43.59h0a2.15,2.15,0,0,0-2.28-.52l-.83.32a.62.62,0,0,0-.41.61,14.53,14.53,0,0,1-2.23,7.3c-1.21.49-2.24,2.13-1.71,3.33l.05.12c2.28,1.55,5.41,0,7.11-1.91s.59-3.07,2.13-4.68a7.1,7.1,0,0,0,1.36-2.06,7.56,7.56,0,0,0-.84-1.91" class="K"/><path d="M182,202.31a21.11,21.11,0,0,1-1,3.3h.87a2.14,2.14,0,0,1,1.91,1.4v.06a.8.8,0,0,0,1,.5.82.82,0,0,0,.5-.43l1.51-3.15Z" class="L"/><path d="M179.61,215.45c-2.28,1-5.8,1.17-7.25-1.17v.59c1.45,2.34,5,2.15,7.25,1.17s1.8-2.58,3.82-3.43a5.72,5.72,0,0,0,2-1.27,3,3,0,0,1,.06-.69,7.17,7.17,0,0,1-2,1.35c-2.05.86-1.56,2.46-3.82,3.44" class="M"/><path d="M185.53,208.61a3.41,3.41,0,0,1,0-1.35.68.68,0,0,0-.1-.59l-.25.52a.82.82,0,0,1-.5.43.81.81,0,0,1-1-.51v-.05a2.14,2.14,0,0,0-1.91-1.4h-.89a.66.66,0,0,0-.62.39,14.45,14.45,0,0,1-5,5.73c-1.3,0-2.92,1.05-2.92,2.36v.14c1.46,2.34,5,2.14,7.26,1.17s1.79-2.58,3.82-3.44a7,7,0,0,0,2.07-1.32,7.25,7.25,0,0,0,0-2.08" class="K"/><path d="M195.41,172.52,184,178.9a5.74,5.74,0,0,0-2.87,6l2.23,12-1.83,5.79c1.58,2.11,5.2,2.22,5.2,2.22,2-4,3.49-5.73,4.64-9.15l1.91-5.73,9.55-2.61a11.28,11.28,0,0,0,8.25-9.55c.16-1.44.17-2.41.17-2.41Z" class="G"/><g clip-path="url(#BS)"><g class="C"><path d="M195.49 175.71a5.46 5.46 0 0 0 1.29 3.5l-8.1 5.1a5.71 5.71 0 0 0-2.47 3.23l-2.87 9.36 2.59-10.43a4.81 4.81 0 0 1 2.1-2.87l7.47-4.6a3.88 3.88 0 0 1 0-3.23"/></g></g><path d="M186.85 160.13l-1.6 1.56c-1.66-2.11-3.82-3.53-5.8-6.48-.56-.71-.5-2.12-.88-2.86l-1-1.91a.32.32 0 0 0-.42-.16h0c-.55.39-.27 1.35 0 2.36.33 1.18-1.44-.42-1.68-.69-1.13-1.05-2.09-3.62-2.87-3.36s-.16 1.54-.16 1.54c-.7.14-.44 1.27-.44 1.27a2.66 2.66 0 0 0 .57 2.93 14.58 14.58 0 0 0 3.18 2.34 2.9 2.9 0 0 1 .95.86l5.5 8.19a3.36 3.36 0 0 0 4.66.89l.12-.08 3-2.25z" class="L"/><use xlink:href="#Bo" class="E"/><g clip-path="url(#BT)"><g class="I"><use xlink:href="#Bo"/></g></g><g class="E"><use xlink:href="#Bp"/><use xlink:href="#Bp"/></g><g clip-path="url(#BU)"><g class="F"><use xlink:href="#Bp"/></g></g><path d="M205.92 144.92a1.48 1.48 0 0 0-.71-.75.65.65 0 0 0-.21-.07 1.3 1.3 0 0 0-1.18.39 2.3 2.3 0 0 0-.57 1.13q-.1.65-.15 1.29a16 16 0 0 1-.35 2.27 2.88 2.88 0 0 1-1.46 1.91h-.06a8.88 8.88 0 0 1-3.42.95v1.3c-.95 1.28-1.21 3.73 1.28 3s4.11-2.4 4.11-4V150l.05-1.91a1.39 1.39 0 0 0 .9.48 1.29 1.29 0 0 0 .48 0 1.79 1.79 0 0 0 1.06-1 3.16 3.16 0 0 0 .34-1.38 2.64 2.64 0 0 0-.17-1.25" class="L"/><path d="M205.11,140.38a3.06,3.06,0,0,0-1.91-1l-10.22.95a4.7,4.7,0,0,0-.24,4.15c-.15,3.82-.28,6.24,1.39,7a7.78,7.78,0,0,0,3.73.52,8.88,8.88,0,0,0,3.42-1h.06a2.9,2.9,0,0,0,1.47-1.91,17.11,17.11,0,0,0,.34-2.26,10.89,10.89,0,0,1,.14-1.28,2.26,2.26,0,0,1,.58-1.14,1.3,1.3,0,0,1,1.18-.39.86.86,0,0,1,.21.07c.29-1.69.37-3.16-.1-3.75" class="K"/><path d="M201.37,140.71a3.56,3.56,0,0,0,.13,2.14,14,14,0,0,1,.65,2.09,3.34,3.34,0,0,1-.26,2.13,2.42,2.42,0,0,1-1.63,1.29c-1.09.24-2.17-.4-3.27-.62a4.63,4.63,0,0,0-3.07.55.53.53,0,0,1-.73-.17.73.73,0,0,1-.08-.25,36.49,36.49,0,0,1,.2-7.24Z" class="L"/><path d="M193.46,138.73l-1.27-.89a2.69,2.69,0,0,0,.48,2.5,4.07,4.07,0,0,0,2.25,1.32,8.29,8.29,0,0,0,2.63.12,19.15,19.15,0,0,0,3.82-.69,3,3,0,0,0,1.49-.79,2,2,0,0,0,.08-2.33,3,3,0,0,0-2.1-1.21,8,8,0,0,0-2.53.2,7.65,7.65,0,0,1-2.52.18,2.66,2.66,0,0,1-2-1.35,4.44,4.44,0,0,0-.26,2.94" class="K"/><g fill="#f28f8f"><path d="M196.67 144.6l-1.87 2.25 1.71.61.16-2.86zm1.4 3.98l-1.44.44a.87.87 0 0 0 1 .45.8.8 0 0 0 .47-.89"/></g><g clip-path="url(#BV)"><g class="F"><path d="M198.07,148.58l-1.44.44a.87.87,0,0,0,1,.45.8.8,0,0,0,.47-.89"/></g></g><path d="M197.12,149.44a.72.72,0,0,0,.46,0,.7.7,0,0,0,.47-.65.88.88,0,0,0-.55.1.86.86,0,0,0-.38.52" fill="#f28f8f"/><g clip-path="url(#BW)"><g class="C"><path d="M201.89,151.05a3.41,3.41,0,0,0,.59-1.23,2.87,2.87,0,0,1-1.23,1.28h-.06a8.83,8.83,0,0,1-3.42,1v.87a8.64,8.64,0,0,0,2-.42,4.54,4.54,0,0,0,2.09-1.43"/></g></g><use xlink:href="#Bq" class="H"/><g clip-path="url(#BX)"><g class="C"><use xlink:href="#Bq"/></g></g><g class="H"><path d="M178.86 177.56v.13l.07.08h0a.91.91 0 0 0 .16.11l13.84 8 .18.08h0 .18 1.06l.23-.11L203 181l.15-.1h0l.11-.12h0a.22.22 0 0 0 0-.12h0a.38.38 0 0 0 0-.15.58.58 0 0 0-.35-.47l-13.84-8a1.89 1.89 0 0 0-1.73 0l-8.34 4.9a.6.6 0 0 0-.35.5.11.11 0 0 0 0 .08.06.06 0 0 0 0 .06"/><path d="M180,177.42l13.45,7.77h.85l4.32-2.52-13.88-8Z"/></g><path d="M193.92,185.26Z" class="M"/><use xlink:href="#Br" class="H"/><g clip-path="url(#BY)"><g opacity=".4"><path d="M180,177.42l13.45,7.77h.85l4.32-2.52-13.88-8Z"/></g></g><g clip-path="url(#BZ)"><g opacity=".4"><use xlink:href="#Br"/></g></g><use xlink:href="#Bs" class="H"/><g clip-path="url(#Ba)"><g class="F"><use xlink:href="#Bs"/></g></g><path d="M191.28,175.25l-13.93-8.13a.43.43,0,0,0-.58.14.42.42,0,0,0-.05.29l1.43,9.11a1.67,1.67,0,0,0,.82,1.19L192.9,186a.42.42,0,0,0,.58-.15.36.36,0,0,0,.05-.27l-1.43-9.12a1.67,1.67,0,0,0-.82-1.19" class="H"/><path d="M184.53,175.49a3.06,3.06,0,0,1,1.38,2c.09.71-.38,1-1,.58a3,3,0,0,1-1.38-2c-.1-.71.38-1,1.05-.58" class="D"/><path d="M207.83 165.21l1.26 4.31-7.64 5.48-2.59 1.09a4.16 4.16 0 0 0-1.72 1.36L195 180.3c-.24.5.86 1.29 1.39 1.42a1.9 1.9 0 0 0 1.75-.44l1.63-1.49.45-.15a6.91 6.91 0 0 0 3.26-2.45l9-3.51a3.45 3.45 0 0 0 2.08-4.11l-1.43-5.57z" class="L"/><use xlink:href="#Bt" class="E"/><g clip-path="url(#Bb)"><g class="I"><use xlink:href="#Bt"/></g></g><path d="M177.06,170.81Z" class="G"/><path d="M120.1,226.85a2.9,2.9,0,0,1-2,1.23,9,9,0,0,1-2.79-.19,18.58,18.58,0,0,0-4.15-.1,22.37,22.37,0,0,1-2.58.18,4,4,0,0,1-2.42-.76,2.46,2.46,0,0,1-1-1.55,2.3,2.3,0,0,0,1,2.08,4,4,0,0,0,2.42.77,18.65,18.65,0,0,0,2.58-.18,18.58,18.58,0,0,1,4.15.11,9.9,9.9,0,0,0,2.87.24,2.87,2.87,0,0,0,2-1.23Z" class="M"/><path d="M119.29,222.51a1,1,0,0,0-.4-.63l-4.19-.11A3.54,3.54,0,0,1,113,223c-.76.79-.55,2.15-1.33,2.15-.53,0-.34-1,.35-1.91-.25,0-.49.06-.74.07-.73.78-.44,1.91-1.22,1.91-.52,0-.34-.95.33-1.91h-1.13c-1.54,1.21-1.67,2.54-1.47,4.61a4.26,4.26,0,0,0,.8.08,22.37,22.37,0,0,0,2.58-.18,18.58,18.58,0,0,1,4.15.1,9,9,0,0,0,2.79.19,2.9,2.9,0,0,0,2-1.23Z" class="G"/><path d="M109.26,223.28a6.66,6.66,0,0,0-2.09,0,2.47,2.47,0,0,0-1.91,1.63,1.58,1.58,0,0,0,0,.75,2.49,2.49,0,0,0,.95,1.55,3.62,3.62,0,0,0,1.63.68c-.21-2.07-.07-3.4,1.47-4.61" class="D"/><path d="M114.59,220.6v2a.83.83,0,0,0,.83.83h2.11a1.35,1.35,0,0,0,1.35-1.31l.05-1.53Z" class="N"/><path d="M128.54,219.7a1.56,1.56,0,0,1-1.27.89,2.68,2.68,0,0,1-1.61-.39,6.39,6.39,0,0,1-1.5-1.85,11.79,11.79,0,0,0-1.75-1.71,5.61,5.61,0,0,1-1.68-1.91,2.13,2.13,0,0,1-.19-.71,2.45,2.45,0,0,0,.19,1.36,5.61,5.61,0,0,0,1.68,1.91,11.32,11.32,0,0,1,1.75,1.71,6.35,6.35,0,0,0,1.5,1.84,2.69,2.69,0,0,0,1.61.4,1.57,1.57,0,0,0,1.27-.89,3.89,3.89,0,0,0,.08-1.13,1.5,1.5,0,0,1-.08.47" class="M"/><g class="D"><path d="M123.78 215.27a.55.55 0 0 0-.1.35.36.36 0 0 0 .23.26.49.49 0 0 0 .47-.12 2.6 2.6 0 0 0 .33-.4 2.52 2.52 0 0 1 1.07-.78 2.9 2.9 0 0 1 .65-.14l-.53-.48a2.61 2.61 0 0 0-1 .24 2.69 2.69 0 0 0-1.17 1.07m.17-1.66a2.73 2.73 0 0 0-1.18 1.08.52.52 0 0 0-.09.34.34.34 0 0 0 .23.26.49.49 0 0 0 .46-.12 3.09 3.09 0 0 0 .33-.39 2.49 2.49 0 0 1 1.08-.78 2.55 2.55 0 0 1 1.06-.14l-.53-.48a2.57 2.57 0 0 0-1.36.23m1.04-.53a5.76 5.76 0 0 0-1.64-1.08 2.22 2.22 0 0 0-2.27.32 1.94 1.94 0 0 0-.49 1.69 2.26 2.26 0 0 0 .19.72 3.92 3.92 0 0 0 .52.82c.2-1.81 1.77-2.65 3.69-2.45"/></g><path d="M128.58 217.93a3.7 3.7 0 0 0-.41-1.76l-1-1.06-.72-.67a2.9 2.9 0 0 0-.65.14 2.52 2.52 0 0 0-1.07.78 2.6 2.6 0 0 1-.33.4.49.49 0 0 1-.47.12.36.36 0 0 1-.23-.26.55.55 0 0 1 .1-.35 2.69 2.69 0 0 1 1.2-1.07 2.61 2.61 0 0 1 1-.24l-.11-.1a2.26 2.26 0 0 0-1.06.14 2.49 2.49 0 0 0-1.08.78 3.09 3.09 0 0 1-.33.39.49.49 0 0 1-.46.12.34.34 0 0 1-.23-.26.52.52 0 0 1 .09-.34 2.73 2.73 0 0 1 1.18-1.08 2.57 2.57 0 0 1 1.36-.23h0l-.3-.29c-1.91-.2-3.49.64-3.69 2.45a8.7 8.7 0 0 0 1.16 1.11 11.26 11.26 0 0 1 1.74 1.71 6.6 6.6 0 0 0 1.51 1.85 2.68 2.68 0 0 0 1.61.39 1.56 1.56 0 0 0 1.27-.89 1.25 1.25 0 0 0 .07-.47 9.4 9.4 0 0 0 0-1.3" class="G"/><path d="M127.34,160.44l2.86,5.44-2.57,4.3,2.87,4.47,4.27-6.68a3.77,3.77,0,0,0,.44-3.07,53.89,53.89,0,0,0-2.77-7.56Z" class="N"/><path d="M125.1,149.93c3.25-.6,5.1.48,7.84,7.82-1.12,2.51-5.87,3.44-5.87,3.44Z" fill="#ebebeb"/><path d="M119 150.79l-3.54.7-2.36 4.21a6.9 6.9 0 0 0-1.16 3.46 3.53 3.53 0 0 0 2.12 3.05l-.4 4.83c5.56 1.7 12.36.21 13.86-1.08.44-2 .82-4.18 1.26-6.2a20.8 20.8 0 0 0 .6-4 7 7 0 0 0-1-3.88h0a4.3 4.3 0 0 0-4.28-1.88z" class="D"/><path d="M127.8,168.28q-.1-.15-.21-.33a19.72,19.72,0,0,1-14.08,1.61c-1,7.42-1.85,20-1.33,28.29.44,9.67,2.22,23.34,2.22,23.34,2.32.7,4,.27,4.71-.23.78-9.55,2.48-16.15,1.16-22.49.88-4.43,1.44-10,1.44-10l.67,9.79,2.26,17.19a4.08,4.08,0,0,0,4.08-.2c1.64-9.85,2.26-16.51.82-21.39,2.2-16.15,2.31-20.28-1.74-25.59" class="G"/><g clip-path="url(#Bc)"><g class="F"><path d="M122.69,186.54l1.21-5.1a7.05,7.05,0,0,0,4.77-3.1,9.71,9.71,0,0,1-5.87,2.07l-1.13,8.06.24,3.45.1-1.25a25.15,25.15,0,0,1,.64-4.13"/></g></g><path d="M92.67 145l3.56 9.24a3.68 3.68 0 0 0 2.8 2.29l6.1 1.07a5.5 5.5 0 0 0 1.35-2.54 5.57 5.57 0 0 0-.27-3.18 29.87 29.87 0 0 1-5.49-.61l-5.46-7.1 1.14-3.82a1.29 1.29 0 0 0-.11-1l-.62-1.08a1.36 1.36 0 0 0-.71-.58l-.89-.3a1.55 1.55 0 0 0-1.23.09l-1.35.71a.51.51 0 0 0-.28.47.5.5 0 0 0 .28.45l.5.26.71 1.2a3.74 3.74 0 0 0 0 4.45" class="N"/><path d="M114.92 151.42l-8.71.41a5.57 5.57 0 0 1 .27 3.18 5.5 5.5 0 0 1-1.35 2.54l7.64 1.33a3.28 3.28 0 0 0 3.68-2.41l.63-2.71a2 2 0 0 0-1.72-2.32 1.88 1.88 0 0 0-.41 0" fill="#ebebeb"/><path d="M114.7,141.27A6.3,6.3,0,0,1,114,138a3.52,3.52,0,0,1,1.71-2.75,2.49,2.49,0,0,1,3.07.54,5.68,5.68,0,0,1,8.4,5.44,20.47,20.47,0,0,0-.37,3.5,5.44,5.44,0,0,1,.16,2.05,2.16,2.16,0,0,1-1.11,1.26,11.69,11.69,0,0,1-2.28.31c-1.72,1.57-3.89,1-5.27-.42s-3.62-6.68-3.62-6.68" class="K"/><path d="M114.35 142.82l-1.08 1.89 1.18.43-.1-2.32z" fill="#804040"/><path d="M114.22,142a5.62,5.62,0,0,1,1.73-4,8.9,8.9,0,0,0,1.23,5.88,2.58,2.58,0,0,1,.8-1.4,1.49,1.49,0,0,1,1.53-.33,1.53,1.53,0,0,1,.78.84,2.08,2.08,0,0,1-.4,2.12,2,2,0,0,1-2.1.51,3.8,3.8,0,0,0,2.95,3,4.83,4.83,0,0,0,2.86-.27l.45,2.22c-1.8,1.91-4.89.63-4.89.63l-.4-2.18c-3.55.21-3.89.15-4.28-1.8a19.49,19.49,0,0,1-.25-5.23" class="N"/><g clip-path="url(#Be)"><g class="F"><path d="M122.08,139.61a6.24,6.24,0,0,1,2.87-3.38,6,6,0,0,1,2.28,5,19.52,19.52,0,0,0-.37,3.5,5.65,5.65,0,0,1,.16,2.05A2.14,2.14,0,0,1,125.9,148a11.49,11.49,0,0,1-2.27.31l-.22.19a16.28,16.28,0,0,1-1.4-3.6,9.22,9.22,0,0,1,.11-5.33"/></g></g><path d="M123.07 138.38a4.52 4.52 0 0 1 8.62-.11c1.07 3.24-1.67 6.68-1.07 10 .22 1.2.86 2.31 1.07 3.51a5.24 5.24 0 0 1-4.53 6.11 3.08 3.08 0 0 0 .35-3.22 14.41 14.41 0 0 0-1.91-2.86 16 16 0 0 1-2.6-13.44" class="K"/></g></svg>