<svg xmlns="http://www.w3.org/2000/svg" xmlns:svgjs="http://svgjs.com/svgjs" xmlns:xlink="http://www.w3.org/1999/xlink" id="SvgjsSvg1001" width="288" height="288" version="1.1"><g id="SvgjsG1008" transform="matrix(1,0,0,1,0,0)"><svg xmlns="http://www.w3.org/2000/svg" width="288" height="288" data-name="Layer 1" viewBox="0 0 301.58 301.58"><g fill="#000" class="color000 svgShape" data-name="Layer 2"><circle cx="150.79" cy="150.79" r="150.79" fill="#fff" class="colorfff svgShape" data-name="Layer 1-2"/></g><g fill="#000" class="color000 svgShape" data-name="Layer 2-2"><g fill="#000" class="color000 svgShape" data-name="layer 1-2-2"><rect width="60.13" height="13.88" x="120.72" y="210.92" fill="#0bd1d2" class="colora3d4ff svgShape"/><path fill="#fff" d="M120.72,210.91H171.6v4.63a4.63,4.63,0,0,1-4.63,4.63H120.72Z" class="colorfff svgShape"/><path fill="#24b2c0" d="M180.85,226.53H120.72a1.72,1.72,0,0,1-1.74-1.68h0V210.91a1.74,1.74,0,0,1,1.74-1.73h60.13a1.79,1.79,0,0,1,1.74,1.73v13.88a1.74,1.74,0,0,1-1.72,1.74Zm-58.4-3.47h56.67V212.65H122.45Z" class="color2b5185 svgShape"/><path fill="#0bd1d2" d="M76.77,197.05h148V204a7,7,0,0,1-6.94,6.94H83.71A6.94,6.94,0,0,1,76.77,204Z" class="colora3d4ff svgShape"/><path fill="#fff" d="M76.77,197.05H215.55v4.62a4.65,4.65,0,0,1-4.63,4.63H76.77Z" class="colorfff svgShape"/><path fill="#24b2c0" d="M217.86 212.65H83.71A8.67 8.67 0 0175 204h0v-6.93a1.74 1.74 0 011.72-1.74h148a1.79 1.79 0 011.73 1.74V204A8.68 8.68 0 01217.86 212.65zM78.5 198.77V204a5.22 5.22 0 005.2 5.21H217.86a5.22 5.22 0 005.2-5.21v-5.21zM197.05 226.53H104.52a1.74 1.74 0 010-3.47h92.53a1.74 1.74 0 010 3.47z" class="color2b5185 svgShape"/><path fill="#0bd1d2" d="M83.71,76.77H217.86a7,7,0,0,1,6.94,6.94V197.05h-148V83.71A6.94,6.94,0,0,1,83.71,76.77Z" class="colora3d4ff svgShape"/><path fill="#fff" d="M83.71,76.77H215.55V160a27.74,27.74,0,0,1-27.74,27.74h-111V83.71A6.94,6.94,0,0,1,83.71,76.77Z" class="colorfff svgShape"/><path fill="#24b2c0" d="M224.8,198.77h-148A1.7,1.7,0,0,1,75,197.1h0m0,0V83.71A8.67,8.67,0,0,1,83.71,75H217.86a8.69,8.69,0,0,1,8.67,8.67V197.05a1.72,1.72,0,0,1-1.71,1.72h0Zm3.46-1.74H223.06V83.71a5.21,5.21,0,0,0-5.2-5.21H83.71a5.21,5.21,0,0,0-5.21,5.21h0Z" class="color2b5185 svgShape"/><path fill="#24b2c0" d="M153.1 161.77H127.65a1.73 1.73 0 010-3.46H153.1a1.73 1.73 0 01.25 3.46zM118.4 161.77H106.84a1.73 1.73 0 01-.25-3.46H118.4a1.73 1.73 0 11.25 3.46zM153.07 173.34H139.19a1.74 1.74 0 010-3.48h13.88a1.74 1.74 0 110 3.48zM130 173.34H106.84a1.74 1.74 0 010-3.48H130a1.74 1.74 0 010 3.48zM132.28 150.21H93a1.74 1.74 0 010-3.47h39.32a1.74 1.74 0 010 3.47zM97.59 161.77H93a1.73 1.73 0 01-.25-3.46h4.88a1.73 1.73 0 11.25 3.46zM97.59 173.34H93a1.74 1.74 0 010-3.48h4.63a1.74 1.74 0 110 3.48zM146.14 184.9H127.63a1.74 1.74 0 01-.25-3.47h18.76a1.74 1.74 0 01.25 3.47zM118.4 184.9H106.84a1.74 1.74 0 01-.25-3.47H118.4a1.74 1.74 0 11.25 3.47zM97.59 184.9H93a1.74 1.74 0 01-.25-3.47h4.88a1.74 1.74 0 11.25 3.47z" class="color2b5185 svgShape"/><rect width="13.88" height="46.26" x="134.59" y="90.66" fill="#0bd1d2" class="colora3d4ff svgShape"/><path fill="#fff" d="M134.59,90.65h6.94v34.69a2.3,2.3,0,0,1-2.29,2.31h-4.65Z" class="colorfff svgShape"/><path fill="#24b2c0" d="M148.47,138.64H134.59a1.74,1.74,0,0,1-1.73-1.74h0V90.65a1.78,1.78,0,0,1,1.73-1.73h13.88a1.79,1.79,0,0,1,1.74,1.73V136.9A1.74,1.74,0,0,1,148.47,138.64Zm-12.14-3.46h10.41V92.38H136.33Z" class="color2b5185 svgShape"/><rect width="13.88" height="23.13" x="120.72" y="113.78" fill="#0bd1d2" class="colora3d4ff svgShape"/><path fill="#fff" d="M120.72,113.78h6.93v11.56a2.29,2.29,0,0,1-2.29,2.31h-4.64Z" class="colorfff svgShape"/><path fill="#24b2c0" d="M134.59,138.64H120.72A1.72,1.72,0,0,1,119,137h0V113.78a1.73,1.73,0,0,1,1.73-1.73h13.88a1.79,1.79,0,0,1,1.74,1.73V136.9a1.74,1.74,0,0,1-1.74,1.74Zm-12.14-3.46h10.41V115.49H122.45Z" class="color2b5185 svgShape"/><rect width="13.88" height="37.01" x="106.84" y="99.91" fill="#0bd1d2" class="colora3d4ff svgShape"/><path fill="#fff" d="M106.84,99.9h6.93v25.44a2.29,2.29,0,0,1-2.29,2.31h-4.64V99.9Z" class="colorfff svgShape"/><path fill="#24b2c0" d="M120.72,138.64H106.84a1.7,1.7,0,0,1-1.73-1.66V99.9a1.72,1.72,0,0,1,1.73-1.72h13.88a1.78,1.78,0,0,1,1.73,1.73v37A1.73,1.73,0,0,1,120.72,138.64Zm-12.14-3.46H119V101.63h-10.4Z" class="color2b5185 svgShape"/><rect width="13.88" height="27.75" x="92.96" y="109.16" fill="#0bd1d2" class="colora3d4ff svgShape"/><path fill="#fff" d="M93,109.15H99.9v16.19a2.3,2.3,0,0,1-2.29,2.31H93Z" class="colorfff svgShape"/><path fill="#24b2c0" d="M106.84 138.64H93A1.7 1.7 0 0191.23 137V109.15A1.73 1.73 0 0193 107.42h13.89a1.81 1.81 0 011.74 1.73v27.74a1.74 1.74 0 01-1.72 1.75zM94.7 135.18h10.41V110.89H94.7zM210.91 92.38H187.79a1.73 1.73 0 11-.24-3.46 1 1 0 01.24 0h23.12a1.73 1.73 0 010 3.46zM178.63 92.38H162.44a1.73 1.73 0 11-.25-3.46 1 1 0 01.25 0h16.19a1.73 1.73 0 11.25 3.46A1 1 0 01178.63 92.38zM210.91 104H197.05a1.74 1.74 0 110-3.47h13.86a1.74 1.74 0 110 3.47zM187.88 104H162.44a1.74 1.74 0 110-3.47h25.44a1.74 1.74 0 110 3.47zM210.91 115.51H185.48a1.73 1.73 0 11-.25-3.46h25.68a1.73 1.73 0 010 3.46zM176.32 115.51H162.44a1.73 1.73 0 11-.25-3.46h14.13a1.73 1.73 0 11.24 3.46zM197.05 127.08h-34.7a1.74 1.74 0 010-3.47h34.7a1.74 1.74 0 010 3.47z" class="color2b5185 svgShape"/><circle cx="187.79" cy="160.04" r="23.13" fill="#fff" class="colorfff svgShape"/><path fill="#0bd1d2" d="M204.42,144a22.91,22.91,0,0,1,1.88,9.09,23.14,23.14,0,0,1-39.79,16.05A23.13,23.13,0,1,0,204.42,144Z" class="colora3d4ff svgShape"/><path fill="#24b2c0" d="M187.79,184.9A24.87,24.87,0,1,1,212.65,160v0A24.87,24.87,0,0,1,187.79,184.9Zm0-46.26a21.4,21.4,0,1,0,21.4,21.41h0A21.4,21.4,0,0,0,187.79,138.64Z" class="color2b5185 svgShape"/><path fill="#24b2c0" d="M187.79,161.77a1.85,1.85,0,0,1-.69-.14,1.7,1.7,0,0,1-1-1.59V136.9a1.73,1.73,0,0,1,3.46,0V156l13.67-13.24a1.8,1.8,0,0,1,2.44,2.51L189,161.31A1.7,1.7,0,0,1,187.79,161.77Z" class="color2b5185 svgShape"/><path fill="#24b2c0" d="M205.79,176.3a1.8,1.8,0,0,1-1.09-.4l-17-13.67-17.63,12.82a1.79,1.79,0,0,1-2.42-.37,1.73,1.73,0,0,1,.39-2.32l18.72-13.6a1.74,1.74,0,0,1,2.1,0l18,14.43a1.8,1.8,0,0,1,.28,2.45A1.76,1.76,0,0,1,205.79,176.3Z" class="color2b5185 svgShape"/><circle cx="187.79" cy="160.04" r="9.25" fill="#fff" class="colorfff svgShape"/><path fill="#0bd1d2" d="M192.3,152v1.09a9.25,9.25,0,0,1-9.25,9.25,9,9,0,0,1-4.62-1.23A9.25,9.25,0,1,0,192.12,152Z" class="colora3d4ff svgShape"/><path fill="#24b2c0" d="M187.79 171a11 11 0 1111-11v0a11 11 0 01-11 11zm0-18.5a7.53 7.53 0 107.52 7.53h0A7.53 7.53 0 00187.79 152.52zM67.52 136.33a1.79 1.79 0 01-1.74-1.73V109.73a1.74 1.74 0 013.47 0V134.6A1.78 1.78 0 0167.52 136.33zM67.52 102.14a1.79 1.79 0 01-1.74-1.66V95.27a1.74 1.74 0 013.47 0v5.21A1.77 1.77 0 0167.52 102.14zM234.05 175.64a1.78 1.78 0 01-1.73-1.72V139.8a1.73 1.73 0 013.46-.25v34.37A1.78 1.78 0 01234.05 175.64zM234.05 132.18a1.72 1.72 0 01-1.73-1.64v-5.21a1.73 1.73 0 113.46-.24v5.45A1.73 1.73 0 01234.05 132.18z" class="color2b5185 svgShape"/></g></g></svg></g></svg>