<svg xmlns="http://www.w3.org/2000/svg" id="Layer_1" data-name="Layer 1" viewBox="0 0 900 200"><defs><style>.cls-1{fill:#fff}</style></defs><polygon points="506.46 61.07 544.98 46.73 506.46 31.98 506.46 11.9 572.44 38.53 572.44 54.93 506.46 81.56 506.46 61.07" class="cls-1"/><path d="M142.16,188.11c-13.93,0-25.4-7-25.4-22.54v-.82c0-18.85,16.39-25.41,36.47-25.41h9.42v-3.69c0-7.78-3.28-12.29-11.47-12.29-7.38,0-11.07,4.1-11.47,9.84H119.22c1.63-17.22,15.16-25.41,33.19-25.41,18.44,0,32,7.79,32,27v51.64h-20.9v-9A25.3,25.3,0,0,1,142.16,188.11Zm20.49-27.05v-7.37h-8.6c-10.66,0-16,2.86-16,9.83v.82c0,5.33,3.27,9,10.65,9C156.1,173,162.65,168.85,162.65,161.06Zm70.49,27.05c-21.31,0-36.88-13.12-36.88-39.34v-1.23c0-26.23,16.39-40.16,36.88-40.16,17.62,0,32,9,33.6,29.09H246.25c-1.23-7.37-5.33-12.29-12.7-12.29-9,0-15.58,7.38-15.58,22.54v2.46c0,15.57,5.74,22.54,15.58,22.54,7.37,0,12.7-5.33,13.93-13.94h19.67C265.92,175.81,254,188.11,233.14,188.11Zm80.31,0c-21.3,0-36.88-13.12-36.88-39.34v-1.23c0-26.23,16.4-40.16,36.88-40.16,17.63,0,32,9,33.61,29.09H326.57c-1.23-7.37-5.33-12.29-12.71-12.29-9,0-15.57,7.38-15.57,22.54v2.46c0,15.57,5.74,22.54,15.57,22.54,7.38,0,12.71-5.33,13.94-13.94h19.67C346.24,175.81,334.35,188.11,313.45,188.11Zm80.73,0c-22.13,0-37.29-13.12-37.29-38.93v-1.64c0-25.82,16-40.16,36.88-40.16C413,107.38,429,118,429,143.85v9.43h-50.4c.82,13.93,7,19.26,16,19.26,8.2,0,12.71-4.51,14.34-9.84H429C426.56,177,414.26,188.11,394.18,188.11ZM379,138.93h28.69c-.41-11.47-5.74-16.39-14.35-16.39C386.81,123,380.66,126.64,379,138.93Zm63.11-29.5h21.72V120.9c3.68-7.37,11.47-13.11,23.35-13.11,13.94,0,23.36,8.6,23.36,27v51.64H488.84V138.11c0-9-3.69-13.11-11.47-13.11-7.38,0-13.52,4.51-13.52,14.34v47.13H442.13v-77ZM550.31,86.07v23.36h14.75v16H550.31v36.47c0,5.74,2.46,8.61,7.79,8.61a18.41,18.41,0,0,0,7.37-1.23v16.8a42,42,0,0,1-12.29,1.64c-16.8,0-24.59-7.79-24.59-23.36V125.41h-9v-16h9V95.09Zm95.89,100.4H624.89V175c-3.69,7.38-11.06,13.12-22.54,13.12-13.93,0-24.17-8.61-24.17-26.64v-52h21.71V158.6c0,9,3.69,13.12,11.07,13.12s13.52-4.92,13.52-14.35V109.43H646.2Zm16-77H683.9v14.34c4.51-10.24,11.88-15.16,23.36-15.16v21.31c-14.75,0-23.36,4.51-23.36,17.21v39.75H662.18Zm88.93,78.68c-22.13,0-37.29-13.12-37.29-38.93v-1.64c0-25.82,16-40.16,36.88-40.16,19.26,0,35.24,10.65,35.24,36.47v9.43h-50c.82,13.93,7,19.26,16,19.26,8.19,0,12.7-4.51,14.34-9.84h20.08C783.07,177,771.19,188.11,751.11,188.11Zm-15.58-49.18h29.1c-.41-11.47-5.74-16.39-14.34-16.39C743.73,123,737.58,126.64,735.53,138.93Z" class="cls-1"/></svg>