<svg id="Layer_1" data-name="Layer 1" xmlns="http://www.w3.org/2000/svg" viewBox="0 0 900 200"><defs><style>.cls-1{fill:#fff;}</style></defs><path class="cls-1" d="M140.09,146.55,131.41,122H91.11l-8.66,24.56H58.79L101,36.31h21.45l41.87,110.24ZM116.7,81c-2.22-6.46-4.43-13-5.54-17.18C110,68,107.83,74.56,105.61,81l-7,20h25.2Z"/><path class="cls-1" d="M218.41,146.55V141c-3.74,3.88-10.72,7.24-19.39,7.24-21.08,0-30.5-14.42-30.5-37.72V63.92h21.69v44.63c0,14.74,5,19.25,14,19.25s14.22-4.43,14.22-18.74V63.84h21.75v82.58H218.41Z"/><path class="cls-1" d="M294.67,143.18c-3.62,2.85-10.09,5-16.81,5-13.44,0-22.09-10.34-22.09-24.94V42.51l21.71-10.86V63.7h19.77V84.14H277.48v33.22c0,7.88,2.84,10,8,10,3.87,0,7-1.69,12.27-6.34Z"/><path class="cls-1" d="M339.89,148.23c-21.58,0-37.34-17.57-37.34-43S318.31,62,339.89,62s37.49,17.83,37.49,43.16-15.89,43-37.49,43m0-65.14c-10.33,0-15.24,9.43-15.24,22.19s4.91,22.14,15.24,22.14,15.39-10.6,15.39-22.1c.13-12.67-4.91-22.19-15.39-22.19"/><path class="cls-1" d="M459.57,146.55,419.13,86.36c-2.72-4.13-6.34-9.56-7.77-12.4,0,4.14.26,18,.26,24v48.47H389.94V36.18H411l39.16,58.41c2.71,4.14,6.33,9.57,7.76,12.41,0-4.14-.25-18-.25-24V36.35H479.4V146.59Z"/><path class="cls-1" d="M541.65,146.55V141c-3.88,4.14-10.86,7.24-18.61,7.24-15.39,0-30.89-9.44-30.89-29.47,0-18.22,14.74-27.39,33.48-27.39,7.49,0,12.4,1.54,15.89,3.33V90.59c0-5.81-3.88-10.6-11.77-10.6-10,0-15.12,1.42-22.61,5.55l-8.4-15.11c9.57-5.55,17.58-8.4,31-8.4,20,0,33.48,10.33,33.48,29v55.48H541.65v.09Zm0-34.63c-3.75-2.33-7.37-3.5-15.12-3.5-8.15,0-12.54,3.75-12.54,10.34,0,5.82,3.33,11,12.54,11,7.11,0,12.79-3.62,15.12-7.5Z"/><path class="cls-1" d="M617,143.18c-3.63,2.85-10.09,5-16.81,5-13.44,0-22.09-10.34-22.09-24.94V42.51l21.7-10.86V63.7h19.82V84.14H599.8v33.22c0,7.88,2.85,10,8,10,3.88,0,7-1.69,12.28-6.34Z"/><rect class="cls-1" x="633.41" y="63.84" width="21.71" height="82.59"/><path class="cls-1" d="M702.17,148.23c-21.59,0-37.36-17.57-37.36-43S680.58,62,702.17,62s37.47,17.83,37.47,43.16-15.89,43-37.47,43m0-65.14c-10.34,0-15.25,9.43-15.25,22.19s4.91,22.14,15.25,22.14,15.38-10.6,15.38-22.1c0-12.67-5-22.19-15.38-22.19"/><path class="cls-1" d="M798.45,146.55V101.83c0-14.86-5-19.25-14-19.25S770.28,87,770.28,101.31v45.24H748.56V64h21.72v5.55c3.75-3.88,10.73-7.24,19.38-7.24,21.08,0,30.5,14.43,30.5,37.73v46.66H798.45Z"/><path class="cls-1" d="M829.47,146.42a4.78,4.78,0,1,1,4.79-4.78h0a4.7,4.7,0,0,1-4.61,4.78h-.18m0-8.78a4,4,0,1,0,4,4h0a3.86,3.86,0,0,0-3.71-4h-.3m1.11,4.43,1,2.07h-1l-1-2.07h-1v2h-.9v-5.17h2.32a1.54,1.54,0,0,1,1.68,1.37c0,.06,0,.12,0,.18a1.59,1.59,0,0,1-1,1.56m-.65-2.33h-1.42v1.42h1.42a.7.7,0,0,0,.78-.59v-.19a.72.72,0,0,0-.78-.64"/><path class="cls-1" d="M725.31,163.09q-34.71,0-69.29.78c-32.31.64-64.74,1.67-97,3.22-31.41,1.56-63,3.23-94.31,5.55-24.56,1.81-49.11,3.89-73.68,6,.65,0,1.43-.13,2.07-.13,26.5-1.42,52.86-2.84,79.36-4,30.37-1.42,60.74-1.94,91-2.58,18.74-.39,37.48-.51,56.22-.51,12.53,0,25.06.12,37.47.12q45.17.39,90.34,1.94c13.7.52,27.53,1,41.23,1.81,5.43.25,11,.64,16.41.91,3,.12,5.82.39,8.79.51.78,0,1.94.25,3,.25,1.68,0,3.22-.51,3.32-2.7.14-1.69.14-3.33.26-5v-.69c0-2.06-.64-3.62-3-3.87-2.71-.14-5.43-.26-8.14-.26-5.94-.26-11.89-.39-17.84-.52-14-.39-28-.64-42-.64-8-.14-16-.14-24.16-.14"/><path class="cls-1" d="M641.42,181.57c-7,0-14.09,0-21.08.13-23.9.26-47.94.52-71.86,1.29-18.74.53-37.48,1.29-56.22,1.95h1.56c20.16-.27,40.32-.52,60.36-.52h8.26c20.3,0,40.71.38,61,.64,23.78.39,47.56,1.3,71.21,2.22Q729,188.65,763.31,191c10.46.64,20.8,1.42,31.28,2.33,4.14.39,8.26.64,12.4,1,2.22.26,4.44.39,6.73.64a13.5,13.5,0,0,0,2.45.26c1.11,0,2.22-.38,2.33-1.81.14-1.1.23-2.22.26-3.33v-.65a2.14,2.14,0,0,0-1.81-2.43l-.26,0c-2.07-.25-4.14-.25-6.21-.38-4.52-.26-9.05-.65-13.57-.9-10.6-.66-21.32-1.11-31.92-1.56-23.65-.91-47.43-1.68-71.08-2.07-17.32-.39-34.9-.51-52.48-.51"/></svg>