<svg xmlns="http://www.w3.org/2000/svg" viewBox="0 0 501.8 180.13"><g id="Layer_2" data-name="Layer 2"><g id="Layer_1-2" data-name="Layer 1"><path d="M340.55,130.26v.06c-21.37,15.12-46.65,31-73.91,47.72l-1.06.62a.84.84,0,0,0-.19,1.14.82.82,0,0,0,1.13.19l.9-.48c23.1-12,49.62-26.35,76.35-41a4.36,4.36,0,0,1,.42-.23A34.52,34.52,0,0,1,340.55,130.26ZM480.8,16.73C447.12-20.42,230.39,13,138.24,33.18l-2.12.45a.81.81,0,0,0-.75.86.82.82,0,0,0,.87.75l.15,0,2.12-.42c76.35-13.61,235.15-32.43,269.35,1.44,10.37,10.31,7.88,23.59-4.27,39.36a31.2,31.2,0,0,1,13.24,19c47.22-31.33,78.91-61.28,63.93-77.82Z" style="fill:#fff"/><path d="M354.18,120.51c.42,13,8.72,23.77,19.49,23.77,20.89,0,29.8-25.67,29.17-42.8-.44-13.1-8.93-23.77-19.7-23.77C365.19,77.71,353.56,103.23,354.18,120.51Zm-11-.71c-.76-22.27,16.71-45.13,42.11-45.13,17,0,28.08,11.31,28.69,28.63.83,23.53-15.52,45.13-42.06,45.13-17,0-28.14-11.28-28.74-28.63Z" style="fill:#fff"/><path d="M102.68,113.91a25.49,25.49,0,0,1-3.54,1c-1.44.34-4.09.79-7.94,1.41a13.64,13.64,0,0,0-5.55,1.73,4.12,4.12,0,0,0-1.75,2.71,2.67,2.67,0,0,0,1.16,2.8,9.21,9.21,0,0,0,5.12,1.06,16.74,16.74,0,0,0,5.3-.84,12.4,12.4,0,0,0,4.3-2.29,6.9,6.9,0,0,0,1.86-2.72A29.82,29.82,0,0,0,102.68,113.91Zm22-13.71a54.7,54.7,0,0,1-1,7l-3.73,21a3.9,3.9,0,0,0,2.12,4.31l-.11.83H100.63l-.2-5.3a43.12,43.12,0,0,1-10.27,4.38,37.58,37.58,0,0,1-10.23,1.24c-6.91,0-10.86-.7-13.61-3.11s-4.12-4.09-4-7.49a11.78,11.78,0,0,1,2.57-6.22,16.31,16.31,0,0,1,5.69-4,30.43,30.43,0,0,1,8.56-2.41c3.79-.61,9-1.2,16.09-1.8a23.18,23.18,0,0,0,7-1.59c1.46-.56,2.06-1.21,2.26-2.4.39-2.12-.29-3.39-3.18-4-7.69-1.53-22.14,1-29.58,2.83l4-10.91a195,195,0,0,1,28.75-2.4C120,90.16,124.9,94.55,124.71,100.2Z" style="fill:#fff"/><path d="M186.71,133.26l7.42-41.88h20.48l-7.42,41.88Zm8.55-51.58c.61-3.45,6-6.22,12.1-6.22s10.52,2.8,9.92,6.22-6.05,6.25-12.16,6.25S194.69,85.14,195.26,81.68Z" style="fill:#fff"/><path d="M287.28,114c-.93.32-2.12.66-3.56,1s-4.1.76-8,1.37c-2.63.43-4.49,1-5.51,1.73a4.27,4.27,0,0,0-1.78,2.69,2.65,2.65,0,0,0,1.15,2.8c1.06.71,2.75,1.06,5.16,1.06a17.69,17.69,0,0,0,5.3-.8,13.08,13.08,0,0,0,4.33-2.29,7.08,7.08,0,0,0,1.8-2.71A31.09,31.09,0,0,0,287.28,114Zm22.06-13.79a49.78,49.78,0,0,1-1.07,7l-3.7,21a3.93,3.93,0,0,0,2.12,4.31l-.1.75H285.21l-.17-5.31a41.7,41.7,0,0,1-10.26,4.38,36.2,36.2,0,0,1-10.3,1.28c-6.89,0-10.83-.68-13.57-3.12s-4.13-4.09-4-7.49a11.17,11.17,0,0,1,2.58-6.22,15.74,15.74,0,0,1,5.71-4,32.09,32.09,0,0,1,8.54-2.43c3.78-.59,9.08-1.22,16.12-1.81a23.49,23.49,0,0,0,7-1.55c1.51-.57,2.07-1.22,2.29-2.44.38-2.12-.27-3.36-3.18-4-7.74-1.53-22.13,1-29.57,2.83l4.06-10.87a194.09,194.09,0,0,1,28.69-2.35c15.43,0,20.35,4.47,20.21,10.05Z" style="fill:#fff"/><path d="M59.56,118.22a74.52,74.52,0,0,1-17,1.83c-9.79,0-17.56-4.86-17.14-13.78.31-5.94,7.32-18.43,25.17-18.43a29.14,29.14,0,0,1,15.9,4.35l2.59-14.48a49.47,49.47,0,0,0-20.24-3.42C25.45,74.53,3,85.14.21,106.77c-2.82,22,24,27.47,35.91,27.42,6.87,0,14-.31,20.7-1Z" style="fill:#fff"/><path d="M225.88,91.16l1.46-8.55L248.78,78l-2.3,13.18H257l-2,8.43H244.81l-6.19,33.68s-20.61-.15-20.69,0l6.16-33.6h-7.75l1.59-8.48h7.95Z" style="fill:#fff"/><polygon points="340.09 75.4 330.13 133.22 309.29 133.26 319.78 74.84 340.09 75.4" style="fill:#fff"/><path d="M159.63,101.19a11.8,11.8,0,0,0-7.27,2.44,10.92,10.92,0,0,0-4.05,7.15q-1,5.46,1.19,7.89a8.13,8.13,0,0,0,6.36,2.43,11.94,11.94,0,0,0,5.2-1.06,10.21,10.21,0,0,0,4-3.44,14,14,0,0,0,2.26-5.52c.59-3.31.08-5.77-1.45-7.42A8,8,0,0,0,159.63,101.19ZM122.35,147.7l10-56.11h18L149,98.75a16.72,16.72,0,0,1,7.5-5.3A30.58,30.58,0,0,1,168.14,91c4.69,0,7.57.25,11.08,2.06a14.73,14.73,0,0,1,7.24,8,20.75,20.75,0,0,1,.81,11.39,24.64,24.64,0,0,1-10.12,16.37c-5.49,4-10.44,5.06-17.48,5.09a26.22,26.22,0,0,1-6.3-.68,14.67,14.67,0,0,1-4.07-1.64,17.75,17.75,0,0,1-3.37-3.05l-3.32,19.22Z" style="fill:#fff"/><path d="M494,106.34c-.12-3.37-1.81-5.66-5.3-5.66-8.4,0-17.33,16.46-18.85,23.08C483.57,123.79,494.29,115.59,494,106.34Zm1.81,25.78,1.62,1.06c-4.11,8.35-12.45,15-22.27,15-8,0-14.59-5.3-14.93-15.36-.66-18,16.17-34.61,29.94-34.61,5.91,0,11.39,2.58,11.67,8.94.51,14.29-19.53,18.63-32.74,19a16,16,0,0,0-.51,5.25c.23,5.92,3.79,10.89,11.2,10.89,6.36,0,12.78-5.14,16-10.21Z" style="fill:#fff"/><path d="M413.65,105.89a46,46,0,0,1,4.69-.46c1.5,0,2.91.29,3,1.78,0,.88-1.54,7.25-1.88,8.72L416.27,130c-1.3,5.76-2.69,11.78-3.93,16.57h8.22l4.61-22.27c14.05-14.65,19.48-19.43,22.79-19.43a2.4,2.4,0,0,1,2.6,2.18,2.67,2.67,0,0,1,0,.4c.08,2.57-1.53,8.43-2.12,10.12l-4.69,16.26c-1.06,3.65-1.86,7-1.78,9.3.14,3.56,2.29,5.14,5.51,5.14,6,0,10.35-6.24,14.14-12.38l-1.06-2c-1.53,2.46-5.09,7.86-7.89,7.86-.88,0-1.73-.59-1.75-2.06a23.65,23.65,0,0,1,1.27-6.65L457.42,114c1.41-5.3,2.07-8.62,2-10.44-.14-3.56-2.21-5.23-5.4-5.23-5.41,0-12.56,4-27.74,21.4h-.22l1.92-8.48c1.06-4.67,2.12-9.54,3-12.89a142.25,142.25,0,0,1-17.45,4.84Z" style="fill:#fff"/></g></g></svg>