<svg id="Layer_1" data-name="Layer 1" xmlns="http://www.w3.org/2000/svg" viewBox="0 0 900 200"><defs><style>.cls-1{fill:#fff;}</style></defs><g id="g38907"><path class="cls-1" d="M674.11,50.73a11.82,11.82,0,1,1-11.85,11.82,11.82,11.82,0,0,1,11.85-11.82Zm10.26,11.82A10.26,10.26,0,1,0,674.11,72.8,10.25,10.25,0,0,0,684.37,62.55Z"/><path class="cls-1" d="M679.44,69h-2.17a6,6,0,0,1-.17-1.64c0-2.77-.86-3.51-3.25-3.51h-2.28V69h-2.08V56h4.37c2.77,0,5.58.61,5.58,3.77,0,2.2-1.69,2.94-3.2,3.16,2,.43,3,1.6,3,3.89A6.31,6.31,0,0,0,679.44,69Zm-2.3-9.21c0-1.52-1.25-2.21-3.29-2.21h-2.29v4.72h2.29c2.13,0,3.29-.83,3.29-2.51Z"/><polygon class="cls-1" points="624.58 95.95 658.5 148.6 623.41 148.6 607.14 119.87 586.55 148.6 551.11 148.6 590.18 95.82 560.24 51.08 596.02 51.08 607.57 71.76 620.95 51.08 656.86 51.08 624.58 95.95"/><path class="cls-1" d="M531.43,156.82a18.32,18.32,0,1,1-18.35,18.3,18.32,18.32,0,0,1,18.35-18.3Z"/><path class="cls-1" d="M480.5,109.75l29.81,38.85H473.45l-18.6-29.12V148.6H425.6V51.08h38.33c11.38,0,20.6,3.2,26.65,9.26,5.41,5.41,8.14,12.72,8.14,21.81C498.72,95.56,491.66,105.94,480.5,109.75Zm-8-26.13c0-3.29-.86-5.71-2.6-7.49-3.46-3.46-10.12-3.94-15.09-4v23C467.35,95,472.54,91.66,472.54,83.62Z"/><polygon class="cls-1" points="417.68 51.08 417.68 76.56 395.44 76.56 395.44 148.6 366.32 148.6 366.32 76.56 344.08 76.56 344.08 51.08 417.68 51.08"/><polygon class="cls-1" points="336.2 51.08 336.2 148.6 306.96 148.6 306.96 135.23 306.96 64.54 306.96 51.08 336.2 51.08"/><path class="cls-1" d="M321.58,6.26A18.35,18.35,0,1,1,303.24,24.6v0A18.33,18.33,0,0,1,321.58,6.26Z"/><path class="cls-1" d="M298.05,64.54l-15.4,24.87A25.52,25.52,0,0,0,261.19,77.6c-12.3,0-21.29,10-21.29,22.29s9,22.24,21.29,22.24a25.52,25.52,0,0,0,21.46-11.81l15.4,24.92a51.14,51.14,0,1,1-1.6-72.3C297,63.46,297.53,64,298.05,64.54Z"/></g><polygon class="cls-1" points="546.04 51.08 546.04 148.6 516.8 148.6 516.8 135.24 516.8 64.54 516.8 51.08 546.04 51.08"/></svg>