<svg id="Layer_1" data-name="Layer 1" xmlns="http://www.w3.org/2000/svg" viewBox="0 0 900 200"><defs><style>.cls-1{fill:#fff;}</style></defs><path class="cls-1" d="M251.58,135.9c-22.37-.45-38.57-17.13-38-39.13.55-20.48,18.28-36.59,39.58-36,22.28.64,38.3,17.11,37.7,38.76C290.33,120.18,272.86,136.32,251.58,135.9ZM274,98.85c.06-13.51-9.19-23.48-21.79-23.49A22.14,22.14,0,0,0,230,97.46c-.17,13.35,9.67,23.89,22.29,23.87C264.55,121.3,273.91,111.59,274,98.85Z"/><path class="cls-1" d="M301.13,98.2c0-10.37.17-20.75-.08-31.11C301,63,302.32,61.77,306.3,62c11.07.6,22.23-1,33.23,1.26,16.81,3.47,27.82,16.67,28.57,34.14.69,16.09-10,30.5-26.05,35-12.67,3.58-25.66,1.47-38.51,1.87-3,.09-2.36-2.65-2.37-4.45C301.1,119.3,301.13,108.75,301.13,98.2ZM317,98.12v9.13c0,13.64,0,13.64,13.81,13,10-.45,17.64-6.52,19.91-15.73,2.55-10.36-1.51-20.8-10.07-25.51-5.93-3.27-12.49-2.41-18.9-2.7-3.64-.17-5.08.71-4.84,4.64C317.24,86.66,317,92.4,317,98.12Z"/><path class="cls-1" d="M378.1,98.16c0-10.36.15-20.73-.08-31.09-.08-3.79,1.17-4.9,4.92-4.85q22.83.27,45.66,0c3.62,0,4.88,1.22,4.52,4.66a24.26,24.26,0,0,0,0,4.82c.36,3.6-1.31,4.6-4.73,4.54-9.67-.17-19.34.14-29-.15-4.32-.13-6,1.32-5.44,5.53a22.19,22.19,0,0,1,0,4.82c-.39,3.84,1.45,5,5.06,4.89,8.24-.17,16.48.1,24.71-.13,3.43-.1,4.72.8,4.76,4.41.1,9.55.26,9.55-9.42,9.55-7,0-14,.08-20.95,0-3,0-4.21,1-4.17,4.06.17,13.78-1.33,11.11,10.83,11.3,7.88.12,15.77.21,23.64-.06,4-.14,5.36,1.2,5.29,5.17-.18,11.1.27,8.94-8.77,9-13.78.11-27.57-.1-41.36.1-4.16.07-5.68-1.11-5.56-5.45C378.3,118.89,378.1,108.52,378.1,98.16Z"/><path class="cls-1" d="M711.75,98.38c0,10.55-.13,21.1.07,31.64.06,3.51-1.06,4.74-4.58,4.66-13.65-.3-11.15,1.56-11.38-10.74-.09-4.83-.12-9.66,0-14.48.09-3-1-4.16-4.07-4.1q-10.74.21-21.5,0c-3.08-.07-4.1,1.16-4,4.12.13,6.43-.16,12.88.11,19.3.18,4.26-1,6.1-5.66,5.94-12.41-.43-10.35,1.4-10.42-10.63-.11-18.59.1-37.19-.13-55.78,0-4.5.83-6.33,5.84-6.14,10.29.38,10.3.09,10.3,10.21,0,4.82.13,9.66-.05,14.48-.11,3,1.15,4.21,4.06,4.19q10.75-.08,21.5,0c2.93,0,4.13-1.23,4.06-4.23-.14-6.61,0-13.23-.08-19.85,0-3.17.52-4.79,4.41-4.79,11.53,0,11.53-.18,11.53,11.53Z"/><path class="cls-1" d="M570.81,134.39c-5.31,1.85-7.48-1.74-9.43-6.83-3.58-9.4-3.84-9.3-13.91-9.3-3.94,0-7.88-.06-11.82,0-10.85.21-7.42-1.7-12.11,8.25-1.26,2.66-1.15,6.82-4.22,7.55a30.85,30.85,0,0,1-12.26.09c-3.58-.64-1.17-3.59-.54-5.14,4-9.72,8.25-19.33,12.39-29,5-11.63,10.1-23.22,14.87-34.94,1.23-3,2.94-3.47,5.9-3.9,7.69-1.12,11.23,2,14,9.12,7.31,18.72,15.64,37,23.48,55.56C580.76,134.35,580.67,134.39,570.81,134.39Zm-28.7-30.21c1.79,0,3.57-.07,5.35,0,3.1.15,3.87-1.34,2.82-4-1.9-4.78-3.81-9.56-5.92-14.24-1.31-2.9-3.14-2.8-4.46,0-1.43,3-2.59,6.22-3.83,9.36C532.59,104.18,532.59,104.18,542.11,104.18Z"/><path class="cls-1" d="M448,97.93q0-15.83,0-31.65c0-2-.27-4.24,2.71-4.16,12,.33,24.05-1.42,35.88,1.14s18.35,11,18.78,22.83c.44,12.21-5.69,20.92-17.12,24.82-6.44,2.2-13,2.1-19.64,1.85-3.53-.14-4.86,1.06-4.73,4.53.17,4.46,0,8.94.07,13.41.06,2.7-.92,3.64-3.75,3.76-12.2.51-12.2.61-12.2-11.32Zm15.94-11.61c0,4.15-.07,6.83,0,9.51.05,1.47.42,3,2.36,2.94,5.16-.13,10.41.78,15.45-.92,4-1.34,6.79-4,7.38-8.33.56-4.09-.1-7.92-3.78-10.49a15.85,15.85,0,0,0-9.65-2.6C462.1,76.68,464.1,74.24,463.92,86.32Z"/><path class="cls-1" d="M184.39,60.91a35.27,35.27,0,0,1,22,8.3c2.44,2,3.16,3.73.45,6a14.52,14.52,0,0,0-1.41,1.6c-5.44,6.09-5.44,6.09-12.36,2-9.7-5.75-21.47-4-28.13,4.29-7.16,8.87-7,22.91.36,31.14,7.15,8,19.35,9.24,28.87,3.13,2.12-1.36,4-4.9,6.75-3.23,3.11,1.87,5.59,4.92,8,7.74,1.19,1.37-.32,2.61-1.37,3.57-12.22,11.13-26.29,12.84-41.43,7.65-12.71-4.36-21.8-17.51-22.83-31C141.42,77.45,159.64,60.45,184.39,60.91Z"/><path class="cls-1" d="M764.36,110.47c0,4.06-.19,7.26,0,10.42.3,3.85-1.37,5.19-5,4.84a36.88,36.88,0,0,0-5.36,0c-2.79.14-3.87-1.21-3.82-3.87.07-3.52,0-7,0-11.52-4.16,2.41-7.57,4.23-10.81,6.31-2.42,1.55-4.24,1.66-5.61-1.19-.31-.64-.78-1.2-1.15-1.81-4.3-7.06-4.3-7.06,2.69-11.24,7.45-4.46,7.39-4.36-.27-9.15-2.15-1.35-6.2-2-5.75-4.85.59-3.74,3.24-7.07,5.76-10.08,1.32-1.57,2.59-.07,3.77.57,3.53,2,7,3.94,11.36,6.35,0-4.44.11-8,0-11.47-.12-3,1.12-4,4.09-4.11,10.09-.43,10.08-.54,10.1,9.45,0,1.6,0,3.2,0,5.19,4.34-1.06,7.5-3.7,10.93-5.72,2.56-1.51,4-1.34,5.54,1.38,6.09,10.55,6,8.4-3.51,14.1-1.68,1-3.32,2.08-5.3,3.33,2.62,3,6.08,4.41,9.27,6.07,3.57,1.87,4.55,3.75,2.16,7.54-4.79,7.61-4.58,7.72-12.55,3.08C769.07,113,767.19,112,764.36,110.47Z"/><path class="cls-1" d="M608,62.06c8.59,0,17.19.11,25.78-.06,3.28-.06,4.41,1.17,4.38,4.37-.11,12.66.72,10.15-9.67,10.26-12.58.14-12.58,0-12.58,12.76,0,13.4-.1,26.8.06,40.19,0,3.53-.66,5.21-4.67,5.12-14.2-.35-11.34,1.45-11.5-11.12-.17-13.93-.19-27.87.06-41.8.08-4.13-1.38-5.36-5.23-5.17-4.29.22-8.6-.08-12.89.09-3.09.13-4-1.17-4-4.1.2-13.06-1.22-10.28,9.84-10.52C594.4,61.94,601.2,62.05,608,62.06Z"/></svg>