<svg id="Layer_1" data-name="Layer 1" xmlns="http://www.w3.org/2000/svg" viewBox="0 0 900 200"><defs><style>.cls-1{fill:#fff;}</style></defs><g id="Layer_2" data-name="Layer 2"><g id="Layer_1-2" data-name="Layer 1-2"><path class="cls-1" d="M226,91.94a2.28,2.28,0,0,0,.49-1.93A82.55,82.55,0,0,0,62.7,105c.31,44.51,37.81,81.82,82.32,82A82.59,82.59,0,0,0,224.6,127.2a2.38,2.38,0,0,0-1.47-2.9l-3.4-1.25h0a45.06,45.06,0,0,0-39.7,4.67c-5.33,3.49-9.31,6.43-9.31,6.43a42,42,0,0,1-23.56,7.16c-23.27,0-39.62-19-42.15-42.15l-1.82-12.67a10.85,10.85,0,0,0-6.8-8.55l-4.65-1.8A1.36,1.36,0,0,1,91,74.39a1.57,1.57,0,0,1,.19-.33C111,47.43,135.3,53.2,135.3,53.2a22.87,22.87,0,0,1,10.93,4A28.28,28.28,0,0,1,156,69.38,48.67,48.67,0,0,0,200.69,98.6S219.65,99.37,226,91.94Z"/><circle class="cls-1" cx="113.35" cy="67.3" r="4.81"/><path class="cls-1" d="M114.37,97.32c1.22,7.46,7.11,31.23,33.52,35.63a.34.34,0,0,0,.2-.65h0C141.87,129.48,126,120.23,115,97.05a.34.34,0,0,0-.46-.2A.35.35,0,0,0,114.37,97.32Z"/><path class="cls-1" d="M354.21,126.54c0,33.58-25.53,58.65-58.9,58.65s-58.65-25.07-58.65-58.65c0-34.06,25.3-59.36,58.65-59.36S354.21,92.48,354.21,126.54Zm-81.45,0c0,13.33,9.67,23.23,22.55,23.23s22.81-9.9,22.81-23.23c0-13.81-9.64-23.94-22.81-23.94S272.76,112.68,272.76,126.54Z"/><path class="cls-1" d="M475.65,130.21c0,32.25-22.54,55.07-54.28,55.07s-54.75-22.82-54.75-55V69.48h36.81v60.73c0,12,6.91,19.56,17.94,19.56,10.58,0,17.71-7.59,17.71-19.56V69.48h36.57Z"/><path class="cls-1" d="M566.52,68.57v33.58a73.72,73.72,0,0,0-11.74-1.37c-15.41,0-27.84,8-27.84,29.66v52.45H490.15V69.48h36.79v12a34.24,34.24,0,0,1,28.77-14A62.38,62.38,0,0,1,566.52,68.57Z"/><path class="cls-1" d="M621,35a22,22,0,0,1-43.93,0v0A22,22,0,0,1,621,35Zm-3.67,34.49V182.89H580.54V69.48Z"/><path class="cls-1" d="M744.43,135.73H663.54c2.76,11.74,12.44,19.1,25.08,19.1,11,0,17.25-4.61,18.85-10.81H743.6c-3.55,25.08-24.93,41.26-53.91,41.26a58.88,58.88,0,0,1-59.81-57.9c0-.49,0-1,0-1.46,0-33.19,25.76-58.66,59.11-58.66a55.82,55.82,0,0,1,56.35,55.27v.17C745.34,125.61,744.89,131.6,744.43,135.73ZM706.7,112.5c-.91-9.19-9.66-15.41-19.54-15.41s-18.19,4.6-22.09,15.41Z"/><path class="cls-1" d="M834.26,68.57v33.58a73.47,73.47,0,0,0-11.72-1.37c-15.43,0-27.84,8-27.84,29.66v52.45H757.89V69.48H794.7v12a34.13,34.13,0,0,1,28.75-14A62.28,62.28,0,0,1,834.26,68.57Z"/></g></g></svg>