<svg id="Layer_1" data-name="Layer 1" xmlns="http://www.w3.org/2000/svg" viewBox="0 0 900 200"><defs><style>.cls-1{fill:#fff;}</style></defs><path class="cls-1" d="M199.81,98.38q0-22-.05-44c0-2.08.29-3,2.72-2.89,11.33.23,22.73-.18,34.06.29,12.73.52,24.18,4.57,32.45,15,4.63,5.78,7,12.55,8,19.78a65.8,65.8,0,0,1-1.85,28.86c-5.32,17.29-17.47,26.78-35,29.27-12.9,1.85-26,.4-39,.75-1.79.06-1.44-1-1.44-2.08v-45Zm52.06-1.16a33.9,33.9,0,0,0-.58-8.16c-1.39-9-6-14.46-13.71-16.31-3.29-.81-6.71-.4-10.06-.57-2.2-.12-2.89.46-2.89,2.77.11,14,.06,27.94.06,41.94,0,8.15,0,8.15,8.21,7.63,8.62-.52,14.63-5.21,17.18-13.42A41.76,41.76,0,0,0,251.87,97.22Z"/><path class="cls-1" d="M426.89,74.26c20-.23,33.61,13.36,34.07,34.12.11,6-.29,11.92-2.31,17.59-3.71,10.41-10.82,17.06-21.58,19.66a41.22,41.22,0,0,1-22-.4c-11-3.42-17.81-11-20.88-22A48.49,48.49,0,0,1,394,97.86c3.64-14.29,14.57-23.08,29.38-23.66C424.58,74.26,425.73,74.26,426.89,74.26Zm-10.18,36.15a34.67,34.67,0,0,0,1.68,11.91c1.56,4.4,4.28,6.42,8.5,6.42s7-1.85,8.39-6.48a40.85,40.85,0,0,0,0-23.54C434,94.33,431,92.3,426.83,92.3s-6.82,2.09-8.38,6.19A30.78,30.78,0,0,0,416.71,110.41Z"/><path class="cls-1" d="M329.61,117.06c-6.37,0-12.73.06-19.09-.06-1.74,0-2.08.41-1.74,2.14A12.37,12.37,0,0,0,320,129.2a40.69,40.69,0,0,0,20.36-2.66c2.08-.81,2.54-.17,2.89,1.68a111,111,0,0,0,2.49,10.93c.69,2.26-.12,3-2,3.82-8.27,3.59-17,4-25.74,3.82a39.8,39.8,0,0,1-12.15-2.08c-10.29-3.59-17-10.7-19.72-21.23a52.61,52.61,0,0,1,.12-26.32c3.58-13.88,13.94-22.09,28.34-22.9a48.21,48.21,0,0,1,15.5,1.27c12.55,3.41,20.18,13.65,20.65,27.94.11,3.87-.06,7.69,0,11.56.06,1.68-.52,2.09-2.08,2C342.33,117,336,117.06,329.61,117.06ZM319,101.73c2.78,0,5.55-.06,8.33,0,1.5.06,2-.29,1.74-2-.93-5.55-4.63-9.08-9.84-9.08s-9.25,3.76-10,9.32c-.18,1.21,0,1.79,1.38,1.73C313.41,101.67,316.19,101.73,319,101.73Z"/><path class="cls-1" d="M658.25,117.06c-6.19,0-12.32.11-18.51-.06-2.6-.06-2.78.75-2.2,3,1.33,5.09,5.27,8.56,10.93,9.25a41.58,41.58,0,0,0,20.42-2.6c2.14-.81,2.55-.17,2.89,1.62.81,3.88,1.62,7.75,2.66,11.51.41,1.56.06,2.2-1.33,2.89a42.63,42.63,0,0,1-13.3,3.65c-7.23.75-14.46,1.1-21.57-.52-14.64-3.36-23.72-14-24.82-29.15a58.25,58.25,0,0,1,1.16-18.69c3.47-14.17,14-22.9,28.69-23.65A49.55,49.55,0,0,1,659,75.65c12.49,3.52,20,13.88,20.3,28,.06,3.76-.11,7.52.06,11.28.06,1.91-.64,2.2-2.31,2.14C670.8,117,664.5,117.06,658.25,117.06Zm-10.47-15.33c2.78,0,5.55-.06,8.39,0,1.44,0,1.73-.46,1.5-1.91-.87-5.55-4.57-9.08-9.77-9.14s-9.14,3.59-10.07,9.26c-.23,1.5.23,1.79,1.62,1.79C642.17,101.67,645,101.73,647.78,101.73Z"/><path class="cls-1" d="M607.87,125.21c0,5.67-.06,11,0,16.37,0,1.27-.69,1.62-1.62,2a43.76,43.76,0,0,1-26.61,2.14c-7.69-1.85-12.26-8-13.18-17.07-1-10.64-.35-21.34-.41-32,0-2.6-.75-3.18-3.18-3.06-5.09.17-5.09,0-5.09-5,0-3.64.06-7.34,0-11-.06-1.5.18-2.25,2-2.19,2,.11,4.63.92,5.84-.35s.35-4,.4-6.07c.06-3.3.12-6.54,0-9.84,0-1.5.53-2,1.91-2.19,6.77-1,13.48-2.09,20.19-3.3,1.91-.35,2,.35,2,1.91-.05,5.9.06,11.74-.05,17.64-.06,2,.63,2.37,2.43,2.31,3.47-.11,6.94.06,10.41-.06,1.67,0,2.37.29,2.31,2.2-.17,4.63-.12,9.26,0,13.88.06,1.85-.58,2.32-2.31,2.26-3.65-.12-7.35,0-11-.06-1.33,0-1.85.29-1.85,1.74.05,8.85,0,17.7.05,26.6.06,3.53,2.14,5.44,5.67,5.61C599.89,127.76,603.76,126.37,607.87,125.21Z"/><path class="cls-1" d="M553.21,125.21c0,5.56-.06,10.94.06,16.31a1.92,1.92,0,0,1-1.5,2,43.74,43.74,0,0,1-26.61,2.14c-7.92-1.85-11.57-7.64-13-15.27-1-5.44-.57-10.93-.63-16.43-.06-6.07-.06-12.14.06-18.22,0-1.79-.52-2.25-2.26-2.31-6.07-.06-6.07-.12-6.07-6.19,0-3.35.05-6.77,0-10.12-.06-1.56.46-2.14,2-1.85h.29c6-.06,6-.06,6-6,0-3.35.06-6.76,0-10.12,0-1.16.23-1.68,1.5-1.91,7-1.15,14.06-2.37,21.06-3.7,1.67-.29,1.39.75,1.39,1.68,0,5.9.11,11.74-.06,17.64-.06,2,.34,2.72,2.49,2.6,3.52-.17,7.11,0,10.7-.11,1.5-.06,2,.34,2,1.91-.11,4.8-.11,9.65,0,14.46.06,1.56-.52,2-2,1.9-3.65-.11-7.35,0-11,0-1.57-.06-2.2.4-2.14,2.08.11,8.38,0,16.77,0,25.16.06,4.8,2.26,6.82,7,6.71C546.1,127.47,549.51,126.26,553.21,125.21Z"/><path class="cls-1" d="M383.63,98.26c0,14.87-.06,29.67.06,44.54,0,2.08-.35,2.83-2.67,2.77-6.36-.17-12.72-.11-19.08,0-1.74,0-2.32-.46-2.26-2.25q.09-44.94,0-89.94c0-2.08.81-2.32,2.49-2.26,6.25.12,12.55.12,18.8,0,2.14-.06,2.72.46,2.72,2.66C383.57,68.59,383.63,83.4,383.63,98.26Z"/><path class="cls-1" d="M470.21,110.23c0-10.7.06-21.4,0-32.1,0-2.37.69-2.83,2.89-2.77,6.24.11,12.49.11,18.79,0,1.57,0,2.15.34,2.15,2q-.09,33,0,65.88c0,1.85-.58,2.26-2.32,2.2-6.25-.12-12.55-.12-18.8,0-2.14.06-2.77-.47-2.71-2.66C470.27,132,470.21,121.11,470.21,110.23Z"/><path class="cls-1" d="M712.27,133.48a13.65,13.65,0,1,1-27.3-.11,13.62,13.62,0,0,1,27.24-.17A.58.58,0,0,1,712.27,133.48Z"/><path class="cls-1" d="M482.07,51.12c3.3,0,6.54.12,9.83-.06,1.74-.05,2.09.52,2.09,2.14-.12,3.94-.06,7.93,0,11.86,0,1.45-.41,2-2,2-6.65-.06-13.3-.06-19.9,0-1.62,0-1.91-.64-1.91-2q.09-6.08,0-12.15c0-1.38.41-1.85,1.8-1.79C475.3,51.18,478.72,51.12,482.07,51.12Z"/></svg>