<svg id="Layer_1" data-name="Layer 1" xmlns="http://www.w3.org/2000/svg" viewBox="0 0 900 200"><defs><style>.cls-1{fill:#fff;}</style></defs><path id="e" class="cls-1" d="M287.1,48.52c-31.6,0-57.93,13.41-57.93,53.85,0,32,17.71,52.22,58.75,52.22,48.3,0,51.4-31.82,51.4-31.82H315.91s-5,17.13-29.42,17.13c-19.88,0-34.17-13.42-34.17-32.24h89.45V95.85c0-18.62-11.82-47.33-54.67-47.33Zm-.81,15.1c18.92,0,31.82,11.59,31.82,29H252.83C252.83,74.14,269.67,63.62,286.29,63.62Z"/><path id="b" class="cls-1" d="M341.75,9.36V134.28c0,7.09-.51,17.05-.51,17.05h22.33s.8-7.15.8-13.69c0,0,11,17.26,41,17.26,31.58,0,53-21.93,53-53.34,0-29.23-19.7-52.73-53-52.73-31.16,0-40.85,16.83-40.85,16.83V9.36Zm57.93,54.92c21.44,0,35.08,15.92,35.08,37.28,0,22.9-15.75,37.88-34.93,37.88-22.89,0-35.24-17.87-35.24-37.68C364.59,83.3,375.67,64.28,399.68,64.28Z"/><path id="a" class="cls-1" d="M513.9,48.52c-47.53,0-50.58,26-50.58,30.19H487s1.24-15.19,25.29-15.19c15.63,0,27.74,7.15,27.74,20.9v4.9H512.27c-36.83,0-56.3,10.77-56.3,32.63,0,21.52,18,33.23,42.3,33.23,33.13,0,43.81-18.31,43.81-18.31,0,7.28.56,14.46.56,14.46h21s-.81-8.9-.81-14.59V87.56c0-32.25-26-39-49-39ZM540,104v6.53c0,8.51-5.25,29.68-36.18,29.68-16.93,0-24.19-8.45-24.19-18.26,0-17.83,24.45-18,60.37-18Z"/><path id="y" class="cls-1" d="M550.12,52.61h26.61l38.21,76.53,38.11-76.53h24.11L607.74,188.86H582.45l20-38Z"/></svg>