<svg id="Layer_1" data-name="Layer 1" xmlns="http://www.w3.org/2000/svg" viewBox="0 0 871 217.6"><defs><style>.cls-1{fill:#fff;}</style></defs><path class="cls-1" d="M342.09,108.83c0-11.08.05-22.17,0-33.25,0-2.34.74-3.12,3.1-3.11q24.84.12,49.66,0c2.53,0,3.35.82,3.13,3.24a42.16,42.16,0,0,0,0,5.62c.09,2.2-.87,3-3.07,3-12.39,0-24.79,0-37.18-.07-2.3,0-3.13.49-3,2.92.2,4.15.05,8.31,0,12.47,0,3.24,0,3.25,3.13,3.25h27.89c4.2,0,4.21,0,4.21,4.08,0,1.3,0,2.61,0,3.91,0,3.58-.08,3.63-3.79,3.64-5.3,0-10.6,0-15.9,0-4.49,0-9,0-13.46,0-1.6,0-2.13.53-2.1,2.13.08,4.8.11,9.62,0,14.42,0,1.93.74,2.29,2.46,2.28,12.8-.05,25.6,0,38.4,0,3,0,3.23.26,3.27,3.16,0,1.79,0,3.59,0,5.38,0,3-.2,3.23-3.16,3.24-5.14,0-10.28,0-15.41,0H345.51c-3.27,0-3.42-.15-3.42-3.5Q342.08,125.2,342.09,108.83Z"/><path class="cls-1" d="M287.21,134.4a21,21,0,0,0,16.43-6.56,2.79,2.79,0,0,1,3.54-.67c2.57,1.24,5.17,2.41,7.71,3.68,1.88,1,.89,2.15.09,3.19a29,29,0,0,1-14.58,10.18c-10.6,3.35-21.25,3.4-31.46-1.26-9.9-4.51-15.78-12.51-18.13-23.1-2.4-10.86-1.58-21.37,3.88-31.2,6.2-11.18,16.06-16.72,28.63-17.54,9.3-.6,18,1.19,25.4,7.31a34.71,34.71,0,0,1,6.83,7.92c1,1.48.69,2.63-.85,3.4-2.47,1.25-5,2.4-7.46,3.63-1.46.73-2.23,0-3-1.11A22.59,22.59,0,0,0,271.34,88c-5.11,4.27-7.48,10-8.24,16.36-1.17,9.87.7,18.86,8.7,25.61C276.06,133.6,281.21,134.63,287.21,134.4Z"/><path class="cls-1" d="M760,72.77c4.22-.55,8.45-.19,12.68-.21,2.24,0,1.35,1.34.64,2.2-2.57,3.15-5.17,6.29-7.87,9.32a230.09,230.09,0,0,1-22.28,22.21c-1.16,1-1.37,1.59,0,2.75a299.13,299.13,0,0,1,33.32,33.18c.56.65,1.59,1.3,1.22,2.23-.45,1.16-1.71.61-2.62.62-3.5.05-7,0-10.51,0a3.38,3.38,0,0,1-2.89-1c-2.19-2.6-4.42-5.19-6.63-7.78-1.7-2.84-4.28-4.89-6.54-7.21-2.9-3-5.91-5.84-8.79-8.84-1.68-1.75-3.84-2.91-5.43-4.82-1.78-2.13-4.6-1.63-7-1.77-1.43-.07-1.85,1.17-1.84,2.61,0,7.83,0,15.65,0,23.48,0,.81,0,1.63,0,2.44-.09,1.54-.75,2.4-2.45,2.35-2.11-.07-4.24-.06-6.36,0a2,2,0,0,1-2.35-2.16c-.06-.73,0-1.47,0-2.2q0-31.92,0-63.83c0-1.27-.28-2.64.75-3.72a29,29,0,0,1,5.82,0,2.13,2.13,0,0,0,1.57.51c2.83.19,3,.34,3,3.16.05,7.58,0,15.15,0,22.73,0,3.37.12,3.38,3.42,3.49a7.26,7.26,0,0,0,5.84-2.16c4.61-4.49,9.32-8.89,13.62-13.65C752.38,82.21,756.56,77.78,760,72.77Z"/><path class="cls-1" d="M93.24,108.62c0-11,0-22,0-33,0-2.29.65-3.13,3.06-3.12,16.07.09,32.14,0,48.21,0,3,0,3.21.23,3.22,3.2,0,1.87-.05,3.75,0,5.62.08,2.2-.89,3-3.09,3-12.07-.07-24.14,0-36.22-.08-2.15,0-3,.46-2.89,2.81.2,4.72.13,9.46,0,14.18,0,1.83.57,2.4,2.38,2.39,9.71-.07,19.42,0,29.12,0,3.33,0,3.37.07,3.37,3.46,0,1.55,0,3.1,0,4.65,0,3.4-.06,3.47-3.39,3.48-8.64,0-17.29,0-25.93,0-5.51,0-5.51,0-5.51,5.61,0,7.09-.06,14.18,0,21.28,0,2.21-.77,3.15-3,3-2-.11-4.08,0-6.12,0-3,0-3.25-.3-3.25-3.21q0-16.64,0-33.26Z"/><path class="cls-1" d="M715,72.65q0,34.57-.07,69.14c0,1.87.6,2.46,2.39,2.3,2.34-.22,5.32.94,6.86-.46s.51-4.46.54-6.79c.07-6.84,0-13.68,0-20.52,0-2.84,1.39-3.24,4.25-3,2.24.19,5,.18,5.93,1.72,1.33,2.22,3.54,3,5.12,4.62,4.16,4.34,8.48,8.53,12.74,12.79a7.35,7.35,0,0,1,2.28,3.88c-4.05-4-8.07-8-12.15-12-2.81-2.72-5.77-5.27-8.53-8a7.47,7.47,0,0,0-6.15-2.2c-1.7.09-2.2.58-2.18,2.29.08,8.23,0,16.47,0,24.7,0,3.82-.22,4-4,4-2,0-3.92-.06-5.87,0s-2.78-.71-2.75-2.74c.09-5.79,0-11.57,0-17.36q0-24.83,0-49.65C713.53,74.28,713,72.76,715,72.65Z"/><path class="cls-1" d="M760,72.77a2.82,2.82,0,0,1-.83,2.17c-2.69,3.06-5.47,6.09-8,9.23-4.19,5.22-9.28,9.49-13.72,14.42-1.12,1.24-2.73,2-3.59,3.52A1.94,1.94,0,0,1,732,103c-1.31,0-2.61,0-3.92,0-2.68,0-3.32-.64-3.32-3.3,0-7.66-.07-15.32,0-23,0-2.12-.19-3.55-2.8-3.12-.67.11-1.07-.29-1.16-1,5.29-.42,5.29-.42,5.28,4.89,0,6.91-.06,13.82,0,20.74,0,1.24-.88,3.24.86,3.61,1.94.41,4.18.89,6-.8,6.71-6.16,13-12.67,19.12-19.46C754.76,78.66,756.73,75.13,760,72.77Z"/><path class="cls-1" d="M483.8,109.58a27,27,0,0,0-6.32-2.4,1.8,1.8,0,0,1,1.24-1.19c6.11-2.56,9.29-7.18,9.52-13.77s-1.88-12.3-8-15.87c-4.94-2.88-10.32-3.81-15.93-3.82q-15.9,0-31.81,0c-3.49,0-3.57,0-3.58,3.62q-.11,32.77-.14,65.54c0,3,.43,3.4,3.37,3.41,11.5,0,23,0,34.51,0a38,38,0,0,0,12.73-2c7-2.5,12-6.93,12.88-14.73S491.2,113.77,483.8,109.58ZM441.19,86c0-1.26.07-2.27,1.77-2.22,8.14.25,16.31-.53,24.44.54,4.8.64,7.87,3.64,8.27,8.18.43,5-1.94,8.53-6.81,9.87s-9.75.42-13.86.69c-4.35,0-7.94,0-11.53,0-1.61,0-2.32-.36-2.28-2.17C441.3,96,441.23,91,441.19,86Zm37.52,42.49c-1.77,3.4-5,4.43-8.52,4.83a16.32,16.32,0,0,1-1.71.09h-12v.05c-4.4,0-8.8-.05-13.2,0-1.58,0-2.14-.51-2.11-2.11.07-5,0-10.1,0-15.14,0-1.2.17-2.08,1.69-2,9.28.27,18.57-.56,27.83.5C478.12,115.58,482,122.27,478.71,128.52Z"/><path class="cls-1" d="M669.11,75.39c-7.51-4.1-15.69-4.83-24-4.2-12.37.94-22.43,6.19-28.73,17.2-5,8.83-6.07,18.47-4.35,28.38,1.51,8.69,5.41,16.14,12.4,21.76a35.88,35.88,0,0,0,20.92,7.74c10,.61,19.6-.56,27.89-6.72,10.21-7.58,14.24-18.19,14.48-31.62C687.37,94.54,682.42,82.65,669.11,75.39Zm2,47.47c-4.72,8.48-12.41,11.82-21.14,11.58-11.57,0-19.67-4.41-23.61-14.85-3.79-10.06-2.25-23.92,6.41-31.1,7.45-6.17,16.13-6.68,25-4.41,8.67,2.23,13.77,8.38,15.76,16.94C675.29,108.51,675,116,671.16,122.86Z"/><path class="cls-1" d="M551.6,71.08a33.53,33.53,0,0,0-8.47.72c-11.18,2.26-19.84,8-24.93,18.46-4.38,9-5,18.4-3,28.08,2.43,11.64,8.92,20.13,19.87,24.86,9.72,4.19,19.82,4.2,29.92,1.57a32.3,32.3,0,0,0,20.94-16.65,39,39,0,0,0,4.48-17.57c.34-11.18-2.41-21.34-10.61-29.39C572.22,73.72,562.81,70.92,551.6,71.08Zm25.31,43.1h0c0,3.27-.51,6.39-3.07,8.78-5,8.8-13,11.63-22.56,11.49-17.64-.25-25.6-14.27-23.66-30,1.06-8.63,4.9-15.69,13.18-19.16,12.42-5.21,31.7-2.91,35.89,17.05C577.51,106.2,577.21,110.21,576.91,114.18Z"/><path class="cls-1" d="M576.91,114.18h0c-.67,3-1.08,6.19-3.07,8.78C576.4,120.57,576.87,117.45,576.91,114.18Z"/><path class="cls-1" d="M231.39,141.3c-2.4-7.51-4.7-15.06-7.31-22.5a474.41,474.41,0,0,0-18-43.94c-.77-1.66-1.77-2.55-3.73-2.38s-4.08,0-6.11,0c-2.21,0-4.41.09-6.61,0-1.8-.1-2.73.59-3.5,2.25q-10.43,22.47-18.61,45.84c-2.44,7-4.75,14-6.84,21.1-.86,2.91-.46,3.42,2.63,3.43,2.37,0,4.73-.09,7.09,0,1.91.08,2.77-.8,3.25-2.55,1.38-5,2.94-10,4.28-15a2.38,2.38,0,0,1,2.76-2q15.16.08,30.33,0a2.45,2.45,0,0,1,2.75,2.11c1.39,5,3,9.94,4.3,15a2.86,2.86,0,0,0,3.27,2.5c2.36-.07,4.72,0,7.09,0C232,145.11,232.45,144.63,231.39,141.3Zm-24.56-27c-3.66-.1-7.33,0-11,0s-7.5,0-11.25,0c-1.53,0-2-.27-1.39-2,2.4-6.81,5.21-13.47,8-20.15.92-2.26,1.93-4.47,2.94-6.69.32-.71.55-1.59,1.63-1.57a2.07,2.07,0,0,1,2,1.49c3.86,8.78,7.42,17.67,10.79,26.64C209.14,113.78,208.7,114.36,206.83,114.31Z"/></svg>