<svg id="Layer_1" data-name="Layer 1" xmlns="http://www.w3.org/2000/svg" viewBox="0 0 900 200"><defs><style>.cls-1,.cls-2{fill:#fff;}.cls-1{fill-rule:evenodd;}</style></defs><path class="cls-1" d="M861.57,52h2.37c1.21,0,2.49.27,2.49,1.69,0,1.76-1.31,1.87-2.79,1.87h-2.08V57h2l3,5h1.94l-3.26-5.05a3,3,0,0,0,3-3.16c0-2.26-1.34-3.26-4-3.26h-4.37V62h1.74V52Z"/><path class="cls-2" d="M350.66,25.36c0,.43.21,1.06.21,1.48v36.6c0,1.7-.43,2.54-2.33,2.33h-.21c-2.33.21-5.71-1.06-7,.63s-.42,4.45-.42,7V143.2a6.47,6.47,0,0,1-1.7,4.45c-7.82,8-15.44,16.29-23.06,24.54a6.92,6.92,0,0,1-5.29,2.33H262.43a5.36,5.36,0,0,1-4.23-1.91c-7.82-8.46-15.65-16.71-23.69-25a4.82,4.82,0,0,1-1.48-4V68.94c0-2.32-.43-3.38-3-3.17a41,41,0,0,1-5.08,0c-1.06,0-1.69-.21-1.69-1.48.21-12.91-.22-25.81.21-38.72h60.08v38.3c0,1.48-.42,2.11-2.12,2.11h-2.12c-1.69-.21-2.11.43-2.11,2.12v64.53c0,1.9.63,2.11,2.32,2.11,4.66,0,9.1-.21,13.75,0,2.12,0,2.75-.42,2.75-2.75V70.43c0-4.45,0-4.66-4.65-4.45-2.12,0-2.54-.63-2.54-2.54V25.57ZM237.68,103v39.56a3.91,3.91,0,0,0,1.06,3.39c7,7.4,14.17,14.8,21.15,22.21a3.34,3.34,0,0,0,2.54,1.27h48.66a3.1,3.1,0,0,0,2.54-1.06c7-7.19,14-14.6,20.95-21.58a5.64,5.64,0,0,0,1.69-4.66V64.29c0-3.81-.42-3.17,3.17-3.38h4.87c1.69,0,2.12-.43,1.9-2.12V32.34c0-1.69-.63-2.32-2.32-2.32H297.76c-2.11,0-2.32.84-2.32,2.54,0,8.25.21,16.5,0,25,0,2.54.63,3.81,3.38,3.17,1.91-.42,2.54.43,2.54,2.33v70.87a4.57,4.57,0,0,1-4,5.06l-.2,0H278.51c-3.81,0-5.71-1.69-5.71-5.71V65.14c0-4,0-4,4-4,1.48,0,2.12-.21,2.12-1.91V32.56c0-1.27,0-2.12-1.7-2.12H229.85c-1.27,0-1.69.43-1.69,1.69V59.21c0,1.48.42,1.7,1.69,1.7h5.5c1.69,0,2.54.63,2.54,2.53C237.47,76.56,237.68,89.89,237.68,103Z"/><path class="cls-2" d="M148.19,25.36c0,16.08,0,32,.21,48,0,1.48-.42,1.9-1.9,1.9h-41c-1.48,0-1.9-.63-1.69-1.9V67.25c0-1.06-.43-1.48-1.48-1.48H86.83c-1.27,0-1.69.42-1.69,1.69V81.22c0,1.9,1.27,1.69,2.32,1.69h27.93c2.32,0,2.75.63,2.75,2.75-.21,11.21-.21,22.42,0,33.43,0,2.11-.63,2.53-2.54,2.53-9.31-.21-18.83,0-28.14-.21-1.9,0-2.54.64-2.32,2.33.21,3,0,5.92,0,8.89,0,1.48.42,1.9,1.9,1.9h5.5c1.7,0,2.12.63,2.12,2.12V172c0,2.12-.64,2.33-2.54,2.33H31.61c-1.27,0-1.69-.22-1.69-1.7V136.22c0-1.48.42-1.9,1.91-1.9a48,48,0,0,1,5.5,0c2.53.21,3-.85,3-3-.21-10,0-19.89,0-29.62V68.52c0-1.9-.43-2.75-2.54-2.54a45.72,45.72,0,0,1-5.5,0c-1.69,0-2.54-.42-2.54-2.32V25.36ZM88.74,30.44H36.9c-1.27,0-2.54-.21-2.54,1.69V59.21c0,1.48.64,1.7,1.91,1.7h6.35c2.11,0,2.32.42,2.32,2.32v73.42c0,1.9-.21,2.75-2.54,2.53a47.69,47.69,0,0,0-5.5,0c-1.69,0-2.54.64-2.54,2.54.21,8.47.21,16.72,0,25.18,0,2.12.85,2.75,2.75,2.54H87.46c1.06,0,2.12.21,2.12-1.48V140.45c0-1-.42-1.48-1.48-1.48H82c-2.12,0-2.12-.63-2.12-2.11,0-6.14.21-12.28,0-18.62,0-1.91.63-2.33,2.32-2.33h28.14c2.12,0,2.54-.63,2.54-2.54,0-7.82-.21-15.65,0-23.69,0-2.12-.42-3-2.75-3-9.31.21-18.62,0-27.93,0-1.26,0-2.32.21-2.32-1.7V62c0-1.27.42-1.69,1.69-1.69h25.39c1.48,0,1.69.42,1.69,1.9a41,41,0,0,1,0,5.08c-.21,2.12.64,2.54,2.54,2.54h29.2c2.11,0,2.53-.63,2.53-2.54,0-11.63-.21-23.27,0-34.69,0-2.12-.63-2.75-2.75-2.75-16.92.63-34,.63-51.4.63Z"/><path class="cls-2" d="M218.22,25.36c0,12.48-.22,25,0,37.66,0,2.32-.85,3-3,3a48,48,0,0,0-5.5,0c-1.06,0-1.48.42-1.48,1.48v64.11c0,2.12.42,3.17,2.75,3s5.29-1.06,6.77.42.43,4.45.43,6.56v30.05c0,1.9-.22,2.53-2.33,2.53H155.8c-1.69,0-2.32-.42-2.32-2.11V136.65c0-1.7.42-2.33,2.32-2.33h5.93c2.11,0,2.11-.42,2.11-2.12V68.1c0-2.12-.63-2.76-2.75-2.54-2.32,0-5.5,1-7-.43-1.48-1.69-.42-4.65-.42-7.19V25.15Zm-49.94,74.69v36.81c0,1.9-.42,2.54-2.32,2.54h-5.29c-1.69,0-2.33.21-2.33,2.11v25.81c0,1.7.43,2.33,2.33,2.33H211c2.12,0,2.54-.85,2.54-2.54,0-8.46-.21-16.71,0-25.17,0-2.12-.63-2.76-2.75-2.54a25.69,25.69,0,0,1-4,0c-2.75.21-3.6-.64-3.6-3.18V62.39c0-1.06.43-1.48,1.48-1.48h6.57c1.26,0,1.69-.43,1.69-1.7V32.13c0-1.27-.43-1.69-1.69-1.69H160.46c-1.27,0-2.54-.21-2.54,1.69V59.21c0,1.48.63,1.7,1.9,1.7a55.82,55.82,0,0,0,5.93,0c1.9-.22,2.53.63,2.53,2.53Z"/><path class="cls-2" d="M384.72,25.36c0,1.06-.21,2.12-.21,3.39V171.13c0,3-1.27,3.81-4.24,3.17a1,1,0,0,1-.84-1.05V25.36Z"/><path class="cls-2" d="M876.18,102.58c-7.19,0-14.17.22-21.36,0-2.33,0-2.33,1.06-2.12,2.75a7.81,7.81,0,0,0,9.68,5.31l0,0a8.34,8.34,0,0,0,3.39-2.11,5.44,5.44,0,0,1,5.28-1.91c1.27,0,3.39-.63,3.81.21.64,1.27-.63,2.75-1.48,4-3.38,5.71-9.94,7.83-18,6.35a15.56,15.56,0,0,1-12.06-12.91c-1.69-9.52,2.75-17.77,10.79-20.52a16,16,0,0,1,20.52,9.1,11.27,11.27,0,0,1,.64,2.54c.21.42-.22,1.27.63,1.48Zm-8.88-5.71a26.79,26.79,0,0,0-1.06-3.17,6.41,6.41,0,0,0-7.19-3.6,6.76,6.76,0,0,0-6.14,5.29c-.21,1.06-.42,1.9,1.06,1.69,4.23-.21,8.67-.21,13.33-.21Z"/><path class="cls-2" d="M413.7,93.91V73.6c0-1.48.22-2.33,2.12-2.12a30.63,30.63,0,0,0,6.35,0c1.48,0,1.69.43,1.69,1.7V86.93c0,1.48.42,1.9,1.9,1.9,4.87,0,9.74-.21,14.39,0,1.69,0,1.91-.63,1.91-2.12V73.6c0-1.9.63-2.33,2.32-2.12a30.63,30.63,0,0,0,6.35,0c1.06,0,1.48.43,1.48,1.48v42.32c0,1.27-.42,1.69-1.48,1.69H444c-1.49,0-1.7-.63-1.7-1.69V99.62c0-1.48-.42-2.11-1.9-2.11-4.87,0-9.73.21-14.39,0-1.69,0-1.9.63-1.9,2.11v15.45c0,1.48-.42,2.11-1.91,2.11a24.09,24.09,0,0,0-5.5,0c-1.9.21-2.53-.42-2.53-2.32C413.7,107.66,413.7,100.89,413.7,93.91Z"/><path class="cls-2" d="M829,111.47c-8.47,8-20.31,4.87-23.07-6.14a21.09,21.09,0,0,1,1.7-15.65c4.23-8,16.5-8.89,20.94-2.33a.73.73,0,0,0,.43-.21c-.43-2.75.84-3.38,3.38-3.17,5.5.21,5.5,0,5.5,5.5,0,9.31,0,18.41-.21,27.71a11.11,11.11,0,0,1-8.89,11,22.81,22.81,0,0,1-15.44-.21,10.67,10.67,0,0,1-7-7.41c-.43-1.48,0-1.69,1.48-1.69h5.92a2.31,2.31,0,0,1,2.12,1.27c1.69,2.75,4.44,3.81,8.25,3a6.31,6.31,0,0,0,4.87-5.92A51.93,51.93,0,0,0,829,111.47Zm0-11.85a28.61,28.61,0,0,0-.43-4.23,7,7,0,0,0-13.54,0,13.52,13.52,0,0,0,.64,9.94,6.32,6.32,0,0,0,7.4,3.81C826.89,108.08,829.22,104.7,829,99.62Z"/><path class="cls-2" d="M687,86.93h-1.69a3.06,3.06,0,0,1-3.59-2.12V84.6c-2.75-7-13.33-7.83-18.2-1.48-4.23,5.5-4.23,16.5,0,22a10.48,10.48,0,0,0,11.21,4,9.19,9.19,0,0,0,7.62-7.62c.42-2.11,1.27-2.53,3.17-2.32H689c4.23,0,4.23,0,3.17,4.23-3,11.85-15.44,17.56-27.71,13.11-8.47-3.17-14-11.21-14-21.79,0-9.73,3.18-18.19,12.7-22.42A21.81,21.81,0,0,1,686,74.65a17,17,0,0,1,6.13,9.95c.43,1.9,0,2.53-1.9,2.32A7.92,7.92,0,0,0,687,86.93Z"/><path class="cls-2" d="M789.23,102.58h-9.94c-1.91,0-2.12.64-1.7,2.12a6.32,6.32,0,0,0,4.66,5.5c3.17.85,6.35.85,8.46-1.69a6,6,0,0,1,5.71-2.12c1.27,0,3.18-.63,3.6.21s-.85,2.75-1.48,3.81c-3.38,5.5-9.73,8-16.71,6.77a15,15,0,0,1-13.12-12.48C767,96,770.19,88,777.17,84.6a16.25,16.25,0,0,1,16.93.64c5.5,3.59,7.19,9.3,7.19,15.65,0,1.48-.63,1.48-1.69,1.48C796,102.58,792.62,102.58,789.23,102.58Zm-4.65-5.71h5.5c1.9,0,1.69-.63,1.27-1.69A6.56,6.56,0,0,0,785,89.89a7.13,7.13,0,0,0-7.4,4.87c-.64,1.69-.22,2.32,1.69,2.11Z"/><path class="cls-2" d="M569,100.47c0,10.58-6.56,17.35-16.92,17.35s-17.14-6.77-17.14-17.56c0-10.58,6.77-17.35,16.92-17.35C562.22,83.12,569,89.89,569,100.47Zm-9.1.21a13.31,13.31,0,0,0-1.48-7,6.84,6.84,0,0,0-6.77-3.81,6.91,6.91,0,0,0-6.34,4.23,15.4,15.4,0,0,0,0,12.27,7.43,7.43,0,0,0,9.94,3.6,8.28,8.28,0,0,0,3.81-3.81,9.73,9.73,0,0,0,.84-5.5Z"/><path class="cls-2" d="M492.62,100.47c0,10.58-6.77,17.35-17.14,17.35s-16.93-7-16.93-17.35,6.56-17.35,16.93-17.35S492.62,89.68,492.62,100.47Zm-9.1,0a15,15,0,0,0-1.06-6.14,7.16,7.16,0,0,0-7-4.23,6.87,6.87,0,0,0-6.56,4.66,15.34,15.34,0,0,0,.21,11.84,6.69,6.69,0,0,0,6.77,4.23,6.86,6.86,0,0,0,6.77-4.44,19.15,19.15,0,0,0,.85-5.92Z"/><path class="cls-2" d="M731.26,100.47c0,10.58-6.56,17.35-16.92,17.35s-17.14-7-17.14-17.56S704,82.91,714.13,82.91C724.49,83.12,731.26,89.89,731.26,100.47Zm-9.1.21a12.23,12.23,0,0,0-1-6.14,6.71,6.71,0,0,0-7-4.44,6.45,6.45,0,0,0-6.77,4.66,15.69,15.69,0,0,0,0,11.63,6.45,6.45,0,0,0,7,4.44,6.61,6.61,0,0,0,6.77-4.65A15.94,15.94,0,0,0,722.16,100.68Z"/><path class="cls-2" d="M507.21,88a13.2,13.2,0,0,1,12.7-4.87A9.22,9.22,0,0,1,528.79,92c1.06,7.83.21,15.66.43,23.49,0,1.06-.43,1.27-1.27,1.27h-6.56c-1.7,0-1.27-1.06-1.27-1.91V98.56a20.13,20.13,0,0,0-.21-3.38c-.64-3.6-2.12-5.08-5.08-5.29a5.78,5.78,0,0,0-6.76,4.59v.06h0a26.53,26.53,0,0,0-.43,9.1v11c0,1.49-.42,2.12-1.9,1.91h-.21c-2.33,0-5.29.63-6.56-.42s-.42-4.24-.42-6.56V85.66c0-1.69.42-2.54,2.11-2.33H503C506.79,84,506.79,84,507.21,88Z"/><path class="cls-2" d="M622.94,93.7h-2.75c-.85,0-1.27-.21-1.48-1.06-1.27-3.17-7-4.65-9.73-2.54a2.49,2.49,0,0,0-.74,3.45l.1.15a1.43,1.43,0,0,0,1.27.84,31.55,31.55,0,0,0,5.93,1.91,36.22,36.22,0,0,1,6.77,1.9,8.16,8.16,0,0,1,5.92,6.77,10.25,10.25,0,0,1-3.81,9.73c-5.29,4-16.92,4-22.42,0a10.79,10.79,0,0,1-4-6.56c-.22-1.27-.22-2.32,1.69-2.11h3.59c1.91,0,3.18-.22,4,2.32,1.27,3.81,8.68,4.23,11.22,1.27a3.21,3.21,0,0,0,0-4.23,5,5,0,0,0-1.06-.64,30.1,30.1,0,0,0-7.41-2.32,23.68,23.68,0,0,1-5.5-1.7,7.43,7.43,0,0,1-5.71-7.19A8.38,8.38,0,0,1,603.69,85a22,22,0,0,1,18.62,0,9.53,9.53,0,0,1,5.07,6.34c.64,1.91.21,2.75-1.9,2.33Z"/><path class="cls-2" d="M753.69,93.91V73.39c0-1.48.42-2.12,1.9-1.91a23,23,0,0,0,5.5,0c1.48,0,1.7.43,1.7,1.7v41.89c0,1.48-.43,1.9-1.91,1.9-2.32-.21-5.5.63-6.77-.42s-.42-4.45-.42-6.77C753.48,104.49,753.69,99.2,753.69,93.91Z"/><path class="cls-2" d="M746.28,94.33v20.52c0,1.7-.42,2.12-2.11,2.12-2.33-.21-5.29.85-6.56-.42-1.49-1.27-.43-4.23-.43-6.56V74.23c0-1.9.21-3,2.54-2.75s5.08-.84,6.35.43c1.27,1.48.42,4,.42,6.13C746.28,83.54,746.28,88.83,746.28,94.33Z"/><path class="cls-2" d="M583.8,89.26a12.08,12.08,0,0,1,9.73-6.14c1.7-.21,2.75.21,2.54,2.32v1.49a9.46,9.46,0,0,1-.21,4.23c-.85,1.48-2.54.21-3.81.21A8.06,8.06,0,0,0,584.22,99a126.5,126.5,0,0,0-.42,15.45c0,1.69-.21,2.54-2.33,2.32s-5.07.64-6.34-.42-.43-4.23-.43-6.56V85.86c0-1.69.21-2.53,2.12-2.32h1.27C583.17,84,583.17,84,583.8,89.26Z"/></svg>