<?xml version="1.0" encoding="utf-8"?>
<!-- Generator: Adobe Illustrator 25.4.1, SVG Export Plug-In . SVG Version: 6.00 Build 0)  -->
<svg version="1.1" id="Layer_1" xmlns="http://www.w3.org/2000/svg" xmlns:xlink="http://www.w3.org/1999/xlink" x="0px" y="0px"
	 viewBox="0 0 900 200" style="enable-background:new 0 0 900 200;" xml:space="preserve">
<style type="text/css">
	.st0{fill:#FFFFFF;}
</style>
<path class="st0" d="M490.2,145.9c-1.9,0-3.5-1.5-3.6-3.4c0-1.9,1.4-3.5,3.3-3.6c1.9-0.1,4,1.8,3.9,3.6S492,145.8,490.2,145.9z"/>
<path class="st0" d="M851,123.1c-4.4,1.1-8.9,1-13.3-0.3c-2.4-0.7-4.1-2.8-4.2-5.3c-0.4-3.3-0.4-6.6-0.5-10c-0.1-3,0-6.2,0-9.4
	c-1.8-0.3-3.4-0.4-5.2-0.7v-7.1c1.6-0.1,3.3-0.3,5.2-0.6v-9.4h11.2v9.4c2.5,0.1,4.7,0.3,7,0.3v7.5h-6.8v10.3c0,6.8,0,6.8,6.6,7.2
	h0.3C851,117.8,851,120.4,851,123.1z"/>
<path class="st0" d="M507.4,107.8l-7.2-0.4v-9h19.1v25h-7.5c-0.4-1.2-0.7-2.5-1-3c-3.3,1.4-6.4,3.1-9.7,3.7
	c-10.8,1.9-21.4-4.7-24.3-15.3c-2.9-10-1.4-19.1,6.6-26.7s23.1-7.2,30.9,0.4c2.9,2.9,4.8,6.3,4.7,10.8h-11.8c-1.2-3.3-3.4-5.3-7-5.7
	c-6.8-0.7-11.4,3.1-11.9,10.5c-0.2,2.5,0,5,0.5,7.4c1.2,5.6,6.6,9.2,12.2,8c1.6-0.3,3.1-1,4.3-2c1-0.9,1.9-1.9,2.6-3
	C507.8,108.4,507.7,108.1,507.4,107.8z"/>
<path class="st0" d="M748.6,123.4h-10.8c-0.2-1.1-0.3-2.2-0.4-3.3v-16.7c0-2.3-0.7-4.1-3.3-4.6s-4.8,0.7-5.1,3.4
	c-0.4,3.6-0.4,7.2-0.5,10.9c-0.1,3.3,0,6.4,0,10.1h-11.2v-14.8c0-2.2-0.1-4.3-0.4-6.4c-0.1-1.8-1.5-3.1-3.3-3.1
	c-2.2-0.1-3.8,0.5-4.5,2.7c-0.4,1.5-0.7,3.1-0.7,4.7c-0.1,4.7,0,9.3,0,13.9c0,1-0.1,1.9-0.3,3.3H697V90.4h10.5
	c0.3,0.8,0.4,1.8,0.8,3c2.6-2.6,5.6-4.2,9.3-4.1s6.8,1.4,8.8,4.2c2.7-1.4,5.2-3.1,7.8-3.8c5.7-1.5,13.7,0.3,14.2,9.7
	C749,107,748.6,115.1,748.6,123.4z"/>
<path class="st0" d="M512.9,38.9h-11.6c-1.9-4.5-5.3-6.3-9.6-4.9c-1.2,0.4-2.7,1.8-2.9,2.9s1.2,2.7,2.5,3.1c2.9,1.1,5.9,1.6,8.9,2.6
	c2.9,0.9,5.7,2,8.3,3.3c9.2,4.7,7,17.4,1.4,21.7c-7.5,5.9-22.8,5.7-30.1-0.4c-3.5-2.9-5.2-7.3-4.6-11.8h11.5
	c0.1,0.1,0.3,0.4,0.4,0.6c2,5.5,7.1,7.8,12.4,5.2c1.3-0.7,2.2-1.9,2.6-3.3c0.1-1-1.1-2.7-2.2-3.1c-2.7-1.2-5.9-1.9-8.8-2.9
	s-5.6-1.6-8.2-3c-8.8-4.4-9.3-15.7-1.2-21.3c8.2-5.6,21.9-4.7,28,2C512.2,32.1,513.2,35.5,512.9,38.9z"/>
<path class="st0" d="M519.1,176h-12.9c-1-2.5-1.9-4.9-2.9-7.6h-15.1c-1,2.5-1.9,5.1-3,7.6h-12.6c5.7-15.3,11.4-30.4,17-45.4h12.6
	C507.7,145.7,513.2,160.7,519.1,176z M491.2,158.7h9.2c-1.5-4.8-2.9-9-4.2-13.4h-0.7C494.1,149.7,492.7,154,491.2,158.7L491.2,158.7
	z"/>
<path class="st0" d="M601.8,40V25.2h10.9v45.2h-10.3c-0.1-0.8-0.3-1.6-0.4-2.5c-0.3,0.1-0.4,0.1-0.5,0.3c-6.6,5.5-15,4.4-20-2.7
	c-5-7.1-4.2-19.4,1.2-25.3c4.6-4.9,12.2-5.5,17.5-1.4C600.7,39.2,601.1,39.5,601.8,40z M602.1,54.2c-0.3-1.6-0.3-3-0.5-4.2
	c-0.8-3.1-2.7-4.8-5.6-4.8c-2.7,0-5.1,2-5.7,4.6c-0.9,3.1-0.7,6.4,0.5,9.3c0.8,2.3,3.1,3.7,5.5,3.4c2.3,0,4.4-1.6,4.9-3.8
	C601.6,57.3,601.9,55.8,602.1,54.2L602.1,54.2z"/>
<path class="st0" d="M689.2,153.4h-9.9c-0.4-4.5,2-8.2,6.7-10c4.7-1.8,9.2-1.8,13.8-1.2c7.9,1,10.8,4.5,10.8,12.6v9.3
	c0.1,3.8,0.3,7.8,0.4,11.9h-10.4c-0.4-0.7-0.8-1.3-1.2-1.9c-3.3,2.3-7.3,3.4-11.3,3.1c-7.4-0.3-11.6-5.8-10.1-12.9
	c0.5-3.1,2.8-5.6,5.7-6.4c3.8-1.1,7.8-1.6,11.8-2.5c0.7-0.1,1.5,0,1.9-0.4c0.8-0.7,2-1.8,2-2.6c0-0.8-1.2-2.2-2.2-2.6
	C693.9,148.7,691.5,149.8,689.2,153.4z M699,161.5c-2.6,0.7-5.2,1.1-7.5,1.9c-1.6,0.6-3,2.1-2.2,3.8c0.7,1.4,1.9,2.3,3.4,2.6
	C697.4,170.6,700,167.2,699,161.5L699,161.5z"/>
<path class="st0" d="M689,70.5h-10.8c-0.1-1-0.2-2.1-0.3-3.1V51.7c0-4.1-1.5-5.9-4.8-5.9s-5.5,2.2-5.5,5.9c-0.1,5.2,0,10.4-0.1,15.4
	c0,1.1-0.1,2.3-0.3,3.4h-11V37.4h10.7c0.1,0.8,0.2,1.6,0.4,2.3c2.9-1.1,5.9-3,8.9-3.3c7.1-1,12.6,2.5,13,9.7
	c0.4,7.5,0.3,15.2,0.4,22.7C689.4,69.4,689.2,69.8,689,70.5z"/>
<path class="st0" d="M794.2,143.1h10.5c0.3,1,0.4,1.9,0.7,3c3.4-3.4,7.4-4.5,12-4.1c4.9,0.4,9,3.3,9.4,8.1
	c0.7,8.3,0.4,16.7,0.5,24.9c0,0.3-0.3,0.6-0.4,1.1h-10.7c-0.2-1.1-0.3-2.2-0.3-3.3v-15.7c0-3.8-1.5-5.6-4.7-5.7
	c-2.9-0.2-5.4,2.1-5.6,5.1c0,0.1,0,0.3,0,0.4c-0.3,5.2-0.1,10.5-0.1,15.7c0,1.2-0.1,2.4-0.3,3.6h-10.9
	C794.2,165.1,794.2,154.3,794.2,143.1z"/>
<path class="st0" d="M787.7,109.6h-23.2c0,3.3,1.2,5.3,4,6.3c3.2,1.4,7,0.1,8.8-2.9h9.8c-0.1,6.8-8.2,11.8-16.7,11.2
	c-12.4-0.7-19.3-9-17.5-20.8c1.5-10.2,12-16.7,22.8-14.1C784.2,91.6,789.5,100.7,787.7,109.6z M764.5,102.8h11.9
	c-0.4-3.7-2.5-5.6-5.6-5.6C767.4,97,765.2,98.9,764.5,102.8L764.5,102.8z"/>
<path class="st0" d="M651.8,56.7H629c-0.6,2.5,0.7,5.1,3,6.3c3,1.5,6.4,0.6,9.7-2.7h9.7c0.1,4.2-4.1,8.9-9.4,10.4
	c-9.3,2.7-18.6-0.1-22.6-7.1c-4.4-7.4-3-16.8,3.3-22.7c5.6-5.3,15.6-6.3,22-2.2C650.2,42.5,653.9,51,651.8,56.7z M640.5,49.9
	c0-3.2-2.6-5.7-5.8-5.7s-5.7,2.6-5.7,5.7H640.5z"/>
<path class="st0" d="M628.6,109.6h-23.4c-0.3,2.4,0.9,4.7,3,5.9c3.1,1.9,6.2,1.1,10.1-2.5h9.6c0.5,5.7-7.2,11.5-15.9,11.3
	c-11.9-0.1-18.7-7.2-18.5-18.3c0.3-9.8,8.5-17.6,18.3-17.3c0.7,0,1.4,0.1,2,0.2c9.4,1.2,16.1,9.9,14.9,19.3
	C628.7,108.7,628.7,109.2,628.6,109.6z M605.5,102.8H617c-0.1-3.4-2.2-5.5-5.3-5.6C608.2,97,605.9,98.9,605.5,102.8z"/>
<path class="st0" d="M658.5,90.2h10.4c0.3,1,0.5,1.8,0.7,2.3c2.5-1.1,4.8-2.7,7.4-3.2c7.2-1.5,14.5,1.8,14.5,11.5v19.7
	c0,0.8-0.1,1.6-0.1,2.7h-10.9c-0.1-1-0.2-2.1-0.1-3.1v-15.7c-0.1-4.4-1.9-6-5.7-5.7c-1.9,0-3.6,1.3-4.1,3.1
	c-0.5,1.6-0.8,3.3-0.8,4.9c-0.1,5.3,0,10.8,0,16.5h-11.1v-33H658.5z"/>
<path class="st0" d="M541.5,37.4h11.1V57c0.1,3.3,1.5,4.9,4.2,5.2c3.2,0.3,5.6-1.4,5.9-4.4c0.3-3,0.4-6.3,0.5-9.4
	c0.1-3.4,0-7,0-10.8h11.1v33.1h-10.5c-0.3-0.8-0.4-1.8-0.5-2.3c-2.6,1.1-5.1,2.7-7.7,3.1c-7.5,1.2-13.3-1.8-14-9.4
	C540.9,54,541.5,45.9,541.5,37.4z"/>
<path class="st0" d="M792,123.3V90.4h10.5c0.3,0.8,0.4,1.8,0.7,2.3c2.5-1.1,4.8-2.7,7.4-3.1c7.5-1.5,14.5,1.9,14.5,11.5v19.7
	c0,0.8-0.1,1.6-0.1,2.7h-11.1v-19c-0.1-3.8-1.5-5.5-4.4-5.6c-3.4-0.3-5.3,1.2-6.2,4.8c-0.2,1.2-0.3,2.5-0.3,3.7v16L792,123.3z"/>
<path class="st0" d="M558.6,106.7c0,10.2-7.4,17.8-17.6,17.8c-9.5,0.2-17.4-7.4-17.6-16.9c0-0.3,0-0.6,0-0.8
	c0-10.3,7.4-17.8,17.6-17.8S558.6,96.5,558.6,106.7z M540.8,98.1c-2.1-0.2-4.1,1-4.9,3c-1.7,3.5-1.7,7.5-0.1,11.1
	c0.8,2.1,2.8,3.4,5.1,3.3c2.2,0.1,4.3-1.3,5.1-3.4c1.7-3.5,1.6-7.6-0.1-11.1C544.9,99,542.9,97.8,540.8,98.1z"/>
<path class="st0" d="M790,159.5c0,10.5-7.1,17.8-17.5,17.8s-17.8-7.2-17.8-17.5s7.4-17.6,17.6-17.8S790,149.1,790,159.5z
	 M766.1,159.4c0.5,1.9,0.8,3.8,1.4,5.6c0.7,2,2.6,3.4,4.8,3.3c2,0.2,4-0.9,4.9-2.7c2.1-3.8,2.1-8.4-0.1-12.2
	c-1.4-2.6-4.6-3.5-7.1-2.2c-1,0.5-1.8,1.4-2.3,2.4C766.9,155.6,766.6,157.5,766.1,159.4L766.1,159.4z"/>
<path class="st0" d="M604.2,142c9.5-0.2,17.4,7.3,17.6,16.8c0,0.3,0,0.7,0,1c-0.1,10.1-7.7,17.5-17.9,17.5
	c-9.5,0.2-17.4-7.2-17.6-16.7c0-0.3,0-0.7,0-1C586.6,149.1,594,141.9,604.2,142z M610.6,159.6c-0.3-1.7-0.7-3.4-1.2-5.1
	c-0.7-2.3-2.9-3.9-5.3-3.8c-2.7,0-4.4,1.5-5.3,3.8c-1.2,3.2-1.2,6.8,0,10c1,2.9,4.2,4.5,7.1,3.5c1.7-0.6,3-1.9,3.5-3.5
	C609.9,163,610.2,161.3,610.6,159.6L610.6,159.6z"/>
<path class="st0" d="M549.1,153h-9.8c-0.8-3.6-3.6-3.7-6.4-3.3c-0.8,0.1-2.2,0.9-2.2,1.5c0.1,1,0.7,1.9,1.5,2.5
	c2.2,0.7,4.4,1.3,6.7,1.8c1.7,0.3,3.4,0.7,5.1,1.2c3.5,1.2,6,3.7,6.4,7.5c0.7,3.7-0.9,7.5-4,9.7c-5.7,4.4-17.5,4.6-23.5,0.7
	c-3.3-2.2-5.1-5.9-4.4-9.3h10.2c0.7,3.7,3.4,4.9,6.8,4.2c1.2-0.3,2.3-1.8,3.4-2.6c-1-1-1.8-2.5-3-2.9c-3.7-1.2-7.5-1.6-11.1-2.9
	c-5.3-1.8-7.5-6.7-5.9-11.8c0.7-2.4,2.6-4.4,4.9-5.3c6.3-2.8,13.6-2.8,19.8,0.1C547.5,145.3,549.9,149.1,549.1,153z"/>
<path class="st0" d="M552.8,165.1h10.1c0.8,3.6,3.3,4.6,6.7,4.4c1.8-0.1,3.7-0.8,3.5-2.7c-0.4-1.3-1.5-2.4-2.9-2.7
	c-3.4-1.1-7-1.6-10.4-2.7c-4.7-1.4-6.8-4.2-7-8.3c-0.1-4.4,1.9-7.7,6.4-9.4c5.7-2.2,11.9-2.2,17.6-0.1c3.6,1.2,7.2,5.2,6.3,9.6h-9.6
	c-2.6-3.6-5.7-4.4-8.9-2.2c-0.5,1.9,0.7,2.7,2.2,3.1c2.9,0.8,5.9,1.4,8.8,2.1c5.2,1.1,8.3,3.8,8.9,7.9c0.7,5.3-1.5,9.4-6.7,11.6
	c-6.3,2.8-13.6,2.6-19.8-0.6C554.1,172.9,552,168.8,552.8,165.1z"/>
<path class="st0" d="M647.6,162.9h10.5c-0.1,4.9-2.7,9.4-7,11.9c-7.4,4.5-17.6,3-23.1-3.3c-5.3-6-5.3-16.8-0.3-23.4
	c5.9-7.5,19.7-8.3,26.4-1.5c2.4,2.3,3.7,5.4,3.7,8.8h-10.4c-2.5-4.4-4.9-5.6-8.3-4c-3.4,1.6-3.7,5-3.7,8.3s0.4,6.4,3.7,8.1
	c2.6,1.4,5.8,0.5,7.2-2.1c0.1-0.2,0.2-0.4,0.3-0.6C646.9,164.4,647.2,163.8,647.6,162.9z"/>
<path class="st0" d="M582.1,90.2h11.5c-3.9,11.2-7.4,22.1-11.1,33.2h-13c-3.7-10.9-7.2-21.9-11.1-33.1h11.8
	c1.9,6.7,3.7,13.3,5.9,20.6C578.2,103.6,580,96.9,582.1,90.2z"/>
<path class="st0" d="M714.9,37.4v7.1c-2,0.1-4,0.3-6.3,0.4v13.4c0,3.1,0.4,3.6,3.6,3.7c0.9,0,1.8,0.1,2.7,0.3v7.9
	c-4.2,1.1-8.7,1-12.8-0.3c-3-1-4.4-3.4-4.5-6.3c-0.3-4.9-0.3-10-0.4-14.9c0-1.1-0.1-2.3-0.1-3.7c-1.6-0.1-3.1-0.3-5.1-0.5v-7
	c1.6-0.3,3.2-0.4,5.2-0.7v-9.3h11.5v9.4C710.7,37,712.8,37.1,714.9,37.4z"/>
<path class="st0" d="M538.2,62.3v8.1c-4.1,1-8.4,1-12.4-0.1c-3.5-1.1-5.2-3.8-5.3-8.5c-0.1-4.7,0-9.2,0-13.8c0-1-0.1-1.9-0.1-3.2
	l-5.2-0.4v-7.1c1.6-0.3,3.1-0.4,5.2-0.8v-9.3h11.3v9.4c2.3,0.3,4.4,0.4,6.6,0.7v7.2c-2.2,0.1-4.2,0.1-6.4,0.3c0,5.2-0.1,10.1,0.1,15
	c0,0.7,1.6,1.6,2.6,2C535.6,62.3,536.7,62.2,538.2,62.3z"/>
<path class="st0" d="M717.9,133.1h11.6v9.6c2.3,0.1,4.2,0.3,6.3,0.4v6.8c-2,0.1-4,0.3-6.3,0.4v13.4c0,3.1,0.8,4,4,4h2.3v7.9
	c-4.5,1.1-8.9,1.2-13.1-0.4c-3-1.1-4.2-3.7-4.4-6.7c-0.3-4.9-0.3-10-0.4-14.9c0-1.1-0.1-2.2-0.1-3.4c-1.8-0.1-3.3-0.3-5.1-0.4V143
	c1.7-0.1,3.2-0.3,5.2-0.4V133.1z"/>
<path class="st0" d="M633.1,90.2h10.5c0.1,1.2,0.4,2.3,0.5,3.4c1.8-1.1,3.4-2.6,5.5-3.4s4.1-0.5,6.7-0.8v10.4h-4
	c-5.1,0-7.7,2.5-7.8,7.5v13c0,1.1-0.1,2.1-0.3,3.2h-10.9C633.1,112.2,633.1,101.4,633.1,90.2z"/>
<path class="st0" d="M739.7,143.1h10.9v32.8h-10.9V143.1z"/>
<path class="st0" d="M662.5,175.9v-32.8h10.8v32.8H662.5z"/>
<path class="st0" d="M750.7,139h-10.9v-8.3h10.9V139z"/>
<path class="st0" d="M662.5,139v-8.2h10.8v8.2H662.5z"/>
<path class="st0" d="M407.2,16.8c0,0.4,0.3,1.2,0.3,1.6v40.9c0,1.9-0.4,2.9-2.6,2.6h-0.3c-2.6,0.3-6.4-1.2-7.8,0.7s-0.4,4.9-0.4,7.8
	v77.9c0.1,1.8-0.6,3.6-1.9,4.9c-8.8,9-17.2,18.2-25.7,27.4c-1.5,1.7-3.6,2.6-5.9,2.6h-54.1c-1.8,0.1-3.6-0.7-4.8-2.2
	c-8.8-9.4-17.5-18.7-26.5-27.9c-1.2-1.1-1.9-2.8-1.6-4.5V65.2c0-2.6-0.4-3.8-3.3-3.5c-1.9,0.1-3.7,0.1-5.6,0c-1.2,0-1.9-0.3-1.9-1.6
	c0.3-14.4-0.3-28.9,0.3-43.2h67.1v42.8c0,1.6-0.4,2.3-2.3,2.3h-2.3c-1.9-0.3-2.3,0.4-2.3,2.3v72.1c0,2.2,0.7,2.3,2.6,2.3
	c5.2,0,10.1-0.3,15.3,0c2.3,0,3-0.4,3-3V66.9c0-4.9,0-5.2-5.2-4.9c-2.3,0-2.9-0.7-2.9-2.9V16.8H407.2z M281,103.5v44.2
	c-0.2,1.4,0.2,2.8,1.2,3.8c7.8,8.2,15.9,16.6,23.7,24.8c0.7,0.9,1.8,1.4,2.9,1.4h54.4c1.1,0.1,2.2-0.4,2.9-1.2
	c7.8-8.1,15.6-16.3,23.4-24.1c1.4-1.3,2.1-3.3,1.9-5.2v-87c0-4.2-0.4-3.6,3.6-3.8h5.5c1.9,0,2.3-0.4,2.2-2.3V24.4
	c0-1.9-0.7-2.6-2.6-2.6c-17.6,0.1-34.9,0.1-51.8,0.1c-2.3,0-2.6,1-2.6,2.9c0,9.2,0.3,18.5,0,27.9c0,2.9,0.7,4.2,3.8,3.6
	c2.2-0.4,2.9,0.4,2.9,2.6v79.2c0.3,2.7-1.6,5.2-4.4,5.6c-0.1,0-0.3,0-0.4,0h-20.8c-4.2,0-6.4-1.9-6.4-6.4v-76c0-4.5,0-4.5,4.5-4.5
	c1.6,0,2.3-0.3,2.3-2.2V24.8c0-1.4,0-2.3-1.9-2.3h-52.9c-1.4,0-1.9,0.4-1.9,1.9v30.2c0,1.6,0.4,1.9,1.9,1.9h6.1
	c1.9,0,2.9,0.7,2.9,2.9C280.7,73.9,281,88.8,281,103.5z"/>
<path class="st0" d="M181.1,16.8c0,17.9,0,35.7,0.3,53.6c0,1.6-0.4,2.2-2.2,2.2h-45.8c-1.6,0-2.2-0.7-1.9-2.2v-6.8
	c0-1.2-0.4-1.6-1.6-1.6h-17.2c-1.4,0-1.9,0.4-1.9,1.9v15.3c0,2.2,1.4,1.9,2.6,1.9h31.2c2.6,0,3,0.7,3,3c-0.3,12.6-0.3,25,0,37.3
	c0,2.3-0.7,2.9-2.9,2.9c-10.4-0.3-21.1,0-31.4-0.3c-2.2,0-2.9,0.7-2.6,2.6c0.3,3.3,0,6.6,0,10c0,1.6,0.4,2.2,2.2,2.2h6.2
	c1.9,0,2.3,0.7,2.3,2.3v39.5c0,2.3-0.7,2.6-2.9,2.6H50.8c-1.4,0-1.9-0.3-1.9-1.9v-40.6c0-1.6,0.4-2.2,2.2-2.2c2-0.1,4.1-0.1,6.2,0
	c2.9,0.3,3.3-1,3.3-3.3c-0.3-11.1,0-22.1,0-33.1V65c0-2.2-0.4-3-2.9-2.9c-2,0.1-4.1,0.1-6.2,0c-1.9,0-2.7-0.5-2.7-2.6V16.7
	L181.1,16.8L181.1,16.8z M114.6,22.4H56.8c-1.4,0-2.9-0.3-2.9,1.9v30.2c0,1.6,0.7,1.9,2.2,1.9h7.1c2.3,0,2.6,0.4,2.6,2.6v82
	c0,2.2-0.3,3-2.9,2.9c-2.6-0.1-4.2,0-6.2,0s-2.9,0.7-2.9,2.9c0.3,9.4,0.3,18.7,0,28.2c0,2.3,1,3,3,2.9h56.4c1.2,0,2.3,0.3,2.3-1.6
	v-30.9c0-1.2-0.4-1.6-1.6-1.6h-6.8c-2.3,0-2.3-0.8-2.3-2.5c0-6.8,0.3-13.7,0-20.8c0-2.2,0.7-2.6,2.6-2.6h31.4c2.3,0,2.9-0.7,2.9-2.9
	c0-8.8-0.3-17.5,0-26.5c0-2.3-0.4-3.3-3-3.3c-10.4,0.3-20.8,0-31.2,0c-1.4,0-2.6,0.3-2.6-1.9V57.6c0-1.4,0.4-1.9,1.9-1.9h28.3
	c1.6,0,1.9,0.4,1.9,2.2c0.1,1.9,0.1,3.7,0,5.6c-0.3,2.3,0.7,2.9,2.9,2.9h32.7c2.3,0,2.9-0.7,2.9-2.9c0-13-0.3-26,0-38.7
	c0-2.3-0.7-3-3-3C153.2,22.4,134.1,22.4,114.6,22.4z"/>
<path class="st0" d="M259.3,16.8c0,14-0.3,27.9,0,42.1c0,2.6-1,3.3-3.3,3.3c-2.1-0.1-4.1-0.1-6.2,0c-1.2,0-1.6,0.4-1.6,1.6v71.7
	c0,2.3,0.4,3.6,3,3.3c2.6-0.3,5.9-1.2,7.5,0.4s0.4,4.9,0.4,7.4v33.5c0,2.2-0.3,2.9-2.6,2.9h-67.1c-1.9,0-2.6-0.4-2.6-2.3v-39.5
	c0-1.9,0.4-2.6,2.6-2.6h6.6c2.3,0,2.3-0.4,2.3-2.3V64.7c0-2.3-0.7-3-3-2.9c-2.6,0-6.1,1.2-7.8-0.4c-1.6-1.9-0.4-5.2-0.4-8.1V16.7
	L259.3,16.8z M203.5,100.2v41.2c0,2.2-0.4,2.9-2.6,2.9H195c-1.9,0-2.6,0.3-2.6,2.3v28.8c0,1.9,0.4,2.6,2.6,2.6h56.2
	c2.3,0,2.9-1,2.9-2.9c0-9.4-0.3-18.7,0-28.2c0-2.3-0.7-3-3-2.9c-1.5,0.1-3,0.1-4.5,0c-3,0.3-4-0.7-4-3.6V57.9c0-1.2,0.4-1.6,1.6-1.6
	h7.4c1.4,0,1.9-0.4,1.9-1.9V24.2c0-1.4-0.4-1.9-1.9-1.9h-56.6c-1.4,0-2.9-0.3-2.9,1.9v30.2c0,1.6,0.7,1.9,2.2,1.9
	c2.2,0.1,4.4,0.1,6.6,0c2.2-0.3,2.9,0.7,2.9,2.9C203.5,73,203.5,86.5,203.5,100.2z"/>
<path class="st0" d="M445.2,16.8c0,1.2-0.3,2.3-0.3,3.8v159c0,3.3-1.4,4.2-4.8,3.6c-0.6-0.1-1.1-0.6-1-1.2l0,0V16.8H445.2z"/>
</svg>
