<svg xmlns="http://www.w3.org/2000/svg" id="Layer_1" data-name="Layer 1" viewBox="0 0 900 200"><defs><style>.cls-1{fill:#fff}</style></defs><g id="g10"><g id="g12"><path id="path16" d="M468.76,76.58c0-10.57,7.15-20.81,11.05-18.88,4.45,2.23-3.33,12.18-11.05,18.88m-48.62,3.84c0-8.49,8.37-24.63,13.49-22.92,6.05,2-5,18.29-13.49,22.92m-8.5,60.75c-3.85.17-6.43-2.29-6.43-6.41,0-11,15.33-21.61,26.92-27.28-2.06,15.43-7.27,33.09-20.49,33.69m70.76-36c-8.75,0-15.43,6.43-15.43,14.15,0,6.43,3.86,11.58,9,11.58,1.82,0,3.62-1,3.62-3.33,0-3.37-4.44-4.17-4.11-9.18.23-3.29,3.34-5.5,6.42-5.5,6.17,0,9.06,6,9.06,12.15-.25,9.53-7.27,16.14-15.49,16.14-10.81,0-17.76-10.28-17.76-21.35,0-16.48,10.82-22.91,16.48-24.44.05,0,14.8,2.62,14.34-3.88-.22-2.86-4.47-4-7.54-4.08a21.1,21.1,0,0,0-6.86,1.1,8.44,8.44,0,0,1-3.81-4.74c10.55-8,18-15.69,18-24.45,0-4.63-3.1-8.74-9-8.74-10.55,0-18.53,13.38-18.53,25.47a21.11,21.11,0,0,0,.54,5.92c-6.7,4.88-11.68,7.93-20.68,13.33a46,46,0,0,1,1-7.8c3.08-3.34,7.31-8.36,7.31-12.22a3,3,0,0,0-3.09-3.35c-5.14,0-9,7.72-10,13.13-2.32,2.84-6.95,6.44-10.82,6.44-3.08,0-4.12-2.83-4.38-3.86,9.78-3.35,21.88-16.73,21.88-28.83,0-2.56-1-8.23-8.75-8.23-11.58,0-21.35,17.24-21.35,30.61-4.13,0-5.66-4.37-5.66-7.72S408,66.79,408,65.75A2.07,2.07,0,0,0,406,63.44c-3.85,0-6.17,5.15-6.17,11.07.26,8.23,5.66,13.39,12.86,13.9,1,4.89,5.4,9.52,10.8,9.52a15.8,15.8,0,0,0,10.3-3.59c-.25,1.79-.5,3.34-.77,4.88-11.33,5.93-19.56,10-27,16.73-5.91,5.41-9.25,12.61-9.25,18.27,0,7.73,4.88,14.93,14.91,14.93,11.83,0,20.85-9.52,25.23-22.65,2.05-6.17,2.87-15.16,3.4-23.4a240.36,240.36,0,0,0,23.61-14.94,10.42,10.42,0,0,0,2.57,3.08c-5.4,2.83-18.26,10.81-18.26,29.59,0,13.38,9,28.31,26.76,28.31,14.67,0,24.7-12.1,24.7-23.68,0-10.54-5.92-20.31-17.25-20.31m44.24,22.1c0,.08-.18.19-.47.1s-.28-.19-.28-.34a70.4,70.4,0,0,0,3.08-19.8c0-11.34-4.63-18.29-10.53-18.29-3.61,0-6.18,2.58-6.18,6.45,0,6.94,8.48,7.46,8.48,22.64a60.2,60.2,0,0,1-3.33,18.52c-9.53,32.16-39.9,47.09-69.47,47.09-13.65,0-23.34-2.81-26.22-4.1a.44.44,0,0,1-.14-.52c.07-.17.27-.3.39-.25a64.68,64.68,0,0,0,19.78,3.07c11.32,0,18-4.63,18-10.3a6.37,6.37,0,0,0-6.43-6.43c-6.95,0-7.48,8.75-22.4,8.75-6.43,0-12.09-1.28-18.78-3.35-31.92-9.77-47.11-39.87-47.1-69.72a85.48,85.48,0,0,1,4.16-26.23.4.4,0,0,1,.46-.08.35.35,0,0,1,.26.33,68.1,68.1,0,0,0-3.07,19.8c0,11.33,4.63,18,10.55,18a6.09,6.09,0,0,0,6.17-6.17c0-7-8.5-7.73-8.5-22.66,0-6.43,1.3-12.1,3.35-18.78,9.78-31.91,39.89-46.86,69.49-47.1,13.75-.1,25.78,4,26.24,4.38a.42.42,0,0,1,.08.46c-.11.25-.27.27-.34.26a57.43,57.43,0,0,0-19.82-3.29c-11.06,0-18,4.63-18,10.55a6.16,6.16,0,0,0,6.43,6.17c6.95,0,7.46-8.48,22.4-8.48,6.41,0,12.08,1.27,18.76,3.33,32.18,9.78,46.82,40.14,47.1,69.49a80.53,80.53,0,0,1-4.13,26.48m-78.71-115a88.51,88.51,0,1,0,88.51,88.52,88.5,88.5,0,0,0-88.51-88.52m0,181.41a92.9,92.9,0,1,1,92.89-92.89,92.86,92.86,0,0,1-92.89,92.89" class="cls-1"/></g></g></svg>