<svg xmlns="http://www.w3.org/2000/svg" viewBox="0 0 1013.56 161.85"><g id="Layer_2" data-name="Layer 2"><g id="Layer_1-2" data-name="Layer 1"><g id="Layer_2-2" data-name="Layer 2"><g id="Layer_1-2-2" data-name="Layer 1-2"><path d="M181.51,1.17V22.61h-1.37q-22.83,0-45.69-.08A39.14,39.14,0,0,0,95.89,56.44C94.31,69.13,98,80.16,107,89.24a37.64,37.64,0,0,0,27.43,11.56c15.23.08,30.47.06,45.7.09h1.3v21.45H119.83q-22.11,0-44.26-.08c-5.79,0-11.59.07-17.38-.14a58.58,58.58,0,0,1-36.31-14C10.24,98.36,3,86,.76,71-2.08,52,3,35,16,20.69,26,9.61,38.68,3.28,53.52,1.44A51.5,51.5,0,0,1,60.42,1q28.49,0,57,.07h62.85A8,8,0,0,0,181.51,1.17ZM88,22.44H86.76c-8.72,0-17.44-.07-26.15,0a38.69,38.69,0,0,0-6.44.54,39.14,39.14,0,0,0,5.52,77.73c9,.19,18,.06,27,.07a7.2,7.2,0,0,0,1.13-.06C69.26,74.59,69.3,48.6,88,22.44Z" style="fill:#fff"/><path d="M691.42,83.16a45.65,45.65,0,0,1-4.86,12.68c-7.64,13.38-19.17,21.85-34,25.59-18.23,4.62-35.77,2.62-51.8-7.66-13.43-8.61-21.56-21.16-25-36.6-3.92-17.42-1.6-34,7.91-49.27S607.1,3.65,625,1.31c13-1.69,25.72-.31,37.7,5.31,14.92,7,23.91,18.85,27.76,34.74.27,1.12.48,2.26.7,3.39.09.47.13,1,.21,1.52H671.25c-.72-2.35-1.27-4.77-2.2-7-4.69-11.5-13.29-18.42-25.45-20.54-11.37-2-22.16-.07-31.77,6.61-9,6.22-14.33,14.93-16.67,25.44-3,13.57-1.26,26.48,6.72,38.11,6.51,9.5,15.84,14.74,27.08,16.71,6.28,1.09,12.58,1.34,18.72-.75,9.79-3.33,17.28-9.33,21.54-19,.4-.9.52-2.2,1.2-2.62s2-.16,3-.16l16.55.08Z" style="fill:#fff"/><path d="M349.61,45.84H329.47c-.84-2.61-1.46-5.22-2.5-7.65-4.88-11.43-13.63-18.13-25.82-20-11.77-1.86-22.78.35-32.44,7.63-8.29,6.23-13.29,14.75-15.48,24.83-2.65,12.26-1.32,24.08,5.07,35,6.12,10.59,15.55,16.79,27.43,19.17,6.12,1.25,12.3,1.73,18.41,0,10.31-2.92,18.19-8.9,22.92-18.69a8.77,8.77,0,0,0,.79-2c.24-1.2.84-1.52,2.06-1.51,6.08.08,12.16,0,18.23,0h1.4a44.75,44.75,0,0,1-4.2,11.45c-7,13.18-17.92,21.85-32.11,26.12-17,5.11-33.65,4-49.46-4.13-16.44-8.49-26.14-22.37-30.07-40.24A63.52,63.52,0,0,1,239,32.37c8.75-17.23,22.71-27.91,41.83-31.24a66.72,66.72,0,0,1,38.1,4.09c16.22,6.87,25.95,19.25,29.88,36.3C349.12,43,349.34,44.37,349.61,45.84Z" style="fill:#fff"/><path d="M534.29,42.63h18.22c0,.46.06.88.06,1.31v83A45.56,45.56,0,0,1,550.65,141c-2.78,8.44-8.23,14.44-16.57,17.44-12,4.34-24.32,4.68-36.39.23-11.86-4.37-18-13.37-19.31-25.78-.12-1.11-.17-2.22-.25-3.42h18.46c.2,1.13.34,2.28.6,3.4A16.53,16.53,0,0,0,512.53,146a40.46,40.46,0,0,0,9-.46c7.11-1.23,11.28-5.79,12.21-13a44,44,0,0,0,.37-5.49V111.7a7.46,7.46,0,0,0-.06-1.18c-1.64,1.79-3.12,3.68-4.87,5.26a26.61,26.61,0,0,1-15,6.49c-6.55.8-13,.43-19.18-2.22-7.4-3.19-11.74-9-13.41-16.66a59.72,59.72,0,0,1-1.22-11.85c-.12-16,0-32,0-48v-.89h18.23v42.1a33.86,33.86,0,0,0,2.07,12.08c2.39,6.12,6.9,9.29,13.41,9.69,9.53.59,16.52-4.57,18.94-14.24a39,39,0,0,0,1.17-9.11c.14-13,.08-26,.09-39.06Z" style="fill:#fff"/><path d="M789.91,81.44c-.69,16.41-7.13,28.9-21.38,36.74a40.06,40.06,0,0,1-17.67,4.7c-10.07.48-19.38-1.78-27.52-7.88a39.12,39.12,0,0,1-15.59-26.66c-1.65-11.39.63-22,7.45-31.31a38.45,38.45,0,0,1,26.7-15.72c9.86-1.37,19.31,0,28,5.07,10.69,6.22,16.89,15.67,19.17,27.73C789.56,76.7,789.68,79.35,789.91,81.44Zm-18.49.45a25.58,25.58,0,0,0-3-12.57C764.29,61.6,757.77,57.44,749,57.2s-15.46,3.48-19.78,11c-4.77,8.28-5,17-1,25.62A22.36,22.36,0,0,0,758,104.63a22,22,0,0,0,5.35-3.5C769,96,771.33,89.44,771.42,81.89Z" style="fill:#fff"/><path d="M930.08,121.12H911.73V80.24A38.39,38.39,0,0,0,910,68c-2.69-8.09-8.72-11.23-16.74-10.7C884.22,57.87,878.7,64,877,72.84a63.28,63.28,0,0,0-.89,11.42c-.1,11.74,0,23.48,0,35.22v1.6H857.86v-78h18.3V53.52c1.17-1.45,2.11-2.76,3.2-3.94a25.22,25.22,0,0,1,13-7.43,38.18,38.18,0,0,1,18.64,0c9.94,2.51,15.81,9,18,18.91,1.29,5.94,1.17,12,1.14,18,0,.52,0,1,0,1.56v40.5Z" style="fill:#fff"/><path d="M1012.26,67.68H994.54c-.12-1.06-.17-2.09-.35-3.09q-1.37-7.5-8.93-8.66c-3.71-.58-7.35-.43-10.69,1.54a7.38,7.38,0,0,0-3.8,5.65A6.37,6.37,0,0,0,974.14,70a71.13,71.13,0,0,0,7.19,3.23c6.52,2.61,13.13,5,19.6,7.73a20.13,20.13,0,0,1,10.14,8.61c5.39,9.56,1.7,22.81-8,28.71a35.39,35.39,0,0,1-14.59,4.69c-7,.83-14,.41-20.62-2.31-9.36-3.84-15.38-10.51-17.14-20.65-.28-1.6-.33-3.24-.5-5h17.83c.13,1.19.19,2.35.39,3.48a11.28,11.28,0,0,0,8.84,9.62,22.88,22.88,0,0,0,12.42-.15c4.65-1.39,6.94-5.19,6-9.73a6.23,6.23,0,0,0-3.64-4.64c-3.2-1.5-6.51-2.79-9.81-4.09-6-2.37-12-4.52-17.89-7.12a24.25,24.25,0,0,1-6.59-4.68c-3.62-3.46-4.65-8.07-4.78-12.91-.24-9.57,4.26-16.34,12.84-20.17,10.25-4.56,20.79-5,31.09-.16,8.79,4.11,14.07,11,15.21,20.87,0,.47.06,1,.08,1.43S1012.26,67.3,1012.26,67.68Z" style="fill:#fff"/><path d="M421.76,57.69H408.6V42.44h13.17V18.87h18.35V42.44h17.81V57.73H440.22c-.05.5-.1.85-.1,1.19,0,10.67-.09,21.33-.05,32a37.88,37.88,0,0,0,.67,6.54c.93,5,3.55,7.41,8.68,7.55,3.46.09,6.94-.27,10.41-.43l.74-.06v16.12c-2,.21-3.94.47-5.92.61-5.06.36-10.13.62-15.18-.28-8.94-1.58-14.22-7-16.48-15.63a43.71,43.71,0,0,1-1.27-11.27V59.32Z" style="fill:#fff"/><path d="M811.72,43H830V121H811.72Z" style="fill:#fff"/><path d="M389.55,42.44v78H371.33v-78Z" style="fill:#fff"/><path d="M380.5.36a13.43,13.43,0,1,1-.13,0Z" style="fill:#fff"/><path d="M820.91,28a13.51,13.51,0,1,1,13.51-13.52A13.51,13.51,0,0,1,820.91,28Z" style="fill:#fff"/></g></g></g></g></svg>