<svg xmlns="http://www.w3.org/2000/svg" viewBox="0 0 621 200.13"><g id="Layer_2" data-name="Layer 2"><g id="Layer_1-2" data-name="Layer 1"><rect y="0.1" width="621" height="200" style="fill:none"/><path d="M504.4,75.7a10.46,10.46,0,0,1-.4,1.7,6.4,6.4,0,0,1-12.6-1.9V13H429.9c-2.7,0-5-.8-6.4-3.3A6.32,6.32,0,0,1,426.8.4c.3-.1.5-.3.8-.4h67.1l1.8.5a10.51,10.51,0,0,1,7.6,8,15.52,15.52,0,0,1,.4,2.1Z" style="fill:#fff"/><path d="M261.3,199.7H247.6V119.9l-.3-.1a5,5,0,0,0-.5,1.3l-27,72a10.41,10.41,0,0,1-15,5.7,8.86,8.86,0,0,1-4.2-5.1q-13.2-36-26.4-72.1a4.19,4.19,0,0,0-.9-1.4v79.4H159.6v-1.8c0-31.8.1-63.6-.1-95.4,0-9.1,6.3-11.4,12.5-10.6,4.9.6,8.1,3.4,9.7,8.1l28.2,79.5c.1.3.3.7.5,1.3l3.7-9.9c8.8-23.6,17.5-47.3,26.3-70.9,2.3-6.1,7.1-9,13.1-7.9,4.6.8,7.2,3.7,7.6,8.4a14.08,14.08,0,0,1,.1,2v95.5Z" style="fill:#fff"/><path d="M363.7,199.8V106.5H330.9V93h80.6v13.4H378.7v93.4Z" style="fill:#fff"/><path d="M279.3,93h14.8v93.2h51.5v13.6H291.1c-6.2,0-10.6-3.5-11.6-9.2a24.52,24.52,0,0,1-.2-2.7V93Z" style="fill:#fff"/><path d="M460.7,44.1H398.8c-3.5,0-6.2-1.9-6.9-5a6.28,6.28,0,0,1,6.4-7.9c2.9-.1,5.8,0,8.7,0h54.4c4.6,0,8.6,1.4,10.8,5.8a13.9,13.9,0,0,1,1.4,6c.1,20.9.1,41.9,0,62.8a9,9,0,0,1-.4,2.8,6.31,6.31,0,0,1-7.1,4.7,6.65,6.65,0,0,1-5.4-6.3V44.1Z" style="fill:#fff"/><path d="M429.6,74.8H367.5c-4.6,0-7.9-4-6.6-8.3A6,6,0,0,1,366,62a7.94,7.94,0,0,1,2.2-.1H430a17.13,17.13,0,0,1,5.5.9,10.46,10.46,0,0,1,7.1,9.9v59.6a34.32,34.32,0,0,1-.3,6.4,6.15,6.15,0,0,1-6.6,5.2,6.42,6.42,0,0,1-5.9-5.9,17.7,17.7,0,0,1-.1-2.3V76.6Z" style="fill:#fff"/></g></g></svg>