<svg xmlns="http://www.w3.org/2000/svg" viewBox="0 0 554 144.67"><defs><style>.cls-1,.cls-2{fill:#fff}.cls-1{fill-rule:evenodd}</style></defs><g id="Layer_2" data-name="Layer 2"><g id="Layer_1-2" data-name="Layer 1"><path d="M72.33,144.67A72.34,72.34,0,1,0,0,72.33,72.28,72.28,0,0,0,72.33,144.67ZM48.51,49.78v46H33.19v-46Zm1.27,62.13H95.31V96.16H49.78Zm46.38-17V49.36h15.75v46H96.16ZM94.89,32.76H49.78V48.08H95.31V32.76Z" class="cls-1"/><path d="M236.58,72.76c0,19.57-15.32,33.19-34,33.19s-34.89-13.62-34.89-33.19S183,39.57,202.54,39.57C220.83,39.57,236.58,52.76,236.58,72.76Zm-16.17,0c0-11.91-9.36-18.72-17.87-18.72a18.25,18.25,0,0,0-18.3,18.72,18.23,18.23,0,0,0,18.3,18.72A18.43,18.43,0,0,0,220.41,72.76Z" class="cls-2"/><path d="M313.17,104.67H291L268.06,80h-4.68v24.68h-17V13.19h17V63.4h4.68l21.28-22.13h21.27L279.55,71.48Z" class="cls-2"/><path d="M358.27,78.72l15.32,3.83c-3.41,14.46-17,23.82-31.91,23.82-18.73,0-33.62-13.61-33.62-33.61,0-19.57,15.32-33.61,33.62-33.61A32.82,32.82,0,0,1,373.59,63l-16.17,4.26c-2.55-8.51-8.09-12.34-15.32-12.34-10.64,0-17.87,7.66-17.87,18.3,0,11.06,7.23,18.29,17.87,18.29C349.76,91.06,355.29,87.23,358.27,78.72Z" class="cls-2"/><path d="M448.05,72.76c0,19.57-15.32,33.19-34,33.19s-34.89-13.62-34.89-33.19S394.44,39.57,414,39.57C431.88,39.57,448.05,52.76,448.05,72.76Zm-16.59,0c0-11.91-9.36-18.72-17.87-18.72a18.24,18.24,0,0,0-18.3,18.72,18.23,18.23,0,0,0,18.3,18.72C422.52,91.48,431.46,84.25,431.46,72.76Z" class="cls-2"/><path d="M477.41,21.7c0,6-4.25,9.79-10.21,9.79S457,27.23,457,21.7A10.34,10.34,0,0,1,467.2,11.49C473.16,11.91,477.41,16.59,477.41,21.7Zm-2.13,83H458.69V40.85h17v63.82Z" class="cls-2"/><path d="M554,65.53v38.72H537V68.93C537,60.42,531.87,54,523.79,54c-9.79,0-15.74,6.38-15.74,21.7v28.08H491V40h17v6a27.27,27.27,0,0,1,19.57-7.66C543.79,39.15,554,50.21,554,65.53Z" class="cls-2"/></g></g></svg>