<svg xmlns="http://www.w3.org/2000/svg" id="Layer_1" data-name="Layer 1" viewBox="0 0 900 200"><defs><style>.cls-1{fill:#fff;fill-rule:evenodd}</style></defs><path d="M621.08,47.87h17.28v88.54h74.92l-11,17.29h-81.2V47.87ZM485.38,153.7,421.46,52.84c-3.93-6.54-14.4-6.54-18.86.27L339.21,153.7h21l19.13-30.39h40.87L430.9,106H390L412.3,71.18l52.13,82.52Zm38.9-105.8c-29.21,0-48.43,23.68-48.43,52.88s19.23,52.89,48.43,52.89l71-.08,11.11-17.15H524.8c-19.69,0-31.21-16-31.21-35.66s11.52-35.65,31.21-35.65h72.69l10.73-17.28ZM81.05,65.13H156c19.69,0,31.21,16,31.21,35.65S175.67,136.44,156,136.44H81.05c-19.69,0-31.2-16-31.2-35.66S61.36,65.13,81.05,65.13Zm0-17.23c-29.21,0-48.43,23.68-48.43,52.88s19.22,52.89,48.43,52.89H156c29.21,0,48.43-23.68,48.43-52.89S185.18,47.9,156,47.9Zm650.7,61.27c2.81,15.65,13.58,27.27,30.39,27.27h81.6l-11.12,17.15-71,.08c-29.21,0-48.43-23.68-48.43-52.89S732.41,47.9,761.62,47.9l83.94,0L834.84,65.13h-72.7c-16.57,0-27.38,11.43-30.39,26.75H834.31l-11,17.29ZM302.14,110.7a31.4,31.4,0,0,0,0-62.8l-88.15,0V153.7h19.39V65.13h68.76a14.17,14.17,0,0,1,0,28.34H247l62.21,60.11h25L289.7,110.74ZM863.67,48a8.29,8.29,0,1,1-8.1,8.26,8,8,0,0,1,8.1-8.26V46.31a9.94,9.94,0,1,0,10.05,9.91,9.92,9.92,0,0,0-10.05-9.91Z" class="cls-1"/><path d="M861.57,52h2.37c1.21,0,2.49.27,2.49,1.69,0,1.76-1.31,1.87-2.79,1.87h-2.08V57h2l3,5h1.94l-3.26-5.05a3,3,0,0,0,3-3.16c0-2.26-1.34-3.26-4-3.26h-4.37V62h1.74V52Z" class="cls-1"/></svg>