<svg xmlns="http://www.w3.org/2000/svg" id="Layer_1" data-name="Layer 1" viewBox="0 0 900 200"><defs><style>.cls-1{fill:#fff}</style></defs><path d="M277.51,42.93c-.64-.06-13-.25-13-.25s-10.35-10-11.38-11.08a2.56,2.56,0,0,0-1.43-.66V184.78l46.41-11.54S279.15,45.22,279,44.34A1.68,1.68,0,0,0,277.51,42.93Z" class="cls-1"/><path d="M279,44.34a1.68,1.68,0,0,0-1.53-1.42c-.63-.05-13-.24-13-.24S254.13,32.62,253.11,31.6s-3-.71-3.8-.48l-5.2,1.61a37,37,0,0,0-2.49-6.12c-3.69-7-9.09-10.75-15.61-10.76h0c-.45,0-.9,0-1.35.08-.19-.23-.39-.46-.59-.68a13.66,13.66,0,0,0-10.85-4.39c-8.43.24-16.82,6.32-23.62,17.13-4.79,7.61-8.43,17.16-9.46,24.56l-16.6,5.14c-4.88,1.53-5,1.68-5.67,6.28-.47,3.48-13.25,102.29-13.25,102.29l107.08,18.52,46.41-11.54S279.15,45.22,279,44.34ZM224.84,38.7,207,44.23c1.73-6.61,5-13.2,9-17.52a18,18,0,0,1,6.07-4.42C224.39,27.16,224.89,34,224.84,38.7ZM213.36,16.46a8.58,8.58,0,0,1,5.06,1.33,24.44,24.44,0,0,0-6.54,5.1c-5.35,5.74-9.45,14.65-11.09,23.25l-14.68,4.54C189,37.15,200.35,16.84,213.36,16.46ZM197,93.57c.57,9,24.3,11,25.63,32.12,1,16.62-8.81,28-23,28.88-17.05,1.08-26.44-9-26.44-9l3.61-15.38s9.45,7.14,17,6.66a6.7,6.7,0,0,0,6.53-7.18c-.74-11.76-20.06-11.07-21.28-30.4-1-16.27,9.65-32.75,33.22-34.23,9.08-.59,13.73,1.73,13.73,1.73L220.56,87a30.64,30.64,0,0,0-13.14-2.28C197,85.33,196.86,91.92,197,93.57ZM230.44,37a45.89,45.89,0,0,0-2.56-15.33c6.4,1.21,9.54,8.44,10.87,12.76Z" class="cls-1"/><path d="M359.2,109c-5.34-2.89-8.08-5.33-8.08-8.69,0-4.27,3.81-7,9.76-7A34.85,34.85,0,0,1,374,96.21l4.88-14.95s-4.49-3.5-17.69-3.5c-18.37,0-31.1,10.52-31.1,25.3,0,8.39,5.94,14.79,13.88,19.36,6.4,3.66,8.69,6.26,8.69,10.07s-3.2,7.16-9.15,7.16c-8.86,0-17.22-4.58-17.22-4.58l-5.19,15s7.73,5.18,20.74,5.18c18.9,0,32.47-9.3,32.47-26.07C374.29,120.14,367.44,113.74,359.2,109Z" class="cls-1"/><path d="M434.51,77.61c-9.3,0-16.61,4.42-22.25,11.13l-.31-.16L420,46.35H399L378.56,153.83h21l7-36.74c2.74-13.87,9.9-22.41,16.61-22.41,4.73,0,6.56,3.21,6.56,7.78a48.77,48.77,0,0,1-.91,9.3L421,153.84h21l8.23-43.45a78.11,78.11,0,0,0,1.53-13.72C451.74,84.77,445.49,77.61,434.51,77.61Z" class="cls-1"/><path d="M499.3,77.61c-25.31,0-42.07,22.87-42.07,48.32,0,16.31,10.06,29.42,29,29.42,24.84,0,41.61-22.25,41.61-48.32C527.81,91.94,519,77.61,499.3,77.61ZM488.94,139.2c-7.17,0-10.22-6.1-10.22-13.72,0-12,6.25-31.71,17.69-31.71,7.47,0,9.9,6.4,9.9,12.65C506.31,119.38,500.07,139.2,488.94,139.2Z" class="cls-1"/><path d="M581.63,77.61c-14.2,0-22.26,12.5-22.26,12.5h-.3l1.22-11.28h-18.6c-.91,7.62-2.6,19.2-4.27,27.9l-14.63,77h21l5.78-31.1h.47s4.31,2.74,12.34,2.74c24.7,0,40.86-25.3,40.86-50.92C603.28,90.26,597,77.61,581.63,77.61ZM561.51,139.5a13.37,13.37,0,0,1-8.7-3.05l3.51-19.66c2.44-13.11,9.3-21.8,16.62-21.8,6.4,0,8.38,5.94,8.38,11.58C581.32,120.14,573.24,139.5,561.51,139.5Z" class="cls-1"/><path d="M633.31,47.42a12,12,0,0,0-12,12.2c0,6.25,4,10.52,9.91,10.52h.3c6.56,0,12.2-4.43,12.35-12.2C643.83,51.84,639.71,47.42,633.31,47.42Z" class="cls-1"/><path d="M603.89,153.83h21l14.34-74.54H618.07Z" class="cls-1"/><path d="M692.77,79.13H678.13l.76-3.5c1.22-7.17,5.49-13.57,12.51-13.57a22,22,0,0,1,6.7,1.06l4.12-16.46s-3.66-1.83-11.44-1.83c-7.47,0-14.93,2.14-20.58,7C663,57.94,659.68,66.78,658,75.63l-.61,3.5h-9.76l-3,15.86h9.76l-11.13,58.85h21L675.39,95h14.48Z" class="cls-1"/><path d="M743.38,79.29s-13.15,33.13-19.06,51.22H724c-.4-5.83-5.19-51.22-5.19-51.22h-22.1l12.66,68.44a4.5,4.5,0,0,1-.46,3.51,36.15,36.15,0,0,1-11.44,12.66,45.6,45.6,0,0,1-11.89,5.94l5.8,17.84c4.27-.92,13.1-4.42,20.57-11.44,9.61-9,18.45-22.86,27.6-41.77l25.76-55.19h-22Z" class="cls-1"/></svg>