<svg id="Layer_1" data-name="Layer 1" xmlns="http://www.w3.org/2000/svg" viewBox="0 0 900 200"><defs><style>.cls-1{fill:#fff;}</style></defs><g id="Sketch-Logo_Sketch-Logo-Dark-Transparent" data-name="Sketch-Logo/Sketch-Logo-Dark-Transparent"><path id="Logo" class="cls-1" d="M179.16,11.34l53.05,6A4.05,4.05,0,0,1,235,18.94l39.49,53.19a4.06,4.06,0,0,1-.17,5.06L180.25,187.52a2,2,0,0,1-2.87.22l-.22-.22L83.06,77.19a4.06,4.06,0,0,1-.17-5.06l39.49-53.19a4.05,4.05,0,0,1,2.81-1.61l53.06-6A4.61,4.61,0,0,1,179.16,11.34Zm11,11.48a.86.86,0,0,0-1.15-.06.84.84,0,0,0-.2,1.1l.07.11L218.81,61.2a2,2,0,0,1-1.42,3.29H140.18a2,2,0,0,1-1.69-3.16l.11-.14L168.52,24a.87.87,0,0,0-.07-1.15.84.84,0,0,0-1.12-.08l-.1.08L126.7,63.55a1.61,1.61,0,0,1-1.23.48,1.63,1.63,0,0,1-1.55-1.54v-.16l1.4-29.5a.81.81,0,0,0-1.57-.33l0,.11-7.68,34A3.28,3.28,0,0,1,113.76,69l-.21,0-19,4.09a.82.82,0,0,0-.64.8.81.81,0,0,0,.7.8h19.08a3.27,3.27,0,0,1,2.73,1.47l.11.19L162,157.53a1.23,1.23,0,0,0,1.59.5,1.2,1.2,0,0,0,.63-1.49l0-.13-36.79-78.2a2.5,2.5,0,0,1-.23-1,2.44,2.44,0,0,1,2.27-2.43H227.8a2.47,2.47,0,0,1,1,.23,2.44,2.44,0,0,1,1.24,3.09l-.07.16-36.79,78.2a1.22,1.22,0,0,0,2.1,1.23l.07-.11,45.5-81.14a3.25,3.25,0,0,1,2.62-1.65H262.7a.82.82,0,0,0,.28-1.58l-.11,0-19-4.09a3.26,3.26,0,0,1-2.44-2.25l0-.21-7.68-34a.81.81,0,0,0-1.6.11v.11l1.4,29.5a1.63,1.63,0,0,1-2.65,1.34l-.13-.12ZM377.63,39.46c16.3,0,29.48,4.43,41.05,10.26l1.31.67.64.34,1.29.68.63.34,1.27.7.63.35,1.24.71.62.35,1.23.72-7.4,15.6c-13.21-7.72-27.05-13.35-43.31-13.35C360.4,56.83,353,62.62,353,71.15c0,6,4.45,9.74,12.74,12.33l.84.26h0l.86.24h0l.89.24h0l.92.24.47.11.95.22.49.11,1,.21h0l1,.21.52.1,1.05.2,21.58,3.86q1.31.24,2.58.51l1.26.26c19.5,4.31,30.45,12.9,30.45,30.43,0,23-19.16,35.87-47.82,35.87a83.93,83.93,0,0,1-44.11-12.25l-1-.6-.94-.6-.91-.6c-.61-.41-1.2-.81-1.77-1.22l-.85-.61-.83-.61-.81-.61h0l-.78-.61h0l-.77-.61h0l-.74-.61h0l-.72-.6-.35-.3-.69-.6h0l-.66-.6-.33-.29-.63-.59h0l-.31-.29,10.63-14.63.47.42h0l1,.83.48.41,1,.81.49.41,1,.8h0l1,.79c11.07,8.52,24.77,15,41.29,15l1.36,0,.89,0,.45,0,.88,0h0l.87-.05.86-.07.85-.08h0l.85-.09q1.26-.15,2.46-.36l.8-.14.79-.16.77-.17.76-.19.75-.19.73-.21.72-.23c7.57-2.47,12.59-7.29,12.59-15,0-6.18-3.66-9.88-11.67-12.43l-.84-.26-1.32-.38-.93-.24h0l-.95-.23h0l-1-.23-.5-.11-.52-.11L370.06,104l-2.11-.43-1.38-.3-.68-.16-1.34-.31h0l-1.31-.33C343.73,97.46,333,88.84,333,72.92,333,52.65,349.78,39.46,377.63,39.46ZM556.94,72c22.63,0,36.9,15.76,37.19,39.33v1.92h0l0,.94h0l-.05,1.16h0l0,.67h0l0,.36h-57.8c1,15.61,9.17,24.77,21.73,24.77,9,0,15.09-4.35,17.44-11.23l.11-.35h18c-3.06,15.12-15.62,26.7-35.91,26.7-24,0-39.77-16.73-39.77-42S533.59,72,556.94,72Zm139.33,0c20.56,0,34.34,12.77,36.33,30.5l.06.54H714.14c-1.12-8.84-7.24-15.76-18-15.76-12.08,0-19.8,9.81-19.8,26.86,0,17.37,8.05,26.86,20.12,26.86,10.81,0,16.12-7.36,17.65-16.52l.06-.37H732.5c-2.1,18.82-15.94,32.17-36.55,32.17-23,0-38.32-17-38.32-42S672.92,72,696.27,72ZM461.2,41.72v67.86l33.49-35.86h21.89l-30.27,31,32.37,49.54H497.1l-23.51-38.12-12.39,12.7V154.3H442.84V41.72Zm167.61,2.41V73.72H647V88.19H628.81v42c0,.48,0,.93,0,1.37l0,.51c.46,4.45,2.82,6.72,9.51,6.8h13.9V154.3H633.64c-15.14,0-23-6.62-23.19-19.53V88.19H598.7V73.72h11.75v-19Zm134.28-2.41v47.6C769.05,80,778.87,72,790.62,72c16.74,0,26.06,11.51,26.24,31.09V154.3H798.51V109.42c0-1.49,0-2.9-.14-4.23l-.07-.87c0-.14,0-.28,0-.42l-.09-.83C797,92.81,792.43,88.36,784,88.36c-10.36,0-20.72,9.61-20.93,25.88V154.3H744.73V41.72ZM556.94,86.45A19.26,19.26,0,0,0,537.69,102l-.08.38h37.2C573.84,92.4,566.76,86.45,556.94,86.45Z"/></g></svg>