<svg id="Layer_1" data-name="Layer 1" xmlns="http://www.w3.org/2000/svg" viewBox="0 0 682 199.99"><path d="M399.9,600.85c12,4,23.43,7.83,34.88,11.62,4.22,1.4,8.46,3.81,12.7,3.82s8.28-2.44,12.42-3.82l31.72-10.55c.78-.26,1.56-.47,2.73-.82v8.83c0,6.71-.05,13.42,0,20.09a2.61,2.61,0,0,1-2.13,3c-14.48,4.74-28.91,9.61-43.39,14.35a6,6,0,0,1-3.46,0q-21.7-7.12-43.34-14.46c-.85-.28-2.06-1.31-2.07-2C399.85,621,399.9,611.15,399.9,600.85Z" transform="translate(0 -504.01)" style="fill:#fff"/><path d="M494.21,564.66c0,7.49,0,14.63,0,21.77,0,2.94.74,6.58-.68,8.62s-5.08,2.23-7.8,3.12c-12,4.05-24.05,8.11-36.15,12a8.31,8.31,0,0,1-4.79,0c-14.11-4.58-28.16-9.35-42.26-14-1.95-.64-2.53-1.56-2.5-3.54.09-9.29,0-18.58,0-28.28,1.2.36,2.13.61,3.05.91,14.26,4.73,28.53,9.51,42.78,14.15a6.77,6.77,0,0,0,4-.22c13.66-4.47,27.28-9.08,40.93-13.63C491.79,565.27,492.86,565,494.21,564.66Z" transform="translate(0 -504.01)" style="fill:#fff"/><path d="M298.69,666.45c10.57-6.16,12.58-6.1,19.24.15.89-.74,1.77-1.53,2.71-2.23,6.68-5,16-2.54,17.69,4.8a25.61,25.61,0,0,1,.55,5.24c.07,5.59,0,11.18.05,16.74,0,1.64-.48,2.37-2.24,2.32-9.94-.27-8,1.68-8.2-7.83-.09-3.36,0-6.71-.29-10s-1.81-4.63-4.78-4.51c-2.69.1-4.48,1.85-4.55,5-.14,4.47-.05,9-.06,13.39,0,4,0,4-4.11,4-6.1,0-6.1,0-6.11-6.23,0-3.53.08-7.07,0-10.6s-1.55-5.24-4-5.52c-2.92-.34-4.9.73-5.26,3.64a100.76,100.76,0,0,0-.5,11.67c-.07,7.06,0,7-7,7.09-2.49.05-3.4-.56-3.35-3.23.17-8.27.13-16.55,0-24.83,0-2.15.56-3.15,2.8-2.88a31.2,31.2,0,0,0,3.35,0C297,662.55,299.84,661.92,298.69,666.45Z" transform="translate(0 -504.01)" style="fill:#fff"/><path d="M274.72,568.28c8.88-6.18,12.41-6.11,18.92.23.72-.61,1.46-1.25,2.24-1.88a12.08,12.08,0,0,1,13.05-1.93c4.43,1.86,5.56,5.87,5.51,10.36-.05,5.85-.07,11.7,0,17.56,0,1.85-.45,2.8-2.49,2.63a33.49,33.49,0,0,0-5.3,0c-2,.16-2.54-.76-2.51-2.62.1-4.65.09-9.3,0-13.94,0-2.4-.56-4.72-3.2-5.64a4.44,4.44,0,0,0-6.11,3.87c-.44,4.79-.35,9.63-.42,14.45-.05,3.85,0,3.85-3.77,3.85-6.54,0-6.54,0-6.54-6.61,0-3.44,0-6.88,0-10.31s-1.68-5.4-4.6-5.42-4.74,1.91-4.78,5.54c0,4.84-.05,9.67,0,14.5,0,1.65-.48,2.37-2.23,2.32-10-.27-8,1.64-8.19-7.83-.11-6.72.05-13.39-.06-20.08,0-2.32.79-3.22,3.08-3a15.72,15.72,0,0,0,3.36,0C273.3,564.07,275.4,564.37,274.72,568.28Z" transform="translate(0 -504.01)" style="fill:#fff"/><path d="M340.5,617.26c-.48-3.58,1-3.86,3.23-3.83,7,.09,7,0,7,7.05,0,5.67,0,11.34,0,17-.09,10.11-3.57,14.37-13.58,16-6.56,1.07-12.86-.19-19.16-3.15l2.8-5.83c4.51.68,8.57,1.72,12.65,1.8,5.06.08,7.9-4,6.65-8.76-8.91,5.09-15,4.88-19.84-.66-4.31-5-4.52-13.81-.33-19.18a12.67,12.67,0,0,1,9.88-4.9C333.76,612.62,336.92,614.27,340.5,617.26Zm0,9.8a6.68,6.68,0,0,0-13.35.3c.05,3.77,2.69,6.24,6.67,6.24s6.72-2.59,6.68-6.54Z" transform="translate(0 -504.01)" style="fill:#fff"/><path d="M354.08,689.58c0,3.86-.12,7,.05,10.1.13,2.36-.53,3.29-3.09,3.26-7.21-.09-7.21,0-7.21-7.15,0-10.15.06-20.28-.05-30.42,0-2.24.71-3.06,2.88-2.8a28.58,28.58,0,0,0,3.07,0c2.34,0,5.36-.9,4.37,3.84a10.25,10.25,0,0,0,1.68-1c3.68-3.8,8.15-4.39,12.86-2.72,5.21,1.86,8,6.07,8.76,11.35.64,4.33.51,8.71-1.65,12.78-4.1,7.69-13,9.51-19.79,4.06C355.6,690.58,355.22,690.35,354.08,689.58ZM354,677.86c0,4.32,2.9,7.61,6.75,7.63s6.93-3.36,6.95-7.54-3-7.55-6.88-7.6S354,673.49,354,677.86Z" transform="translate(0 -504.01)" style="fill:#fff"/><path d="M204.15,568.09l2-1.76c3.44-3,7.41-3.36,11.47-1.81s5.7,4.89,5.78,9c.11,6.41.06,12.82.15,19.23,0,1.76-.64,2.41-2.46,2.47-8,.24-8,.3-8-7.73,0-3.16,0-6.32,0-9.51,0-3-1.53-4.89-4-5.16-2.94-.32-5.19,1.07-5.47,4.21-.42,4.8-.3,9.64-.37,14.46-.05,3.66,0,3.66-3.67,3.66-6.61,0-6.61,0-6.61-6.53,0-10.87,0-21.74,0-32.62,0-2.16.56-3.11,2.79-2.87a19.74,19.74,0,0,0,4.48,0c2.57-.3,3.18.85,3.08,3.2-.16,3.77,0,7.55,0,11.34Z" transform="translate(0 -504.01)" style="fill:#fff"/><path d="M329.29,519.06c2.79-2.88,5.93-4.73,10.11-4.43,4.72.34,8.74,3.58,9,8.32.33,7.06.23,14.14.14,21.2,0,.66-1.28,1.29-2,1.93-.05,0-.17,0-.27,0-8,.38-8,.38-8-7.69,0-3.16,0-6.32,0-9.51-.05-3-1.56-4.86-4-5.15-2.83-.33-5.16,1.16-5.44,4.29a127.21,127.21,0,0,0-.31,14.48c.09,2.79-.63,3.72-3.55,3.63-6.77-.2-6.77,0-6.77-6.74,0-10.79.06-21.58-.05-32.37,0-2.32.68-3,3-3,7.3.09,7.3,0,7.3,7.33v7.37Z" transform="translate(0 -504.01)" style="fill:#fff"/><path d="M248.31,591.93c-2.67,1.33-5.09,3.27-7.74,3.69-7.38,1.18-11.86-2.84-12.26-10.8-.29-6.16,0-12.31-.09-18.42,0-1.64.73-2,2.2-2.07,8.49-.39,8.48-.43,8.49,8.1,0,3.07,0,6.15,0,9.21s1.61,4.8,4.12,5c2.8.27,5-1.15,5.29-4.12.43-4.71.35-9.46.41-14.19.06-4,0-4,3.92-4,6.39,0,6.39,0,6.39,6.49,0,7.28-.05,14.51,0,21.77,0,1.89-.49,2.8-2.51,2.61a28.58,28.58,0,0,0-3.07,0C249.43,595.21,249.43,595.21,248.31,591.93Z" transform="translate(0 -504.01)" style="fill:#fff"/><path d="M236.57,617.24a17.13,17.13,0,0,0,1.5-1.2c3.39-3.41,7.47-4,11.83-2.56,4.53,1.52,6.07,5.41,6.26,9.66.28,6.4.14,12.83,0,19.24,0,.66-1.25,1.29-1.93,1.93,0,0-.18,0-.27,0-8,.35-8,.35-8-7.7a97.81,97.81,0,0,0-.41-10.56c-.31-3-2.06-4.21-4.94-4.08a4.27,4.27,0,0,0-4.4,4.43c-.25,5-.32,10-.3,15.05,0,2.12-.64,2.91-2.89,2.91-7.56,0-7.56.07-7.56-7.32,0-7,.08-13.95,0-20.92,0-2.12.69-2.91,2.74-2.68a21,21,0,0,0,2.51,0C235,613.47,235,613.47,236.57,617.24Z" transform="translate(0 -504.01)" style="fill:#fff"/><path d="M355.55,651.07c.91-2.13,1.85-4.31,2.86-6.68a17.78,17.78,0,0,0,3.78,1.12,5.22,5.22,0,0,0,3.26-.85c.42-.32.19-1.88-.14-2.72-3.27-8.39-6.63-16.75-10-25.12-.38-.93-.73-1.87-1.29-3.31,3.47,0,6.57-.13,9.65.09.65,0,1.46,1.27,1.76,2.11,1.61,4.55,3.07,9.14,4.6,13.72.26.77.56,1.53,1.12,3,.56-1.25.93-1.89,1.15-2.59,1.5-4.69,3-9.36,4.4-14.08.5-1.71,1.35-2.4,3.16-2.31,2.56.14,5.14,0,8.17,0-1.19,3.21-2.24,6-3.24,8.72-2.8,7.56-5.59,15.15-8.51,22.67C372.73,654.13,364.25,656.73,355.55,651.07Z" transform="translate(0 -504.01)" style="fill:#fff"/><path d="M426.47,666.31l2.24-1.94c3.3-2.86,7.12-3.09,11-1.8s5.78,4.37,5.94,8.3c.28,6.87.36,13.74.34,20.61,0,.65-1.25,1.31-1.94,1.94-.05.05-.18,0-.27,0-8.07.36-8,.36-8.08-7.69,0-3.44-.1-6.87-.31-10.31-.13-2.53-1.43-4.16-4.12-4.37-2.88-.22-4.94,1-5.18,3.83-.43,4.89-.38,9.82-.47,14.74-.06,3.8,0,3.8-3.82,3.8-6.5,0-6.5,0-6.5-6.38,0-7.27.06-14.51,0-21.76,0-2,.56-3,2.67-2.74q1.68.08,3.36,0c2.41,0,5.32-.68,4.27,4.14Z" transform="translate(0 -504.01)" style="fill:#fff"/><path d="M449.47,700.29l2.94-6.71a41.15,41.15,0,0,0,4.09,1.11c2.68.44,3.87-1,2.9-3.51-3.36-8.54-6.78-17.06-10.17-25.59-.33-.83-.59-1.68-1-3,3.42,0,6.46-.12,9.47.1.67,0,1.52,1.22,1.81,2,1.55,4.37,2.94,8.79,4.4,13.19.31.94.69,1.87,1.34,3.64.69-1.62,1.12-2.47,1.41-3.36,1.32-4.15,2.8-8.26,3.83-12.49.65-2.64,1.94-3.42,4.48-3.19,2.18.21,4.39.05,7,.05-.47,1.47-.74,2.52-1.12,3.53-3.36,9-6.71,18.08-10.15,27.08-1.76,4.64-4,9-9.67,9.65A18.15,18.15,0,0,1,449.47,700.29Z" transform="translate(0 -504.01)" style="fill:#fff"/><path d="M364,568.28c2.61-2.35,5.14-4.57,8.95-4.54,6.21,0,10.34,3.46,10.63,9.7.28,6.59.13,13.19,0,19.8,0,.67-1.21,1.32-1.9,2-.1.1-.35,0-.56,0-7.7.21-7.69.21-7.7-7.41,0-3,.07-6,0-8.95-.08-2.17-.46-4.29-2.64-5.49-3.36-1.82-7.07.46-7.17,4.51q-.17,7.39,0,14.78c.05,2-.61,2.7-2.56,2.56a47.39,47.39,0,0,0-5.59,0c-1.72.09-2.32-.67-2.31-2.31q0-13.1,0-26.21c0-1.85.8-2.49,2.55-2.35,1,.09,2,0,3.06,0C363,564.37,363,564.37,364,568.28Z" transform="translate(0 -504.01)" style="fill:#fff"/><path d="M267.56,661.93c8.68-.35,16.92,5.78,17.1,16.05.16,9.1-7.53,16-17.18,16-9.81,0-17-6.78-17-16.08S257.74,661.93,267.56,661.93Zm-.19,8.61c-4.06,0-6.92,3.11-6.87,7.43a7.36,7.36,0,0,0,7,7.5,7.47,7.47,0,0,0-.15-14.93Z" transform="translate(0 -504.01)" style="fill:#fff"/><path d="M400,691.41c-3.51.9-6.79,2.28-10.14,2.48-5.45.33-9-3.27-9.58-8.72-.48-4.82,2.64-8.95,8-9.65,3.78-.49,7.66-.1,11.58-.1a4.2,4.2,0,0,0-4.22-5.34,40,40,0,0,0-8.53.72c-1.55.29-2.11.05-2.62-1.42-1.82-5.26-1.68-5.94,3.73-6.61a49.3,49.3,0,0,1,12.67,0c5.9.83,9.3,5.06,9.47,11s0,11.7.07,17.55c0,1.77-.75,2.24-2.36,2.18a33.94,33.94,0,0,0-4.73,0C401.3,693.64,399.82,693.27,400,691.41Zm-5.44-3.67c3.32,0,5.6-2,5.68-5.09,0-2.28-1.12-3.07-4.43-3.08s-5.43,1.68-5.5,4.22,1.51,3.92,4.26,4Z" transform="translate(0 -504.01)" style="fill:#fff"/><path d="M337.48,592.11c-3.12,2.59-6.23,3.91-10,3.73-5.39-.24-9.17-3.44-9.4-8.3-.28-6,2.7-9.78,8.47-10.3,3.56-.32,7.16-.06,10.86-.06.65-2.9-1.07-5.32-4.7-5.35-3.21,0-6.42.49-10.07.81a51,51,0,0,1-1.58-5.29c-.11-.49.69-1.56,1.27-1.74,6.15-2,12.35-2.7,18.55-.41a10.12,10.12,0,0,1,7,9.81c.18,6,0,11.9.14,17.85,0,1.85-.71,2.5-2.49,2.37a29.3,29.3,0,0,0-4.19,0C339.21,595.4,337.43,595.24,337.48,592.11Zm-5.22-2.59c3.43,0,5.9-2.16,5.81-5.35s-2.89-2.41-4.62-2.61c-3.13-.36-5.52,1.63-5.59,4.11s1.63,3.87,4.4,3.87Z" transform="translate(0 -504.01)" style="fill:#fff"/><path d="M200.57,631.49c1,5,5.46,7.2,10,5.38,1.44-.56,3.08-2.24,4.11-1.86,1.9.65,3.41,2.41,5.24,3.82a12.73,12.73,0,0,1-9,5.78c-10.17,1.75-19.83-2.64-20.62-14.87-.56-8.34,4.55-15.66,13-16.78,9.75-1.29,16.45,3.77,17.73,12.94.77,5.59.77,5.59-4.78,5.59Zm11.12-4.86c-.56-4.18-2.28-6.12-5.07-6.33a5.34,5.34,0,0,0-5.89,4c-.17.67.52,2.24.88,2.24,3.27.2,6.55.12,10.08.12Z" transform="translate(0 -504.01)" style="fill:#fff"/><path d="M270.31,631.49c.32,4.16,3.63,6.5,7.83,5.92a10.13,10.13,0,0,0,2.65-.79c1.25-.56,2.8-2,3.58-1.64,1.86.84,3.35,2.5,5.2,4a14,14,0,0,1-8.68,5.52c-9.9,2-18.33-2.24-20.59-11.68-1.68-7,1.45-14.73,7.4-18.09s14.2-2.45,18.66,2.1c3.45,3.53,4.64,7.91,4.59,12.75,0,1.74-1,1.93-2.33,1.92-5,0-10.07,0-15.07,0Zm-.35-4.86c3.36,0,6.71.06,10.07-.09.35,0,1-1.39.9-2A5.37,5.37,0,0,0,275,620.3c-2.94.18-4.67,2.28-5.05,6.34Z" transform="translate(0 -504.01)" style="fill:#fff"/><path d="M362.66,533.53c1.52,6.34,7.21,7.42,14.09,2.9l5.4,4.41a13.29,13.29,0,0,1-8,5.36c-10.39,2.39-19-2.12-21-10.85-1.41-6.09-.56-11.9,4.16-16.48,4.56-4.44,10.15-5.16,16.06-3.51,6.4,1.79,11.41,9.93,10.15,16.41-.13.64-1.51,1.45-2.33,1.47-5.1.14-10.22.06-15.33.08C364.87,533.32,363.89,533.45,362.66,533.53Zm5.47-5c1.2,0,2.4,0,3.6,0,2,.07,2.39-.86,1.68-2.6a5.67,5.67,0,0,0-4.91-3.91c-2.64-.24-4.38,1.12-5.49,3.41s-.71,3,1.77,3.07C365.93,528.62,367,528.57,368.13,528.57Z" transform="translate(0 -504.01)" style="fill:#fff"/><path d="M249.1,687.32a16.1,16.1,0,0,1-19.18,5.76c-6.79-2.45-10.63-8.63-10.19-16.46.38-7,5.21-12.63,12.31-14.36,6.71-1.63,13.67.87,16.78,6.27-1.86,1.42-3.7,3-5.72,4.22-.48.3-1.68-.12-2.31-.56-2.27-1.74-4.72-2.27-7.27-1.06-2.8,1.32-4,3.88-4,6.83s1.12,5.48,3.92,6.88a6,6,0,0,0,7-.83c1.67-1.47,2.79-1.18,4.29.1C246.11,685.22,247.58,686.18,249.1,687.32Z" transform="translate(0 -504.01)" style="fill:#fff"/><path d="M296.37,515.18c0-2.14.06-3.92,0-5.64-.07-1.54.52-2.24,2.1-2.16.74.05,1.48,0,2.23,0,5.54,0,5.6,0,5.92,5.6.1,1.63.67,2.23,2.35,2.31,5.35.21,5.28.27,5.07,5.63-.07,1.82-.75,2.49-2.52,2.43-5.65-.23-4.82.34-4.88,5.11,0,1.68,0,3.36,0,5,.11,3.91,1.59,5.07,5.53,4.32.35-.07.71-.09,1.6-.2,0,2.4.1,4.66-.07,6.89a2.14,2.14,0,0,1-1.56,1.34c-3.19.25-6.49.84-9.59.32-4.08-.69-6.06-4-6.15-8.78-.08-3.81-.06-7.63,0-11.44,0-1.49-.23-2.45-2-2.71-.6-.08-1.3-1.11-1.53-1.82a15,15,0,0,1-.11-2.8C292.5,516.26,293.18,514.76,296.37,515.18Z" transform="translate(0 -504.01)" style="fill:#fff"/><path d="M306.12,618.9a11,11,0,0,1,1.56-2.09,21.38,21.38,0,0,1,4.61-3.39c2.51-1.12,3.13-.6,3.17,2.09V618c0,1.68.46,3.68-.3,4.9-.62,1-2.76,1-4.19,1.61-4.05,1.59-5.21,5.07-5.48,9a86.06,86.06,0,0,0,0,8.65c0,1.71-.64,2.2-2.3,2.23-8,.28-8,.32-8-7.46,0-6.88.08-13.76-.05-20.64,0-2.24.73-3,2.91-2.79s4.47-.6,6,.28C305.27,614.4,305.42,617,306.12,618.9Z" transform="translate(0 -504.01)" style="fill:#fff"/><path d="M427.29,560h-3.67a46.05,46.05,0,0,0-.1-6.78c-.16-1.12-1.15-2.8-2-3-1.83-.39-2.46,1.26-2.5,2.88-.07,2.24,0,4.43,0,6.84h-3.61c0-5.14-.11-10.3.13-15.45,0-.73,1.85-1.36,3.36-2.41v5.76c.45.16.65.32.77.27,5.37-2.28,7.61-.82,7.65,5C427.3,555.38,427.29,557.59,427.29,560Z" transform="translate(0 -504.01)" style="fill:#fff"/><path d="M412.32,557.21c.86,3,.63,3.35-2.42,3.52-3.8.21-7.09-.79-8.95-4.34a9.68,9.68,0,0,1,.47-10.3c2.3-3.41,5.86-4,9.64-3.58,2.68.28,1.62,2,1.39,3.46-5.82-.36-8.36,1.31-8.47,5.49S406.43,557.49,412.32,557.21Z" transform="translate(0 -504.01)" style="fill:#fff"/><path d="M442.08,555.09h-8.76c2,4,5,2.66,7.59,2.29,1,2,.17,2.87-1.65,3.23-5.63,1.12-9.5-1.52-9.59-6.62-.07-4.64,2.47-7.22,7-7.07C440.52,547,442.58,549.91,442.08,555.09Zm-8.82-3.6.48.73h4.68l.41-.82c-.9-.64-1.83-1.83-2.7-1.79s-1.92,1.2-2.87,1.89Z" transform="translate(0 -504.01)" style="fill:#fff"/><path d="M467.07,553.44c.11-4.29,2.57-6.62,6.87-6.52,4,.09,6.49,2.9,6.36,7.13s-2.79,6.82-7.12,6.67C469.19,560.59,467,557.91,467.07,553.44Zm3.72.37c.08,2,.42,3.88,2.8,4.19,1.65.2,3.08-1.87,2.93-4.27-.12-1.85-.42-4-2.8-4C471.12,549.7,470.88,551.88,470.79,553.81Z" transform="translate(0 -504.01)" style="fill:#fff"/><path d="M486,559.79c-2.61.86-3.66.23-3.57-2.24.11-3.23,0-6.46,0-10.17l3.91.78-.14-.28c2-.14,4.11-.82,5.86-.26,2.38.76,2.24,3.35,2.24,5.48V560h-3.67v-6.63c0-1.56-.24-3.4-2.18-3.05-1,.17-2.14,1.88-2.35,3.05A37.58,37.58,0,0,0,486,559.79Z" transform="translate(0 -504.01)" style="fill:#fff"/><path d="M456.2,547.81c-1.25,3.73-2.41,7.51-3.87,11.18-.25.65-1.75,1.12-2.67,1.12s-2.33-.52-2.59-1.19c-1.44-3.6-2.59-7.32-3.83-11,3.67-.84,3.81-.75,4.68,2.6a20.07,20.07,0,0,0,2,5.46,42.05,42.05,0,0,0,1.5-5.28C451.86,547.86,453.15,546.75,456.2,547.81Z" transform="translate(0 -504.01)" style="fill:#fff"/><path d="M461.66,549l4.11-2.57c.09,1.75.13,2.8.19,3.92-6.46.83-3.61,6-4.75,9.64h-3V547.27l3.72,1.08C461.83,548.54,461.74,548.75,461.66,549Z" transform="translate(0 -504.01)" style="fill:#fff"/><path d="M492.09,662.06l3.06,2.87c.44-.88.86-1.68,1.28-2.53l.89.34.24,4.43-.5.08c-.18-.73-.35-1.46-.4-1.68h-3.77l-.8,2.4Z" transform="translate(0 -504.01)" style="fill:#fff"/><path d="M486.24,662.67h2.62c-.36,1.52-.71,3-1.08,4.56Z" transform="translate(0 -504.01)" style="fill:#fff"/><rect width="682" height="199.99" style="fill:none"/></svg>