<svg id="Layer_1" data-name="Layer 1" xmlns="http://www.w3.org/2000/svg" viewBox="0 0 1168.98 306.94"><path d="M349.41,1297.56c-28-4.23-42-27.58-37-51,4.78-22.4,28.15-36.76,50.44-31.07,20.09,5.13,39.09,26.72,27.93,58.34,7.95,4.59,16,9.26,24,13.88,12.13,7,24.33,13.81,36.41,20.86,2.32,1.36,3.87,1.52,6.14-.28s5.22-2.74,8.82-4.54c.89-.75-2.34-5.94,3.43-4.55.2,1.69.41,3.46.53,4.45,3.72,2.23,6.88,4.27,10.2,6a4.78,4.78,0,0,0,3.84.3c17.58-9.81,35.08-19.77,52.91-29.88-.88-2.63-1.75-5.09-2.52-7.58-6.29-20.46,4.1-42,24.28-50.41,19-7.9,42.5.65,52,18.9,10.06,19.42,4.33,42.79-13.78,54.14-4.39,2.75-5.86,5.53-5.67,10.66.47,12.31.15,24.65.15,35.67,7.49,3.94,14.5,6.5,20.19,10.82,17.47,13.28,20.69,38.67,7.81,56.42-13.12,18.07-38.08,22.77-56.4,10.38-2.93-2-5-2-8-.39q-32.85,18-65.89,35.66c-2.48,1.33-3.46,2.68-3.45,5.71a17.81,17.81,0,1,1-35.58-1c.23-3.33-.86-4.58-3.61-5.89q-30-14.33-59.76-29c-2.54-1.25-4.27-1.21-6.73.47-14.74,10.12-30.32,11-45.54,1.77-15-9.12-21.88-23.16-19.6-40.73s12.52-29.09,29.34-34.31c4.16-1.29,5.31-3,5.23-7.14-.25-13.67-.09-27.35-.09-41Zm42.48,71.52-.18-.17c1.42,3.71,3.18,7.34,4.2,11.16,3.47,13,.84,25-7,36.39l64.7,31.33,12-6.22V1341.24L453.78,1335c-1.88-.25-4.77,5.17-7.49-.13l4.78-3.24c-.27-4.61-.3-8.57-.84-12.45a5.72,5.72,0,0,0-2.61-3.5c-8.3-4.93-16.7-9.7-25.08-14.48-12-6.82-23.94-13.62-36.15-20.56a44.05,44.05,0,0,1-29.13,16.72c0,16.65-.07,33,.17,49.28,0,1.12,2.23,2.62,3.71,3.24,6.22,2.61,13,4.2,18.7,7.62C384.5,1360.26,387.92,1365.13,391.89,1369.08Zm191.69-67.86c-15.78,2.62-28.87-1.09-39.48-12.2-1.91-2-3.33-1.93-5.53-.67-16.78,9.56-33.63,19-50.39,28.6-1.08.62-2.36,2.17-2.33,3.26.32,11.17-5.29,17.7-15.75,20.45v100.8c3.46,1.92,6.89,3.33,9.68,5.55,2.11,1.67,3.48,1.68,5.65.44,5.78-3.3,11.69-6.37,17.55-9.54l50-27.12c-20.71-29.34-2.45-64.89,30.57-68.37Zm-25.67-29c2.94-1.89,6.55-3.24,8.66-5.82s4.25-3.78,7-2.42c.58.29,0,3.61-.53,5.37-1.56,4.93-.81,9.26,2.94,12.84a11.67,11.67,0,0,0,13.49,1.53c4.56-2.62,6.27-6.71,5.65-11.83-.67-5.59-4.73-8.84-11.4-9.92-1.51-.24-2.75-2.11-4.11-3.23,1.27-.64,2.49-1.67,3.83-1.85,5.64-.76,9.82-4.22,10.94-9.41a11.54,11.54,0,0,0-5.25-12,12.3,12.3,0,0,0-14,1.19c-3.64,3.29-4.61,8.76-2.42,13.78.33.76,1.27,1.65,1.08,2.17a24.25,24.25,0,0,1-2.29,4c-1.34-.9-3.08-1.52-4-2.75-3.61-5.07-9.19-7.16-14.3-5a11.55,11.55,0,0,0-7.22,12.87C547,1267.12,551.68,1271.11,557.91,1272.19Zm-199.68,6.49c10.38-2.71,14.2-6,14.56-12.53.36-6.39-3.16-10.09-9.29-11.7,10.9-8.82,9.08-15.76-5.34-21.4l-.33-6.18-4.79.25c-.37,5.72-.37,5.72-4,5.52l-.39-5.37h-4.79l-.73,5.66-9.71.87-.66,1.63a8.06,8.06,0,0,0,1.88.69c4.2.47,4.53,3.18,4.43,6.71-.23,8-.27,16,0,24,.16,4.56.14,8.57-5.38,9.84-.12,0-.13.6-.32,1.6l9.71.82.87,5.54h3.61l3.36-5.79,3,5.79h3.89Zm235.13,79.39c-3.5,0-6.45.18-9.37,0-3.2-.26-4.8.75-5.44,4.1-.78,4.07-2.32,8-3.34,12-1.22,4.83-1.54,10.24-9.59,10.23,1.89,3.08,3.12,5.07,4.7,7.61-.64,2.59-1.5,6.12-2.42,9.88h36c.44-2.95.85-5.66,1.36-9.13H585c.66-6.37.66-6.37,10.31-12.24l-1.67-4.87-4.78.48C590.41,1370,591.79,1364.36,593.36,1358.07Zm-253.6,29.84c4.92,4.23,9.49,8.31,14.27,12.13a3.91,3.91,0,0,0,3.72.13c4.89-3.93,9.56-8.13,14.39-12.32-5.39-9.88-10.59-19.39-16.2-29.68Zm1.78,4.62-.69.73c4.89,10,9.79,20,15.14,30.89l15-30.88-.76-.61L356,1404.58c-2.64-2.19-4.93-4.09-7.21-6Z" transform="translate(-311.43 -1171.19)" style="fill:#fff"/><path d="M726.65,1312.63c-15.3-15-28.86-17.3-39.77-7.12-10.18,9.49-10.92,28.17-1.55,39.23,9.73,11.49,23,10.43,41.33-3.51l16.5,17.6c-10.78,15.46-37.66,23.7-57.39,17.82-22.54-6.72-36.62-24.76-37.52-48.08-.88-22.47,11.87-42.35,32-50,22.34-8.42,49.45-2.47,63.07,14.08Z" transform="translate(-311.43 -1171.19)" style="fill:#fff"/><path d="M918.5,1376.42H889.77v-77.23h28.46c.17,3.27.34,6.36.51,9.45l1.49,1.19c.45-1,.65-2.32,1.39-3.08,9.32-9.64,20.63-10.84,32.68-6.89,10,3.29,16.54,13.44,16.71,25.51.22,16,.09,32,.08,48a30.56,30.56,0,0,1-.34,3.09H942.19c0-5.39,0-10.49,0-15.6,0-8.83.12-17.66-.08-26.49-.15-6.3-3.86-10.5-9.32-11.22a11.79,11.79,0,0,0-12.9,8,34.78,34.78,0,0,0-1.32,9.82C918.41,1352.59,918.5,1364.23,918.5,1376.42Z" transform="translate(-311.43 -1171.19)" style="fill:#fff"/><path d="M786.78,1297.91c16.77.29,30,4.25,38.64,17.38a39.81,39.81,0,0,1-28.28,61.85c-11.18,1.48-22,.45-32-4.86-15.25-8.09-22.16-23.76-19.16-42.43,2.52-15.65,14.61-27.77,30.83-30.71C780.69,1298.43,784.68,1298.16,786.78,1297.91Zm-12.7,40.55c.93,3.33,1.39,6.9,2.89,9.94,4,8.12,15.72,9.34,21.54,2.51s5.73-19.6-.44-25.86a14.56,14.56,0,0,0-7.72-4C780.84,1319.7,774.53,1326.85,774.08,1338.46Z" transform="translate(-311.43 -1171.19)" style="fill:#fff"/><path d="M1063.39,1343.11l23,33.54c-5.41,0-10,.19-14.48-.14-1.09-.08-2.29-1.73-3.05-2.91-5.32-8.26-10.65-16.52-15.72-24.94-1.59-2.64-3.32-3.41-6.38-3.31-8.78.29-17.58.1-26.71.1v30.91h-13.68V1276.7c8.9,0,17.52-.14,26.13,0,8.31.17,16.73-.07,24.9,1.19,15.88,2.45,25.55,12.44,27.4,26.88,2.16,16.93-4.63,30.09-19.13,37.07C1065.07,1342.15,1064.53,1342.49,1063.39,1343.11Zm-43.07-53.87V1333c9.34,0,18.32.06,27.3,0a37.75,37.75,0,0,0,6.92-.87c8.32-1.68,14.4-6,16.45-14.67,3.69-15.64-4.23-27-20.35-28.05C1040.71,1288.7,1030.69,1289.24,1020.32,1289.24Z" transform="translate(-311.43 -1171.19)" style="fill:#fff"/><path d="M1402.57,1357.15l7,7.33c-6.6,7.48-14.91,10.68-24.14,12.25-18.07,3.08-34.93-5.72-41.71-21.93-7.08-16.91-1.66-37.43,12.57-47.56,16.85-12,42.82-7.59,52.54,8.92,3.77,6.4,5.74,17.1,5,27.7h-59.53c1.74,9.35,5.78,16.41,14.15,19.88C1380.86,1368.92,1392.16,1366.05,1402.57,1357.15Zm-.83-23.51c-.7-14-10-22.41-23.59-22.05-13.21.35-23.64,10.11-23.42,22.05Z" transform="translate(-311.43 -1171.19)" style="fill:#fff"/><path d="M1178.2,1338.8c0,22.65-15.63,38.27-38.36,38.32-23.2.06-39-15.39-39-38.21s15.83-38.45,38.88-38.38C1162.52,1300.6,1178.19,1316.19,1178.2,1338.8Zm-13.25-.06c-.08-15.52-10.94-26.79-25.68-26.64s-25.36,11.7-25.21,27.18c.16,15.63,10.94,26.76,25.76,26.59S1165,1354.5,1165,1338.74Z" transform="translate(-311.43 -1171.19)" style="fill:#fff"/><path d="M1264,1376.46h-12.73v-13l-1.7-1.26a12.28,12.28,0,0,1-.93,2.74c-8,13-28.81,15.3-40.83,8.57-8-4.47-11.27-11.94-12.55-20.53a41.22,41.22,0,0,1-.23-6c0-15.14,0-30.27,0-45.66h13.1c.09,2,.24,3.74.24,5.52,0,11.84,0,23.68,0,35.52,0,13,5.59,20.65,15.78,21.85,13.06,1.54,23.17-5.38,25.89-18a51.79,51.79,0,0,0,.92-10.42c.14-11,.1-22,.14-33a6.16,6.16,0,0,1,.4-1.32H1264Z" transform="translate(-311.43 -1171.19)" style="fill:#fff"/><path d="M843.37,1299.14h28.31v77.21H843.37Z" transform="translate(-311.43 -1171.19)" style="fill:#fff"/><path d="M1422.41,1366.93c1.86-3.5,3.41-6.4,5.14-9.67,7.44,5.59,15.48,9,24.6,9a33.13,33.13,0,0,0,8.34-1.13c3.62-.95,6.13-3.24,6.62-7.24.53-4.35-1.3-7.69-5-9.49-4.32-2.08-9-3.51-13.48-5.17-3-1.09-6.07-1.85-8.93-3.15-10.08-4.6-13.87-10.72-13.06-20.65.72-8.89,5.76-14.59,16-17.47,12.57-3.54,24.27-.92,35.87,5.52l-4.43,9.34c-6.31-1.78-12.23-4-18.35-5a22.68,22.68,0,0,0-11.17,1.22c-6.8,2.54-7.54,10.12-1.43,14,3.45,2.18,7.55,3.36,11.41,4.85,4.8,1.85,9.83,3.2,14.46,5.4,8,3.8,11.92,10.29,11.42,19.32-.49,8.85-5.18,14.76-13.18,17.68C1451.24,1380.1,1436.55,1377,1422.41,1366.93Z" transform="translate(-311.43 -1171.19)" style="fill:#fff"/><path d="M1327.94,1361.86a76.7,76.7,0,0,1,2.79,7.94,3.61,3.61,0,0,1-1.39,3.11c-6.6,3.6-13.62,5.52-21.13,3.7-9.24-2.23-14.18-8.57-14.43-19-.3-12.5-.11-25-.14-37.5v-5.91l-10.39-.47v-9.62l10.15-.56v-19.78h13.41v20h23.11v10H1307v23.38c0,5.34-.06,10.67,0,16,.15,10.17,4.63,13.6,14.41,11C1323.48,1363.58,1325.46,1362.73,1327.94,1361.86Z" transform="translate(-311.43 -1171.19)" style="fill:#fff"/><path d="M452.78,1200.22l-4.41,2.42-2.06-3.2c4.47-1.53,4.56-4.41,4-8.49-1.11-7.63,2.38-13.6,9-17.51a17.49,17.49,0,0,1,19.65,1.71c5.84,4.91,8.1,11.07,6.24,18.71-.41,1.69.39,3.65.54,5.5.07.89.23,2.05-.24,2.61s-1.65.5-2.47.37c-2.32-.37-12,4.76-13.09,6.93a3.26,3.26,0,0,1-1.88,1.59c-.55.12-1.88-.65-1.86-1,.21-3.47-2.78-3-4.62-4.08C458.69,1204.19,456,1202.29,452.78,1200.22Z" transform="translate(-311.43 -1171.19)" style="fill:#fff"/><path d="M872.31,1276.89c-.08,8.69-6.22,14.74-14.89,14.68s-14.83-6.27-14.86-14.81c0-8.82,6.28-15,15.25-14.83C866.57,1262,872.39,1268.05,872.31,1276.89Z" transform="translate(-311.43 -1171.19)" style="fill:#fff"/><path d="M404.09,1222.94c3.89-.17,6-6,9.67-.25C410.63,1223.54,408.6,1228.31,404.09,1222.94Z" transform="translate(-311.43 -1171.19)" style="fill:#fff"/><path d="M501.68,1207.72c-1.89,1.09-3.12,2.21-3.55,2a51.94,51.94,0,0,1-5.31-4c.82-.54,1.89-1.72,2.42-1.51A56.42,56.42,0,0,1,501.68,1207.72Z" transform="translate(-311.43 -1171.19)" style="fill:#fff"/><path d="M469.66,1226.64c-4.34,1.07-3.92-1.79-3.62-4,.2-1.43,1.32-2.72,2-4.08l1.59.68Z" transform="translate(-311.43 -1171.19)" style="fill:#fff"/><path d="M470.73,1283.81c-.89,2.41-1.69,4.59-2.5,6.77-.76-1.45-1.89-2.82-2.2-4.36C465.49,1283.51,466.58,1282.12,470.73,1283.81Z" transform="translate(-311.43 -1171.19)" style="fill:#fff"/><path d="M469.82,1251.22v6.87l-1.07,1c-.94-1-2.57-2-2.65-3C465.94,1253.91,464.61,1250.22,469.82,1251.22Z" transform="translate(-311.43 -1171.19)" style="fill:#fff"/><path d="M470.94,1267.6l-3,7.09c-.68-1-1.85-2.07-1.93-3.17C465.89,1269.33,465,1266,470.94,1267.6Z" transform="translate(-311.43 -1171.19)" style="fill:#fff"/><path d="M469.75,1234.76v8.11c-1.29-.27-3.24-.33-3.32-.75a19.45,19.45,0,0,1-.15-6.23C466.35,1235.42,468.29,1235.21,469.75,1234.76Z" transform="translate(-311.43 -1171.19)" style="fill:#fff"/><path d="M441,1207.65l-7.38,1.6c.58-1.23.85-2.85,1.81-3.59C437.3,1204.22,439.74,1202.23,441,1207.65Z" transform="translate(-311.43 -1171.19)" style="fill:#fff"/><path d="M527.84,1224.58c-7.06-3.18-7.06-3.18-5.2-6.78C524.49,1219.84,530.15,1218.6,527.84,1224.58Z" transform="translate(-311.43 -1171.19)" style="fill:#fff"/><path d="M397.17,1227.22a28.54,28.54,0,0,1,1.92,2.76,36.05,36.05,0,0,1-5.34,3.94c-.21.12-1.38-1.37-2.11-2.11Z" transform="translate(-311.43 -1171.19)" style="fill:#fff"/><path d="M509.21,1210.18l5.11,5.58c-1.5,0-3.11.32-4.47-.13C507.5,1214.86,505.41,1213.57,509.21,1210.18Z" transform="translate(-311.43 -1171.19)" style="fill:#fff"/><path d="M419.08,1215.21c5.91-3.72,5.91-3.72,7.77-.76C421.3,1219.11,421,1219.14,419.08,1215.21Z" transform="translate(-311.43 -1171.19)" style="fill:#fff"/><path d="M535.25,1229.22c.45-4.82,2.59-4.45,4.75-2.85,1.16.87,1.78,2.47,2.64,3.73Z" transform="translate(-311.43 -1171.19)" style="fill:#fff"/><path d="M418.32,1350.48c3.37-.49,5.35-5.79,9.24-.64C424.48,1351,422.41,1355.63,418.32,1350.48Z" transform="translate(-311.43 -1171.19)" style="fill:#fff"/><path d="M391.89,1369.08c-1.11-3.73,2-4.37,4.22-5.31.9-.39,2.41.61,3.65,1v2l-8.06,2.18Z" transform="translate(-311.43 -1171.19)" style="fill:#fff"/><path d="M411.84,1354.56c2.69,5.66-2.93,4.92-4.44,7.62l-2.44-3.59Z" transform="translate(-311.43 -1171.19)" style="fill:#fff"/><path d="M434.39,1345.81l-1.63-3.32,6.09-3.48C441.19,1342.37,441.19,1342.37,434.39,1345.81Z" transform="translate(-311.43 -1171.19)" style="fill:#fff"/><path d="M481.18,1339.75c1.7-6.21,4.33-3,6.22-2.07.8.39,1,2.11,1.44,3.23Z" transform="translate(-311.43 -1171.19)" style="fill:#fff"/><path d="M511.39,1350.42l6.25,3.2c-.42,2.81-1.49,4.2-4.15,2.31C511.7,1354.66,507.61,1354.11,511.39,1350.42Z" transform="translate(-311.43 -1171.19)" style="fill:#fff"/><path d="M544.1,1373.12c-1.73-3.45-8.2-2.14-4.68-8.31C541.06,1367.52,547.2,1366.22,544.1,1373.12Z" transform="translate(-311.43 -1171.19)" style="fill:#fff"/><path d="M495.72,1346.26c3.12-6.07,5.08.25,7.74.23C500.63,1351.81,498.33,1346.27,495.72,1346.26Z" transform="translate(-311.43 -1171.19)" style="fill:#fff"/><path d="M531.93,1361.14c-1.72,5.25-4.31,2.24-6.15,1.13-.93-.56-1-2.47-1.53-3.77l1.41-.62Z" transform="translate(-311.43 -1171.19)" style="fill:#fff"/><path d="M349.14,1273.86v-16.17c4.12-.69,8.77-1.38,11.3,2.34a12,12,0,0,1,1,9.63C359.52,1274.83,354.23,1273.84,349.14,1273.86Z" transform="translate(-311.43 -1171.19)" style="fill:#fff"/><path d="M349.1,1253.8v-15.59c3.8-.38,7.74-.55,9.61,3.08,1.1,2.14,1.35,6.22,0,7.74C356.82,1251.24,353.14,1251.94,349.1,1253.8Z" transform="translate(-311.43 -1171.19)" style="fill:#fff"/></svg>