<svg id="Layer_1" data-name="Layer 1" xmlns="http://www.w3.org/2000/svg" viewBox="0 0 900 200"><defs><style>.cls-1,.cls-2{fill:#fff;}.cls-2{fill-rule:evenodd;}</style></defs><path class="cls-1" d="M121.89,166.1V140.6c27.06,0,47.88-26.8,37.6-55.17a38.58,38.58,0,0,0-22.77-22.76c-28.36-10.28-55.17,10.53-55.17,37.6h0l-25.5.13c0-43.07,41.64-76.64,86.78-62.58a63.32,63.32,0,0,1,41.51,41.5C198.39,124.47,165,166.1,121.89,166.1Z"/><polygon class="cls-2" points="121.89 140.73 96.52 140.73 96.52 115.36 96.52 115.36 121.89 115.36 121.89 115.36 121.89 140.73"/><polygon class="cls-2" points="96.52 160.25 77 160.25 77 160.25 77 140.73 96.52 140.73 96.52 160.25"/><polygon class="cls-2" points="77 140.73 60.61 140.73 60.61 140.73 60.61 124.34 60.61 124.34 77 124.34 77 124.34 77 140.73"/><path class="cls-1" d="M290.25,72.55c-7.55-5.2-16.92-7.93-27.85-7.93H238.59v75.59H262.4c10.93,0,20.3-2.73,27.85-8.33a27.92,27.92,0,0,0,9.62-12.1A44.28,44.28,0,0,0,303.26,102a44.13,44.13,0,0,0-3.39-17.7A27.66,27.66,0,0,0,290.25,72.55Zm-37.73,5h7.54c8.33,0,15.22,1.69,20.43,4.81,5.72,3.52,8.72,10.15,8.72,19.65,0,9.89-3,16.78-8.72,20.56h0c-4.95,3.25-11.84,4.94-20.3,4.94h-7.67Z"/><path class="cls-1" d="M319.91,63.84a8.23,8.23,0,0,0-8.33,8.06,7.59,7.59,0,0,0,2.48,5.86,8,8,0,0,0,5.85,2.47,7.61,7.61,0,0,0,5.86-2.47,8.28,8.28,0,0,0,2.47-5.86,7.12,7.12,0,0,0-2.47-5.72A8.19,8.19,0,0,0,319.91,63.84Z"/><rect class="cls-1" x="313.02" y="87.13" width="13.4" height="53.34"/><path class="cls-1" d="M375.21,91.55c-4-3.64-8.59-5.72-13.4-5.72a24.62,24.62,0,0,0-18.35,7.54c-4.81,4.95-7.16,11.45-7.16,19.13a27.08,27.08,0,0,0,7.16,19.12,24.59,24.59,0,0,0,18.35,7.55,20.85,20.85,0,0,0,13.27-4.29v1.17c0,4.42-1.17,7.8-3.52,10.28s-5.59,3.51-9.62,3.51c-6.25,0-10-2.47-14.84-8.85l-9.1,8.72.26.39a32.79,32.79,0,0,0,9,8.07c4,2.6,9,3.9,15,3.9,7.93,0,14.44-2.47,19.12-7.29s7.16-11.32,7.16-19.38V87.13H375.34v4.42ZM371.69,123a11.7,11.7,0,0,1-9.23,3.9,11.26,11.26,0,0,1-9.11-3.9c-2.34-2.61-3.51-6.12-3.51-10.41s1.17-7.94,3.51-10.54a11.72,11.72,0,0,1,9.11-4,11.4,11.4,0,0,1,9.23,4c2.35,2.6,3.52,6.24,3.52,10.54A15.68,15.68,0,0,1,371.69,123Z"/><rect class="cls-1" x="399.8" y="87.13" width="13.4" height="53.34"/><path class="cls-1" d="M406.69,63.84a8.21,8.21,0,0,0-8.32,8.06,7.58,7.58,0,0,0,2.47,5.86,8,8,0,0,0,5.85,2.47,7.58,7.58,0,0,0,5.86-2.47A8.28,8.28,0,0,0,415,71.9a7.12,7.12,0,0,0-2.47-5.72A8.15,8.15,0,0,0,406.69,63.84Z"/><path class="cls-1" d="M442.6,72.68H429.46V87.13h-7.67V99.36h7.67v22.11c0,6.9,1.43,11.84,4.17,14.71s7.54,4.29,14.44,4.29c2.21,0,4.42-.13,6.5-.26h.65V128l-4.55.26c-3.25,0-5.33-.52-6.38-1.69s-1.56-3.51-1.56-7V99.36h12.49V87.13H442.73V72.68Z"/><rect class="cls-1" x="517.94" y="64.75" width="13.4" height="75.59"/><path class="cls-1" d="M666.78,121.34a31.62,31.62,0,0,1-6.77,6.25h0a12.63,12.63,0,0,1-6.89,1.82,12.33,12.33,0,0,1-9.76-4.42,16.64,16.64,0,0,1-3.9-11.32,16.62,16.62,0,0,1,3.77-11.19,12.08,12.08,0,0,1,9.63-4.42c4.29,0,8.84,2.73,12.75,7.28l8.85-8.46h0c-5.73-7.54-13.15-11-22-11a26.07,26.07,0,0,0-19,7.93c-5.2,5.21-7.81,12-7.81,19.91a27.39,27.39,0,0,0,7.81,19.9,25.54,25.54,0,0,0,19,7.94c9.75,0,17.56-4.16,22.77-11.84Z"/><path class="cls-1" d="M721.81,94.54a21.69,21.69,0,0,0-7.67-6.37,25.13,25.13,0,0,0-11.06-2.34c-7.55,0-13.66,2.73-18.22,8.19a30.86,30.86,0,0,0-6.76,20q0,12.1,7.41,19.91c4.82,5.07,11.45,7.67,19.39,7.67a26.36,26.36,0,0,0,22-10.93l.26-.39-8.72-8.45h0a33.16,33.16,0,0,1-3,3.12,14.92,14.92,0,0,1-3.9,2.86,14.41,14.41,0,0,1-6.77,1.43,12.63,12.63,0,0,1-9.11-3.25,11.58,11.58,0,0,1-3.77-8.07h35.52l.13-4.94a34.92,34.92,0,0,0-1.43-9.89A27.83,27.83,0,0,0,721.81,94.54ZM692.54,107a13.3,13.3,0,0,1,3.51-6.37,9.53,9.53,0,0,1,7-2.73q4.88,0,7.41,2.73a10.51,10.51,0,0,1,2.74,6.24H692.54Z"/><path class="cls-1" d="M773.34,91h0c-4-3.51-9.63-5.2-16.66-5.2a28.34,28.34,0,0,0-12.36,2.86,22.11,22.11,0,0,0-9.1,8.58l.13.13,8.58,8.2c3.52-5.59,7.42-7.54,12.62-7.54a10.68,10.68,0,0,1,6.9,2.21,6.85,6.85,0,0,1,2.6,5.72v2.6a33.3,33.3,0,0,0-9.89-1.56c-6.63,0-12.1,1.56-16.13,4.69s-6.12,7.67-6.12,13.27c0,4.94,1.7,9.11,5.21,12.1A19.83,19.83,0,0,0,752,141.51c5.07,0,9.89-2.08,14.18-5.59v4.42h13.14V106.12C779.58,99.62,777.5,94.54,773.34,91Zm-23.81,29a11.26,11.26,0,0,1,6.37-1.56,29.16,29.16,0,0,1,10.15,2v5.21c-2.86,2.73-6.76,4-11.58,4a7.91,7.91,0,0,1-5.33-1.56,5.06,5.06,0,0,1,.39-8.07Z"/><path class="cls-1" d="M831.1,92.07q-5.65-6.24-15.61-6.24c-5.33,0-9.63,1.56-12.88,4.55V87.13H789.47v53.34h13.4V110.94c0-4,.91-7.29,2.86-9.5s4.43-3.38,7.94-3.38a8.88,8.88,0,0,1,7,3,12.74,12.74,0,0,1,2.6,8.32v30.84h13.4V109.5C836.7,102.09,834.88,96.23,831.1,92.07Z"/><path class="cls-1" d="M501.15,91h0c-4-3.51-9.63-5.2-16.65-5.2a28.27,28.27,0,0,0-12.36,2.86A22.08,22.08,0,0,0,463,97.27l.13.13,8.59,8.2c3.51-5.59,7.41-7.54,12.62-7.54a10.68,10.68,0,0,1,6.89,2.21,6.86,6.86,0,0,1,2.61,5.72v2.6A33.4,33.4,0,0,0,484,107c-6.64,0-12.1,1.56-16.14,4.69s-6.11,7.67-6.11,13.27c0,4.94,1.69,9.11,5.2,12.1a19.85,19.85,0,0,0,12.88,4.42c5.08,0,9.89-2.08,14.19-5.59v4.42h13.14V106.12C507.27,99.62,505.18,94.54,501.15,91Zm-23.81,29a11.27,11.27,0,0,1,6.38-1.56,29.24,29.24,0,0,1,10.15,2v5.21c-2.87,2.73-6.77,4-11.58,4a7.92,7.92,0,0,1-5.34-1.56,4.87,4.87,0,0,1-1.82-3.9A4.58,4.58,0,0,1,477.34,120Z"/><path class="cls-1" d="M580,141.51a39,39,0,1,1,39-39A39.07,39.07,0,0,1,580,141.51Zm0-64.27a25.24,25.24,0,1,0,25.24,25.24A25.27,25.27,0,0,0,580,77.24Z"/></svg>