<svg id="Layer_1" data-name="Layer 1" xmlns="http://www.w3.org/2000/svg" viewBox="0 0 900 200"><defs><style>.cls-1{fill:#fff;}</style></defs><path class="cls-1" d="M130.47,50.28,82.59,80.82l47.88,30.54L82.59,141.9,34.72,111.19,82.59,80.65,34.72,50.28,82.59,19.74ZM82.35,151.72l47.87-30.54,47.87,30.54-47.87,30.54Zm48.12-40.53,47.87-30.54L130.47,50.28l47.62-30.54L226,50.28,178.09,80.82,226,111.36,178.09,141.9Z"/><path class="cls-1" d="M263.52,50.28h38.71c24.68,0,45.07,14.28,45.07,46.88V104c0,32.85-19.07,47.63-44.33,47.63H263.52Zm21.63,18.41v64.46h16.59c14,0,23.44-9.16,23.44-29.55V98.23c0-20.38-9.91-29.54-24.19-29.54Zm73.62,1H376.1l2.81,19.06c3.3-13,11.72-19.89,27-19.89h5.37V90.72h-8.92c-17.58,0-21.87,6.11-21.87,23.45v37.72H359.1V69.68Zm56.79,42.75v-2.31c0-27.49,17.58-42.51,41.52-42.51,24.43,0,41.51,15,41.51,42.51v2.31c0,27-16.59,41.52-41.51,41.52C430.58,153.7,415.56,139.5,415.56,112.43Zm61.16-.25v-2.06c0-15.27-7.68-24.43-19.89-24.43-12,0-19.89,8.42-19.89,24.43v2.06c0,14.78,7.67,23.2,19.89,23.2C469,135.13,476.72,127,476.72,112.18Zm33.1-42.5h17.83l2.06,15.51c4.29-10.4,13.45-17.58,27-17.58,20.88,0,34.67,15,34.67,42.84v2.31c0,27-15.27,41.27-34.67,41.27-13,0-21.87-5.86-26.25-15.27v41.52H509.57l.25-110.6Zm59.84,42.5v-1.81c0-16.34-8.42-24.43-19.64-24.43-12,0-19.9,9.16-19.9,24.43v1.57c0,14.52,7.68,23.69,19.65,23.69C562.07,135.38,569.66,127.54,569.66,112.18ZM623,136.7l-1.82,15H602.84V42.19h20.88v42c4.63-10.73,13.79-16.59,26.75-16.59,19.64.25,34.17,13.79,34.17,41v2.56c0,27.24-13.79,42.84-34.67,42.84C636.19,153.7,627.27,147.35,623,136.7Zm39.7-25.51v-2.06c0-15-8.17-23.44-19.64-23.44-11.72,0-19.89,9.41-19.89,23.69v1.81c0,15.27,7.92,24.19,19.64,24.19C655.34,135.38,662.68,127.54,662.68,111.19Zm31.12,1.24v-2.31c0-27.49,17.58-42.51,41.52-42.51,24.43,0,41.51,15,41.51,42.51v2.31c0,27-16.83,41.52-41.51,41.52C708.82,153.7,693.8,139.5,693.8,112.43Zm61.33-.25v-2.06c0-15.27-7.68-24.43-19.9-24.43-12,0-19.89,8.42-19.89,24.43v2.06c0,14.78,7.68,23.2,19.89,23.2C747.53,135.13,755.13,127,755.13,112.18Zm49.69-3.05L776,69.68h24.68l16.59,24.68,16.84-24.68h24.43l-29.22,39.2,30.79,42.84H835.93l-18.82-27.24-18.32,27.24H773.53Z"/></svg>