<svg id="Layer_1" data-name="Layer 1" xmlns="http://www.w3.org/2000/svg" viewBox="0 0 900 200"><defs><style>.cls-1{fill:#fff;}</style></defs><path class="cls-1" d="M573.66,127.41c16.89-10.31,32.78-19.81,48.48-29.49s31-19.35,47.2-29.39c-1.92-2.65-3.29-5.3-5.3-7.4a34.19,34.19,0,0,0-21.91-10.77c-7.48-.73-14.6,0-21.18,3.65a40,40,0,0,0-19.9,26.29,38,38,0,0,0,1,20.18c.92,2.92.28,4.75-2.1,6.39-8.21,5.75-16.34,11.5-24.46,17.26a17.47,17.47,0,0,1-3.29,1.46c-.46-2.29-1.19-4.11-1.19-5.94-.09-20.81-.09-41.72,0-62.54,0-4.56,2-7.67,6.21-10,17.71-9.58,35.33-19.44,52.95-29.21A11.34,11.34,0,0,1,642,18L686.69,42.6c3.1,1.73,6.11,3.38,9.13,5.11,3.74,2.19,5.66,5.2,5.56,9.77-.18,20.63-.18,41.36,0,62,0,5.11-2.19,8.4-6.57,10.77-16.71,9-33.41,18.17-49.94,27.48-5.48,3.11-10.31,3.56-15.88.37-15.07-8.58-30.31-16.89-45.47-25.2C580.42,131.15,577.4,129.51,573.66,127.41Zm34.42-14.33c3.1,2.74,5.39,5.38,8.22,7.3,14.33,10,32.41,9.13,45.55-2.46a51.3,51.3,0,0,0,6.49-7.58,3.5,3.5,0,0,0-1.1-5.2c-1.83-1.19-3-.19-4.11,1.27a56,56,0,0,1-5,5.57,29.3,29.3,0,0,1-38.25,2.56c-1.92-1.46-3.84-3.11-5.75-4.66C612.19,111,610.64,111.8,608.08,113.08Z"/><path class="cls-1" d="M298.49,90.44c2-3.29,3.75-5.85,5.39-8.49,6.57-10.59,13.06-21.28,19.63-31.87,3.47-5.57,4.38-5.84,11.87-3.92.09,1.46.27,3.1.27,4.75v64c0,2.2-1,3.47-3.28,3.56-2.65.1-5.3,0-8.5,0-.82-5.38-.36-10.31-.36-15.24s0-10,0-15V73.46c-.27-.1-.55-.1-.82-.19-2,3.2-4.11,6.3-6,9.5-4,6.48-7.94,13.14-12,19.63-2.92,4.74-9.22,4.65-12.23-.19-4.84-7.76-9.59-15.61-14.33-23.37a19.13,19.13,0,0,0-4.39-5.2v44c-4.11,1.37-7.67.92-11.13.46-1.19-3.56-1.56-65.64-.46-71.85,6.21-2.19,8.31-1.55,11.59,3.65C281.79,63.14,289.82,76.38,298.49,90.44Z"/><path class="cls-1" d="M441.74,122.48c3.83,0,6.94-.27,10,.18,1,.19,2.19,1.83,2.74,3,4.11,9.22,19.54,9.4,24.56,2,3-4.48,3.19-9.32,2.46-14.79-1.27.54-2.19.91-3.19,1.27-10.32,3.84-20.27,4.11-29.13-3.56a22.69,22.69,0,0,1-8.39-16.89c-.28-6.3.63-12.23,4.65-17.43,6.76-8.77,15.8-11.23,26.2-9.5,3.38.55,6.58,2.19,9.86,3.38,1.83-3.29,4.2-3.84,11.42-2,.09,1.46.27,3.1.27,4.75,0,15.88.09,31.68,0,47.56,0,13.15-9.4,22.64-22.55,23.19-6.3.28-12.33-.18-17.8-3.65C446.58,136.18,442.65,131,441.74,122.48Zm40.08-31.13c0-7.85-.19-8.67-4.48-11.78a16.9,16.9,0,0,0-5.84-2.64c-10.13-2.65-20.54,5.84-19.35,15.61a15.72,15.72,0,0,0,23.64,11.87c3.65-2.1,6.76-5,6-10A16.89,16.89,0,0,1,481.82,91.35Z"/><path class="cls-1" d="M251.2,96.55H213.13c-.09,5.85,3.65,10.78,8.86,11.6,4.93.82,9.95,1.28,14.15-2.65a4.56,4.56,0,0,1,2.65-1.09c3.37-.1,6.84,0,10.68,0a18.3,18.3,0,0,1-8.31,11c-12.69,7.76-30.22,4.11-37.43-8.12-8.22-14-3.84-32.78,12.42-39.26,14.6-5.84,32.5,1.92,34.6,18.62.18,1.83.64,3.56.82,5.39A33.16,33.16,0,0,1,251.2,96.55Zm-12.14-8.67c-1.83-8.4-6.21-11.78-14.15-11.41-6.48.27-11,4.47-11.87,11.41Z"/><path class="cls-1" d="M396.18,104.31c-2.65,7.76-7.48,11.6-13.69,13.61-7.58,2.46-15.07,2.19-22.28-1.65-6.94-3.65-11.41-9-13-16.79-2.1-10.5-.09-20,8.12-27.3,10.23-9,30.5-8.77,39.26,5.93,2.46,4.2,3.65,12,2.56,18-1.65.09-3.38.36-5.12.36h-28c-1.65,0-3.2.18-4.84.28C360.48,106.41,367,109,374,108.6a12,12,0,0,0,7.85-2.73,7.8,7.8,0,0,1,4.47-1.56C389.33,104.13,392.26,104.31,396.18,104.31ZM385.23,87.42c.45-6.66-6.39-11.41-13.15-11-7.12.46-12.05,4.75-12.42,11.32C365.87,88.7,381.76,88.52,385.23,87.42Z"/><path class="cls-1" d="M553,96.64H515.6c-.28,5.57,3.47,10.6,8.67,11.51,4.93.82,10,1.37,14.15-2.65a4.07,4.07,0,0,1,2.65-1.09c3.47-.1,6.85,0,10.59,0-1,6.2-4.93,9.4-9.31,11.77-11.6,6.12-25.84,3.84-33.78-5.75-4.75-5.66-6.58-12.42-6-20a25.33,25.33,0,0,1,8.67-17.9c12.69-11.41,36.89-7.67,41.73,12C554.22,90.07,554.4,91.44,553,96.64ZM541.16,88c-.82-7.67-5.11-11.5-12.42-11.5-7.67.09-12.6,4.2-13.23,11.5Z"/><path class="cls-1" d="M609.45,100.21c-6.67-13.15-.27-31.59,13.24-39.63,13-7.67,30.31-3.37,37.06,6.94Q634.7,83.83,609.45,100.21Z"/><path class="cls-1" d="M407.5,67.7h10.68c.37,1.74.64,3.11.92,4.75a78.08,78.08,0,0,1,8.12-4.29c2.74-1,5.66-1.37,9.31-2.19.1,3.65.19,6.39.19,9.13,0,2.56-2.29,2.46-3.93,3.1-2.92,1.1-6,1.83-8.85,3.2a9,9,0,0,0-5.39,9.22c.36,7.3.09,14.61.09,22,0,5.57-.36,5.84-6,5.84-1.82,0-3.56-.18-5.2-.27C406.41,113.63,406.41,72.45,407.5,67.7Z"/><path class="cls-1" d="M429.6,183c-5.57.64-5.76.55-5.85-3.92-.09-4.66,0-9.32,0-14,0-3.29-.91-5.94-4.29-7.12-3.1-1.1-8.49-.1-10.22,2.28a8.89,8.89,0,0,0-1.37,4.65c-.19,4.3,0,8.68-.09,13,0,1.64-.19,3.29-.28,4.75-5.29,1.37-5.75,1.09-5.84-3.56-.09-4.84.09-9.68,0-14.52-.09-5.11-2-7-6.94-7-5.39,0-8.76,2.65-9,7.21-.09,4.84,0,9.68-.09,14.52-.09,4.29-.36,4.47-5.48,3.65a18.12,18.12,0,0,1-.54-3.2c-.09-7.48,0-15,0-22.55,0-1.82-.19-3.83,2.1-4.56,1.91-.55,3.65-.27,4.38,1.92,6.85-3.38,13.33-3.84,19.44,1.64a17.08,17.08,0,0,1,11.78-4.11c5.85,0,11,2.28,12,10.23C430.33,169,429.6,176,429.6,183Z"/><path class="cls-1" d="M377.65,182.83c-5.57,1-5.94.91-7.76-2.92-.28-.64-.55-1.19-.82-1.83-3.11-8.31-3.11-6.39-9.59-6.57-3.83-.09-7.67.09-11.5-.09-2.65-.09-4.48.64-5.39,3.28a48.56,48.56,0,0,1-2.37,4.93c-1.83,4.11-1.83,4.11-7.31,3.2.73-2,1.28-4,2.1-5.94,5.12-11.41,10.23-22.73,15.43-34a24.48,24.48,0,0,1,1.37-2.65c1.92-2.64,5.48-2.46,6.85.46,4.84,10.41,9.49,20.91,14.15,31.31C374.36,175.52,375.91,179,377.65,182.83ZM355.1,146.4c-3,6.76-5.57,12.42-8.4,18.81,5.84.36,11.05.27,16.8.18C360.58,158.91,358,153.16,355.1,146.4Z"/><path class="cls-1" d="M561.7,152.79V183.1c-1.46.19-2.92.82-3.56.37-2.74-1.83-5.2-.64-7.85.09a15.41,15.41,0,0,1-18.9-9.77c-3.19-9.68.82-17.44,9.5-20.54,3.19-1.19,7.21-.55,10.77-.28,1.82.19,3.47,1.65,5.48-.09C558,152.15,559.88,152.79,561.7,152.79ZM556.5,168c-.18-.09-.37-.09-.55-.18v-2.47c-.09-3.83-1.92-6.3-5.39-7.39a11.26,11.26,0,0,0-12.5,4.1,10.42,10.42,0,0,0-.19,12.15c3.38,5.29,12.69,6.2,16.44,1.18C555.77,173.43,555.77,170.5,556.5,168Z"/><path class="cls-1" d="M439.09,169.86c1.92,8.31,9,11.33,15.43,7.31,3.2-2,3.2-2,7.58-1.28-.28,2.83-2.19,4.29-4.29,5.57-7.49,4.84-17.17,2.46-20.91-2.56-5.66-7.48-5.66-14.51,0-22,3.83-5.11,11.59-5.84,17.89-3.74,4.93,1.64,8.86,7.67,9,13.33.09,2.55-1.37,3.1-3.47,3h-16C442.74,169.68,441.1,169.77,439.09,169.86Zm.18-5.11c5.85,1.19,15,.91,18.17-.45-1.19-4.84-3-6.49-7.58-6.85C443.93,157.17,441.65,158.64,439.27,164.75Z"/><path class="cls-1" d="M564.62,173.88c2.74-1,4.48-.45,6.21,1.74,3.38,4.1,9,5,13,2.28a5.31,5.31,0,0,0,1.91-3.11,2.74,2.74,0,0,0-2.37-3.28c-3.2-.73-6.48-1.37-9.77-2.1-5.11-1.1-7.49-3.56-7.76-7.76s3.38-8.68,8-9.22a41.2,41.2,0,0,1,8.95,0c3.56.36,6,2.55,7.58,5.84.64,1.37,1.19,3-.73,3.83-1.46.64-2.74.28-3.84-1.27-3.19-4.29-7.12-5.39-11.59-3.29-1.19.55-2.65,2-2.65,3s1.46,2.65,2.56,3.2c1.73.82,3.83,1,5.75,1.55a46.43,46.43,0,0,1,7.12,2.1c2.83,1.37,4.93,3.83,4.75,7a8.73,8.73,0,0,1-4.93,7.58,17.43,17.43,0,0,1-17.17-.28C566.45,180.27,564.9,177.62,564.62,173.88Z"/><path class="cls-1" d="M528.29,173.06a13.91,13.91,0,0,1-14.7,11.23c-9.77-1-15.34-8.22-15.34-16.53,0-7.76,6.48-14.69,13.7-15.33,9.49-.82,15.06,2.83,16.34,10.77-2.56.82-4.57.73-6.48-1.83a9.55,9.55,0,0,0-12-2.92,10.75,10.75,0,0,0-5.3,12.69c1.1,3.47,2.92,6.48,6.85,7.22,4.11.63,8.12.63,10.68-3.47C523.54,172.24,525.64,171.78,528.29,173.06Z"/><path class="cls-1" d="M475.06,155.26c3-1.1,5.39-2.1,7.85-2.74a2.12,2.12,0,0,1,2.92,1.92c.19,1.46-.09,2.64-1.73,3.1-.64.18-1.28.27-1.92.46-6,2.19-7.3,4.2-7.3,10.68,0,3.47.09,6.94,0,10.5-.09,4.38-.27,4.47-5.57,3.92a22,22,0,0,1-.55-3.65c-.09-7.49-.09-15,0-22.37,0-1.73-.64-3.92,2-4.38A3.26,3.26,0,0,1,475.06,155.26Z"/><path class="cls-1" d="M495,183c-5.75.64-6,.55-6-3.83-.09-7.31,0-14.61,0-21.91,0-1-.09-2.29.36-2.83a5.25,5.25,0,0,1,3.2-1.74c1.55-.27,2.46.82,2.46,2.47Z"/><path class="cls-1" d="M492,145.49a3.53,3.53,0,0,1-3.56-3.38,3.59,3.59,0,0,1,3.29-3.65c1.92-.09,4,1.82,3.92,3.56S493.78,145.4,492,145.49Z"/><path class="cls-1" d="M852.83,122.74a25.58,25.58,0,0,1-13.26-.27,6,6,0,0,1-4.24-5.33c-.41-3.28-.41-6.57-.55-10-.14-3,0-6.16,0-9.44-1.78-.27-3.42-.41-5.2-.68V89.93c1.64-.14,3.28-.27,5.2-.55V80H846v9.43c2.46.14,4.65.28,7,.28v7.51h-6.83v10.26c0,6.84,0,6.84,6.56,7.25H853C852.83,117.41,852.83,120,852.83,122.74Z"/><path class="cls-1" d="M509.24,107.43,502,107V98h19.14v25h-7.51c-.41-1.24-.69-2.47-1-3-3.28,1.37-6.43,3.14-9.71,3.69a21.44,21.44,0,0,1-24.33-15.32c-2.87-10-1.37-19.14,6.56-26.66s23.11-7.25,30.9.41c2.87,2.87,4.78,6.29,4.65,10.8H509c-1.23-3.28-3.42-5.33-7-5.74-6.84-.68-11.35,3.14-11.9,10.53a22.36,22.36,0,0,0,.55,7.38,10.33,10.33,0,0,0,16.54,6,17.43,17.43,0,0,0,2.6-3C509.65,108,509.52,107.7,509.24,107.43Z"/><path class="cls-1" d="M750.42,123h-10.8c-.19-1.09-.33-2.19-.41-3.29V103.05c0-2.32-.68-4.1-3.28-4.64s-4.78.68-5.06,3.41c-.41,3.56-.41,7.25-.54,10.94-.14,3.28,0,6.43,0,10.12H719.11V108a47.66,47.66,0,0,0-.41-6.43,3.3,3.3,0,0,0-3.28-3.14c-2.18-.14-3.82.54-4.51,2.73a17.84,17.84,0,0,0-.68,4.65c-.14,4.65,0,9.3,0,13.94,0,1-.14,1.92-.28,3.29H698.88V89.93h10.53c.27.82.41,1.77.82,3,2.59-2.6,5.6-4.24,9.29-4.11s6.84,1.37,8.75,4.24c2.74-1.36,5.2-3.14,7.8-3.83,5.74-1.5,13.67.28,14.22,9.71C750.83,106.61,750.42,114.68,750.42,123Z"/><path class="cls-1" d="M514.71,38.52H503.09c-1.91-4.51-5.33-6.29-9.57-4.92-1.23.41-2.74,1.78-2.87,2.87s1.23,2.73,2.46,3.14c2.87,1.1,5.88,1.64,8.89,2.6a56.84,56.84,0,0,1,8.34,3.28c9.16,4.65,7,17.37,1.36,21.74-7.52,5.88-22.83,5.74-30.08-.41A13,13,0,0,1,477,55.06h11.49c.14.14.27.41.41.55,2.05,5.47,7.11,7.79,12.44,5.2a5.19,5.19,0,0,0,2.6-3.28c.14-1-1.09-2.74-2.19-3.15-2.73-1.23-5.88-1.91-8.75-2.87s-5.6-1.64-8.2-3c-8.75-4.37-9.3-15.72-1.24-21.33,8.21-5.6,21.88-4.65,28,2A11.42,11.42,0,0,1,514.71,38.52Z"/><path class="cls-1" d="M520.86,175.65H508c-1-2.46-1.91-4.92-2.87-7.65H490c-.95,2.46-1.91,5.06-3,7.65H474.38c5.74-15.31,11.35-30.35,16.95-45.39h12.58C509.52,145.3,515.12,160.34,520.86,175.65ZM493,158.29h9.16c-1.5-4.78-2.87-9-4.24-13.4h-.68c-1.37,4.38-2.73,8.75-4.24,13.4Z"/><path class="cls-1" d="M603.58,39.61V24.85h10.94V70.1H604.26c-.13-.82-.27-1.64-.41-2.46-.27.14-.41.14-.54.28-6.57,5.47-15,4.37-20-2.74s-4.24-19.41,1.23-25.29a13.06,13.06,0,0,1,17.51-1.37C602.49,38.79,602.9,39.07,603.58,39.61Zm.27,14.22c-.27-1.64-.27-3-.54-4.24-.82-3.14-2.74-4.78-5.61-4.78A5.94,5.94,0,0,0,592,49.46a13.6,13.6,0,0,0,.55,9.3A5.13,5.13,0,0,0,598,62.17a5,5,0,0,0,4.92-3.82,30.22,30.22,0,0,0,1-4.52Z"/><path class="cls-1" d="M691,153H681.1c-.41-4.51,2-8.21,6.7-10s9.16-1.78,13.81-1.24c7.93,1,10.8,4.52,10.8,12.58v9.3q.21,5.74.41,11.9H702.43q-.57-1-1.23-1.92a17.78,17.78,0,0,1-11.35,3.15c-7.38-.28-11.62-5.75-10.12-12.86a8.14,8.14,0,0,1,5.74-6.42c3.83-1.1,7.79-1.64,11.76-2.46.68-.14,1.51,0,1.92-.41.82-.69,2.05-1.78,2.05-2.6s-1.23-2.19-2.19-2.6C695.73,148.31,693.27,149.4,691,153Zm9.84,8.07c-2.6.68-5.19,1.09-7.52,1.91-1.64.55-3,2.05-2.19,3.83a4.77,4.77,0,0,0,3.42,2.6C699.15,170.19,701.75,166.77,700.79,161Z"/><path class="cls-1" d="M690.81,70.1H680a27.52,27.52,0,0,1-.27-3.14V51.24c0-4.11-1.51-5.88-4.78-5.88s-5.47,2.18-5.47,5.88c-.14,5.19,0,10.39-.14,15.45,0,1.14-.13,2.28-.27,3.41H658V37h10.67a14.09,14.09,0,0,0,.41,2.32c2.87-1.09,5.88-3,8.88-3.28,7.11-1,12.58,2.46,13,9.71.41,7.52.28,15.17.41,22.69C691.22,69,691,69.42,690.81,70.1Z"/><path class="cls-1" d="M796,142.7h10.53c.27,1,.41,1.92.68,3,3.42-3.42,7.39-4.51,12-4.1,4.92.41,9,3.28,9.43,8.07.68,8.34.41,16.68.55,24.88,0,.27-.28.55-.41,1.09H818.1a25.6,25.6,0,0,1-.27-3.28V156.65c0-3.83-1.5-5.61-4.65-5.74a5.33,5.33,0,0,0-5.6,5.47c-.28,5.19-.14,10.52-.14,15.72a32.25,32.25,0,0,1-.28,3.55H796.23C796,164.72,796,153.92,796,142.7Z"/><path class="cls-1" d="M789.53,109.21H766.28c0,3.28,1.24,5.33,4,6.29a7,7,0,0,0,8.75-2.87h9.84c-.13,6.83-8.2,11.75-16.68,11.21-12.44-.69-19.28-9-17.5-20.79,1.51-10.25,12-16.68,22.83-14.08C786,91.16,791.3,100.32,789.53,109.21Zm-23.25-6.84h11.9c-.41-3.69-2.46-5.6-5.61-5.6-3.42-.14-5.6,1.77-6.29,5.6Z"/><path class="cls-1" d="M653.62,56.29H630.79a5.61,5.61,0,0,0,3,6.29c3,1.51,6.42.55,9.71-2.73h9.7c.14,4.24-4.1,8.89-9.43,10.39-9.3,2.73-18.59-.14-22.56-7.11a18.33,18.33,0,0,1,3.28-22.7c5.61-5.33,15.59-6.28,22-2.18C652,42.08,655.67,50.55,653.62,56.29Zm-11.35-6.83a5.74,5.74,0,0,0-11.48,0Z"/><path class="cls-1" d="M630.38,109.21H607a5.89,5.89,0,0,0,3,5.88c3.14,1.91,6.15,1.09,10.12-2.46h9.57c.54,5.74-7.25,11.48-15.86,11.34-11.9-.13-18.73-7.24-18.46-18.32a17.81,17.81,0,0,1,20.37-17.09,17.23,17.23,0,0,1,14.86,19.3C630.55,108.31,630.47,108.76,630.38,109.21Zm-23.11-6.84h11.62c-.13-3.42-2.18-5.47-5.33-5.6-3.55-.14-5.88,1.77-6.29,5.6Z"/><path class="cls-1" d="M660.32,89.79h10.39c.27,1,.55,1.78.68,2.33,2.47-1.1,4.79-2.74,7.39-3.15,7.25-1.5,14.49,1.78,14.49,11.49v19.69c0,.82-.14,1.64-.14,2.73H682.2a25.29,25.29,0,0,1-.14-3.14V104c-.14-4.37-1.91-6-5.74-5.74a4.26,4.26,0,0,0-4.1,3.14,15.05,15.05,0,0,0-.83,4.93c-.13,5.33,0,10.79,0,16.54H660.32Z"/><path class="cls-1" d="M543.29,37h11.07V56.57c.14,3.28,1.5,4.92,4.24,5.19,3.15.28,5.61-1.36,5.88-4.37s.41-6.29.55-9.44c.13-3.41,0-7,0-10.79H576.1V70.24H565.57c-.27-.82-.41-1.77-.54-2.32-2.6,1.09-5.06,2.73-7.66,3.14-7.52,1.24-13.26-1.77-14-9.43C542.74,53.56,543.29,45.49,543.29,37Z"/><path class="cls-1" d="M793.76,122.88V89.93h10.53c.28.82.41,1.77.69,2.32,2.46-1.09,4.78-2.73,7.38-3.14,7.52-1.51,14.49,1.91,14.49,11.48v19.69c0,.82-.14,1.64-.14,2.74H815.64V104c-.14-3.83-1.5-5.47-4.37-5.6-3.42-.28-5.34,1.23-6.16,4.78a16.9,16.9,0,0,0-.27,3.69v16Z"/><path class="cls-1" d="M560.38,106.34c0,10.25-7.39,17.77-17.64,17.77a17.29,17.29,0,0,1-17.64-17.77c0-10.26,7.39-17.78,17.64-17.78S560.38,96.08,560.38,106.34ZM542.6,97.72a4.8,4.8,0,0,0-4.92,3,13.07,13.07,0,0,0-.14,11.07,5.07,5.07,0,0,0,5.06,3.29,5.19,5.19,0,0,0,5.06-3.42,12.57,12.57,0,0,0-.14-11.08A4.65,4.65,0,0,0,542.6,97.72Z"/><path class="cls-1" d="M791.85,159.11c0,10.53-7.11,17.77-17.5,17.77s-17.77-7.24-17.77-17.5,7.38-17.63,17.63-17.77S791.85,148.72,791.85,159.11ZM767.92,159c.55,1.92.82,3.83,1.37,5.61a4.84,4.84,0,0,0,4.78,3.28,5.09,5.09,0,0,0,4.93-2.73,12.12,12.12,0,0,0-.14-12.17,5.27,5.27,0,0,0-9.43.27c-.69,1.92-1,3.83-1.51,5.74Z"/><path class="cls-1" d="M606,141.61a17.21,17.21,0,0,1,17.64,17.77c-.14,10.12-7.66,17.5-17.91,17.5a17.2,17.2,0,0,1-17.64-17.77C588.41,148.72,595.79,141.47,606,141.61Zm6.43,17.64a30.65,30.65,0,0,0-1.23-5.06,5.34,5.34,0,0,0-5.33-3.83c-2.74,0-4.38,1.5-5.34,3.83a14,14,0,0,0,0,10,5.63,5.63,0,0,0,10.67,0A44.22,44.22,0,0,0,612.47,159.25Z"/><path class="cls-1" d="M550.94,152.55H541.1c-.82-3.56-3.56-3.69-6.43-3.28-.82.13-2.18.95-2.18,1.5a3.6,3.6,0,0,0,1.5,2.46,61.43,61.43,0,0,0,6.7,1.78,33.27,33.27,0,0,1,5.06,1.23c3.55,1.23,6,3.69,6.42,7.52a9.68,9.68,0,0,1-4,9.71c-5.74,4.37-17.5,4.65-23.52.68-3.28-2.19-5.06-5.88-4.37-9.3h10.25c.68,3.69,3.42,4.93,6.83,4.24,1.24-.27,2.33-1.77,3.42-2.59-1-1-1.77-2.46-3-2.87-3.7-1.24-7.52-1.65-11.08-2.88-5.33-1.77-7.52-6.7-5.88-11.75a8.35,8.35,0,0,1,4.92-5.34,23.91,23.91,0,0,1,19.83.14A7.65,7.65,0,0,1,550.94,152.55Z"/><path class="cls-1" d="M554.63,164.72h10.12c.82,3.55,3.28,4.65,6.7,4.37,1.78-.13,3.69-.82,3.55-2.73a4.13,4.13,0,0,0-2.87-2.74c-3.41-1.09-7-1.64-10.39-2.73-4.65-1.37-6.83-4.24-7-8.34-.14-4.38,1.91-7.66,6.43-9.44a25.23,25.23,0,0,1,17.63-.13c3.56,1.23,7.25,5.19,6.29,9.57h-9.57c-2.6-3.56-5.74-4.38-8.89-2.19-.54,1.91.69,2.74,2.19,3.15,2.87.82,5.88,1.36,8.75,2.05,5.2,1.09,8.34,3.82,8.89,7.93.68,5.33-1.5,9.43-6.7,11.62a22.93,22.93,0,0,1-19.82-.55C555.87,172.51,553.81,168.41,554.63,164.72Z"/><path class="cls-1" d="M649.38,162.53h10.53a13.88,13.88,0,0,1-7,11.89c-7.38,4.52-17.64,3-23.11-3.28-5.33-6-5.33-16.81-.27-23.38,5.88-7.52,19.69-8.34,26.39-1.5a11.76,11.76,0,0,1,3.69,8.75H649.25c-2.46-4.37-4.93-5.61-8.34-4s-3.69,5-3.69,8.34.41,6.42,3.69,8.06a5.34,5.34,0,0,0,7.52-2.73C648.7,164,649.11,163.35,649.38,162.53Z"/><path class="cls-1" d="M583.89,89.79h11.49C591.55,101,588,111.94,584.3,123h-13c-3.69-10.94-7.24-21.88-11.07-33.09H572c1.91,6.7,3.69,13.26,5.88,20.64C580.07,103.19,581.84,96.49,583.89,89.79Z"/><path class="cls-1" d="M716.65,37v7.11c-2,.13-4,.27-6.29.41v13.4c0,3.14.41,3.55,3.56,3.69a20.86,20.86,0,0,1,2.73.27v7.93a22.84,22.84,0,0,1-12.85-.27c-3-1-4.38-3.42-4.51-6.29-.28-4.92-.28-10-.41-14.91,0-1.09-.14-2.32-.14-3.69-1.64-.13-3.14-.27-5.06-.54v-7c1.64-.27,3.15-.41,5.2-.68v-9.3h11.48v9.44A44,44,0,0,1,716.65,37Z"/><path class="cls-1" d="M540,61.9V70a24,24,0,0,1-12.44-.14c-3.55-1.09-5.19-3.83-5.33-8.48s0-9.16,0-13.8c0-1-.14-1.92-.14-3.15L517,44V36.88c1.64-.27,3.14-.41,5.19-.82v-9.3h11.35V36.2c2.32.27,4.37.41,6.56.68v7.25c-2.19.13-4.24.13-6.43.27,0,5.2-.13,10.12.14,15,0,.68,1.64,1.64,2.6,2.05S538.5,61.76,540,61.9Z"/><path class="cls-1" d="M719.66,132.72h11.62v9.57c2.33.14,4.24.28,6.29.41v6.84c-2.05.14-4,.27-6.29.41v13.4c0,3.14.82,4,4,4h2.32v7.93c-4.51,1.1-8.89,1.24-13.12-.41-3-1.09-4.25-3.69-4.38-6.7-.27-4.92-.27-10-.41-14.9,0-1.09-.14-2.19-.14-3.42-1.77-.13-3.28-.27-5.06-.41v-6.83c1.65-.14,3.15-.28,5.2-.41Z"/><path class="cls-1" d="M634.89,89.79h10.53c.14,1.23.41,2.33.55,3.42,1.77-1.09,3.41-2.6,5.46-3.42s4.11-.54,6.7-.82V99.36h-4c-5.06,0-7.66,2.46-7.79,7.52v13a30.45,30.45,0,0,1-.28,3.15H635.16C634.89,111.8,634.89,101,634.89,89.79Z"/><path class="cls-1" d="M741.54,142.7h10.93v32.82H741.54Z"/><path class="cls-1" d="M664.29,175.52V142.7h10.8v32.82Z"/><path class="cls-1" d="M752.47,138.6H741.54v-8.34h10.93Z"/><path class="cls-1" d="M664.29,138.6v-8.2h10.8v8.2Z"/><path class="cls-1" d="M409,16.37c0,.41.28,1.23.28,1.64V58.89c0,1.91-.41,2.87-2.6,2.6h-.27c-2.6.27-6.43-1.23-7.8.68s-.41,4.92-.41,7.79V147.9a6.69,6.69,0,0,1-1.91,4.92c-8.75,9-17.23,18.19-25.7,27.35a7.69,7.69,0,0,1-5.88,2.59H310.58a5.85,5.85,0,0,1-4.78-2.18c-8.75-9.44-17.5-18.73-26.52-27.9a5.2,5.2,0,0,1-1.64-4.51V64.77c0-2.6-.41-3.83-3.29-3.55a38.75,38.75,0,0,1-5.6,0c-1.23,0-1.92-.28-1.92-1.64.28-14.36-.27-28.85.28-43.21h67.13v42.8c0,1.64-.41,2.32-2.33,2.32h-2.32c-1.92-.27-2.33.41-2.33,2.32v72.06c0,2.19.69,2.32,2.6,2.32,5.2,0,10.12-.27,15.31,0,2.33,0,3-.41,3-3V66.41c0-4.92,0-5.19-5.19-4.92-2.33,0-2.88-.68-2.88-2.87V16.37ZM282.83,103.05v44.17a4.39,4.39,0,0,0,1.23,3.82c7.79,8.21,15.86,16.55,23.66,24.75a3.6,3.6,0,0,0,2.87,1.37H365a3.49,3.49,0,0,0,2.87-1.23c7.79-8.07,15.59-16.28,23.38-24.07a6.24,6.24,0,0,0,1.91-5.19v-87c0-4.24-.41-3.55,3.56-3.83h5.47c1.91,0,2.32-.41,2.18-2.32V24c0-1.92-.68-2.6-2.59-2.6-17.64.14-34.87.14-51.82.14-2.33,0-2.6.95-2.6,2.87,0,9.16.27,18.46,0,27.89,0,2.87.68,4.24,3.83,3.55,2.19-.41,2.87.41,2.87,2.6v79.17a5,5,0,0,1-4.79,5.6H328.49c-4.24,0-6.42-1.91-6.42-6.42v-76c0-4.52,0-4.52,4.51-4.52,1.64,0,2.32-.27,2.32-2.18V24.3c0-1.37,0-2.32-1.91-2.32H274.08c-1.37,0-1.92.41-1.92,1.91V54.11c0,1.64.41,1.91,1.92,1.91h6.15c1.91,0,2.87.68,2.87,2.87C282.55,73.52,282.83,88.42,282.83,103.05Z"/><path class="cls-1" d="M182.88,16.37c0,17.91,0,35.69.28,53.6,0,1.64-.41,2.18-2.19,2.18h-45.8c-1.65,0-2.19-.68-1.92-2.18V63.13c0-1.23-.41-1.64-1.64-1.64H114.38c-1.36,0-1.91.41-1.91,1.91V78.72c0,2.19,1.37,1.91,2.6,1.91h31.17c2.6,0,3,.68,3,3q-.42,18.87,0,37.33c0,2.32-.69,2.87-2.87,2.87-10.4-.28-21.06,0-31.45-.28-2.19,0-2.87.69-2.6,2.6.28,3.28,0,6.56,0,10,0,1.64.41,2.19,2.19,2.19h6.15c1.92,0,2.33.68,2.33,2.32v39.52c0,2.32-.69,2.59-2.88,2.59H52.58c-1.36,0-1.91-.27-1.91-1.91V140.24c0-1.64.41-2.18,2.19-2.18a45,45,0,0,1,6.15,0c2.87.27,3.28-1,3.28-3.29-.27-11.07,0-22.14,0-33.08V64.63c0-2.18-.41-3-2.87-2.87a45,45,0,0,1-6.15,0c-1.91,0-2.74-.54-2.74-2.59V16.37ZM116.43,22H58.6c-1.37,0-2.87-.28-2.87,1.91V54.11c0,1.64.68,1.91,2.19,1.91H65c2.32,0,2.59.41,2.59,2.6v82c0,2.19-.27,3-2.87,2.87s-4.24,0-6.15,0-2.87.69-2.87,2.88c.27,9.43.27,18.73,0,28.16,0,2.32,1,3,3,2.87h56.33c1.23,0,2.32.28,2.32-1.64V145c0-1.23-.41-1.64-1.64-1.64h-6.84c-2.32,0-2.32-.82-2.32-2.46,0-6.84.27-13.68,0-20.79,0-2.18.68-2.59,2.6-2.59h31.44c2.33,0,2.88-.69,2.88-2.87,0-8.75-.28-17.51,0-26.53,0-2.32-.41-3.28-3-3.28-10.39.27-20.78,0-31.18,0-1.36,0-2.59.27-2.59-1.91V57.25c0-1.37.41-1.91,1.91-1.91h28.3c1.64,0,1.92.41,1.92,2.19a38.75,38.75,0,0,1,0,5.6c-.28,2.32.68,2.87,2.87,2.87h32.68c2.32,0,2.87-.68,2.87-2.87,0-13-.28-26,0-38.69,0-2.33-.69-3-3-3C155,22,135.85,22,116.43,22Z"/><path class="cls-1" d="M261.09,16.37c0,14-.28,27.89,0,42.11,0,2.6-1,3.28-3.28,3.28a46.85,46.85,0,0,0-6.16,0c-1.23,0-1.64.41-1.64,1.64v71.65c0,2.32.41,3.55,3,3.28s5.88-1.23,7.52.41.41,4.92.41,7.38v33.5c0,2.19-.27,2.87-2.6,2.87H191.22c-1.91,0-2.6-.41-2.6-2.32V140.65c0-1.91.41-2.59,2.6-2.59h6.56c2.33,0,2.33-.41,2.33-2.33V64.09c0-2.33-.68-3-3-2.87-2.6,0-6.15,1.23-7.79-.41-1.64-1.92-.41-5.2-.41-8.07V16.1ZM205.3,99.77v41.16c0,2.18-.41,2.87-2.59,2.87h-5.88c-1.92,0-2.6.27-2.6,2.32V175c0,1.91.41,2.6,2.6,2.6H253c2.33,0,2.87-1,2.87-2.87,0-9.44-.27-18.74,0-28.17,0-2.32-.68-3-3-2.87a25.15,25.15,0,0,1-4.51,0c-3,.27-4-.68-4-3.56V57.66c0-1.23.41-1.64,1.64-1.64h7.38c1.37,0,1.92-.41,1.92-1.91V23.89c0-1.37-.41-1.91-1.92-1.91h-56.6c-1.37,0-2.87-.28-2.87,1.91V54.11c0,1.64.68,1.91,2.18,1.91a53.33,53.33,0,0,0,6.57,0c2.18-.27,2.87.68,2.87,2.87C205.3,72.56,205.3,86.1,205.3,99.77Z"/><path class="cls-1" d="M447,16.37c0,1.23-.27,2.33-.27,3.83v159c0,3.28-1.37,4.24-4.78,3.55a1.1,1.1,0,0,1-1-1.23V16.37Z"/></svg>