<svg id="Layer_1" data-name="Layer 1" xmlns="http://www.w3.org/2000/svg" viewBox="0 0 529.5 203.23"><rect width="529.5" height="203.23" style="fill:none"/><path d="M-23.61,1932.12a3.35,3.35,0,0,0,.55.11c1.68.17,3.37.27,5,.5,2.25.31,4.5.64,6.73,1.1s4.19,1,6.24,1.57c2.31.71,4.63,1.45,6.85,2.38,2.88,1.21,5.69,2.57,8.47,4a60.93,60.93,0,0,1,8.78,5.5c1.74,1.3,3.49,2.61,5.12,4.06q3.42,3,6.64,6.28a47.34,47.34,0,0,1,3.71,4.29c1.75,2.27,3.49,4.55,5.09,6.93a59.46,59.46,0,0,1,3.56,6.07c1.36,2.63,2.68,5.29,3.77,8s2,5.76,2.88,8.68c.63,2.15,1.11,4.35,1.56,6.55.3,1.45.46,2.93.62,4.41.21,1.88.34,3.76.51,5.65,0,0,.07.08.11.12v47.55a5.41,5.41,0,0,0-.12.55c-.17,1.68-.27,3.37-.5,5-.3,2.25-.64,4.5-1.1,6.73a64.65,64.65,0,0,1-1.62,6.41c-.86,2.7-1.76,5.39-2.87,8s-2.53,5.41-3.94,8a63.77,63.77,0,0,1-3.65,6c-1.48,2.15-3.1,4.2-4.69,6.27a70.19,70.19,0,0,1-7.34,7.79c-1.62,1.54-3.42,2.9-5.15,4.34a60.43,60.43,0,0,1-9,6.18c-2.89,1.62-5.87,3.1-8.9,4.45a64.66,64.66,0,0,1-7.63,2.83c-3.15.95-6.35,1.71-9.56,2.42a52.94,52.94,0,0,1-5.35.74c-1.5.17-3,.25-4.52.38a.82.82,0,0,0-.25.12h-9a4.88,4.88,0,0,0-.55-.12c-1.68-.17-3.37-.27-5-.5-2.25-.3-4.51-.63-6.73-1.1a64.64,64.64,0,0,1-6.74-1.73c-2.9-.94-5.8-1.94-8.59-3.16s-5.35-2.63-8-4a70.91,70.91,0,0,1-9.23-6.11c-1.29-1-2.55-2-3.75-3.14-2-1.8-3.88-3.61-5.73-5.51a53.67,53.67,0,0,1-3.83-4.42c-1.67-2.13-3.32-4.29-4.82-6.54-1.39-2.08-2.62-4.27-3.84-6.46a67.4,67.4,0,0,1-5.75-13.73c-.93-3.15-1.7-6.35-2.41-9.56a52.94,52.94,0,0,1-.74-5.35c-.17-1.5-.25-3-.38-4.52a.82.82,0,0,0-.12-.25v-47.55a4.88,4.88,0,0,0,.12-.55c.17-1.68.27-3.37.5-5,.3-2.25.64-4.5,1.1-6.72a60.32,60.32,0,0,1,1.59-6.36,85.07,85.07,0,0,1,2.92-8.11c1.32-3,2.88-5.93,4.41-8.85a68.5,68.5,0,0,1,6.11-9.22q1.49-2,3.14-3.75c1.8-2,3.61-3.89,5.51-5.74a55.65,55.65,0,0,1,4.42-3.83c2.13-1.66,4.29-3.32,6.54-4.82,2.08-1.39,4.27-2.62,6.46-3.83a66.15,66.15,0,0,1,13.39-5.65c3.26-1,6.58-1.77,9.9-2.51a50.26,50.26,0,0,1,5.35-.75c1.5-.17,3-.25,4.52-.38a.62.62,0,0,0,.25-.11ZM51,2009.6c-.2-2.06-.31-3.53-.48-5-.22-1.88-.41-3.78-.75-5.65a78.64,78.64,0,0,0-2.52-10.14,79.32,79.32,0,0,0-5-12,83.06,83.06,0,0,0-5.61-9.27,75.83,75.83,0,0,0-6.55-8.17c-1.65-1.78-3.42-3.46-5.22-5.1-1.64-1.5-3.37-2.91-5.11-4.29A74.59,74.59,0,0,0,7.21,1942c-1.62-.81-3.29-1.53-5-2.25a70.66,70.66,0,0,0-10.39-3.54,70.35,70.35,0,0,0-11.72-2.08c-2-.16-4-.43-6.07-.45-2.5,0-5,.06-7.51.23-2.26.15-4.52.39-6.75.73s-4.39.78-6.56,1.28a56.36,56.36,0,0,0-9.07,2.82c-2.69,1.12-5.38,2.26-8,3.53a60,60,0,0,0-10.45,6.39c-2.55,2-5.1,3.93-7.47,6.09a63.65,63.65,0,0,0-7.35,7.78c-1.38,1.78-2.78,3.56-4.08,5.39a65.21,65.21,0,0,0-6.13,10.54c-1.25,2.74-2.47,5.51-3.48,8.34-.94,2.65-1.62,5.39-2.36,8.11a39.9,39.9,0,0,0-.85,4c-.3,1.87-.54,3.76-.73,5.65-.21,2.12-.47,4.25-.47,6.38q-.06,20.23,0,40.47c0,1.76.09,3.52.24,5.27.19,2.26.4,4.51.73,6.75s.79,4.39,1.29,6.56a55.38,55.38,0,0,0,2.82,9.07c1.12,2.69,2.26,5.38,3.53,8a58.84,58.84,0,0,0,6.39,10.45c2,2.55,3.93,5.1,6.09,7.47a62.11,62.11,0,0,0,7.78,7.34c1.78,1.39,3.55,2.79,5.39,4.09a65.12,65.12,0,0,0,10.53,6.13c2.75,1.25,5.53,2.42,8.35,3.49a58.88,58.88,0,0,0,6,1.85c2,.53,4.11,1,6.18,1.34,1.87.34,3.77.55,5.66.74,2.1.21,4.21.39,6.31.47,1.59.06,3.18,0,4.76-.1,1.79-.09,3.59-.18,5.37-.37,2-.22,4-.52,5.93-.84a68.54,68.54,0,0,0,9.69-2.39,72.43,72.43,0,0,0,12.37-5.16c2.19-1.18,4.37-2.39,6.46-3.73s3.9-2.7,5.78-4.15a65.41,65.41,0,0,0,5-4.2,72.61,72.61,0,0,0,7.47-7.92c1.38-1.78,2.78-3.55,4.08-5.39a65.22,65.22,0,0,0,6.28-10.86c1.18-2.6,2.32-5.23,3.27-7.92s1.66-5.45,2.42-8.2a39.9,39.9,0,0,0,.85-4.05q.45-2.82.73-5.66c.21-2.12.47-4.25.47-6.38C51.06,2038.47,51,2023.74,51,2009.6Z" transform="translate(293.44 -1931.66)" style="fill:#fff"/><path d="M-105,2053.67c0-13.51,0-27.33,0-41.16,0-2.26.28-4.53.46-6.8a59.35,59.35,0,0,1,2.08-11.53c.78-2.8,1.74-5.56,2.69-8.3.5-1.42,1.15-2.77,1.76-4.14a68.76,68.76,0,0,1,6.77-11.81c1.38-1.93,2.79-3.86,4.35-5.64,2.15-2.44,4.36-4.85,6.74-7.08a80.62,80.62,0,0,1,6.87-5.6,63.51,63.51,0,0,1,6.26-4.16c2.54-1.45,5.16-2.77,7.82-4,2.42-1.09,4.92-2,7.43-2.89a65.32,65.32,0,0,1,10-2.52c1.83-.34,3.69-.55,5.54-.74s3.46-.28,5.19-.37,3.25-.16,4.87-.1c2.11.07,4.23.21,6.32.48,2.86.36,5.72.79,8.55,1.34,2,.38,3.89,1,5.82,1.55a71.1,71.1,0,0,1,13,5.32,71.17,71.17,0,0,1,10.83,6.9c1.73,1.34,3.38,2.77,5,4.19a35.39,35.39,0,0,1,2.92,2.68c1.71,1.83,3.37,3.73,5,5.62a60.76,60.76,0,0,1,5.59,7.66,64.12,64.12,0,0,1,5.38,10.08c1,2.34,1.88,4.68,2.73,7A67.84,67.84,0,0,1,47.63,2000c.35,1.85.55,3.72.74,5.6s.27,3.7.37,5.55c.07,1.14.12,2.28.12,3.42,0,12.42,0,24.85,0,37.27,0,2.22-.29,4.45-.46,6.68a66.69,66.69,0,0,1-2.19,12.05,64.14,64.14,0,0,1-3.14,9.15c-.91,2.06-1.8,4.13-2.84,6.13a62.53,62.53,0,0,1-6,9.69c-1.69,2.18-3.45,4.3-5.22,6.42a29,29,0,0,1-2.59,2.83c-1.82,1.71-3.7,3.35-5.58,5a60.84,60.84,0,0,1-7.66,5.6c-1.52,1-3,1.9-4.65,2.71-2.67,1.34-5.34,2.66-8.09,3.81a62.22,62.22,0,0,1-11.5,3.55c-1.8.36-3.59.77-5.4,1.06-1.5.24-3,.37-4.55.5s-2.87.19-4.31.24-3.17.13-4.76.11c-1.43,0-2.87-.09-4.3-.24A68.22,68.22,0,0,1-45,2125.47c-2.64-.69-5.31-1.34-7.9-2.21s-5-1.93-7.45-3A65.75,65.75,0,0,1-72,2113.59a64.87,64.87,0,0,1-5.58-4.32q-3.66-3.22-7.07-6.71c-1.52-1.56-2.83-3.33-4.22-5a55.28,55.28,0,0,1-5.57-8.17c-1.57-2.8-3-5.71-4.32-8.63a47.67,47.67,0,0,1-2.44-6.34c-1-3.35-1.82-6.76-2.6-10.17a42.61,42.61,0,0,1-.64-4.65C-104.64,2057.72-104.81,2055.86-105,2053.67Zm137.81-5.31v-.79q0-12.21,0-24.43,0-4.65-.13-9.3a38.69,38.69,0,0,0-.36-4.16c-.28-2-.55-4-1-6a58.14,58.14,0,0,0-4-11.73,59.36,59.36,0,0,0-5.1-9,57.42,57.42,0,0,0-6.77-8.23c-.93-.92-1.86-1.83-2.83-2.71a40.11,40.11,0,0,0-3.46-2.94q-3.45-2.44-7-4.67a51.33,51.33,0,0,0-10.2-4.72,55.43,55.43,0,0,0-12.65-2.9c-2.15-.2-4.29-.41-6.44-.46-1.94,0-3.88.11-5.82.23a31.13,31.13,0,0,0-3.86.37c-2.26.42-4.52.91-6.76,1.44a52.17,52.17,0,0,0-10,3.61,53.64,53.64,0,0,0-9.89,5.83c-2.18,1.65-4.3,3.4-6.33,5.24a52.6,52.6,0,0,0-6.86,7.67,57.85,57.85,0,0,0-4.92,7.68c-.87,1.66-1.65,3.37-2.43,5.08a44.21,44.21,0,0,0-2.76,8c-.59,2.48-1.06,5-1.46,7.49a40.24,40.24,0,0,0-.59,6c0,10.93,0,21.85,0,32.78v.64Zm-118.93,16.75a60.19,60.19,0,0,0,23.09,31.68,59.39,59.39,0,0,0,42.71,10.62,59.36,59.36,0,0,0,33.54-15.69A60.3,60.3,0,0,0,30,2065.11ZM-102.84,2031l7.37,2.6a1.65,1.65,0,0,1-.32.21c-2.19.77-4.37,1.56-6.57,2.29a.61.61,0,0,0-.51.71c0,1.86,0,3.71,0,5.57,0,.17,0,.34,0,.49h11.9v-4.08h-9.15l0-.08,9.19-3.23v-3.66l-9.29-3.27,0-.14h9.25v-4h-11.92Zm28.66-70.89.11-.09c.13.08.28.14.4.23,2.4,1.7,4.79,3.42,7.2,5.11a.7.7,0,0,0,.66,0c.82-.54,1.62-1.12,2.4-1.72a.6.6,0,0,0,.13-.52q-.78-2.91-1.61-5.81c-.31-1.09-.64-2.17-1-3.39a2.43,2.43,0,0,1,.33.28q2.31,3.26,4.61,6.53c.54.77.54.79,1.31.26s1.67-1.2,2.53-1.82c-1.43-2-2.83-4-4.24-6-.82-1.16-1.65-2.31-2.5-3.46a.5.5,0,0,0-.43-.14c-1.58,1.11-3.15,2.25-4.73,3.37a.53.53,0,0,0-.25.72c.51,1.65,1,3.33,1.42,5,.19.68.38,1.35.59,2.12-.17-.08-.24-.1-.3-.14-1.91-1.34-3.82-2.67-5.72-4a.69.69,0,0,0-.94,0c-1.52,1.1-3.05,2.18-4.59,3.26-.26.19-.28.33-.08.58s.54.78.82,1.17l5.88,8.24,3.27-2.34Zm49.89,91v12.07h4.58v-6.61c1.21,1.08,2.28,2.22,3.36,3.35a21,21,0,0,1,1.64,1.76c.77,1,1.59,1.79,3,1.55a11.41,11.41,0,0,1,1.94,0h1.11v-12.06h-4.69V2058c-.64-.64-1.18-1.17-1.7-1.72-1.52-1.63-3-3.26-4.54-4.88a.84.84,0,0,0-.51-.24Zm-3,73c0-.7-.06-1.31-.09-1.92,0-.84-.07-1.68-.13-2.52,0-.32.12-.54.41-.53a2.27,2.27,0,0,1,1.8.56c1.06,1.24,2.09,2.5,3.17,3.72a1.23,1.23,0,0,0,.79.4c.84,0,1.68-.06,2.52-.1l2.58-.17c-.9-1.16-1.75-2.27-2.63-3.36a4.43,4.43,0,0,0-2.75-1.58,22.77,22.77,0,0,0,2.48-1.2,2.8,2.8,0,0,0,0-4.65,6.92,6.92,0,0,0-3.94-.85c-1.25-.06-2.5.13-3.76.19s-2.64.07-4,.13c-.67,0-1.34.12-2.09.19.1,1.76.22,3.5.3,5.24.07,1.44.08,2.88.13,4.33,0,.77.12,1.54.19,2.37Zm71.61-129.23-11.79,1.85a4.31,4.31,0,0,0,0,.72c.14.89.31,1.78.45,2.68.29,1.73.52,3.48.87,5.2a8.2,8.2,0,0,0,1.85,3.91,5.23,5.23,0,0,0,5.18,1.49c3.22-.56,4.74-2.85,4.79-5.85a20.35,20.35,0,0,0-.35-3.19C45,1999.47,44.68,1997.21,44.34,1994.93ZM-4,1956.86c.16.11.31.23.47.33.52.33,1,.65,1.57,1,2.15,1.23,4.28,2.52,6.48,3.66a5.49,5.49,0,0,0,5.3.06,6.25,6.25,0,0,0,2.64-3.18,4.8,4.8,0,0,0,.43-3.12,6.64,6.64,0,0,0-3.1-4.2c-2.27-1.47-4.6-2.85-6.9-4.25-.7-.42-.71-.4-1.16.28-.13.2-.27.39-.39.59Zm7.19,147.37,6.7,9.89c.17-.1.33-.18.48-.28l2.84-1.93a29.56,29.56,0,0,0,5.46-4.19,6.07,6.07,0,0,0,1.54-3.27c.34-2.29-1.8-5-3.28-5.74a5.64,5.64,0,0,0-5.84.32C8.39,2100.63,5.85,2102.44,3.16,2104.23Zm-59.92-40.75c1-.11,2.11-.14,3.14-.35a6.58,6.58,0,0,0,4.44-2.7,6,6,0,0,0,.71-4.79,4.92,4.92,0,0,0-1.68-2.73,8.78,8.78,0,0,0-5.27-1.84,14.22,14.22,0,0,0-5.39.47,6.62,6.62,0,0,0-3.57,2.44,5.73,5.73,0,0,0,2.23,8.41A12,12,0,0,0-56.76,2063.48ZM-46,2121.72a5.59,5.59,0,0,0,5.84-4.2,5.23,5.23,0,0,0-1.33-5.5,9.4,9.4,0,0,0-3.57-2.29,12.87,12.87,0,0,0-6.71-1.09,5.36,5.36,0,0,0-3.72,2.05c-1.75,2.46-1.87,5.3.35,7.63a8.73,8.73,0,0,0,3.27,2.09A15,15,0,0,0-46,2121.72Zm6.4-70.5H-44.5a.69.69,0,0,0,0,.16c0,2.24,0,4.47,0,6.71a5,5,0,0,0,4,4.94,21,21,0,0,0,5.07.37,9.24,9.24,0,0,0,3.49-.61,4.66,4.66,0,0,0,3.21-4.52c-.05-2.09,0-4.19,0-6.29v-.76h-5v7.42a1.8,1.8,0,0,1-1,1.72,4,4,0,0,1-2.57.34c-1.46-.28-2.23-.75-2.2-2.67C-39.55,2055.77-39.58,2053.52-39.58,2051.22Zm86.48-22.75H35v13.83h2.63v-8.88h2.53v7.91h2.31v-7.91h2.06v8.65H46.9Zm-9,57.61c-.11-.1-.13-.15-.17-.16-1.76-.25-3.52-.48-5.28-.75-2.48-.38-4.95-.8-7.43-1.18a.59.59,0,0,0-.46.2q-1.49,2-2.93,4a.59.59,0,0,0,0,.5c.38.76.81,1.5,1.19,2.26l3.51,7,1.23,2.41c.9-1.22,1.75-2.36,2.59-3.51.26-.35.43-.69.06-1.1a3,3,0,0,1-.58-.89,1,1,0,0,1,0-.74c.64-1,1.33-1.91,2-2.86.36-.49.64-1.21,1.12-1.41s1.16.17,1.76.21a1,1,0,0,0,.71-.28,13,13,0,0,0,.87-1.19Zm-116.13-108c-1.33-.1-2.55-.17-3.76-.28-1.54-.14-3.08-.31-4.62-.47-1.13-.12-2.26-.19-3.38-.37-1.39-.22-1.6-.17-2.37,1-.67,1-1.33,2.06-2,3.1-.11.18-.23.48-.15.62.42.8.9,1.58,1.36,2.36,1,1.81,2.09,3.62,3.15,5.42.7,1.21,1.42,2.4,2.15,3.64.83-1.29,1.61-2.51,2.41-3.73.23-.35.35-.61,0-1a3.82,3.82,0,0,1-.69-1,.74.74,0,0,1,0-.6c.88-1.43,1.82-2.82,2.7-4.25a.76.76,0,0,1,.91-.36c.52.09,1,.2,1.53.31ZM28.35,1986c.7-1.48,1.35-2.91,2-4.32q1.79-3.69,3.58-7.36a.72.72,0,0,0-.09-.86c-.92-1.19-1.86-2.37-2.72-3.6a.72.72,0,0,0-.8-.33c-.78.12-1.55.29-2.32.43l-5.07.89-5.36.92,3.07,4.07a12.28,12.28,0,0,1,1.65-.46.8.8,0,0,1,.66.26c.95,1.2,1.85,2.42,2.78,3.63.59.75.66.8.07,1.57a1.29,1.29,0,0,0,0,1.92C26.74,1983.76,27.51,1984.86,28.35,1986Zm-96.56,68.67a16.16,16.16,0,0,0-1.69-2,7.66,7.66,0,0,0-5-1.61,24.16,24.16,0,0,0-3.3.13,7.44,7.44,0,0,0-4.32,1.9,5.54,5.54,0,0,0-1.5,5.42,5.75,5.75,0,0,0,4,4.29,14.71,14.71,0,0,0,5.31.6,8,8,0,0,0,4.15-1.07,5.18,5.18,0,0,0,2.41-3l-4.32-.95a2.92,2.92,0,0,1-2.38,2.25,5.89,5.89,0,0,1-1.62,0c-1.26-.2-2.09-.5-2.41-1.82a8.52,8.52,0,0,1-.16-2.62,2.35,2.35,0,0,1,.93-1.84,3.74,3.74,0,0,1,5.5.93Zm-13.42,28.47-9.26,7.56,3.14,3.86,3.84-3.13,4.08,5,1.76-1.45-4.06-5,1.77-1.45,4.75,5.83,1.56-1.28c.28-.22.28-.41,0-.69-.5-.53-1-1.1-1.43-1.67-1.21-1.48-2.4-3-3.6-4.44ZM10,2051.21H-5.41v2.89H-.25v9.13h5.1v-9.17H10Zm19.52,0c-1.7,0-3.28,0-4.87,0a1.17,1.17,0,0,0-1,.51c-.95,1.15-1.88,2.3-2.84,3.44a.4.4,0,0,1-.38,0c-.92-1.1-1.81-2.21-2.72-3.31-.2-.24-.48-.57-.73-.58-1.72,0-3.44,0-5.24,0,.49.56.91,1.06,1.36,1.54,1.21,1.3,2.39,2.64,3.67,3.88a3.91,3.91,0,0,1,1.39,3.64,10.93,10.93,0,0,0,0,1.81v1.17h5c0-1.58,0-3.11,0-4.64a1,1,0,0,1,.16-.6c.89-1,1.8-2,2.71-3ZM-69.93,2108l5.36-7.4-4-2.91-7,9.67,10.49,7.61,1.65-2.27Zm-20.4-98.09c.1-1.53.19-3,.3-4.43,0-.47-.15-.64-.6-.65-.68,0-1.36-.08-2-.12l-5.45-.24c-.14,0-.28-.06-.41-.07l-3.48-.2-.29,5Zm39.93-66.13,3.28,11.52,4.8-1.36-3.27-11.53Zm40.89,165.76c1.33,3.83,2.64,7.56,3.94,11.3l4.7-1.66c-1.32-3.77-2.62-7.52-3.94-11.3Zm-15.95-161.85,6.52.77.27-2.45-6.5-.78Z" transform="translate(293.44 -1931.66)" style="fill:#fff"/><path d="M-87.61,2045.93v-.76c0-10,0-20.08,0-30.12a50.67,50.67,0,0,1,.58-5.75A51.58,51.58,0,0,1-84.23,1998a50.39,50.39,0,0,1,4.49-9.65c1.36-2.21,2.76-4.42,4.29-6.52,1.12-1.55,2.45-2.93,3.71-4.37.59-.68,1.2-1.35,1.85-2a69.2,69.2,0,0,1,7.47-6.2,59.82,59.82,0,0,1,8.73-5.14,54.22,54.22,0,0,1,11.8-4.14c2.06-.45,4.15-.78,6.23-1.09a34.64,34.64,0,0,1,3.8-.36c2-.09,4-.17,6-.12,1.76.06,3.52.3,5.28.46a40.77,40.77,0,0,1,8.13,1.6c2.39.71,4.76,1.53,7.09,2.42a48,48,0,0,1,4.94,2.29,49.46,49.46,0,0,1,8.27,5.3c1.67,1.35,3.29,2.77,4.91,4.17a49.25,49.25,0,0,1,6.16,6.75A56.4,56.4,0,0,1,24,1989a58,58,0,0,1,4.88,11.47,48.35,48.35,0,0,1,1.8,7.88c.24,1.77.45,3.55.6,5.33.1,1.19.12,2.4.13,3.6q.07,14.06.12,28.1v.52Zm32.67-32.74a1.69,1.69,0,0,1-1.22-1.3,2.35,2.35,0,0,0-1.53-1.71c-1-.22-2-.42-3-.6-.35-.07-.58.09-.53.49a4,4,0,0,1,.1.82c-.08.8-.22,1.58-.34,2.4-.05,0,0,0,0,0l6,.38c.36,0,.61-.06.53-.5.06,0,.15,0,.18,0,.66,1,1.87,1.25,2.59,2.13,0,0,.15,0,.23,0,.19-2.72-1.73-4.66-3.81-4.48Zm41.61-12.48,0,0c-.32-.29-.79-.49-.55-1.12l1.15.11c-.42-.45-1-.68-1-1.35.76-.41,1.37,0,2,.25.12-.64.32-.72.82-.32.31.24.59.52.9.77s.6.45,1,.74a2.69,2.69,0,0,0-1.08-1.75.73.73,0,0,1-.27-.39c-.08-.5-.11-1-.18-1.66l1.14.39c-.12-.61-.27-1.22-.35-1.84a1.8,1.8,0,0,1,.21-.66c.19.1.46.14.55.3a13.38,13.38,0,0,1,.56,1.28c.09.21.2.59.31.59.63,0,.52.48.64.84.82.76,0,1.9.65,2.86l.21-2.35c.39.26.77.39.78.55,0,.87.66,1.65.41,2.57a2.28,2.28,0,0,0-.08,1c.21.91.5,1.8.76,2.7.07-1.22,0-2.43.08-3.64,0-.2.19-.4.3-.6.14.19.37.38.39.59.09.67.08,1.35.15,2,0,.5.18,1,.27,1.49l.23,0,.15-2.65c.25.19.55.31.57.46a7.16,7.16,0,0,1,.16,2c-.15,1-.54,2-.72,3a2.2,2.2,0,0,0,.41,2.14c.14-.78.25-1.43.38-2.08.25-1.31.5-2.63.77-3.94.13-.66.26-1.31.44-2a1.91,1.91,0,0,0-.12-1.84s0-.14,0-.39l2.6.88a.88.88,0,0,0-.38-.43c-1-.55-2.06-1.09-3.1-1.62-.55-.28-.63-.6-.33-1.17l-1-.35,0,.75H-5.66v-.81h1.85c-.07-.2-.2-.38-.17-.54s.25-.19.46-.33c-.56-.45-1.12-.87-1.63-1.34a3.38,3.38,0,0,1-.52-.79l.15-.15,1.21.12c-.87-.62-1-.82-1-1.39.71-.39,1.33,0,2,.26.14-.65.33-.72.85-.29s1.17,1,1.76,1.44a2,2,0,0,0-.86-1.59.9.9,0,0,1-.35-.43c-.1-.52-.13-1-.2-1.73l1.14.37c-.12-.58-.26-1.16-.33-1.74a2,2,0,0,1,.18-.72c.21.13.51.2.62.39a11.62,11.62,0,0,1,.61,1.4c.06.13.15.37.22.37.63,0,.51.44.53.81l.56.19v2.77c.63-.73-.14-1.7.61-2.29.44.22.69.45.66,1,0,.37.29.75.32,1.13s-.16.93-.08,1.36c.18,1.08.45,2.13.69,3.19.14-1.24.12-2.45.15-3.67,0-.18.18-.37.28-.56.14.19.38.37.41.57.09.67.08,1.36.15,2,0,.51.17,1,.26,1.51H5.1c0-.69.05-1.37.09-2a.76.76,0,0,1,.14-.46c.28-.3.51-.56.23-1a1.82,1.82,0,0,1-.24-.66c-.07-.38.08-.6.49-.42a3.67,3.67,0,0,1,1,.54.64.64,0,0,0,1,.06c-.61-.6-1.2-1.2-1.82-1.78a13.47,13.47,0,0,1-1.34-1.27c-.21-.26-.35-.87-.2-1.05.31-.38.67,0,.94.27.5.47,1,.95,1.45,1.45a1.58,1.58,0,0,0,1.5.56c-.71-.61-1.31-1.19-2-1.68-1-.75-2-1.43-3-2.16-.12-.09-.17-.28-.28-.47l.77-.09-2-3.45.18-.19,1.51.37c-.32-.5-.67-1-1-1.56-.09-.16-.1-.54,0-.58a1.07,1.07,0,0,1,.75-.13,9.51,9.51,0,0,1,1.3.68l0-.66c.8,0,.93.69,1.26,1.12s.65,1,1,1.47l.16-.1a3.69,3.69,0,0,0-.72-2.43,2.61,2.61,0,0,1-.35-1.71c0-.37.11-.74.2-1.3l1,.72V1979c0-.9,0-1.81,0-2.72,0-.15.14-.29.21-.44.15.08.34.12.44.24a1,1,0,0,1,.19.5c.14.85.27,1.71.42,2.59,1.13.06.07.95.6,1.36l.31.08c0,1.31-.46,2.57-.24,3.87.22-.79.34-1.58.49-2.36a2.32,2.32,0,0,1,.28-.57c.18.2.5.37.54.59a9.38,9.38,0,0,1,.13,2c-.07,1-.33,2.09-.33,3.13,0,1.35.16,2.71.26,4.06a13,13,0,0,0,.32-2c.13-1.23.24-2.45.38-3.68,0-.15.22-.28.33-.41a2.22,2.22,0,0,1,.37.44.84.84,0,0,1,0,.42c-.08,1.48-.16,3-.23,4.43a3.09,3.09,0,0,0,.08.59h.2c.15-1,.28-2.06.45-3.09,0-.17.2-.32.31-.48a1.74,1.74,0,0,1,.29.38,1.86,1.86,0,0,1,.11.57,12.58,12.58,0,0,1-.89,4.7l-.36,1.16.65.14c.56-1.9,1.14-3.81,1.69-5.74.21-.74.31-1.51.5-2.25a2.39,2.39,0,0,1,.36-.61l.45.28c.05-.89.44-1.53,1-1.5v4.52a4,4,0,0,0,.23-.92c.2-.93.39-1.85.6-2.77.09-.39.34-.49.76-.32l-.25,3a5.3,5.3,0,0,1,.78-.33,6.83,6.83,0,0,1,1-.15s.15.33.11.35a3.43,3.43,0,0,1-.84.54c-.52.19-1,.28-1,1.05,0,.57.11.61.57.66a17.85,17.85,0,0,1,2.4.37.68.68,0,0,1,.4.55c0,.31-.1.74-.64.64s-1-.15-1.46-.24c-.83-.15-1.08,0-1.23.7l2.31.27c.13,0,.24.16.35.24-.1.12-.19.32-.31.34-.76.15-1.52.29-2.28.37s-.83.2-.72.94l2.21.15.06-.84h5.06a8.29,8.29,0,0,1-.47-1,.71.71,0,0,0-.85-.54c-.52,0-1,0-1.56,0v-.74h1.75a6,6,0,0,1-.28-.6c-.26-.77-.82-.9-1.57-.85-1,.06-2,0-2.94,0v-.71h3.53a1.64,1.64,0,0,0-2.19-1.45v-.73h1a4.93,4.93,0,0,0-.91-1.38c-.34-.26-.92-.21-1.39-.3v-.73l.7,0a7,7,0,0,1-.58-.78,1.16,1.16,0,0,0-1.18-.66c-1.81,0-3.63,0-5.44,0h-.63v-.76h6.21a9.06,9.06,0,0,1-.73-.94,1.58,1.58,0,0,0-1.65-.74c-1.75.05-3.5,0-5.28,0v-.76h5.61c-.2-.27-.33-.5-.5-.69a2,2,0,0,0-1.71-.88c-1.44.11-2.9,0-4.37,0v-.76h4.66a9.81,9.81,0,0,1-1-.91,1.66,1.66,0,0,0-1.57-.64c-.83,0-1.67,0-2.49,0v-.75h2.62c-.35-.32-.57-.5-.77-.69a2.41,2.41,0,0,0-1.84-.76c-5.22,0-10.44,0-15.67,0h-.78l.61,1.47H6.6v.73H-6.81a5.77,5.77,0,0,1,.28.78c.14.69.57.79,1.22.79,3.58,0,7.17,0,10.76,0h.67v.74h-12l.62,1.57H4.79v.71H-4.92l.17.66c-.38.48-.77.43-1.22.11a3.74,3.74,0,0,0-2.55-.79c-1.66.11-3.34,0-5,0l.42,1.71H1.64v.73H-12.94c0,.26.1.45.12.64.08.61.36.82,1,.81,4.28,0,8.55,0,12.83,0h.62v.85h-14a5.13,5.13,0,0,1,.25.92c0,.56.29.66.8.66,2.7,0,5.4,0,8.11,0h.68l0,.73h-22l-.3,1.46H-3.19v.71H-25l-.31,1.46H-6.21v.73H-25.49l-.3,1.56h15v.85H-26l-.3,1.46H-12v.84H-26.47l-.29,1.46h12.55v.69H-32.29v-.71h4.48a7.06,7.06,0,0,1-.15-.88c0-.43-.2-.59-.63-.57-.81,0-1.61,0-2.42,0h-3.94v-.86h6.66a3.25,3.25,0,0,1-.12-.65c0-.72-.35-.81-1-.8-2.36,0-4.72,0-7.08,0h-1v-.87h8.73l-.34-1.55H-79.42a.74.74,0,0,0-.83.5c-.32.83-.71,1.62-1.08,2.43a51.53,51.53,0,0,0-2.88,8.44c-.48,1.93-.84,3.89-1.21,5.84-.15.81-.19,1.64-.28,2.53h5.83l0,.74h-5.85l-.16,1.44h11.56v.87H-85.88l-.16,1.3h14.36v.87H-86v1.43H-67.4l0,.74H-86v1.46h19.17v.71H-86V2023h18.61a2.79,2.79,0,0,1,.77.26c.18-.32.47-.75.68-1.21a2.18,2.18,0,0,0,0-2c-.3-.62-.6-1.24-.92-1.85a12.38,12.38,0,0,0-.8-1.31,5.35,5.35,0,0,0-2.29-1.33,5,5,0,0,1-.73-.51l.1-.17a1.43,1.43,0,0,1,.29,0l3.3.37c.09,0,.16.1.25.15a3.17,3.17,0,0,0,.7.42c1.81.6,3.63,1.18,5.45,1.76a4,4,0,0,0,.59.08,4.86,4.86,0,0,0-1.28-2.94.93.93,0,0,0-.66-.31c-.66.13-1.3.35-2,.53-.29-.4-.16-.68.26-.94a3.09,3.09,0,0,0,1.64-3.14c-.09-.77,0-.78-.83-.43l-.49-1.55a20,20,0,0,1,6.34.7l.35-2.67c.77-.1.21.63.41.74.79-.05,1.48-.14,2.17-.14.28,0,.71.09.81.28.47.9,1.28.61,2,.68.49.06,1.1-.08,1.35.6,0,.08.23.11.35.11.83,0,1.67,0,2.49,0a1.33,1.33,0,0,1,1.19.65,1.87,1.87,0,0,1-.31.05,5.24,5.24,0,0,0-2.69.55c-.29.17-.83.29-1,.14a2.68,2.68,0,0,0-2-.31c-.8,0-1.53,0-1.86-.89-.71.32-1.52.14-2.15.7a8,8,0,0,1,1.48.32,4.06,4.06,0,0,1,2.17,1.35,7.83,7.83,0,0,1,.93,5l-.69-.18a1,1,0,0,0,.43.42c1.56.88,3.14,1.75,4.68,2.66.29.17.83.47.13.87,0,0,0,.19,0,.28,0,1.1.07,2.2.11,3.3a.37.37,0,0,0,.17.25c.74.37,1.49.74,2.25,1.08a2.64,2.64,0,0,1,1.82,3.26,3.85,3.85,0,0,1-3.14,3.62,39.73,39.73,0,0,1-4.37.49,1.7,1.7,0,0,0-1.44,1c-.18.87-.37,1.73-.56,2.67l1.27-.23V2036l-.79-.21c.11-.19.19-.46.3-.47a.93.93,0,0,1,.71.14,2,2,0,0,0,1.51.57,4.56,4.56,0,0,1,1.14.36,1.48,1.48,0,0,0,.27.1c1.58.17,3.16.31,4.74.5.53.06,1.18,0,1.25.92l-6.8.15c-.69,0-1.37,0-2.06,0-.23,0-.47-.1-.7-.09-.91.06-1.87-.4-2.74.32-.23.18-.72.09-1.08.05s-.92-.18-1.38-.27c-.25-.06-.5-.13-.75-.17a5.61,5.61,0,0,0-1.14-.17c-.59,0-1.18.2-1.76.2-.94,0-1.89,0-2.82-.12a13.52,13.52,0,0,1-1.39-.25,1.31,1.31,0,0,0-.48,0c-.16,0-.31.22-.47.22a5.76,5.76,0,0,1-2.82-.34.82.82,0,0,0-.33-.12c-.89,0-1.78,0-2.67,0-.42,0-.93,0-1.21-.66l3.46-.52c0-1-.16-2,.54-2.85.07-.09,0-.44-.15-.56-.8-.74-1.64-1.44-2.45-2.14l2.37-4.47H-86v6.94a17.36,17.36,0,0,1,2.22-.19c1.29.06,2.58.23,3.86.35a.56.56,0,0,1,.21.09,5.7,5.7,0,0,0,2.94.75,4.5,4.5,0,0,1,.63-.07c.73,0,1.46.13,2.19.19l1.83.18c.51,0,1,.09,1.53.16s1.06.16,1.58.27c.08,0,.13.18.27.37H-86v7.35l1,0c-.16.69-.61.41-1,.41v1.21H29.84v-12.06l-1.46-.91c.12.76-.19,1.12-.82,1s-1.08-.69-1.73-.27l-.15-.32a2.17,2.17,0,0,1-2.22.66c-.27,0-.55,0-.83,0a1.64,1.64,0,0,1-.63-.12,7.53,7.53,0,0,1-.84-.64l.41.87-.14.14-.94-.38c-.33.67-.59.75-.93.23-.19-.29-.31-.63-.49-.93a1.28,1.28,0,0,0-.32-.29,1.56,1.56,0,0,0-.24.35.85.85,0,0,0,0,.42.62.62,0,0,1-.58.8c-.29,0-.58.13-.87.2a.72.72,0,0,0,.46.15,5.89,5.89,0,0,1,1.69.09,5.92,5.92,0,0,0,3.14.37,6.53,6.53,0,0,1,1.17,0l.6,0h1.75l.07.21c-.16.09-.33.25-.5.26a5.19,5.19,0,0,0-1.17-.06c-.61.16-1.19.35-1.71-.08a1.14,1.14,0,0,0-.37,1.34c.21.69.46,1.37.72,2,.07.18.26.31.44.51.14-.43.15-.83.35-.95.49-.32.43-.71.39-1.17a.75.75,0,0,1,.26-.62c.33-.16.55.09.67.39,0,.11.09.22.13.33a2.7,2.7,0,0,0-.3,2.48c.52-.92,1-1.29,1.62-1.19-.14.66-1,1.1-.63,2,.62-.37,1.1-1.14,2.07-.71l-1.15,2,.37.7H25.81c-.27-.61.22-.94.49-1.38l-1.07.38-.26-.86c-.11.37,0,.94-.65.56a1.36,1.36,0,0,1-.15.41,4.09,4.09,0,0,1-.47.46,2,2,0,0,1-.39-.44c-.18-.38-.32-.78-.51-1.28-.28,1,.69,1.68.23,2.55h-.79c0-.18.06-.33.07-.48a1.19,1.19,0,0,0,0-.32s-.15,0-.16,0a.57.57,0,0,0-.1.31c0,.21.1.42.1.63,0,.39-.07.62-.6.53s-1-.28-1.43.07a.56.56,0,0,1-.84-.13,3.33,3.33,0,0,0-.72-.44l-.08.86a4.87,4.87,0,0,0-.86-.6,4.14,4.14,0,0,0-1-.19l.06.83c-1.21.25-1.18-.83-1.67-1.4-.26.15-.52.33-.8.46s-.38.15-.48.09a1.65,1.65,0,0,0-1.61,0,.62.62,0,0,1-.86-.41c-.06-.73-.72-1.3-.53-2.1a.22.22,0,0,0-.1-.2,1.6,1.6,0,0,0-.63-.33c-.28,0-.48.14-.46.48a17.51,17.51,0,0,0,.09,1.92c.11.56.06.85-.51,1a4.24,4.24,0,0,1-1.42.09.9.9,0,0,1-.65-.48c-.06-.17.17-.47.31-.69a.88.88,0,0,1,.28-.24l-2.51-1.85c-.53.29-.57.43-.29,1s.41,1,.62,1.53a2.28,2.28,0,0,0,.28-.13c.3-.23.61-.15.7.13a1.52,1.52,0,0,1-.07,1c-.12.25-1.26,0-1.51-.21a3.8,3.8,0,0,0-.68-.4l-.08.14a1.7,1.7,0,0,1,.16,1.4.38.38,0,0,1-.2.1c-.5.12-.64-.06-.61-.78a5.63,5.63,0,0,0-1-.16,1.79,1.79,0,0,0-1,.15.73.73,0,0,1-1,0,1.46,1.46,0,0,0-.78-.38c-.85,0-1.7.16-2.61.26l.3.83H-4.41l.3-.93a11.56,11.56,0,0,1-1.48.16c-.38,0-.75-.18-1.14-.21-.17,0-.36.15-.54.23.15.16.27.39.45.46a1.13,1.13,0,0,0,1.1-.13c.36-.24.6,0,.56.48-1,0-2,.47-2.92-.31-.11.54-.2.59-.55.28a1.38,1.38,0,0,0-1.28-.26,1.3,1.3,0,0,1-1.39-.23,1.5,1.5,0,0,0-.86-.51,17.16,17.16,0,0,0-2.25.23.35.35,0,0,0-.22.18c-.35.71-.58.83-1.43.69l.36-.42c-5.43.66-10.83.27-16.28.38l.36-.75a18.73,18.73,0,0,0-2.5-.43,25.08,25.08,0,0,0-2.73.21c-.27,0-.55,0-.81,0-.57.06-1.14.15-1.7.22-.24,0-.49,0-.73,0-1.54.15-3.08.44-4.62.44a30.21,30.21,0,0,1-5.62-.16,15.54,15.54,0,0,0-3.47.07c-.7,0-1.4.09-2.1.11s-1.61,0-2.42,0l0-.28a7.14,7.14,0,0,1,.92-.32,3.31,3.31,0,0,1,.94-.11c1.12.09,2.27-.27,3.38.2.24.1.58,0,.87-.06l-.56-.49.11-.13H-51l-.24.45c.13,0,.29,0,.4,0a5.55,5.55,0,0,1,2.75-.62,18,18,0,0,0,2.31-.21,3,3,0,0,0,.6-.06,11.47,11.47,0,0,1,4.5-.68,5.69,5.69,0,0,0,1.17-.23c-1,0-2,0-2.88,0-.67-.05-1.34-.26-2-.37a3.56,3.56,0,0,0-.8,0l-1.4.1a5.52,5.52,0,0,1-.58,0c-.37,0-.73,0-1.1-.1s-.64-.16-1-.17-.71.11-1.06.09c-1.28-.06-2.56-.11-3.83-.25a13,13,0,0,1-1.88-.5l.88-.18a8.58,8.58,0,0,1,2-.36c1.13.08,2.25.38,3.39.53a23.53,23.53,0,0,0,2.78.25c.61,0,1.22-.2,1.83-.19a18.56,18.56,0,0,1,3.14.18,30.41,30.41,0,0,0,4.29.29l2.4.18v.56h-3.4v.17c.21,0,.41,0,.61.06a15.74,15.74,0,0,1,1.93.28,16.32,16.32,0,0,0,4.44.69c.93,0,1.86,0,2.79,0a4.92,4.92,0,0,1,1,.24c-.27.24-.39.45-.53.45-.52,0-1,0-1.56,0-.32,0-.65,0-1,.07v.21l.64.25a1.13,1.13,0,0,1,.74-.35c.52,0,1,.14,1.54.17a1.26,1.26,0,0,0,.81-.15,2.47,2.47,0,0,1,2.07-.42,4.33,4.33,0,0,0,1.43.14c.56,0,1.16-.32,1.67-.2a8.46,8.46,0,0,0,3.36.21c1.48-.25,3-.37,4.44-.72a25,25,0,0,0,3.19-1.19c1-.38,2-.73,2.95-1.13.16-.06.25-.27.37-.41s.54-.11.6-.26c.2-.52.68-.5,1.06-.7.69-.37,1.65-.34,2-1.3,0-.1.22-.16.35-.21l1.16-.41a3.19,3.19,0,0,0-1.29-.32c-1.1,0-2.2.09-3.31.1-1.37,0-2.74,0-4.11,0-.63,0-1.26-.15-1.88-.23a10.73,10.73,0,0,0-1.77-.23c-1.63.07-3.25.22-4.88.35a1.12,1.12,0,0,0-.43.16c-.24.14-.46.38-.71.42a16,16,0,0,1-2.18.25,15.22,15.22,0,0,1-1.79-.11,8.23,8.23,0,0,1-2.9-.46c-1.18-.55-2.43-.19-3.66-.1-1,.06-2.06.6-3-.25-.1-.08-.32,0-.48,0-1,0-2.08.13-3.12.11-3.21-.06-6.42-.16-9.63-.25,0,0-.07,0-.11,0,0-.66.23-.78,1.07-.66a32.47,32.47,0,0,0,3.26.35c1.27.06,2.55,0,3.82,0h3.93c.18,0,.36,0,.54,0,.46,0,.93,0,1.39.1a11.27,11.27,0,0,0,1.41.16,35.11,35.11,0,0,1,4.84-.4c3.06.23,6.15.14,9.23.17.94,0,1.88-.12,2.82-.11a48,48,0,0,1,5.22.19,39.89,39.89,0,0,0,5.13,0c.52,0,1-.06,1.55-.12a2,2,0,0,1,1.79.7,3.69,3.69,0,0,1,2-.82c.73,0,1-.39.76-1a3.68,3.68,0,0,1-.36-1.84.45.45,0,0,0,0-.23,30.68,30.68,0,0,1-.93-5.54,2.29,2.29,0,0,0-.3-1c-.68-1-.74-2.2-1.24-3.27a2,2,0,0,1-2.18-1.83c-.15.28-.2.5-.34.58-.33.2-.65,0-.64-.47a4.15,4.15,0,0,0-.45-2.16,4.3,4.3,0,0,0,0,.61c-.15,1.14-.32,2.27-.48,3.41,0,.11,0,.31-.07.33-.57.2-.4.72-.55,1.11-.06.17-.29.28-.53.49-.15-1.54.06-3-.78-4.17l-.2,0v4.43c-.41.12-.6,0-.67-.33-.16-.92-.38-1.82-.56-2.7,0,.18-.1.41-.14.64-.16.75-.31,1.5-.49,2.25-.08.29-.34.56-.34.84,0,.58-.18.76-.75.5,0,.54,0,1,0,1.5a6.09,6.09,0,0,1-.17.85,8.9,8.9,0,0,1-.76-.49c-.25-.2-.52-.67-.69-.63-.66.17-.68-.26-1-.65a2,2,0,0,1,0-2.24c.24-.53.52-1,.73-1.6.41-1,.68-2.12,1.81-2.65a8.94,8.94,0,0,0,1.38-.7,1.08,1.08,0,0,0,.43-.68c.19-1.21.36-2.43.48-3.65.06-.57,0-1.16,0-1.91-1,1.55-2.15,2.84-2,4.79l-.71-.31a4.55,4.55,0,0,1-.17.78c-.06.16-.25.27-.39.4a3.49,3.49,0,0,1-.32-.35,2.67,2.67,0,0,0-.36-.54,1.11,1.11,0,0,1-.37-1c0-.85-.05-1.7-.09-2.54a3.13,3.13,0,0,0-.25,1.18c0,1.14.08,2.29.09,3.43a2,2,0,0,1-.28.68c-.23-.17-.55-.29-.66-.51a12.42,12.42,0,0,1-.49-1.53,2.16,2.16,0,0,1-2.2,2.17.36.36,0,0,0-.25.18c-.17.48-.51.48-1,.35.05-.6.15-1.19.16-1.79,0-1.71,1-2.87,2.15-4a7.91,7.91,0,0,0,.81-.71c.61-.81,1.16-1.67,1.8-2.45a1.57,1.57,0,0,1,1-.55,13.52,13.52,0,0,1,6.58,1,2.89,2.89,0,0,0,1.06,0v-.19a5.92,5.92,0,0,1-.82-.66c-.66-.76-1.74-1.12-2.07-2.2a.77.77,0,0,0-.41-.42c-1.09-.38-1-1.48-1.38-2.26,0,0,0-.1.06-.23,2,.23,3.62,1.41,5.23,2.57.14-.67-.35-.82-.7-1-1.82-1-3.64-1.92-5.48-2.85a.78.78,0,0,1-.3-1.16c-.38-.16-.76-.31-1.13-.49a2.67,2.67,0,0,1-.46-.37l.43-.46Zm2.41-38.13a16.58,16.58,0,0,1-7.17,10.93,16.47,16.47,0,0,1-12.84,2.37,16.17,16.17,0,0,1-12.81-13.77l-5.95,2,.06.2,2.14-.36c.49.42.43.76,0,1.23-1.53,1.49-3,3-4.48,4.57-1,1.06-2.1,2.11-3.22,3.22l10.66-2.21c-1.35,3.35-2.66,6.56-4,9.84l9.89-5.59-2.76,11.07.12,0,10-8.73,4,19.08h.09c1.34-6.34,2.68-12.68,4-19.1l10.11,8.87c-.95-3.81-1.87-7.47-2.82-11.25l9.92,5.59c-1.36-3.37-2.65-6.55-4-9.83L.54,1973c-.93-1-1.7-1.86-2.51-2.69q-2.4-2.51-4.85-5c-.4-.41-.82-.77-.33-1.41Zm-16,12.51a21.48,21.48,0,0,0,2.74-.3,15.11,15.11,0,0,0,8.81-5.33,16.89,16.89,0,0,0,3.24-6.71.46.46,0,0,0-.36-.63,60.63,60.63,0,0,0-12-2,41.2,41.2,0,0,0-5,0c-2.13.1-4.26.22-6.37.49s-4.08.74-6.11,1.11c-.55.1-.66.28-.54.87a15.19,15.19,0,0,0,6.6,10A15.58,15.58,0,0,0-26.92,1975.09Zm51.81,31a13.16,13.16,0,0,0,.64,1.22c1,1.51,1.91,3,3,4.49a1.24,1.24,0,0,1,.08,1.53c-.17.31-.34.41-.59.28a4.84,4.84,0,0,1-1-.71,8.91,8.91,0,0,1-2.34-2.44.44.44,0,0,0-.2-.15c-.41.49-.78.94-1.18,1.38a.3.3,0,0,1-.55-.21,8.13,8.13,0,0,1,0-.86l-.84,2.7a5.18,5.18,0,0,1,1.2,1.14,44.24,44.24,0,0,1,1.9,4.14,2.32,2.32,0,0,1-.14,1.19c0,.16-.28.3-.29.45,0,.41-.26.51-.56.42s-.48,0-.7.29-.51.88-1.17.78v-2.4l-.64.31-1.21-4.41c-.12.69-.26,1.63-.47,2.55,0,.2-.31.35-.48.52a2.43,2.43,0,0,1-.22-.6c0-1.28-.05-2.56-.06-3.85h-.21c-.77,1.2-.53,2.58-.6,3.87-.6.2-.61-.21-.72-.55a7.54,7.54,0,0,0-.38-.75.9.9,0,0,1-.09-.32c-.09-.73-.14-1.47-.26-2.19-.09-.52-.26-1-.4-1.54l-.12,0-.39,2.33-.93-.48c-.42.24-.56.17-.57-.46,0-.44,0-.88,0-1.33a3,3,0,0,0-.19-.7l-.16,0c0,.87,0,1.74,0,2.6a2.63,2.63,0,0,1-.36.86l-.16-.06.18,1.3c0,.37-.12.66-.5.51a.9.9,0,0,0-1,.22c-.27.2-.52.41-.8.64a1.2,1.2,0,0,1,.36,1.72,6,6,0,0,0-.85,1.61,9.91,9.91,0,0,0,0,2.18c0,2.63.08,5.27.11,7.9,0,.78.4,1.1,1.17,1s1.66-.15,2.49-.25c.56-.06,1.11-.17,1.76-.26a5.14,5.14,0,0,1-.31-.81,1.37,1.37,0,0,1,.06-.81c.07-.13.44-.1.73-.16.9-1.67,1.15-1.71,4.15-.5,0-.37.07-.72.12-1.06,0-.11.05-.28.12-.31.56-.2.5-.66.48-1.1a.76.76,0,0,1,.62-.87c.45-.13.88-.37,1.34-.46a1.46,1.46,0,0,1,1,.1c.35.24.54.68.84,1a2.24,2.24,0,0,0,.61.34c0-.34-.14-.73-.06-.77a2.1,2.1,0,0,1,.8-.14c.25,0,.51,0,.87,0-.42-1-1.34-.66-2.08-.9.1-.26.21-.5.29-.75a1.58,1.58,0,0,0,.12-.51c0-.76,0-1.53,0-2.3,0-.08.07-.21.13-.22.73-.14.82-.77,1-1.38l.73.24a1.64,1.64,0,0,1,.07-.52c.12-.25.25-.6.46-.68a1.81,1.81,0,0,0,1.34-2.1c-.05-.53-.08-1.07-.12-1.61-.16-1.92-.31-3.84-.49-5.77-.07-.68-.22-1.35-.33-2a.91.91,0,0,1-1.21-.14c-.56-.85-1.68-1.16-2-2.2,0-.06-.12-.1-.19-.15ZM7.24,2020.56c-.62.57-1.19.38-1.82,0v1.53l-1.09-.81v1.54c-.93-.32-1.65-.73-1.58-1.84a4.4,4.4,0,0,0-.11-1c-.06-.45-.14-.91-.21-1.37a7.46,7.46,0,0,0-.13,1.87c0,.24.14.49.09.7a1.61,1.61,0,0,1-.4.84.76.76,0,0,1-1.11,0l.27,1.07.79-.46a4.7,4.7,0,0,1-.07,1c-.29.89-.75,1.75-.14,2.69a.57.57,0,0,1,.07.29c0,.93.37,1.79.46,2.72a14,14,0,0,0,.88,2.9,1,1,0,0,0,1.54.68,3.31,3.31,0,0,1,2.25-.18c.45.06,1,.15,1.13-.53.07-.41.12-.82.15-1.24s0-1,0-1.51c.06-1.19.18-2.38.21-3.58,0-.76-.06-1.52-.11-2.27-.07-1.09-.1-2.19-.26-3.28a3.48,3.48,0,0,0-1-2.18l-.17,0Zm-86.85-29.07h50.29c0-1.29-.08-1.42-1.27-1.42H-78.13a4,4,0,0,0-.49,0,.4.4,0,0,0-.28.14C-79.14,1990.62-79.36,1991-79.61,1991.49Zm1.2-2.17h48.68c0-.12,0-.23-.05-.35-.11-1.08-.11-1.08-1.21-1.08H-76.82a2.66,2.66,0,0,0-.49,0,.77.77,0,0,0-.4.21C-77.95,1988.48-78.16,1988.88-78.41,1989.32Zm26,31.94a2.45,2.45,0,0,0,0-.61c-.25-.93-.55-1.85-.77-2.78a1.25,1.25,0,0,0-.94-.94c-1-.35-2-.72-2.94-1.07s-2.09-.73-3.15-1.09c2.12,4.4,2.14,9,1.25,13.6l1.18-.43a11.07,11.07,0,0,1,3.25-.11,6.74,6.74,0,0,1,1.27,0c.89.12,1.13-.08,1-.85l-3.65-.61v-.76c.57-.2,1.15-.39,1.72-.61.33-.12.64-.41,1-.43a.62.62,0,0,0,.64-.48.83.83,0,0,0-.42-.61,9.79,9.79,0,0,0-1.23-.39c-.17-.07-.43-.2-.45-.33a3.1,3.1,0,0,0-1.16-1.68c-.38-.36-.59-.65-.22-1.13.22.08.55.1.68.27A3,3,0,0,0-52.42,2021.26Zm-24.68-34.11h34.57l.36-1.55H-75.53c-.21,0-.51,0-.61.12A16.11,16.11,0,0,0-77.1,1987.15Zm3.2-4.58h31.83a.86.86,0,0,0,.36,0c.15-.07.37-.18.41-.32.14-.48.22-1,.33-1.48-1.89,0-3.72,0-5.55,0a2.18,2.18,0,0,0-.94.24c-.62.3-1.22.65-2,1l-.38-1.18H-57.6c-4.82,0-9.64,0-14.45,0a1,1,0,0,0-.69.21C-73.14,1981.52-73.46,1982-73.9,1982.57Zm14.44,37.26c.07-1-.12-1.29-1-1.56-1.74-.57-3.47-1.15-5.22-1.71-.48-.16-1-.26-1.62-.42.76,1.42,1.38,2.67,2.07,3.89a19.24,19.24,0,0,1,1.89,5.51,7.75,7.75,0,0,1,.15,2c-.08,1.11-.27,2.2-.42,3.34.82-.22,1.58-.4,2.33-.64a.72.72,0,0,0,.45-.4c.45-1.29.86-2.6,1.26-3.87-.24-.19-.47-.28-.54-.44-.29-.66-.7-.49-1.16-.23-.31.17-.65.29-1,.46l-.45-2.73c.69.24,1.27.47,1.86.64a1.1,1.1,0,0,0,.76,0,1.35,1.35,0,0,0,.4-1.74l-1-2.09Zm17.87-36.53H-73.94c-.2,0-.48,0-.59.13-.35.39-.63.83-1,1.29h33.58Zm-28.34-5.45h15.28c2,0,3.91,0,5.87,0a.66.66,0,0,0,.52-.23,12.58,12.58,0,0,0,.57-1.41,1.31,1.31,0,0,0-.22,0h-20a.7.7,0,0,0-.43.12C-68.82,1976.75-69.31,1977.25-69.93,1977.85Zm-1.91,2.27h22.57l.59-1.54c-7,0-14,0-20.95,0a2.11,2.11,0,0,0-1.71.88A8.44,8.44,0,0,0-71.84,1980.12Zm89.05,16.47v.21a6.9,6.9,0,0,0,1.36,0,8.75,8.75,0,0,0,1.28-.43c1.21-.37,1.91-.21,2.43.81a19.8,19.8,0,0,1,1.16,3.09c.12.38.21.64.63.78a14,14,0,0,1,1.75.72,1,1,0,0,1,.41.39c.4.58.77,1.18,1.15,1.78s.73,1.15,1.09,1.73a52.44,52.44,0,0,0-3.52-11H20.43c0,.21,0,.46-.08.58C19.53,1996.23,18.31,1996.26,17.21,1996.59Zm-.39,42.53a10,10,0,0,1,1.14.33c.17.07.38.25.4.4,0,.47.35.55.79.71-.09-.27-.14-.43-.2-.59s-.1-.34-.16-.51c.22,0,.44-.07.67-.08a3.77,3.77,0,0,1,.58,0l-.1-1.13c1-.34,1.28.8,2.08.82a13.79,13.79,0,0,1-.12-1.43c0-.64-.11-1.14-.95-1.22a3.76,3.76,0,0,1,.28-.39.67.67,0,0,0-.26-1,2.76,2.76,0,0,0-1.66,0c-.43.13-1.07.27-1.36-.4,0,0-.07,0-.13,0l-.11.39a5.09,5.09,0,0,0,.71.44c.55.21.51.69.41,1.07-.06.22-.43.4-.69.49a1.83,1.83,0,0,1-.84,0,3.91,3.91,0,0,0-2.71.13v1.33a3.44,3.44,0,0,1-2.83-.8,2.6,2.6,0,0,0,.25,3.14,2.63,2.63,0,0,1,.25-.73c.38-.51.79-.45,1.49,0a2.57,2.57,0,0,0,1.41.52c.46,0,.91.3,1.32-.15,0,0,.15,0,.22.06l1.25.62c-.16-.27-.28-.73-.48-.78C16.8,2040.18,16.81,2039.76,16.82,2039.12ZM-86,2025.41h18.16l.87-1.55H-86Zm18.65-50,0,.14H-48c.22,0,.56,0,.64-.19a8.07,8.07,0,0,0,.49-1.26H-65.58a.7.7,0,0,0-.43.12C-66.48,1974.61-66.92,1975-67.36,1975.41Zm16.19,53.13c2.84-1.35,5.35-1.1,7.37,1.5.09-.15.16-.25.21-.35.87-1.71.69-2.63-.86-3.74a8.41,8.41,0,0,0-1.92-.89.73.73,0,0,0-.58.17c-.51.39-.1.78.07,1.15s.3.67-.21,1c-.84-1.27-1.63-2.64-3.42-2.75.36-.75.25-.82-1-.74l.47.89-2,.14v.17l.9.39a.86.86,0,0,1,.65.85A16.54,16.54,0,0,0-51.17,2028.54Zm-18.14,1c1.72-.29,3.3-.56,4.89-.85.15,0,.37-.21.38-.33a6.65,6.65,0,0,0-.06-1.61c-.31-1.44-.69-2.86-1.09-4.45Zm39.14-42.36c-.08-.45-.15-.83-.21-1.22a.47.47,0,0,0-.55-.46h-8a.73.73,0,0,0-.49.14c-.57.48-1.11,1-1.71,1.53Zm25,52.55.1-.15a2.29,2.29,0,0,0,.67.11c.64-.09,1.27-.23,1.9-.34.37-.06.85,0,1.09-.16s.16-.68.22-1l1,0c.5,1.06.8,1.22,1.92.81a3.23,3.23,0,0,1-.58-.38.73.73,0,0,1-.19-.48c0-.1.22-.24.34-.25a.56.56,0,0,1,.45.17c.28.53.91,1,.17,1.68,0,0,0,.15,0,.09a2,2,0,0,0,.66.17,4.57,4.57,0,0,0,.87-.26c-.14-.15-.25-.35-.42-.44s-.49-.31-.37-.7a.75.75,0,0,0-.16-.49c-.13-.23-.33-.42-.44-.66-.18-.41-.3-.84-.45-1.26-.07-.21-.16-.4-.24-.6l-.41.31c.08.17.12.42.25.5a.73.73,0,0,1,.29.95c-.06.16-.46.24-.71.26a3.7,3.7,0,0,1-.82-.14l-.31.48c-.2-.26-.32-.55-.53-.66s-.48.06-.6.35a.53.53,0,0,1-.41.21,9.38,9.38,0,0,0-2.9.69c-.22.07-.51,0-.69.13-.77.54-1.51,1.12-2.18,1.62l.13.65-.9-.28c.06.21.05.46.18.58a3,3,0,0,0,.68.37c.06-.17.12-.34.19-.51s.11-.3.17-.44c.13.09.27.17.39.27l.52.54c.31-.34.53-.6.78-.83a.42.42,0,0,1,.36-.05c.06,0,.06.22.07.34s0,.18,0,.32l1.29.17Zm-19.23-52.58h10.93c-.41-.37-.76-.66-1.09-1a1.71,1.71,0,0,0-1.32-.56c-1.89,0-3.78,0-5.68,0h-2.54Zm-37.09,48.5c0-.91.6-1.21,1.68-.92v.64l.13,0,.29-1.37c-.46.64-.6.65-1.29,0-.07.39-.07.39-1.24.84a5.13,5.13,0,0,1,.27.9c0,.13-.15.28-.24.41-.11-.13-.24-.25-.34-.38s-.13-.24-.2-.36c-.12.28-.07.59-.17.65a1.14,1.14,0,0,1-.69,0c-.14,0-.25-.18-.39-.24a2.12,2.12,0,0,0-.85-.3c-1.12.12-2.23.31-3.39.47l0,.62c1-.15,1.92-.31,2.86-.44a3.19,3.19,0,0,1,.87,0c.63.08,1.25.22,1.87.26a14.16,14.16,0,0,0,2.06,0c.7,0,1.4-.22,2.1-.29a9.17,9.17,0,0,1,1.57-.06,5.65,5.65,0,0,0,1.7.19,4.51,4.51,0,0,1,2.74.06c-.12-.24-.15-.44-.24-.47a5,5,0,0,0-1.21-.25c-.45,0-.48-.26-.46-.59a7.76,7.76,0,0,1,.14-1.37c.21-.73-.15-1.62.59-2.22.09-.07.09-.24.13-.36l-.16.07a4.17,4.17,0,0,0-.48-.61c-.09-.08-.28,0-.43-.06,0,.52-.42.43-.7.56l-.69.29a2.45,2.45,0,0,0,.34,0c.88-.27,1,0,1.16.71a7.13,7.13,0,0,1,0,2.8c0,.29-.09.69-.28.81a1.91,1.91,0,0,1-1,.13,14.23,14.23,0,0,0-2.16-.05c-.58.09-.43-.19-.45-.48a4.75,4.75,0,0,1,2.53-.13c.1,0,.25-.15.38-.23l-.09-.21c-1.12.06-2.24.1-3.36.17a.42.42,0,0,0-.45.49c0,.17,0,.48-.11.49a4.37,4.37,0,0,1-1.3.06c-.11,0-.17-.42-.28-.7Zm14.26-11a24.94,24.94,0,0,0,0-2.87,2.59,2.59,0,0,0-.68-1.66,17.32,17.32,0,0,0-2.84-1.47c-.44-.21-.9-.4-1.48-.66a2.22,2.22,0,0,1,.29.66,4.32,4.32,0,0,0,.84,2,3.36,3.36,0,0,0,1.32,1,1.58,1.58,0,0,0,1.61.15c.13-.07.37.06.56.11-.06.17-.07.42-.19.5-.92.59-.52,1.55-.75,2.34Zm-17.51-51.51.06.13h7.88a.56.56,0,0,0,.36-.17c.35-.39.69-.8,1-1.21,0,0-.08-.06-.11-.06h-7.36a.6.6,0,0,0-.33.08C-63.7,1972.29-64.2,1972.71-64.71,1973.12Zm3-2.28,0,.12h7a.74.74,0,0,0,.44-.13c.47-.42.92-.87,1.37-1.31-2.23-.13-4.37-.13-6.52-.12a.67.67,0,0,0-.38.13C-60.46,1970-61.1,1970.4-61.75,1970.84Zm37.86,14h7.81c-.58-.53-1.09-1-1.61-1.46a.32.32,0,0,0-.22-.07h-5.68Zm-6.75,0a4.26,4.26,0,0,1-.21-1c0-.55-.28-.56-.69-.56-1.43,0-2.86.1-4.28,0s-1.77,1-2.75,1.58ZM.67,1971.68a2.88,2.88,0,0,0,3.24,1.58,6.14,6.14,0,0,1,1,0H8.68c-.45-.38-.79-.71-1.17-1s-.66-.55-1-.56C4.57,1971.65,2.62,1971.68.67,1971.68Zm-2.37-2.42,1,1.19a1.56,1.56,0,0,0,1.38.65c1.08-.07,2.17,0,3.26,0H5.71a20.12,20.12,0,0,0-2.3-1.71.64.64,0,0,0-.33-.1Zm9.41,70c0-.3.11-.59.14-.89.09-.87.18-1.74.25-2.61,0-.3,0-.61,0-.91,0-.48-.35-.51-.63-.47s-.26.34-.34.55a2,2,0,0,0,0,.5H6.24a1.87,1.87,0,0,0-.19.46c-.09.45-.49.42-.78.46-.08,0-.24-.38-.32-.61s-.17-.58-.25-.89c-.54.29-.58.65-.3,1.07s.64,1,1,1.47C6,2038.19,6.42,2039.24,7.71,2039.27Zm-66-70.74,0,.13h5.89c.08,0,.2,0,.24,0l1.52-1.67h-4.8a1,1,0,0,0-.44.13C-56.65,1967.57-57.46,1968.05-58.27,1968.53Zm-7,61.12-4.66.73c.88.77,1.65,1.49,2.47,2.14.48.37,1.51,0,1.86-.51A4,4,0,0,0-65.24,2029.65Zm20.59,1.1a3.55,3.55,0,0,0-1.72-2.11c-.14-.09-.63.09-.75.28-.61,1-1.15,2-1.74,3.11A7.7,7.7,0,0,0-44.65,2030.75ZM-4.07,1967c.62.61,1.11,1.12,1.62,1.6a.69.69,0,0,0,.41.2H2.45c-.42-.27-.68-.46-1-.62A7.81,7.81,0,0,0-.69,1967,18.79,18.79,0,0,0-4.07,1967Zm-42.08,13.28h5.33l.44-1.79c-.65,0-1.2,0-1.74,0a3.42,3.42,0,0,0-1.21.2C-44.24,1979.12-45.11,1979.66-46.15,1980.25Zm15,2.3a2,2,0,0,1-.11-.31c-.27-1.36-.28-1.25-1.68-1.39s-2,1-3,1.7Zm17.33-2.46h4.93a5.79,5.79,0,0,0-5.22-1.3Zm-5.22,2.33.1-.13c-.26-.22-.5-.46-.77-.66s-.71-.66-1.11-.72a16.12,16.12,0,0,0-2.31,0l-.31,1.54Zm38.4,28.69a7.52,7.52,0,0,0,.29-4l-2,3ZM6.07,1996.05a10.18,10.18,0,0,1-.11,1.3c-.22.93-.54,1.85-.71,2.79a2.58,2.58,0,0,0,.35,2.25c.08-.28.16-.45.19-.63.25-1.48.44-3,.76-4.43A1,1,0,0,0,6.07,1996.05Zm-58-22.89v.09h5.12c.14,0,.36-.08.4-.18a11.5,11.5,0,0,0,.41-1.14Zm49.34.09v-.07l-6-1.25c.14.39.24.74.39,1a.55.55,0,0,0,.39.26C-6,1973.26-4.3,1973.25-2.56,1973.25ZM-49.2,2031a3.41,3.41,0,0,0,.3-.39c.28-.52.56-1,.82-1.59.08-.15.18-.39.12-.47a.66.66,0,0,0-.5-.19,11.47,11.47,0,0,0-1.37.35c-.8.23-.89.63-.32,1.22C-49.83,2030.23-49.53,2030.59-49.2,2031Zm-9.44,2.82,3.69-.54v-.4c0-.7,0-.72-.7-.55-.85.22-1.69.53-2.56.69C-58.7,2033.09-58.75,2033.3-58.64,2033.79ZM-54,1966l0,.24a27.21,27.21,0,0,1,3.13,0c1.08.13,1.58-.52,2.22-1.27Zm-2.86,48.21c.14.44.15.94.35,1a9.85,9.85,0,0,0,2,.69c.08,0,.38-.36.36-.39a2.56,2.56,0,0,0-.78-.82A13.83,13.83,0,0,0-56.86,2014.21Zm67.22,17.18c-1-.2-1.08,0-1,.77,0,.17.18.33.28.5l.47.76-.74.13-.25.89.79,0c.5,0,.63-.34.48-.65A3.78,3.78,0,0,1,10.36,2031.39Zm11-22.38a1.94,1.94,0,0,0-.27.44c-.19.86-.29,1.75-.56,2.59s.19.85.83,1ZM9.49,2023.1c0,.45-.09,1,0,1a.28.28,0,0,1,.08.52c-.46.25-.4.69-.44,1.09,0,.19,0,.49.1.56a.71.71,0,0,0,.62,0,.72.72,0,0,0,.28-.5c0-.41,0-.84,0-1.26A1.5,1.5,0,0,0,9.49,2023.1ZM-2.1,1966.24A8.27,8.27,0,0,0-5.83,1965c.32.38.58.7.87,1a.69.69,0,0,0,.38.21C-3.79,1966.25-3,1966.24-2.1,1966.24Zm10.48,46.59a4.41,4.41,0,0,0,0-3.4,5.12,5.12,0,0,1-.26.92c-.28.54.26,1.36-.69,1.66Zm-59,19.27a.66.66,0,0,0,.39-.88,5.19,5.19,0,0,0-.85-1.38c-.09-.11-.45,0-.69,0a1.67,1.67,0,0,0,.11.65c.18.26.48.44.66.7A4.63,4.63,0,0,1-50.64,2032.1ZM-1,2021c.55.11.8-.16.86-.53A1.76,1.76,0,0,0-1,2018.7Zm30.82,9.18c0-.4,0-.4-.5-.54-.9-.24-1.06-.79-.43-1.51a3.09,3.09,0,0,0,.31-.6c-.8.18-.86.74-.79,1.34l-.69.07A2,2,0,0,0,29.81,2030.19Zm-15.89,5.29c.88-.14,1.71-.27,2.53-.42.09,0,.2-.15.22-.24a1,1,0,0,0-1.14-1l.57.82c-.55.06-.92.14-1.3.15A.85.85,0,0,0,13.92,2035.48Zm-16.71-17a1.5,1.5,0,0,0-.75,1.47c0,.66.5.43.83.46s.45-.29.38-.57C-2.44,2019.42-2.62,2019-2.79,2018.51Zm12.05,8.42a12.91,12.91,0,0,0,0,1.73c0,.14.35.34.54.33s.35-.28.37-.45a8.72,8.72,0,0,0,0-1.25Zm.38-6.34H10a7.52,7.52,0,0,0,.19-.92,10,10,0,0,0,0-1.34,2.94,2.94,0,0,0-.19-.64,2.81,2.81,0,0,0-.56.46.6.6,0,0,0,0,.48,1.66,1.66,0,0,1,.05,1.24C9.43,2020.07,9.58,2020.34,9.64,2020.59Zm2.43-6c-.66.15-.71.75-.93,1.19-.05.08.14.39.25.41a1.13,1.13,0,0,0,.78-.08c.13-.09.12-.45.1-.68A6.39,6.39,0,0,0,12.07,2014.54Zm-8.54,20.8a.82.82,0,0,0-.61,1.39c.1.14.43.29.48.25a1.09,1.09,0,0,0,.4-.64A3.63,3.63,0,0,0,3.53,2035.34Zm-3.68-18.61A1.72,1.72,0,0,0,.33,2019C1.12,2018,.24,2017.44-.15,2016.73Zm10.25.31c.11-1,.05-1.18-.46-1.2s-.92.37-.8.72C9,2017.15,9.58,2017.07,10.1,2017Zm11.54-12c0-.8.46-1.54,0-2.45-.3.82-.56,1.51-.82,2.2ZM1.42,2033.32c.11.1.36.43.45.39a4.17,4.17,0,0,0,.89-.64c-.23-.21-.45-.57-.71-.62S1.45,2032.74,1.42,2033.32Zm8.16-22.79,1.38-1.89c-.89.62-1.3.59-1.56-.17Zm-63.2-1.83v-.22c-.51-.47-1.08,0-1.6,0a3,3,0,0,0-1,.51l.1.16Zm13.68-32-2.12,1.22h1.83Zm50.08,59.76.18-1.43-.94.07.07,1.25Zm-8.22-6.84c-.33-.28-.57-.62-.7-.58s-.58.37-.59.57.32.47.51.7ZM3,2033.88a5.32,5.32,0,0,0-.83.6.9.9,0,0,0-.14.57c0,.09.22.27.25.25a3.13,3.13,0,0,0,.88-.63C3.28,2034.55,3.11,2034.21,3,2033.88Zm6.33-3.32,1.11.25a10.23,10.23,0,0,0-.35-1.2c-.06-.11-.29-.16-.46-.19s-.14.13-.16.22C9.45,2029.89,9.42,2030.15,9.36,2030.56ZM4.27,2037c-.26.31-.56.51-.57.73a1.48,1.48,0,0,0,.41.75.68.68,0,0,0,.42-.18C4.91,2037.85,4.47,2037.52,4.27,2037Zm-54.92-27.5.11-.13c-.11-.11-.22-.31-.34-.32a9.89,9.89,0,0,0-1.44,0c-.17,0-.33.19-.49.29l.08.16Zm42.28,7.58.16.11c.15-.16.41-.31.43-.48.09-.77.12-1.55.17-2.33l-.15,0ZM-60,2013.83l0,.17c.58.2,1.16.43,1.76.6.29.08.66.13.64-.43Zm72.42-18.74c-1,.39-1.07.46-1,1.24h.73ZM-14.5,1976.8c0,1.08.21,1.2,1.74,1Zm-6.88,3.33-1.33-1.12-.18,1.12Zm34.29,53.63v-.24l-1.73.12C11.37,2034.31,12.08,2034.31,12.91,2033.76ZM-31.89,1979l-1.22,1.1h1.44c0-.17,0-.33,0-.48A6.23,6.23,0,0,0-31.89,1979Zm41.37,58.16c-.1.8,0,.89.88.73C10.41,2037.12,10.36,2037.08,9.48,2037.19Zm.42-15.9-.22,0c-.13.23-.29.45-.39.68s.15.49.39.53.31-.26.33-.41A3.49,3.49,0,0,0,9.9,2021.29Zm-2.06-4.41-.17-1.13H7c.1.22.21.41.29.61s.11.44.16.65Zm-5.71-17a1.86,1.86,0,0,0,1.84,1ZM11.85,2014l.72-.16-.17-1.69Zm-10.79,1,.14,1.87.89-1.48C1.33,2015.86,1.28,2015.83,1.06,2015ZM1,2026.61l-.46-.6c-.1.19-.29.38-.28.57s.18.42.28.63Zm10,8.83.67.43a5.57,5.57,0,0,0,.37-.57.35.35,0,0,0,0-.33.37.37,0,0,0-.3-.11C11.46,2035,11.23,2035.24,11,2035.44ZM-.36,2022.63c0,.49,0,.88.49,1a1.19,1.19,0,0,0,.21-.51C.39,2022.6,0,2022.62-.36,2022.63Zm2.47,8.83c-.29-.23-.47-.48-.61-.46a.69.69,0,0,0-.4.46.58.58,0,0,0,.38.41C1.64,2031.87,1.82,2031.66,2.11,2031.46Zm-9.43-26.62.1-.28-2.15-1-.08.17Zm6.49-7.8c.8.81,1.37,1,2,.92Zm15.27,12.22c-.77.37-.5.93-.52,1.47C14.73,2010.43,14.21,2009.78,14.44,2009.26Zm-24.38,32.52-.85.49h2.2Zm8.28-1.39-.6-.74-.44.71C-2.3,2040.34-2,2041-1.66,2040.39Zm-4.28-23.79,1.19-.67-.47-.49Zm5.49,4.5.36.94H.07l.33-.79ZM-53,2029.72l.32.23.6-1-.21-.14Zm-.74-4-.1.23,1.37.59.1-.25ZM30,2026c-.42-.5-.82-.28-1.27-.29C29.07,2026.2,29.49,2026,30,2026Z" transform="translate(293.44 -1931.66)" style="fill:#fff"/><path d="M-83.48,2067.9H27.37c-.46,1.24-.88,2.46-1.35,3.65a49.49,49.49,0,0,1-5.74,10.4,54.85,54.85,0,0,1-3.45,4.32c-1.16,1.35-2.37,2.67-3.66,3.9A48.07,48.07,0,0,1,4.29,2097c-2,1.15-3.93,2.29-6,3.28a50.5,50.5,0,0,1-11.72,4c-1.91.39-3.83.76-5.76,1.07a23.66,23.66,0,0,1-3,.25c-3,.1-5.94.24-8.91.22a38.05,38.05,0,0,1-5.1-.46q-3-.39-6-1c-1.47-.28-2.92-.67-4.36-1.09A56.07,56.07,0,0,1-57,2099a59.57,59.57,0,0,1-7.93-5.17,51,51,0,0,1-6.7-6.17c-1.82-2-3.51-4.16-5.14-6.34a43.6,43.6,0,0,1-4.7-8.07c-.75-1.65-1.35-3.37-2-5.05A.73.73,0,0,1-83.48,2067.9Zm2.33,1.7a4.2,4.2,0,0,0,.17.5c1.13,2.28,2.19,4.6,3.42,6.82a45.91,45.91,0,0,0,6.65,9,57,57,0,0,0,6.76,6.32,55.55,55.55,0,0,0,8.12,5.31,55.61,55.61,0,0,0,9.32,3.9A61,61,0,0,0-33.6,2104c2,.18,4,.19,6.06.25.61,0,1.23-.07,1.85-.11s1.4-.05,2.09-.13c2.17-.22,4.36-.36,6.5-.75,2.44-.43,4.86-1,7.25-1.67a51.21,51.21,0,0,0,12.16-5.32,54.06,54.06,0,0,0,9.26-6.94,56.51,56.51,0,0,0,6.21-6.9,54,54,0,0,0,6.45-10.95c.27-.6.48-1.24.74-1.91Z" transform="translate(293.44 -1931.66)" style="fill:#fff"/><path d="M-27.58,2117.13l-.18-2.61c.18,0,.32-.06.45-.07.63,0,1.27-.11,1.91-.11a9.91,9.91,0,0,1,1.72.15,1.13,1.13,0,0,1,.8,1.19,1.22,1.22,0,0,1-1,1.06c-.84.11-1.69.17-2.54.25Z" transform="translate(293.44 -1931.66)" style="fill:#fff"/><path d="M42.58,2000.26c.08.93.2,1.82.23,2.71,0,2-1,2.5-2.36,2.81a8.14,8.14,0,0,1-2.26.12,1.91,1.91,0,0,1-1.77-1.59c-.25-1-.41-2-.61-3Z" transform="translate(293.44 -1931.66)" style="fill:#fff"/><path d="M1.51,1957.29l3.57-5.92c.86.64,1.73,1.21,2.53,1.88a2,2,0,0,1,.6,2.55,12,12,0,0,1-1.41,2.43,2,2,0,0,1-2.43.56A31.24,31.24,0,0,1,1.51,1957.29Z" transform="translate(293.44 -1931.66)" style="fill:#fff"/><path d="M8.78,2103.43c.9-.47,1.79-1,2.74-1.42a2.32,2.32,0,0,1,2.84.84,6.61,6.61,0,0,1,1.37,2.4,1.63,1.63,0,0,1-.37,1.7,26.21,26.21,0,0,1-2.57,2.11.4.4,0,0,1-.4-.08c-1.19-1.72-2.36-3.46-3.52-5.2A1.59,1.59,0,0,1,8.78,2103.43Z" transform="translate(293.44 -1931.66)" style="fill:#fff"/><path d="M-56.62,2060.74c-1.4,0-2.57-.2-3.25-1.38a4.17,4.17,0,0,1-.48-2.69,5.39,5.39,0,0,1,.16-.8c.45-1.55,1.46-2,2.92-2.14a5.41,5.41,0,0,1,1.83.18,2.68,2.68,0,0,1,2.13,2.58,3.89,3.89,0,0,1-1,3.51A3.21,3.21,0,0,1-56.62,2060.74Z" transform="translate(293.44 -1931.66)" style="fill:#fff"/><path d="M-47.95,2118.69c-1.94.1-4.21-1.3-4-3.25.25-2.23,1.24-4,3.32-3.89s4,1.36,4,3.23C-44.68,2117.09-46,2118.69-47.95,2118.69Z" transform="translate(293.44 -1931.66)" style="fill:#fff"/><path d="M27.92,2092.2l-2.62-4.28,4.9,1.15Z" transform="translate(293.44 -1931.66)" style="fill:#fff"/><path d="M-87.94,1985l-2.73-4,.07-.14,4.76.81Z" transform="translate(293.44 -1931.66)" style="fill:#fff"/><path d="M27.68,1977.7l-2.35-3.12,4.86-1.25Z" transform="translate(293.44 -1931.66)" style="fill:#fff"/><path d="M-36.63,2000.29c-1.89-2.46-3.75-4.87-5.65-7.36a1.75,1.75,0,0,1,.39-.19,4.24,4.24,0,0,1,.94-.11,1,1,0,0,1,.64.18c1.22,1.1,2.41,2.24,3.62,3.35,1.38,1.28,2.76,2.54,4.16,3.8a1,1,0,0,0,.61.15c1.47,0,3,0,4.42,0a2.68,2.68,0,0,1,2.14.68c.41.43.53.87,0,1.18a3,3,0,0,1-1.46.53q-11.6,0-23.17,0c-.2,0-.58-.21-.57-.31,0-.26.14-.69.3-.73.87-.2.69-.94.87-1.5.08-.25.21-.6.4-.68a.73.73,0,0,1,.93.31,2.15,2.15,0,0,0,2.08,1.13c2.21-.14,4.44-.17,6.66-.27C-38.44,2000.44-37.59,2000.36-36.63,2000.29Z" transform="translate(293.44 -1931.66)" style="fill:#fff"/><path d="M-83.71,2042.78a7.39,7.39,0,0,1,.5-.85.47.47,0,0,1,.43,0c.72.72,1.59.39,2.4.35s1.68-.21,2.53-.3,2-.21,3-.23c1.4,0,2.79,0,4.19,0a1.13,1.13,0,0,1,.64.2,1.48,1.48,0,0,0,1.76.21c.58-.46,1.06-.25,1.59,0s.84.6,1.44.35c.18-.07.48.11.71.21a3.94,3.94,0,0,0,2,.18,25.14,25.14,0,0,1,2.61,0c-.11.71-.61.65-1,.67a4.58,4.58,0,0,1-1.66-.13,6.27,6.27,0,0,0-2.11-.09h-2.55c-3.93,0-7.85-.19-11.77-.07A26.27,26.27,0,0,1-83.71,2042.78Z" transform="translate(293.44 -1931.66)" style="fill:#fff"/><path d="M-42,1993.86v.78H-69.8v-.78Z" transform="translate(293.44 -1931.66)" style="fill:#fff"/><path d="M-82.86,2037.81c.56.11,1.17-.08,1.51.75-1.35-.52-2.75-.15-4-.92a10.93,10.93,0,0,1,1.89-.48c1.06-.06,2.13,0,3.19,0l.36.06c.47.08.93.18,1.4.23a2.15,2.15,0,0,0,.84,0,10.07,10.07,0,0,1,3.74-.3c1.13.09,2.25.37,3.37.54.83.12,1.66.18,2.48.29.57.07,1.14.13,1.7.25.18,0,.31.27.46.41l-.11.22a11,11,0,0,1-2.17-.2,7,7,0,0,0-3.24,0c-.25,0-.5.09-.76.11a17.3,17.3,0,0,1-2.15.11c-1-.06-2-.23-3-.33-.42,0-.86,0-1.27,0a2.28,2.28,0,0,1-1-.43,3.08,3.08,0,0,0-2.14-.51A10.64,10.64,0,0,0-82.86,2037.81Z" transform="translate(293.44 -1931.66)" style="fill:#fff"/><path d="M-40.33,2037.74c.82,0,1.65,0,2.47,0,.27,0,.52-.24.78-.37s.29-.21.43-.2c.57,0,1.14.13,1.71.19a9.28,9.28,0,0,0,2.89.23c1.61-.38,3,.37,4.55.39,1.12,0,2.24,0,3.36-.08.57,0,1.14-.1,1.71-.16l.1.2c-.19.14-.36.38-.57.41-.84.12-1.69.21-2.55.25-1.38.07-2.77,0-4.14.15a27.23,27.23,0,0,1-4.95-.36c-1.43-.09-2.87,0-4.3,0a8.54,8.54,0,0,1-1.55-.32Z" transform="translate(293.44 -1931.66)" style="fill:#fff"/><path d="M-30.77,2020.84v.66H-45.6v-.66Z" transform="translate(293.44 -1931.66)" style="fill:#fff"/><path d="M-22.61,2006.12v-.77h11.8v.77Z" transform="translate(293.44 -1931.66)" style="fill:#fff"/><path d="M-52.62,1996.93v-.78h11.81v.78Z" transform="translate(293.44 -1931.66)" style="fill:#fff"/><path d="M-13.33,2000.71v.82h-11v-.8h11Z" transform="translate(293.44 -1931.66)" style="fill:#fff"/><path d="M-24.31,2003.71v-.65H-12v.65Z" transform="translate(293.44 -1931.66)" style="fill:#fff"/><path d="M-10.93,2039.48v.58a4.45,4.45,0,0,0-1.06-.13,17.18,17.18,0,0,1-5.3-.4,14.88,14.88,0,0,0-2.18-.39,1.34,1.34,0,0,1-.52-.26,5.94,5.94,0,0,0-1-.51c-.18-.25-.1-.45.27-.38.76.16,1.51.34,2.27.53,1,.25,2,.55,3,.74a4.58,4.58,0,0,0,1.47-.1,3,3,0,0,1,2,.2A3.33,3.33,0,0,0-10.93,2039.48Z" transform="translate(293.44 -1931.66)" style="fill:#fff"/><path d="M-33.44,2023v.78h-7.81V2023Z" transform="translate(293.44 -1931.66)" style="fill:#fff"/><path d="M-42,2026.09v-.66h9v.66Z" transform="translate(293.44 -1931.66)" style="fill:#fff"/><path d="M-54.85,1996.16v.78h-6.48v-.78Z" transform="translate(293.44 -1931.66)" style="fill:#fff"/><path d="M-39,1998.45v.7h-6.84v-.7Z" transform="translate(293.44 -1931.66)" style="fill:#fff"/><path d="M-24.24,2023v.78h-5.39V2023Z" transform="translate(293.44 -1931.66)" style="fill:#fff"/><path d="M-32,2006.13v-.77h4.77v.77Z" transform="translate(293.44 -1931.66)" style="fill:#fff"/><path d="M-24,2025.44v.66h-5.39v-.66Z" transform="translate(293.44 -1931.66)" style="fill:#fff"/><path d="M-18.91,2037.94c.81-1,1.91-.76,3.07-.62v1.22A3.92,3.92,0,0,1-18.91,2037.94Z" transform="translate(293.44 -1931.66)" style="fill:#fff"/><path d="M-80.07,2040.4a16.79,16.79,0,0,1-5.38-.44.68.68,0,0,1-.35-.42,14.24,14.24,0,0,0,3.68.16,6.7,6.7,0,0,1,1.82.21c.14,0,.25.21.38.32Z" transform="translate(293.44 -1931.66)" style="fill:#fff"/><path d="M-37.19,2027.62v.66h-4.05l0-.66Z" transform="translate(293.44 -1931.66)" style="fill:#fff"/><path d="M-56.7,2040.36c-1.94.14-3.88.28-5.83.4a3.77,3.77,0,0,1-.93-.12c-.11,0-.2-.15-.3-.23.12-.08.24-.24.35-.23.52,0,1,.12,1.55.09,1.57-.06,3.14-.18,4.71-.26a1.82,1.82,0,0,1,.54.15Z" transform="translate(293.44 -1931.66)" style="fill:#fff"/><path d="M-14.62,2038a14.61,14.61,0,0,1,2-.32,22.88,22.88,0,0,1,2.47.22c.11,0,.2.19.3.29-.11.06-.23.18-.34.18-1.36,0-2.71-.07-4.07-.13C-14.37,2038.21-14.49,2038.06-14.62,2038Z" transform="translate(293.44 -1931.66)" style="fill:#fff"/><path d="M-43.24,2023v.78H-45.7V2023Z" transform="translate(293.44 -1931.66)" style="fill:#fff"/><path d="M-7.87,1994.64v-.77H-5.5v.77Z" transform="translate(293.44 -1931.66)" style="fill:#fff"/><path d="M12.35,1985.56v-.81h2.36v.81Z" transform="translate(293.44 -1931.66)" style="fill:#fff"/><path d="M-56.87,2038.83c-1.43,0-2.82,0-4.21-.1C-60.22,2038.16-57.11,2038.25-56.87,2038.83Z" transform="translate(293.44 -1931.66)" style="fill:#fff"/><path d="M5.53,1991.56v.66H3.28v-.66Z" transform="translate(293.44 -1931.66)" style="fill:#fff"/><path d="M.5,1987.85v-.65H2.62l0,.65Z" transform="translate(293.44 -1931.66)" style="fill:#fff"/><path d="M1.72,1989.38H3.35v.65H1.72Z" transform="translate(293.44 -1931.66)" style="fill:#fff"/><path d="M-78.85,2040.06c.16,0,.33-.15.48-.12,1.49.29,1.61.35,1.79.92l-2.31-.53Z" transform="translate(293.44 -1931.66)" style="fill:#fff"/><path d="M-78.73,2036.23c-.14.1-.28.3-.4.29-.77-.1-1.54-.24-2.35-.37.19-.6.53-.21.77-.21s.62.09.93.11h1Z" transform="translate(293.44 -1931.66)" style="fill:#fff"/><path d="M-21.46,2025.44v.64H-22.6v-.64Z" transform="translate(293.44 -1931.66)" style="fill:#fff"/><path d="M-74.72,2040l2.36.29A1.85,1.85,0,0,1-74.72,2040Z" transform="translate(293.44 -1931.66)" style="fill:#fff"/><path d="M-62.25,2039.1c-.65-.06-1.19-.11-1.73-.19-.11,0-.18-.21-.27-.31a.84.84,0,0,1,.35-.13c.48.07,1,.16,1.44.26C-62.4,2038.75-62.36,2038.9-62.25,2039.1Z" transform="translate(293.44 -1931.66)" style="fill:#fff"/><path d="M-82.69,2036.14a4,4,0,0,1-2.48-.34c.19-.16.19-.16,1.22,0l1.27.19Z" transform="translate(293.44 -1931.66)" style="fill:#fff"/><path d="M-.56,2085.85a6.64,6.64,0,0,0,6.48-2,16.6,16.6,0,0,1-1.08,1.39,11.49,11.49,0,0,1-3,2.54,7.41,7.41,0,0,1-4.82.84,1.25,1.25,0,0,0-1.21.34,9.58,9.58,0,0,1-.91.78,7.66,7.66,0,0,0,4.52.07c1.42-.49,2.84-1,4.34-1.43-.75.59-1.47,1.21-2.24,1.77a10.74,10.74,0,0,1-4.18,2,12.55,12.55,0,0,1-5,0,.76.76,0,0,0-.58.08,14.63,14.63,0,0,1-3.24,2.29c-.08,0-.13.13-.22.24,3.32,1.37,6.2,0,9.08-1.31l.1.15c-.76.61-1.49,1.26-2.29,1.83a9.76,9.76,0,0,1-4.42,2,18.7,18.7,0,0,1-3.51.08,22.36,22.36,0,0,1-2.55-.46,1.33,1.33,0,0,0-.66,0c-1,.42-2,.87-3.07,1.34a5,5,0,0,0,2.92.92c1-.06,1.92-.12,2.88-.11a13.67,13.67,0,0,1,1.63.21l-4.29,1.28a6.62,6.62,0,0,1-3.13,0c-1.41-.28-2.82-.54-4.24-.8a.61.61,0,0,0-.3,0l-2.42.8,4.44,2.22-.07.24a7.21,7.21,0,0,0-1,0,5.63,5.63,0,0,1-3.34-.7,13.24,13.24,0,0,0-1.93-.74,1.81,1.81,0,0,0-1.08,0c-1.06.37-2.08.84-3.13,1.24a2.31,2.31,0,0,1-.86.17,9.63,9.63,0,0,1-2.13-.29l4.23-2.13a11.28,11.28,0,0,0-2.31-.79,6.57,6.57,0,0,0-1.83.38c-1.24.23-2.48.53-3.73.64a11.4,11.4,0,0,1-4.22-.86c-.69-.22-1.39-.4-2.18-.61a5.43,5.43,0,0,1,1.09-.19c1.26,0,2.52.1,3.79.1a4.92,4.92,0,0,0,2.63-1c-1.15-.49-2.2-1-3.3-1.38-.36-.12-.85.12-1.26.23a10.73,10.73,0,0,1-9.71-1.86,25.32,25.32,0,0,1-2.18-1.82c1.5.53,3,1.13,4.51,1.57a6.57,6.57,0,0,0,4.57-.34c-1.11-.84-2.26-1.72-3.44-2.58a.92.92,0,0,0-.6-.07c-1,.06-1.94.22-2.91.22a10.47,10.47,0,0,1-6.1-2.18,17.69,17.69,0,0,1-2.23-1.91c1.4.52,2.79,1.11,4.22,1.53a7.09,7.09,0,0,0,4.48-.13,2.57,2.57,0,0,0-2.57-1,7.15,7.15,0,0,1-2.8-.35,6.8,6.8,0,0,1-3.25-1.87,24,24,0,0,1-2.27-2.62c1.72,2.06,4,2.33,6.5,2.06-.43-.52-.83-1-1.26-1.52a.55.55,0,0,0-.39-.11,8.53,8.53,0,0,1-5.54-2.1,23,23,0,0,1-2-2.16,1.89,1.89,0,0,1-.3-.91c1.75,1.13,3.3,2.61,5.65,2.36-.35-.42-.66-.81-1-1.17a.5.5,0,0,0-.37-.13c-2.58.22-4.16-1.25-5.5-3.2-.76-1.1-1.61-2.15-2.48-3.3l.77.44a11.41,11.41,0,0,1,2.87,2.37,6,6,0,0,0,2.65,1.73c-1.89-2.33-3.9-4.57-4.27-7.77l5,6.29.15,0a11.22,11.22,0,0,0-.16-1.42A4.17,4.17,0,0,1-61,2071.4a3.16,3.16,0,0,0-.08.74,13.61,13.61,0,0,0,.42,2.8,15.81,15.81,0,0,1,.76,4.06c.06.79.72,1.11,1,1.68a5.66,5.66,0,0,0,.67.77,30.28,30.28,0,0,0,0-3.45,24.21,24.21,0,0,0-.79-3.18,5.7,5.7,0,0,1,2.4,4.51c.1,1.39.31,2.76.48,4.14a.86.86,0,0,0,.19.48c.53.57,1.08,1.12,1.63,1.67l.22-.08a27.89,27.89,0,0,0-.56-2.92,8.07,8.07,0,0,1,.14-4.57c0-.06.1-.11.17-.18a12.1,12.1,0,0,0,1.18,4.46A9.67,9.67,0,0,1-52,2086.1a.75.75,0,0,1,0,.3c-.47,1.09.26,1.62,1,2.17.41.3.81.62,1.3,1-.05-3.12-1.33-5.79-2.08-8.61l1.56,2.4c.73,1.12,1.44,2.26,2.18,3.38a7.42,7.42,0,0,1,1.25,4.08,1.6,1.6,0,0,0,.8,1.46l3.86,2.41a22.39,22.39,0,0,0-1.08-2.36,13.11,13.11,0,0,1-1.66-3.84,6.14,6.14,0,0,1,.11-3.17c.2.64.35,1.17.52,1.7A10.42,10.42,0,0,0-42,2090.8c.5.57,1,1.11,1.54,1.68a6.55,6.55,0,0,1,1.34,3.06,1.45,1.45,0,0,0,1,1.19c.66.24,1.31.53,2.12.87a14.47,14.47,0,0,0-1.19-3.77c-.58-1.16-1.35-2.21-2.06-3.36.31.24.61.45.88.68a24.4,24.4,0,0,1,4.79,5,16,16,0,0,1,1,2.4c1.11.38,2.44.87,3.79,1.27a2.24,2.24,0,0,0,1.16-.12c1.12-.35,2.24-.74,3.35-1.15.2-.07.49-.3.5-.47a4.52,4.52,0,0,1,1.14-2.56,27.78,27.78,0,0,1,2.57-2.85,28.82,28.82,0,0,1,2.73-2.27,15.84,15.84,0,0,0-3.24,7.08c.93-.39,1.84-.75,2.71-1.16.15-.07.24-.36.28-.56a8.61,8.61,0,0,1,2.67-4.8,9.69,9.69,0,0,0,2.92-5.12,3.33,3.33,0,0,1,.21-.53,5.5,5.5,0,0,1,.21,2.59c-.27,2-1.44,3.65-2.29,5.43-.18.36-.32.75-.54,1.27,1.55-1,3-1.92,4.37-2.85.12-.08.17-.33.2-.51a18.17,18.17,0,0,1,.64-3.17A21.77,21.77,0,0,1-7.35,2085c.79-1.3,1.61-2.58,2.42-3.87,0,0,.09-.07.23-.18-.82,2.9-2.13,5.57-2.13,8.62l1.74-1.4a4.18,4.18,0,0,0,.5-.43c.1-.12.24-.32.2-.44-.44-1.64.16-3.1.78-4.54.68-1.6,1.45-3.16,1.29-5l.17,0a15.12,15.12,0,0,1,.43,1.6,8.4,8.4,0,0,1-.31,3.62,17.18,17.18,0,0,0-.37,2.49l.19.06a17.33,17.33,0,0,0,1.58-1.63,2.81,2.81,0,0,0,.36-1.28c.11-.91.21-1.82.25-2.73a6.11,6.11,0,0,1,2.58-5.19,10.75,10.75,0,0,0-.8,6.53c.36-.41.75-.83,1.11-1.27a2.32,2.32,0,0,0,.53-1.34,24.94,24.94,0,0,1,.53-3.09c.18-.88.48-1.75.63-2.64a5.83,5.83,0,0,0-.09-1.42,3.88,3.88,0,0,1,1.15,3.35c-.14.6-.18,1.21-.26,1.81l.17.07,5.11-6.34c-.43,3.36-2.53,5.58-4.46,7.89l.1.15c.71-.47,1.45-.9,2.11-1.43,1-.85,2-1.78,3-2.65a9,9,0,0,1,1.17-.67,1.62,1.62,0,0,1-.15.35c-1,1.3-2,2.63-3,3.89s-2.47,2.44-4.33,2.33c-1-.07-1.24.68-1.86,1.19,2.41.38,3.91-1.25,5.63-2.33a2.38,2.38,0,0,1-.81,1.74,10.08,10.08,0,0,1-5.9,3.41.76.76,0,0,1-.3,0C.48,2083.89.13,2085.11-.56,2085.85Z" transform="translate(293.44 -1931.66)" style="fill:#fff"/><path d="M-25.53,2088.47c-.21,1-.37,2-.63,2.9a7.11,7.11,0,0,1-1.36,2.87A1.56,1.56,0,0,1-30,2094a11.34,11.34,0,0,1-1.56-4.12c-.1-.43-.19-.88-.28-1.32-1,.3-2,.61-3,.86a6.71,6.71,0,0,1-3,.21,1.46,1.46,0,0,1-1.07-2.09,10,10,0,0,1,2.74-3.56c.36-.34.76-.62,1.18-1a12.29,12.29,0,0,1-3.49-3.73,5,5,0,0,1-.5-1.54c-.14-.67.33-1,.86-1.18a4.77,4.77,0,0,1,2.75-.06c1.16.26,2.31.62,3.39.92.39-1.32.76-2.71,1.23-4.06a5.17,5.17,0,0,1,.9-1.51c.76-.92,1.84-.78,2.57.3a10.06,10.06,0,0,1,1.35,3.45c.11.52.17,1,.25,1.58,0,.32.2.4.5.27a15.78,15.78,0,0,1,4.39-1.14c.91-.11,2.13.29,2.32.93a2.11,2.11,0,0,1,0,1.36,9.21,9.21,0,0,1-2.75,3.53c-.34.28-.66.58-1,.89.73.69,1.49,1.34,2.15,2.07a7.83,7.83,0,0,1,1.43,2c.74,1.63.25,2.61-1.62,2.68a11.25,11.25,0,0,1-3.93-.8C-24.65,2088.82-25.06,2088.65-25.53,2088.47Zm.07-10.39c.06.68.08,1.22.17,1.74a2.61,2.61,0,0,0,.39,1.33,16.39,16.39,0,0,0,2,1.52c.53-.44,1.05-.91,1.6-1.33a7.25,7.25,0,0,0,2.28-2.92.91.91,0,0,0-.63-1.34,3.74,3.74,0,0,0-1.59-.1C-22.64,2077.29-24,2077.71-25.46,2078.08Zm-5.79,10.24c0,.32.08.65.14,1a10.68,10.68,0,0,0,1.37,4.06c.72,1.1,1.43,1.11,2.14,0,1-1.54,1.1-3.33,1.47-5-.76-.35-1.46-.71-2.18-1a1.14,1.14,0,0,0-.79,0C-29.81,2087.57-30.49,2087.94-31.25,2088.32Zm10.4.84c1.88,0,2.32-.66,1.55-2a12,12,0,0,0-3.42-3.54.56.56,0,0,0-.51.07c-.59.4-1.16.83-1.72,1.27a.78.78,0,0,0-.22.43c-.1.71-.19,1.42-.23,2.13a.57.57,0,0,0,.26.45A14,14,0,0,0-20.85,2089.16Zm-15.87,0a14.14,14.14,0,0,0,4.55-1.18.69.69,0,0,0,.19-.54c-.05-.63-.18-1.25-.21-1.88a.84.84,0,0,0-.46-.81c-.54-.33-1-.77-1.54-1.12a.53.53,0,0,0-.49,0c-.39.29-.72.63-1.1.93a8.63,8.63,0,0,0-2.39,2.78c-.5,1-.07,1.72,1,1.83A3.08,3.08,0,0,0-36.72,2089.16Zm0-12.21a4,4,0,0,0-.49,0c-.79.08-1.34.6-1.19,1.18a4.38,4.38,0,0,0,.46,1.07,12.68,12.68,0,0,0,3.19,3.26.49.49,0,0,0,.44,0c.53-.34,1-.73,1.57-1.06a.85.85,0,0,0,.51-.79c0-.58.18-1.17.21-1.76,0-.25-.1-.66-.27-.73A12.84,12.84,0,0,0-36.67,2077Zm10.57.66c-.11-.57-.17-1-.3-1.46a31.56,31.56,0,0,0-1.1-3.28c-.39-.91-1.35-1.18-1.86-.61a3.32,3.32,0,0,0-.76,1.18c-.41,1.31-.75,2.64-1.08,4a.58.58,0,0,0,.26.49c.65.33,1.32.62,2,.9a.94.94,0,0,0,.62,0c.63-.23,1.25-.5,1.85-.79C-26.31,2077.93-26.2,2077.72-26.1,2077.61Zm.31,5.45a8.85,8.85,0,0,1,0-1,.81.81,0,0,0-.48-.91c-.73-.41-1.42-.86-2.14-1.26a.59.59,0,0,0-.52,0c-.79.41-1.57.83-2.32,1.3a1,1,0,0,0-.34.65c0,.71,0,1.42,0,2.11a1.19,1.19,0,0,0,.7,1.24,7.74,7.74,0,0,1,1,.55c.88.78,1.66.53,2.56,0C-25.82,2084.71-25.79,2084.76-25.79,2083.06ZM-28,2086.8l2,.88.25-2.17Zm-4.18-2.52v-2.5l-1.77,1.28Zm8.79-1.27-1.71-1.22v2.5Zm-5.94-3.7-2-.88-.27,2.16Zm-2,8.32,1.9-.86-2.18-1.26Zm5.48-7.12-.17-2.11-1.91,1Z" transform="translate(293.44 -1931.66)" style="fill:#fff"/><path d="M-28.67,2084.57a1.48,1.48,0,0,1-1.59-1.59,1.53,1.53,0,0,1,1.57-1.56,1.5,1.5,0,0,1,1.57,1.61A1.41,1.41,0,0,1-28.67,2084.57Z" transform="translate(293.44 -1931.66)" style="fill:#fff"/></svg>