<svg id="Layer_1" data-name="Layer 1" xmlns="http://www.w3.org/2000/svg" viewBox="0 0 900 200"><defs><style>.cls-1{fill:#fff;}</style></defs><g id="layer1"><g id="g74"><g id="g76"><g id="g82"><path id="path84" class="cls-1" d="M800.47,111a13.4,13.4,0,0,1,1.12-5.24,15.7,15.7,0,0,1,3.27-4.9,17,17,0,0,1,5.42-3.69,18.21,18.21,0,0,1,7.56-1.47,17.15,17.15,0,0,1,7.39,1.47,16.52,16.52,0,0,1,5.15,3.69,15.11,15.11,0,0,1,3.09,4.9,14.4,14.4,0,0,1,1,5.24ZM846,135.44a54,54,0,0,1-8.77,4.9c-4,1.89-9.22,2.84-15.64,2.84s-11.67-1.64-15.39-4.91-5.65-7.07-5.76-11.42h57.41v-4.13a64,64,0,0,0-2.58-18.65,41.33,41.33,0,0,0-7.64-14.61,35.41,35.41,0,0,0-12.47-9.53A40.19,40.19,0,0,0,818,76.49,41.88,41.88,0,0,0,800.47,80a39.91,39.91,0,0,0-13.06,9.36A40.68,40.68,0,0,0,779.25,103a47.33,47.33,0,0,0-2.84,16.24,49.56,49.56,0,0,0,3,17.62,37.39,37.39,0,0,0,8.77,13.66,40.36,40.36,0,0,0,14,8.86,51.34,51.34,0,0,0,18.57,3.18,58.64,58.64,0,0,0,13.74-1.47,65.19,65.19,0,0,0,10.41-3.35,38,38,0,0,0,7.12-3.86c1.84-1.32,3.21-2.27,4.13-2.84Zm-273.95,2.92a32.44,32.44,0,0,1-5.15,3,15.28,15.28,0,0,1-6.53,1.29c-3.33,0-5.76-1.06-7.31-3.19s-2.32-5.12-2.32-9V98.66h20.8V79.23h-20.8V57.63H526v21.6H513.26V98.66H526v30.42a56.82,56.82,0,0,0,1.55,13.75,26.35,26.35,0,0,0,5.16,10.57,24.43,24.43,0,0,0,9.44,6.88,37.15,37.15,0,0,0,14.45,2.49q13.74,0,25.44-9.28ZM786.35,50.54A32.31,32.31,0,0,0,774.15,44a48.68,48.68,0,0,0-13.24-1.89,38,38,0,0,0-12.11,2,30.87,30.87,0,0,0-10.58,6,29.69,29.69,0,0,0-7.47,10.22,35.27,35.27,0,0,0-2.84,14.78v4.12H714.85V98.66h13.06v61.19h24.57V98.66h19.09V79.23H752.48V74.77q0-6,3.1-9.28a10.85,10.85,0,0,1,8.25-3.27,19.89,19.89,0,0,1,6.36,1,20.58,20.58,0,0,1,5.67,2.92ZM677.58,159.85h24.74V79.23H677.58Zm-86.26,0h75.4V138.62H617.27V45.21H591.32ZM449.94,111a13.56,13.56,0,0,1,1.11-5.24,16.05,16.05,0,0,1,3.27-4.9,17.19,17.19,0,0,1,5.41-3.69,18.28,18.28,0,0,1,7.56-1.47,17,17,0,0,1,7.39,1.47,16.46,16.46,0,0,1,5.16,3.69,15.32,15.32,0,0,1,3.1,4.9,14.61,14.61,0,0,1,1,5.24Zm45.55,24.41a53.58,53.58,0,0,1-8.77,4.9q-6,2.83-15.64,2.84-9.81,0-15.38-4.91t-5.76-11.42h57.4v-4.13a64.38,64.38,0,0,0-2.57-18.65,41.37,41.37,0,0,0-7.66-14.61,35.29,35.29,0,0,0-12.46-9.53,40.19,40.19,0,0,0-17.18-3.44A41.8,41.8,0,0,0,449.94,80a39.74,39.74,0,0,0-13.07,9.36A40.68,40.68,0,0,0,428.71,103a47.32,47.32,0,0,0-2.83,16.24,49.34,49.34,0,0,0,3,17.62,37.11,37.11,0,0,0,8.76,13.66,40.45,40.45,0,0,0,14,8.86,51.3,51.3,0,0,0,18.57,3.18A58.67,58.67,0,0,0,484,161.13a65.05,65.05,0,0,0,10.4-3.35,38.15,38.15,0,0,0,7.13-3.86q2.75-2,4.13-2.84ZM296.28,159.85H321L324,85.42,349,129.6h13.41l23.72-44.69,3.26,74.94h26L410.06,45.21H385.3L356.09,99,326.18,45.21H301.6ZM690,70a14,14,0,0,1,0-27.91,13.79,13.79,0,0,1,13.95,14A14,14,0,0,1,690,70"/></g><g id="g86"><path id="path88" class="cls-1" d="M143.7,70.45a153.22,153.22,0,0,1,31,92.69,154.72,154.72,0,0,1-2,24.69h56.36a8.89,8.89,0,0,0,8.88-8.9V23.09a8.86,8.86,0,0,0-11.07-8.62,153.51,153.51,0,0,0-83.22,56"/></g><g id="g90"><path id="path92" class="cls-1" d="M114.66,187.82a155.48,155.48,0,0,1-2-24.68,153.35,153.35,0,0,1,31-92.7,153.52,153.52,0,0,0-83.21-56,8.86,8.86,0,0,0-11.07,8.62V178.93a8.89,8.89,0,0,0,8.88,8.89Z"/></g></g></g></g></svg>