<svg xmlns="http://www.w3.org/2000/svg" viewBox="0 0 718.1 176.77"><g id="Layer_2" data-name="Layer 2"><g id="Layer_1-2" data-name="Layer 1"><path d="M3.31,176.63c-2.92.57-3.82-.69-3-3.42C3.66,161.11,7,149,10.45,136.87a129.54,129.54,0,0,1,4.09-12.36c1.28-3.24.84-6.33,0-9.5-1.95-7.93-3.08-16-4.36-24.05a6.39,6.39,0,0,1,1.16-4.9C20,73.35,29.19,61.13,38.92,49.26a10.18,10.18,0,0,1,6-3.66c12.79-2.83,25.58-5.38,38.49-7,1.16-.14,2.6-1,3.3.21.56,1-.85,1.86-1.51,2.63a433,433,0,0,0-58.41,87.43,411.32,411.32,0,0,0-19.61,45.1C6.44,176,5.56,177.2,3.31,176.63Z" style="fill:#fff"/><path d="M99.45,49.36v-14c-.07-3.49-1.46-4.6-5-4.17-14.37,1.75-28.65,4-42.8,7.06-.64.14-1.39.43-1.76-.28-.5-1,.3-1.66.87-2.26C54.34,31.85,57.9,28,61.55,24.27,66.27,19.44,71.33,15,75.8,9.86c4.82-5.49,11.29-7,17.86-8.5,7.42-1.72,15-1.53,22.44-.94C123,1,127.94,5.48,129.83,12.05a62.08,62.08,0,0,1,1.88,26.45,12.25,12.25,0,0,1-2.7,6.41,408.56,408.56,0,0,0-25.47,32.73c-.43.63-.81,1.41-1.74,1.16-1.17-.27-.82-1.3-.9-2.14C99.88,67.12,99.82,57.42,99.45,49.36Z" style="fill:#fff"/><path d="M95.81,85.54c.73,2-.46,4.23-1.82,6.39-6.64,10.61-13,21.4-18.85,32.43A5.32,5.32,0,0,1,71.66,127a411.61,411.61,0,0,0-40,13.95c-1,.42-2.23,1.65-3.24.53s.57-1.9,1-2.81A401.09,401.09,0,0,1,61.84,82.56,446.41,446.41,0,0,1,90.45,45.35c.58-.69,1-2,2.23-1.39.87.4.72,1.39.73,2.32C93.58,59.11,94.68,72,95.81,85.54Z" style="fill:#fff"/><path d="M290.52,87.87c0-15.11.08-30.23-.06-45.41,0-3,.91-3.67,3.78-3.49,6.72.4,6.75.24,6.73,7.17q0,13.55-.14,27.12c0,.63-.34,1.35.36,1.75.91.53,1.33-.24,1.86-.8,8.2-8.49,24.65-7.82,32.8-.17,5.48,5.14,7.24,12,7.93,19.18.83,8.48.93,17-1,25.33s-6.06,15.3-15,17.65-17.71,2.09-24.88-5.08c-.45-.46-.81-1.16-1.55-.91-.93.39-.52,1.29-.5,2,.16,4.34.16,4.34-4.29,4.34-6,0-6,0-6-5.82ZM334.26,103c0-5.57-.3-11.08-2.32-16.36q-3.4-8.92-13.57-9.3c-7.5-.25-12.71,2.39-15,8.59a49.71,49.71,0,0,0-.25,33.22c2.23,6.77,7.59,9.44,15.88,9.21,6.12-.17,11-3.84,13.13-10A44.84,44.84,0,0,0,334.24,103Z" style="fill:#fff"/><path d="M708.31,129.86c-1.72.34-2.33,1.82-3.38,2.63-7.79,5.81-16.27,6.22-25.12,3.16S667.7,125.39,666,117a73.72,73.72,0,0,1,0-28.85c3.2-16.28,15.12-21.54,29.07-19.41a18.56,18.56,0,0,1,11.07,5.82c.45.47,1,1.16,1.64.84,1-.37.42-1.25.42-2,0-10.55.08-21.1,0-31.65,0-2.09.62-2.81,2.84-2.77,7,.15,7,0,7,7q0,43.49.08,87c0,3.12-1,4.07-3.82,3.61H714c-5.39,0-5.39,0-5.6-5.44A10.79,10.79,0,0,0,708.31,129.86Zm-.22-22.29c.17-7,.39-13.64-1.73-20.08S699.27,77.4,692,77.32c-7.79-.09-12.94,3.21-15.12,10a51.67,51.67,0,0,0-1.69,22.28c.57,4.65.77,9.3,3.93,13.28,5.53,7.07,18.09,7.68,24,.92C707.32,119,707.8,113.12,708.09,107.57Z" style="fill:#fff"/><path d="M461.45,87.82V42.39c0-2.59.42-3.64,3.38-3.43,7,.45,7,.27,7,7.16q0,13.4-.08,26.74c0,.64-.36,1.41.27,1.82.82.5,1.4-.22,2-.69,8.27-6.52,17.34-7.62,27-3.76,9.2,3.67,13.28,11.2,13.62,20.47.51,14.35.23,28.71.38,43,0,2.22-.82,2.75-2.88,2.77-7.57.11-7.57.16-7.57-7.41v-35c0-8.54-3.49-14.19-10.58-16.13-11.07-3-21.44,2.33-21.82,13.74-.44,13.82-.31,27.67-.22,41.49,0,2.46-.48,3.27-3,3.28-7.38,0-7.38.13-7.38-7.27Z" style="fill:#fff"/><path d="M652.49,102.9c.1,6.8-.63,13.4-3.49,19.76-5.81,13-20.77,17.45-33.15,13.44-10.73-3.49-16.21-11.49-17.87-22.38a63.36,63.36,0,0,1,1.16-26.85c3.61-12.79,17.64-21.07,30.67-18.23,16.5,3.59,21.76,15.25,22.62,30.06C652.56,100,652.49,101.49,652.49,102.9Zm-45,.14a43.37,43.37,0,0,0,1.17,12.79,16.18,16.18,0,0,0,14.89,12.51c8.14.38,15-3.79,17-11a55.09,55.09,0,0,0,.06-29,15.28,15.28,0,0,0-14-11c-7.89-.48-14,2.84-16.86,9.22C607.49,91.8,607.34,97.36,607.5,103Z" style="fill:#fff"/><path d="M529.62,104.13c.19-7.86.45-15.79,4.52-23,5.41-9.57,17.79-14.77,28.57-12.49,14.07,3,21.24,13.77,21.93,27.09.39,7.29.69,14.55-1.22,21.72-3.76,14.19-16.65,22.29-31.24,19.56-13.12-2.46-20.93-11.93-22.2-26.89C529.82,108.15,529.75,106.19,529.62,104.13ZM575,102.27a45.77,45.77,0,0,0-1.24-12.34,16.19,16.19,0,0,0-16.1-12.64c-7.73-.13-14.15,4.39-16.08,11.69a54,54,0,0,0,0,28,15.88,15.88,0,0,0,14.08,11.41c7.92.47,14.32-3.17,17-9.5,2.15-5.16,2.38-10.55,2.35-16.62Z" style="fill:#fff"/><path d="M222.09,103.11c-.14-8,.47-15.92,5-22.89,5.91-9.1,14.7-12.89,25.16-11.92,11.52,1.09,20,7.21,23.09,18.61s3.35,23.09-.95,34.31c-4.66,12.06-17.63,18.44-30.36,15.65-14.9-3.25-20.63-14.14-21.9-27.9A57.29,57.29,0,0,1,222.09,103.11Zm10-.13c.2,4.65.28,9.44,1.78,14.09a16.2,16.2,0,0,0,14.77,11.32c8.33.17,14.5-3.66,16.73-10.79,2.75-8.82,2.49-17.78.87-26.75-1.28-7.08-7.2-12.79-14.08-13.37-8.84-.72-15.47,3.25-18.13,10.67C232.31,92.91,232.38,97.91,232.11,103Z" style="fill:#fff"/><path d="M389.48,102.75c0-10.13.11-20.27-.06-30.4,0-2.7.86-3.49,3.36-3.21a15.1,15.1,0,0,0,2.33,0c4.41,0,4.43,0,4.65,4.52,0,.57,0,1.17.64,1.33s1.16-.41,1.62-.8c8.23-6.57,17.33-7.68,27-3.91,9,3.49,13.31,10.94,13.65,20.09.52,14.48.14,29,.22,43.47,0,2-.64,2.66-2.63,2.63-9.36-.2-7.44,1.16-7.52-7.2-.13-11.44,0-22.88,0-34.33,0-5.38-1-10.46-5.49-14.09-5.47-4.43-11.63-4.65-17.87-2.32-5.82,2.19-9,7-9.11,13.11-.28,13.72-.28,27.44-.16,41.16,0,3-.87,3.71-3.7,3.66-6.85-.16-6.85,0-6.85-7Z" style="fill:#fff"/><path d="M172.53,102.91c0-10.28.06-20.57,0-30.86,0-2.26.6-3.28,3-2.93a22.17,22.17,0,0,0,3.26,0c4.33,0,4.33,0,4.07,4.42,0,.65-.19,1.43.48,1.74s1.33-.36,1.9-.87a23.93,23.93,0,0,1,30.6-1.61c1.64,1.17,2.11,2.12.37,3.49l-.24.21c-1.57,1.66-2.86,3.93-4.78,4.82-2.33,1.16-3.63-2.09-5.71-2.86-9.74-3.69-20.84,1.16-21.91,12.43-.82,8.75-.29,17.64-.33,26.45,0,5.35-.07,10.69,0,16,0,2.21-.72,3.11-3,3.19-7.61.29-7.6.35-7.59-7.37V102.87Z" style="fill:#fff"/><path d="M360,102.85c0-10.24.07-20.49,0-30.74,0-2.25.47-3.06,2.88-3,7.47.13,7.46,0,7.48,7.53q0,28.61.15,57.23c0,2-.65,2.66-2.6,2.74-7.85.34-7.85.39-7.85-7.55Z" style="fill:#fff"/><path d="M56.28,139.42c-2.18,2.85-2.4,7.05-6.19,8.84-9.21,4.35-18.55,8.44-27.46,13.39-.72.41-1.62,1-2.32.13-.54-.66-.13-1.44.38-2.07.07-.08.19-.15.2-.24,1.48-8.64,7.74-11.87,15.24-14.34,5.95-2,11.81-4.28,17.75-6.31C54.7,138.53,55.63,137.84,56.28,139.42Z" style="fill:#fff"/><rect x="359.47" y="38.72" width="11.55" height="11.55" rx="3.59" style="fill:#fff"/></g></g></svg>