<svg id="Layer_1" data-name="Layer 1" xmlns="http://www.w3.org/2000/svg" viewBox="0 0 625.68 91.08"><path d="M594,1220.26c.56-2.39,1.14-4.77,1.67-7.16.68-3.11,1.32-6.22,2-9.3,3.11,1.16,6.1,2.38,9.16,3.39a45.4,45.4,0,0,0,18.07,2.29,14.29,14.29,0,0,0,7.34-2.26c4-2.86,3.93-8.78-.48-11-3.76-1.85-7.86-3-11.82-4.51-4.37-1.62-8.9-2.91-13.1-4.9-8-3.76-12-10.3-12.48-19.07-.66-11.53,5.7-20.89,17.19-25.08a47.91,47.91,0,0,1,18.4-2.52,69.61,69.61,0,0,1,21.24,4.5c.22.08.43.2.77.35l-3.69,17.22c-2.61-.84-5.11-1.72-7.65-2.44-6.41-1.82-12.91-2.67-19.55-1.55a13.76,13.76,0,0,0-2.76.76,6.61,6.61,0,0,0-4.36,7.83,5.17,5.17,0,0,0,3.26,4c3,1.27,6.18,2.33,9.3,3.42,4.89,1.71,9.92,3.1,14.67,5.13,6,2.54,10.48,6.78,12.45,13.14,3.4,11-.08,23.74-12.26,30.11a40.62,40.62,0,0,1-18.27,4.23,72.38,72.38,0,0,1-28-5.29c-.37-.15-.75-.27-1.12-.4Z" transform="translate(-594 -1136)" style="fill:#fff"/><path d="M855.12,1136v28.81c2.72-.63,5.37-1.38,8.07-1.85a35.92,35.92,0,0,1,17,.69c7.29,2.25,11.05,7.53,12.36,14.73a42.78,42.78,0,0,1,.7,7.49c0,12.88,0,25.77-.05,38.65,0,.32,0,.63-.06,1H875v-1.45q0-18.3,0-36.62a17.53,17.53,0,0,0-.19-2.5c-.53-3.63-2.35-5.42-6-5.85a26.71,26.71,0,0,0-13.12,2.09,1.24,1.24,0,0,0-.55.75,3.34,3.34,0,0,0,0,1q0,20.64,0,41.29v1.36H836.92v-88c0-.51,0-1,0-1.55Z" transform="translate(-594 -1136)" style="fill:#fff"/><path d="M1219.68,1184.59l-.36,1.5-30.53-19.55c1.69-.68,3.46-1.52,5.31-2.12a22.1,22.1,0,0,1,13.9-.21c6.59,2.12,9.94,7,11.19,13.52.18.93.33,1.86.49,2.79Z" transform="translate(-594 -1136)" style="fill:#fff"/><path d="M894.1,1164a8.09,8.09,0,0,1,.82-.09c5.67,0,11.35,0,17,0,.87,0,1.06.42,1.25,1.08q4.65,16.14,9.33,32.25c.11.38.23.76.41,1.39.32-.83.57-1.44.79-2.07q5.55-15.84,11.09-31.68c.22-.64.48-1,1.24-1,4.44,0,8.88.05,13.32,0,.94,0,1.09.5,1.31,1.18q5.23,16.2,10.48,32.39l.56,1.66c1-3.25,1.93-6.15,2.83-9q3.95-12.6,7.87-25.21c.21-.65.43-1,1.21-1,5.84,0,11.68,0,17.52,0,.23,0,.45,0,.83.07-.68,1.9-1.32,3.68-2,5.47q-9.78,27.52-19.53,55.06a1.48,1.48,0,0,1-1.7,1.18c-4.52-.05-9-.06-13.56,0a1.72,1.72,0,0,1-2-1.41c-3.55-10.77-7.18-21.52-10.79-32.28-.08-.27-.19-.52-.39-1-.24.57-.4.94-.53,1.32q-5.73,16.15-11.44,32.32a1.36,1.36,0,0,1-1.52,1.09q-7.08-.06-14.16,0a1.1,1.1,0,0,1-1.26-.91q-9.4-30-18.87-60.07C894.21,1164.5,894.18,1164.3,894.1,1164Z" transform="translate(-594 -1136)" style="fill:#fff"/><path d="M1045.34,1221.4c-9.51,4.2-19.15,6.47-29.36,5.3-10.8-1.25-19.3-6-24-16.27a36.08,36.08,0,0,1-2.86-16.93c.33-6.9,2-13.39,6.09-19.09,5.19-7.27,12.42-11,21.19-12.07a32.51,32.51,0,0,1,14.56,1.32c8.69,3,13.84,9.23,16.33,17.86a39.19,39.19,0,0,1,1.15,14.46c-.13,1.47-.25,2.93-.38,4.53h-39.48c-.09,4,2.74,7.81,6.87,9.46a24.8,24.8,0,0,0,11.33,1.32,45,45,0,0,0,14.39-3.86l1.47-.61C1043.58,1211.73,1044.46,1216.56,1045.34,1221.4ZM1030,1187a9.61,9.61,0,0,0-9.18-10.21c-6.49-.4-11.57,3.9-12,10.21Z" transform="translate(-594 -1136)" style="fill:#fff"/><path d="M723.26,1193.67c-.13,9.79-2.79,17.82-9.32,24.27a31,31,0,0,1-19.46,8.79,33.13,33.13,0,0,1-21.56-4.86c-8.07-5.14-12.53-12.66-13.88-22-1.1-7.62-.22-15,3.53-21.8,5.1-9.28,13.21-14.28,23.58-15.68a33.49,33.49,0,0,1,21.23,3.72c9.07,5,14,12.89,15.49,23C723.13,1190.86,723.18,1192.66,723.26,1193.67Zm-46.1,1.14-.32.08a49.32,49.32,0,0,0,1.71,6.77c3.73,9.26,16.77,11.08,22.86,3.25,2.71-3.49,3.36-7.57,3.18-11.85-.34-8.24-5-13.36-13-13.86-5.77-.36-10.79,2.31-13.12,7.9A18.63,18.63,0,0,0,677.16,1194.81Z" transform="translate(-594 -1136)" style="fill:#fff"/><path d="M727.92,1164h18v1.46q0,17.65,0,35.31a22.74,22.74,0,0,0,.39,4,5.45,5.45,0,0,0,4.26,4.68,36.29,36.29,0,0,0,7.34.83c2.3,0,4.6-.47,6.91-.67,1-.08,1.18-.52,1.18-1.44q0-19.4,0-38.78V1164h18v59c-3.1.69-6.19,1.44-9.31,2.06a92.92,92.92,0,0,1-19.54,1.87,42.75,42.75,0,0,1-13.56-2.06c-8.1-2.81-12.38-8.65-13.43-17a41.73,41.73,0,0,1-.3-5.37q0-18.6,0-37.21Z" transform="translate(-594 -1136)" style="fill:#fff"/><path d="M1097.84,1164.65c-1,5.28-1.9,10.29-2.83,15.31-2.87-.67-5.64-1.41-8.46-1.93-3.81-.71-7.67-1.26-11.55-.58a8.58,8.58,0,0,0-3.4,1.33,3.15,3.15,0,0,0,.29,5.53,38.75,38.75,0,0,0,5.79,2.19c4.15,1.42,8.46,2.47,12.45,4.23,8.79,3.88,11.24,10.63,10.1,19.08s-6.75,14.06-15.62,16.18a50.13,50.13,0,0,1-17.65.59c-4.46-.53-8.86-1.63-13.29-2.49-.42-.09-.83-.25-1.38-.42.92-5,1.82-10,2.7-14.89,3.41.86,6.69,1.87,10,2.48a33.7,33.7,0,0,0,13.57.15,8.09,8.09,0,0,0,2.41-1,2.83,2.83,0,0,0,.15-5,12.73,12.73,0,0,0-3.12-1.47c-4.45-1.55-9-2.88-13.34-4.6a27.46,27.46,0,0,1-6.6-3.81c-4.78-3.7-6.34-8.89-5.83-14.69.81-9.11,6.46-15.24,15.88-17.59a47.74,47.74,0,0,1,18.1-.59C1090.09,1163.22,1093.88,1164,1097.84,1164.65Z" transform="translate(-594 -1136)" style="fill:#fff"/><path d="M788.85,1163.86h8.53v-16.08h18.11v16.08H832v15.46H815.49v6.17c0,6.18-.07,12.37,0,18.55.07,5.3,2.35,7.34,7.7,7,2-.15,4-.62,6-.94l1.09-.22c.87,4.89,1.72,9.71,2.62,14.76-2.68.59-5.25,1.26-7.87,1.72a33.32,33.32,0,0,1-12.86,0c-8-1.7-12.77-6.54-14.18-14.58a45.83,45.83,0,0,1-.68-7.48c-.06-7.78,0-15.56,0-23.33v-1.55h-8.55Z" transform="translate(-594 -1136)" style="fill:#fff"/><path d="M1109.52,1179.36H1101v-15.45h8.47v-16.09h18.14v16h16.43v15.51h-16.32c0,.53-.08,1-.08,1.37q0,11.43,0,22.85v.36c.15,5.39,2.34,7.45,7.74,7.08,2-.14,4-.62,6-1,.31,0,.61-.14,1.08-.25l2.64,14.87c-3.27.66-6.44,1.43-9.66,1.91a30.86,30.86,0,0,1-12-.44c-7.45-1.8-11.68-6.7-13.15-14a38.65,38.65,0,0,1-.73-7.12c-.08-8,0-16.11,0-24.17Z" transform="translate(-594 -1136)" style="fill:#fff"/><path d="M1203.34,1212.32c-2-1.53-3.79-3-5.68-4.41q-20.81-15.36-41.65-30.66a1.64,1.64,0,0,1-.69-2.24,16.36,16.36,0,0,1,15.41-11.73,26.52,26.52,0,0,1,15.2,3.87c11.27,6.67,21.62,14.59,31.72,22.88a1.13,1.13,0,0,1,.37,1.52,47.19,47.19,0,0,1-9.47,15.24C1206.89,1208.67,1205.12,1210.44,1203.34,1212.32Z" transform="translate(-594 -1136)" style="fill:#fff"/><path d="M1200.41,1215.13l-13.4,10.26c-2.65-2-5.22-3.75-7.7-5.67-6.62-5.14-12.78-10.74-17.72-17.55-3.5-4.83-6.21-10-7.08-16a25.4,25.4,0,0,1,.17-8.27Z" transform="translate(-594 -1136)" style="fill:#fff"/><path d="M1154.88,1147.47a7.82,7.82,0,1,1-7.79-7.84A7.77,7.77,0,0,1,1154.88,1147.47Zm-1.54-.1a6.29,6.29,0,1,0-6.21,6.46A6.11,6.11,0,0,0,1153.34,1147.37Z" transform="translate(-594 -1136)" style="fill:#fff"/><path d="M1145.81,1147.79v4.06h-1.67v-9c1.09,0,2.11,0,3.14,0,1.67,0,2.7.75,3,2s-.33,2.28-2,3l2.6,3.91c-1.24.39-2.09.21-2.65-1a12.22,12.22,0,0,0-1.3-2A8.2,8.2,0,0,0,1145.81,1147.79Zm.06-3.88V1147a10.89,10.89,0,0,0,2.33-.82,1.46,1.46,0,0,0,0-1.36A11.68,11.68,0,0,0,1145.87,1143.91Z" transform="translate(-594 -1136)" style="fill:#fff"/></svg>