<svg id="Layer_1" data-name="Layer 1" xmlns="http://www.w3.org/2000/svg" viewBox="0 0 900 200"><defs><style>.cls-1{fill:#fff;}</style></defs><g id="Type"><path class="cls-1" d="M270.77,138.74a56.31,56.31,0,0,1-11.7,1.13c-12.07,0-14.71-4.15-14.71-12.07V82.14H221.72v48.3c0,21.5,12.07,31.31,36.22,31.31,11.7,0,22.64-2.26,35.84-5.28V82.14h-23ZM344.35,141c-8.31,0-9.44-3.77-9.44-10.19V101.38h18.87V82.14H334.91V59.5H312.27V82.14H301V101h11.32V132c0,13.58,2.64,29.43,25.28,29.43,6.8,0,12.46-1.51,18.87-3.4l-2.26-18.86A30.22,30.22,0,0,1,344.35,141ZM106.26,98.36c-4.15-1.5-9.06-3-14-4.52-13.21-3.78-17.36-5.66-17.36-11.7,0-6.79,4.9-10.19,17-10.19,9.81,0,18.49,2.64,27.17,5.66L124,55.73C113.8,52,104.37,48.56,92.67,48.56c-27.16,0-42.26,15.47-42.26,34,0,14,6,23,19.62,28.67,3.78,1.51,8.68,3,13.59,4.53,14.71,4.53,19.24,6.79,19.24,12.45,0,6.8-5.66,10.57-17.36,10.57-10.56,0-20.37-3-30.56-7.55l-5.28,22.64c11.32,4.53,22.26,7.55,35.84,7.55,27.93,0,42.26-15.47,42.26-34.34C127.76,112,119.09,103.27,106.26,98.36Zm297.33-20A68.12,68.12,0,0,0,384,81.76V44.41H361.33v117H384V102.89c4.16-1.51,8.68-3,14.34-3,8.68,0,12.08,3.4,12.08,11.7v49.81H433V108.93C433,88.18,423.58,78.37,403.59,78.37ZM174.17,78c-23,0-41.5,16.22-41.5,41.5s18.49,42.26,41.5,42.26,41.51-16.6,41.51-42.26S197.19,78,174.17,78Zm0,61.13c-9.81,0-17.73-7.17-17.73-20S164,99.5,174.17,99.5s17.74,6.79,17.74,19.62C191.91,132.32,184,139.12,174.17,139.12Zm508.26-26c-3.4-1.13-6.8-2.26-10.95-3.4-7.92-2.26-10.94-3.39-10.94-6.79s3-5.66,10.19-5.66c7.54,0,14.34,1.51,21.88,3.78l3.78-19.62c-8.31-1.89-16.23-3.4-25.28-3.4-21.51,0-33.21,10.94-33.21,26,0,10.57,5.28,17.36,15.85,21.89a109.82,109.82,0,0,0,10.56,3.77c8.3,2.27,12.46,3.4,12.46,7.17s-4.91,5.28-11.7,5.28a65,65,0,0,1-23.77-4.52l-3.4,19.62c9.81,2.64,18.87,4.52,29.05,4.52,22.64,0,32.83-11.69,32.83-26.41C699.4,125.15,695.25,117.61,682.43,113.08ZM597.53,78c-23.77,0-40.75,16.6-40.75,43,0,24.53,14.71,40.75,41.13,40.75,11.69,0,21.13-3.39,30.94-7.54l-3.4-18.87c-7.55,3.4-15.09,6-24.15,6-13.58,0-19.24-5.66-20-14h50.94s.76-9.06.76-10.94C633,95,621.3,78,597.53,78Zm-15.85,34.34c1.51-6.8,4.91-15.47,14.72-15.47s12.82,9.81,12.82,15.47ZM744.31,141c-8.31,0-9.44-3.77-9.44-10.19V101.38h18.87V82.14H734.87V59.5H712.23V82.14H700.54v19.24h11.69v30.94c0,13.59,3.4,29.43,26,29.43,6.79,0,12.45-1.5,18.86-3.39l-2.64-18.87C750.72,140.25,747.7,141,744.31,141ZM759.4,48.94c-5.66,0-9.81,4.52-10.19,10.18s4.53,10.19,9.81,10.19a10.15,10.15,0,0,0,10.19-10.19C769.21,53.46,765.06,48.94,759.4,48.94Zm0,18.48c-4.53,0-7.93-3.39-7.93-8.3a7.93,7.93,0,0,1,8.31-8.3,7.63,7.63,0,0,1,7.92,8.3C767.32,64,763.93,67.42,759.4,67.42Zm1.13-7.92c1.89-.38,3-1.13,3-3a3.48,3.48,0,0,0-3.77-3.39H756V64.78h2.27v-4.9c.75,0,1.13.38,1.51,1.13l2.64,3.77h2.64L762.79,61A7.13,7.13,0,0,1,760.53,59.5ZM759,58.37h-1.13V55h1.51c1.51,0,1.88.76,1.88,1.51C761.29,58,760.15,58.37,759,58.37ZM535.65,82.14l-14.34,43.39L507,82.14H487.35l-14.72,43.39L458.3,82.14H433.77l28.3,79.24h20.75l14.34-43,14.34,43h20.75l28.3-79.24Z"/></g><path class="cls-1" d="M829.2,77.61c-7.54,0-14,2.64-18.86,5.28-4.91-2.64-11-5.28-18.87-5.28-15.47,0-25.28,9.81-25.28,27.17,0,20.75,20,41.13,44.15,57.73,24.15-16.23,44.14-36.6,44.14-57.73C854.48,87.42,844.3,77.61,829.2,77.61Z"/><path class="cls-1" d="M768.45,105.16c0,21.13,22.64,41.12,41.51,54.33a176.14,176.14,0,0,0,16.6-12.83c-25.28-21.13-49.43-40.37-57.73-47.16C768.83,101,768.45,102.89,768.45,105.16Z"/><path class="cls-1" d="M850.33,115c-18.49-15.1-29.43-23-41.5-30.19-3.4-1.89-9.81-4.9-17-4.9-6.79,0-12.83,2.26-17,6.41a18.93,18.93,0,0,0-5.28,10.19c9.43,6.79,35.46,25.28,61.5,46C839.77,134.21,846.94,124.78,850.33,115Z"/><path class="cls-1" d="M845.43,86.29c-4.15-4.15-9.81-6.41-16.6-6.41a33.45,33.45,0,0,0-16.61,4.52,382.81,382.81,0,0,1,38.87,24.91,22,22,0,0,0,.37-4.91C851.84,96.86,849.58,90.44,845.43,86.29Z"/></svg>