<svg id="Layer_1" data-name="Layer 1" xmlns="http://www.w3.org/2000/svg" viewBox="0 0 900 200"><defs><style>.cls-1{fill:#fff;fill-rule:evenodd;}</style></defs><path id="Taxfyle_Vector_BLUE" data-name="Taxfyle Vector BLUE" class="cls-1" d="M88.83,17.25H102L100,50.42h26.79l-1,14.63H98.58l-3.9,68.29S94.48,157,121,143.58c-.63,8.11-1,15.12-1,15.12s-40.24,18-38-26.34c2.17-43,3.89-67.31,3.89-67.31H73.74l1-14.63H86.89ZM140,73.34c20.09-9.53,69-18,70.62,24.39-2,41.16-3.41,62-3.41,62H194L195,146s-25.52,28.21-57.47,7.8c-11-7-12.55-25.95-4.38-36.58S159.81,96.43,197,106c3.3-10.3-2.53-42.44-53.57-21.46C141.47,78.55,140,73.34,140,73.34Zm56.5,42.93c4.42,29.12-34.44,45.84-52.12,25.36-11.32-22.85,16.72-36.9,52.12-25.36Zm27.76-49.75h16.07l24.84,35.6,29.22-35.6H310l-37.5,45.36,33.6,47.8H290l-25.81-38.05L233,159.68H216.93l39.45-47.31ZM338.7,163.09H329l5.84-99.5H323.11l.49-8.29s7-.06,11.69,0c1.6-11.82-2.69-41.36,32.63-37.07-.24,4.16-.49,8.29-.49,8.29-6.68.05-23.65-6-22.4,28.78h19.48L364,63.59H344.54Zm29.71-95.6h10.23l33.12,82,37.5-81.95h10.23s-42.74,89-47.25,98c-6.1,10.91-15.46,31.08-48.22,19,1.67-3.83,1.62-3.88,3.41-7.8,11,4.25,28.1,9.49,39-18.53-18.95-45.5-38-90.73-38-90.73ZM476.54,24.08h9.25l-8.28,135.11h-9.25Zm105.2,93.16S588.89,66.67,542.29,66c-25,.16-43.91,22.81-44.81,47.31-1.81,33.76,21.84,49,43.84,48.29,13.61-1,24.85-5.22,36-17.07A40.07,40.07,0,0,0,572,138.7c-10.18,8.94-21.45,15.87-34.09,14.64s-30.4-8.87-31.18-36.1C538,117.26,581.74,117.24,581.74,117.24ZM573,109H507.22s3.55-33.36,35.56-35.12C564.47,74.07,573.35,92.84,573,109ZM680.13,178.7s-58.14-57.39-59.9-60.1c-2.33-3.67-1.17-10.65,3.89-11.11,8.32.1,29.23-.1,29.23-.1Zm18-151.7c-7.57,0-10.82,5.44-11.21,14.15,0,.52-5.85,137.55-5.85,137.55S820.63,39.27,822.84,35.79c1.7-5-1.17-8.57-4.87-8.78ZM684.52,64l-3.9,114.67s-37.53-104.09-38-105.36c-1-4.81,1.63-9,6.34-9.26Z"/></svg>