<svg id="Layer_1" data-name="Layer 1" xmlns="http://www.w3.org/2000/svg" viewBox="0 0 900 200"><defs><style>.cls-1{fill:#fff;}</style></defs><path class="cls-1" d="M738,61.32c-1.26,7.44,2.41,14.25,7.87,17.09C742,99.06,726.48,132,717.78,132s-2-30.61,7.55-66.89c2-7.76-18.46-6.08-22.54.84-6.92,36.9-22.23,65.21-31.67,65.21-3.77,0-4.29-4.61-4.29-8.7,0-16.46,8.91-49.28,10.06-56.2s-8.28-5.34-14.47-2.3c-1.88,1-16.35,8.28-23.38,11.53-4.3-15.83-22-13.73-25.58-1.78-2.62,8.59,3.88,14.15,10.38,15.41-.31,19.18-11.64,43.51-24.53,43.51-16.15,0-8.7-51.58,12.16-64.27-1.15-6.6-9.86-7.55-17.93-4-15.51,6.6-25,31.55-23.69,52.21-6.08,9.43-12.06,15.3-15.83,15.3-1.79,0-3.78-1.67-3.78-6.08,0-12.16,6.08-45.81,9.54-68.35,2.31-16.15-.52-35.75-22.54-35.75-15.41,0-23.9,14.67-30.19,37.53h-9.33c-4,0-6.4,10.38-2,10.69,1.36.11,4.71.11,8.7.11-1.16,5-2.2,10.48-3.25,16-.53,2.83-1.05,5.87-1.58,8.91-7.86,16.46-26.21,39-42.56,39-7.55,0-10.27-9.23-9.75-20.55,44.45,2,58.19-53.89,18.45-53.57-23.69.1-38.27,25.16-40.05,48.22-7.13,11.75-18.87,26.22-29.77,26.22-23.07,0-7.55-63.12,8.07-63.12,6.61,0,5.24,10.69,1.15,17.93,1.47,9.22,16.15,10.06,19.61-5.45,2.62-11.85-4.61-23.38-19.92-23.38-25.37,0-41.41,28.3-41.52,52.63-4.93,10.59-11.22,16.35-15.83,16.35-3.77,0-4.3-4.3.32-29.67,1.15-6.39,2.3-13.52,3.46-21.07,1.67-10.8-2.84-17.19-12.17-17.3h-1.46c-6.5.32-15.21,3.15-24.43,9.54-5.56-13-21.28-10.38-24.64,1-2.62,9,3.88,14.78,10.38,15.94-.42,19.71-11.64,44.87-24.53,44.87-16.15,0-8.7-53.37,12.16-66.37-1.15-6.92-9.86-7.75-17.93-4.29-28,11.84-36.59,84.81,2.62,84.81,31.14,0,43.2-44.14,43.83-63.64,5-3.77,10.58-6.71,13.73-6.81h.1c1.47,0,2,.63,1.68,2.3-1.78,13.32-6.29,35.76-6.29,47.92,0,12.37,3.46,20.23,14.15,20.23,10.07,0,19.92-8.91,26.63-20.13,3.57,11.64,12.17,20.13,27,20.13s26.31-11.74,34.39-23.17c2.83,13.21,11.11,23.17,25.89,23.17,20.55,0,35.54-16.35,44.24-31.66-.52,4-1,8.18-1.57,12.37-2.93,23.38-5.14,32.92-8.91,41.31a111.87,111.87,0,0,1-5.14,10.06c-1.46,2.62.32,3.78,2.62,3.78,5.14,0,13.53-3.15,18.77-11.85,4.93-8.07,9.86-16.15,15-62.59,1.16-10,2.73-24.32,4.93-38.06H528c5.24,0,10.06-9.85,4-10.38-1-.1-4-.21-7.86-.21,3.25-16.35,7.76-29.46,13.94-29.46,5.77,0,6.92,8.91,4.3,23.38C538.08,76,534,104.2,532.32,120.34c-2,19.08,4.29,26.53,15,26.53,8.38,0,17.72-7.66,24.84-17.62,3.67,10.28,11.22,17.62,23.91,17.62,28.51,0,41.1-36.07,43.4-56.51a101.76,101.76,0,0,0,12.16-4.93c-2.72,14.26-4.82,29.88-4.82,39,0,13.31,6.61,22.23,16.78,22.23,14.88,0,25-14,31.24-25.69,0,15.31,5.87,26,19.81,26,30.3,0,51.58-61.44,51.58-81C766.21,44,740.63,44.86,738,61.32ZM466.27,70.54c12.16,0,3.14,31.35-18,33.34,2.73-16.35,10.28-33.34,18-33.34ZM344.65,50.94c17,0,20.76-29.46,2.94-29.46C330.81,21.48,327.35,50.94,344.65,50.94ZM214.23,23.57c5.45,3.15,13.52,14.47,10.38,38.69-5.24,38.69-26,70.35-32.92,70.35-4,0-3.78-6.08,1.47-28.52,6.92-29.46,16.46-71.19-21.08-71.19-39.84,0-44.66,42.67-19.08,47.92-3.77-19.92,8.07-38.69,19.29-38.69,12.16,0,6.92,23.38,2,48.44-5.76,29.14-12.37,62.27,10.7,62.27,32,0,56-59.13,60.28-90.58C250.92,22.42,226.6,11.73,214.23,23.57Z"/></svg>