<svg xmlns="http://www.w3.org/2000/svg" xmlns:xlink="http://www.w3.org/1999/xlink" viewBox="0 0 1030 544.81"><defs><style>.cls-1{isolation:isolate;}.cls-2{fill:#6ea099;}.cls-3{fill:#2c5656;}.cls-4{fill:#3c6d6c;}.cls-5{fill:#213d3c;}.cls-6{fill:#2c4f4d;}.cls-7{fill:#aae2de;}.cls-8{fill:#91c9c3;}.cls-9{fill:#c6f4ef;}.cls-10,.cls-11{mix-blend-mode:overlay;opacity:0.7;}.cls-10{fill:url(#linear-gradient);}.cls-11{fill:url(#linear-gradient-2);}</style><linearGradient id="linear-gradient" x1="158.91" y1="1097.69" x2="-110.8" y2="1616.38" gradientTransform="matrix(-1, -0.07, -0.07, 1, 555.94, -1067.6)" gradientUnits="userSpaceOnUse"><stop offset="0" stop-color="#ffe5a0"/><stop offset="1" stop-color="#360043"/></linearGradient><linearGradient id="linear-gradient-2" x1="28.38" y1="1067.12" x2="-52.17" y2="1222.04" xlink:href="#linear-gradient"/></defs><g class="cls-1"><g id="Layer_2" data-name="Layer 2"><g id="Layer_1-2" data-name="Layer 1"><path class="cls-2" d="M122,366.52l-32.42-42S90.36,403.24,122,366.52Z"/><path class="cls-3" d="M1030,544.81c-88.86-73.2-244.48-156.69-493.09-87.06C381.3,501.36,209.37,429,169.42,434.26c-35.34,4.65-144.1,3.87-164.33-16.91-12.14-12.47,19-28.61,92.29-49.11,54.78-15.31-25.69-46.79-65.36-30.51-43.31,17.76-79.1-33.88,151.22-89,60.9-14.58,120.52-247.41,202.3-211.14,31.61,14-63.17,165.91,92.93,223.81C582.6,318.42,669.3,357,754.35,391.11,860.54,433.66,977.54,476.41,1030,544.81Z"/><path class="cls-4" d="M171.88,250.62a1149.27,1149.27,0,0,1-157.81,61C51.63,282.22,96.41,265.63,171.88,250.62Z"/><path class="cls-5" d="M741.83,391.57c-123-43.84-490.6-283.08-509.53-49.08C219.09,505.87,741.83,391.57,741.83,391.57Z"/><path class="cls-5" d="M235.68,325.06C232.25,287.37,304.31-1,388,40c35.13,17.18-45.42,143.91,65.81,205.67,39,21.62,227.54,129.31,227.54,129.31Z"/><path class="cls-6" d="M453.81,245.62c-55.89-3.81-98.45-56.22-57.45-169C385.64,173.82,402.87,209,453.81,245.62Z"/><path class="cls-7" d="M163,422.34c40-5.26,211.89,67.1,367.5,23.49,73.84-20.68,152.21-36.5,226.31-32.07,44.27,2.63,71.45,15.53,69.23,20.15-1.73,3.59-21.23-.4-64.38-1.5-64.94-1.65-144.56,10.24-242.33,41.06C343.23,529,209.06,449.64,166.63,451.34,131,452.76,24,443,3.75,422.21c-2.57-2.64-1.84-10.31-.53-13.29C31.59,426.28,129.79,426.72,163,422.34Z"/><path class="cls-7" d="M25.62,325.81c39.53-16.21,141,5,85.63,35.75-4.4-14.07-53.54-30.43-82.35-18.62C10.61,350.45-3.22,340.35.65,328.06,6.7,330.27,16,329.77,25.62,325.81Z"/><path class="cls-8" d="M3.57,415.26C23.79,436,130.84,445.82,166.45,444.39c42.43-1.7,176.6,77.67,352.73,22.13,123.89-39.07,218.64-47.7,291.28-36.9,46.45,6.91,72.63,20.43,2.73,10.17-78.77-11.56-181,.38-307.69,52.06C350.3,555.18,205.7,461.19,163.35,458,130.94,455.61,24,443,3.75,422.21c-1.79-1.85-2-6.1-1.47-9.54A5.8,5.8,0,0,0,3.57,415.26Z"/><path class="cls-3" d="M593.09,428.68c52.17-24.34,104.68-158.78,47.8-283.2-29.22-63.9-89.77-157.08-104.33-33.09-1.9,16.16-96.3,333.19-224.2,328.32C312.36,440.71,433.61,503.08,593.09,428.68Z"/><path class="cls-7" d="M610.31,436.86c52.18-24.33,87.64-202.77,12.38-317-56.69-86.06-68.25-47.38-76.81-2.24C544.31,125.84,450,459.91,322.1,455,322.1,455,450.84,511.26,610.31,436.86Z"/><path class="cls-7" d="M252.69,441.11C206.14,405.05,164.34,361,98.79,431Z"/><path class="cls-3" d="M365.62,442.59c-20.29,11.66-86.25,40.73-141.63-25.82Z"/><path class="cls-8" d="M490.56,478.26C530,451,664.75,272.09,636.91,143.11c0,0,83.09,169.16-23.33,303.74Z"/><path class="cls-5" d="M258.69,221c-10,13.12-176,61.17-7.59,71.64Z"/><path class="cls-5" d="M329.33,322.86c-8.57,5.82-130.62,18.4-127.46,46.5,1.47,13.09,32.29,30.81,110.66,50.55Z"/><path class="cls-3" d="M182.86,286.5c61.67,8.51,322.48,12.2-17.43,71.84Z"/><path class="cls-5" d="M190.2,429.34c-1.26-13.45-26.3-29.17-38.65-6.55C181.84,426.45,190.81,435.9,190.2,429.34Z"/><path class="cls-7" d="M109.6,439.46c-9.78-15.29-30.5-30.36-46.38-33.63l23.3,29.31Z"/><path class="cls-7" d="M81.36,431.28c-11.78-13.82-34.36-25.92-50.54-27L57.9,430.15Z"/><path class="cls-8" d="M235.39,461.5c-6.09-12.84-18.82-34.19-40.1-51.55,0,0,26.22,33,31,54.33Z"/><path class="cls-8" d="M104,441.7c9.91-10.7,28.84-27.72,54.62-38.07,0,0-35.47,24.15-46.86,43.67Z"/><path class="cls-8" d="M207.51,460.65c-5.13-8.22-11.8-28.53-49.15-28.65,0,0,33.36,4.73,32.6,26.05Z"/><path class="cls-8" d="M561.79,416c-41.46-2.06-111-5.53-109-2.93C468.9,434,543,444.71,543,444.71Z"/><path class="cls-8" d="M600.43,372c-41.46-2.06-111-5.52-109-2.93,16.12,21,90.22,31.69,90.22,31.69Z"/><path class="cls-8" d="M521.39,455.58c-79.45,3.88-141.43,6.89-136.8,8.54,33,11.76,109.72,19.61,109.72,19.61Z"/><path class="cls-9" d="M572.11,112.52c-1,37.68-28.2,48.78-18.73,1.27S572.67,91.42,572.11,112.52Z"/><path class="cls-5" d="M741.83,391.57s11.23-48.39,7.63-46.58-65,25-71.38,27.26Z"/><path class="cls-10" d="M28.9,342.94C11.53,350.07-1.79,341.31.23,329.89,1,325,5.3,318.75,14.67,311.49c-.2.05-.4.13-.6.17,37.56-29.44,82.34-46,157.81-61l-4,1.86c5-1.25,10.07-2.5,15.33-3.76,60.9-14.58,120.52-247.41,202.3-211.14a9.4,9.4,0,0,1,3.86,3.16c12.87,8.15,7.67,33.68,4.5,65.2-4.13,75.45,14.45,107,59.91,139.68,6.21,3.45,16.24,9.09,28.68,16.12,33.36-72.93,53.21-142,54.07-149.35,14.56-124,75.11-30.81,104.33,33.09a272.6,272.6,0,0,1,24.12,98c4.18,32.3,4.41,69.68-4.89,108q17.19,7.63,34,14.82c20.42-7.7,52.72-20,55.3-21.27,2.88-1.46-3.72,29.2-6.48,41.53,3.79,1.54,7.59,3.07,11.37,4.59,106.19,42.55,223.19,85.3,275.65,153.7-53-43.7-129.9-91-236.11-107.31-75.95-7.09-171.84,6.8-288.39,54.35C350.3,555.18,205.7,461.19,163.35,458,130.94,455.61,24,443,3.75,422.21A4.15,4.15,0,0,1,3,421.12a2.29,2.29,0,0,1-.16-.35,6.89,6.89,0,0,1-.39-1.11l-.09-.32a13.45,13.45,0,0,1-.24-1.48c0-.25,0-.5-.05-.75s0-.54,0-.82a22.32,22.32,0,0,1,.22-3.6v0h0a20.57,20.57,0,0,1,.49-2.46c2.88-11.32,34.59-25.16,94.51-41.93-3-5.82-4.8-14-5.93-21.7C73.33,339.25,47.08,335.49,28.9,342.94Z"/><path class="cls-2" d="M390.43,99.39l-9.68-12.55S381,110.36,390.43,99.39Z"/><path class="cls-3" d="M661.63,152.64c-26.54-21.87-73-46.8-147.27-26-46.48,13-97.83-8.58-109.76-7-10.55,1.39-43,1.16-49.08-5.05-3.63-3.72,5.69-8.54,27.56-14.67,16.37-4.57-7.67-14-19.52-9.11-12.93,5.31-23.62-10.12,45.17-26.59,18.19-4.35,36-73.89,60.42-63.06C478.59,5.33,450.28,50.7,496.91,68a727.93,727.93,0,0,0,82.39,38.74C611,119.44,646,132.21,661.63,152.64Z"/><path class="cls-4" d="M405.33,64.77A341.42,341.42,0,0,1,358.2,83C369.42,74.21,382.79,69.26,405.33,64.77Z"/><path class="cls-5" d="M575.56,106.87C538.84,93.78,429,22.32,423.38,92.21,419.43,141,575.56,106.87,575.56,106.87Z"/><path class="cls-5" d="M424.39,87c-1-11.26,20.5-97.38,45.49-85.16,10.5,5.13-13.56,43,19.66,61.43,11.64,6.46,68,38.62,68,38.62Z"/><path class="cls-6" d="M489.54,63.28c-16.69-1.14-29.4-16.79-17.16-50.47C469.18,41.83,474.32,52.35,489.54,63.28Z"/><path class="cls-7" d="M402.69,116.06c11.94-1.57,63.28,20,109.76,7,22-6.17,45.46-10.9,67.59-9.57,13.22.78,21.34,4.64,20.68,6-.52,1.08-6.34-.11-19.23-.44-19.4-.5-43.18,3.05-72.37,12.26-52.61,16.59-92.68-7.12-105.35-6.61-10.64.43-42.61-2.49-48.65-8.7-.77-.79-.55-3.08-.16-4C363.44,117.24,392.76,117.37,402.69,116.06Z"/><path class="cls-7" d="M361.65,87.23c11.81-4.84,42.11,1.5,25.58,10.68-1.32-4.21-16-9.09-24.6-5.56-5.46,2.24-9.59-.78-8.43-4.45A10.91,10.91,0,0,0,361.65,87.23Z"/><path class="cls-8" d="M355.07,114c6,6.2,38,9.12,48.64,8.7,12.68-.51,52.75,23.19,105.35,6.61,37-11.67,65.3-14.25,87-11,13.87,2.07,21.69,6.11.81,3-23.52-3.45-54.07.12-91.89,15.55-46.36,18.92-89.54-9.16-102.19-10.1-9.68-.72-41.63-4.49-47.67-10.7a3.78,3.78,0,0,1-.44-2.85A1.74,1.74,0,0,0,355.07,114Z"/><path class="cls-3" d="M531.14,118c15.58-7.27,31.26-47.42,14.27-84.58-8.72-19.09-26.81-46.92-31.16-9.88-.56,4.82-28.76,99.51-67,98.06C447.29,121.55,483.51,140.18,531.14,118Z"/><path class="cls-7" d="M536.28,120.4c15.59-7.27,26.18-60.56,3.7-94.68C523.05,0,519.6,11.56,517,25.05c-.47,2.45-28.64,102.23-66.84,100.77C450.2,125.82,488.65,142.62,536.28,120.4Z"/><path class="cls-7" d="M429.47,121.66c-13.9-10.76-26.39-23.92-46-3Z"/><path class="cls-3" d="M463.2,122.11c-6.06,3.48-25.76,12.16-42.3-7.71Z"/><path class="cls-8" d="M500.52,132.76c11.79-8.13,52-61.58,43.7-100.1,0,0,24.82,50.53-7,90.72Z"/><path class="cls-5" d="M431.26,55.93c-3,3.92-52.57,18.27-2.26,21.4Z"/><path class="cls-5" d="M452.36,86.35c-2.56,1.73-39,5.49-38.07,13.89.44,3.91,9.65,9.2,33,15.09Z"/><path class="cls-3" d="M408.62,75.49C427,78,504.93,79.13,403.41,96.94Z"/><path class="cls-5" d="M410.81,118.15c-.38-4-7.86-8.71-11.55-2C408.31,117.29,411,120.11,410.81,118.15Z"/><path class="cls-7" d="M386.74,121.17c-2.93-4.56-9.11-9.06-13.86-10l7,8.75Z"/><path class="cls-7" d="M378.3,118.73c-3.52-4.13-10.26-7.74-15.09-8.06l8.08,7.72Z"/><path class="cls-8" d="M424.31,127.75a45.84,45.84,0,0,0-12-15.39s7.83,9.84,9.26,16.23Z"/><path class="cls-8" d="M385.06,121.84a46.84,46.84,0,0,1,16.31-11.37s-10.59,7.22-14,13Z"/><path class="cls-8" d="M416,127.5c-1.54-2.45-3.53-8.52-14.68-8.56,0,0,10,1.42,9.73,7.79Z"/><path class="cls-8" d="M521.79,114.15c-12.38-.61-33.16-1.65-32.56-.87,4.82,6.26,26.95,9.46,26.95,9.46Z"/><path class="cls-8" d="M533.33,101c-12.38-.61-33.16-1.65-32.56-.87,4.82,6.26,27,9.46,27,9.46Z"/><path class="cls-8" d="M509.72,126c-23.73,1.16-42.24,2-40.85,2.55,9.85,3.51,32.76,5.86,32.76,5.86Z"/><path class="cls-9" d="M524.87,23.53c-.3,11.25-8.42,14.57-5.59.38S525,17.22,524.87,23.53Z"/><path class="cls-5" d="M575.56,106.87s3.36-14.45,2.28-13.91-19.4,7.45-21.32,8.14Z"/><path class="cls-11" d="M362.63,92.35c-5.19,2.12-9.17-.49-8.56-3.9.22-1.46,1.51-3.33,4.31-5.5l-.18,0c11.22-8.79,24.59-13.74,47.13-18.23l-1.18.56,4.58-1.13c18.19-4.35,36-73.89,60.42-63.06a2.81,2.81,0,0,1,1.15,1c3.85,2.43,2.29,10.06,1.35,19.47-1.24,22.53,4.31,32,17.89,41.72,1.85,1,4.85,2.71,8.57,4.81,10-21.78,15.89-42.41,16.14-44.6,4.35-37,22.44-9.21,31.16,9.88a81.39,81.39,0,0,1,7.21,29.26,88.62,88.62,0,0,1-1.46,32.25q5.13,2.28,10.16,4.43c6.1-2.3,15.75-6,16.52-6.35s-1.11,8.72-1.94,12.4l3.4,1.37C611,119.44,646,132.21,661.63,152.64c-15.84-13-38.8-27.19-70.52-32-22.68-2.12-51.32,2-86.13,16.23-46.36,18.92-89.54-9.16-102.19-10.1-9.68-.72-41.63-4.49-47.67-10.7a1.21,1.21,0,0,1-.22-.32,1.17,1.17,0,0,1,0-.11,2.55,2.55,0,0,1-.11-.33l0-.1c0-.14,0-.28-.07-.44s0-.15,0-.22,0-.16,0-.25a7.49,7.49,0,0,1,.07-1.07h0a6.24,6.24,0,0,1,.15-.73c.86-3.38,10.33-7.52,28.22-12.53a22.4,22.4,0,0,1-1.77-6.48C375.9,91.24,368.06,90.12,362.63,92.35Z"/></g></g></g></svg>