<svg xmlns="http://www.w3.org/2000/svg" xmlns:xlink="http://www.w3.org/1999/xlink" viewBox="0 0 1931.18 964.24"><defs><style>.cls-1{isolation:isolate}.cls-2,.cls-3,.cls-4,.cls-5{fill:#16494c}.cls-2,.cls-3,.cls-4,.cls-5,.cls-6,.cls-7,.cls-8{mix-blend-mode:multiply}.cls-2{opacity:.5}.cls-3,.cls-6,.cls-7,.cls-8{opacity:.3}.cls-4{opacity:.6}.cls-5{opacity:.7}.cls-6{fill:url(#linear-gradient)}.cls-7{fill:url(#linear-gradient-2)}.cls-8{fill:url(#linear-gradient-3)}</style><linearGradient id="linear-gradient" x1="828.9" x2="1931.18" y1="669.53" y2="669.53" gradientUnits="userSpaceOnUse"><stop offset="0" stop-color="#0bd1d2"/><stop offset=".44" stop-color="#0ac1c9"/><stop offset="1" stop-color="#24b2c0"/></linearGradient><linearGradient id="linear-gradient-2" x1="0" x2="1808.01" y1="473.47" y2="473.47" xlink:href="#linear-gradient"/><linearGradient id="linear-gradient-3" x1="1098.9" x2="1931.18" y1="78.15" y2="78.15" xlink:href="#linear-gradient"/></defs><g class="cls-1"><g id="Layer_2" data-name="Layer 2"><g id="Layer_1-2" data-name="Layer 1"><path d="M1899.09,645c-29.45-.06-73.86-35-58.73-44.83,14.93-9.72,21.29-42.52-3.1-40.51-24.56,2,4.16-17.63-20.68-31.08-32.83-17.78,73.23-124.34-35.52-85-117.21,42.44-173.82,84.13-133.9,94.34,40.11,10.26-8.55,40.9,1,44s36.93,29.92,11.5,34.32c-25.69,4.44-32,50,6.36,64,38.67,14.09,66.52-14.9,52.14-24.28s9.64-50.83-2.93-54.34,5.79-25.6-3.32-31.53c-33.54-21.83,37.49-50.14,52.33-42.09s-1,42.07,16.62,45.22,12.85,22.88,25.31,46.63C1831.41,668.11,1899.09,645,1899.09,645Z" class="cls-2"/><path d="M1095.59,685c-39.08-40.62,128.11,4.83,86-16.89s-82.07-65-19.64-57.91c33.35,3.81,25.2-8.5,12.78-15.81-29.83-17.54-50.7-62,27.77-42.31,32.91,8.25,35.19-4.62,5.27-22.72s-.94-68.78,58-4.83,86,37.4,99.12,19.3,96.31,7.25,29.92,56.72c0,0-16.83,41,24.32,19.3s55.16-3.62,2.8,43.44S1196.58,789.94,1095.59,685Z" class="cls-2"/><path d="M485.85,730.86c-5.06-6.78-7.25-29.13-3.49-36.92s6.6-31.13.7-36,3.23-21.3,1.58-26.25c-8.07-24.27-1.4-38.87-4.8-48.58s-15.62-21.33-10.51-.93,6.05,44.69,2.71,49.56-4.56,16.54.53,30.13-3.69,24.31-2.75,49.59S485.85,730.86,485.85,730.86Z" class="cls-3"/><path d="M1076.88,740.5c-5.07-6.79-7.25-29.13-3.5-36.93s6.61-31.13.71-36,3.23-21.31,1.58-26.25c-8.07-24.27-1.4-38.88-4.8-48.59s-15.63-21.32-10.51-.93,6.05,44.69,2.71,49.56-4.56,16.55.53,30.14-3.69,24.31-2.75,49.58S1076.88,740.5,1076.88,740.5Z" class="cls-3"/><path d="M892.26,686.9c7.3-6.83,10.27-29.19,4.74-36.95s-9.89-31.07-1.35-36-4.89-21.27-2.54-26.24c11.51-24.34,1.68-38.88,6.53-48.62s22.53-21.47,15.27-1-8.38,44.74-3.48,49.59,6.78,16.5-.5,30.13,5.59,24.28,4.46,49.56S892.26,686.9,892.26,686.9Z" class="cls-3"/><path d="M837.63,693.52c10.41-8.66,14.74-37.13,6.94-47s-13.87-39.61-1.73-45.8-6.83-27.11-3.47-33.42c16.47-31,2.6-49.51,9.54-61.89s32.08-27.24,21.67-1.24-12.14,56.94-5.2,63.13,9.54,21-.87,38.37,7.81,31,6.07,63.13S837.63,693.52,837.63,693.52Z" class="cls-3"/><path d="M686.12,606.4c22.85-17.81,6.22-28.9-24.47-32.81,6.84-2.35,14-5,21.5-8.13,59.31-24.59,17.58-54-47.15-69.55,11.66-.53,20.26-7.46,10.81-18.53-16.46-19.27-60.34-23.4-35.66,8.26a25,25,0,0,0,8.25,6.71c-34.83-6.69-74-9.31-107-5.34-102.85,12.39-84.33,68.12,35,92.9a41.54,41.54,0,0,0,7.8,3.22c-.91.28-1.82.57-2.72.87-69.08,22.79-48.85,56.33,36.55,55.29,0,0,3.82,1.23,11.31,1.2,8,11,31.64,22,69.44,28.47,0,0,29.28,15.75,95.14-11.81C818.75,634.62,751.74,609.43,686.12,606.4Z" class="cls-4"/><path d="M27,383.8c115.19-68.12,170.73-6.19,123.42,61.93s-12.34,55.73-4.12,57.8,51.43,28.9,28.8,53.67c0,0,51.42-26.84,18.51,22.71s4.12,57.79,49.37,49.54S275.87,582,263.53,582s-32.91-55.74,20.57-49.54S354,571.65,327.3,582s14.39,45.41,28.79,47.48S6.41,705.82,6.41,705.82Z" class="cls-5"/><path d="M988.45,652c-2.19-18.66-2.4-42.93-.65-63.47s1.31-47.6,0-57.86,3.27,5.6,2.84,34.53-3.28,69.07,1.74,87.74Z" class="cls-2"/><path d="M1495.54,756.71c-15-41-27.74-62.09-6.74-108.15,28.39-62.24,31.1-111.33,6.73-160.57s1.67-78,1.67-78-23.61,27.57,4.43,85.15c24.52,50.33,9.86,115-7.87,165.26-18,51,10.64,96.35,10.64,96.35Z" class="cls-2"/><path d="M1617.89,748.26c16.43-34.88,29.43-51.2,7.07-87.8-30.71-50.27-33-85.7-7.39-111.94,22.48-23-1.66-47.58-1.66-47.58s21.95,23.19-4.42,50.47c-26.65,27.56-11.13,77.3,8.21,117.59,19.68,41-12.28,79.73-12.28,79.73Z" class="cls-2"/><path d="M1538.42,756.94c-21.77-53.39-27.32-63.15-11-109s19.82-87.83,12.74-115.36c0,0,17.7,60.3-6.37,114.05-33.58,75,36.1,123.21,36.1,123.21Z" class="cls-2"/><path d="M943.07,753.51c-16.25-33.82-30.13-51.17-7.32-89.12,30.83-51.29,33.78-91.75,7.31-132.33s1.81-64.31,1.81-64.31-25.65,22.72,4.82,70.17c26.63,41.47,10.7,94.77-8.56,136.19-19.54,42,11.57,79.4,11.57,79.4Z" class="cls-2"/><path d="M427.34,648.84c17.84-28.75,32-42.2,7.68-72.35-33.35-41.43-35.88-70.63-8-92.25,24.41-18.95-1.81-39.22-1.81-39.22s23.84,19.11-4.81,41.59c-28.94,22.72-12.08,63.71,8.93,96.91C450.68,617.31,416,649.23,416,649.23Z" class="cls-2"/><path d="M380.79,658.74c-23.65-44-29.68-52-12-89.85s21.52-72.37,13.84-95.06c0,0,19.22,49.69-6.92,94-36.48,61.81,39.2,101.54,39.2,101.54Z" class="cls-2"/><path d="M808.16,722.11c8.58-31.49,16.65-44.18,4.6-79.53-16.28-47.76-18.39-86.73-4.4-124.52s-1.16-62-1.16-62c7.6,20.1,8.73,34.76-2.54,65.34-14.12,38.35-5.65,88.25,4.52,126.82,10.32,39.15-6.11,73.94-6.11,73.94Z" class="cls-2"/><path d="M1019.3,651.67c-3.25-12-3.57-27.68-1-40.92s1.95-30.69,0-37.31,4.87,3.61,4.22,22.27-4.87,44.53,2.6,56.56Z" class="cls-2"/><path d="M1007.81,648.56c-2.45-57.45-3.44-68,6.68-115.5s15.41-91.45,15.59-120.84c0,0,.36,64.5-13.24,119.81-19,77.19.71,131.82.71,131.82Z" class="cls-2"/><path d="M901.54,964.24C815,905.31,783.21,840.16,935.09,860.32S1223,911.51,1129.36,754.86s-49.45-600.24,204.87-246.61,261.39,60.49,284.35-34.13,257.85-144.24,312.6-40.32V807.59S1719.25,633.88,1622.11,820s-201.34,17.06-247.26-4.65-42.38,116.32-17.66,139.59Z" class="cls-6"/><path d="M129,836C360,640.67,450.09,448.18,589.3,661.08c147.17,225.07,407.06,239.35,362.42-99.69C912.46,263.28,895.79,183.2,1247,306c337.77,118.11,364.25,80.75,275.25-42-85.9-118.48,186.64-20.94,267.69,47.14,81.94,68.83-129.4-275.43-340.08-181.25-118.23,26.36,69.07,248.34-311.26,7.8C895.63-.94,522.66,82.77,593.39,231.74,809.16,686.2,150.84-17.26,117.94,167,81.89,368.92-134.84,1059,129,836Z" class="cls-7"/><path d="M1931.18,156.3C1840.52,103.53,1561.28-49.32,1467,56.22S1133.35,45.3,1098.9,27.1c0,0,241.16,54.59,286.49,5.46s458.76-50.95,545.79,52.77Z" class="cls-8"/></g></g></g></svg>