<svg id="Layer_1" data-name="Layer 1" xmlns="http://www.w3.org/2000/svg" viewBox="0 0 1135 68.09"><defs><style>.cls-1,.cls-2{fill:#24b2c0;}.cls-2{fill-rule:evenodd;}</style></defs><path class="cls-1" d="M83.1,12.9h9.75v24c0,4.73,2.34,7.47,7,7.47s7.07-2.74,7.07-7.47v-24h9.75V36.79c0,11.06-7.75,16.54-17,16.54S83.1,47.85,83.1,36.79Z"/><path class="cls-1" d="M141.6,20.65c7.81,0,14,6.28,14,16.31s-6.22,16.42-14,16.42a11.46,11.46,0,0,1-9.81-4.9V68.09H122v-47h9.75v4.5A11.24,11.24,0,0,1,141.6,20.65Zm-2.91,8.5c-3.65,0-6.95,2.79-6.95,7.87s3.3,7.87,6.95,7.87,7-2.85,7-7.93S142.4,29.15,138.69,29.15Z"/><path class="cls-1" d="M172.27,53.38c-8.49,0-14.19-4.73-14.65-10.89h9.64c.22,2.23,2.22,3.71,4.9,3.71,2.51,0,3.82-1.14,3.82-2.57,0-5.13-17.33-1.42-17.33-13.11,0-5.42,4.62-9.87,12.94-9.87s12.77,4.57,13.4,10.84h-9c-.28-2.17-1.94-3.6-4.68-3.6-2.28,0-3.53.92-3.53,2.46,0,5.07,17.22,1.48,17.39,13.34C185.16,49.22,180.26,53.38,172.27,53.38Z"/><path class="cls-1" d="M188.81,12.56c0-3,2.34-5.31,5.81-5.31s5.76,2.34,5.76,5.31S198,17.8,194.62,17.8,188.81,15.46,188.81,12.56Zm.91,8.55h9.75V52.93h-9.75Z"/><path class="cls-1" d="M205.11,10.73h9.75v42.2h-9.75Z"/><path class="cls-1" d="M235,53.38c-9.35,0-16.42-6.27-16.42-16.36s7.24-16.37,16.53-16.37S251.64,26.93,251.64,37,244.34,53.38,235,53.38Zm0-8.44c3.48,0,6.73-2.56,6.73-7.92s-3.19-7.93-6.62-7.93-6.61,2.51-6.61,7.93S231.46,44.94,235,44.94Z"/><path class="cls-1" d="M277.35,35.65c0-4.33-2.39-6.73-6.1-6.73s-6.1,2.4-6.1,6.73V52.93H255.4V21.11h9.75v4.22a11.67,11.67,0,0,1,9.64-4.56c7.35,0,12.26,5,12.26,13.57V52.93h-9.7Z"/><path class="cls-1" d="M318.86,38.56h-6.05V52.93h-9.75v-40h15.8c9.81,0,14.71,5.53,14.71,12.89C333.57,32.4,329.06,38.56,318.86,38.56Zm-.74-7.76c3.87,0,5.53-1.94,5.53-5s-1.66-5-5.53-5h-5.31v10Z"/><path class="cls-1" d="M336.3,12.56c0-3,2.34-5.31,5.82-5.31s5.76,2.34,5.76,5.31-2.34,5.24-5.76,5.24S336.3,15.46,336.3,12.56Zm.92,8.55H347V52.93h-9.75Z"/><path class="cls-1" d="M387.79,20.71H373v8.1h13.06v7.52H373v8.78h14.77v7.82H363.27v-40h24.52Z"/><path class="cls-1" d="M412.25,20.65c7.81,0,14,6.28,14,16.31s-6.21,16.42-14,16.42a11.44,11.44,0,0,1-9.81-4.9V68.09h-9.75v-47h9.75v4.5A11.23,11.23,0,0,1,412.25,20.65Zm-2.91,8.5c-3.65,0-7,2.79-7,7.87s3.31,7.87,7,7.87,7-2.85,7-7.93S413.05,29.15,409.34,29.15Z"/><path class="cls-1" d="M442.92,53.38c-8.5,0-14.2-4.73-14.65-10.89h9.63c.23,2.23,2.23,3.71,4.91,3.71,2.5,0,3.82-1.14,3.82-2.57,0-5.13-17.34-1.42-17.34-13.11,0-5.42,4.62-9.87,12.95-9.87S455,25.22,455.63,31.49h-9c-.29-2.17-1.94-3.6-4.68-3.6-2.28,0-3.53.92-3.53,2.46,0,5.07,17.21,1.48,17.39,13.34C455.81,49.22,450.9,53.38,442.92,53.38Z"/><path class="cls-1" d="M459.45,12.56c0-3,2.34-5.31,5.82-5.31S471,9.59,471,12.56s-2.34,5.24-5.76,5.24S459.45,15.46,459.45,12.56Zm.92,8.55h9.75V52.93h-9.75Z"/><path class="cls-1" d="M475.76,10.73h9.75v42.2h-9.75Z"/><path class="cls-1" d="M505.64,53.38c-9.36,0-16.43-6.27-16.43-16.36s7.25-16.37,16.54-16.37S522.29,26.93,522.29,37,515,53.38,505.64,53.38Zm0-8.44c3.47,0,6.72-2.56,6.72-7.92s-3.19-7.93-6.61-7.93-6.61,2.51-6.61,7.93S502.1,44.94,505.64,44.94Z"/><path class="cls-1" d="M548,35.65c0-4.33-2.4-6.73-6.1-6.73s-6.1,2.4-6.1,6.73V52.93h-9.75V21.11h9.75v4.22a11.66,11.66,0,0,1,9.63-4.56c7.36,0,12.26,5,12.26,13.57V52.93H548Z"/><path class="cls-1" d="M31.6,0A31.61,31.61,0,1,0,63.21,31.6,31.6,31.6,0,0,0,31.6,0Zm-7,33.91c0,4.82-3.38,7.21-7.41,7.21S10,38.73,10,33.91V23.49H14.2V33.93c0,2.06,1,3.26,3,3.26s3.09-1.2,3.09-3.26V23.49h4.25Zm9.24.77H31.18v6.26H26.93V23.49h6.88c4.28,0,6.42,2.41,6.42,5.62C40.23,32,38.26,34.68,33.81,34.68Zm18.7-7.79H46.07v3.54h5.69v3.28H46.07v3.83h6.44v3.4H41.82V23.49H52.51Z"/><path class="cls-1" d="M33.49,26.92H31.18V31.3h2.31c1.69,0,2.41-.85,2.41-2.19S35.18,26.92,33.49,26.92Z"/><g id="Page-1"><g id="mlh-logo-white"><g id="Layer_1-2" data-name="Layer 1"><g id="Group"><path id="Shape" class="cls-2" d="M999.21,55.74a3.72,3.72,0,0,1,.41.24.83.83,0,0,1,.25.42,1.76,1.76,0,0,1,.09.5V63s0,.13,0,.13a.18.18,0,0,1-.13,0h-1.5a.16.16,0,0,1-.13,0,.17.17,0,0,1,0-.13V57.48h-1.21V63s0,.13,0,.13a.15.15,0,0,1-.12,0h-1.38s-.13,0-.13,0a.17.17,0,0,1,0-.13V57.48H994V63a.19.19,0,0,1-.21.21h-1.5a.19.19,0,0,1-.21-.21v-7.1a.2.2,0,0,1,.21-.21h6.52a.51.51,0,0,1,.42.09Z"/><path id="Shape-2" data-name="Shape" class="cls-2" d="M1006.77,55.61a2.17,2.17,0,0,1,.5.08c.17.09.29.17.42.25a.83.83,0,0,1,.25.42,2.09,2.09,0,0,1,.08.5v6.06s0,.13,0,.13a.15.15,0,0,1-.12,0h-1.51s-.12,0-.12,0a.18.18,0,0,1,0-.13V61s0-.12-.05-.12a.13.13,0,0,0-.12,0h-2.13s-.13,0-.13,0a.15.15,0,0,0,0,.12v1.91a.19.19,0,0,1-.21.21H1002a.19.19,0,0,1-.21-.21V56.86a2.09,2.09,0,0,1,.08-.5,3.89,3.89,0,0,1,.25-.42,1,1,0,0,1,.42-.25,1.1,1.1,0,0,1,.5-.08Zm-.67,3.57V57.31h-2.55v1.87Z"/><path id="Shape-3" data-name="Shape" class="cls-2" d="M1014.84,55.69a.18.18,0,0,1,0,.13v6.06a2.17,2.17,0,0,1-.08.5,3.86,3.86,0,0,1-.26.42,1,1,0,0,1-.41.25,1.14,1.14,0,0,1-.51.08h-3.26a2.26,2.26,0,0,1-.5-.08l-.41-.25a.93.93,0,0,1-.26-.42,1.1,1.1,0,0,1-.08-.5V59.6a.19.19,0,0,1,.21-.21h1.5a.19.19,0,0,1,.21.21v1.53a.14.14,0,0,0,.05.13.15.15,0,0,0,.12,0h1.55s.12,0,.12,0a.16.16,0,0,0,0-.13V55.86s0-.12.05-.12a.13.13,0,0,1,.12-.05h1.51a.19.19,0,0,1,.25,0Z"/><path id="Shape-4" data-name="Shape" class="cls-2" d="M1021.65,55.61a2.17,2.17,0,0,1,.5.08c.17.09.29.17.42.25a.91.91,0,0,1,.25.42,2.09,2.09,0,0,1,.08.5v5a2.17,2.17,0,0,1-.08.5,2.94,2.94,0,0,1-.25.41.83.83,0,0,1-.42.25,1,1,0,0,1-.5.09h-3.8a1.82,1.82,0,0,1-.51-.09,2.62,2.62,0,0,1-.41-.25.77.77,0,0,1-.25-.41,1,1,0,0,1-.09-.5v-5a1.7,1.7,0,0,1,.09-.5,1.27,1.27,0,0,1,.25-.42,1,1,0,0,1,.41-.25,1.14,1.14,0,0,1,.51-.08Zm-.67,1.83h-2.55V61.3H1021V57.44Z"/><path id="Shape-5" data-name="Shape" class="cls-2" d="M1031.18,63a.09.09,0,0,1,0,.13s0,0-.13,0h-1.71a.27.27,0,0,1-.17,0l-.12-.13-1.13-2s0,0-.08,0h-1.3s0,0,0,0v2a.2.2,0,0,1-.21.21h-1.51a.19.19,0,0,1-.2-.21v-7.1a.19.19,0,0,1,.2-.21h4.89a2.26,2.26,0,0,1,.51.08l.41.25a.83.83,0,0,1,.25.42,1,1,0,0,1,.09.5v2.82a1.3,1.3,0,0,1-.25.75,1.43,1.43,0,0,1-.63.46h0s0,0,0,.08v0l1.21,2Zm-2.13-5.61h-2.59v1.83h2.59V57.35Z"/><path id="Shape-6" data-name="Shape" class="cls-2" d="M1041.34,61.3a.15.15,0,0,1,.12,0,.17.17,0,0,1,0,.13v1.41s0,.12,0,.12a.13.13,0,0,1-.12,0h-4.64a.2.2,0,0,1-.21-.21v-7.1a.19.19,0,0,1,.21-.21h1.5a.19.19,0,0,1,.21.21V61a.16.16,0,0,0,.17.17h2.76v.12Z"/><path id="Shape-7" data-name="Shape" class="cls-2" d="M1048.32,55.69a.18.18,0,0,1,0,.13v1.37a.15.15,0,0,1,0,.12.18.18,0,0,1-.13,0h-3.59s0,0,0,0v1.16s0,0,0,0h3.09a.16.16,0,0,1,.17.17v1.08s0,.12,0,.12a.15.15,0,0,1-.12,0h-3.09s0,0,0,0v.54h0v.63s0,0,0,0h3.59s.13,0,.13,0a.16.16,0,0,1,0,.13v1.32s0,.13,0,.13a.18.18,0,0,1-.13,0h-5.35a.19.19,0,0,1-.21-.21v-7.1s0-.12,0-.12a.15.15,0,0,1,.13-.05h5.35a.58.58,0,0,0,.17.25Z"/><path id="Shape-8" data-name="Shape" class="cls-2" d="M1055.17,55.61a2.17,2.17,0,0,1,.5.08c.17.09.29.17.42.25a.91.91,0,0,1,.25.42,2.09,2.09,0,0,1,.08.5v6.06s0,.13,0,.13a.15.15,0,0,1-.12,0h-1.55s-.13,0-.13,0a.18.18,0,0,1,0-.13V61s0-.12,0-.12a.13.13,0,0,0-.12,0h-2.18s-.12,0-.12,0a.15.15,0,0,0,0,.12v1.91a.2.2,0,0,1-.21.21h-1.51a.2.2,0,0,1-.21-.21V56.86a1.7,1.7,0,0,1,.09-.5,2.74,2.74,0,0,1,.25-.42,1,1,0,0,1,.41-.25,1.14,1.14,0,0,1,.51-.08Zm-.67,3.57V57.31H1052v1.87Z"/><path id="Shape-9" data-name="Shape" class="cls-2" d="M1064.41,59.1a.15.15,0,0,1,0,.12v2.66a1.76,1.76,0,0,1-.09.5,2.74,2.74,0,0,1-.25.42,1,1,0,0,1-.41.25,1.14,1.14,0,0,1-.51.08h-3.8a2.17,2.17,0,0,1-.5-.08c-.17-.09-.29-.17-.42-.25a.91.91,0,0,1-.25-.42,1.1,1.1,0,0,1-.08-.5v-5a2.17,2.17,0,0,1,.08-.5,1.46,1.46,0,0,1,.25-.42.89.89,0,0,1,.42-.24,1,1,0,0,1,.5-.09h4.47c.05,0,.13,0,.13,0a.18.18,0,0,1,0,.13v1.41s0,.12,0,.12a.14.14,0,0,1-.13,0h-3.59s-.13,0-.13,0a.15.15,0,0,0,0,.12v3.49a.15.15,0,0,0,.17.17h2.13a.15.15,0,0,0,.17-.17V59.18s0-.12,0-.12a.15.15,0,0,1,.12,0h1.51a.37.37,0,0,1,.17.08Z"/><path id="Shape-10" data-name="Shape" class="cls-2" d="M1072.35,55.69a.18.18,0,0,1,0,.13v6.06a2.17,2.17,0,0,1-.08.5c-.09.17-.17.29-.25.42a1.07,1.07,0,0,1-.42.25,1.12,1.12,0,0,1-.5.08h-3.81a2.26,2.26,0,0,1-.5-.08c-.17-.09-.29-.17-.42-.25a.91.91,0,0,1-.25-.42,1.1,1.1,0,0,1-.08-.5V55.82a.19.19,0,0,1,.21-.21h1.5a.19.19,0,0,1,.21.21v5.27a.15.15,0,0,0,.17.17h2.13a.18.18,0,0,0,.13,0,.17.17,0,0,0,0-.13V55.82s0-.13,0-.13a.15.15,0,0,1,.12,0h1.51a.17.17,0,0,1,.21,0Z"/><path id="Shape-11" data-name="Shape" class="cls-2" d="M1079.83,55.69a.18.18,0,0,1,0,.13v1.37a.15.15,0,0,1,0,.12.16.16,0,0,1-.13,0h-3.59s0,0,0,0v1.16s0,0,0,0h3.09a.15.15,0,0,1,.17.17v1.08s0,.12,0,.12a.17.17,0,0,1-.13,0h-3.09s0,0,0,0v.54h0v.63s0,0,0,0h3.59s.13,0,.13,0a.16.16,0,0,1,0,.13v1.32s0,.13,0,.13a.16.16,0,0,1-.13,0h-5.35a.19.19,0,0,1-.2-.21v-7.1s0-.12,0-.12a.13.13,0,0,1,.12-.05h5.35a.86.86,0,0,0,.17.25Z"/><path id="Shape-12" data-name="Shape" class="cls-2" d="M1091.41,55.61s.12,0,.12,0a.17.17,0,0,1,0,.13v7.1s0,.12,0,.12a.13.13,0,0,1-.12,0h-1.51s-.12,0-.12,0a.15.15,0,0,1,0-.12V60.39a.16.16,0,0,0-.17-.17h-2.13s-.13,0-.13,0a.17.17,0,0,0,0,.13v2.49a.2.2,0,0,1-.21.21h-1.5a.2.2,0,0,1-.21-.21v-7.1a.19.19,0,0,1,.21-.21h1.5a.19.19,0,0,1,.21.21v2.41a.19.19,0,0,0,.21.2h2.13a.18.18,0,0,0,.13,0,.15.15,0,0,0,0-.12V55.82s0-.13,0-.13a.15.15,0,0,1,.12,0h1.47v0Z"/><path id="Shape-13" data-name="Shape" class="cls-2" d="M1098.39,55.61a2.26,2.26,0,0,1,.5.08c.17.09.29.17.42.25a.91.91,0,0,1,.25.42,2.09,2.09,0,0,1,.08.5v6.06s0,.13,0,.13a.16.16,0,0,1-.13,0H1098s-.13,0-.13,0a.18.18,0,0,1,0-.13V61s0-.12,0-.12a.14.14,0,0,0-.13,0h-2.13s-.12,0-.12,0a.15.15,0,0,0,0,.12v1.91a.2.2,0,0,1-.21.21h-1.51a.2.2,0,0,1-.21-.21V56.86a1.7,1.7,0,0,1,.09-.5,2.74,2.74,0,0,1,.25-.42.94.94,0,0,1,.42-.25,1.08,1.08,0,0,1,.5-.08Zm-.63,3.57V57.31h-2.55v1.87Z"/><path id="Shape-14" data-name="Shape" class="cls-2" d="M1103.28,57.48a.15.15,0,0,0,0,.12v3.49a.17.17,0,0,0,0,.13.15.15,0,0,0,.12,0h3.47s.13,0,.13,0a.16.16,0,0,1,0,.13v1.41s0,.12,0,.12a.18.18,0,0,1-.13,0h-4.3a2.26,2.26,0,0,1-.51-.08,3.68,3.68,0,0,1-.41-.25.81.81,0,0,1-.25-.41,1,1,0,0,1-.09-.5v-5a1.82,1.82,0,0,1,.09-.5,2.62,2.62,0,0,1,.25-.41.81.81,0,0,1,.41-.25,1.14,1.14,0,0,1,.51-.08h4.3s.13,0,.13,0a.15.15,0,0,1,0,.12v1.41s0,.13,0,.13a.18.18,0,0,1-.13,0h-3.47c0,.21-.08.25-.12.25Z"/><path id="Shape-15" data-name="Shape" class="cls-2" d="M1113.1,58.77s0,0,0,.08l2.51,4.11a.09.09,0,0,1,0,.13s0,0-.13,0h-1.8a.24.24,0,0,1-.16,0l-.13-.13-1.63-2.91s0,0,0,0l-.88,1a.21.21,0,0,0-.08.17.36.36,0,0,0,0,.2V63a.2.2,0,0,1-.21.21H1109a.19.19,0,0,1-.2-.21v-7.1a.2.2,0,0,1,.2-.21h1.51a.21.21,0,0,1,.21.21v3.2l2.8-3.24a.67.67,0,0,1,.17-.13.3.3,0,0,1,.16,0h1.8s.08,0,.08,0a.16.16,0,0,1,0,.13l-2.63,3Z"/><path id="Shape-16" data-name="Shape" class="cls-2" d="M1118.91,62.92a.2.2,0,0,1-.21.21h-1.51a.19.19,0,0,1-.2-.21v-7.1a.19.19,0,0,1,.2-.21h1.51a.2.2,0,0,1,.21.21v7.1Z"/><path id="Shape-17" data-name="Shape" class="cls-2" d="M1126.18,55.74a3.92,3.92,0,0,1,.42.24.91.91,0,0,1,.25.42,1.1,1.1,0,0,1,.08.5V63s0,.13,0,.13a.15.15,0,0,1-.12,0h-1.51a.16.16,0,0,1-.17-.17V57.69a.17.17,0,0,0,0-.13.15.15,0,0,0-.12,0h-2.13s-.13,0-.13,0,0,.09,0,.13V63a.2.2,0,0,1-.21.21h-1.51a.19.19,0,0,1-.2-.21v-7.1a.2.2,0,0,1,.2-.21h4.89a.44.44,0,0,1,.38.09Z"/><path id="Shape-18" data-name="Shape" class="cls-2" d="M1134.92,59.1a.15.15,0,0,1,0,.12v2.66a1.76,1.76,0,0,1-.09.5,2.74,2.74,0,0,1-.25.42,1,1,0,0,1-.41.25,1.14,1.14,0,0,1-.51.08h-3.8a2.17,2.17,0,0,1-.5-.08c-.17-.09-.29-.17-.42-.25a.91.91,0,0,1-.25-.42,1.1,1.1,0,0,1-.08-.5v-5a2.17,2.17,0,0,1,.08-.5A1.46,1.46,0,0,1,1129,56a.89.89,0,0,1,.42-.24,1,1,0,0,1,.5-.09h4.47s.13,0,.13,0a.18.18,0,0,1,0,.13v1.41s0,.12,0,.12a.15.15,0,0,1-.13,0h-3.59s-.13,0-.13,0a.15.15,0,0,0,0,.12v3.49a.15.15,0,0,0,.17.17h2.13a.15.15,0,0,0,.17-.17V59.18s0-.12,0-.12a.15.15,0,0,1,.12,0h1.51a.25.25,0,0,1,.17.08Z"/></g><path id="Shape-19" data-name="Shape" class="cls-2" d="M1037.53,3.94a8.13,8.13,0,0,1,2.51,1.7,9,9,0,0,1,1.71,2.49,7.65,7.65,0,0,1,.63,3.08V50.58a1.28,1.28,0,0,1-1.3,1.29h-9.48a1.08,1.08,0,0,1-.88-.37,1.37,1.37,0,0,1-.34-.92V14.78h-7.64v35.8a1.37,1.37,0,0,1-.34.92,1.13,1.13,0,0,1-.88.37h-8.61a1.25,1.25,0,0,1-.92-.37,1.22,1.22,0,0,1-.37-.92V14.78H1004v35.8a1.13,1.13,0,0,1-1.3,1.29h-9.4a1.13,1.13,0,0,1-1.3-1.29V4.6a1.13,1.13,0,0,1,1.3-1.28h41.13a7.84,7.84,0,0,1,3.13.62Z"/><path id="Shape-20" data-name="Shape" class="cls-2" d="M1083.72,40.08a1.18,1.18,0,0,1,.92.37,1.31,1.31,0,0,1,.37,1v9.17a1.38,1.38,0,0,1-.37,1,1.24,1.24,0,0,1-.92.37h-32.48a1.2,1.2,0,0,1-1.38-1.33V4.65a1.2,1.2,0,0,1,1.38-1.33h10a1.2,1.2,0,0,1,1.38,1.33V38.87a1.1,1.1,0,0,0,.42.92,1.33,1.33,0,0,0,1,.33h19.77v0Z"/><path id="Shape-21" data-name="Shape" class="cls-2" d="M1133.62,3.32a1.31,1.31,0,0,1,1,.37,1.35,1.35,0,0,1,.42,1V50.71a1.26,1.26,0,0,1-.42.95,1.32,1.32,0,0,1-1,.38h-10.11a1.36,1.36,0,0,1-1-.38,1.32,1.32,0,0,1-.41-.95V34.63a1.22,1.22,0,0,0-1.34-1.24h-14.17a1.47,1.47,0,0,0-1,.33,1.26,1.26,0,0,0-.42.91V50.71a1.2,1.2,0,0,1-1.38,1.33h-10a1.2,1.2,0,0,1-1.38-1.33V4.65a1.2,1.2,0,0,1,1.38-1.33h10a1.2,1.2,0,0,1,1.38,1.33V20.22a1.2,1.2,0,0,0,1.38,1.33h14.17a1.28,1.28,0,0,0,1.34-1.33V4.65a1.26,1.26,0,0,1,.41-1,1.35,1.35,0,0,1,1-.37Z"/></g></g></g><polygon class="cls-1" points="758.56 60.71 758.56 1.24 760.49 1.24 760.49 60.71 758.56 60.71 758.56 60.71"/><polygon class="cls-1" points="622.51 15.81 626.54 15.81 626.54 46.38 622.51 46.38 622.51 58.09 643.98 58.09 643.98 46.38 640.2 46.38 640.2 37.41 653.06 37.41 653.06 26.2 640.2 26.2 640.2 15.81 651.43 15.81 651.43 19.42 664.83 19.42 664.83 3.84 622.51 3.84 622.51 15.81"/><polygon class="cls-1" points="692.86 3.84 671.39 3.84 671.39 15.81 675.34 15.81 675.34 46.38 671.48 46.38 671.48 58.09 692.86 58.09 692.86 46.38 688.99 46.38 688.99 15.81 692.86 15.81 692.86 3.84"/><polygon class="cls-1" points="725.3 15.84 727.85 15.84 727.84 45.22 727.83 45.22 726.71 46.38 726.71 46.38 717.9 46.38 716.77 45.22 716.77 15.81 719.05 15.81 719.05 3.84 699.26 3.84 699.26 15.81 703.13 15.81 703.13 47.84 712.92 58.09 731.68 58.09 741.49 47.84 741.49 15.81 745.36 15.81 745.36 3.84 725.3 3.88 725.3 15.84"/><path class="cls-1" d="M646.49,60.64H620V43.81h4V18.38h-4V1.31h47.46V22H648.7V18.35h-5.93v5.27l12.88,0v16.4l-12.88,0v3.8h3.72ZM621.3,59.31h23.86V45.15h-3.72V38.69l12.88,0V25l-12.88,0V17H650v3.63H666.1v-18H621.3V17.05h4V45.12h-4Z"/><path class="cls-1" d="M695.37,60.63H668.85V43.81h4V18.35h-4v-17H695.4v17h-3.86V43.81h3.83ZM670.18,59.3H694V45.14h-3.83V17h3.86V2.63H670.18V17h4V45.14h-4Z"/><path class="cls-1" d="M733.07,60.64H711.59l-11-11.58V18.35h-3.82v-17h25v17h-2.41V43.83h5.93V18.34h-2.71v-17h25.33v17H744V49.06Zm-20.91-1.32h20.33L742.7,48.53V17h3.89V2.63H723.92V17h2.7V45.16H718V17h2.41V2.63H698.07V17h3.82V48.53Z"/><path class="cls-1" d="M772.23,7.51h13.55v3.35h-9.56v3.88H785v3.1h-8.78v4.44H786v3.35H772.23Z"/><path class="cls-1" d="M788.3,12.51h3.42v1.82h.08a4.68,4.68,0,0,1,4-2.18c3.83,0,4.8,2.16,4.8,5.41v8.07H797V18.22c0-2.16-.63-3.23-2.31-3.23-2,0-2.79,1.09-2.79,3.76v6.88h-3.6Z"/><path class="cls-1" d="M816,24.79c0,2.16-.76,5.81-6.8,5.81-2.59,0-5.61-1.22-5.79-4.21H807a2.44,2.44,0,0,0,2.69,1.8c2,0,2.92-1.37,2.9-3.25V23.22h0a4.45,4.45,0,0,1-3.94,2c-3.93,0-5.61-3-5.61-6.6,0-3.4,2-6.5,5.64-6.5a4.09,4.09,0,0,1,3.91,2.11h0V12.51H816Zm-3.42-5.89c0-2.13-.74-4-3.08-4-2,0-2.91,1.77-2.91,3.73s.71,3.93,2.91,3.93S812.54,20.78,812.54,18.9Z"/><path class="cls-1" d="M822.56,10.48H819v-3h3.6Zm-3.6,2h3.6V25.63H819Z"/><path class="cls-1" d="M825.4,12.51h3.43v1.82h.08a4.67,4.67,0,0,1,4-2.18c3.83,0,4.79,2.16,4.79,5.41v8.07h-3.6V18.22c0-2.16-.63-3.23-2.31-3.23-1.95,0-2.79,1.09-2.79,3.76v6.88H825.4Z"/><path class="cls-1" d="M843.43,19.94c.1,2.29,1.21,3.33,3.22,3.33a3,3,0,0,0,2.84-1.7h3.17A5.9,5.9,0,0,1,846.52,26c-4.13,0-6.7-2.84-6.7-6.9a6.58,6.58,0,0,1,6.7-6.93c4.47,0,6.63,3.76,6.37,7.79Zm5.86-2.28c-.33-1.83-1.12-2.79-2.87-2.79a2.83,2.83,0,0,0-3,2.79Z"/><path class="cls-1" d="M858,19.94c.11,2.29,1.22,3.33,3.23,3.33a3,3,0,0,0,2.84-1.7h3.17A5.9,5.9,0,0,1,861.09,26c-4.14,0-6.7-2.84-6.7-6.9a6.58,6.58,0,0,1,6.7-6.93c4.47,0,6.62,3.76,6.37,7.79Zm5.87-2.28c-.33-1.83-1.12-2.79-2.87-2.79a2.84,2.84,0,0,0-3,2.79Z"/><path class="cls-1" d="M869.59,12.51H873v2.43h.05a4.64,4.64,0,0,1,4.19-2.79,2.62,2.62,0,0,1,.79.13v3.35a6.35,6.35,0,0,0-1.3-.13c-2.64,0-3.55,1.9-3.55,4.21v5.92h-3.61Z"/><path class="cls-1" d="M883.17,10.48h-3.6v-3h3.6Zm-3.6,2h3.6V25.63h-3.6Z"/><path class="cls-1" d="M886,12.51h3.43v1.82h.08a4.67,4.67,0,0,1,4-2.18c3.83,0,4.79,2.16,4.79,5.41v8.07h-3.6V18.22c0-2.16-.63-3.23-2.31-3.23-1.95,0-2.79,1.09-2.79,3.76v6.88H886Z"/><path class="cls-1" d="M913.68,24.79c0,2.16-.76,5.81-6.8,5.81-2.59,0-5.61-1.22-5.79-4.21h3.58a2.44,2.44,0,0,0,2.69,1.8c2,0,2.92-1.37,2.89-3.25V23.22h0a4.42,4.42,0,0,1-3.93,2c-3.93,0-5.61-3-5.61-6.6,0-3.4,2-6.5,5.63-6.5a4.07,4.07,0,0,1,3.91,2.11h0V12.51h3.43Zm-3.43-5.89c0-2.13-.73-4-3.07-4-2,0-2.92,1.77-2.92,3.73s.72,3.93,2.92,3.93S910.25,20.78,910.25,18.9Z"/><path class="cls-1" d="M782.26,50.05a6.93,6.93,0,0,1-5.11,2.16c-3.27,0-5.86-2-5.86-5.43,0-2.54,1.93-4.27,4.06-5.25a6,6,0,0,1-1.72-3.86c0-2.52,2.31-4.14,4.72-4.14,2.74,0,5,1.47,5,4.34,0,2.11-1.39,3.55-3.22,4.52l2.33,2.87a6.37,6.37,0,0,0,.66-2.16h3.12a8.53,8.53,0,0,1-1.75,4.47l3.68,4.29h-4.41Zm-5-6.19c-1.27.56-2.54,1.52-2.54,3a2.53,2.53,0,0,0,2.59,2.38,4,4,0,0,0,3-1.6Zm1.27-7.92a1.6,1.6,0,0,0-1.63,1.6,4.37,4.37,0,0,0,1.42,2.72c1-.66,1.86-1.27,1.86-2.59A1.72,1.72,0,0,0,778.53,35.94Z"/><path class="cls-1" d="M808.75,39.82a3.91,3.91,0,0,0-4-3.17c-3.58,0-4.93,3.05-4.93,6.22s1.35,6.07,4.93,6.07c2.43,0,3.8-1.68,4.11-4.06h3.85c-.4,4.51-3.52,7.41-8,7.41-5.61,0-8.91-4.19-8.91-9.42s3.3-9.57,8.91-9.57c4,0,7.33,2.34,7.81,6.52Z"/><path class="cls-1" d="M821.47,38.38c4.14,0,6.8,2.74,6.8,6.93s-2.66,6.9-6.8,6.9-6.78-2.74-6.78-6.9S817.36,38.38,821.47,38.38Zm0,11.11c2.46,0,3.2-2.1,3.2-4.18s-.74-4.22-3.2-4.22-3.17,2.11-3.17,4.22S819,49.49,821.47,49.49Z"/><path class="cls-1" d="M830.71,38.73h3.4v1.78h0a4.73,4.73,0,0,1,4-2.13A3.88,3.88,0,0,1,842,40.56a4.79,4.79,0,0,1,4-2.18c2.8,0,4.8,1.29,4.8,4.69v8.79h-3.6V44.42c0-1.75-.16-3.2-2.21-3.2s-2.41,1.68-2.41,3.33v7.31h-3.61V44.49c0-1.52.1-3.27-2.18-3.27-.71,0-2.44.46-2.44,3v7.62h-3.6Z"/><path class="cls-1" d="M853.6,38.73H857v1.68h.05a4.36,4.36,0,0,1,3.91-2c4.11,0,6,3.32,6,7,0,3.51-1.92,6.78-5.76,6.78a4.66,4.66,0,0,1-3.93-2h0v6.24H853.6Zm9.75,6.6c0-2.08-.84-4.24-3.15-4.24s-3.12,2.11-3.12,4.24.81,4.16,3.15,4.16S863.35,47.46,863.35,45.33Z"/><path class="cls-1" d="M881.42,51.86H878V50h-.08a4.68,4.68,0,0,1-4,2.18c-3.83,0-4.8-2.16-4.8-5.41V38.73h3.61v7.41c0,2.16.63,3.23,2.31,3.23,2,0,2.79-1.09,2.79-3.76V38.73h3.6Z"/><path class="cls-1" d="M888.73,38.73h2.64v2.41h-2.64v6.5c0,1.22.31,1.52,1.52,1.52a5.25,5.25,0,0,0,1.12-.1v2.82a14.06,14.06,0,0,1-2.11.13c-2.2,0-4.13-.51-4.13-3.12V41.14h-2.19V38.73h2.19V34.8h3.6Z"/><path class="cls-1" d="M896.8,36.7h-3.6v-3h3.6Zm-3.6,2h3.6V51.86h-3.6Z"/><path class="cls-1" d="M899.65,38.73h3.42v1.83h.08a4.68,4.68,0,0,1,4-2.18c3.83,0,4.8,2.16,4.8,5.4v8.08h-3.61V44.44c0-2.15-.63-3.22-2.31-3.22-1.95,0-2.79,1.09-2.79,3.76v6.88h-3.6Z"/><path class="cls-1" d="M927.31,51c0,2.15-.76,5.81-6.8,5.81-2.59,0-5.61-1.22-5.79-4.21h3.58a2.44,2.44,0,0,0,2.69,1.8c2,0,2.92-1.37,2.89-3.25V49.44h0a4.42,4.42,0,0,1-3.93,2c-3.93,0-5.61-3-5.61-6.59,0-3.41,2-6.5,5.63-6.5a4.08,4.08,0,0,1,3.91,2.1h0V38.73h3.43Zm-3.43-5.89c0-2.13-.73-4-3.07-4-2,0-2.92,1.78-2.92,3.73s.71,3.94,2.92,3.94S923.88,47,923.88,45.13Z"/></svg>