<svg xmlns="http://www.w3.org/2000/svg" xmlns:xlink="http://www.w3.org/1999/xlink" viewBox="0 0 753.92 413.76"><defs><style>.cls-1,.cls-3{mask:url(#mask);}.cls-1{filter:url(#luminosity-noclip-3);}.cls-12,.cls-14,.cls-16,.cls-18,.cls-2,.cls-22,.cls-24,.cls-26,.cls-28,.cls-30,.cls-36,.cls-39,.cls-4,.cls-40,.cls-41,.cls-9{mix-blend-mode:multiply;}.cls-2{fill:url(#linear-gradient);}.cls-3{filter:url(#luminosity-noclip-4);}.cls-4{fill:url(#linear-gradient-2);}.cls-5{isolation:isolate;}.cls-6{fill:url(#linear-gradient-3);}.cls-7{mix-blend-mode:color-dodge;}.cls-36,.cls-40,.cls-7{opacity:0.5;}.cls-8{fill:#4c311e;}.cls-12,.cls-14,.cls-16,.cls-18,.cls-22,.cls-26,.cls-28,.cls-30,.cls-9{opacity:0.3;}.cls-9{fill:url(#linear-gradient-4);}.cls-10{fill:#fff;}.cls-11{fill:url(#linear-gradient-5);}.cls-12{fill:url(#linear-gradient-6);}.cls-13{fill:url(#linear-gradient-7);}.cls-14{fill:url(#radial-gradient);}.cls-15{fill:url(#linear-gradient-8);}.cls-16{fill:url(#linear-gradient-9);}.cls-17,.cls-18{fill:#546b0d;}.cls-19{mask:url(#mask-3);}.cls-20{fill:url(#linear-gradient-10);}.cls-21{mask:url(#mask-4);}.cls-22{fill:url(#linear-gradient-11);}.cls-23,.cls-24{fill:#a9a311;}.cls-24{opacity:0.2;}.cls-25{fill:url(#linear-gradient-12);}.cls-26{fill:url(#linear-gradient-13);}.cls-27{fill:url(#linear-gradient-14);}.cls-28{fill:url(#linear-gradient-15);}.cls-29{fill:url(#linear-gradient-16);}.cls-30{fill:url(#radial-gradient-2);}.cls-31{fill:#ebb85f;}.cls-32{fill:#efa70f;}.cls-33,.cls-36{fill:#b57936;}.cls-34{fill:#f9eeda;}.cls-35{fill:#f8cd0f;}.cls-37{fill:#ffffd1;}.cls-38{fill:#24b2c0;}.cls-39{fill:#e3c08d;opacity:0.9;}.cls-40{fill:#3b2452;}.cls-41{fill:#f3d096;}.cls-42{fill:#df5716;}.cls-43{fill:#ff488e;}.cls-44{filter:url(#luminosity-noclip);}</style><filter id="luminosity-noclip" x="575.64" y="-14854" width="76.93" height="32766" filterUnits="userSpaceOnUse" color-interpolation-filters="sRGB"><feFlood flood-color="#fff" result="bg"/><feBlend in="SourceGraphic" in2="bg"/></filter><mask id="mask" x="575.64" y="-14854" width="76.93" height="32766" maskUnits="userSpaceOnUse"><g class="cls-44"/></mask><linearGradient id="linear-gradient" x1="8.51" y1="-688.18" x2="90.5" y2="-689.36" gradientTransform="matrix(1, 0.05, -0.04, 0.87, 542.67, 717.24)" gradientUnits="userSpaceOnUse"><stop offset="0" stop-color="#f0f0f0"/><stop offset="0.98" stop-color="#fff"/></linearGradient><linearGradient id="linear-gradient-2" x1="50.34" y1="-696.2" x2="42.77" y2="-673.65" gradientTransform="matrix(1, 0.05, -0.04, 0.87, 542.67, 717.24)" gradientUnits="userSpaceOnUse"><stop offset="0" stop-color="#f0f0f0"/><stop offset="0.99" stop-color="#fff"/></linearGradient><linearGradient id="linear-gradient-3" x1="688.35" y1="-2980.37" x2="699" y2="-3123.31" gradientTransform="matrix(1.15, 0.05, -0.03, 0.64, -225.98, 2097.99)" gradientUnits="userSpaceOnUse"><stop offset="0" stop-color="#774e23"/><stop offset="1" stop-color="#aa5c1d"/></linearGradient><linearGradient id="linear-gradient-4" x1="717.13" y1="-2965.88" x2="681.85" y2="-3107.56" xlink:href="#linear-gradient-3"/><linearGradient id="linear-gradient-5" x1="96.53" y1="-723.64" x2="87.69" y2="-681.34" gradientTransform="matrix(1, 0.05, -0.04, 0.87, 542.67, 717.24)" gradientUnits="userSpaceOnUse"><stop offset="0" stop-color="#797d0d"/><stop offset="1" stop-color="#6a6b0d"/></linearGradient><linearGradient id="linear-gradient-6" x1="115.29" y1="-709.11" x2="77.47" y2="-694.84" xlink:href="#linear-gradient-5"/><linearGradient id="linear-gradient-7" x1="128.64" y1="-702.69" x2="84.08" y2="-678.35" gradientTransform="matrix(1, 0.05, -0.04, 0.87, 542.67, 717.24)" gradientUnits="userSpaceOnUse"><stop offset="0.01" stop-color="#bab62c"/><stop offset="1" stop-color="#959d2c"/></linearGradient><radialGradient id="radial-gradient" cx="106.9" cy="-688.42" r="19.86" gradientTransform="matrix(1, 0.05, -0.04, 0.87, 542.67, 717.24)" gradientUnits="userSpaceOnUse"><stop offset="0.01" stop-color="#bab62c"/><stop offset="1" stop-color="#b5b12c"/></radialGradient><linearGradient id="linear-gradient-8" x1="94.13" y1="-723.71" x2="85.29" y2="-681.44" xlink:href="#linear-gradient-5"/><linearGradient id="linear-gradient-9" x1="112.82" y1="-709.17" x2="75.13" y2="-694.96" xlink:href="#linear-gradient-5"/><filter id="luminosity-noclip-3" x="575.64" y="108.17" width="76.93" height="26.2" filterUnits="userSpaceOnUse" color-interpolation-filters="sRGB"><feFlood flood-color="#fff" result="bg"/><feBlend in="SourceGraphic" in2="bg"/></filter><mask id="mask-3" x="575.64" y="108.17" width="76.93" height="26.2" maskUnits="userSpaceOnUse"><g class="cls-1"><path class="cls-2" d="M652.57,134.37s-1.68-.67-4.14-1.56c-4.52-1.63-11.68-4-15.89-4.11l2.64-1.95-11,2.21-4.69-.55,5.19-3.21c-.27.08-8.9,2.46-12.3,3.09l-4.3,1,4.34-4.24c-.29.07-9.67,2.51-11.17,3.46s-5.4.34-5.4.34l2.81-3.14L589,128l2.05-2-11,1.86a16.25,16.25,0,0,1-4-.42l-.46-.1,1.22-1.69c1.27-2,7-8.1,11.1-10.23l7.91,1.6s-4.31-3.27-5.29-3.38c0,0,6.3-2.57,7.76-3.09,0,0,6.63,2,7.69,3.13-.16-.21-2.74-3.44-4.21-3.94,0,0,4.77-1.54,6.33-1.36s8.58,5,8.8,5.18a11.5,11.5,0,0,0-3.23-5.4s6.33,1.6,7.95,2.82,4.2,5.51,4.2,5.51l.53-3.92,8.15,7.17,1,4.1.42-3.07S651,132.61,652.57,134.37Z"/></g></mask><linearGradient id="linear-gradient-10" x1="8.51" y1="-688.18" x2="90.5" y2="-689.36" gradientTransform="matrix(1, 0.05, -0.04, 0.87, 542.67, 717.24)" gradientUnits="userSpaceOnUse"><stop offset="0" stop-color="#bb950d"/><stop offset="0.98" stop-color="#877a04"/></linearGradient><mask id="mask-4" x="575.64" y="108.17" width="76.93" height="26.2" maskUnits="userSpaceOnUse"><g class="cls-3"><path class="cls-4" d="M652.57,134.37s-1.68-.67-4.14-1.56c-6.69-6.08-18.92-14.14-33.74-14.43a83.49,83.49,0,0,0-38.59,9.07l-.46-.1,1.22-1.69c1.27-2,7-8.1,11.1-10.23l7.91,1.6s-4.31-3.27-5.29-3.38c0,0,6.3-2.57,7.76-3.09,0,0,6.63,2,7.69,3.13-.16-.21-2.74-3.44-4.21-3.94,0,0,4.77-1.54,6.33-1.36s8.58,5,8.8,5.18a11.5,11.5,0,0,0-3.23-5.4s6.33,1.6,7.95,2.82,4.2,5.51,4.2,5.51l.53-3.92,8.15,7.17,1,4.1.42-3.07S651,132.61,652.57,134.37Z"/></g></mask><linearGradient id="linear-gradient-11" x1="50.34" y1="-696.2" x2="42.77" y2="-673.65" gradientTransform="matrix(1, 0.05, -0.04, 0.87, 542.67, 717.24)" gradientUnits="userSpaceOnUse"><stop offset="0" stop-color="#bb950d"/><stop offset="0.99" stop-color="#c48a0d"/></linearGradient><linearGradient id="linear-gradient-12" x1="80.79" y1="-669.27" x2="71.91" y2="-633.31" gradientTransform="matrix(1, 0.05, -0.04, 0.87, 542.67, 717.24)" gradientUnits="userSpaceOnUse"><stop offset="0" stop-color="#797d0d"/><stop offset="1" stop-color="#98880d"/></linearGradient><linearGradient id="linear-gradient-13" x1="88.72" y1="-650.97" x2="66.34" y2="-650.65" xlink:href="#linear-gradient-12"/><linearGradient id="linear-gradient-14" x1="29.1" y1="-661.41" x2="81.59" y2="-661.41" xlink:href="#linear-gradient-5"/><linearGradient id="linear-gradient-15" x1="81.76" y1="-675.33" x2="27.8" y2="-654.98" xlink:href="#linear-gradient-5"/><linearGradient id="linear-gradient-16" x1="126.06" y1="-702.73" x2="81.7" y2="-678.5" xlink:href="#linear-gradient-7"/><radialGradient id="radial-gradient-2" cx="81.13" cy="-688.47" r="19.86" gradientTransform="matrix(0.99, 0.05, -0.04, 0.87, 566.38, 718.32)" xlink:href="#radial-gradient"/></defs><g class="cls-5"><g id="Layer_2" data-name="Layer 2"><g id="Layer_1-2" data-name="Layer 1"><path class="cls-6" d="M684.47,198.53l0,.46c-.11,1.32-.25,2.57-.41,3.73,0,.19,0,.38-.08.57-.29,2.07-.63,3.83-.93,5.19,0,.11,0,.22-.08.32-.41,1.82-.73,2.85-.73,2.85-3.29,0-17.71.45-17.71.45.27-.61,3.09-7.48,3.35-8.27l.09-.3c.29-.9.57-1.9.83-3l.15-.63c.28-1.26.54-2.62.76-4.1,0-.23.07-.46.11-.69.17-1.26.32-2.58.43-4h0c0-.25,0-.49,0-.74.12-1.69.18-3.46.18-5.32,0-.17,0-.35,0-.52h0c0-1.35-.06-2.74-.15-4.16h0c0-.24,0-.49,0-.73-.13-1.77-.32-3.58-.59-5.44h0l-.06-.4h0c-.11-.72-.23-1.44-.36-2.17-.07-.42-.16-.85-.25-1.27,0-.19-.08-.38-.13-.57h0a47,47,0,0,0-1.65-5.47h0l-.26-.69c-.48-1.27-1-2.55-1.58-3.82h0l-.18-.39h0c-.65-1.44-1.36-2.87-2.09-4.29h0c-.08-.17-.17-.34-.26-.51h0c-.78-1.5-1.6-3-2.42-4.4h0c-.07-.14-.15-.27-.23-.4h0c-1.11-1.91-2.22-3.74-3.3-5.45-.08-.11-.15-.23-.22-.35h0c-.6-.94-1.19-1.85-1.75-2.71h0c-.11-.17-.23-.33-.32-.5h0l-2-3h0c-.2-.31-.4-.61-.6-.89h0c-1.09-1.63-1.94-2.89-2.42-3.69,0-.09-.11-.18-.15-.26a3.5,3.5,0,0,1-.17-.32,8,8,0,0,1-.71-1.89c-.14-1,.94-.64,3.91,1.23l0,0c.13.08.27.18.43.3h0a34.51,34.51,0,0,1,3.71,3.41h0l.45.47c1,1.09,2.21,2.36,3.45,3.78l.41.47c.88,1,1.8,2.14,2.74,3.3h0l.53.66c1.33,1.66,2.68,3.42,4,5.29h0c.13.17.24.33.36.5q1,1.38,2,2.82h0c.15.23.3.45.46.67,1,1.5,2,3,3,4.61,0,0,0,0,0,0h0c.1.15.19.3.28.45q1.38,2.28,2.63,4.61h0c.1.17.19.34.28.52h0c.74,1.39,1.44,2.79,2.08,4.2h0l.12.25c.87,1.91,1.64,3.82,2.29,5.71.11.33.22.66.32,1h0c0,.15.1.29.14.44h0a53.39,53.39,0,0,1,1.4,5.57h0c.05.21.09.41.13.62h0c.28,1.49.49,3,.64,4.41,0,.24.06.48.08.72.2,2.06.29,4.06.29,6h0c0,.24,0,.48,0,.71h0C684.67,195.28,684.59,197,684.47,198.53Z"/><g class="cls-7"><path class="cls-8" d="M683,208.48c0,.11,0,.22-.08.32a15.68,15.68,0,0,1-1.81-2.61,6.72,6.72,0,0,0-2,1.67c-.07.08-.31.08-.34,0-.27-.89-.19-1.79-.41-2.69a5.87,5.87,0,0,0-2.72,1.7.25.25,0,0,1-.34,0,14.55,14.55,0,0,1-.67-2.26,2,2,0,0,0-1.41,1.55c0,.11-.29.11-.34,0a13.38,13.38,0,0,0-1.08-2.35,12.2,12.2,0,0,0-2.21,1.64.27.27,0,0,1-.3,0c-.52-.51-1-1-1.49-1.54l.09-.3c.54.54,1,1.09,1.58,1.62a7.87,7.87,0,0,1,2.29-1.62.24.24,0,0,1,.27,0,7,7,0,0,1,1,2.05,2.22,2.22,0,0,1,1.67-1.31c.1,0,.23,0,.25.08a17.82,17.82,0,0,0,.6,2.1,7.2,7.2,0,0,1,2.84-1.6c.1,0,.26,0,.28.07.25.84.19,1.68.37,2.52a7.31,7.31,0,0,1,2-1.55.28.28,0,0,1,.28,0A27.19,27.19,0,0,0,683,208.48Z"/><path class="cls-8" d="M684,202.72c0,.19,0,.38-.08.57l-.13.18a.27.27,0,0,1-.33,0c-.59-.84-.74-1.74-1.27-2.59a6.06,6.06,0,0,0-1.43,2.05c0,.1-.29.06-.33,0a11.6,11.6,0,0,1-1.25-2.59,8.18,8.18,0,0,0-3.19,1.86.24.24,0,0,1-.32,0,4.08,4.08,0,0,1-.48-2.18,7.9,7.9,0,0,0-2.7,1.58.27.27,0,0,1-.3,0c-.49-.7-.17-1.41-.34-2.12a5.39,5.39,0,0,0-2.5,2c-.06.08-.31.07-.34,0-.09-.31-.17-.62-.27-.92l.15-.63c.14.38.25.77.36,1.16a5.85,5.85,0,0,1,2.62-1.88c.1,0,.26,0,.28.07.24.68-.08,1.37.24,2a9,9,0,0,1,2.85-1.55c.13-.05.28,0,.29.09a5.24,5.24,0,0,0,.33,2.06,10.55,10.55,0,0,1,3.35-1.84c.09,0,.28,0,.28.07a7.28,7.28,0,0,0,1.1,2.42,5.44,5.44,0,0,1,1.49-1.94c.07,0,.26,0,.31,0,.57.82.74,1.7,1.24,2.53Z"/><path class="cls-8" d="M684.47,198.53l0,.46,0,0a5.23,5.23,0,0,1-1.45-3,3.84,3.84,0,0,0-1.35,2.13c0,.09-.25.12-.33,0-.7-.89-.27-1.85-.61-2.77a9,9,0,0,0-2.55,2.15c-.06.07-.27.09-.33,0-.47-.72-.35-1.48-.75-2.2a2.19,2.19,0,0,0-1.12,1.68c0,.09-.26.13-.33,0-.6-.83-.36-1.71-.72-2.56a7.33,7.33,0,0,0-2,2.42c-.06.09-.31.06-.34,0a4.47,4.47,0,0,0-1.56-2.44,6.46,6.46,0,0,1-.79,2.28c-.05.08-.33.07-.34,0a4.71,4.71,0,0,0-.17-.88c0-.23.07-.46.11-.69a6.6,6.6,0,0,1,.33,1,8.69,8.69,0,0,0,.55-2c0-.09.2-.11.31-.05a3.91,3.91,0,0,1,1.77,2.34,6.62,6.62,0,0,1,2-2.28c.1-.06.27,0,.31.05.42.76.24,1.56.58,2.32a2,2,0,0,1,1.32-1.49c.09,0,.23,0,.27,0,.45.68.36,1.41.7,2.11a9.67,9.67,0,0,1,2.67-2.11.23.23,0,0,1,.28.06c.42.84.05,1.73.46,2.56a3.68,3.68,0,0,1,1.54-2c.09-.06.29,0,.31.05a6.22,6.22,0,0,0,1.21,2.86S684.46,198.56,684.47,198.53Z"/><path class="cls-8" d="M684.67,193.53h0a.3.3,0,0,1,0,.1c0,.08-.27.07-.32,0A12.83,12.83,0,0,1,683,191.3c-.55.65-1.06,1.31-1.54,2a.24.24,0,0,1-.34,0,10.43,10.43,0,0,1-.88-2.13,7,7,0,0,0-1.94,2.07.24.24,0,0,1-.32,0,5.42,5.42,0,0,1-.78-2.32,3.62,3.62,0,0,0-1.57,1.93c-.06.1-.3.06-.34,0a12.49,12.49,0,0,1-.63-2,3.65,3.65,0,0,0-1.24,1.73c0,.11-.29.11-.35,0a7.36,7.36,0,0,0-1.25-2.24,12.88,12.88,0,0,1-.51,2.17c0,.08-.27.07-.33,0a6.38,6.38,0,0,1-.78-1.34h0c0-.25,0-.49,0-.74a8.14,8.14,0,0,0,.84,1.7c.24-.68.24-1.39.46-2.09,0-.07.21-.12.31,0a5,5,0,0,1,1.36,2.14,5.11,5.11,0,0,1,1.38-1.6.23.23,0,0,1,.31,0c.27.61.32,1.23.56,1.84a3.24,3.24,0,0,1,1.73-1.78.24.24,0,0,1,.29.06,9.77,9.77,0,0,0,.64,2.21,7,7,0,0,1,2.08-2c.09-.06.29,0,.32,0a9.37,9.37,0,0,0,.79,2.07,23.62,23.62,0,0,1,1.56-2,.23.23,0,0,1,.33,0,20.63,20.63,0,0,0,1.2,2.27l.24-.46C684.68,193.06,684.68,193.3,684.67,193.53Z"/><path class="cls-8" d="M684.38,186.85a4.91,4.91,0,0,1-1,1.34c-.09.09-.32,0-.32-.08a3.08,3.08,0,0,0-.6-2.22,6.66,6.66,0,0,1-.32,1.86.23.23,0,0,1-.33,0c-.52-.77-.48-1.66-1.32-2.36a8.5,8.5,0,0,1-2,2.08.31.31,0,0,1-.28,0,15.19,15.19,0,0,1-1.93-2.22,5.49,5.49,0,0,1-.93,1.68c-.07.07-.24,0-.3,0-.74-.69-1-1.49-1.77-2.19a17.37,17.37,0,0,1-1.09,2.57c-.06.1-.28.07-.34,0-.42-.74-.87-1.48-1.36-2.21,0-.17,0-.35,0-.52A24.26,24.26,0,0,1,672,187c.45-.82.59-1.68,1-2.5,0-.07.22-.08.29,0a20.07,20.07,0,0,1,1.86,2.24A12.19,12.19,0,0,0,676,185c.05-.09.25-.07.32,0,.78.72,1.11,1.57,2,2.27a9.86,9.86,0,0,0,1.93-2.08.27.27,0,0,1,.3,0c.9.62,1,1.41,1.33,2.15a9.33,9.33,0,0,0,.22-1.82c0-.11.25-.1.33,0a2.9,2.9,0,0,1,1,2.26,4.32,4.32,0,0,0,.92-1.61C684.33,186.37,684.36,186.61,684.38,186.85Z"/><path class="cls-8" d="M683.66,181.72h0a2.83,2.83,0,0,0-.13.63c0,.11-.25.11-.34,0a7.48,7.48,0,0,1-1.61-1.94,11.65,11.65,0,0,1-1.22,1.86.29.29,0,0,1-.33,0,9.81,9.81,0,0,1-1.65-2.4c-.88.76-1.35,1.64-2.15,2.42-.07.08-.29,0-.31,0a24.56,24.56,0,0,0-.93-2.36,2.89,2.89,0,0,0-.7,1.88c0,.09-.27.12-.33,0a12.37,12.37,0,0,0-1.24-2,4.21,4.21,0,0,0-.78,2.31c0,.11-.25.1-.34,0a6.43,6.43,0,0,1-1.31-1.77h0c0-.24,0-.49,0-.73a10.88,10.88,0,0,0,1.38,2.13,4.1,4.1,0,0,1,.92-2.23.23.23,0,0,1,.31,0,6.63,6.63,0,0,1,1.15,1.7,2.83,2.83,0,0,1,.9-1.68.25.25,0,0,1,.31,0,17.14,17.14,0,0,1,.95,2.34,16.67,16.67,0,0,1,2.14-2.36.24.24,0,0,1,.31,0,10.77,10.77,0,0,0,1.56,2.37,13.62,13.62,0,0,0,1.25-2c.05-.1.3-.07.33,0a6.34,6.34,0,0,0,1.47,2,4.5,4.5,0,0,1,.31-.94C683.58,181.31,683.62,181.51,683.66,181.72Z"/><path class="cls-8" d="M682.13,175.53h0a8.88,8.88,0,0,0-.44.94c0,.11-.29.11-.34,0a6,6,0,0,0-2-2.65c0,.93.41,1.86,0,2.77,0,.08-.26.07-.32,0a21.11,21.11,0,0,0-1.8-2.46c-.58.88-.58,1.88-1.66,2.64-.08.06-.28,0-.31,0a10.53,10.53,0,0,0-1.19-2.87c-.53.87-.95,1.76-1.51,2.62a.24.24,0,0,1-.3,0c-.89-.74-1.71-1.51-2.59-2.26h0l-.06-.4c.94.78,1.8,1.6,2.73,2.38.55-.89,1-1.81,1.55-2.7a.24.24,0,0,1,.32,0,9.84,9.84,0,0,1,1.32,2.94c.87-.78.85-1.75,1.51-2.6a.26.26,0,0,1,.32,0,13,13,0,0,1,1.77,2.35c.23-.86-.2-1.75-.09-2.63,0-.1.2-.11.31,0a5.24,5.24,0,0,1,2.17,2.54c.15-.32.33-.64.49-1C682,175.24,682.09,175.38,682.13,175.53Z"/><path class="cls-8" d="M679.38,168.4c-1,.79-.82,2.13-1.44,3a.24.24,0,0,1-.32,0c-.64-.73-1.17-1.47-1.75-2.21-.69.77-.55,1.69-.88,2.53,0,.11-.3.06-.33,0a6.82,6.82,0,0,0-1.4-1.92,8.83,8.83,0,0,0-.37,2.08c0,.11-.26.11-.34,0-.65-.71-1-1.49-1.74-2.18a4.71,4.71,0,0,1-.28,2.37c0,.09-.27.13-.33,0a13.06,13.06,0,0,0-1.22-1.71c0-.19-.08-.38-.13-.57a12.77,12.77,0,0,1,1.45,1.85,3.65,3.65,0,0,0,0-2.42c0-.1.2-.16.31-.07a12.32,12.32,0,0,1,1.94,2.27,8.09,8.09,0,0,1,.43-2c0-.1.23-.12.33,0a8.19,8.19,0,0,1,1.46,1.8c.21-.81.17-1.64,1-2.35a.26.26,0,0,1,.3,0c.58.72,1.1,1.46,1.7,2.17.5-.91.4-2.2,1.51-2.93Z"/><path class="cls-8" d="M677.18,164h0a8.31,8.31,0,0,1-.38,1.82.22.22,0,0,1-.33,0,14.85,14.85,0,0,0-2.22-2.76c0,1,0,1.91,0,2.87,0,.1-.27.12-.33,0a10,10,0,0,0-2.14-2.19c0,.83.52,1.64.23,2.46a.23.23,0,0,1-.33,0,7.46,7.46,0,0,0-2.26-2.43c0,.85.32,1.71,0,2.54,0,.08-.21.13-.31,0a18,18,0,0,1-1.89-2h0l-.26-.69c.78.79,1.35,1.64,2.18,2.41.19-.83-.17-1.67-.05-2.51,0-.07.17-.12.27-.06a6.73,6.73,0,0,1,2.38,2.29c.07-.77-.4-1.54-.3-2.32,0-.08.2-.11.3,0a8.85,8.85,0,0,1,2.17,2c0-.9,0-1.81,0-2.71,0-.09.21-.12.31,0a10.22,10.22,0,0,1,2.35,2.73,14.9,14.9,0,0,0,.34-2C677,163.6,677.09,163.77,677.18,164Z"/><path class="cls-8" d="M674.24,160.22c0,.1-.17.15-.3.08a28.69,28.69,0,0,1-2.7-2c-.18.8.27,1.62.06,2.41,0,.11-.24.11-.33,0-.71-.65-1.2-1.36-2-2a17.21,17.21,0,0,0,.29,2c0,.11-.24.11-.33,0a17.16,17.16,0,0,0-1.6-1.86c-.65.67,0,1.45.16,2.18,0,.09-.2.17-.31.08a12.76,12.76,0,0,0-1.87-1.34h0l-.18-.39a17.88,17.88,0,0,1,1.9,1.26c-.24-.7-.64-1.4.13-2a.28.28,0,0,1,.28,0,6.1,6.1,0,0,1,1.42,1.57,3.57,3.57,0,0,1-.19-1.79c0-.07.2-.12.31,0a16,16,0,0,1,2,2c.06-.78-.34-1.57,0-2.34,0-.07.2-.12.31,0,.9.64,1.64,1.35,2.61,2a7.88,7.88,0,0,1,.11-1.61c.1.15.19.3.28.45A6,6,0,0,0,674.24,160.22Z"/><path class="cls-8" d="M671,154.7c0,.1-.24.11-.33,0a6.63,6.63,0,0,0-2.39-2,5.19,5.19,0,0,1,.73,2.09c0,.09-.21.11-.31,0a13.83,13.83,0,0,0-2.86-1.76,4.08,4.08,0,0,1-.27,2.36c0,.11-.3.07-.34,0a3.67,3.67,0,0,0-1.83-2c-.17.56-.17,1.14-.31,1.7-.08-.17-.17-.34-.26-.51h0a6.61,6.61,0,0,1,.27-1.38.22.22,0,0,1,.28-.06,3.64,3.64,0,0,1,2,1.81,4.14,4.14,0,0,0,.09-2.07c0-.07.1-.14.23-.11a9.27,9.27,0,0,1,2.94,1.69,7.51,7.51,0,0,0-.81-2c0-.07.11-.14.23-.1a5.35,5.35,0,0,1,2.63,1.91,4.13,4.13,0,0,0-.1-1.26c.15.23.3.45.46.67A3.87,3.87,0,0,1,671,154.7Z"/><path class="cls-8" d="M668.6,150.25l-.05,0c-.93-.54-1.69-1.18-2.7-1.67a3.86,3.86,0,0,1,.74,2.51c0,.08-.22.11-.3,0-.84-.7-1.78-1.36-2.72-2a15.43,15.43,0,0,0,.33,1.88c0,.09-.2.16-.31.07-.54-.45-1.06-.89-1.58-1.35a13.14,13.14,0,0,1,.12,1.52c0,.1-.18.16-.31.08-.49-.33-.9-.72-1.42-1.06h0c-.07-.14-.15-.27-.23-.4a11.06,11.06,0,0,1,1.6,1.11,5.2,5.2,0,0,0-.24-1.69c0-.11.23-.14.33,0,.51.47,1,.93,1.6,1.39-.13-.6-.2-1.19-.27-1.79,0-.09.18-.16.31-.07.94.65,1.88,1.31,2.74,2a3.6,3.6,0,0,0-1-2.47c-.09-.09.12-.16.26-.11a14.24,14.24,0,0,1,2.75,1.58h0C668.37,149.92,668.48,150.08,668.6,150.25Z"/><path class="cls-8" d="M664.28,145.86a4.44,4.44,0,0,0-2.57-2.05,2.51,2.51,0,0,1,.68,1.92c0,.1-.26.12-.33,0a5.24,5.24,0,0,0-2.28-1.79c.31.7.53,1.44-.12,2.08a.29.29,0,0,1-.31,0,8.82,8.82,0,0,0-2.48-1.63c-.08-.11-.15-.23-.22-.35a10.87,10.87,0,0,1,2.84,1.74c.49-.62.15-1.36-.16-2-.05-.1.15-.13.27-.09a5.49,5.49,0,0,1,2.45,1.61,3.09,3.09,0,0,0-.83-1.61c-.08-.08.08-.15.22-.12A4.23,4.23,0,0,1,664,145c-.13-.41-.24-.82-.35-1.24l.53.66c.13.45.26.91.4,1.36C664.65,145.92,664.36,146,664.28,145.86Z"/><path class="cls-8" d="M661.1,141.71c-.81-.67-1.76-1.29-2.68-1.92.25.64.33,1.3.64,1.94.05.1-.19.14-.31.07a18.14,18.14,0,0,1-2.07-1.58c.2.8.3,1.6.46,2.41,0,.1-.17.14-.3.07-.73-.43-1.29-.92-1.94-1.37h0c-.11-.17-.23-.33-.32-.5.79.47,1.4,1,2.16,1.52a20,20,0,0,0-.52-2.49c0-.1.2-.16.31-.07.72.52,1.29,1.09,2,1.59a15.26,15.26,0,0,0-.67-2c0-.1.2-.15.3-.07.87.6,1.78,1.18,2.6,1.8a4.13,4.13,0,0,1-.26-1.12l.41.47a2.79,2.79,0,0,0,.46,1.13C661.46,141.72,661.22,141.81,661.1,141.71Z"/><path class="cls-8" d="M657.16,137.38c0,.12-.3.11-.35,0A6.21,6.21,0,0,0,654,135a5.4,5.4,0,0,1,.44,2.31c0,.12-.29.11-.34,0A3.54,3.54,0,0,0,652,135.6a18.87,18.87,0,0,0,.6,2.26c-.2-.31-.4-.61-.6-.89h0a5.1,5.1,0,0,1-.35-1.56c0-.08.17-.1.27-.06a4.62,4.62,0,0,1,2.2,1.36,5.79,5.79,0,0,0-.56-2c0-.08.16-.15.27-.09a9.43,9.43,0,0,1,3,2.13,4.85,4.85,0,0,0-.16-1l.45.47A4.87,4.87,0,0,1,657.16,137.38Z"/><path class="cls-8" d="M653.25,133.32c0,.09-.21.1-.31,0-.81-.45-1.59-.92-2.4-1.38.15.69.78,1.33.8,2,0,.08-.22.11-.31,0a4.55,4.55,0,0,0-1.47-.79c0-.09-.11-.18-.15-.26a5,5,0,0,1,1.53.68c-.16-.67-.76-1.29-.78-2,0-.1.21-.1.31,0,.8.44,1.57.9,2.36,1.36-.1-.28-.29-.65-.39-1l0,0c.13.08.27.18.43.3h0A6.07,6.07,0,0,1,653.25,133.32Z"/></g><path class="cls-9" d="M684.47,198.53l0,.46c-.11,1.32-.25,2.57-.41,3.73,0,.19,0,.38-.08.57-.29,2.07-.63,3.83-.93,5.19,0,.11,0,.22-.08.32-.41,1.82-.73,2.85-.73,2.85-2.33-.12-2.33-.12-9.4.28,10.71-26.32,4.63-41,1.35-49.83-3.2-8.59-20.7-27.08-25.63-31.3-.14-1,.94-.64,3.91,1.23l0,0c.13.08.27.18.43.3h0a34.51,34.51,0,0,1,3.71,3.41h0l.45.47c1,1.09,2.21,2.36,3.45,3.78l.41.47c.88,1,1.8,2.14,2.74,3.3h0l.53.66c1.33,1.66,2.68,3.42,4,5.29h0c.13.17.24.33.36.5q1,1.38,2,2.82h0c.15.23.3.45.46.67,1,1.5,2,3,3,4.61,0,0,0,0,0,0h0c.1.15.19.3.28.45q1.38,2.28,2.63,4.61h0c.1.17.19.34.28.52h0c.74,1.39,1.44,2.79,2.08,4.2h0l.12.25c.87,1.91,1.64,3.82,2.29,5.71.11.33.22.66.32,1h0c0,.15.1.29.14.44h0a53.39,53.39,0,0,1,1.4,5.57h0c.05.21.09.41.13.62h0c.28,1.49.49,3,.64,4.41,0,.24.06.48.08.72.2,2.06.29,4.06.29,6h0c0,.24,0,.48,0,.71h0C684.67,195.28,684.59,197,684.47,198.53Z"/><path class="cls-10" d="M3.45,137.29l28.47-41c12.36,10.81,26.93,16.55,39.29,16.55,6.18,0,9.49-1.55,9.49-4.42,0-2.2-3.09-3.75-12.36-5.07-21.19-3.09-45.69-17-45.69-41.06C22.65,24.72,54.88,0,95.27,0,116,0,135,6.62,146.7,18.1L120.21,55c-13.46-10.37-24.5-12.8-34.43-12.8-5.3,0-9.71,1.32-9.71,4.19,0,2.21,2.86,3.09,10.59,4.2,10.59,1.32,22.07,6.4,29.36,11,11.25,7.51,17.21,16.11,17.21,29.14,0,39.29-32.88,65.55-74.6,65.55C43.62,156.27,24.2,154.73,3.45,137.29Z"/><path class="cls-10" d="M228.56,101.09H201.19l-8.38,52.53H136.74L160.8,1.32h56.07l-8.39,53.42h27.37l8.38-53.42H300.3l-24.06,152.3H220.18Z"/><path class="cls-10" d="M313.83,1.32h108.6l-6.85,43.27h-53l-1.76,11.47h50.32l-6.62,42.16H354.22l-2,11.7h55l-6.84,43.7H289.77Z"/><path class="cls-10" d="M437.48,1.32H494l-16.77,106h48.56l-7.29,46.35H413.42Z"/><path class="cls-10" d="M555.28,1.32h56.5L595,107.27h48.56l-7.29,46.35H531.22Z"/><path class="cls-10" d="M115.44,277.67H88l-8.4,52.62H23.46l24.1-152.57h56.16l-8.4,53.51h27.42l8.4-53.51h56.17L163.2,330.29H107Z"/><path class="cls-10" d="M268.68,309.07H234.85l-8.18,21.22H170.51l72.3-152.35h63.46l23.22,152.35H270.23Zm-21.22-36h19.68l-2.44-42.68Z"/><path class="cls-10" d="M396.94,333c-38.69,0-67.66-22.78-67.66-65.67,0-59,43.56-91.77,92.43-91.77,31.62,0,45.33,13.05,45.33,13.05l-21.67,48.2a42.1,42.1,0,0,0-27.64-10.39c-15.26,0-30.07,11.72-30.07,32.28,0,14.38,8.84,22.34,21.45,22.34,13,0,25.87-6.64,33.61-12.17l8.18,45.78C446.25,318.8,429.67,333,396.94,333Z"/><path class="cls-10" d="M526.53,279.88,521,286.73l-6.86,43.56H458l24.1-152.57h56.17l-7.08,44.67,28.75-44.67h65.45l-54,61.92,32.73,90.65H537.36Z"/><path class="cls-10" d="M606.33,313.93l28.52-41.13c12.39,10.84,27,16.59,39.36,16.59,6.19,0,9.51-1.55,9.51-4.42,0-2.22-3.1-3.76-12.38-5.09-21.23-3.1-45.77-17-45.77-41.13,0-37.59,32.28-62.35,72.74-62.35,20.79,0,39.8,6.63,51.52,18.13L723.3,231.46c-13.49-10.4-24.54-12.83-34.49-12.83-5.31,0-9.73,1.33-9.73,4.2,0,2.21,2.87,3.1,10.61,4.2,10.61,1.33,22.11,6.42,29.41,11.06,11.28,7.52,17.25,16.14,17.25,29.19,0,39.36-33,65.67-74.74,65.67C646.57,333,627.11,331.4,606.33,313.93Z"/><path class="cls-11" d="M681.33,91l-3.89,7.1c-1.11,1.09-6.9,4-6.9,4l-.62.51c.71-.53,5.45-1.18,5.45-1.18l-1.66,2.1c-2.52,1.81-7.14,5.18-7.14,5.18l3.42-.89-2.28,4.4-5.87,4.24,4.15-1.87-1.9,3.32-4.79,5.23,2.71-1.31c-1.61,4.31-9.06,11.39-9.06,11.39l-.27-.3c-6-7.09-3.59-13.57-3.59-13.57l2.89,2.34-2.44-4.31a17.47,17.47,0,0,1,1.9-6.15l2,3.61-.53-4.79c1-3.15,4.56-6.84,4.56-6.84l2.08,3.31-.16-4.89C661.34,99,666.26,96,666.26,96l.18,3.8,1.66-4C671.35,93.05,679,90.93,681.33,91Z"/><path class="cls-12" d="M652.68,132.86c-6-7.09-3.59-13.57-3.59-13.57l2.89,2.34-2.44-4.31a17.47,17.47,0,0,1,1.9-6.15l2,3.61-.53-4.79c1-3.15,4.56-6.84,4.56-6.84l2.08,3.31-.16-4.89C661.34,99,666.26,96,666.26,96l.18,3.8,1.66-4c3.25-2.79,10.88-4.91,13.23-4.86C681.33,91,652.44,109.33,652.68,132.86Z"/><path class="cls-13" d="M695.08,121.07l4.11.05a27.12,27.12,0,0,1-5.3,3.44c-2.63,1.19-8.22-.38-8.22-.38l3.17,1.82c-4.7,1.43-12.9.75-12.9.75l5.94,1.25-2.8,1.28a54.91,54.91,0,0,1-9.94-.39c1.66.39,4.91,1.5,4.91,1.5l-3,1.2c-2.44.79-9.14,1-9.14,1l3.77.18c-4.39,1.89-10.56,1.43-12.78,1.18l-.83-.1s.81-6.37,2.3-8.76,5.19-5,5.19-5l-1.08,5.18a33.47,33.47,0,0,1,9.7-9.21l-1.22,4c1.84-2.6,8-5.6,8-5.6l.86,0L673.6,118l7.25-4.45,2.92-.16-.15,3.13,3.24-3.28c4.16-.7,14.68,1.74,16,3.59Z"/><path class="cls-14" d="M702.82,116.81s-37.86,3.44-49.89,17.12l-.83-.1s.81-6.37,2.3-8.76,5.19-5,5.19-5l-1.08,5.18a33.47,33.47,0,0,1,9.7-9.21l-1.22,4c1.84-2.6,8-5.6,8-5.6l.86,0L673.6,118l7.25-4.45,2.92-.16-.15,3.13,3.24-3.28C691,112.52,701.54,115,702.82,116.81Z"/><path class="cls-15" d="M678.85,90.79,675,97.89c-1.1,1.08-6.86,4-6.86,4l-.62.52c.71-.53,5.42-1.18,5.42-1.18l-1.65,2.1c-2.51,1.81-7.1,5.18-7.1,5.18l3.4-.89L665.3,112l-5.84,4.24,4.13-1.87-1.89,3.32-4.76,5.23,2.69-1.31c-1.6,4.31-9,11.39-9,11.39s-.18-.2-.27-.3c-5.94-7.08-3.56-13.56-3.56-13.56l2.87,2.33-2.43-4.31a17.56,17.56,0,0,1,1.89-6.15l2,3.61-.53-4.79c1-3.15,4.54-6.84,4.54-6.84l2.06,3.31-.15-4.89c1.92-2.54,6.81-5.55,6.81-5.55l.18,3.81,1.65-4C668.93,92.86,676.52,90.74,678.85,90.79Z"/><path class="cls-16" d="M650.35,132.67c-5.94-7.08-3.56-13.56-3.56-13.56l2.87,2.33-2.43-4.31a17.56,17.56,0,0,1,1.89-6.15l2,3.61-.53-4.79c1-3.15,4.54-6.84,4.54-6.84l2.06,3.31-.15-4.89c1.92-2.54,6.81-5.55,6.81-5.55l.18,3.81,1.65-4c3.24-2.79,10.83-4.91,13.16-4.86C678.85,90.79,650.12,109.14,650.35,132.67Z"/><path class="cls-17" d="M655.19,86.1,659.41,83l-1.73,6.23A13.31,13.31,0,0,0,652,97.64l5.53-5.49-.29,6.29c-4.35,2.07-7.35,8.56-7.35,8.56,1-1.43,5-3.84,5-3.84l-.73,5.34-3.11,5,3-1.68c-3.09,6.35-3.23,20.52-3.23,20.52-.56-.6-1.09-1.19-1.6-1.77-11.43-13.17-10.42-24.88-10.42-24.88l3.73,1.47L638.11,103a12.86,12.86,0,0,1,.43-9.28l5.54,4.53-4.23-6.88c-.52-4.29,3.35-10.23,3.35-10.23l4.06,5.39-1.81-7.33c3.35-5,10.23-8.61,13.17-10l1,9.5C658.56,80.7,655.19,86.1,655.19,86.1Z"/><path class="cls-18" d="M655.19,86.1,659.41,83l-1.73,6.23A13.31,13.31,0,0,0,652,97.64l5.53-5.49-.29,6.29c-4.35,2.07-7.35,8.56-7.35,8.56,1-1.43,5-3.84,5-3.84l-.73,5.34-3.11,5,3-1.68c-3.09,6.35-3.23,20.52-3.23,20.52-.56-.6-1.09-1.19-1.6-1.77C640,98.05,658.62,69.2,658.62,69.2l1,9.5C658.56,80.7,655.19,86.1,655.19,86.1Z"/><g class="cls-19"><path class="cls-20" d="M652.57,134.37s-1.68-.67-4.14-1.56c-4.52-1.63-11.68-4-15.89-4.11l2.64-1.95-11,2.21-4.69-.55,5.19-3.21c-.27.08-8.9,2.46-12.3,3.09l-4.3,1,4.34-4.24c-.29.07-9.67,2.51-11.17,3.46s-5.4.34-5.4.34l2.81-3.14L589,128l2.05-2-11,1.86a16.25,16.25,0,0,1-4-.42l-.46-.1,1.22-1.69c1.27-2,7-8.1,11.1-10.23l7.91,1.6s-4.31-3.27-5.29-3.38c0,0,6.3-2.57,7.76-3.09,0,0,6.63,2,7.69,3.13-.16-.21-2.74-3.44-4.21-3.94,0,0,4.77-1.54,6.33-1.36s8.58,5,8.8,5.18a11.5,11.5,0,0,0-3.23-5.4s6.33,1.6,7.95,2.82,4.2,5.51,4.2,5.51l.53-3.92,8.15,7.17,1,4.1.42-3.07S651,132.61,652.57,134.37Z"/></g><g class="cls-21"><path class="cls-22" d="M652.57,134.37s-1.68-.67-4.14-1.56c-6.69-6.08-18.92-14.14-33.74-14.43a83.49,83.49,0,0,0-38.59,9.07l-.46-.1,1.22-1.69c1.27-2,7-8.1,11.1-10.23l7.91,1.6s-4.31-3.27-5.29-3.38c0,0,6.3-2.57,7.76-3.09,0,0,6.63,2,7.69,3.13-.16-.21-2.74-3.44-4.21-3.94,0,0,4.77-1.54,6.33-1.36s8.58,5,8.8,5.18a11.5,11.5,0,0,0-3.23-5.4s6.33,1.6,7.95,2.82,4.2,5.51,4.2,5.51l.53-3.92,8.15,7.17,1,4.1.42-3.07S651,132.61,652.57,134.37Z"/></g><path class="cls-23" d="M649.76,133.9c-.44-.23-.88-.46-1.32-.71-8-4.41-15.18-11.82-15.18-11.82l3.53.16-5.52-3.65a24.68,24.68,0,0,1-7.28-8.45l5.11.24-6.84-4.8-1.24-3,6.86.32-7.73-3.29a14.28,14.28,0,0,1-1.85-6.09l4.47,1.06-4.95-3.15c-2.53-4.75-.67-11-.67-11l3.39,3.09L618.2,78.4c0-3.44,5.29-12.47,7.93-14.57l4.74,12.41-1,7.52c.3-2.05,3.17-2.88,3.17-2.88a47,47,0,0,0-.14,9.38l2-2.85c2,5.93,0,13.43,0,13.43l2.58-5.16.91,6-.21,8.76,2-4.72,1.57,4.2.79,8.28,1.36-3.88C646.68,120.11,649.76,133.9,649.76,133.9Z"/><path class="cls-24" d="M648.44,133.19c-8-4.41-15.18-11.82-15.18-11.82l3.53.16-5.52-3.65a24.68,24.68,0,0,1-7.28-8.45l5.11.24-6.84-4.8-1.24-3,6.86.32-7.73-3.29a14.28,14.28,0,0,1-1.85-6.09l4.47,1.06-4.95-3.15c-2.53-4.75-.67-11-.67-11l3.39,3.09L618.2,78.4c0-3.44,5.29-12.47,7.93-14.57-.39,6.38-1.12,25.41,4.12,38.06C634.43,112,643.29,125.63,648.44,133.19Z"/><path class="cls-25" d="M654.33,157.52c-.18-.36-3.53-1.65-3.69-1.71a8.88,8.88,0,0,1,1.83,3.41c.53,2.74-.66,6.49-.66,6.49l-3-2.37c1,2.71-1.87,7.42-1.87,7.42l-1.29-2.94c-.26,2.65-4.84,6.7-4.84,6.7l.11-2.23c-2.17,2.44-6.29,4.63-7.57,4.37a.43.43,0,0,1-.37-.27c-1-2.58,3-11.35,3-11.35l-4.19.74c2.56-1.45,8.64-7.43,8.64-7.43-1.42,1-6.4,1.25-6.4,1.25,2.17-1.57,9.63-8.49,9.86-8.7a12,12,0,0,1-6,1.64l2.53-1.88,6.1-6.54-3.48.56c4.17-3.12,5.82-9.9,6.14-11.45,0-.21.07-.32.07-.32.19.24.37.48.54.73,3.43,4.82,4.15,11.55,4.15,11.55l-2.12-1.79,1.13,2.47C654.19,150.77,654.51,157.9,654.33,157.52Z"/><path class="cls-26" d="M654.33,157.52c-.18-.36-3.53-1.65-3.69-1.71a8.88,8.88,0,0,1,1.83,3.41c.53,2.74-.66,6.49-.66,6.49l-3-2.37c1,2.71-1.87,7.42-1.87,7.42l-1.29-2.94c-.26,2.65-4.84,6.7-4.84,6.7l.11-2.23c-2.17,2.44-6.29,4.63-7.57,4.37,25.09-29.8,15.83-43.43,15.83-43.43l.61.41c3.43,4.82,4.15,11.55,4.15,11.55l-2.12-1.79,1.13,2.47C654.19,150.77,654.51,157.9,654.33,157.52Z"/><path class="cls-27" d="M651.79,132.53s0,.08,0,.12c-.34,1.21-4.73,6.17-4.73,6.17l-1.35-1.31c-1.75,3.16-7.2,5.86-7.2,5.86l-.76-2.67c-2,3.63-10,7.94-10,7.94l-.29-5-2.94,5.76-4.36,2.27.75-4.62a30.16,30.16,0,0,1-2.69,4.37c-1.32,1.65-8,4.27-8,4.27l-.74.66c.74-.66.19-4.09.19-4.09l-1.91,3c-1.86,2.2-9.66,6.67-9.91,6.81h0A13.67,13.67,0,0,1,603,151.3l-2.87.63c.72-3.84,6.57-7.52,6.57-7.52l-4.66,1.1c.58-1.06,2.67-3.91,2.67-3.91l8.14-3.18-5-.24c4-4.62,12.52-5.76,12.52-5.76l-4-.19c4.61-2.26,12.1-2.06,12.1-2.06l-5.8-1.06c1.08-.41,6.47-1.86,6.47-1.86,3.74-.44,11.4,2.72,11.4,2.72l-4.47-3C641.23,127.21,651.79,131.17,651.79,132.53Z"/><path class="cls-28" d="M651.79,132.53s0,.08,0,.12c-25-4.79-53.48,28.91-53.91,29.41h0A13.67,13.67,0,0,1,603,151.3l-2.87.63c.72-3.84,6.57-7.52,6.57-7.52l-4.66,1.1c.58-1.06,2.67-3.91,2.67-3.91l8.14-3.18-5-.24c4-4.62,12.52-5.76,12.52-5.76l-4-.19c4.61-2.26,12.1-2.06,12.1-2.06l-5.8-1.06c1.08-.41,6.47-1.86,6.47-1.86,3.74-.44,11.4,2.72,11.4,2.72l-4.47-3C641.23,127.21,651.79,131.17,651.79,132.53Z"/><path class="cls-29" d="M692.52,120.87l4.09,0a27,27,0,0,1-5.28,3.45c-2.61,1.18-8.17-.39-8.17-.39l3.16,1.83c-4.68,1.42-12.84.74-12.84.74l5.92,1.26-2.8,1.28a55.15,55.15,0,0,1-9.88-.39c1.65.38,4.88,1.5,4.88,1.5l-3,1.2c-2.43.78-9.1,1-9.1,1l3.75.18c-4.36,1.89-10.5,1.43-12.7,1.19l-.83-.11s.81-6.37,2.29-8.76,5.17-5,5.17-5l-1.08,5.18a33.42,33.42,0,0,1,9.64-9.21l-1.21,4c1.83-2.6,7.94-5.6,7.94-5.6l.85,0-2.21,3.48,7.21-4.44,2.9-.16-.14,3.13,3.22-3.29c4.13-.7,14.6,1.74,15.87,3.59Z"/><path class="cls-30" d="M700.22,116.61s-37.65,3.45-49.62,17.14l-.83-.11s.81-6.37,2.29-8.76,5.17-5,5.17-5l-1.08,5.18a33.42,33.42,0,0,1,9.64-9.21l-1.21,4c1.83-2.6,7.94-5.6,7.94-5.6l.85,0-2.21,3.48,7.21-4.44,2.9-.16-.14,3.13,3.22-3.29C688.48,112.32,699,114.76,700.22,116.61Z"/><path class="cls-31" d="M728,143.27a75.82,75.82,0,0,1-13.92,2,67.37,67.37,0,0,1-16.82-1.34,66.43,66.43,0,0,1-24.19-10.41,48.72,48.72,0,0,1-7.25-6l2.79-.1c2.5.1,6.55.33,11.55.91a155.17,155.17,0,0,1,19.27,3.44c3.47.86,7,1.88,10.59,3.1a91.87,91.87,0,0,1,17.36,7.91C727.83,143.08,728,143.27,728,143.27Z"/><path class="cls-32" d="M680.19,128.29a55.26,55.26,0,0,0-7.09,5.19,48.72,48.72,0,0,1-7.25-6l2.79-.1C671.14,127.48,675.19,127.71,680.19,128.29Z"/><path class="cls-32" d="M710.05,134.83l4.06,10.4a67.37,67.37,0,0,1-16.82-1.34l2.17-12.16Z"/><path class="cls-33" d="M698.37,131.47s-3,8.1-5.57,15.34c-1,3-2,5.82-2.6,7.88C688.12,161.74,682,179,682,179l-1.78.2L691.5,146l5.26-15.1Z"/><path class="cls-34" d="M727.66,142.88l-.25-.14a85.4,85.4,0,0,0-10-5.1,108.58,108.58,0,0,0-12.46-4.44,141.16,141.16,0,0,0-16-3.67c-4.79-.81-9.14-1.33-12.74-1.66-3.14-.28-5.7-.42-7.49-.49s-2.79-.06-2.79-.06a64,64,0,0,1,20.64-7.25,36.24,36.24,0,0,1,12.33.13c.84.17,1.67.38,2.48.61h0C718,125.6,727.66,142.88,727.66,142.88Z"/><path class="cls-35" d="M717.36,137.64a108.58,108.58,0,0,0-12.46-4.44,28.52,28.52,0,0,0-3.6-12.39h0A25.3,25.3,0,0,1,717.36,137.64Z"/><path class="cls-35" d="M698.82,120.2s-9.33,4.07-11.47,9.08c0,0-8.62-1.32-13.66-1.61C673.69,127.67,684.75,117.55,698.82,120.2Z"/><path class="cls-36" d="M698.37,131.47s-3,8.1-5.57,15.34l-1.3-.83,5.26-14.89Z"/><path class="cls-37" d="M718,177.83a40.9,40.9,0,0,1-6.75,5.56,60.65,60.65,0,0,1-7.14,4.2,69,69,0,0,1-10.72,4.3c-.62.2-1.26.38-1.91.56l-.09,0a76.58,76.58,0,0,1-9,1.92h0a80.94,80.94,0,0,1-10.15.91s-14.91-10.49-24.37-11.95c0,0,7.18-.65,16.77-2.5l.06-.06s.08-.06.12-.06h0c3,0,6.22,0,9.53-1.39h.1c4.47-1.38,9.1-1.82,13.53-2.86,0,0,0,0,0,0,2.81-.66,5.54-1.38,8.11-2.12h0c2.34-.67,4.52-1.38,6.49-2.1C702.64,172.25,715.46,173.71,718,177.83Z"/><path class="cls-38" d="M693.42,191.89l-1.91.56-.09,0a76.58,76.58,0,0,1-9,1.92c-5-5.63-12.3-11.09-17.59-13.48l-.12-.07-.06,0,9.78-1.53,0,0a57.5,57.5,0,0,1,10.37,5.95C688.79,188.1,691.57,190.31,693.42,191.89Z"/><path class="cls-38" d="M711.28,183.39a60.65,60.65,0,0,1-7.14,4.2,37.25,37.25,0,0,1-6.35-4.17,63.81,63.81,0,0,0-9.76-7c2.81-.66,5.54-1.38,8.11-2.11h0C701.24,177.16,707.75,181.18,711.28,183.39Z"/><path class="cls-39" d="M647.89,183.36a48.2,48.2,0,0,1,8.53,2.81c3.43,1.66,13.52,7,15.84,9.14,0,0,4.62-.15,7.57-.56s10.43-1.62,15-3.3a95.51,95.51,0,0,0,9.52-3.95,95.64,95.64,0,0,1-12.51,5.17c-5.6,1.69-5.82,1.72-9.23,2.22s-10.19.82-10.53,1.07a29.27,29.27,0,0,0-4.72-3.57c-2.38-1.34-6.79-4-9.41-5.12S647.89,183.36,647.89,183.36Z"/><path class="cls-40" d="M671.42,195.31l.54,0Z"/><path class="cls-40" d="M670,195.37l.66,0Z"/><path class="cls-41" d="M662.34,188c.85,5.11,49.17-3,48.89-12.85C711.1,170.78,661.14,180.82,662.34,188Z"/><path class="cls-10" d="M690.53,178.68a13.13,13.13,0,1,1-4.64-18A13.12,13.12,0,0,1,690.53,178.68Z"/><path class="cls-42" d="M673,166.27c-1.26,7.94,2.42,14.44,7.56,18.8a13.16,13.16,0,0,0,10-6.39,13,13,0,0,0,1.72-5.07C682,162.71,673,166.27,673,166.27Z"/><path class="cls-42" d="M667.9,165.36a13.08,13.08,0,0,0-1.16,10.72c1.27-4.36,3.35-7.64,6.26-9.81A10.41,10.41,0,0,0,667.9,165.36Z"/><path class="cls-42" d="M685.89,160.7a13.13,13.13,0,0,0-13.19-.09,10,10,0,0,0,.15,5.56c4.07-5.1,8.51-6,13.07-5.45Z"/><path class="cls-10" d="M674.57,167.6a2.11,2.11,0,1,1,.08-3.29A2.35,2.35,0,0,1,674.57,167.6Z"/><path class="cls-43" d="M0,383H21.52v7.58h-12v4.22h8.61V402H9.56v11.49H0Z"/><path class="cls-43" d="M35.38,383v23.25h9.21v7.23H25.83V383Z"/><path class="cls-43" d="M63.53,413.76a15.65,15.65,0,1,1,0-31.29,15.65,15.65,0,0,1,0,31.29Zm0-8.91c3.84,0,5.94-2.71,5.94-6.76s-2.1-6.8-5.94-6.8-6,2.67-6,6.8S59.62,404.85,63.53,404.85Z"/><path class="cls-43" d="M97.88,383c7.67,0,11.58,4.4,11.58,10a9,9,0,0,1-6.58,8.83l6.63,11.66H99l-5.72-10.93h0v10.93H83.68V383ZM97,391H93.23v5.17H97c1.81,0,2.76-.78,2.76-2.59A2.45,2.45,0,0,0,97,391Z"/><path class="cls-43" d="M113.59,383h9.56v30.48h-9.56Z"/><path class="cls-43" d="M157.07,398.14c0,8.69-6.11,15.32-15.84,15.32h-12.7V383h12.7C151,383,157.07,389.36,157.07,398.14Zm-16.7,6.8c4.22,0,7-2.37,7-6.8s-2.79-6.8-7-6.8h-2.28v13.6Z"/><path class="cls-43" d="M181.13,408.86H171l-1.5,4.6h-10L170.59,383h11l11.11,30.48H182.64Zm-5.08-15.67-2.75,8.48h5.51Z"/><path class="cls-43" d="M196.54,395.68l1.9-12.7h9.46l-5.07,12.7Z"/><path class="cls-43" d="M225.21,413.76c-7,0-12.44-3.23-12.87-10.07H222.5c.17,2.24,1.37,2.63,2.32,2.63s1.85-.43,1.85-1.51c0-4.13-14.42-2.63-14.25-13,0-6.12,5.17-9.3,11.67-9.3,7.36,0,12.1,3.53,12.35,9.86H226.16c-.09-1.85-1.08-2.41-2.11-2.41a1.36,1.36,0,0,0-1.38,1.54c0,3.84,14.16,3.19,14.16,12.57C236.83,409.63,232.57,413.76,225.21,413.76Z"/><path class="cls-43" d="M259.21,383v23.25h9.22v7.23H249.66V383Z"/><path class="cls-43" d="M292.06,408.86H281.9l-1.51,4.6h-10L281.51,383h11l11.11,30.48H293.56ZM287,393.19l-2.76,8.48h5.51Z"/><path class="cls-43" d="M321.07,383c7.66,0,11.58,4.4,11.58,10a9,9,0,0,1-6.59,8.83l6.63,11.66h-10.5l-5.73-10.93h0v10.93h-9.56V383Zm-.86,8h-3.79v5.17h3.79c1.81,0,2.75-.78,2.75-2.59A2.44,2.44,0,0,0,320.21,391Z"/><path class="cls-43" d="M365.53,393.4H355.46a4.54,4.54,0,0,0-4.09-1.89c-3.7,0-5.77,2.62-5.77,6.67,0,4.74,2.16,7.1,6.85,7.1a6.25,6.25,0,0,0,5.34-2.67h-7.62v-6.75h15.54v9.55a15.89,15.89,0,0,1-14.3,8.27c-9.59,0-15.49-6.42-15.49-15.5s5.85-15.5,15.41-15.5C359.42,382.68,364.63,386.9,365.53,393.4Z"/><path class="cls-43" d="M390.54,390.6H379.78v3.75h9.47v7.19h-9.47v4.3h10.76v7.62H370.22V383h20.32Z"/><path class="cls-43" d="M407.16,413.76c-7,0-12.44-3.23-12.87-10.07h10.16c.17,2.24,1.37,2.63,2.32,2.63s1.85-.43,1.85-1.51c0-4.13-14.42-2.63-14.25-13,0-6.12,5.17-9.3,11.67-9.3,7.36,0,12.09,3.53,12.35,9.86H408.1c-.08-1.85-1.07-2.41-2.11-2.41a1.35,1.35,0,0,0-1.37,1.54c0,3.84,14.16,3.19,14.16,12.57C418.78,409.63,414.52,413.76,407.16,413.76Z"/><path class="cls-43" d="M421.49,383h25.66v7.58h-8.1v22.9H429.5v-22.9h-8Z"/><path class="cls-43" d="M477.84,401.58h-9.09v11.88H459.2V383h9.55v11h9.09V383h9.55v30.48h-9.55Z"/><path class="cls-43" d="M512.31,408.86H502.16l-1.51,4.6h-10L501.77,383h11l11.1,30.48H513.82Zm-5.08-15.67-2.75,8.48H510Z"/><path class="cls-43" d="M541.33,382.68c8,0,13.51,4.83,14.76,12H546a5.19,5.19,0,0,0-4.87-3.18c-3.22,0-5.2,2.62-5.2,6.67s2,6.67,5.2,6.67a5.19,5.19,0,0,0,4.87-3.18h10.07c-1.25,7.19-6.71,12-14.76,12-9.35,0-15.07-6.42-15.07-15.5S532,382.68,541.33,382.68Z"/><path class="cls-43" d="M570.17,400.25v13.21h-9.56V383h9.56v12.83L578.9,383h10.81l-10.5,14.6,11.19,15.88H579Z"/><path class="cls-43" d="M613.73,408.86H603.57l-1.51,4.6H592L603.18,383h11l11.11,30.48H615.23Zm-5.08-15.67-2.76,8.48h5.51Z"/><path class="cls-43" d="M626.81,383h25.66v7.58h-8.1v22.9h-9.55v-22.9h-8Z"/><path class="cls-43" d="M674.76,401.58h-9.08v11.88h-9.56V383h9.56v11h9.08V383h9.56v30.48h-9.56Z"/><path class="cls-43" d="M704.55,413.76a15.65,15.65,0,1,1,15.62-15.67A15.39,15.39,0,0,1,704.55,413.76Zm0-8.91c3.83,0,5.94-2.71,5.94-6.76s-2.11-6.8-5.94-6.8-6,2.67-6,6.8S700.63,404.85,704.55,404.85Z"/><path class="cls-43" d="M753.92,383v30.48h-9.55l-10.12-15.32v15.32h-9.56V383h9.56l10.12,15.59V383Z"/></g></g></g></svg>