<svg xmlns="http://www.w3.org/2000/svg" xmlns:xlink="http://www.w3.org/1999/xlink" viewBox="0 0 1682.92 416.84"><defs><style>.cls-1{isolation:isolate;}.cls-2{fill:#ba4a31;}.cls-3{fill:#dd6c4a;}.cls-4{fill:#592e25;}.cls-5{fill:#e29a60;}.cls-6{fill:#f4b882;}.cls-7{fill:#ea965e;}.cls-8{fill:#c4573d;}.cls-9{fill:#9b3626;}.cls-10{fill:#cc5e44;}.cls-11{fill:#ed985f;}.cls-12{fill:#f2bb64;}.cls-13{mix-blend-mode:overlay;opacity:0.7;fill:url(#linear-gradient);}.cls-14{fill:#a2af85;}.cls-15{fill:#5e7a75;}.cls-16{fill:#729b8f;}.cls-17{fill:#4c6863;}.cls-18{fill:#dcefbf;}.cls-19{fill:#c2d3a3;}.cls-20{fill:#545e49;}.cls-21{fill:#26423f;}.cls-22{fill:#314c49;}.cls-23{fill:#afbc91;}.cls-24{fill:#405e5b;}.cls-25{fill:#99c1ac;}</style><linearGradient id="linear-gradient" x1="4758.08" y1="502.19" x2="4756.95" y2="770.58" gradientTransform="translate(-3276.75 2683.58) rotate(-38.61)" gradientUnits="userSpaceOnUse"><stop offset="0" stop-color="#ffe5a0"/><stop offset="1" stop-color="#170082"/></linearGradient></defs><g class="cls-1"><g id="Layer_2" data-name="Layer 2"><g id="Layer_1-2" data-name="Layer 1"><path class="cls-2" d="M841.07,187c-30,30.37-54.58,45.08-47.6,57.92,6.49,11.94,31.57,16.56-11.74,52s13.48,35.35-9.43,56-4.32,19,11.81-5.18-25.39-16.44,20.12-56.06c52.29-45.53-32.29-38.47,36.13-81C867.06,194.06,841.07,187,841.07,187Z"/><path class="cls-3" d="M881.77,127.15c-31.95,14.9-32.86,16.25-38.91,25-7.57,11,.58,33.95-5.6,56.38,31.15-22.76,36.1-3.6,52.64-27,6.17-8.73,15.08-42.29,6.6-51.11C890.69,124.39,886.86,124.77,881.77,127.15Z"/><polygon class="cls-2" points="839.54 172.65 845.08 176.47 846.63 160.18 839.27 165.29 839.54 172.65"/><path class="cls-2" d="M853.94,184.33c9.3,1.4,28,4.77,26-19.9l14.81,7.2s-7.23,31.56-34.66,26.68Z"/><path class="cls-4" d="M839.32,164.8c7.13.3,15.7-15.81,17.79-25.19C857.11,139.61,833.6,146.38,839.32,164.8Z"/><path class="cls-2" d="M975.08,7.87C960.87,4.3,928.67,1.11,898.91,33c-6.88,7.36,7.47,48.46.41,53.22Z"/><path class="cls-5" d="M967,9.39c-12.28-3.08-40.09-5.84-65.8,21.69-5.94,6.36,6.45,41.86.36,46Z"/><path class="cls-6" d="M961.78,7c-11.62.24-37.16,3.13-55.28,22.58-4.19,4.49,13.46,22.3,8.72,25.56Z"/><path class="cls-3" d="M987.15,0C955,12.94,923.46,24,903.29,58.87s-12.47,58.5-40.71,70.31c-13.07,5.46,13.3,26.7,42.64,30.14-1.59-39.22,39.56-56.14,58.93-82.15C995.28,35.34,987.15,0,987.15,0Z"/><path class="cls-7" d="M874.55,145.15c31.78-17.14,21.31-42.29,40.78-81,14.29-28.45,36.23-43.42,59.9-56.38-25.91,10.24-50.66,20.35-68,48.1-21.51,34.42-14.07,58.39-44.88,71.7-8.28,3.58-2.86,12.43,9.38,20A8.13,8.13,0,0,1,874.55,145.15Z"/><path class="cls-2" d="M941.83,20.56c12.6-7.39,27-9.57,40.08-14.83,0,0-1.32,26.6-32.46,68.42-18.86,25.35-54.36,46.05-54.94,83.13a79.11,79.11,0,0,0,10.71,2c-1.59-39.22,39.56-56.14,58.93-82.15,31.13-41.83,23-77.17,23-77.17C969.62,4.44,954.69,8.67,941.83,20.56Z"/><path class="cls-3" d="M848.7,172c-25.54,4.48-126.37-23.53-88.77,72.81,39.81,102-27.35,48.05-44.14,46.47s-7.39,28.15-5.94,32.42,9.94,26.28,5.91-8.61c-4-34.3,77.27,34.61,69.84-24.08-4.56-36.06-58.51-114,62.45-91.91Z"/><path class="cls-8" d="M758.35,240.56c.5,1.38,1,2.77,1.58,4.2,39.81,102-27.35,48.05-44.14,46.47s-7.39,28.15-5.94,32.42,9.94,26.28,5.91-8.61c-4-34.3,77.27,34.61,69.84-24.08-1.71-13.48-10.31-32.8-14.1-50.57Z"/><path class="cls-2" d="M843.09,194.63c-121-22.08-67,55.85-62.45,91.91,7.43,58.69-73.82-10.22-69.85,24.09,1.15,9.93,1.28,15.24.85,17.67,2.81,6.59,7.26,13.9,4.12-13.26-4-34.3,78.37,36.1,70.94-22.59-4.56-36.06-59.61-115.48,61.35-93.4Z"/><path class="cls-9" d="M767.32,239.38c4.08,16.79,11.72,34.54,13.32,47.16,7.43,58.69-73.82-10.22-69.85,24.09,1.15,9.93,1.28,15.24.85,17.67,2.81,6.59,7.26,13.9,4.12-13.26-4-34.3,78.37,36.1,70.94-22.59-1.65-13.07-9.94-31.84-14.07-49.41Z"/><path class="cls-3" d="M846.89,211.07c6.61,25.56,23.4,91.23-52.63,106.28s-66.89,40.35-55.43,66.8,15.61,17.45,4.51-14.9,61.6-38.27,85-48c26.94-11.19,62.18-67.45,40.88-118.23S846.89,211.07,846.89,211.07Z"/><path class="cls-10" d="M837.48,296c-9,9.61-22.75,17.33-43.22,21.38-76,15-66.89,40.35-55.43,66.8s15.61,17.45,4.51-14.9,61.6-38.27,85-48c11.68-4.85,24.91-18.17,34.42-35.83Z"/><path class="cls-2" d="M851,229.06c3.08,16.86,4.29,38.44-5.79,56.38,13.85-17.35,14.48-40.21,12.32-58.5C856.55,218.78,849.72,222.05,851,229.06Z"/><path class="cls-2" d="M738.12,374.1c-2.9-7.62-5.62-15.14-6.3-22.27-2.28,10.1,2.16,21.11,7,32.32,8.94,20.6,13.42,19.69,9.71,3C748.11,393.33,744.08,389.77,738.12,374.1Z"/><path class="cls-2" d="M825.34,319.57c-23.44,8.52-89.61,7-82.41,38.47,7.16-22.71,65-28.3,85.37-36.77,10.19-4.23,21.56-14.91,30.62-29.31C849.92,303.59,834.55,316.23,825.34,319.57Z"/><path class="cls-3" d="M852,231.81c-2.48-12.38-30.8-37.41-45.9-36.8,9.69-10.68,37.28-10,37.28-10L855,200.64Z"/><path class="cls-2" d="M857,225.71c.1-10-29.4-37.61-46-34.85-2.26,1.15-5.36,2.75-6.9,4.43,15.3-.48,45.06,25.87,47.68,38.35Z"/><path class="cls-2" d="M840.24,166.79c-4.81.2-6.84-3.88,1.13-1.89Z"/><path class="cls-3" d="M857.05,141.14c-3.49-3.31-2-7.61,2.15-.51Z"/><path class="cls-6" d="M841.43,154.67c4.36-1.16,7.66-4,9.46-10.94C846,145.89,843,150.29,841.43,154.67Z"/><path class="cls-2" d="M855.69,136.73c4.55,9.39,23.89,34.73,37.43,39.05l4.15-12.92Z"/><path class="cls-5" d="M960.07,74.36c-6.81,9.15-16.32,17.18-25.72,25.45,13.13-3.45,42.78-2.44,46.91-9.33,21.09-35.18,10.66-64.66,2.71-78.95C983.46,25.65,979.11,48.78,960.07,74.36Z"/><path class="cls-6" d="M940.38,95.19c11.27-3,37.54-5.82,40.81-11.88,15.68-29.05,10.35-52.2,3.53-64.46C983.36,51.71,962.73,75.52,940.38,95.19Z"/><path class="cls-2" d="M844.38,165.14c5.63-4.3,10.69-11.16,12-14.76,0,0-1.27,13.48-12.39,20.17Z"/><polygon class="cls-4" points="845.88 146.48 847.6 151.5 850.07 149.37 846.93 145.7 845.88 146.48"/><path class="cls-5" d="M985.28,16.78c.06,11.92-1.22,38.18-17.66,58.46,0,0,17.31-14.52,21.19-48.65Z"/><polygon class="cls-3" points="866.55 126.43 892.16 137.57 880.98 150.89 861.06 127.89 866.55 126.43"/><path class="cls-11" d="M855.61,122.09c9.07-2.72,26.44,33.47,43.13,35,28.18,2.68,18.87,13,.44,9.46C881,163.09,837.1,127.64,855.61,122.09Z"/><path class="cls-4" d="M875.78,192.57c8.69,1.93,17-14.62,18.25-24.91C894,167.66,866.37,170.16,875.78,192.57Z"/><path class="cls-2" d="M871.65,188.77c-.44-4.81.62-14.34,3.52-17.1,0,0-9.49,4-7,17.74Z"/><path class="cls-6" d="M877.39,183.71c-.9-4.87-.14-9.6,10.89-12.52C881.39,180.46,877.39,183.71,877.39,183.71Z"/><polygon class="cls-4" points="882.89 179.74 879.77 174.09 883.47 171.63 887.05 176.6 882.89 179.74"/><path class="cls-3" d="M854.45,209.63c-3.64,18.85-69,63.29-98.54,72.29s-51.45,64-61.09,106.1-17.9,33.73-10.56,2.74,14.73-96,60.48-115.87,89-76.86,91.55-84.45S854.45,209.63,854.45,209.63Z"/><path class="cls-10" d="M755.73,274.76c-19.42,5.92-36.07,28.32-49.1,55.69l4.89,5.71c11.28-26.26,26.41-48.76,44.39-54.24a90.34,90.34,0,0,0,9.27-3.46l-8.83-3.9Z"/><path class="cls-12" d="M873.27,139.12c-7.16-7.68-13.51-15.18-17.27-14.42-9.42,1.91,2.75,14.85,16.73,25C871.35,145.6,871.43,141.9,873.27,139.12Z"/><path class="cls-12" d="M880.22,154.29c-2.94-2-12.58-19.52,4.65-2.86S880.9,154.76,880.22,154.29Z"/><path class="cls-13" d="M987.15,0A206.35,206.35,0,0,0,966,6.22c-16.4-1.95-42.57.49-67.1,26.76-3.89,4.16-1,19.1,1,32.16-9.93,19.57-11.7,35.27-18,47-3.9,5.7-9.26,10.53-17.63,14.48-3.35-3.29-6.29-5.26-8.67-4.55-6.63,2-5.25,7.81.08,14.64l0,.07c-.88-.09-.89,1.43.24,3.09l-.43.25c-5.12,1.89-20.81,9.06-16.32,24.34-5-.7-3.57,2,.09,2.3l.07,1.87c0,1.25,0,2.52,0,3.83-34.37-.29-113.49-14.81-79.5,72.28,2.6,6.66,4.73,12.65,6.47,18a138.36,138.36,0,0,1-21.66,12.09,68.37,68.37,0,0,0-24,17.65,21.74,21.74,0,0,0-5-1.31c-11.11-1.05-10.7,11.75-8.76,21.69-13.66,26.48-18.23,58.66-22.77,77.84-7.34,31,.92,39.35,10.56-2.74a311.55,311.55,0,0,1,16.7-51.86h0c.61-1.41,1.24-2.82,1.87-4.21l.13.23a3.21,3.21,0,0,0,.19.31l.15.25.2.31a1.18,1.18,0,0,0,.13.18c.1.15.2.28.3.41l.1.12.22.22.11.11a1.3,1.3,0,0,0,.2.15l.1.07a1.24,1.24,0,0,0,.28.11h0a.59.59,0,0,0,.23,0l.08,0a.45.45,0,0,0,.17-.11l.07-.07a1.21,1.21,0,0,0,.17-.25.43.43,0,0,0,0-.07,5,5,0,0,0,.18-.48l0-.14a5,5,0,0,0,.11-.51,2,2,0,0,0,0-.24c0-.19.06-.4.08-.62l0-.27c0-.64.08-1.41.08-2.32,0-.13,0-.28,0-.42,0-.34,0-.7,0-1.08,0-.17,0-.34,0-.52,0-.42,0-.88-.06-1.35l0-.41c0-.16,0-.33,0-.5,1.25-2.53,2.55-5,3.89-7.43.08-.16.17-.31.26-.46.7-1.27,1.42-2.5,2.15-3.73l.34-.57q1.17-1.94,2.37-3.79c0-.06.07-.11.1-.16.74-1.13,1.48-2.22,2.23-3.3,10.34,1.82,25.3,8.59,37.59,10.64a12.36,12.36,0,0,0,.11,8.5c-23.78,8.1-32.63,18-34.24,28.94l0,.16c-.08.6-.15,1.2-.19,1.81v.1a27.9,27.9,0,0,0,0,3.77.62.62,0,0,0,0,.13c0,.62.1,1.24.17,1.87,0,0,0,.09,0,.13.16,1.28.39,2.57.68,3.87,0,0,0,.06,0,.09.15.64.3,1.28.47,1.92a1,1,0,0,0,0,.16c.35,1.32.75,2.64,1.19,4a.08.08,0,0,1,0,0c.22.65.45,1.3.68,1.95,0,.07.05.14.08.2.23.64.47,1.29.72,1.93a.56.56,0,0,0,0,.12c.5,1.31,1,2.63,1.59,3.95l.11.26c.26.63.53,1.26.8,1.89,0,.09.07.17.1.25.28.64.56,1.28.83,1.93.5,1.14,1,2.2,1.45,3.22l.33.69c.45,1,.89,1.89,1.31,2.73l.17.31c.38.76.75,1.45,1.11,2.1l.26.47c.39.68.76,1.3,1.11,1.87l.2.31c.31.48.61.92.9,1.31.06.07.12.16.17.23a12,12,0,0,0,.9,1.07l.17.18a6.37,6.37,0,0,0,.73.63l.06.05a1.88,1.88,0,0,0,.66.28l.13,0a.94.94,0,0,0,.93-.61l.06-.13a3.8,3.8,0,0,0,.25-.87.34.34,0,0,0,0-.1,9.65,9.65,0,0,0,.1-1.18v-.22c0-.48,0-1-.05-1.61a2.46,2.46,0,0,0,0-.26c0-.57-.11-1.19-.2-1.86,0-.07,0-.14,0-.21-.1-.72-.23-1.5-.38-2.33,0-.14,0-.29-.08-.43-.16-.84-.33-1.72-.54-2.65,0,0,0,0,0,0h0a173.07,173.07,0,0,0-5.21-17.87,17.53,17.53,0,0,1-.41-11.21h0a17.14,17.14,0,0,1,1.91-4v0a19.24,19.24,0,0,1,1.34-1.85l0-.06a32.25,32.25,0,0,1,7.74-6.67h0c5.63-3.62,12.83-6.6,20.6-9.16,3.93,4.62,5.87,9.33-2.28,16.67-22.9,20.63-4.32,19,11.81-5.18,4.81-7.19,4.5-11.55,2.9-15.19,7.29-2,14.63-3.7,21.32-5.36l1.32-.33,1.11-.28L813,326l.81-.2,2.31-.61.54-.15,2.36-.65.19-.06c.75-.21,1.48-.42,2.19-.64l.37-.11,2.08-.66.4-.13c.66-.22,1.31-.45,1.92-.67l.29-.11c.64-.24,1.26-.47,1.84-.72s1.38-.6,2.08-.94l.32-.16.6-.33c.4-.2.79-.41,1.18-.64l.64-.36.61-.37.88-.55.88-.58.27-.18.34-.22c.22-.15.44-.32.66-.48l.89-.64.74-.55.71-.56.69-.55c.33-.26.64-.54,1-.8l.83-.71.34-.3c.45-.39.91-.82,1.35-1.23.26-.24.52-.46.77-.71l.3-.29c.61-.59,1.21-1.19,1.82-1.81l.16-.16.87-.92c.35-.38.71-.76,1.06-1.15l.44-.48.83-.94.82-1,.66-.8c.37-.43.73-.88,1.09-1.33l.31-.4c.26-.32.51-.64.77-1l.51-.66c.32-.42.64-.86.95-1.29l.51-.69.65-.91c.36-.51.7-1,1.05-1.53l.22-.31.82-1.25c.34-.52.68-1,1-1.58h0l.06-.11.09-.15c1.25-2,2.45-4.06,3.6-6.19a.35.35,0,0,0,.05-.08h0c12.44-23.1,18.53-53.63,6.46-82.4-.63-1.52-1.25-2.93-1.86-4.26,21.48-1.28,27.41-27.15,27.41-27.15l-.15-.08c.63-1.78,1.24-3.69,1.81-5.68a25.75,25.75,0,0,0,2.79.73c16.84,3.24,26-5.09,6-8.6-.43-27.07,19.63-43.42,38.21-59.77,14.48-1.77,34.51-2.18,37.84-7.75,17.82-29.72,13.14-55.37,6.47-71.23C988.83,7.33,987.15,0,987.15,0ZM786.7,292.45c-.09-.73-.21-1.48-.34-2.24,0-.21-.07-.42-.11-.62-.13-.67-.26-1.34-.4-2,0-.13-.05-.24-.08-.36q-.25-1.18-.57-2.4c-.05-.24-.12-.49-.18-.73-.16-.63-.34-1.28-.51-1.93-.06-.23-.12-.46-.19-.69-.22-.81-.46-1.62-.7-2.45-.1-.32-.19-.64-.29-.95-.17-.57-.34-1.14-.52-1.71-.11-.37-.23-.74-.34-1.11-.2-.6-.39-1.21-.58-1.83l-.81-2.49c0-.07-.05-.14-.07-.22,7.38-4,15.18-8.67,22.85-13.7,4.95,6.92,5.19,16.2-17.13,35.68C786.72,292.61,786.71,292.54,786.7,292.45Zm-10.54-36.69c-1.31-4.25-2.54-8.52-3.53-12.72-5.63-23.94-3.53-45.63,33.57-47.65,5.16.57,11.56,3.59,17.93,7.82-19.59,18-33.52,29.2-31.67,38.83C787.29,246.77,781.83,251.41,776.16,255.76ZM733.68,298.2c.25-.29.49-.58.74-.86.67-.77,1.34-1.5,2-2.22l.76-.81c.8-.82,1.6-1.61,2.41-2.36.13-.12.25-.25.38-.36.94-.87,1.9-1.69,2.86-2.47.22-.17.45-.33.67-.51.73-.57,1.47-1.11,2.21-1.63l1-.66c.65-.42,1.31-.83,2-1.21q.54-.32,1.08-.6c.69-.37,1.39-.7,2.09-1,.32-.15.64-.31,1-.44a32.59,32.59,0,0,1,3.08-1.13c.83-.25,1.7-.54,2.58-.85l.87-.31,1.91-.71,1-.39q1.14-.45,2.34-1c1.79-.75,3.65-1.59,5.57-2.49C780.09,318.69,754,307.63,733.68,298.2ZM837.48,296a59.56,59.56,0,0,1-9.87,8.38l-.17.11c-.68.46-1.38.91-2.09,1.35l-.49.3L823,307.22l-.7.38c-.58.33-1.18.65-1.79,1l-.86.43c-.58.29-1.17.58-1.77.86l-1,.45-1.77.78-1.08.45-1.81.71-1.16.44c-.61.23-1.24.45-1.87.67l-1.22.42-2,.62-1.27.39c-.68.2-1.39.39-2.09.58l-1.27.35c-.77.2-1.57.39-2.37.58l-1.12.27c-1.19.27-2.4.53-3.64.78-4.31.85-8.33,1.74-12.11,2.66.43-5.71,5.43-13.87,22.08-28.36C831.36,268,821.65,258.56,815.58,249c12.22-8.76,23.22-17.91,30.41-25.86,3,3.9,5.13,7.56,5.76,10.48.09.6.18,1.2.27,1.82a2.89,2.89,0,0,0,0,.29q.21,1.56.39,3.15l0,.28c.12,1.08.23,2.17.32,3.28,0,0,0,.08,0,.12.19,2.3.32,4.63.36,7v.07c0,1.15,0,2.3,0,3.46v.24c0,1.14-.07,2.29-.13,3.43a1.94,1.94,0,0,0,0,.24c-.07,1.17-.16,2.34-.28,3.51,0,0,0,0,0,.08a72.45,72.45,0,0,1-1.91,10.76,1.17,1.17,0,0,0-.05.2c-.3,1.13-.63,2.26-1,3.39,0,.08,0,.16-.07.23-.38,1.14-.78,2.26-1.22,3.38,0,0,0,.07,0,.11a57.18,57.18,0,0,1-3.24,6.81h0A54,54,0,0,1,837.48,296Z"/><path class="cls-14" d="M275.76,320.1c-4.93-22.9-11.88-43-1.19-63.22,0,0,19.79-15.29,28.36-8.79C302.93,248.09,312,282.94,275.76,320.1Z"/><path class="cls-14" d="M134.85,253.89c4.17-9.8,6.86-19.07,16.12-23.77,0,0,11.34-.43,12.81,4.24C163.78,234.36,158,249.68,134.85,253.89Z"/><path class="cls-15" d="M26,196.53c-15-33.06-15.43-76.16-12.37-112,0,0,36.25,43,42.95,72.42s.43,42.31,52.33,22.9S252,135.72,258.24,136.11s-7.32-7.51-7.32-7.51,2.42-62.49-9-67.13S290,52.78,332,140.81c0,0,128,12.73,154.79,24.65,1.9.84-2,7.55-2.61,9.29-7.64,22.22-23.3,11.05-17.69,20.8s-3.09,57.87-139.69,88.23C209,310,114.64,212.34,114.64,212.34c-14.41-6.39-27-28.34-44.89-5.2s-44,79.42-68.53,84.91C1.87,248.5,9.39,214.66,26,196.53Z"/><path class="cls-16" d="M112.75,183.43c59.49-24,141.31-24.19,227.5-24.79C393.16,158.27,443,162,486.73,169c.61-1.69.88-3.17.06-3.53C460,153.54,332,139.69,332,139.69c-42-88-101.5-82.7-90-78.22,46.36,18.12,59.69,68.84,59.69,68.84-24.86.5-78.24,6.75-192.72,49.56C57,199.28,63.29,186.37,56.58,157S13.63,84.55,13.63,84.55c6.44,27.17,28.38,48.14,45.44,97C63.84,195.24,70.21,200.61,112.75,183.43Z"/><path class="cls-17" d="M90.42,192.92c75.94,33.92,208.72-37.13,273.8,4.93C259.31,278,178.07,256.63,90.42,192.92Z"/><path class="cls-18" d="M356.37,234.76C239.5,260.93,150.25,223,91.52,192c-6.93.19-11.89,4.61-20.42,1.12-9.09-3.72-9.31-8.21-11.21-8.15-1,0,4.55,9.56,1.74,17.34C44.05,251,15.18,245.55,1.22,292.05c24.41-1.93,51-60.46,69.23-83.26,16.1-20.1,29.49-3,41,6.07,12.4,9.76,95.23,97.57,213,71.39C441,260.36,468,219.86,467.67,202.17,439.19,213.27,402.79,224.37,356.37,234.76Z"/><path class="cls-19" d="M467,202.42c-6,19.86-39,54.2-142.12,77.1-117.81,26.19-200.64-61.63-213-71.38-11.44-9-32.53-18.53-44.51-6.3-.7.73-44,85.79-66.13,90.21,24.41-1.93,51-60.46,69.23-83.26,16.1-20.1,29.49-3,41,6.07,12.4,9.76,95.23,97.57,213,71.39C441,260.36,468,219.86,467.67,202.17Z"/><path class="cls-18" d="M486.46,169.71c-22.37,30.16-98.81-4.14-124.7,7.2-67.56,29.6-30.49,62-116,67.27,66.55,10.24,206,8.25,221.66-37.17,0,0,4-13.6-1.05-16C472.31,190,481.76,189.33,486.46,169.71Z"/><path class="cls-19" d="M293.67,233.72c-2.06,16.15-15.17,75.93-42.05,48.59Z"/><path class="cls-17" d="M212.48,316c5.13-32.23,6.2-64.8,34.39-89.66,0,0,40.2-12.08,47.84,4C294.71,230.29,282.7,286.43,212.48,316Z"/><path class="cls-15" d="M211.93,316.56c7.52-28.71,11.86-57.92,36.92-78.89,0,0,33.24-8.9,37.6,5.9C286.45,243.57,270.9,293.43,211.93,316.56Z"/><path class="cls-19" d="M103.05,242.54c6.6-8.35,11.62-16.59,21.78-18.66,0,0,11.06,2.58,11.25,7.48C136.08,231.36,126.49,244.61,103.05,242.54Z"/><path class="cls-20" d="M377.3,189.34c5.62,4.12,15.88,8.74,35.6,5.13,26.24-4.79,48.49-5.5,55.64-3.67l-.3,2.33c-5.63-1.44-26.46-.93-54.83,4.26-20.17,3.69-34.63.65-41.5-4C367.16,190.25,368.16,182.65,377.3,189.34Z"/><path class="cls-21" d="M404,161.41c-4.17,1.24-4.57,8.82-1.27,12.28C406.87,172,406.76,162.92,404,161.41Z"/><path class="cls-22" d="M329.17,160.33c-4.73,7.68-8.42,43.57,9.7,61.19C329.43,202.69,326.69,185.11,329.17,160.33Z"/><path class="cls-22" d="M312.73,166.24c-4.16,6.76-7.41,38.41,8.56,53.95C313,203.59,310.55,188.09,312.73,166.24Z"/><path class="cls-22" d="M296.7,171.6c-3.53,5.74-6.29,32.59,7.27,45.77C296.91,203.28,294.85,190.14,296.7,171.6Z"/><path class="cls-23" d="M360.44,192.24c.79,3.08,1.35-10.3,15.83-10.25C376.27,182,354.93,170.59,360.44,192.24Z"/><path class="cls-17" d="M250.92,128.6s.73-55.58-10.08-67.27c0,0,53.33,7.2,86.65,79.63l-69.25-4.85C258.16,132.44,255.9,131.31,250.92,128.6Z"/><path class="cls-24" d="M458.48,176.51c.66-13.37,3.09-20,3.34.43Z"/><path class="cls-15" d="M327.49,141c-40.72,6-97,37.56-113.76,32.26-9.54-3-17.74-26.07,44.14-38.07Z"/><path class="cls-16" d="M221.36,303.07c5.3-14,25.88-33,34.1-26.72C255.46,276.35,239.89,293.68,221.36,303.07Z"/><path class="cls-25" d="M470.84,160.2C442.23,158.64,372,149.5,361,142.83,405.47,147.54,432.59,152.51,470.84,160.2Z"/><path class="cls-15" d="M251.1,126.49c34.18-.68,25.83-11.86-.26-12.22Z"/><path class="cls-15" d="M250.3,96c20.93-2.75,15.06-9-1-7.48Z"/><path class="cls-15" d="M250.58,111.11c22.77-1.31,17-8.88-.43-8.49Z"/><path class="cls-17" d="M26,196.53c9.35-7.89,12.37-18.87-3.72-9.76Z"/><path class="cls-17" d="M21,183.43c7.48-5.13,10.52-13-2-7.48Z"/><path class="cls-17" d="M16.66,165.37c8.11-4,11.56-10.8-1.62-7.1Z"/><path class="cls-17" d="M17.8,208.3c25.77-2.52,28-9.13,8.48-13.22Z"/><path class="cls-15" d="M3.17,259.59C47.27,232.9,29.05,287.73,0,293.16Z"/><polygon class="cls-23" points="434.39 193.88 435.38 201.37 439.19 193.47 434.39 193.88"/><polygon class="cls-23" points="398.03 198.96 398.25 213.09 401.05 199.06 398.03 198.96"/><polygon class="cls-23" points="450.23 190.16 450.99 184.63 445.76 190.21 450.23 190.16"/><path class="cls-14" d="M1407.16,313.07c4.93-22.91,11.88-43,1.19-63.22,0,0-19.79-15.3-28.36-8.8C1380,241.05,1370.93,275.91,1407.16,313.07Z"/><path class="cls-14" d="M1548.07,246.85c-4.17-9.8-6.85-19.07-16.12-23.76,0,0-11.34-.44-12.81,4.24C1519.14,227.33,1524.91,242.65,1548.07,246.85Z"/><path class="cls-15" d="M1656.92,189.49c15.06-33.06,15.43-76.15,12.38-112,0,0-36.25,43-43,72.43s-.43,42.31-52.33,22.89-143.12-44.14-149.34-43.75,7.32-7.51,7.32-7.51-2.41-62.5,9-67.14-48.11-8.68-90.06,79.34c0,0-128,12.73-154.8,24.66-1.89.84,2,7.54,2.61,9.28,7.65,22.23,23.31,11,17.69,20.81s3.09,57.86,139.69,88.22c117.81,26.19,212.16-71.43,212.16-71.43,14.41-6.4,27-28.35,44.89-5.2s44,79.42,68.54,84.91C1681.06,241.46,1673.53,207.62,1656.92,189.49Z"/><path class="cls-16" d="M1570.18,176.39c-59.5-24-141.32-24.18-227.5-24.79-52.92-.37-102.77,3.4-146.48,10.35-.62-1.69-.89-3.16-.07-3.52C1223,146.5,1351,132.65,1351,132.65c42-88,101.5-82.69,90-78.22-46.37,18.12-59.69,68.85-59.69,68.85,24.85.5,78.23,6.75,192.72,49.55,51.9,19.42,45.62,6.5,52.33-22.89s43-72.43,43-72.43c-6.44,27.18-28.38,48.14-45.45,97C1619.09,188.2,1612.72,193.57,1570.18,176.39Z"/><path class="cls-17" d="M1592.51,185.88c-76,33.93-208.73-37.13-273.81,4.94C1423.61,270.92,1504.85,249.59,1592.51,185.88Z"/><path class="cls-18" d="M1326.55,227.73c116.87,26.16,206.13-11.81,264.86-42.82,6.93.19,11.89,4.62,20.42,1.13,9.08-3.72,9.3-8.21,11.2-8.16,1,0-4.54,9.56-1.74,17.34,17.58,48.76,46.45,43.29,60.42,89.8-24.41-1.94-51-60.46-69.23-83.26-16.11-20.11-29.5-3-41,6.07-12.4,9.76-95.23,97.57-213,71.38-116.53-25.89-143.53-66.39-143.21-84.08C1243.73,206.23,1280.13,217.33,1326.55,227.73Z"/><path class="cls-19" d="M1215.9,195.38c6,19.87,39,54.2,142.13,77.11,117.81,26.18,200.63-61.63,213-71.39,11.44-9,32.53-18.52,44.51-6.3.71.73,44,85.8,66.14,90.22-24.41-1.94-51-60.46-69.23-83.26-16.11-20.11-29.5-3-41,6.07-12.4,9.76-95.23,97.57-213,71.38-116.53-25.89-143.53-66.39-143.21-84.08Z"/><path class="cls-18" d="M1196.47,162.67c22.36,30.16,98.8-4.14,124.69,7.21,67.56,29.59,30.49,62,116,67.27-66.54,10.24-206,8.24-221.65-37.18,0,0-4-13.6,1-16C1210.62,183,1201.16,182.29,1196.47,162.67Z"/><path class="cls-19" d="M1389.25,226.68c2.06,16.16,15.17,75.93,42,48.6Z"/><path class="cls-17" d="M1470.44,308.93c-5.12-32.23-6.2-64.79-34.39-89.66,0,0-40.2-12.08-47.84,4C1388.21,223.25,1400.22,279.4,1470.44,308.93Z"/><path class="cls-15" d="M1471,309.52c-7.52-28.71-11.85-57.91-36.92-78.88,0,0-33.24-8.9-37.6,5.89C1396.47,236.53,1412,286.39,1471,309.52Z"/><path class="cls-19" d="M1579.87,235.5c-6.6-8.35-11.61-16.58-21.78-18.66,0,0-11.06,2.59-11.25,7.48C1546.84,224.32,1556.43,237.58,1579.87,235.5Z"/><path class="cls-20" d="M1305.62,182.3c-5.62,4.12-15.88,8.74-35.6,5.13-26.23-4.79-48.48-5.5-55.64-3.66l.3,2.32c5.64-1.44,26.47-.93,54.83,4.26,20.17,3.69,34.63.65,41.5-4C1315.76,183.21,1314.76,175.61,1305.62,182.3Z"/><path class="cls-21" d="M1278.92,154.38c4.17,1.24,4.58,8.81,1.27,12.28C1276.06,164.91,1276.16,155.89,1278.92,154.38Z"/><path class="cls-22" d="M1353.76,153.3c4.73,7.67,8.42,43.56-9.7,61.18C1353.49,195.66,1356.24,178.07,1353.76,153.3Z"/><path class="cls-22" d="M1370.19,159.21c4.16,6.76,7.42,38.41-8.56,53.94C1370,196.55,1372.37,181.05,1370.19,159.21Z"/><path class="cls-22" d="M1386.22,164.57c3.53,5.74,6.29,32.58-7.26,45.77C1386,196.25,1388.07,183.1,1386.22,164.57Z"/><path class="cls-23" d="M1322.48,185.2c-.78,3.08-1.34-10.3-15.82-10.25C1306.66,175,1328,163.55,1322.48,185.2Z"/><path class="cls-17" d="M1432,121.57s-.72-55.59,10.08-67.28c0,0-53.33,7.2-86.65,79.63l69.25-4.84C1424.77,125.41,1427,124.27,1432,121.57Z"/><path class="cls-24" d="M1224.44,169.48c-.66-13.38-3.09-20-3.34.43Z"/><path class="cls-15" d="M1355.43,133.92c40.72,6,97,37.57,113.76,32.26,9.55-3,17.74-26.06-44.13-38.06Z"/><path class="cls-16" d="M1461.56,296c-5.3-14-25.88-33-34.09-26.71C1427.47,269.32,1443,286.64,1461.56,296Z"/><path class="cls-25" d="M1212.09,153.17c28.6-1.56,98.88-10.71,109.84-17.37C1277.45,140.51,1250.33,145.47,1212.09,153.17Z"/><path class="cls-15" d="M1431.83,119.46c-34.18-.69-25.84-11.87.25-12.23Z"/><path class="cls-15" d="M1432.62,89c-20.92-2.75-15-9,1-7.48Z"/><path class="cls-15" d="M1432.34,104.08c-22.77-1.32-17-8.89.44-8.5Z"/><path class="cls-17" d="M1656.92,189.49c-9.34-7.89-12.37-18.87,3.73-9.76Z"/><path class="cls-17" d="M1661.94,176.39c-7.48-5.13-10.52-13,2-7.48Z"/><path class="cls-17" d="M1666.27,158.33c-8.12-4-11.57-10.8,1.62-7.1Z"/><path class="cls-17" d="M1665.12,201.27c-25.76-2.52-28-9.13-8.48-13.22Z"/><path class="cls-15" d="M1679.76,252.55c-44.11-26.68-25.88,28.15,3.16,33.57Z"/><polygon class="cls-23" points="1248.54 186.85 1247.55 194.33 1243.74 186.43 1248.54 186.85"/><polygon class="cls-23" points="1284.89 191.93 1284.67 206.05 1281.88 192.03 1284.89 191.93"/><polygon class="cls-23" points="1232.7 183.12 1231.94 177.59 1237.16 183.18 1232.7 183.12"/></g></g></g></svg>