<svg xmlns="http://www.w3.org/2000/svg" viewBox="0 0 610.98 527.97"><defs><style>.cls-1{isolation:isolate}.cls-2{fill:#8ff7ef}.cls-3{mix-blend-mode:luminosity}.cls-4{fill:#ffcd9c}.cls-5{fill:#a83b46}.cls-6{fill:#eaad42}.cls-7{fill:#892937}.cls-8{fill:#ff9e73}.cls-9{fill:#844248}.cls-10{fill:#6d323a}.cls-11{fill:#ef8f6f}.cls-12{fill:#ffa039}.cls-13{fill:#b74646}.cls-14{fill:#ffb640}.cls-15{fill:#93443e}.cls-16{fill:#543732}.cls-17{fill:#90f4e3}.cls-18{mix-blend-mode:multiply;opacity:.8}.cls-19{fill:#4fc9c3}.cls-20{mix-blend-mode:overlay;opacity:.2}.cls-21{fill:#a5f9f1}.cls-22{mix-blend-mode:color;opacity:.7}</style></defs><g class="cls-1"><g id="Layer_2" data-name="Layer 2"><g id="Layer_1-2" data-name="Layer 1"><path d="M542.71,522.39c-1.86-8.95-12.31-15.85-13.61-25-.53-3.76-7.43-1.27-12.42-1.06C500.61,484.17,428,429.29,423,427.5c-5.65-2-39.72-10.4-44.13-17.41-2.87-4.55-4-35-6.95-72.7,14.62,18.36,28,33.9,37.51,40.54,19.65,13.68,143.57,32.43,168.76,36.13,9.64,5.37,22.85,12.81,28.1,25.6,2.9,7,7,6.82,3-3.78-4.37-11.37-15.61-18.62-18.9-29.64-1.26-4.19-6.4.34-13.27-.71-24.92-11.27-94.32-42.48-99.53-43.17-6.29-.83-44.83.78-51.53-4.77S393,288,364,239.91a72.63,72.63,0,0,0-16.61-19.44,26.21,26.21,0,0,0-5.28-4.42,62.14,62.14,0,0,0-39-8.87c-21.28-8.19-44.94-23.44-52.56-55.7-.61-2.59-1.27-5-2-7.33,26.29,10.4,64,21.64,73.13,29.6,11.24,9.78,63.66,46.75,88.18,63.57a58.25,58.25,0,0,0,3.17,5c-.36,4.36,2.65,16.88,5.37,14.65,1.6-1.29-1.73-6.84-.84-9.52a28.14,28.14,0,0,0,3.85,2.8c1.85,1.86,9.9,7.5,10.95,5.42.51-1-4.9-4.72-7.77-6.85.17-.32.34-.65.51-1,3.07,1.63,10.11,5.34,10.74,3.56.4-1.1-6.41-4.77-9.47-6.52.25-.64.47-1.26.65-1.81,3.16,1,7.69,2.4,8.24.79.39-1.1-5.95-2.91-8.93-4.15-2.62-1.9-8.86-4.26-13.45-7.13-23.37-22-75-70.25-85.83-77.69-10.07-6.93-69.42-36.83-95-39.5-.84-.71-1.68-1.37-2.52-2a3.62,3.62,0,0,0-.75-1.21c.42-4.89,1.08-9.95,1.83-14.73a133.44,133.44,0,0,0,17.65-8.12A583.52,583.52,0,0,0,310.11,76l-1.41-6c-18,4.71-33.67,8.19-47.24,10.72,14.11-10.86,23.57-24.66,23-40.26l7.47-2.32,0-.64c3.25,4.25,26.52,13.48,38.71,28.35l.07.08a6.3,6.3,0,0,0-4.39,3.13A6,6,0,1,0,336.65,75a6.3,6.3,0,0,0,.83-2.77A31.51,31.51,0,0,0,360.72,77C342.37,72,339.21,45,326.7,30.36c-12.13-14.19-26.89-4.95-35.23.47l-9.82-3.41C267-10.38,213.44-4.68,198.26,18l0,.07-.15.23c-7.85,6.19-15,16.09-20.16,30.55l-11.53,8.43,7.32,6.62-.21,1c-1.21-.43-3.66-.61-5.72,3.51-1.15-.1-3,.68-4.08,6.13-1,4.9.38,6.87,1.63,7.67.68,4.92,3.65,6.12,5.12,6.42q-.36,5.78-.43,12a81.35,81.35,0,0,0,32.14.3q-.45,1.55-.9,3.12c-.79,2.79-1.55,5.62-2.25,8.44-.25.17-.5.34-.72.51a17.38,17.38,0,0,0-3.8,4.65c-25.07,8.67-62.52,29.83-76.09,28.54-14.7-1.39-65.2-33.76-87.72-48.25a61.35,61.35,0,0,0-6.12-5c-1.09-4.25-8.07-15-9.9-12-1.09,1.74,3.89,5.87,3.93,8.7A27.3,27.3,0,0,0,14,88.22c-2.35-1.13-11.83-3.81-12.14-1.49-.15,1.11,6.19,2.83,9.61,3.89-.06.36-.11.72-.15,1.11C7.88,91.21,0,90,0,91.92c0,1.16,7.63,2.39,11.1,3,0,.68,0,1.33,0,1.9-3.31.1-8.06.29-8,2,0,1.17,6.57.78,9.8,1,2.74.83,8.31,1,13.23,1.92,23.3,19.27,78.63,63.78,92.34,63.52,8.26-.16,38.08-5.56,64.25-13.59-1.85,11-1.7,21.8,2.48,28.4,6.59,10.41,45.84,36.54,81.1,58.42h0a43.64,43.64,0,0,1,3.66,3l-.15.15a28.1,28.1,0,0,1,2.57,2.13q1.55,1.52,3.14,3.23c28.42,32.37,63.48,151.18,84.81,177.18,13.88,16.93,126.67,66,154.3,77.88,7.13,4.37,21,11.09,23.95,22C539.84,529,544.31,530.1,542.71,522.39Z" class="cls-2"/><path d="M344.86,59.34a5.33,5.33,0,1,0-1.8-7.15A5.23,5.23,0,0,0,344.86,59.34Z" class="cls-2"/><path d="M381.48,63.56a3.85,3.85,0,1,0,1.31,5.17A3.76,3.76,0,0,0,381.48,63.56Z" class="cls-2"/><path d="M393.24,49.21a3.85,3.85,0,1,0-1.3-5.17A3.77,3.77,0,0,0,393.24,49.21Z" class="cls-2"/><path d="M159.83,97.75a3.85,3.85,0,1,0-1.3-5.17A3.77,3.77,0,0,0,159.83,97.75Z" class="cls-2"/><path d="M268.24,107a3.85,3.85,0,1,0,1.3,5.17A3.77,3.77,0,0,0,268.24,107Z" class="cls-2"/><g class="cls-3"><path d="M174.28,64.4l-7.91-7.15L183.07,45S177.88,63,174.28,64.4Z" class="cls-4"/><path d="M326.7,30.36C339.21,45,342.37,72,360.72,77a31.34,31.34,0,0,1-30.13-11.16c-12.61-15.38-37.08-24.73-39-28.77l-.87-5.81C298.92,26,314.2,15.75,326.7,30.36Z" class="cls-5"/><polygon points="282.54 41.08 291.92 38.17 291.48 30.83 277.91 26.13 282.54 41.08" class="cls-6"/><path d="M225.17,99.41c35.62-11.75,68.46-38.24,57-70.67-16.94-47.87-94.48-29.08-87.48,6.51C202.75,76.39,225.17,99.41,225.17,99.41Z" class="cls-5"/><path d="M232.2.37c-8.84,12.31,1.44,27.25,9.72,42.13,7.85,14.13,18.57,24.67,29,29.74-11.23,12-28.15,21.36-45.75,27.17,0,0-22.42-23-30.5-64.16C191,16.67,210.42,2.7,232.2.37Z" class="cls-7"/><path d="M222.68,129.82c7.91,12.82,85.29,32,99,43.93S410,237.84,421.17,245l3.22-1.5S341.11,164.56,327,154.88c-10.3-7.09-72.17-38.22-96.68-39.64C221.38,114.72,217.15,120.87,222.68,129.82Z" class="cls-4"/><path d="M229.08,121.39c7.48,13.09,77.72,28.72,91,41.08s86,69.88,96.88,77.36l6.82,3c.41.38.63.6.63.6l-3.22,1.5c-11.15-7.11-85.83-59.3-99.51-71.2s-91.07-31.11-99-43.93c-4.76-7.72-2.27-13.34,4.25-14.41A16.24,16.24,0,0,0,229.08,121.39Z" class="cls-8"/><path d="M293.66,210.84s43.09-16,70.29,29.07C393,288,419.44,352.11,426.05,357.59s45.24,3.94,51.53,4.77S586,409.53,586,409.53l-3.25,5.18S436,386.58,414.07,371.35c-29.93-20.84-102-122.7-128.4-131.37Z" class="cls-4"/><path d="M418.7,365.52c19.76,14.6,143.69,43.16,163.59,47.19l.42,2s-151.35-21.54-173.25-36.78c-29.93-20.83-97.41-129.28-123.79-138l8-29.14a48.16,48.16,0,0,1,8.2-2C338.93,201.88,415.11,362.86,418.7,365.52Z" class="cls-8"/><path d="M235.22,73.9s-10.64,44.18-5.47,59.84l-35.2,4.85c.57-16.35,10.84-53.28,18-63.09Z" class="cls-4"/><path d="M235.08,73.82s-2.21,9.36-4.09,21a75.63,75.63,0,0,0-8.61,12.34c-5.88,10.49-8.76,21-8.44,28.8l-19.26,2.74c.5-16.37,10.62-53.33,17.73-63.17Z" class="cls-8"/><path d="M297,215s58.89-3.28,68,58.24,9.46,129.88,13.87,136.88S417.38,425.5,423,427.5s96.78,71.23,96.78,71.23l.87,5.93S376.1,443.48,360.27,424.17c-22.78-27.78-61.22-161.43-90.52-182.54Z" class="cls-4"/><path d="M360.9,255.39c-98.74-26,12.67,163.7,14.34,165.86,12.41,16.09,109,65.15,144.61,81.86l.83,1.55S376.1,443.48,360.27,424.17c-22.78-27.78-61.22-161.43-90.52-182.54L297,215S348.82,230.57,360.9,255.39Z" class="cls-8"/><path d="M170,100.62s44.43,11,65.76-21.8c10.58-16.27,24.54-46.16,3.42-62.75S170.83,12.69,170,100.62Z" class="cls-4"/><path d="M198.27,113c8.26-6.2,39.6-14.93,52.22,38.49,7.62,32.26,31.28,47.51,52.56,55.7a62.14,62.14,0,0,1,39,8.87c15.3,9.55,18.55,36.59,18.84,39.34-26.43-20.92-59.13-23.78-73.65-6.14a28.84,28.84,0,0,0-4.36,7.22,77.24,77.24,0,0,0-16.65-18h0c-35.26-21.88-74.51-48-81.1-58.42C174.48,163.21,190,119.19,198.27,113Z" class="cls-9"/><path d="M204.62,109.81c-5.76,16.54,6.4,46.73,27.17,69.93,21.17,23.66,55.34,36.89,75.75,33.89,22.92-3.37,50.37,13.82,53.36,41.76-26.43-20.92-59.13-23.78-73.65-6.14a28.84,28.84,0,0,0-4.36,7.22,77.24,77.24,0,0,0-16.65-18h0c-35.26-21.88-74.51-48-81.1-58.42C174.48,163.21,190,119.19,198.27,113A23.21,23.21,0,0,1,204.62,109.81Z" class="cls-10"/><path d="M197.77,137.59c-.14-12.56,6.56-22.85,15-23s15.35,10,15.49,22.52-6.56,22.84-15,23S197.91,150.15,197.77,137.59Z" class="cls-8"/><path d="M214.79,114.68c-15.95-6.13-78,33.24-96.41,31.5-17.89-1.7-88.78-49.25-97.78-54.66l-5,1.48s85.65,68.56,103.16,68.2c13-.26,78.55-12.41,99.91-28.54C226.48,126.8,226.26,119.1,214.79,114.68Z" class="cls-4"/><path d="M226,81.94c-10.39-23.1,18.65-52.76,3.95-72.79,0,0,46.34,18.75,21.2,51.86Z" class="cls-5"/><path d="M252.7,58.54c-1.11,6.89-11.81,17.84-26.73,23.4-6.32-14,1.93-30.53,6.08-45.78C238,37.9,248.16,47.42,252.7,58.54Z" class="cls-7"/><path d="M248.6,61.86c6.64,9.81-9,17.45-22.71,27.63l-4.24-13.15C225.3,67.42,242,52.05,248.6,61.86Z" class="cls-4"/><path d="M240.78,68.29c4.08,6-5.51,10.73-13.91,17l-2.62-8.09C226.49,71.7,236.71,62.26,240.78,68.29Z" class="cls-11"/><path d="M174.24,65.22c6.25,5.82,3,20.21-3,23.46,0,0-8.24.11-5.54-13.75S174.24,65.22,174.24,65.22Z" class="cls-12"/><path d="M168.76,68.7c3.73,3.48,1.77,12.06-1.78,14,0,0-4.91.06-3.3-8.2S168.76,68.7,168.76,68.7Z" class="cls-13"/><path d="M223.19,79.15c1.67-3.27,4.6-5.12,6.53-4.15s2.18,4.44.51,7.71-4.59,5.14-6.53,4.15S221.53,82.43,223.19,79.15Z" class="cls-4"/><path d="M308.7,70l1.41,6s-134.93,38.13-139.47-.49l2.2-2S175.49,104.78,308.7,70Z" class="cls-14"/><path d="M239,84.34q-3.57,3.52-6.72,7.12c-30.86,3.3-59.59,1.54-61.65-15.93l2.2-2S174.47,92.68,239,84.34Z" class="cls-12"/><path d="M120.39,156.33c13-.83,78.43-20,99.18-37.09.44-.37.86-.75,1.26-1.13,5.09,4.37,4.72,13-1.29,17.48-21.36,16.09-88.1,29.4-101.13,29.65C100.92,165.58,15.64,93,15.64,93l10.72,7C42.76,112.6,105,157.31,120.39,156.33Z" class="cls-8"/><polygon points="236.32 182.93 252.99 214.78 255.19 193.9 236.32 182.93" class="cls-9"/><path d="M529.1,497.41c1.3,9.13,11.75,16,13.61,25,1.6,7.71-2.87,6.6-4.19,1.67-3.11-11.72-18.93-18.61-25.4-22.93l1.64-4.84C519.67,496.94,528.49,493.14,529.1,497.41Z" class="cls-4"/><path d="M590.38,406.24c3.29,11,14.53,18.27,18.9,29.64,4.07,10.6-.06,10.83-3,3.78-6.41-15.6-24.65-23.24-33.81-28.87l1.55-6.1C582.42,408.05,589,401.45,590.38,406.24Z" class="cls-4"/><path d="M12.73,87.94C17.66,89,22.48,90,32.65,99.8l-2.43,2.91C23.7,100.57,13,100.93,11.34,99,10.78,98.38,11,87.56,12.73,87.94Z" class="cls-4"/><path d="M14,99.92c-2.34-.45-11,.26-11-1.08,0-2.07,7.06-1.91,10-2C16.79,96.62,14,99.92,14,99.92Z" class="cls-4"/><path d="M13.16,91.19C11,90.3,1.69,88.07,1.87,86.73c.31-2.35,10.07.43,12.24,1.54C17.42,90,13.16,91.19,13.16,91.19Z" class="cls-4"/><path d="M17.45,91.45c4-2.4-4.18-8.37-2.81-10.55,1.86-3.06,9.1,8.24,10,12.29S17.45,91.45,17.45,91.45Z" class="cls-4"/><path d="M12.3,95.18C10,94.66,0,93.25,0,91.92c0-2.12,10-.38,12.39,0C16.05,92.44,12.3,95.18,12.3,95.18Z" class="cls-4"/><path d="M422.5,251c-4.3-2.63-8.51-5.16-14.87-17.77l3.25-2c5.45,4.18,15.65,7.36,16.6,9.71C427.78,241.72,424,251.87,422.5,251Z" class="cls-4"/><path d="M425.25,239.21c2.06,1.19,10.43,3.38,10,4.64-.67,2-7.28-.53-10.07-1.36C421.54,241.41,425.25,239.21,425.25,239.21Z" class="cls-4"/><path d="M423.18,247.74c1.76,1.57,9.78,6.73,9.16,7.94-1.07,2.12-9.34-3.73-11-5.5C418.75,247.51,423.18,247.74,423.18,247.74Z" class="cls-4"/><path d="M419.21,246.08c-4.6.93,1.18,9.28-.83,10.9-2.77,2.27-5.86-10.8-5.34-14.9S419.21,246.08,419.21,246.08Z" class="cls-4"/><path d="M425.3,244.25c2,1.26,11,5.88,10.52,7.14-.71,2-9.51-2.93-11.68-4C420.86,245.6,425.3,244.25,425.3,244.25Z" class="cls-4"/><path d="M213.79,45c-3.64-6.91-8.6-14.31-21.94-13.4,1.89-2.18,9.19-5.07,14.47-1.46C213.37,35,213.79,45,213.79,45Z" class="cls-15"/><path d="M204.71,49.83c-2.6-4.62-5.89-9.37-13.9-10.09,0,0,3.58-3.3,8.73.53C204.24,43.76,204.71,49.83,204.71,49.83Z" class="cls-16"/><path d="M189.07,45.44c1.47-4.06,5.25-6.21,8.35-5.11,2.89,1.05,4.37,4.72,3.42,8.43-1,4-4.51,6.84-7.91,6.17C189.28,54.2,187.49,49.8,189.07,45.44Z" class="cls-16"/><path d="M336.65,75a6,6,0,1,0-8.27,2.46A6.11,6.11,0,0,0,336.65,75Z" class="cls-17"/><path d="M351.93,57.24a5.11,5.11,0,1,0-7.07,2.1A5.22,5.22,0,0,0,351.93,57.24Z" class="cls-17"/><path d="M382.79,68.73a3.69,3.69,0,1,0-5.11,1.52A3.78,3.78,0,0,0,382.79,68.73Z" class="cls-17"/><path d="M398.35,47.69a3.69,3.69,0,1,0-5.11,1.52A3.76,3.76,0,0,0,398.35,47.69Z" class="cls-17"/><path d="M164.94,96.23a3.69,3.69,0,1,0-5.11,1.52A3.77,3.77,0,0,0,164.94,96.23Z" class="cls-17"/><path d="M269.54,112.13a3.69,3.69,0,1,0-5.11,1.52A3.77,3.77,0,0,0,269.54,112.13Z" class="cls-17"/><path d="M229.27,116.7a3.69,3.69,0,1,0-5.11,1.52A3.78,3.78,0,0,0,229.27,116.7Z" class="cls-17"/><g class="cls-18"><path d="M159.83,97.75a3.85,3.85,0,1,0-1.3-5.17A3.77,3.77,0,0,0,159.83,97.75Z" class="cls-19"/><path d="M268.24,107a3.85,3.85,0,1,0,1.3,5.17A3.77,3.77,0,0,0,268.24,107Z" class="cls-19"/></g><g class="cls-20"><path d="M344.86,59.34a5.33,5.33,0,1,0-1.8-7.15A5.23,5.23,0,0,0,344.86,59.34Z" class="cls-21"/><path d="M381.48,63.56a3.85,3.85,0,1,0,1.31,5.17A3.76,3.76,0,0,0,381.48,63.56Z" class="cls-21"/><path d="M393.24,49.21a3.85,3.85,0,1,0-1.3-5.17A3.77,3.77,0,0,0,393.24,49.21Z" class="cls-21"/><path d="M159.83,97.75a3.85,3.85,0,1,0-1.3-5.17A3.77,3.77,0,0,0,159.83,97.75Z" class="cls-21"/><path d="M268.24,107a3.85,3.85,0,1,0,1.3,5.17A3.77,3.77,0,0,0,268.24,107Z" class="cls-21"/></g></g><g class="cls-22"><path d="M174.28,64.4l-7.91-7.15L183.07,45S177.88,63,174.28,64.4Z" class="cls-4"/><path d="M326.7,30.36C339.21,45,342.37,72,360.72,77a31.34,31.34,0,0,1-30.13-11.16c-12.61-15.38-37.08-24.73-39-28.77l-.87-5.81C298.92,26,314.2,15.75,326.7,30.36Z" class="cls-5"/><polygon points="282.54 41.08 291.92 38.17 291.48 30.83 277.91 26.13 282.54 41.08" class="cls-6"/><path d="M225.17,99.41c35.62-11.75,68.46-38.24,57-70.67-16.94-47.87-94.48-29.08-87.48,6.51C202.75,76.39,225.17,99.41,225.17,99.41Z" class="cls-5"/><path d="M232.2.37c-8.84,12.31,1.44,27.25,9.72,42.13,7.85,14.13,18.57,24.67,29,29.74-11.23,12-28.15,21.36-45.75,27.17,0,0-22.42-23-30.5-64.16C191,16.67,210.42,2.7,232.2.37Z" class="cls-7"/><path d="M222.68,129.82c7.91,12.82,85.29,32,99,43.93S410,237.84,421.17,245l3.22-1.5S341.11,164.56,327,154.88c-10.3-7.09-72.17-38.22-96.68-39.64C221.38,114.72,217.15,120.87,222.68,129.82Z" class="cls-4"/><path d="M229.08,121.39c7.48,13.09,77.72,28.72,91,41.08s86,69.88,96.88,77.36l6.82,3c.41.38.63.6.63.6l-3.22,1.5c-11.15-7.11-85.83-59.3-99.51-71.2s-91.07-31.11-99-43.93c-4.76-7.72-2.27-13.34,4.25-14.41A16.24,16.24,0,0,0,229.08,121.39Z" class="cls-8"/><path d="M293.66,210.84s43.09-16,70.29,29.07C393,288,419.44,352.11,426.05,357.59s45.24,3.94,51.53,4.77S586,409.53,586,409.53l-3.25,5.18S436,386.58,414.07,371.35c-29.93-20.84-102-122.7-128.4-131.37Z" class="cls-4"/><path d="M418.7,365.52c19.76,14.6,143.69,43.16,163.59,47.19l.42,2s-151.35-21.54-173.25-36.78c-29.93-20.83-97.41-129.28-123.79-138l8-29.14a48.16,48.16,0,0,1,8.2-2C338.93,201.88,415.11,362.86,418.7,365.52Z" class="cls-8"/><path d="M235.22,73.9s-10.64,44.18-5.47,59.84l-35.2,4.85c.57-16.35,10.84-53.28,18-63.09Z" class="cls-4"/><path d="M235.08,73.82s-2.21,9.36-4.09,21a75.63,75.63,0,0,0-8.61,12.34c-5.88,10.49-8.76,21-8.44,28.8l-19.26,2.74c.5-16.37,10.62-53.33,17.73-63.17Z" class="cls-8"/><path d="M297,215s58.89-3.28,68,58.24,9.46,129.88,13.87,136.88S417.38,425.5,423,427.5s96.78,71.23,96.78,71.23l.87,5.93S376.1,443.48,360.27,424.17c-22.78-27.78-61.22-161.43-90.52-182.54Z" class="cls-4"/><path d="M360.9,255.39c-98.74-26,12.67,163.7,14.34,165.86,12.41,16.09,109,65.15,144.61,81.86l.83,1.55S376.1,443.48,360.27,424.17c-22.78-27.78-61.22-161.43-90.52-182.54L297,215S348.82,230.57,360.9,255.39Z" class="cls-8"/><path d="M170,100.62s44.43,11,65.76-21.8c10.58-16.27,24.54-46.16,3.42-62.75S170.83,12.69,170,100.62Z" class="cls-4"/><path d="M198.27,113c8.26-6.2,39.6-14.93,52.22,38.49,7.62,32.26,31.28,47.51,52.56,55.7a62.14,62.14,0,0,1,39,8.87c15.3,9.55,18.55,36.59,18.84,39.34-26.43-20.92-59.13-23.78-73.65-6.14a28.84,28.84,0,0,0-4.36,7.22,77.24,77.24,0,0,0-16.65-18h0c-35.26-21.88-74.51-48-81.1-58.42C174.48,163.21,190,119.19,198.27,113Z" class="cls-9"/><path d="M204.62,109.81c-5.76,16.54,6.4,46.73,27.17,69.93,21.17,23.66,55.34,36.89,75.75,33.89,22.92-3.37,50.37,13.82,53.36,41.76-26.43-20.92-59.13-23.78-73.65-6.14a28.84,28.84,0,0,0-4.36,7.22,77.24,77.24,0,0,0-16.65-18h0c-35.26-21.88-74.51-48-81.1-58.42C174.48,163.21,190,119.19,198.27,113A23.21,23.21,0,0,1,204.62,109.81Z" class="cls-10"/><path d="M197.77,137.59c-.14-12.56,6.56-22.85,15-23s15.35,10,15.49,22.52-6.56,22.84-15,23S197.91,150.15,197.77,137.59Z" class="cls-8"/><path d="M214.79,114.68c-15.95-6.13-78,33.24-96.41,31.5-17.89-1.7-88.78-49.25-97.78-54.66l-5,1.48s85.65,68.56,103.16,68.2c13-.26,78.55-12.41,99.91-28.54C226.48,126.8,226.26,119.1,214.79,114.68Z" class="cls-4"/><path d="M226,81.94c-10.39-23.1,18.65-52.76,3.95-72.79,0,0,46.34,18.75,21.2,51.86Z" class="cls-5"/><path d="M252.7,58.54c-1.11,6.89-11.81,17.84-26.73,23.4-6.32-14,1.93-30.53,6.08-45.78C238,37.9,248.16,47.42,252.7,58.54Z" class="cls-7"/><path d="M248.6,61.86c6.64,9.81-9,17.45-22.71,27.63l-4.24-13.15C225.3,67.42,242,52.05,248.6,61.86Z" class="cls-4"/><path d="M240.78,68.29c4.08,6-5.51,10.73-13.91,17l-2.62-8.09C226.49,71.7,236.71,62.26,240.78,68.29Z" class="cls-11"/><path d="M174.24,65.22c6.25,5.82,3,20.21-3,23.46,0,0-8.24.11-5.54-13.75S174.24,65.22,174.24,65.22Z" class="cls-12"/><path d="M168.76,68.7c3.73,3.48,1.77,12.06-1.78,14,0,0-4.91.06-3.3-8.2S168.76,68.7,168.76,68.7Z" class="cls-13"/><path d="M223.19,79.15c1.67-3.27,4.6-5.12,6.53-4.15s2.18,4.44.51,7.71-4.59,5.14-6.53,4.15S221.53,82.43,223.19,79.15Z" class="cls-4"/><path d="M308.7,70l1.41,6s-134.93,38.13-139.47-.49l2.2-2S175.49,104.78,308.7,70Z" class="cls-14"/><path d="M239,84.34q-3.57,3.52-6.72,7.12c-30.86,3.3-59.59,1.54-61.65-15.93l2.2-2S174.47,92.68,239,84.34Z" class="cls-12"/><path d="M120.39,156.33c13-.83,78.43-20,99.18-37.09.44-.37.86-.75,1.26-1.13,5.09,4.37,4.72,13-1.29,17.48-21.36,16.09-88.1,29.4-101.13,29.65C100.92,165.58,15.64,93,15.64,93l10.72,7C42.76,112.6,105,157.31,120.39,156.33Z" class="cls-8"/><polygon points="236.32 182.93 252.99 214.78 255.19 193.9 236.32 182.93" class="cls-9"/><path d="M529.1,497.41c1.3,9.13,11.75,16,13.61,25,1.6,7.71-2.87,6.6-4.19,1.67-3.11-11.72-18.93-18.61-25.4-22.93l1.64-4.84C519.67,496.94,528.49,493.14,529.1,497.41Z" class="cls-4"/><path d="M590.38,406.24c3.29,11,14.53,18.27,18.9,29.64,4.07,10.6-.06,10.83-3,3.78-6.41-15.6-24.65-23.24-33.81-28.87l1.55-6.1C582.42,408.05,589,401.45,590.38,406.24Z" class="cls-4"/><path d="M12.73,87.94C17.66,89,22.48,90,32.65,99.8l-2.43,2.91C23.7,100.57,13,100.93,11.34,99,10.78,98.38,11,87.56,12.73,87.94Z" class="cls-4"/><path d="M14,99.92c-2.34-.45-11,.26-11-1.08,0-2.07,7.06-1.91,10-2C16.79,96.62,14,99.92,14,99.92Z" class="cls-4"/><path d="M13.16,91.19C11,90.3,1.69,88.07,1.87,86.73c.31-2.35,10.07.43,12.24,1.54C17.42,90,13.16,91.19,13.16,91.19Z" class="cls-4"/><path d="M17.45,91.45c4-2.4-4.18-8.37-2.81-10.55,1.86-3.06,9.1,8.24,10,12.29S17.45,91.45,17.45,91.45Z" class="cls-4"/><path d="M12.3,95.18C10,94.66,0,93.25,0,91.92c0-2.12,10-.38,12.39,0C16.05,92.44,12.3,95.18,12.3,95.18Z" class="cls-4"/><path d="M422.5,251c-4.3-2.63-8.51-5.16-14.87-17.77l3.25-2c5.45,4.18,15.65,7.36,16.6,9.71C427.78,241.72,424,251.87,422.5,251Z" class="cls-4"/><path d="M425.25,239.21c2.06,1.19,10.43,3.38,10,4.64-.67,2-7.28-.53-10.07-1.36C421.54,241.41,425.25,239.21,425.25,239.21Z" class="cls-4"/><path d="M423.18,247.74c1.76,1.57,9.78,6.73,9.16,7.94-1.07,2.12-9.34-3.73-11-5.5C418.75,247.51,423.18,247.74,423.18,247.74Z" class="cls-4"/><path d="M419.21,246.08c-4.6.93,1.18,9.28-.83,10.9-2.77,2.27-5.86-10.8-5.34-14.9S419.21,246.08,419.21,246.08Z" class="cls-4"/><path d="M425.3,244.25c2,1.26,11,5.88,10.52,7.14-.71,2-9.51-2.93-11.68-4C420.86,245.6,425.3,244.25,425.3,244.25Z" class="cls-4"/><path d="M213.79,45c-3.64-6.91-8.6-14.31-21.94-13.4,1.89-2.18,9.19-5.07,14.47-1.46C213.37,35,213.79,45,213.79,45Z" class="cls-15"/><path d="M204.71,49.83c-2.6-4.62-5.89-9.37-13.9-10.09,0,0,3.58-3.3,8.73.53C204.24,43.76,204.71,49.83,204.71,49.83Z" class="cls-16"/><path d="M189.07,45.44c1.47-4.06,5.25-6.21,8.35-5.11,2.89,1.05,4.37,4.72,3.42,8.43-1,4-4.51,6.84-7.91,6.17C189.28,54.2,187.49,49.8,189.07,45.44Z" class="cls-16"/><path d="M336.65,75a6,6,0,1,0-8.27,2.46A6.11,6.11,0,0,0,336.65,75Z" class="cls-17"/><path d="M351.93,57.24a5.11,5.11,0,1,0-7.07,2.1A5.22,5.22,0,0,0,351.93,57.24Z" class="cls-17"/><path d="M382.79,68.73a3.69,3.69,0,1,0-5.11,1.52A3.78,3.78,0,0,0,382.79,68.73Z" class="cls-17"/><path d="M398.35,47.69a3.69,3.69,0,1,0-5.11,1.52A3.76,3.76,0,0,0,398.35,47.69Z" class="cls-17"/><path d="M164.94,96.23a3.69,3.69,0,1,0-5.11,1.52A3.77,3.77,0,0,0,164.94,96.23Z" class="cls-17"/><path d="M269.54,112.13a3.69,3.69,0,1,0-5.11,1.52A3.77,3.77,0,0,0,269.54,112.13Z" class="cls-17"/><path d="M229.27,116.7a3.69,3.69,0,1,0-5.11,1.52A3.78,3.78,0,0,0,229.27,116.7Z" class="cls-17"/><g class="cls-18"><path d="M159.83,97.75a3.85,3.85,0,1,0-1.3-5.17A3.77,3.77,0,0,0,159.83,97.75Z" class="cls-19"/><path d="M268.24,107a3.85,3.85,0,1,0,1.3,5.17A3.77,3.77,0,0,0,268.24,107Z" class="cls-19"/></g><g class="cls-20"><path d="M344.86,59.34a5.33,5.33,0,1,0-1.8-7.15A5.23,5.23,0,0,0,344.86,59.34Z" class="cls-21"/><path d="M381.48,63.56a3.85,3.85,0,1,0,1.31,5.17A3.76,3.76,0,0,0,381.48,63.56Z" class="cls-21"/><path d="M393.24,49.21a3.85,3.85,0,1,0-1.3-5.17A3.77,3.77,0,0,0,393.24,49.21Z" class="cls-21"/><path d="M159.83,97.75a3.85,3.85,0,1,0-1.3-5.17A3.77,3.77,0,0,0,159.83,97.75Z" class="cls-21"/><path d="M268.24,107a3.85,3.85,0,1,0,1.3,5.17A3.77,3.77,0,0,0,268.24,107Z" class="cls-21"/></g></g></g></g></g></svg>