<svg xmlns="http://www.w3.org/2000/svg" viewBox="0 0 1177.24 538.31"><defs><style>.cls-1{fill:#4f656d}.cls-2{fill:#60878c}.cls-3{fill:#3d5359}.cls-4{fill:#293e44}.cls-5{fill:#b3ddd3}.cls-6{fill:#97c6ba}.cls-7{fill:#c5eae0}.cls-8{fill:#384c51}.cls-9{fill:#74a4a8}</style></defs><g id="Layer_2" data-name="Layer 2"><g id="Layer_1-2" data-name="Layer 1"><path d="M219.52,279.89C330.68,102,483-119.59,890.59,76.78c0,0,33.76-21.07,52.29-15.52s37,11.85,66.89,12.19c20.38.24,174.06-24.57,158.17,15.9,0,0,18.11.73,3.78,30.3-20,41.37-134.9,387.93-555.76,193.12-25-11.58-218.74-150.61-410.33,27.32C179.69,364.18,129.68,538.31,2.78,538.31c-12-35.19,13-166.72,116.71-199.15,37.05-12,56.5-25.93,8.33-33.34-32.75-5-94.47-54.64-85.21-108.37,46.31-1.85,122.45,35.56,148.2,87.06C201.92,306.75,219.52,279.89,219.52,279.89Z" class="cls-1"/><path d="M828,116.7c14,8.12,212.86-45.09,320.77-31.79,9.61-30.3-114.88-12.33-135.25-12.57a244.1,244.1,0,0,1-70.59-11.08c-18.53-5.55-52.29,15.52-52.29,15.52-369.88-178.21-529.56-12.15-639,153C380.79,68.75,451.82-64.53,828,116.7Z" class="cls-2"/><path d="M35,442.38c44-14.28,67-30.76,9.89-39.56a62.32,62.32,0,0,1-7.14-1.59,214.89,214.89,0,0,0-25.3,50A174,174,0,0,1,35,442.38Z" class="cls-2"/><path d="M56.44,396.23C95.29,380.8,117.07,367,70.83,369.76a57,57,0,0,1-5.71,0,228.86,228.86,0,0,0-28.84,35.29C42.76,401.91,49.48,398.94,56.44,396.23Z" class="cls-2"/><path d="M194.35,304.6c27.75-5.09,48.23-47.11,59.32-78.15-44.91,72.06-58.57,66.63-62.86,58.06C165.06,233,88.92,195.6,42.61,197.45,65.75,220.9,88.85,324,194.35,304.6Z" class="cls-2"/><path d="M902.48,77.07l36.33-9.16S1011.93,86.78,902.48,77.07Z" class="cls-1"/><path d="M799.26,80.94c-16.25-5.18-38.57,40.19,16.13,53.49l28.82-17C808.73,111.51,799,105.32,799.26,80.94Z" class="cls-1"/><path d="M151.67,311.82c-1.85-6.29-31-14.42-41.76-24-20.12-18-36.8-86.19-67.63-89.8C32.3,253.06,79.61,302.2,151.67,311.82Z" class="cls-3"/><path d="M606.22,105.6c-99.41-20.47-255,34.37-408,219.52-22,26.68-76.77,170.17-197.5,177.37-1.46,15.29-.64,28,2.05,35.82,126.9,0,176.91-174.13,202.85-198.22C397.22,162.16,591,301.19,616,312.77,1036.82,507.58,1151.67,161,1171.72,119.65a55.71,55.71,0,0,0,5.06-14.43C856,117.43,822.78,167,776.18,134,722.44,127.17,665.36,117.79,606.22,105.6Z" class="cls-3"/><path d="M759.72,107.67c-21.12-5.48-77.72,10.32-48.67,25C779.29,167.29,817.94,122.75,759.72,107.67Z" class="cls-1"/><path d="M798.31,80.71l3.88,1c-6.89,25.92,31.65,33.48,63.76,28.46C932.2,99.77,1048.3,73.2,1168.7,84.91l.16,5.17C1050.44,80,928,109.06,862,119.38,821.19,125.76,791.24,107.31,798.31,80.71Z" class="cls-4"/><path d="M847.91,141.64C727,499.85,535.13,110.09,291.64,279.8,566.43,184.57,963.21,654,1177.18,105.6,1140.59,101.73,969.86,113.92,847.91,141.64Z" class="cls-5"/><polygon points="645.02 289.64 642.44 327.34 598.83 313.3 617.3 282.25 645.02 289.64" class="cls-6"/><path d="M848.64,140.34S827.21,252.68,742.22,291.12c153.46,36,283.81,46.56,402.8-185.52C1051.94,99.4,950.64,116.69,848.64,140.34Z" class="cls-7"/><path d="M1158.89,104.49C1042.33,377,840.15,365,669,310.34c-148.5-47.46-284.52-95.58-378.93-29.77,248.19-86,597.12,288,820-42.82,23.9-35.48,53.76-82.26,67.07-132.15C1171.43,105,1170.54,104.31,1158.89,104.49Z" class="cls-6"/><path d="M457.25,469.78c-12.5-50,5.56-130.62,41.68-147.29s104.21-59.74,104.21-59.74c8.07-7.48,63.42-5.91,32,23.62C600.68,314,615.64,378.07,457.25,469.78Z" class="cls-3"/><path d="M480.57,455.2c-11.08-44.3,5.69-116.79,37.69-131.56S608.78,264,608.78,264c7.15-6.63,56.18-5.24,28.31,20.92C606.6,309.43,620.88,374,480.57,455.2Z" class="cls-1"/><path d="M735.38,146.62c-17.82-7.2-25.41-33.81-12.87-46.56,0,0-27.71,9.42-21.78,43.24Z" class="cls-3"/><path d="M760.38,152.72c10-7.21,15.19-34.92,5.19-38.8,0,0,30.39,4.43,15.56,33.81Z" class="cls-3"/><path d="M770.58,116.21c-4.39-21.93-54-58.43-56.91-23C706.92,176.36,782.73,176.64,770.58,116.21Z" class="cls-1"/><path d="M761.63,131.43c-3.15-8.84-28.32-8.81-26.81,5.92C747.62,143.34,753.12,141.31,761.63,131.43Z" class="cls-4"/><path d="M902.48,77.07c11.73.69,35-1.56,38-8.33C929.13,59.57,902.48,77.07,902.48,77.07Z" class="cls-8"/><path d="M602.34,252.13c11.64-17.74,41-17.74,47.12,1.11C630.19,244.73,616.57,245.61,602.34,252.13Z" class="cls-1"/><path d="M642.22,231c14.74-2.19,28.46,13.22,21.43,25.22C659.1,242.17,652.28,235.43,642.22,231Z" class="cls-1"/><path d="M1099.92,121.17l7.43-1.43S1014,364.36,770.26,349.85C905.56,351.15,1028.51,281.1,1099.92,121.17Z" class="cls-6"/><path d="M997.38,135.71l6.94-1.13S944,361,701.16,340.78C834.9,345.43,948.16,281.42,997.38,135.71Z" class="cls-6"/><path d="M905.58,141.52l5.31-.48s-26.28,202.09-261.75,182C783.79,328,880.08,267,905.58,141.52Z" class="cls-6"/><path d="M723.25,104.32c7-3.86,29.28-7.6,39.19-2.33C762.44,102,747.7,76.66,723.25,104.32Z" class="cls-3"/><path d="M731.69,173.23c-9.08,0-28.38-12-29.07-26.66C702.62,146.57,683.8,192.21,731.69,173.23Z" class="cls-1"/><path d="M471.7,384.24c37.7,0,58.39-10.34,15.52-25.12Z" class="cls-3"/><path d="M476.87,359.12c37.7,0,58.39-10.35,15.53-25.13Z" class="cls-3"/><path d="M518.57,318.33c26,11.42,42.95,11.61,17.2-10.07Z" class="cls-3"/><path d="M582.94,330.66c-6.26,25.88-33,103.18-126,136.75C511.65,380.6,545,353.32,582.94,330.66Z" class="cls-2"/><path d="M734.82,137.35c-2.21-15.12,12.59-46.61,26.81-5.92C749,127.3,741.93,129.2,734.82,137.35Z" class="cls-2"/><path d="M839,53.86C773.25,39.82,688.26,14.69,642.43.65,706.86,4.66,772.15,21.29,839,53.86Z" class="cls-9"/><path d="M308.46,183.76C324.77,153,415.12,35.06,492.3,72.7,420,102.6,377.77,131.3,308.46,183.76Z" class="cls-2"/></g></g></svg>