<svg xmlns="http://www.w3.org/2000/svg" xmlns:xlink="http://www.w3.org/1999/xlink" viewBox="0 0 1009 450.09"><defs><style>.cls-1,.cls-3{mask:url(#mask);}.cls-1{filter:url(#luminosity-noclip-3);}.cls-12,.cls-14,.cls-16,.cls-18,.cls-2,.cls-22,.cls-24,.cls-26,.cls-28,.cls-30,.cls-36,.cls-39,.cls-4,.cls-40,.cls-41,.cls-9{mix-blend-mode:multiply;}.cls-2{fill:url(#linear-gradient);}.cls-3{filter:url(#luminosity-noclip-4);}.cls-4{fill:url(#linear-gradient-2);}.cls-5{isolation:isolate;}.cls-6{fill:url(#linear-gradient-3);}.cls-36,.cls-40,.cls-7{opacity:0.5;}.cls-7{mix-blend-mode:color-dodge;}.cls-8{fill:#4c311e;}.cls-12,.cls-14,.cls-16,.cls-18,.cls-22,.cls-26,.cls-28,.cls-30,.cls-9{opacity:0.3;}.cls-9{fill:url(#linear-gradient-4);}.cls-10{fill:#fff;}.cls-11{fill:url(#linear-gradient-5);}.cls-12{fill:url(#linear-gradient-6);}.cls-13{fill:url(#linear-gradient-7);}.cls-14{fill:url(#radial-gradient);}.cls-15{fill:url(#linear-gradient-8);}.cls-16{fill:url(#linear-gradient-9);}.cls-17,.cls-18{fill:#546b0d;}.cls-19{mask:url(#mask-3);}.cls-20{fill:url(#linear-gradient-10);}.cls-21{mask:url(#mask-4);}.cls-22{fill:url(#linear-gradient-11);}.cls-23,.cls-24{fill:#a9a311;}.cls-24{opacity:0.2;}.cls-25{fill:url(#linear-gradient-12);}.cls-26{fill:url(#linear-gradient-13);}.cls-27{fill:url(#linear-gradient-14);}.cls-28{fill:url(#linear-gradient-15);}.cls-29{fill:url(#linear-gradient-16);}.cls-30{fill:url(#radial-gradient-2);}.cls-31{fill:#ebb85f;}.cls-32{fill:#efa70f;}.cls-33,.cls-36{fill:#b57936;}.cls-34{fill:#f9eeda;}.cls-35{fill:#f8cd0f;}.cls-37{fill:#ffffd1;}.cls-38{fill:#24b2c0;}.cls-39{fill:#e3c08d;opacity:0.9;}.cls-40{fill:#3b2452;}.cls-41{fill:#f3d096;}.cls-42{fill:#df5716;}.cls-43{filter:url(#luminosity-noclip);}</style><filter id="luminosity-noclip" x="773.52" y="-8416.55" width="104" height="32766" filterUnits="userSpaceOnUse" color-interpolation-filters="sRGB"><feFlood flood-color="#fff" result="bg"/><feBlend in="SourceGraphic" in2="bg"/></filter><mask id="mask" x="773.52" y="-8416.55" width="104" height="32766" maskUnits="userSpaceOnUse"><g class="cls-43"/></mask><linearGradient id="linear-gradient" x1="506.74" y1="78.25" x2="617.58" y2="76.66" gradientTransform="matrix(1, 0.05, -0.04, 0.87, 275.41, 69.66)" gradientUnits="userSpaceOnUse"><stop offset="0" stop-color="#f0f0f0"/><stop offset="0.98" stop-color="#fff"/></linearGradient><linearGradient id="linear-gradient-2" x1="563.29" y1="67.42" x2="553.05" y2="97.9" gradientTransform="matrix(1, 0.05, -0.04, 0.87, 275.41, 69.66)" gradientUnits="userSpaceOnUse"><stop offset="0" stop-color="#f0f0f0"/><stop offset="0.99" stop-color="#fff"/></linearGradient><linearGradient id="linear-gradient-3" x1="594.13" y1="353.74" x2="608.53" y2="160.5" gradientTransform="matrix(1.15, 0.05, -0.03, 0.64, 210.14, 31.08)" gradientUnits="userSpaceOnUse"><stop offset="0" stop-color="#774e23"/><stop offset="1" stop-color="#aa5c1d"/></linearGradient><linearGradient id="linear-gradient-4" x1="633.04" y1="373.32" x2="585.34" y2="181.79" xlink:href="#linear-gradient-3"/><linearGradient id="linear-gradient-5" x1="625.73" y1="30.33" x2="613.78" y2="87.5" gradientTransform="matrix(1, 0.05, -0.04, 0.87, 275.41, 69.66)" gradientUnits="userSpaceOnUse"><stop offset="0" stop-color="#797d0d"/><stop offset="1" stop-color="#6a6b0d"/></linearGradient><linearGradient id="linear-gradient-6" x1="651.09" y1="49.97" x2="599.96" y2="69.25" xlink:href="#linear-gradient-5"/><linearGradient id="linear-gradient-7" x1="669.13" y1="58.64" x2="608.89" y2="91.54" gradientTransform="matrix(1, 0.05, -0.04, 0.87, 275.41, 69.66)" gradientUnits="userSpaceOnUse"><stop offset="0.01" stop-color="#bab62c"/><stop offset="1" stop-color="#959d2c"/></linearGradient><radialGradient id="radial-gradient" cx="639.74" cy="77.93" r="26.85" gradientTransform="matrix(1, 0.05, -0.04, 0.87, 275.41, 69.66)" gradientUnits="userSpaceOnUse"><stop offset="0.01" stop-color="#bab62c"/><stop offset="1" stop-color="#b5b12c"/></radialGradient><linearGradient id="linear-gradient-8" x1="622.48" y1="30.23" x2="610.54" y2="87.37" xlink:href="#linear-gradient-5"/><linearGradient id="linear-gradient-9" x1="647.74" y1="49.89" x2="596.8" y2="69.1" xlink:href="#linear-gradient-5"/><filter id="luminosity-noclip-3" x="773.52" y="146.23" width="104" height="35.42" filterUnits="userSpaceOnUse" color-interpolation-filters="sRGB"><feFlood flood-color="#fff" result="bg"/><feBlend in="SourceGraphic" in2="bg"/></filter><mask id="mask-3" x="773.52" y="146.23" width="104" height="35.42" maskUnits="userSpaceOnUse"><g class="cls-1"><path class="cls-2" d="M877.51,181.65s-2.27-.91-5.6-2.11c-6.11-2.2-15.79-5.35-21.48-5.56l3.57-2.63-14.87,3-6.33-.73,7-4.34c-.37.09-12,3.31-16.64,4.16l-5.81,1.31,5.87-5.74c-.4.1-13.07,3.4-15.1,4.68s-7.3.46-7.3.46l3.8-4.25-13,3.2,2.79-2.73-14.82,2.51a21.42,21.42,0,0,1-5.44-.57l-.62-.13,1.65-2.29c1.71-2.71,9.52-11,15-13.83l10.69,2.17s-5.83-4.42-7.15-4.57c0,0,8.51-3.47,10.48-4.18,0,0,9,2.66,10.4,4.23-.21-.28-3.71-4.65-5.7-5.33,0,0,6.45-2.07,8.56-1.83s11.6,6.79,11.9,7a15.5,15.5,0,0,0-4.36-7.29s8.55,2.16,10.74,3.81,5.68,7.45,5.68,7.45l.72-5.31,11,9.7,1.39,5.55.56-4.15S875.41,179.27,877.51,181.65Z"/></g></mask><linearGradient id="linear-gradient-10" x1="506.74" y1="78.25" x2="617.58" y2="76.66" gradientTransform="matrix(1, 0.05, -0.04, 0.87, 275.41, 69.66)" gradientUnits="userSpaceOnUse"><stop offset="0" stop-color="#bb950d"/><stop offset="0.98" stop-color="#877a04"/></linearGradient><mask id="mask-4" x="773.52" y="146.23" width="104" height="35.42" maskUnits="userSpaceOnUse"><g class="cls-3"><path class="cls-4" d="M877.51,181.65s-2.27-.91-5.6-2.11c-9-8.21-25.57-19.12-45.6-19.5a112.81,112.81,0,0,0-52.17,12.25l-.62-.13,1.65-2.29c1.71-2.71,9.52-11,15-13.83l10.69,2.17s-5.83-4.42-7.15-4.57c0,0,8.51-3.47,10.48-4.18,0,0,9,2.66,10.4,4.23-.21-.28-3.71-4.65-5.7-5.33,0,0,6.45-2.07,8.56-1.83s11.6,6.79,11.9,7a15.5,15.5,0,0,0-4.36-7.29s8.55,2.16,10.74,3.81,5.68,7.45,5.68,7.45l.72-5.31,11,9.7,1.39,5.55.56-4.15S875.41,179.27,877.51,181.65Z"/></g></mask><linearGradient id="linear-gradient-11" x1="563.29" y1="67.42" x2="553.05" y2="97.9" gradientTransform="matrix(1, 0.05, -0.04, 0.87, 275.41, 69.66)" gradientUnits="userSpaceOnUse"><stop offset="0" stop-color="#bb950d"/><stop offset="0.99" stop-color="#c48a0d"/></linearGradient><linearGradient id="linear-gradient-12" x1="604.46" y1="103.83" x2="592.44" y2="152.44" gradientTransform="matrix(1, 0.05, -0.04, 0.87, 275.41, 69.66)" gradientUnits="userSpaceOnUse"><stop offset="0" stop-color="#797d0d"/><stop offset="1" stop-color="#98880d"/></linearGradient><linearGradient id="linear-gradient-13" x1="615.16" y1="128.57" x2="584.92" y2="128.99" xlink:href="#linear-gradient-12"/><linearGradient id="linear-gradient-14" x1="534.57" y1="114.45" x2="605.54" y2="114.45" xlink:href="#linear-gradient-5"/><linearGradient id="linear-gradient-15" x1="605.76" y1="95.63" x2="532.81" y2="123.14" xlink:href="#linear-gradient-5"/><linearGradient id="linear-gradient-16" x1="665.65" y1="58.59" x2="605.67" y2="91.34" xlink:href="#linear-gradient-7"/><radialGradient id="radial-gradient-2" cx="638.62" cy="77.91" r="26.85" gradientTransform="matrix(0.99, 0.05, -0.04, 0.87, 276.67, 69.64)" xlink:href="#radial-gradient"/></defs><g class="cls-5"><g id="Layer_1" data-name="Layer 1"><path class="cls-6" d="M920.64,268.38c0,.21,0,.41,0,.62-.14,1.79-.33,3.48-.55,5,0,.27-.07.53-.1.78-.4,2.79-.86,5.17-1.26,7,0,.15-.07.29-.1.43-.56,2.46-1,3.86-1,3.86-4.45.06-23.93.61-23.93.61.36-.83,4.17-10.11,4.52-11.19,0-.13.08-.26.13-.4.38-1.21.77-2.57,1.12-4.06.07-.28.13-.56.2-.85.38-1.69.73-3.54,1-5.53.05-.31.09-.63.14-.94.23-1.7.43-3.49.58-5.37h0c0-.33,0-.66.08-1,.16-2.28.24-4.68.23-7.18v-.72h0c0-1.83-.09-3.7-.21-5.63h0c0-.33,0-.66-.07-1-.17-2.38-.44-4.84-.8-7.35h0c0-.18-.05-.36-.08-.55h0c-.15-1-.3-1.94-.48-2.93-.1-.56-.22-1.14-.35-1.72-.05-.25-.1-.5-.17-.76h0a63.94,63.94,0,0,0-2.24-7.4h0l-.35-.93c-.65-1.72-1.38-3.44-2.14-5.16h0l-.24-.52h0c-.89-1.95-1.84-3.89-2.83-5.8,0,0,0,0,0,0-.11-.23-.23-.45-.35-.68h0c-1.07-2-2.17-4-3.28-6h0l-.31-.54h0c-1.5-2.57-3-5-4.46-7.35l-.3-.48h0c-.81-1.27-1.61-2.5-2.37-3.66h0c-.15-.23-.3-.44-.43-.67h0c-1-1.45-1.85-2.79-2.66-4h0c-.27-.42-.54-.81-.81-1.2v0c-1.48-2.19-2.63-3.9-3.27-5-.08-.13-.15-.24-.21-.35l-.23-.43a10.89,10.89,0,0,1-1-2.55c-.19-1.39,1.28-.88,5.29,1.66l.06,0a6.84,6.84,0,0,1,.58.4h0a47.21,47.21,0,0,1,5,4.61h0l.61.63c1.43,1.48,3,3.2,4.66,5.11l.55.65c1.21,1.39,2.45,2.88,3.72,4.45h0l.71.88c1.79,2.24,3.62,4.63,5.43,7.16h0l.49.68q1.35,1.86,2.68,3.81h0l.61.91c1.36,2,2.7,4.11,4,6.23,0,0,0,0,0,0h0c.12.2.25.4.37.61,1.24,2.05,2.44,4.13,3.55,6.23h0l.39.7h0c1,1.89,1.94,3.78,2.81,5.68h0c0,.11.11.22.15.33,1.18,2.59,2.22,5.17,3.1,7.72.15.45.3.89.44,1.33h0c.06.2.12.39.19.59h0a72.56,72.56,0,0,1,1.89,7.52h0c.06.28.11.56.17.83h0c.38,2,.66,4,.87,6,0,.32.07.65.1,1,.27,2.78.39,5.49.4,8.08h0q0,.48,0,1h0C920.91,264,920.8,266.26,920.64,268.38Z"/><g class="cls-7"><path class="cls-8" d="M918.68,281.83c0,.15-.07.29-.1.43-1.16-1.08-1.61-2.36-2.45-3.52a8.76,8.76,0,0,0-2.67,2.26c-.09.11-.42.1-.46,0-.36-1.21-.25-2.43-.56-3.64a8,8,0,0,0-3.67,2.3c-.09.12-.41.09-.46,0a20.7,20.7,0,0,1-.9-3,2.63,2.63,0,0,0-1.91,2.09c0,.15-.39.14-.47,0a17.37,17.37,0,0,0-1.45-3.18c-1.32.57-2,1.5-3,2.21a.35.35,0,0,1-.4,0c-.71-.69-1.35-1.39-2-2.09,0-.13.08-.26.13-.4.72.73,1.39,1.47,2.12,2.2,1-.76,1.66-1.68,3.11-2.2a.35.35,0,0,1,.36.05,9,9,0,0,1,1.33,2.78,3.06,3.06,0,0,1,2.26-1.78c.14,0,.32,0,.34.11a27.67,27.67,0,0,0,.81,2.85,9.8,9.8,0,0,1,3.84-2.17c.14-.05.35,0,.38.09.34,1.13.26,2.28.51,3.41a9.56,9.56,0,0,1,2.68-2.09.39.39,0,0,1,.38.06A36.84,36.84,0,0,0,918.68,281.83Z"/><path class="cls-8" d="M920,274c0,.27-.07.53-.1.78a1.88,1.88,0,0,0-.18.24.35.35,0,0,1-.44,0c-.8-1.14-1-2.35-1.73-3.5a8.26,8.26,0,0,0-1.92,2.77c-.07.14-.4.08-.45,0a15,15,0,0,1-1.69-3.5,11.13,11.13,0,0,0-4.31,2.52c-.08.09-.35.12-.43,0a5.35,5.35,0,0,1-.65-2.95,10.91,10.91,0,0,0-3.66,2.13.33.33,0,0,1-.4,0c-.66-.94-.23-1.9-.46-2.86a7.32,7.32,0,0,0-3.39,2.75c-.07.12-.41.1-.45,0l-.36-1.25c.07-.28.13-.56.2-.85.18.52.33,1,.48,1.57a8,8,0,0,1,3.54-2.54c.14-.05.35,0,.39.09.32.92-.11,1.86.32,2.76a12,12,0,0,1,3.85-2.1c.18-.06.38,0,.39.13a7.12,7.12,0,0,0,.46,2.79,14,14,0,0,1,4.52-2.49c.12-.05.37,0,.38.09a9.72,9.72,0,0,0,1.49,3.28,7.18,7.18,0,0,1,2-2.63.38.38,0,0,1,.41,0c.78,1.12,1,2.31,1.69,3.43C919.7,274.44,919.87,274.24,920,274Z"/><path class="cls-8" d="M920.64,268.38c0,.21,0,.41,0,.62l0,0a7,7,0,0,1-1.95-4,5.15,5.15,0,0,0-1.82,2.88c0,.12-.35.17-.45,0-1-1.22-.36-2.5-.83-3.75a12.26,12.26,0,0,0-3.45,2.9.33.33,0,0,1-.44,0c-.63-1-.47-2-1-3a2.94,2.94,0,0,0-1.5,2.28c0,.12-.36.17-.45,0-.82-1.12-.5-2.32-1-3.46a10.2,10.2,0,0,0-2.7,3.26c-.07.13-.41.1-.46,0a6,6,0,0,0-2.1-3.31,8.63,8.63,0,0,1-1.07,3.09c-.07.11-.44.1-.45,0a7,7,0,0,0-.23-1.18c.05-.31.09-.63.14-.94a7.35,7.35,0,0,1,.45,1.4,11.37,11.37,0,0,0,.74-2.65c0-.12.27-.14.42-.06a5.2,5.2,0,0,1,2.39,3.17,9,9,0,0,1,2.77-3.09.34.34,0,0,1,.43.06c.57,1,.32,2.11.77,3.14a2.75,2.75,0,0,1,1.79-2c.12,0,.31,0,.37.06.61.93.49,1.91,1,2.85a13,13,0,0,1,3.6-2.85.32.32,0,0,1,.38.08c.58,1.14.08,2.34.62,3.47a4.93,4.93,0,0,1,2.09-2.76c.12-.08.39-.06.42.06a8.38,8.38,0,0,0,1.63,3.87Z"/><path class="cls-8" d="M920.91,261.63h0a1.39,1.39,0,0,1-.06.13c-.05.11-.36.1-.43,0a16.54,16.54,0,0,1-1.74-3.14c-.75.88-1.43,1.77-2.08,2.68a.32.32,0,0,1-.46,0,13.39,13.39,0,0,1-1.19-2.88,9.45,9.45,0,0,0-2.62,2.81.33.33,0,0,1-.44,0c-.81-1-.75-2.07-1.06-3.13a4.93,4.93,0,0,0-2.12,2.61c-.07.14-.4.08-.46,0a17,17,0,0,1-.84-2.66,5,5,0,0,0-1.69,2.34c0,.15-.39.14-.47,0a10.14,10.14,0,0,0-1.68-3,16.86,16.86,0,0,1-.7,2.93c-.06.11-.36.1-.44,0a8.63,8.63,0,0,1-1.06-1.81h0c0-.33,0-.66.08-1a10.89,10.89,0,0,0,1.13,2.3c.32-.92.32-1.88.62-2.82,0-.1.28-.17.41-.06a6.78,6.78,0,0,1,1.85,2.89,7,7,0,0,1,1.86-2.17.34.34,0,0,1,.43.06c.35.83.43,1.67.74,2.49a4.45,4.45,0,0,1,2.35-2.41c.14-.06.35,0,.38.09.36,1,.28,2,.87,3a9.3,9.3,0,0,1,2.82-2.76c.12-.08.39-.06.42.06a13.49,13.49,0,0,0,1.08,2.79c.65-.9,1.34-1.79,2.1-2.65a.33.33,0,0,1,.46,0,25.89,25.89,0,0,0,1.61,3.08l.33-.62Q920.93,261.15,920.91,261.63Z"/><path class="cls-8" d="M920.51,252.59a6.31,6.31,0,0,1-1.4,1.81c-.12.12-.43,0-.43-.1a4.19,4.19,0,0,0-.81-3,8.78,8.78,0,0,1-.44,2.52c0,.12-.35.18-.44,0-.71-1-.64-2.25-1.79-3.19a11.68,11.68,0,0,1-2.7,2.81.38.38,0,0,1-.37,0c-1.21-.91-1.68-2-2.61-3a7.76,7.76,0,0,1-1.26,2.27c-.09.09-.32,0-.41,0-1-.94-1.4-2-2.4-3a23.23,23.23,0,0,1-1.47,3.48c-.08.13-.38.08-.45,0-.57-1-1.18-2-1.85-3v-.72a38.58,38.58,0,0,1,2.08,3.25c.61-1.1.79-2.27,1.38-3.38.05-.09.3-.11.4,0,1.15.94,1.57,2,2.51,3a17,17,0,0,0,1.18-2.28c.07-.12.33-.1.43,0,1.05,1,1.5,2.12,2.66,3.07a13.63,13.63,0,0,0,2.6-2.81.34.34,0,0,1,.4,0c1.23.84,1.33,1.91,1.8,2.9a11.81,11.81,0,0,0,.3-2.45c0-.15.33-.14.45,0a3.92,3.92,0,0,1,1.29,3,5.72,5.72,0,0,0,1.25-2.17C920.45,251.94,920.48,252.27,920.51,252.59Z"/><path class="cls-8" d="M919.54,245.65h0a4.15,4.15,0,0,0-.18.85c0,.15-.33.14-.45,0a10.07,10.07,0,0,1-2.18-2.63,14.93,14.93,0,0,1-1.65,2.52.35.35,0,0,1-.44,0,13.33,13.33,0,0,1-2.24-3.23c-1.19,1-1.82,2.21-2.9,3.27a.34.34,0,0,1-.43-.06,29.37,29.37,0,0,0-1.25-3.2,4,4,0,0,0-.94,2.54c0,.13-.37.16-.44,0a17.68,17.68,0,0,0-1.69-2.69,5.64,5.64,0,0,0-1,3.12c0,.15-.34.14-.46,0a9,9,0,0,1-1.77-2.4h0c0-.33,0-.66-.07-1a15.47,15.47,0,0,0,1.86,2.88,5.53,5.53,0,0,1,1.24-3,.35.35,0,0,1,.44,0,9.08,9.08,0,0,1,1.55,2.29,3.71,3.71,0,0,1,1.21-2.26.33.33,0,0,1,.43.07,26.47,26.47,0,0,1,1.28,3.16,21.86,21.86,0,0,1,2.88-3.19.33.33,0,0,1,.43.06,14.55,14.55,0,0,0,2.11,3.21,17.13,17.13,0,0,0,1.68-2.69c.08-.13.4-.08.45,0a8.39,8.39,0,0,0,2,2.65,5.83,5.83,0,0,1,.42-1.26C919.43,245.1,919.48,245.38,919.54,245.65Z"/><path class="cls-8" d="M917.48,237.29h0a9,9,0,0,0-.59,1.26c-.06.15-.4.15-.47,0a8.06,8.06,0,0,0-2.7-3.58c0,1.25.55,2.51,0,3.74,0,.1-.35.1-.43,0a27.76,27.76,0,0,0-2.43-3.34c-.79,1.2-.8,2.54-2.24,3.57-.12.09-.39.06-.43-.06a14.58,14.58,0,0,0-1.61-3.89c-.72,1.17-1.28,2.38-2,3.55,0,.09-.29.11-.4,0-1.21-1-2.32-2.05-3.51-3.06h0c0-.18-.05-.36-.08-.55,1.27,1.07,2.44,2.17,3.7,3.23.74-1.21,1.32-2.45,2.09-3.66a.33.33,0,0,1,.44,0,13.46,13.46,0,0,1,1.78,4c1.17-1.05,1.15-2.37,2-3.51a.33.33,0,0,1,.43,0,18.37,18.37,0,0,1,2.4,3.19c.3-1.17-.27-2.38-.13-3.56,0-.13.27-.14.41-.06a7.06,7.06,0,0,1,3,3.43c.2-.44.44-.87.66-1.31C917.35,236.9,917.41,237.09,917.48,237.29Z"/><path class="cls-8" d="M913.75,227.65c-1.34,1.07-1.1,2.88-1.94,4a.33.33,0,0,1-.44,0c-.85-1-1.57-2-2.35-3-.94,1.05-.75,2.28-1.19,3.43-.06.14-.41.08-.46,0a9.27,9.27,0,0,0-1.88-2.59,11,11,0,0,0-.51,2.81c0,.14-.34.15-.45,0-.88-1-1.42-2-2.36-3a6.34,6.34,0,0,1-.38,3.21c0,.12-.36.18-.44,0a18.7,18.7,0,0,0-1.66-2.32c-.05-.25-.1-.5-.17-.76a17.74,17.74,0,0,1,2,2.5,4.86,4.86,0,0,0,0-3.28c0-.13.28-.21.42-.09a16.51,16.51,0,0,1,2.63,3.07,11.39,11.39,0,0,1,.58-2.67c0-.13.32-.15.45,0a10.63,10.63,0,0,1,2,2.43c.28-1.1.24-2.21,1.3-3.18a.36.36,0,0,1,.41,0c.78,1,1.48,2,2.29,2.94.68-1.24.55-3,2.05-4C913.65,227.43,913.71,227.54,913.75,227.65Z"/><path class="cls-8" d="M910.79,221.63h0a11.79,11.79,0,0,1-.51,2.47.31.31,0,0,1-.45,0,20.61,20.61,0,0,0-3-3.73c0,1.29,0,2.59,0,3.89,0,.13-.36.16-.45,0a13,13,0,0,0-2.89-3c0,1.11.71,2.21.32,3.32a.33.33,0,0,1-.46,0,10.06,10.06,0,0,0-3-3.28c0,1.15.43,2.31,0,3.44a.29.29,0,0,1-.41.06,22.71,22.71,0,0,1-2.56-2.77h0l-.35-.93c1.05,1.07,1.82,2.21,3,3.26.25-1.12-.23-2.26-.08-3.39,0-.09.24-.17.37-.09a9.16,9.16,0,0,1,3.22,3.1c.09-1-.54-2.08-.41-3.13,0-.12.27-.15.41-.06a11.73,11.73,0,0,1,2.93,2.73c0-1.22,0-2.45,0-3.67,0-.12.29-.15.42-.06a13.66,13.66,0,0,1,3.17,3.69,17.89,17.89,0,0,0,.46-2.68Z"/><path class="cls-8" d="M906.81,216.6c0,.13-.23.2-.41.1a42.15,42.15,0,0,1-3.65-2.71c-.24,1.08.36,2.18.09,3.26,0,.14-.33.15-.45,0-1-.87-1.62-1.84-2.65-2.69-.11.89.39,1.81.39,2.71,0,.14-.33.14-.44,0a23.8,23.8,0,0,0-2.17-2.5c-.88.9.05,2,.21,2.94,0,.12-.26.23-.41.1a17.54,17.54,0,0,0-2.53-1.8h0l-.24-.52a29.34,29.34,0,0,1,2.57,1.7c-.33-1-.87-1.89.17-2.74a.39.39,0,0,1,.38,0,8.43,8.43,0,0,1,1.92,2.13,4.89,4.89,0,0,1-.26-2.41c0-.11.28-.17.42-.06a22.41,22.41,0,0,1,2.68,2.65c.08-1.06-.47-2.12-.06-3.16a.32.32,0,0,1,.42-.06c1.22.87,2.23,1.83,3.53,2.67a9.92,9.92,0,0,1,.16-2.18c.12.2.25.4.37.61A8.13,8.13,0,0,0,906.81,216.6Z"/><path class="cls-8" d="M902.42,209.13c0,.13-.33.15-.45,0a8.86,8.86,0,0,0-3.24-2.71,6.88,6.88,0,0,1,1,2.82c0,.12-.28.14-.42.06-1.31-.77-2.2-1.83-3.86-2.37a5.49,5.49,0,0,1-.37,3.19c-.05.14-.4.08-.45,0a5,5,0,0,0-2.48-2.69c-.23.76-.23,1.55-.42,2.3-.11-.23-.23-.45-.35-.68h0a8.58,8.58,0,0,1,.36-1.87.3.3,0,0,1,.37-.08,4.9,4.9,0,0,1,2.71,2.45,5.42,5.42,0,0,0,.11-2.8c0-.1.14-.19.32-.14,1.79.47,2.74,1.46,4,2.28a10.45,10.45,0,0,0-1.1-2.7c0-.1.15-.19.32-.14a7.32,7.32,0,0,1,3.55,2.57,6.06,6.06,0,0,0-.13-1.69l.61.91A5.61,5.61,0,0,1,902.42,209.13Z"/><path class="cls-8" d="M899.19,203.12l-.07,0c-1.26-.73-2.29-1.6-3.65-2.26a5.27,5.27,0,0,1,1,3.39c0,.11-.29.16-.41.06-1.13-.95-2.4-1.84-3.67-2.72a18.49,18.49,0,0,0,.44,2.54c0,.12-.27.22-.42.1-.72-.61-1.44-1.21-2.14-1.83a17.88,17.88,0,0,1,.17,2.06c0,.13-.25.21-.42.1-.66-.44-1.22-1-1.92-1.43h0l-.31-.54a15,15,0,0,1,2.16,1.5,6.67,6.67,0,0,0-.33-2.28c-.07-.16.32-.19.45-.07.69.64,1.43,1.26,2.17,1.87-.17-.8-.28-1.6-.37-2.41,0-.12.25-.21.42-.1,1.27.89,2.55,1.78,3.71,2.71a4.89,4.89,0,0,0-1.38-3.34c-.13-.12.16-.22.35-.15a18.68,18.68,0,0,1,3.71,2.14h0Z"/><path class="cls-8" d="M893.35,197.18a6,6,0,0,0-3.48-2.76,3.41,3.41,0,0,1,.93,2.59c0,.12-.36.16-.46,0a7.19,7.19,0,0,0-3.08-2.42c.42,1,.71,2-.17,2.81a.36.36,0,0,1-.41,0,12.32,12.32,0,0,0-3.35-2.2l-.3-.48a14.48,14.48,0,0,1,3.84,2.36c.66-.85.2-1.85-.22-2.74-.06-.13.2-.18.36-.12a7.29,7.29,0,0,1,3.31,2.18,4,4,0,0,0-1.11-2.17c-.11-.12.1-.21.29-.18a5.7,5.7,0,0,1,3.5,2c-.16-.56-.32-1.11-.46-1.67l.71.88c.17.62.36,1.23.54,1.84C893.84,197.26,893.45,197.33,893.35,197.18Z"/><path class="cls-8" d="M889.05,191.57c-1.1-.91-2.38-1.75-3.63-2.6.34.87.45,1.76.87,2.62.07.15-.27.19-.42.1a23.24,23.24,0,0,1-2.81-2.13c.29,1.08.42,2.16.64,3.25,0,.14-.24.2-.42.1-1-.58-1.74-1.24-2.62-1.85h0c-.15-.23-.3-.44-.43-.67,1.07.64,1.9,1.39,2.93,2.06a26.59,26.59,0,0,0-.71-3.37c0-.13.26-.21.42-.1,1,.7,1.74,1.48,2.74,2.16a18.29,18.29,0,0,0-.91-2.67c-.07-.13.28-.2.41-.1,1.18.81,2.4,1.6,3.51,2.44a5.87,5.87,0,0,1-.35-1.52l.55.65a3.91,3.91,0,0,0,.62,1.51C889.54,191.58,889.21,191.71,889.05,191.57Z"/><path class="cls-8" d="M883.72,185.72c0,.16-.41.14-.47,0-.57-1.28-2.11-2.29-3.78-3.2a7.48,7.48,0,0,1,.61,3.12c0,.16-.41.14-.47,0a4.8,4.8,0,0,0-2.88-2.33,26.44,26.44,0,0,0,.81,3.05c-.27-.42-.54-.81-.81-1.2v0a6.81,6.81,0,0,1-.48-2.1c0-.11.23-.13.37-.08a6.26,6.26,0,0,1,3,1.84,7.85,7.85,0,0,0-.76-2.67c-.05-.11.22-.2.37-.12a12.81,12.81,0,0,1,4,2.88,7.78,7.78,0,0,0-.23-1.35l.61.63A7.31,7.31,0,0,1,883.72,185.72Z"/><path class="cls-8" d="M878.43,180.22c0,.13-.28.14-.42.06-1.09-.61-2.15-1.24-3.24-1.86.21.93,1.05,1.8,1.08,2.75,0,.11-.3.16-.42.06a6.52,6.52,0,0,0-2-1.07c-.08-.13-.15-.24-.21-.35a7.21,7.21,0,0,1,2.08.92c-.23-.91-1-1.75-1.07-2.68,0-.13.29-.13.42-.06,1.09.6,2.13,1.23,3.2,1.84-.14-.37-.39-.87-.53-1.34l.06,0a6.84,6.84,0,0,1,.58.4h0A8.46,8.46,0,0,1,878.43,180.22Z"/></g><path class="cls-9" d="M920.64,268.38c0,.21,0,.41,0,.62-.14,1.79-.33,3.48-.55,5,0,.27-.07.53-.1.78-.4,2.79-.86,5.17-1.26,7,0,.15-.07.29-.1.43-.56,2.46-1,3.86-1,3.86-3.14-.17-3.14-.17-12.71.37,14.48-35.58,6.27-55.44,1.83-67.36-4.32-11.61-28-36.6-34.65-42.3-.19-1.39,1.28-.88,5.29,1.66l.06,0a6.84,6.84,0,0,1,.58.4h0a47.21,47.21,0,0,1,5,4.61h0l.61.63c1.43,1.48,3,3.2,4.66,5.11l.55.65c1.21,1.39,2.45,2.88,3.72,4.45h0l.71.88c1.79,2.24,3.62,4.63,5.43,7.16h0l.49.68q1.35,1.86,2.68,3.81h0l.61.91c1.36,2,2.7,4.11,4,6.23,0,0,0,0,0,0h0c.12.2.25.4.37.61,1.24,2.05,2.44,4.13,3.55,6.23h0l.39.7h0c1,1.89,1.94,3.78,2.81,5.68h0c0,.11.11.22.15.33,1.18,2.59,2.22,5.17,3.1,7.72.15.45.3.89.44,1.33h0c.06.2.12.39.19.59h0a72.56,72.56,0,0,1,1.89,7.52h0c.06.28.11.56.17.83h0c.38,2,.66,4,.87,6,0,.32.07.65.1,1,.27,2.78.39,5.49.4,8.08h0q0,.48,0,1h0C920.91,264,920.8,266.26,920.64,268.38Z"/><path class="cls-10" d="M0,185.59,38.49,130.1c16.71,14.62,36.4,22.37,53.11,22.37,8.36,0,12.83-2.08,12.83-6,0-3-4.17-5.08-16.7-6.87C59.08,135.47,26,116.67,26,84.14,26,33.42,69.52,0,124.13,0c28.05,0,53.71,9,69.52,24.47L157.85,74.3C139.64,60.27,124.72,57,111.3,57c-7.16,0-13.13,1.79-13.13,5.67,0,3,3.88,4.18,14.32,5.67,14.32,1.79,29.84,8.65,39.69,14.92,15.21,10.14,23.27,21.78,23.27,39.39,0,53.11-44.46,88.62-100.85,88.62C54.31,211.26,28.05,209.17,0,185.59Z"/><path class="cls-10" d="M304.32,136.66h-37l-11.34,71H180.2L212.72,1.79h75.79L277.17,74h37L325.51,1.79H401.3L368.77,207.67H293Z"/><path class="cls-10" d="M419.59,1.79H566.4l-9.25,58.48H485.53l-2.38,15.52h68l-8.95,57h-68l-2.69,15.82h74.3l-9.25,59.07H387.07Z"/><path class="cls-10" d="M586.75,1.79h76.38L640.45,145H706.1l-9.85,62.66h-142Z"/><path class="cls-10" d="M746,1.79h76.38L799.7,145h65.64l-9.84,62.66h-142Z"/><path class="cls-10" d="M151.4,375.37H114.34L103,446.51H27.05L59.63,240.25h75.93L124.2,312.59h37.07l11.35-72.34h75.93L216,446.51H140Z"/><path class="cls-10" d="M358.56,417.81H312.83l-11.06,28.7H225.84l97.75-206h85.79l31.38,206H360.65Zm-28.7-48.72h26.61l-3.29-57.69Z"/><path class="cls-10" d="M532,450.09c-52.31,0-91.47-30.78-91.47-88.77,0-79.81,58.89-124,124.95-124,42.74,0,61.27,17.63,61.27,17.63l-29.29,65.17A56.92,56.92,0,0,0,560.05,306c-20.63,0-40.66,15.84-40.66,43.64,0,19.43,12,30.19,29,30.19,17.63,0,35-9,45.43-16.44l11.06,61.87C598.61,431,576.19,450.09,532,450.09Z"/><path class="cls-10" d="M707.12,378.35l-7.47,9.27-9.27,58.89H614.46L647,240.25H723l-9.57,60.39,38.86-60.39h88.48L767.8,324,812,446.51H721.77Z"/><path class="cls-10" d="M815,424.39l38.56-55.6c16.74,14.65,36.47,22.42,53.21,22.42,8.37,0,12.85-2.09,12.85-6,0-3-4.18-5.08-16.74-6.88-28.69-4.18-61.87-23-61.87-55.59,0-50.82,43.64-84.3,98.34-84.3,28.1,0,53.81,9,69.65,24.51l-35.87,49.92C954.9,298.84,940,295.55,926.5,295.55c-7.17,0-13.15,1.8-13.15,5.68,0,3,3.88,4.19,14.34,5.68,14.35,1.8,29.9,8.67,39.76,14.95,15.25,10.16,23.32,21.82,23.32,39.46,0,53.2-44.54,88.77-101,88.77C869.41,450.09,843.1,448,815,424.39Z"/><path class="cls-11" d="M916.39,123l-5.25,9.6c-1.5,1.47-9.33,5.35-9.33,5.35l-.84.69c1-.71,7.36-1.59,7.36-1.59l-2.24,2.84c-3.41,2.44-9.65,7-9.65,7l4.62-1.19L898,151.62,890,157.36l5.62-2.53-2.57,4.49-6.48,7.06,3.67-1.76C888.09,170.43,878,180,878,180s-.24-.27-.36-.41c-8.08-9.57-4.85-18.33-4.85-18.33l3.9,3.15-3.3-5.83a23.67,23.67,0,0,1,2.56-8.31l2.74,4.89-.72-6.49c1.3-4.25,6.16-9.23,6.16-9.23l2.81,4.47-.2-6.62c2.6-3.42,9.25-7.49,9.25-7.49l.24,5.14,2.25-5.39C902.9,125.79,913.22,122.93,916.39,123Z"/><path class="cls-12" d="M877.67,179.6c-8.08-9.57-4.85-18.33-4.85-18.33l3.9,3.15-3.3-5.83a23.67,23.67,0,0,1,2.56-8.31l2.74,4.89-.72-6.49c1.3-4.25,6.16-9.23,6.16-9.23l2.81,4.47-.2-6.62c2.6-3.42,9.25-7.49,9.25-7.49l.24,5.14,2.25-5.39c4.39-3.77,14.71-6.63,17.88-6.57C916.39,123,877.34,147.8,877.67,179.6Z"/><path class="cls-13" d="M935,163.67l5.56.06a36.56,36.56,0,0,1-7.17,4.66c-3.56,1.61-11.12-.52-11.12-.52l4.3,2.47c-6.35,1.92-17.45,1-17.45,1l8,1.7-3.79,1.73c-3.53.45-10.33-.19-13.43-.53,2.24.52,6.63,2,6.63,2l-4,1.63c-3.3,1-12.35,1.32-12.35,1.32l5.09.24c-5.93,2.56-14.27,1.93-17.26,1.6l-1.13-.15S878,172.3,880,169.07s7-6.74,7-6.74l-1.46,7a45.31,45.31,0,0,1,13.11-12.46L897,162.29c2.49-3.51,10.79-7.56,10.79-7.56l1.16.05-3,4.71,9.79-6,4-.22-.2,4.24,4.38-4.44c5.62-.95,19.85,2.34,21.58,4.85Z"/><path class="cls-14" d="M945.45,157.91s-51.18,4.65-67.44,23.15l-1.13-.15S878,172.3,880,169.07s7-6.74,7-6.74l-1.46,7a45.31,45.31,0,0,1,13.11-12.46L897,162.29c2.49-3.51,10.79-7.56,10.79-7.56l1.16.05-3,4.71,9.79-6,4-.22-.2,4.24,4.38-4.44C929.49,152.11,943.72,155.4,945.45,157.91Z"/><path class="cls-15" d="M913,122.73l-5.22,9.6c-1.5,1.47-9.28,5.35-9.28,5.35l-.84.69c1-.71,7.32-1.59,7.32-1.59l-2.23,2.83c-3.39,2.45-9.6,7-9.6,7l4.6-1.2-3.07,6-7.89,5.73,5.59-2.53-2.56,4.49-6.44,7.07,3.64-1.77c-2.17,5.82-12.19,15.4-12.19,15.4s-.24-.27-.35-.41c-8-9.58-4.83-18.34-4.83-18.34l3.88,3.16-3.27-5.83a23.76,23.76,0,0,1,2.55-8.31l2.72,4.88-.72-6.48c1.3-4.26,6.13-9.24,6.13-9.24l2.8,4.47-.2-6.61c2.59-3.43,9.2-7.5,9.2-7.5l.24,5.14,2.23-5.39C899.62,125.53,909.89,122.66,913,122.73Z"/><path class="cls-16" d="M874.52,179.35c-8-9.58-4.83-18.34-4.83-18.34l3.88,3.16-3.27-5.83a23.76,23.76,0,0,1,2.55-8.31l2.72,4.88-.72-6.48c1.3-4.26,6.13-9.24,6.13-9.24l2.8,4.47-.2-6.61c2.59-3.43,9.2-7.5,9.2-7.5l.24,5.14,2.23-5.39c4.37-3.77,14.64-6.64,17.79-6.57C913,122.73,874.2,147.54,874.52,179.35Z"/><path class="cls-17" d="M881.06,116.4l5.7-4.25-2.34,8.42A18,18,0,0,0,876.76,132l7.48-7.43-.4,8.51c-5.87,2.8-9.94,11.57-9.94,11.57,1.39-1.94,6.73-5.19,6.73-5.19l-1,7.22-4.21,6.83,4-2.27c-4.19,8.58-4.38,27.72-4.38,27.72-.75-.79-1.47-1.6-2.16-2.39-15.44-17.79-14.09-33.63-14.09-33.63l5.05,2L858,139.17a17.41,17.41,0,0,1,.59-12.54l7.49,6.12-5.72-9.3c-.7-5.8,4.53-13.83,4.53-13.83l5.49,7.28-2.45-9.9c4.53-6.81,13.83-11.64,17.8-13.46L887,106.39C885.61,109.09,881.06,116.4,881.06,116.4Z"/><path class="cls-18" d="M881.06,116.4l5.7-4.25-2.34,8.42A18,18,0,0,0,876.76,132l7.48-7.43-.4,8.51c-5.87,2.8-9.94,11.57-9.94,11.57,1.39-1.94,6.73-5.19,6.73-5.19l-1,7.22-4.21,6.83,4-2.27c-4.19,8.58-4.38,27.72-4.38,27.72-.75-.79-1.47-1.6-2.16-2.39-12.35-44,12.8-83,12.8-83L887,106.39C885.61,109.09,881.06,116.4,881.06,116.4Z"/><g class="cls-19"><path class="cls-20" d="M877.51,181.65s-2.27-.91-5.6-2.11c-6.11-2.2-15.79-5.35-21.48-5.56l3.57-2.63-14.87,3-6.33-.73,7-4.34c-.37.09-12,3.31-16.64,4.16l-5.81,1.31,5.87-5.74c-.4.1-13.07,3.4-15.1,4.68s-7.3.46-7.3.46l3.8-4.25-13,3.2,2.79-2.73-14.82,2.51a21.42,21.42,0,0,1-5.44-.57l-.62-.13,1.65-2.29c1.71-2.71,9.52-11,15-13.83l10.69,2.17s-5.83-4.42-7.15-4.57c0,0,8.51-3.47,10.48-4.18,0,0,9,2.66,10.4,4.23-.21-.28-3.71-4.65-5.7-5.33,0,0,6.45-2.07,8.56-1.83s11.6,6.79,11.9,7a15.5,15.5,0,0,0-4.36-7.29s8.55,2.16,10.74,3.81,5.68,7.45,5.68,7.45l.72-5.31,11,9.7,1.39,5.55.56-4.15S875.41,179.27,877.51,181.65Z"/></g><g class="cls-21"><path class="cls-22" d="M877.51,181.65s-2.27-.91-5.6-2.11c-9-8.21-25.57-19.12-45.6-19.5a112.81,112.81,0,0,0-52.17,12.25l-.62-.13,1.65-2.29c1.71-2.71,9.52-11,15-13.83l10.69,2.17s-5.83-4.42-7.15-4.57c0,0,8.51-3.47,10.48-4.18,0,0,9,2.66,10.4,4.23-.21-.28-3.71-4.65-5.7-5.33,0,0,6.45-2.07,8.56-1.83s11.6,6.79,11.9,7a15.5,15.5,0,0,0-4.36-7.29s8.55,2.16,10.74,3.81,5.68,7.45,5.68,7.45l.72-5.31,11,9.7,1.39,5.55.56-4.15S875.41,179.27,877.51,181.65Z"/></g><path class="cls-23" d="M873.71,181c-.59-.3-1.19-.62-1.78-.95-10.74-6-20.52-16-20.52-16l4.78.23-7.48-4.94a33.5,33.5,0,0,1-9.83-11.43l6.91.32-9.26-6.48-1.66-4,9.26.43-10.45-4.44a19.4,19.4,0,0,1-2.49-8.24l6,1.44-6.7-4.26c-3.41-6.43-.89-14.9-.89-14.9l4.58,4.16-3.17-6c0-4.65,7.16-16.86,10.73-19.71l6.39,16.79-1.27,10.16c.4-2.77,4.28-3.9,4.28-3.9A63.57,63.57,0,0,0,851,122l2.77-3.85c2.64,8,0,18.15,0,18.15l3.48-7,1.24,8.12-.29,11.84,2.69-6.38,2.12,5.67,1.07,11.2,1.84-5.25C869.55,162.37,873.71,181,873.71,181Z"/><path class="cls-24" d="M871.93,180.06c-10.74-6-20.52-16-20.52-16l4.78.23-7.48-4.94a33.5,33.5,0,0,1-9.83-11.43l6.91.32-9.26-6.48-1.66-4,9.26.43-10.45-4.44a19.4,19.4,0,0,1-2.49-8.24l6,1.44-6.7-4.26c-3.41-6.43-.89-14.9-.89-14.9l4.58,4.16-3.17-6c0-4.65,7.16-16.86,10.73-19.71-.54,8.64-1.53,34.36,5.56,51.46C853,151.4,865,169.84,871.93,180.06Z"/><path class="cls-25" d="M879.89,213c-.24-.49-4.77-2.24-5-2.32a12.05,12.05,0,0,1,2.48,4.62c.72,3.7-.89,8.77-.89,8.77l-4.13-3.2c1.32,3.65-2.53,10-2.53,10l-1.74-4c-.36,3.58-6.54,9.06-6.54,9.06l.14-3c-2.93,3.3-8.49,6.26-10.23,5.91a.6.6,0,0,1-.49-.36c-1.33-3.5,4.08-15.35,4.08-15.35l-5.65,1c3.46-2,11.68-10,11.68-10-1.93,1.38-8.65,1.68-8.65,1.68,2.92-2.11,13-11.47,13.32-11.76-3.38,2.28-8.14,2.23-8.14,2.23l3.41-2.54,8.25-8.86-4.71.76c5.65-4.21,7.87-13.38,8.31-15.48l.09-.43c.26.32.5.65.73,1,4.63,6.52,5.6,15.62,5.6,15.62l-2.86-2.42,1.52,3.34C879.7,203.82,880.13,213.45,879.89,213Z"/><path class="cls-26" d="M879.89,213c-.24-.49-4.77-2.24-5-2.32a12.05,12.05,0,0,1,2.48,4.62c.72,3.7-.89,8.77-.89,8.77l-4.13-3.2c1.32,3.65-2.53,10-2.53,10l-1.74-4c-.36,3.58-6.54,9.06-6.54,9.06l.14-3c-2.93,3.3-8.49,6.26-10.23,5.91,33.92-40.28,21.41-58.72,21.41-58.72l.82.55c4.63,6.52,5.6,15.62,5.6,15.62l-2.86-2.42,1.52,3.34C879.7,203.82,880.13,213.45,879.89,213Z"/><path class="cls-27" d="M876.46,179.16a1,1,0,0,1,0,.16c-.46,1.64-6.38,8.34-6.38,8.34l-1.83-1.77c-2.37,4.28-9.74,7.93-9.74,7.93l-1-3.62c-2.64,4.91-13.47,10.73-13.47,10.73l-.39-6.78-4,7.79-5.9,3.07,1-6.24a41.08,41.08,0,0,1-3.64,5.9c-1.79,2.22-10.83,5.77-10.83,5.77l-1,.9c1-.9.26-5.54.26-5.54L817,209.87c-2.5,3-13.06,9-13.39,9.21h0a18.46,18.46,0,0,1,6.94-14.56l-3.88.86c1-5.2,8.88-10.17,8.88-10.17l-6.31,1.48c.79-1.43,3.62-5.28,3.62-5.28l11-4.3-6.7-.32C822.45,180.56,834,179,834,179l-5.42-.26C834.84,175.69,845,176,845,176l-7.84-1.43c1.46-.55,8.75-2.51,8.75-2.51,5.06-.6,15.41,3.67,15.41,3.67l-6-4.07C862.18,172,876.45,177.32,876.46,179.16Z"/><path class="cls-28" d="M876.46,179.16a1,1,0,0,1,0,.16c-33.75-6.47-72.29,39.08-72.87,39.76h0a18.46,18.46,0,0,1,6.94-14.56l-3.88.86c1-5.2,8.88-10.17,8.88-10.17l-6.31,1.48c.79-1.43,3.62-5.28,3.62-5.28l11-4.3-6.7-.32C822.45,180.56,834,179,834,179l-5.42-.26C834.84,175.69,845,176,845,176l-7.84-1.43c1.46-.55,8.75-2.51,8.75-2.51,5.06-.6,15.41,3.67,15.41,3.67l-6-4.07C862.18,172,876.45,177.32,876.46,179.16Z"/><path class="cls-29" d="M931.51,163.4l5.54.06a36.23,36.23,0,0,1-7.14,4.66c-3.53,1.61-11-.51-11-.51l4.27,2.46c-6.32,1.93-17.35,1-17.35,1l8,1.7L910,174.5c-3.51.46-10.27-.18-13.35-.51,2.22.51,6.59,2,6.59,2l-4,1.64C896,178.69,887,179,887,179l5.06.24c-5.89,2.56-14.19,1.94-17.17,1.6l-1.12-.14s1.09-8.61,3.1-11.84,7-6.75,7-6.75l-1.46,7a45.16,45.16,0,0,1,13-12.46L893.75,162c2.47-3.52,10.73-7.58,10.73-7.58l1.16.06-3,4.7,9.74-6,3.93-.22-.2,4.23,4.36-4.44c5.58-.95,19.73,2.34,21.45,4.84Z"/><path class="cls-30" d="M941.93,157.63s-50.9,4.68-67.08,23.17l-1.12-.14s1.09-8.61,3.1-11.84,7-6.75,7-6.75l-1.46,7a45.16,45.16,0,0,1,13-12.46L893.75,162c2.47-3.52,10.73-7.58,10.73-7.58l1.16.06-3,4.7,9.74-6,3.93-.22-.2,4.23,4.36-4.44C926.06,151.84,940.21,155.13,941.93,157.63Z"/><path class="cls-31" d="M979.53,193.68a103,103,0,0,1-18.82,2.65A91,91,0,0,1,938,194.51a89.66,89.66,0,0,1-32.7-14.07,64.61,64.61,0,0,1-9.8-8.1c1.27-.06,2.53-.1,3.77-.14,3.38.13,8.85.45,15.61,1.23a209.69,209.69,0,0,1,26,4.65c4.69,1.16,9.51,2.54,14.32,4.19A124.71,124.71,0,0,1,978.69,193C979.25,193.42,979.53,193.68,979.53,193.68Z"/><path class="cls-32" d="M914.85,173.43a75.6,75.6,0,0,0-9.58,7,64.61,64.61,0,0,1-9.8-8.1c1.27-.06,2.53-.1,3.77-.14C902.62,172.33,908.09,172.65,914.85,173.43Z"/><path class="cls-32" d="M955.22,182.27l5.49,14.06A91,91,0,0,1,938,194.51l2.93-16.43Z"/><path class="cls-33" d="M939.43,177.72s-4.13,11-7.53,20.74c-1.41,4-2.69,7.87-3.52,10.66-2.81,9.53-11.12,32.87-11.12,32.87l-2.41.28,15.3-44.93,7.1-20.41Z"/><path class="cls-34" d="M979,193.16a3.62,3.62,0,0,0-.33-.2,114,114,0,0,0-13.59-6.89,147.64,147.64,0,0,0-16.85-6,191.52,191.52,0,0,0-21.67-4.95c-6.47-1.11-12.35-1.8-17.21-2.24-4.25-.39-7.72-.57-10.13-.67s-3.77-.08-3.77-.08a86.33,86.33,0,0,1,27.89-9.8,48.65,48.65,0,0,1,16.67.18q1.71.34,3.36.81l0,0C966,169.79,979,193.16,979,193.16Z"/><path class="cls-35" d="M965.1,186.07a147.64,147.64,0,0,0-16.85-6,38.36,38.36,0,0,0-4.86-16.75l0,0A34.2,34.2,0,0,1,965.1,186.07Z"/><path class="cls-35" d="M940,162.5s-12.61,5.49-15.5,12.27c0,0-11.65-1.78-18.47-2.18C906.06,172.59,921,158.91,940,162.5Z"/><path class="cls-36" d="M939.43,177.72s-4.13,11-7.53,20.74l-1.75-1.12,7.1-20.13Z"/><path class="cls-37" d="M965.1,240.63a55.09,55.09,0,0,1-9,7.45,83,83,0,0,1-9.56,5.63,93.27,93.27,0,0,1-14.35,5.75c-.83.26-1.69.51-2.56.75l-.12,0a104.16,104.16,0,0,1-12,2.57h0a111.22,111.22,0,0,1-13.6,1.22s-20-14.05-32.63-16c0,0,9.61-.88,22.45-3.35,0,0,.05-.07.08-.08s.11-.08.16-.08h0c4,0,8.32,0,12.75-1.86h.14c6-1.86,12.18-2.45,18.11-3.84l0,0c3.77-.89,7.43-1.85,10.87-2.83h0c3.13-.9,6.05-1.85,8.69-2.82C944.5,233.15,961.66,235.11,965.1,240.63Z"/><path class="cls-38" d="M932.16,259.46l-2.56.75-.12,0a104.16,104.16,0,0,1-12,2.57c-6.71-7.54-16.47-14.85-23.56-18a1.4,1.4,0,0,1-.16-.1.13.13,0,0,0-.08,0l13.1-2,0,0a77.94,77.94,0,0,1,13.89,8C926,254.38,929.67,257.35,932.16,259.46Z"/><path class="cls-38" d="M956.07,248.08a83,83,0,0,1-9.56,5.63,51,51,0,0,1-8.51-5.6,85.5,85.5,0,0,0-13.07-9.32c3.77-.88,7.43-1.84,10.87-2.82h0C942.63,239.73,951.34,245.12,956.07,248.08Z"/><path class="cls-39" d="M871.19,248a64.63,64.63,0,0,1,11.41,3.76c4.6,2.22,18.12,9.32,21.22,12.24,0,0,6.18-.2,10.14-.75s14-2.18,20-4.42a129.75,129.75,0,0,0,12.75-5.29A126.58,126.58,0,0,1,930,260.51c-7.49,2.26-7.78,2.3-12.35,3s-13.64,1.09-14.1,1.42a38.41,38.41,0,0,0-6.33-4.77c-3.18-1.8-9.08-5.32-12.6-6.86S871.19,248,871.19,248Z"/><path class="cls-40" d="M903,264l.74,0Z"/><path class="cls-40" d="M901.07,264.11l.88,0Z"/><path class="cls-41" d="M890.53,254.21c1.15,6.84,65.85-4,65.47-17.21C955.83,231.19,888.93,244.64,890.53,254.21Z"/><path class="cls-10" d="M928.83,241.55a17.75,17.75,0,1,1-6.27-24.31A17.75,17.75,0,0,1,928.83,241.55Z"/><path class="cls-42" d="M905.13,224.77c-1.7,10.74,3.27,19.52,10.22,25.41a17.73,17.73,0,0,0,15.81-15.49C917.36,220,905.13,224.77,905.13,224.77Z"/><path class="cls-42" d="M898.24,223.54a17.71,17.71,0,0,0-1.57,14.5q2.58-8.86,8.46-13.27A14.14,14.14,0,0,0,898.24,223.54Z"/><path class="cls-42" d="M922.56,217.24a17.74,17.74,0,0,0-17.83-.12,13.48,13.48,0,0,0,.2,7.52c5.51-6.89,11.5-8.14,17.67-7.37Z"/><path class="cls-10" d="M907.25,226.56c-1.24,1.46-3.19,1.83-4.36.83s-1.13-3,.11-4.44,3.19-1.83,4.36-.83S908.49,225.11,907.25,226.56Z"/></g></g></svg>