<svg xmlns="http://www.w3.org/2000/svg" xmlns:xlink="http://www.w3.org/1999/xlink" viewBox="0 0 780.55 439.49"><defs><style>.cls-1,.cls-3{mask:url(#mask)}.cls-1{filter:url(#luminosity-noclip-3)}.cls-10,.cls-13,.cls-15,.cls-17,.cls-19,.cls-2,.cls-23,.cls-25,.cls-27,.cls-29,.cls-31,.cls-37,.cls-39,.cls-4,.cls-40,.cls-41{mix-blend-mode:multiply}.cls-2{fill:url(#linear-gradient)}.cls-3{filter:url(#luminosity-noclip-4)}.cls-4{fill:url(#linear-gradient-2)}.cls-5{isolation:isolate}.cls-6{fill:#24b2c0}.cls-7{fill:url(#linear-gradient-3)}.cls-37,.cls-40,.cls-8{opacity:.5}.cls-8{mix-blend-mode:color-dodge}.cls-9{fill:#4c311e}.cls-10,.cls-13,.cls-15,.cls-17,.cls-19,.cls-23,.cls-27,.cls-29,.cls-31{opacity:.3}.cls-10{fill:url(#linear-gradient-4)}.cls-11{fill:#fff}.cls-12{fill:url(#linear-gradient-5)}.cls-13{fill:url(#linear-gradient-6)}.cls-14{fill:url(#linear-gradient-7)}.cls-15{fill:url(#radial-gradient)}.cls-16{fill:url(#linear-gradient-8)}.cls-17{fill:url(#linear-gradient-9)}.cls-18,.cls-19{fill:#546b0d}.cls-20{mask:url(#mask-3)}.cls-21{fill:url(#linear-gradient-10)}.cls-22{mask:url(#mask-4)}.cls-23{fill:url(#linear-gradient-11)}.cls-24,.cls-25{fill:#a9a311}.cls-25{opacity:.2}.cls-26{fill:url(#linear-gradient-12)}.cls-27{fill:url(#linear-gradient-13)}.cls-28{fill:url(#linear-gradient-14)}.cls-29{fill:url(#linear-gradient-15)}.cls-30{fill:url(#linear-gradient-16)}.cls-31{fill:url(#radial-gradient-2)}.cls-32{fill:#ebb85f}.cls-33{fill:#efa70f}.cls-34,.cls-37{fill:#b57936}.cls-35{fill:#f9eeda}.cls-36{fill:#f8cd0f}.cls-38{fill:#ffffd1}.cls-39{fill:#e3c08d;opacity:.9}.cls-40{fill:#3b2452}.cls-41{fill:#f3d096}.cls-42{fill:#df5716}</style><filter id="luminosity-noclip" width="80.45" height="32766" x="598.38" y="-8410.7" color-interpolation-filters="sRGB" filterUnits="userSpaceOnUse"><feFlood flood-color="#fff" result="bg"/><feBlend in="SourceGraphic" in2="bg"/></filter><linearGradient id="linear-gradient" x1="329.13" x2="414.88" y1="40.65" y2="39.42" gradientTransform="matrix(1, 0.05, -0.04, 0.87, 275.05, 74.12)" gradientUnits="userSpaceOnUse"><stop offset="0" stop-color="#f0f0f0"/><stop offset=".98" stop-color="#fff"/></linearGradient><linearGradient id="linear-gradient-2" x1="372.88" x2="364.96" y1="32.27" y2="55.85" gradientTransform="matrix(1, 0.05, -0.04, 0.87, 275.05, 74.12)" gradientUnits="userSpaceOnUse"><stop offset="0" stop-color="#f0f0f0"/><stop offset=".99" stop-color="#fff"/></linearGradient><linearGradient id="linear-gradient-3" x1="403.42" x2="414.56" y1="261.32" y2="111.83" gradientTransform="matrix(1.15, 0.05, -0.03, 0.64, 226.95, 35.02)" gradientUnits="userSpaceOnUse"><stop offset="0" stop-color="#774e23"/><stop offset="1" stop-color="#aa5c1d"/></linearGradient><linearGradient id="linear-gradient-4" x1="433.51" x2="396.62" y1="276.47" y2="128.3" xlink:href="#linear-gradient-3"/><linearGradient id="linear-gradient-5" x1="421.18" x2="411.94" y1="3.58" y2="47.81" gradientTransform="matrix(1, 0.05, -0.04, 0.87, 275.05, 74.12)" gradientUnits="userSpaceOnUse"><stop offset="0" stop-color="#797d0d"/><stop offset="1" stop-color="#6a6b0d"/></linearGradient><linearGradient id="linear-gradient-6" x1="440.8" x2="401.25" y1="18.77" y2="33.69" xlink:href="#linear-gradient-5"/><linearGradient id="linear-gradient-7" x1="454.76" x2="408.16" y1="25.48" y2="50.93" gradientTransform="matrix(1, 0.05, -0.04, 0.87, 275.05, 74.12)" gradientUnits="userSpaceOnUse"><stop offset=".01" stop-color="#bab62c"/><stop offset="1" stop-color="#959d2c"/></linearGradient><radialGradient id="radial-gradient" cx="432.02" cy="40.41" r="20.77" gradientTransform="matrix(1, 0.05, -0.04, 0.87, 275.05, 74.12)" gradientUnits="userSpaceOnUse"><stop offset=".01" stop-color="#bab62c"/><stop offset="1" stop-color="#b5b12c"/></radialGradient><linearGradient id="linear-gradient-8" x1="418.67" x2="409.43" y1="3.5" y2="47.7" xlink:href="#linear-gradient-5"/><linearGradient id="linear-gradient-9" x1="438.21" x2="398.8" y1="18.71" y2="33.57" xlink:href="#linear-gradient-5"/><filter id="luminosity-noclip-3" width="80.45" height="27.4" x="598.38" y="113.12" color-interpolation-filters="sRGB" filterUnits="userSpaceOnUse"><feFlood flood-color="#fff" result="bg"/><feBlend in="SourceGraphic" in2="bg"/></filter><mask id="mask-3" width="80.45" height="27.4" x="598.38" y="113.12" maskUnits="userSpaceOnUse"><g class="cls-1"><path d="M678.84,140.53s-1.76-.71-4.34-1.64c-4.73-1.7-12.21-4.14-16.62-4.3l2.77-2-11.51,2.31-4.9-.57,5.43-3.36c-.28.08-9.31,2.57-12.87,3.23l-4.49,1,4.54-4.44c-.31.08-10.11,2.63-11.68,3.62s-5.65.36-5.65.36l2.94-3.29-10.08,2.47,2.16-2.11-11.46,1.94a16.42,16.42,0,0,1-4.22-.44l-.48-.1,1.28-1.77c1.33-2.1,7.37-8.47,11.61-10.7l8.27,1.68S615,119,614,118.85c0,0,6.59-2.68,8.11-3.23,0,0,6.94,2.06,8,3.27-.16-.21-2.87-3.59-4.4-4.12,0,0,5-1.6,6.62-1.41s9,5.25,9.2,5.4a12,12,0,0,0-3.37-5.64s6.62,1.67,8.31,2.95,4.39,5.77,4.39,5.77l.56-4.11,8.52,7.5,1.07,4.29.43-3.21S677.21,138.68,678.84,140.53Z" class="cls-2"/></g></mask><linearGradient id="linear-gradient-10" x1="329.13" x2="414.88" y1="40.65" y2="39.42" gradientTransform="matrix(1, 0.05, -0.04, 0.87, 275.05, 74.12)" gradientUnits="userSpaceOnUse"><stop offset="0" stop-color="#bb950d"/><stop offset=".98" stop-color="#877a04"/></linearGradient><mask id="mask-4" width="80.45" height="27.4" x="598.38" y="113.12" maskUnits="userSpaceOnUse"><g class="cls-3"><path d="M678.84,140.53s-1.76-.71-4.34-1.64c-7-6.35-19.78-14.79-35.28-15.09a87.38,87.38,0,0,0-40.36,9.48l-.48-.1,1.28-1.77c1.33-2.1,7.37-8.47,11.61-10.7l8.27,1.68S615,119,614,118.85c0,0,6.59-2.68,8.11-3.23,0,0,6.94,2.06,8,3.27-.16-.21-2.87-3.59-4.4-4.12,0,0,5-1.6,6.62-1.41s9,5.25,9.2,5.4a12,12,0,0,0-3.37-5.64s6.62,1.67,8.31,2.95,4.39,5.77,4.39,5.77l.56-4.11,8.52,7.5,1.07,4.29.43-3.21S677.21,138.68,678.84,140.53Z" class="cls-4"/></g></mask><linearGradient id="linear-gradient-11" x1="372.88" x2="364.96" y1="32.27" y2="55.85" gradientTransform="matrix(1, 0.05, -0.04, 0.87, 275.05, 74.12)" gradientUnits="userSpaceOnUse"><stop offset="0" stop-color="#bb950d"/><stop offset=".99" stop-color="#c48a0d"/></linearGradient><linearGradient id="linear-gradient-12" x1="404.73" x2="395.43" y1="60.44" y2="98.04" gradientTransform="matrix(1, 0.05, -0.04, 0.87, 275.05, 74.12)" gradientUnits="userSpaceOnUse"><stop offset="0" stop-color="#797d0d"/><stop offset="1" stop-color="#98880d"/></linearGradient><linearGradient id="linear-gradient-13" x1="413.01" x2="389.61" y1="79.57" y2="79.9" xlink:href="#linear-gradient-12"/><linearGradient id="linear-gradient-14" x1="350.66" x2="405.56" y1="68.65" y2="68.65" xlink:href="#linear-gradient-5"/><linearGradient id="linear-gradient-15" x1="405.74" x2="349.3" y1="54.1" y2="75.38" xlink:href="#linear-gradient-5"/><linearGradient id="linear-gradient-16" x1="452.06" x2="405.67" y1="25.44" y2="50.78" xlink:href="#linear-gradient-7"/><radialGradient id="radial-gradient-2" cx="431.13" cy="40.41" r="20.77" gradientTransform="matrix(0.99, 0.05, -0.04, 0.87, 275.7, 74.07)" xlink:href="#radial-gradient"/></defs><g class="cls-5"><g id="Layer_1" data-name="Layer 1"><path d="M18.77,408.53H40.42v7.62h-12v4.25H37v7.23H28.38v11.56H18.77Z" class="cls-6"/><path d="M54.36,408.53v23.38h9.27v7.28H44.75V408.53Z" class="cls-6"/><path d="M82.68,439.49a15.74,15.74,0,1,1,15.71-15.76A15.48,15.48,0,0,1,82.68,439.49Zm0-9c3.85,0,6-2.73,6-6.8s-2.12-6.84-6-6.84-6,2.68-6,6.84S78.74,430.53,82.68,430.53Z" class="cls-6"/><path d="M117.23,408.53c7.7,0,11.64,4.42,11.64,10.05a9,9,0,0,1-6.62,8.87l6.67,11.74H118.35l-5.76-11h0v11h-9.61V408.53Zm-.87,8.06h-3.81v5.19h3.81c1.82,0,2.77-.78,2.77-2.6A2.46,2.46,0,0,0,116.36,416.59Z" class="cls-6"/><path d="M133,408.53h9.61v30.66H133Z" class="cls-6"/><path d="M176.76,423.77c0,8.75-6.15,15.42-15.94,15.42H148.05V408.53h12.77C170.61,408.53,176.76,414.94,176.76,423.77ZM160,430.61c4.24,0,7.06-2.38,7.06-6.84s-2.82-6.84-7.06-6.84h-2.3v13.68Z" class="cls-6"/><path d="M201,434.56H190.74l-1.51,4.63H179.14l11.21-30.66h11.09l11.17,30.66H202.48Zm-5.11-15.76-2.77,8.53h5.54Z" class="cls-6"/><path d="M216.46,421.31l1.91-12.78h9.52l-5.11,12.78Z" class="cls-6"/><path d="M245.3,439.49c-7,0-12.52-3.25-13-10.13h10.22c.17,2.25,1.38,2.64,2.34,2.64s1.86-.43,1.86-1.52c-.05-4.15-14.51-2.64-14.33-13.11,0-6.15,5.19-9.36,11.73-9.36,7.4,0,12.17,3.55,12.43,9.92H246.25c-.09-1.86-1.08-2.43-2.12-2.43a1.37,1.37,0,0,0-1.39,1.56c0,3.86,14.25,3.21,14.25,12.65C257,435.33,252.7,439.49,245.3,439.49Z" class="cls-6"/><path d="M279.5,408.53v23.38h9.26v7.28H269.89V408.53Z" class="cls-6"/><path d="M312.53,434.56H302.32l-1.52,4.63H290.71l11.22-30.66H313l11.17,30.66H314.05Zm-5.11-15.76-2.77,8.53h5.55Z" class="cls-6"/><path d="M341.71,408.53c7.71,0,11.65,4.42,11.65,10.05a9,9,0,0,1-6.62,8.87l6.66,11.74H342.84l-5.76-11h0v11h-9.61V408.53Zm-.86,8.06H337v5.19h3.81c1.82,0,2.77-.78,2.77-2.6A2.46,2.46,0,0,0,340.85,416.59Z" class="cls-6"/><path d="M386.44,419H376.31a4.56,4.56,0,0,0-4.11-1.9c-3.73,0-5.81,2.64-5.81,6.71,0,4.76,2.17,7.14,6.89,7.14a6.3,6.3,0,0,0,5.37-2.68H371v-6.8h15.63v9.61a16,16,0,0,1-14.37,8.31c-9.66,0-15.59-6.45-15.59-15.58s5.89-15.59,15.5-15.59C380.29,408.23,385.53,412.47,386.44,419Z" class="cls-6"/><path d="M411.59,416.2H400.77V420h9.53v7.24h-9.53v4.32h10.82v7.67H391.16V408.53h20.43Z" class="cls-6"/><path d="M428.31,439.49c-7,0-12.52-3.25-12.95-10.13h10.22c.17,2.25,1.38,2.64,2.34,2.64s1.86-.43,1.86-1.52c0-4.15-14.5-2.64-14.33-13.11,0-6.15,5.19-9.36,11.73-9.36,7.41,0,12.17,3.55,12.43,9.92H429.26c-.09-1.86-1.08-2.43-2.12-2.43a1.37,1.37,0,0,0-1.39,1.56c0,3.86,14.25,3.21,14.25,12.65C440,435.33,435.71,439.49,428.31,439.49Z" class="cls-6"/><path d="M442.73,408.53h25.8v7.62h-8.14v23h-9.61v-23h-8Z" class="cls-6"/><path d="M499.4,427.24h-9.14v11.95h-9.61V408.53h9.61v11h9.14v-11H509v30.66H499.4Z" class="cls-6"/><path d="M534.08,434.56H523.86l-1.52,4.63H512.26l11.21-30.66h11.08l11.18,30.66H535.59ZM529,418.8l-2.77,8.53h5.54Z" class="cls-6"/><path d="M563.26,408.23c8.1,0,13.59,4.85,14.85,12.08H568a5.22,5.22,0,0,0-4.89-3.2c-3.25,0-5.24,2.64-5.24,6.71s2,6.71,5.24,6.71a5.22,5.22,0,0,0,4.89-3.2h10.13c-1.26,7.23-6.75,12.07-14.85,12.07-9.4,0-15.15-6.45-15.15-15.58S553.86,408.23,563.26,408.23Z" class="cls-6"/><path d="M592.27,425.9v13.29h-9.61V408.53h9.61v12.91l8.79-12.91h10.87l-10.57,14.68,11.26,16H601.19Z" class="cls-6"/><path d="M636.08,434.56H625.87l-1.52,4.63H614.26l11.22-30.66h11.08l11.17,30.66H637.6ZM631,418.8l-2.77,8.53h5.54Z" class="cls-6"/><path d="M649.24,408.53h25.81v7.62h-8.14v23H657.3v-23h-8.06Z" class="cls-6"/><path d="M697.48,427.24h-9.14v11.95h-9.61V408.53h9.61v11h9.14v-11h9.61v30.66h-9.61Z" class="cls-6"/><path d="M727.44,439.49a15.74,15.74,0,1,1,15.71-15.76A15.48,15.48,0,0,1,727.44,439.49Zm0-9c3.85,0,6-2.73,6-6.8s-2.12-6.84-6-6.84-6,2.68-6,6.84S723.5,430.53,727.44,430.53Z" class="cls-6"/><path d="M777.1,408.53v30.66h-9.61l-10.18-15.42v15.42H747.7V408.53h9.61l10.18,15.68V408.53Z" class="cls-6"/><path d="M712.2,207.62c0,.16,0,.32,0,.47-.11,1.39-.26,2.7-.42,3.91l-.09.6c-.3,2.16-.66,4-1,5.42,0,.12,0,.23-.08.34-.43,1.9-.77,3-.77,3-3.44,0-18.51.47-18.51.47.27-.64,3.22-7.82,3.49-8.66,0-.1.07-.2.1-.3.3-.94.6-2,.87-3.14l.15-.66c.3-1.31.57-2.74.8-4.28,0-.24.07-.49.11-.73.18-1.31.33-2.7.45-4.15h0l.06-.77c.12-1.77.19-3.63.18-5.56V193h0c0-1.41-.07-2.86-.17-4.35h0c0-.25,0-.5-.05-.76-.13-1.84-.33-3.74-.61-5.68h0c0-.14,0-.29-.07-.43h0c-.11-.75-.23-1.5-.37-2.26-.08-.44-.17-.89-.27-1.33,0-.2-.08-.4-.13-.59h0a48.08,48.08,0,0,0-1.73-5.72h0c-.09-.24-.17-.48-.27-.72-.5-1.33-1.06-2.66-1.65-4h0l-.19-.4h0c-.68-1.51-1.42-3-2.19-4.49h0c-.08-.18-.17-.35-.26-.53h0c-.82-1.57-1.67-3.11-2.53-4.6h0c-.08-.15-.17-.28-.25-.42h0c-1.16-2-2.32-3.9-3.45-5.69l-.23-.36h0c-.63-1-1.24-1.94-1.83-2.84h0c-.12-.18-.24-.35-.33-.52h0c-.73-1.12-1.43-2.16-2.06-3.1h0c-.22-.33-.42-.63-.63-.93,0,0,0,0,0,0-1.14-1.71-2-3-2.53-3.86l-.16-.27-.18-.33a8.16,8.16,0,0,1-.74-2c-.15-1.07,1-.68,4.09,1.29l0,0a5.35,5.35,0,0,1,.45.31h0a36.14,36.14,0,0,1,3.88,3.56h0l.47.48c1.1,1.15,2.32,2.48,3.61,4l.42.5c.93,1.07,1.89,2.23,2.88,3.44h0l.55.68c1.38,1.73,2.8,3.58,4.2,5.53l0,0c.12.17.25.34.37.52.7,1,1.39,1.94,2.07,3h0l.48.7c1.05,1.57,2.09,3.18,3.09,4.82,0,0,0,0,0,0h0c.1.16.2.31.29.47,1,1.59,1.88,3.19,2.75,4.82h0c.1.18.2.36.29.54h0c.76,1.46,1.5,2.93,2.17,4.4h0l.12.26c.91,2,1.72,4,2.39,6,.12.35.24.68.34,1h0l.15.46h0a53.26,53.26,0,0,1,1.46,5.82h0c0,.21.09.43.13.64h0c.29,1.55.51,3.1.67,4.61,0,.25.05.5.08.75.21,2.15.3,4.25.31,6.25h0v.74h0C712.4,204.22,712.32,206,712.2,207.62Z" class="cls-7"/><g class="cls-8"><path d="M710.68,218c0,.12,0,.23-.08.34a16,16,0,0,1-1.9-2.73,6.93,6.93,0,0,0-2.06,1.75c-.07.08-.32.08-.35,0-.28-.94-.2-1.88-.44-2.82a6.12,6.12,0,0,0-2.84,1.78.25.25,0,0,1-.35,0,15.87,15.87,0,0,1-.7-2.36,2.06,2.06,0,0,0-1.48,1.63c0,.11-.3.11-.36,0a14.09,14.09,0,0,0-1.12-2.45,12.14,12.14,0,0,0-2.31,1.71.27.27,0,0,1-.31,0c-.55-.53-1-1.08-1.57-1.62,0-.1.07-.2.1-.3.56.56,1.08,1.13,1.65,1.69a8.5,8.5,0,0,1,2.4-1.7.27.27,0,0,1,.28,0,7,7,0,0,1,1,2.15,2.35,2.35,0,0,1,1.75-1.38c.1,0,.24,0,.26.08a22,22,0,0,0,.62,2.21,7.47,7.47,0,0,1,3-1.68c.11,0,.27,0,.29.07.26.88.2,1.76.39,2.64a7.48,7.48,0,0,1,2.08-1.62.32.32,0,0,1,.29,0A28.43,28.43,0,0,0,710.68,218Z" class="cls-9"/><path d="M711.74,212l-.09.6-.14.18a.26.26,0,0,1-.34,0c-.62-.88-.78-1.81-1.33-2.7a6.3,6.3,0,0,0-1.49,2.14c-.05.11-.31.06-.35,0a11.39,11.39,0,0,1-1.3-2.71,8.74,8.74,0,0,0-3.34,2c-.06.07-.27.09-.33,0a4.18,4.18,0,0,1-.51-2.28,8.26,8.26,0,0,0-2.82,1.66.29.29,0,0,1-.32,0c-.5-.72-.17-1.47-.35-2.21a5.62,5.62,0,0,0-2.62,2.13c-.06.09-.32.07-.35,0-.09-.32-.18-.64-.28-1l.15-.66c.15.4.26.81.38,1.21a6.07,6.07,0,0,1,2.73-2c.11,0,.28,0,.3.07.25.71-.08,1.43.25,2.13a9.48,9.48,0,0,1,3-1.62c.14,0,.3,0,.3.09a5.55,5.55,0,0,0,.36,2.16,11,11,0,0,1,3.49-1.92c.1,0,.3,0,.3.07a7.54,7.54,0,0,0,1.15,2.53,5.72,5.72,0,0,1,1.56-2,.29.29,0,0,1,.32,0c.6.86.77,1.78,1.3,2.65A5.58,5.58,0,0,1,711.74,212Z" class="cls-9"/><path d="M712.2,207.62c0,.16,0,.32,0,.47l0,0a5.36,5.36,0,0,1-1.51-3.09,4,4,0,0,0-1.41,2.23c0,.09-.27.13-.35,0-.73-.93-.28-1.93-.64-2.89a9.37,9.37,0,0,0-2.67,2.24c-.06.07-.28.09-.34,0-.49-.76-.36-1.55-.79-2.31a2.28,2.28,0,0,0-1.16,1.76c0,.1-.28.13-.35,0-.63-.87-.38-1.79-.76-2.68a8,8,0,0,0-2.08,2.53c-.06.1-.32.07-.36,0a4.5,4.5,0,0,0-1.63-2.55,6.56,6.56,0,0,1-.82,2.38c-.06.09-.34.08-.35,0a4.88,4.88,0,0,0-.18-.91c0-.24.07-.49.11-.73a6.28,6.28,0,0,1,.35,1.09,9,9,0,0,0,.57-2c0-.1.21-.12.32-.05a4,4,0,0,1,1.86,2.45,6.93,6.93,0,0,1,2.14-2.39.25.25,0,0,1,.33,0c.44.8.25,1.63.6,2.43a2.13,2.13,0,0,1,1.38-1.57.29.29,0,0,1,.29.05c.47.72.38,1.48.73,2.2a10.22,10.22,0,0,1,2.79-2.2.24.24,0,0,1,.29.06c.45.89.06,1.81.48,2.69a3.82,3.82,0,0,1,1.61-2.14c.1-.06.31,0,.33.05a6.51,6.51,0,0,0,1.26,3Z" class="cls-9"/><path d="M712.41,202.39h0a.93.93,0,0,1,0,.1c0,.09-.28.08-.33,0a12.48,12.48,0,0,1-1.35-2.43c-.58.67-1.11,1.37-1.61,2.07a.24.24,0,0,1-.35,0,9.58,9.58,0,0,1-.92-2.22,7.1,7.1,0,0,0-2,2.16.25.25,0,0,1-.34,0,5.72,5.72,0,0,1-.82-2.42,3.81,3.81,0,0,0-1.64,2c-.06.1-.31.06-.36,0a13.5,13.5,0,0,1-.65-2.05,3.73,3.73,0,0,0-1.3,1.8c0,.12-.31.11-.37,0A7.57,7.57,0,0,0,699,199a12.91,12.91,0,0,1-.54,2.27c0,.08-.28.08-.34,0a7,7,0,0,1-.82-1.4h0l.06-.77a8.91,8.91,0,0,0,.88,1.78c.24-.72.24-1.46.47-2.19,0-.08.22-.13.32-.05a5.17,5.17,0,0,1,1.43,2.24,5.32,5.32,0,0,1,1.45-1.67.24.24,0,0,1,.32,0c.28.64.34,1.29.58,1.92a3.45,3.45,0,0,1,1.82-1.86c.1,0,.27,0,.29.07a10.84,10.84,0,0,0,.67,2.31,7.31,7.31,0,0,1,2.18-2.14c.1-.06.31,0,.33.05a10.22,10.22,0,0,0,.83,2.16c.51-.7,1-1.39,1.63-2.06a.25.25,0,0,1,.35,0,23.63,23.63,0,0,0,1.25,2.38c.08-.16.17-.32.26-.48Z" class="cls-9"/><path d="M712.1,195.4a4.84,4.84,0,0,1-1.09,1.4c-.09.1-.33,0-.33-.08a3.24,3.24,0,0,0-.63-2.33,7.38,7.38,0,0,1-.33,2c0,.08-.28.13-.35,0-.54-.8-.5-1.74-1.38-2.46a9.07,9.07,0,0,1-2.09,2.17.28.28,0,0,1-.29,0,14.92,14.92,0,0,1-2-2.32,5.84,5.84,0,0,1-1,1.75c-.07.08-.25,0-.31,0-.78-.73-1.09-1.57-1.86-2.29a18.37,18.37,0,0,1-1.14,2.69c-.06.1-.3.06-.35,0-.44-.77-.91-1.54-1.43-2.3V193a28.83,28.83,0,0,1,1.61,2.52c.47-.86.61-1.76,1.07-2.62,0-.07.23-.08.31,0a23,23,0,0,1,1.94,2.35,11.86,11.86,0,0,0,.91-1.77c0-.09.26-.07.34,0,.81.75,1.15,1.64,2,2.37a10.43,10.43,0,0,0,2-2.17.25.25,0,0,1,.31,0c.95.64,1,1.47,1.39,2.24a9.32,9.32,0,0,0,.24-1.9c0-.11.25-.1.34,0a3,3,0,0,1,1,2.36,4.51,4.51,0,0,0,1-1.68C712.05,194.9,712.07,195.15,712.1,195.4Z" class="cls-9"/><path d="M711.34,190h0a3.11,3.11,0,0,0-.14.66c0,.11-.26.11-.35,0a7.6,7.6,0,0,1-1.69-2,11.6,11.6,0,0,1-1.28,1.94.27.27,0,0,1-.34,0,10.36,10.36,0,0,1-1.72-2.5c-.93.79-1.42,1.71-2.25,2.53a.25.25,0,0,1-.33,0,24.44,24.44,0,0,0-1-2.48,3.11,3.11,0,0,0-.73,2c0,.1-.28.13-.34,0a14.36,14.36,0,0,0-1.3-2.08,4.37,4.37,0,0,0-.82,2.42c0,.11-.26.1-.35,0a6.86,6.86,0,0,1-1.38-1.85h0c0-.25,0-.5-.05-.76a11.89,11.89,0,0,0,1.44,2.23,4.35,4.35,0,0,1,1-2.33.27.27,0,0,1,.34,0,6.93,6.93,0,0,1,1.2,1.77,2.91,2.91,0,0,1,.93-1.75.28.28,0,0,1,.34,0,20.26,20.26,0,0,1,1,2.45,17.53,17.53,0,0,1,2.23-2.47.27.27,0,0,1,.33,0,11,11,0,0,0,1.63,2.48,14,14,0,0,0,1.3-2.07c.06-.11.31-.07.35,0a6.5,6.5,0,0,0,1.54,2.06,4.32,4.32,0,0,1,.32-1C711.26,189.6,711.3,189.82,711.34,190Z" class="cls-9"/><path d="M709.75,183.57h0a7.9,7.9,0,0,0-.46,1c0,.11-.31.12-.36,0a6.15,6.15,0,0,0-2.09-2.77c0,1,.43,1.94,0,2.89,0,.08-.27.08-.33,0a22.57,22.57,0,0,0-1.88-2.58c-.61.92-.62,2-1.74,2.76-.09.07-.3,0-.33,0a11.21,11.21,0,0,0-1.24-3c-.56.91-1,1.85-1.58,2.75a.25.25,0,0,1-.31,0c-.94-.78-1.8-1.58-2.71-2.36h0c0-.14,0-.29-.07-.43,1,.83,1.89,1.68,2.86,2.5.58-.94,1-1.9,1.62-2.83a.26.26,0,0,1,.34,0,10.4,10.4,0,0,1,1.38,3.08c.9-.82.89-1.84,1.58-2.72a.26.26,0,0,1,.33,0,14,14,0,0,1,1.85,2.47c.24-.91-.2-1.84-.1-2.76,0-.1.22-.11.33,0a5.45,5.45,0,0,1,2.27,2.65c.16-.34.35-.67.51-1Z" class="cls-9"/><path d="M706.87,176.11c-1,.82-.85,2.22-1.51,3.12a.26.26,0,0,1-.33,0c-.66-.76-1.22-1.54-1.82-2.31-.73.8-.58,1.76-.93,2.64,0,.11-.31.06-.35,0a7,7,0,0,0-1.46-2,9.17,9.17,0,0,0-.39,2.18c0,.11-.26.11-.35,0-.68-.75-1.1-1.56-1.82-2.28a4.93,4.93,0,0,1-.29,2.48.24.24,0,0,1-.35,0,13.29,13.29,0,0,0-1.28-1.78c0-.2-.08-.4-.13-.59a12.65,12.65,0,0,1,1.51,1.93,3.75,3.75,0,0,0,0-2.54c0-.1.22-.16.33-.07a13.1,13.1,0,0,1,2,2.38,8.34,8.34,0,0,1,.45-2.07c0-.1.24-.12.34,0a8.16,8.16,0,0,1,1.53,1.88,4.07,4.07,0,0,1,1-2.46.27.27,0,0,1,.32,0c.61.76,1.15,1.52,1.78,2.27.52-.95.42-2.3,1.58-3.06Z" class="cls-9"/><path d="M704.57,171.45h0a9.15,9.15,0,0,1-.4,1.91.24.24,0,0,1-.35,0,15.34,15.34,0,0,0-2.33-2.88c0,1,0,2,0,3,0,.1-.28.12-.35,0a10.07,10.07,0,0,0-2.24-2.29c0,.86.55,1.71.25,2.57a.26.26,0,0,1-.36,0,7.66,7.66,0,0,0-2.35-2.54c0,.89.33,1.78,0,2.66a.26.26,0,0,1-.33,0,18.81,18.81,0,0,1-2-2.15h0c-.09-.24-.17-.48-.27-.72.82.83,1.41,1.71,2.29,2.52.19-.87-.18-1.75-.06-2.62,0-.07.18-.13.28-.07a7,7,0,0,1,2.49,2.4c.07-.81-.41-1.61-.32-2.42,0-.1.22-.12.32,0a9.29,9.29,0,0,1,2.27,2.11c0-.94,0-1.89,0-2.83,0-.1.22-.12.33-.05a10.56,10.56,0,0,1,2.45,2.85,14.7,14.7,0,0,0,.36-2.07C704.38,171.09,704.48,171.27,704.57,171.45Z" class="cls-9"/><path d="M701.5,167.56c0,.1-.18.15-.32.07a29.44,29.44,0,0,1-2.82-2.09c-.19.83.28,1.68.06,2.52,0,.11-.25.11-.34,0-.74-.68-1.26-1.43-2.05-2.08a16.7,16.7,0,0,0,.3,2.09c0,.11-.25.11-.34,0a17.8,17.8,0,0,0-1.68-1.94c-.68.69,0,1.51.17,2.28,0,.09-.21.17-.32.07a14.83,14.83,0,0,0-2-1.39h0l-.19-.4a19.62,19.62,0,0,1,2,1.32c-.25-.74-.67-1.47.14-2.12a.28.28,0,0,1,.29,0,6.44,6.44,0,0,1,1.48,1.64,3.85,3.85,0,0,1-.2-1.86.25.25,0,0,1,.33-.05,18.25,18.25,0,0,1,2.07,2.05c.06-.81-.36-1.64-.05-2.44a.25.25,0,0,1,.33-.05c1,.67,1.72,1.42,2.73,2.07a8,8,0,0,1,.12-1.69c.1.16.2.31.29.47A6.1,6.1,0,0,0,701.5,167.56Z" class="cls-9"/><path d="M698.1,161.78c0,.1-.26.11-.35,0a7,7,0,0,0-2.5-2.1,5.49,5.49,0,0,1,.77,2.19c0,.09-.23.11-.33,0a14.11,14.11,0,0,0-3-1.83,4.21,4.21,0,0,1-.28,2.47c0,.11-.31.06-.35,0a3.9,3.9,0,0,0-1.92-2.07c-.18.59-.18,1.19-.33,1.78-.08-.18-.17-.35-.26-.53h0a6.44,6.44,0,0,1,.28-1.44c0-.08.16-.12.29-.07a3.8,3.8,0,0,1,2.09,1.9,4.31,4.31,0,0,0,.09-2.17c0-.08.11-.15.24-.11a9.61,9.61,0,0,1,3.08,1.76,8,8,0,0,0-.85-2.09c0-.07.12-.14.25-.1a5.71,5.71,0,0,1,2.75,2,4.5,4.5,0,0,0-.11-1.31l.48.7A4.2,4.2,0,0,1,698.1,161.78Z" class="cls-9"/><path d="M695.6,157.13l-.05,0c-1-.56-1.77-1.23-2.83-1.74a4,4,0,0,1,.78,2.62c0,.08-.23.12-.32.05-.87-.73-1.86-1.42-2.84-2.11a14.75,14.75,0,0,0,.34,2c0,.09-.2.17-.32.07q-.84-.69-1.65-1.41a14.18,14.18,0,0,1,.12,1.6c0,.1-.19.16-.32.07-.51-.34-1-.75-1.48-1.1h0c-.08-.15-.17-.28-.25-.42a10.75,10.75,0,0,1,1.67,1.16,4.85,4.85,0,0,0-.25-1.76c-.05-.13.24-.15.35-.06.54.49,1.1,1,1.67,1.45-.13-.62-.21-1.24-.28-1.86,0-.1.19-.17.32-.08,1,.68,2,1.37,2.87,2.09a3.8,3.8,0,0,0-1.06-2.58c-.1-.1.12-.17.27-.12a15.19,15.19,0,0,1,2.87,1.65l0,0C695.35,156.78,695.48,157,695.6,157.13Z" class="cls-9"/><path d="M691.08,152.54a4.6,4.6,0,0,0-2.68-2.14,2.63,2.63,0,0,1,.71,2c0,.1-.28.13-.35,0a5.48,5.48,0,0,0-2.39-1.87c.33.74.56,1.51-.13,2.17a.27.27,0,0,1-.31,0,9.7,9.7,0,0,0-2.6-1.71l-.23-.36a11,11,0,0,1,3,1.82c.52-.66.15-1.43-.17-2.12,0-.1.16-.14.28-.1a5.68,5.68,0,0,1,2.56,1.69,3.09,3.09,0,0,0-.86-1.68c-.08-.09.08-.16.23-.13a4.42,4.42,0,0,1,2.71,1.55q-.2-.64-.36-1.29l.55.68c.13.48.27.95.42,1.42C691.46,152.6,691.16,152.65,691.08,152.54Z" class="cls-9"/><path d="M687.76,148.2c-.85-.71-1.84-1.36-2.81-2,.26.68.35,1.36.67,2,.06.11-.2.14-.32.07a17.9,17.9,0,0,1-2.17-1.65c.22.83.32,1.67.49,2.52,0,.1-.19.15-.32.07-.76-.44-1.35-1-2-1.43h0c-.12-.18-.24-.35-.33-.52.82.49,1.47,1.07,2.26,1.59a22,22,0,0,0-.54-2.61c0-.1.2-.16.32-.08.75.55,1.35,1.15,2.12,1.68a14.84,14.84,0,0,0-.7-2.07c-.06-.1.21-.15.31-.07.92.62,1.86,1.23,2.72,1.88a4.13,4.13,0,0,1-.27-1.17l.42.5a3.23,3.23,0,0,0,.48,1.17C688.14,148.2,687.89,148.31,687.76,148.2Z" class="cls-9"/><path d="M683.64,143.67c0,.13-.32.11-.37,0a6.5,6.5,0,0,0-2.92-2.48,5.93,5.93,0,0,1,.47,2.42c0,.12-.32.11-.37,0a3.7,3.7,0,0,0-2.22-1.81,18.43,18.43,0,0,0,.63,2.37c-.22-.33-.42-.63-.63-.93,0,0,0,0,0,0a5.27,5.27,0,0,1-.37-1.63c0-.09.18-.1.29-.07a4.83,4.83,0,0,1,2.29,1.43,6.13,6.13,0,0,0-.58-2.07c0-.08.16-.15.28-.09a9.93,9.93,0,0,1,3.12,2.23,5.25,5.25,0,0,0-.17-1l.47.48A6.07,6.07,0,0,1,683.64,143.67Z" class="cls-9"/><path d="M679.54,139.42c0,.1-.21.1-.32.05-.85-.48-1.66-1-2.5-1.45.15.72.81,1.39.83,2.13,0,.09-.23.12-.33,0a4.94,4.94,0,0,0-1.53-.83l-.16-.27a5.46,5.46,0,0,1,1.6.71c-.17-.7-.79-1.35-.82-2.07,0-.1.23-.1.33-.05l2.47,1.42c-.1-.28-.3-.67-.41-1l0,0a5.35,5.35,0,0,1,.45.31h0A5.81,5.81,0,0,1,679.54,139.42Z" class="cls-9"/></g><path d="M712.2,207.62c0,.16,0,.32,0,.47-.11,1.39-.26,2.7-.42,3.91l-.09.6c-.3,2.16-.66,4-1,5.42,0,.12,0,.23-.08.34-.43,1.9-.77,3-.77,3-2.43-.13-2.43-.13-9.83.29,11.2-27.53,4.85-42.89,1.41-52.11-3.34-9-21.64-28.32-26.8-32.73-.15-1.07,1-.68,4.09,1.29l0,0a5.35,5.35,0,0,1,.45.31h0a36.14,36.14,0,0,1,3.88,3.56h0l.47.48c1.1,1.15,2.32,2.48,3.61,4l.42.5c.93,1.07,1.89,2.23,2.88,3.44h0l.55.68c1.38,1.73,2.8,3.58,4.2,5.53l0,0c.12.17.25.34.37.52.7,1,1.39,1.94,2.07,3h0l.48.7c1.05,1.57,2.09,3.18,3.09,4.82,0,0,0,0,0,0h0c.1.16.2.31.29.47,1,1.59,1.88,3.19,2.75,4.82h0c.1.18.2.36.29.54h0c.76,1.46,1.5,2.93,2.17,4.4h0l.12.26c.91,2,1.72,4,2.39,6,.12.35.24.68.34,1h0l.15.46h0a53.26,53.26,0,0,1,1.46,5.82h0c0,.21.09.43.13.64h0c.29,1.55.51,3.1.67,4.61,0,.25.05.5.08.75.21,2.15.3,4.25.31,6.25h0v.74h0C712.4,204.22,712.32,206,712.2,207.62Z" class="cls-10"/><path d="M0,143.57l29.78-42.93C42.7,112,57.94,118,70.86,118c6.47,0,9.93-1.61,9.93-4.61,0-2.31-3.23-3.93-12.93-5.31C45.7,104.79,20.08,90.25,20.08,65.09,20.08,25.85,53.78,0,96,0c21.7,0,41.55,6.92,53.79,18.93l-27.7,38.55C108,46.63,96.49,44.09,86.1,44.09c-5.54,0-10.16,1.38-10.16,4.38,0,2.31,3,3.24,11.08,4.39,11.08,1.38,23.08,6.69,30.7,11.54,11.77,7.85,18,16.85,18,30.47,0,41.09-34.4,68.55-78,68.55C42,163.42,21.7,161.81,0,143.57Z" class="cls-11"/><path d="M235.42,105.72H206.8L198,160.65H139.4L164.56,1.38h58.63l-8.77,55.86H243l8.77-55.86h58.63L285.28,160.65H226.65Z" class="cls-11"/><path d="M324.59,1.38H438.16L431,46.63H375.6l-1.84,12h52.63l-6.93,44.09H366.83L364.76,115h57.47l-7.15,45.7H299.43Z" class="cls-11"/><path d="M453.9,1.38H513l-17.54,110.8h50.78l-7.62,48.47H428.74Z" class="cls-11"/><path d="M577.09,1.38h59.09l-17.54,110.8h50.78l-7.62,48.47H551.93Z" class="cls-11"/><path d="M117.12,290.38H88.45l-8.79,55H20.93l25.2-159.55h58.74l-8.79,56h28.67l8.79-56h58.73l-25.2,159.55H108.33Z" class="cls-11"/><path d="M277.38,323.21H242l-8.56,22.2H174.71l75.61-159.32h66.37L341,345.41H279Zm-22.2-37.69h20.58l-2.54-44.63Z" class="cls-11"/><path d="M411.51,348.19c-40.47,0-70.76-23.82-70.76-68.68,0-61.74,45.55-96,96.66-96,33.07,0,47.4,13.64,47.4,13.64L462.15,247.6a44,44,0,0,0-28.9-10.87c-16,0-31.45,12.26-31.45,33.76,0,15,9.25,23.36,22.43,23.36,13.64,0,27-6.94,35.15-12.72L467.93,329C463.08,333.39,445.73,348.19,411.51,348.19Z" class="cls-11"/><path d="M547,292.69l-5.78,7.17-7.17,45.55H475.34l25.2-159.55h58.74l-7.4,46.71,30.06-46.71h68.45L594,250.6l34.23,94.81H558.35Z" class="cls-11"/><path d="M630.48,328.3l29.83-43c13,11.33,28.21,17.34,41.16,17.34,6.47,0,9.94-1.61,9.94-4.62,0-2.31-3.24-3.93-12.95-5.32-22.2-3.24-47.86-17.8-47.86-43,0-39.31,33.76-65.21,76.07-65.21,21.74,0,41.63,6.94,53.88,19L752.8,242.05c-14.1-10.87-25.66-13.41-36.07-13.41-5.55,0-10.18,1.39-10.18,4.39,0,2.31,3,3.24,11.1,4.4,11.1,1.38,23.13,6.7,30.76,11.56,11.79,7.86,18,16.88,18,30.52,0,41.16-34.46,68.68-78.16,68.68C672.56,348.19,652.21,346.57,630.48,328.3Z" class="cls-11"/><path d="M708.91,95.15l-4.07,7.42c-1.16,1.13-7.21,4.14-7.21,4.14l-.65.53c.75-.55,5.69-1.23,5.69-1.23l-1.73,2.2c-2.64,1.89-7.47,5.41-7.47,5.41l3.58-.92-2.38,4.59-6.14,4.44,4.34-2-2,3.48-5,5.46,2.84-1.37c-1.69,4.51-9.48,11.92-9.48,11.92l-.28-.32c-6.25-7.41-3.75-14.19-3.75-14.19l3,2.44-2.55-4.5a18.32,18.32,0,0,1,2-6.43l2.12,3.78-.56-5c1-3.29,4.77-7.15,4.77-7.15l2.17,3.47-.16-5.13c2-2.64,7.16-5.79,7.16-5.79l.18,4,1.74-4.17C698.47,97.31,706.46,95.1,708.91,95.15Z" class="cls-12"/><path d="M679,138.94c-6.25-7.41-3.75-14.19-3.75-14.19l3,2.44-2.55-4.5a18.32,18.32,0,0,1,2-6.43l2.12,3.78-.56-5c1-3.29,4.77-7.15,4.77-7.15l2.17,3.47-.16-5.13c2-2.64,7.16-5.79,7.16-5.79l.18,4,1.74-4.17c3.4-2.92,11.39-5.13,13.84-5.08C708.91,95.15,678.7,114.33,679,138.94Z" class="cls-13"/><path d="M723.29,126.61l4.3,0a28.25,28.25,0,0,1-5.55,3.61c-2.75,1.24-8.59-.41-8.59-.41l3.32,1.91c-4.92,1.49-13.5.78-13.5.78l6.22,1.31-2.94,1.34c-2.73.35-8-.14-10.38-.41,1.73.41,5.13,1.57,5.13,1.57l-3.11,1.26c-2.55.82-9.56,1-9.56,1l3.94.19c-4.58,2-11,1.49-13.35,1.23-.56-.06-.88-.11-.88-.11s.85-6.66,2.41-9.16,5.43-5.21,5.43-5.21L685.05,131a34.88,34.88,0,0,1,10.14-9.64l-1.28,4.19c1.92-2.72,8.35-5.86,8.35-5.86l.9,0-2.33,3.64,7.58-4.65,3.05-.17-.15,3.28,3.39-3.44c4.34-.73,15.35,1.82,16.69,3.75Z" class="cls-14"/><path d="M731.39,122.15s-39.59,3.61-52.17,17.91c-.56-.06-.88-.11-.88-.11s.85-6.66,2.41-9.16,5.43-5.21,5.43-5.21L685.05,131a34.88,34.88,0,0,1,10.14-9.64l-1.28,4.19c1.92-2.72,8.35-5.86,8.35-5.86l.9,0-2.33,3.64,7.58-4.65,3.05-.17-.15,3.28,3.39-3.44C719,117.67,730.05,120.22,731.39,122.15Z" class="cls-15"/><path d="M706.32,94.94l-4,7.43c-1.16,1.13-7.18,4.14-7.18,4.14l-.65.54c.74-.56,5.67-1.24,5.67-1.24L698.39,108c-2.62,1.9-7.43,5.42-7.43,5.42l3.56-.92-2.37,4.59L686,121.53l4.32-2-2,3.48-5,5.46,2.82-1.36c-1.68,4.5-9.43,11.91-9.43,11.91l-.27-.32c-6.22-7.4-3.73-14.18-3.73-14.18l3,2.44-2.54-4.51a18.32,18.32,0,0,1,2-6.43l2.1,3.78-.56-5c1-3.3,4.75-7.16,4.75-7.16l2.16,3.47-.15-5.12c2-2.65,7.11-5.8,7.11-5.8l.19,4,1.73-4.17C695.94,97.11,703.88,94.89,706.32,94.94Z" class="cls-16"/><path d="M676.52,138.74c-6.22-7.4-3.73-14.18-3.73-14.18l3,2.44-2.54-4.51a18.32,18.32,0,0,1,2-6.43l2.1,3.78-.56-5c1-3.3,4.75-7.16,4.75-7.16l2.16,3.47-.15-5.12c2-2.65,7.11-5.8,7.11-5.8l.19,4,1.73-4.17c3.38-2.92,11.32-5.14,13.76-5.09C706.32,94.94,676.27,114.14,676.52,138.74Z" class="cls-17"/><path d="M681.58,90,686,86.76l-1.81,6.51a13.93,13.93,0,0,0-5.93,8.84L684,96.37l-.31,6.58c-4.55,2.16-7.69,9-7.69,9,1.07-1.5,5.2-4,5.2-4l-.76,5.59-3.26,5.28,3.09-1.75c-3.23,6.63-3.38,21.44-3.38,21.44-.58-.61-1.14-1.23-1.67-1.85-12-13.76-10.9-26-10.9-26l3.9,1.54-4.55-4.46a13.48,13.48,0,0,1,.45-9.7l5.8,4.73-4.43-7.19C665,91,669,84.8,669,84.8l4.25,5.63-1.9-7.66c3.5-5.26,10.7-9,13.77-10.41l1,10C685.1,84.39,681.58,90,681.58,90Z" class="cls-18"/><path d="M681.58,90,686,86.76l-1.81,6.51a13.93,13.93,0,0,0-5.93,8.84L684,96.37l-.31,6.58c-4.55,2.16-7.69,9-7.69,9,1.07-1.5,5.2-4,5.2-4l-.76,5.59-3.26,5.28,3.09-1.75c-3.23,6.63-3.38,21.44-3.38,21.44-.58-.61-1.14-1.23-1.67-1.85-9.56-34,9.9-64.23,9.9-64.23l1,10C685.1,84.39,681.58,90,681.58,90Z" class="cls-19"/><g class="cls-20"><path d="M678.84,140.53s-1.76-.71-4.34-1.64c-4.73-1.7-12.21-4.14-16.62-4.3l2.77-2-11.51,2.31-4.9-.57,5.43-3.36c-.28.08-9.31,2.57-12.87,3.23l-4.49,1,4.54-4.44c-.31.08-10.11,2.63-11.68,3.62s-5.65.36-5.65.36l2.94-3.29-10.08,2.47,2.16-2.11-11.46,1.94a16.42,16.42,0,0,1-4.22-.44l-.48-.1,1.28-1.77c1.33-2.1,7.37-8.47,11.61-10.7l8.27,1.68S615,119,614,118.85c0,0,6.59-2.68,8.11-3.23,0,0,6.94,2.06,8,3.27-.16-.21-2.87-3.59-4.4-4.12,0,0,5-1.6,6.62-1.41s9,5.25,9.2,5.4a12,12,0,0,0-3.37-5.64s6.62,1.67,8.31,2.95,4.39,5.77,4.39,5.77l.56-4.11,8.52,7.5,1.07,4.29.43-3.21S677.21,138.68,678.84,140.53Z" class="cls-21"/></g><g class="cls-22"><path d="M678.84,140.53s-1.76-.71-4.34-1.64c-7-6.35-19.78-14.79-35.28-15.09a87.38,87.38,0,0,0-40.36,9.48l-.48-.1,1.28-1.77c1.33-2.1,7.37-8.47,11.61-10.7l8.27,1.68S615,119,614,118.85c0,0,6.59-2.68,8.11-3.23,0,0,6.94,2.06,8,3.27-.16-.21-2.87-3.59-4.4-4.12,0,0,5-1.6,6.62-1.41s9,5.25,9.2,5.4a12,12,0,0,0-3.37-5.64s6.62,1.67,8.31,2.95,4.39,5.77,4.39,5.77l.56-4.11,8.52,7.5,1.07,4.29.43-3.21S677.21,138.68,678.84,140.53Z" class="cls-23"/></g><path d="M675.9,140c-.47-.24-.93-.48-1.39-.74-8.3-4.61-15.87-12.37-15.87-12.37l3.7.18-5.78-3.82a25.84,25.84,0,0,1-7.61-8.84l5.34.25-7.16-5-1.29-3.12,7.17.34-8.08-3.44A15,15,0,0,1,643,97.09l4.67,1.11-5.18-3.3c-2.64-5-.69-11.53-.69-11.53l3.54,3.23L642.89,82c0-3.59,5.54-13,8.3-15.24l4.95,13-1,7.86c.31-2.14,3.32-3,3.32-3a49.08,49.08,0,0,0-.15,9.81l2.14-3c2,6.2,0,14,0,14l2.7-5.39,1,6.28-.23,9.16,2.08-4.94,1.64,4.39.83,8.66,1.42-4.06C672.67,125.61,675.9,140,675.9,140Z" class="cls-24"/><path d="M674.51,139.29c-8.3-4.61-15.87-12.37-15.87-12.37l3.7.18-5.78-3.82a25.84,25.84,0,0,1-7.61-8.84l5.34.25-7.16-5-1.29-3.12,7.17.34-8.08-3.44A15,15,0,0,1,643,97.09l4.67,1.11-5.18-3.3c-2.64-5-.69-11.53-.69-11.53l3.54,3.23L642.89,82c0-3.59,5.54-13,8.3-15.24-.42,6.68-1.18,26.58,4.3,39.8C659.86,117.12,669.13,131.38,674.51,139.29Z" class="cls-25"/><path d="M680.67,164.73c-.19-.38-3.69-1.73-3.86-1.79a9.16,9.16,0,0,1,1.92,3.57c.56,2.87-.68,6.79-.68,6.79l-3.2-2.48c1,2.83-2,7.75-2,7.75l-1.35-3.07c-.27,2.78-5,7-5,7l.11-2.34c-2.27,2.56-6.57,4.85-7.92,4.58a.48.48,0,0,1-.38-.28c-1-2.71,3.16-11.88,3.16-11.88l-4.38.78c2.68-1.52,9-7.77,9-7.77-1.49,1.07-6.69,1.3-6.69,1.3,2.26-1.63,10.06-8.87,10.31-9.1a12.65,12.65,0,0,1-6.31,1.73l2.65-2,6.38-6.85-3.64.59c4.36-3.26,6.08-10.36,6.42-12,0-.21.07-.33.07-.33.2.25.39.5.57.76,3.58,5.05,4.33,12.08,4.33,12.08L678,150l1.19,2.59C680.53,157.67,680.86,165.12,680.67,164.73Z" class="cls-26"/><path d="M680.67,164.73c-.19-.38-3.69-1.73-3.86-1.79a9.16,9.16,0,0,1,1.92,3.57c.56,2.87-.68,6.79-.68,6.79l-3.2-2.48c1,2.83-2,7.75-2,7.75l-1.35-3.07c-.27,2.78-5,7-5,7l.11-2.34c-2.27,2.56-6.57,4.85-7.92,4.58,26.24-31.16,16.56-45.43,16.56-45.43l.64.43c3.58,5.05,4.33,12.08,4.33,12.08L678,150l1.19,2.59C680.53,157.67,680.86,165.12,680.67,164.73Z" class="cls-27"/><path d="M678,138.59a.69.69,0,0,1,0,.13c-.35,1.27-4.93,6.45-4.93,6.45l-1.42-1.37c-1.83,3.31-7.53,6.14-7.53,6.14l-.79-2.8c-2,3.8-10.42,8.3-10.42,8.3l-.3-5.25-3.07,6L645,158.6l.79-4.84a32.15,32.15,0,0,1-2.81,4.57c-1.39,1.72-8.38,4.46-8.38,4.46l-.78.7c.78-.7.21-4.28.21-4.28l-2,3.14c-1.94,2.3-10.1,7-10.35,7.13h0A14.3,14.3,0,0,1,627,158.22l-3,.67c.75-4,6.87-7.87,6.87-7.87L626,152.17c.61-1.11,2.8-4.09,2.8-4.09l8.5-3.33-5.18-.24c4.13-4.83,13.09-6,13.09-6l-4.19-.2c4.82-2.37,12.65-2.15,12.65-2.15L647.59,135c1.14-.43,6.77-1.94,6.77-1.94,3.92-.46,11.92,2.84,11.92,2.84l-4.67-3.15C667,133,678,137.17,678,138.59Z" class="cls-28"/><path d="M678,138.59a.69.69,0,0,1,0,.13c-26.1-5-55.92,30.24-56.36,30.76h0A14.3,14.3,0,0,1,627,158.22l-3,.67c.75-4,6.87-7.87,6.87-7.87L626,152.17c.61-1.11,2.8-4.09,2.8-4.09l8.5-3.33-5.18-.24c4.13-4.83,13.09-6,13.09-6l-4.19-.2c4.82-2.37,12.65-2.15,12.65-2.15L647.59,135c1.14-.43,6.77-1.94,6.77-1.94,3.92-.46,11.92,2.84,11.92,2.84l-4.67-3.15C667,133,678,137.17,678,138.59Z" class="cls-29"/><path d="M720.61,126.41l4.28,0a28.27,28.27,0,0,1-5.52,3.61c-2.73,1.24-8.55-.4-8.55-.4l3.31,1.91c-4.89,1.48-13.43.77-13.43.77l6.19,1.32L704,135c-2.72.35-8-.13-10.34-.4,1.73.4,5.11,1.57,5.11,1.57l-3.09,1.26c-2.54.81-9.51,1-9.51,1l3.92.19c-4.56,2-11,1.5-13.28,1.24l-.87-.12s.84-6.66,2.39-9.15,5.4-5.22,5.4-5.22l-1.12,5.42a34.83,34.83,0,0,1,10.08-9.64l-1.27,4.19c1.92-2.72,8.31-5.86,8.31-5.86l.89,0-2.31,3.64,7.53-4.64,3-.17-.15,3.27,3.37-3.43c4.32-.73,15.27,1.81,16.6,3.74Z" class="cls-30"/><path d="M728.67,121.94s-39.38,3.62-51.89,17.93l-.87-.12s.84-6.66,2.39-9.15,5.4-5.22,5.4-5.22l-1.12,5.42a34.83,34.83,0,0,1,10.08-9.64l-1.27,4.19c1.92-2.72,8.31-5.86,8.31-5.86l.89,0-2.31,3.64,7.53-4.64,3-.17-.15,3.27,3.37-3.43C716.39,117.47,727.34,120,728.67,121.94Z" class="cls-31"/><path d="M757.75,149.83a79.58,79.58,0,0,1-14.56,2,70.52,70.52,0,0,1-17.59-1.41,69.35,69.35,0,0,1-25.29-10.88,50.58,50.58,0,0,1-7.59-6.27c1,0,2-.08,2.92-.11,2.62.11,6.85.35,12.08,1a160.39,160.39,0,0,1,20.15,3.59c3.63.9,7.35,2,11.08,3.24a97.16,97.16,0,0,1,18.16,8.27C757.54,149.62,757.75,149.83,757.75,149.83Z" class="cls-32"/><path d="M707.72,134.17a57.06,57.06,0,0,0-7.41,5.42,50.58,50.58,0,0,1-7.59-6.27c1,0,2-.08,2.92-.11C698.26,133.32,702.49,133.56,707.72,134.17Z" class="cls-33"/><path d="M739,141l4.24,10.88a70.52,70.52,0,0,1-17.59-1.41l2.27-12.71Z" class="cls-33"/><path d="M726.73,137.48s-3.19,8.48-5.83,16.05c-1.08,3.12-2.08,6.09-2.71,8.24-2.18,7.37-8.61,25.43-8.61,25.43l-1.86.22,11.83-34.76L725,136.87Z" class="cls-34"/><path d="M757.36,149.42l-.25-.15a88,88,0,0,0-10.52-5.33,114.77,114.77,0,0,0-13-4.65,148.1,148.1,0,0,0-16.77-3.83c-5-.85-9.55-1.39-13.31-1.73-3.29-.3-6-.44-7.84-.52s-2.92-.06-2.92-.06a66.9,66.9,0,0,1,21.58-7.58,37.54,37.54,0,0,1,12.9.14c.88.17,1.75.38,2.6.63h0C747.28,131.35,757.36,149.42,757.36,149.42Z" class="cls-35"/><path d="M746.59,143.94a114.77,114.77,0,0,0-13-4.65,29.75,29.75,0,0,0-3.76-12.95h0A26.47,26.47,0,0,1,746.59,143.94Z" class="cls-36"/><path d="M727.2,125.71s-9.76,4.24-12,9.49c0,0-9-1.38-14.28-1.68C700.92,133.52,712.49,122.93,727.2,125.71Z" class="cls-36"/><path d="M726.73,137.48s-3.19,8.48-5.83,16.05l-1.35-.87L725,137.09Z" class="cls-37"/><path d="M747.19,186a42.23,42.23,0,0,1-7.05,5.81,62.81,62.81,0,0,1-7.46,4.39,72.35,72.35,0,0,1-11.18,4.49c-.65.21-1.32.4-2,.59l-.09,0a81,81,0,0,1-9.39,2h0a86.26,86.26,0,0,1-10.61.95s-15.57-10.95-25.45-12.48c0,0,7.5-.68,17.51-2.61,0,0,0,0,.07-.06s.08-.07.12-.07h0c3.12,0,6.49,0,9.94-1.44h.11c4.67-1.45,9.5-1.91,14.13-3l0,0c2.94-.69,5.79-1.44,8.47-2.2h0c2.44-.7,4.72-1.44,6.78-2.2C731.12,180.16,744.51,181.69,747.19,186Z" class="cls-38"/><path d="M721.5,200.68l-2,.59-.09,0a81,81,0,0,1-9.39,2c-5.24-5.88-12.85-11.58-18.38-14.08l-.12-.07-.07,0,10.22-1.6,0,0a60.52,60.52,0,0,1,10.83,6.22C716.66,196.72,719.56,199,721.5,200.68Z" class="cls-6"/><path d="M740.14,191.8a62.81,62.81,0,0,1-7.46,4.39,39.59,39.59,0,0,1-6.63-4.36,67.1,67.1,0,0,0-10.19-7.27c2.94-.69,5.79-1.44,8.47-2.2h0C729.66,185.29,736.46,189.5,740.14,191.8Z" class="cls-6"/><path d="M673.94,191.77a50.85,50.85,0,0,1,8.9,2.94c3.59,1.73,14.13,7.27,16.55,9.54,0,0,4.82-.15,7.91-.58s10.89-1.7,15.63-3.45a103,103,0,0,0,10-4.12,100.7,100.7,0,0,1-13.07,5.4c-5.85,1.76-6.08,1.79-9.64,2.32s-10.64.84-11,1.11a30.31,30.31,0,0,0-4.93-3.73c-2.48-1.4-7.08-4.14-9.83-5.35S673.94,191.77,673.94,191.77Z" class="cls-39"/><path d="M698.54,204.25l.57,0Z" class="cls-40"/><path d="M697.05,204.31l.69,0Z" class="cls-40"/><path d="M689,196.59c.89,5.33,51.35-3.1,51.06-13.43C740,178.63,687.78,189.12,689,196.59Z" class="cls-41"/><path d="M718.53,186.86a13.73,13.73,0,1,1-4.85-18.8A13.73,13.73,0,0,1,718.53,186.86Z" class="cls-11"/><path d="M700.2,173.88c-1.31,8.31,2.53,15.1,7.91,19.66a13.76,13.76,0,0,0,12.23-12C709.66,170.16,700.2,173.88,700.2,173.88Z" class="cls-42"/><path d="M694.87,172.93a13.69,13.69,0,0,0-1.22,11.21c1.33-4.56,3.51-8,6.55-10.26A10.8,10.8,0,0,0,694.87,172.93Z" class="cls-42"/><path d="M713.68,168.06a13.71,13.71,0,0,0-13.79-.1,10.39,10.39,0,0,0,.16,5.82c4.25-5.33,8.89-6.3,13.66-5.71Z" class="cls-42"/><path d="M701.84,175.27a2.21,2.21,0,1,1,.09-3.44A2.46,2.46,0,0,1,701.84,175.27Z" class="cls-11"/></g></g></svg>